<svg id="Layer_1" data-name="Layer 1" xmlns="http://www.w3.org/2000/svg" viewBox="0 0 700 700">
  <defs>
    <style>
      .cls-2-l07sn {
        font-family: ArialMT, Arial;
        font-size: 78px;
      }
    </style>
  </defs>
  <g>
    <g>
      <g>
        <g>
          <g>
            <g>
              <g>
                <path class="first-color" d="m450.33,211.89s25.8-.3,38.02,2.07c8.14,1.68,15.02,9.51,19.21,10.69,4.18,1.17,3.47-4.03,3.47-4.03,4.14,1.47,12.51.19,13.87-1.93,1.37-2.12-3.76-16.26-24.28-18-20.53-1.74-40.76,7.47-57.86,8.46-.18,1.04,7.57,2.75,7.57,2.75Z"/>
                <path class="first-color" d="m511.03,220.62s.71,5.2-3.47,4.03c-4.18-1.18-11.07-9.01-19.21-10.69-12.23-2.37-38.02-2.07-38.02-2.07,0,0-.69-.16-1.63-.39,16.04-2.06,35.88-6.38,52.96-4.93,13.37,1.14,20.2,7.53,22.97,12.44-1.95,1.92-9.67,3-13.59,1.61Z"/>
              </g>
              <g>
                <path class="first-color" d="m489.68,205.06s25.48-4.05,37.92-3.49c8.3.47,16.25,7.23,20.56,7.78,4.31.55,2.84-4.49,2.84-4.49,4.31.85,12.41-1.64,13.45-3.94,1.04-2.3-6.1-15.53-26.65-14.27-20.56,1.26-39.22,13.32-56.01,16.79-.03,1.05,7.89,1.62,7.89,1.62Z"/>
                <path class="first-color" d="m551,204.86s1.46,5.04-2.84,4.49c-4.31-.55-12.26-7.31-20.56-7.78-12.44-.56-37.92,3.49-37.92,3.49,0,0-.7-.05-1.67-.15,15.57-4.38,34.56-11.55,51.68-12.59,13.39-.82,21.09,4.52,24.54,8.96-1.65,2.19-9.13,4.38-13.22,3.58Z"/>
              </g>
              <g>
                <path class="first-color" d="m469.14,198.42s16.73,4.8,21.83-6.57c3.31-7.63.85-17.76,2.29-21.86,1.44-4.1,5.29-.52,5.29-.52,1.18-4.24,7.04-10.34,9.56-10.24,2.51.11,11.14,12.44.76,30.23-10.37,17.79-39.09,23.98-52.87,22.07-6.65-3.83,13.14-13.11,13.14-13.11Z"/>
                <path class="first-color" d="m502.63,184.83c-9.99,17.14-27.06,25.36-42.77,23.33-.19-2.7,9.29-9.73,9.29-9.73,0,0,16.73,4.8,21.83-6.57,3.31-7.63.85-17.76,2.29-21.86,1.44-4.1,5.29-.52,5.29-.52,1.06-3.84,5.99-9.21,8.77-10.1,1.66,5.2,1.84,14.24-4.7,25.45Z"/>
              </g>
              <g>
                <path class="first-color" d="m437.86,196.72s12.99,11.59,22.52,3.57c6.29-5.43,8.49-15.62,11.58-18.69,3.08-3.06,4.98,1.83,4.98,1.83,2.91-3.3,10.85-6.25,13.07-5.06,2.22,1.19,4.62,16.04-12.46,27.55-17.08,11.52-45.63,4.6-57.21-3.11-4.33-6.35,17.53-6.08,17.53-6.08Z"/>
                <path class="first-color" d="m473.93,199.05c-16.45,11.09-35.4,11.06-48.66,2.4,1-2.52,8.86-8.1,8.86-8.1,0,0,14.57,15.76,26.25,6.95,6.63-5.01,8.49-15.62,11.58-18.69,3.08-3.06,4.98,1.83,4.98,1.83,2.64-2.99,9.4-5.69,12.3-5.28-.76,5.39-4.54,13.63-15.3,20.89Z"/>
              </g>
            </g>
            <g>
              <g>
                <path class="first-color" d="m364.05,233.9s-1.81-1.12-4.52-3.73c-1.36-1.3-2.9-3-4.45-5.17-1.56-2.18-3.08-4.87-4.1-8.17-.52-1.65-.83-3.46-.97-5.38-.07-.96.02-1.95.04-2.96v-.19s.01-.05.01-.05c.01-.08-.03.12.03-.2v-.08s.06-.33.06-.33l.1-.65c.07-.44.13-.88.2-1.33.17-.91.21-1.75.47-2.75.28-1.01.57-2.04.86-3.08.26-1.08.74-2.01,1.16-3.01.43-.99.84-2.02,1.46-2.94,2.19-3.87,5.33-7.25,8.39-10.08,3-2.84,6.13-5.71,8.88-8.48,2.75-2.76,5.06-5.79,5.79-8.34.36-1.28.36-2.33.07-3.49l-.04-.22v-.03c-.03-.08.22.58.11.28l-.03-.09-.07-.18-.29-.7-.28-.7c-.1-.29-.15-.23-.22-.36-.15-.17-.17-.37-.34-.59-.18-.22-.36-.46-.52-.7-1.49-1.65-4.13-2.5-6.53-1.96-1.18.22-2.23.74-2.92,1.42-.14.18-.31.36-.47.54-.09.2-.22.4-.35.6l-.03.04s.08-.34.04-.16v.03s-.06.15-.06.15l-.09.29-.18.58c0,.18-.08.32-.11.54-.09.94.1,1.86.68,2.7.56.83,1.43,1.56,2.31,1.97,1.54.96,3.52.17,4.6-.91,1.14-1.12,1.29-2.55,1.05-3.44-.24-.91-.64-1.32-.61-1.33-.03.03.47.26,1.06,1.15.59.85.95,2.69-.09,4.61-.51.94-1.33,1.89-2.52,2.56-.31.15-.72.35-1,.45l-.42.15-.1.04-.24.05-.32.05c-.86.12-1.65.06-2.43-.1-1.55-.33-3.09-1.06-4.49-2.31-1.41-1.21-2.5-3.22-2.75-5.43-.07-.55-.04-1.21-.02-1.83l.06-.61.03-.3.02-.16v-.04c-.03.16.05-.26.06-.23l.03-.1c.16-.56.33-1.14.54-1.71.26-.53.56-1.06.88-1.59,1.37-2.02,3.39-3.49,5.61-4.38,2.24-.87,4.75-1.2,7.31-.85,2.56.32,5.17,1.48,7.27,3.32.49.49.97.98,1.46,1.5.47.52.91,1.23,1.31,1.88.18.3.47.74.54.94l.31.68.31.69.08.17.04.08.14.37.02.06.15.51c.92,2.7.88,5.9.04,8.57-.8,2.7-2.15,4.94-3.61,6.87-1.47,1.94-3.07,3.58-4.66,5.14-3.21,3.12-6.48,5.68-9.6,8.35-3.12,2.61-5.84,4.99-7.76,7.84-.55.66-.94,1.42-1.37,2.16-.41.74-.9,1.46-1.15,2.22-.32.75-.63,1.5-.94,2.23-.31.75-.49,1.74-.74,2.57-.22.81-.43,1.61-.63,2.39-.09.73-.28,1.45-.32,2.19,0,.73-.09,1.46-.04,2.18.08.72.08,1.44.2,2.15.4,2.82,1.29,5.43,2.29,7.67.99,2.25,2.09,4.14,3.01,5.71.94,1.56,1.79,2.72,2.37,3.53.57.8.91,1.21.91,1.21Z"/>
                <g>
                  <path class="first-color" d="m374.41,150.71c-2.56-.35-5.07-.02-7.31.85-.03.02-.07.03-.1.05,1.59-.32,3.26-.42,4.96-.18,2.56.32,5.16,1.48,7.27,3.32.49.48.98.99,1.46,1.5.48.51.91,1.23,1.32,1.88.18.3.46.75.53.94l.31.69.32.68.08.18.03.08.15.37.02.07.15.51c.93,2.69.88,5.9.04,8.57-.8,2.7-2.15,4.94-3.61,6.87-1.47,1.93-3.07,3.58-4.66,5.14-3.21,3.12-6.48,5.68-9.6,8.35-3.12,2.6-5.84,4.99-7.76,7.84-.56.67-.95,1.42-1.37,2.16-.41.74-.91,1.46-1.15,2.22-.32.75-.63,1.5-.94,2.23-.31.75-.5,1.74-.75,2.58-.21.81-.42,1.6-.63,2.39-.09.74-.28,1.46-.32,2.19,0,.73-.09,1.46-.03,2.18.08.72.08,1.44.19,2.15.41,2.82,1.29,5.43,2.3,7.67.49,1.11,1,2.13,1.51,3.07.94,1.13,1.86,2.12,2.71,2.92,2.71,2.61,4.52,3.73,4.52,3.73,0,0-.34-.41-.91-1.21-.57-.81-1.43-1.96-2.37-3.53-.93-1.56-2.02-3.45-3.01-5.71-1-2.24-1.89-4.85-2.29-7.67-.11-.71-.11-1.42-.2-2.15-.05-.72.04-1.45.04-2.18.05-.73.23-1.45.32-2.19.21-.78.42-1.58.63-2.39.25-.84.43-1.82.74-2.57.31-.73.62-1.48.94-2.23.25-.76.75-1.48,1.15-2.22.42-.73.81-1.49,1.37-2.16,1.92-2.85,4.64-5.24,7.76-7.84,3.13-2.67,6.39-5.23,9.6-8.35,1.6-1.56,3.19-3.2,4.66-5.14,1.46-1.93,2.81-4.17,3.61-6.87.83-2.67.88-5.87-.04-8.57l-.15-.51-.02-.06-.14-.37-.04-.08-.08-.17-.31-.69-.31-.68c-.07-.19-.36-.64-.54-.94-.41-.65-.84-1.37-1.31-1.88-.48-.52-.97-1.01-1.46-1.5-2.11-1.84-4.72-3-7.27-3.32Z"/>
                  <path class="first-color" d="m362.81,162.47c0,.18-.09.32-.11.54-.09.93.1,1.86.68,2.7.56.84,1.43,1.56,2.32,1.97,1.22.76,6.74,2.16,7.93-2.96-1.85,3.4-5.05,2.51-5.49,2.24-.88-.41-1.75-1.14-2.31-1.97-.58-.85-.77-1.77-.68-2.7.02-.23.1-.36.11-.54l.18-.58.09-.29.04-.15v-.03c.05-.18-.03.2-.02.16l.03-.04c.13-.2.26-.39.35-.6.16-.18.32-.36.47-.54.32-.31.71-.58,1.16-.81-.23.03-.46.05-.68.1-1.18.22-2.22.75-2.93,1.43-.14.18-.31.35-.47.53-.09.2-.21.4-.35.6l-.03.04s.08-.33.03-.16v.04s-.05.14-.05.14l-.09.29-.18.58Z"/>
                </g>
              </g>
              <g>
                <path class="first-color" d="m352.75,208.26s.46-2.08,2-5.51c.77-1.72,1.87-3.74,3.39-5.93,1.53-2.19,3.56-4.53,6.33-6.59,1.39-1.04,2.98-1.94,4.75-2.71.88-.38,1.84-.63,2.8-.96l.18-.05.04-.02c.09-.02-.12.02.2-.04l.08-.02.33-.06.65-.13c.44-.08.88-.17,1.32-.25.91-.15,1.72-.39,2.75-.48,1.05-.07,2.12-.15,3.19-.22,1.1-.12,2.14.03,3.23.08,1.08.07,2.18.11,3.25.4,4.38.77,8.61,2.6,12.31,4.53,3.68,1.88,7.43,3.87,10.96,5.54,3.52,1.66,7.15,2.83,9.79,2.67,1.32-.09,2.32-.45,3.32-1.11l.2-.11.02-.02c.06-.05-.47.41-.23.2l.07-.06.14-.13.56-.5.56-.5c.24-.19.16-.22.26-.33.11-.2.29-.28.44-.51.15-.25.31-.49.48-.73,1.06-1.96.97-4.72-.33-6.81-.61-1.04-1.45-1.85-2.32-2.28-.22-.07-.44-.17-.66-.26-.23-.02-.45-.07-.68-.14h-.04s.35-.05.16-.03h-.19s-.31.02-.31.02l-.6.03c-.17.05-.33.03-.55.08-.91.23-1.71.72-2.32,1.54-.6.81-.99,1.87-1.08,2.84-.39,1.77,1.02,3.37,2.39,4.03,1.43.69,2.84.36,3.59-.16.77-.52,1.03-1.05,1.05-1.02-.03-.02-.08.53-.72,1.38-.61.84-2.22,1.8-4.38,1.46-1.05-.17-2.23-.62-3.26-1.52-.25-.24-.58-.56-.76-.8l-.28-.33-.07-.08-.12-.2-.16-.29c-.4-.76-.61-1.53-.71-2.32-.21-1.58-.03-3.26.68-5.01.67-1.73,2.2-3.43,4.19-4.4.5-.25,1.13-.44,1.72-.63l.59-.14.3-.07.15-.04h.04c-.16,0,.25-.04.24-.04h.11c.59-.05,1.19-.07,1.79-.07.59.07,1.19.18,1.79.3,2.36.61,4.42,2.02,6.01,3.82,1.57,1.82,2.72,4.07,3.25,6.6.55,2.52.33,5.36-.7,7.97-.29.62-.6,1.25-.93,1.87-.32.62-.85,1.27-1.33,1.87-.23.27-.55.69-.7.82l-.54.52-.54.52-.14.14-.07.06-.3.26-.06.04-.43.32c-2.23,1.77-5.27,2.8-8.06,2.91-2.81.15-5.38-.37-7.69-1.1-2.31-.74-4.4-1.69-6.4-2.67-4.02-1.98-7.52-4.21-11.08-6.26-3.5-2.07-6.66-3.83-9.98-4.69-.82-.3-1.66-.42-2.5-.56-.83-.14-1.68-.37-2.48-.35-.82-.05-1.62-.09-2.41-.14-.81-.04-1.8.11-2.68.16-.83.07-1.65.14-2.46.2-.72.16-1.46.23-2.17.43-.69.25-1.41.4-2.07.7-.65.32-1.33.56-1.96.9-2.52,1.32-4.68,3.03-6.46,4.73-1.79,1.69-3.21,3.35-4.37,4.75-1.16,1.41-1.96,2.61-2.52,3.41-.57.81-.84,1.27-.84,1.27Z"/>
                <g>
                  <path class="first-color" d="m434.61,190.19c-.53-2.53-1.67-4.78-3.25-6.6-.02-.03-.05-.05-.08-.08.84,1.39,1.48,2.93,1.83,4.61.55,2.52.33,5.36-.7,7.97-.29.62-.6,1.25-.93,1.87-.33.62-.86,1.27-1.33,1.87-.22.27-.55.69-.7.82l-.54.52-.54.53-.14.13-.07.06-.3.26-.05.04-.43.32c-2.24,1.77-5.27,2.8-8.06,2.91-2.81.15-5.38-.37-7.68-1.1-2.32-.74-4.4-1.68-6.4-2.67-4.02-1.98-7.52-4.21-11.08-6.26-3.49-2.06-6.66-3.83-9.98-4.69-.81-.3-1.66-.42-2.49-.56-.83-.14-1.68-.37-2.48-.35-.82-.05-1.62-.09-2.42-.14-.81-.04-1.8.12-2.68.16-.83.07-1.65.14-2.46.2-.73.16-1.47.23-2.17.43-.69.25-1.41.4-2.07.7-.65.32-1.33.56-1.95.9-2.52,1.32-4.69,3.04-6.46,4.73-.88.83-1.67,1.66-2.39,2.45-.75,1.27-1.38,2.46-1.86,3.53-1.55,3.43-2,5.51-2,5.51,0,0,.27-.46.84-1.27.57-.81,1.37-2,2.52-3.41,1.16-1.39,2.58-3.06,4.37-4.75,1.78-1.7,3.94-3.41,6.46-4.73.63-.34,1.31-.58,1.96-.9.66-.29,1.38-.45,2.07-.7.7-.2,1.45-.27,2.17-.43.81-.07,1.63-.14,2.46-.2.88-.04,1.87-.2,2.68-.16.8.04,1.6.09,2.41.14.8-.02,1.64.21,2.48.35.84.15,1.68.27,2.5.56,3.32.86,6.48,2.62,9.98,4.69,3.57,2.05,7.07,4.27,11.08,6.26,2,.98,4.09,1.94,6.4,2.67,2.31.73,4.87,1.26,7.69,1.1,2.79-.11,5.83-1.14,8.06-2.91l.43-.32.06-.04.3-.26.07-.06.14-.14.54-.52.54-.52c.15-.13.48-.55.7-.82.48-.6,1-1.25,1.33-1.87.33-.62.64-1.25.93-1.87,1.03-2.61,1.25-5.45.7-7.97Z"/>
                  <path class="first-color" d="m419.65,183.19c-.17.05-.33.03-.55.08-.91.22-1.72.72-2.32,1.54-.6.81-.99,1.87-1.08,2.84-.31,1.41.22,7.07,5.44,6.48-3.82-.62-4.06-3.92-3.95-4.42.09-.97.48-2.03,1.08-2.84.6-.83,1.4-1.32,2.32-1.54.22-.05.38-.03.55-.08l.6-.03.31-.02h.15s.04,0,.04,0c.19-.02-.21.02-.16.02h.04c.23.07.46.13.68.15.22.09.44.19.66.26.4.19.78.48,1.15.82-.1-.21-.2-.41-.32-.61-.6-1.04-1.45-1.85-2.32-2.28-.22-.07-.44-.17-.66-.26-.23-.02-.45-.07-.68-.14h-.04s.35-.05.16-.03h-.19s-.3.02-.3.02l-.61.03Z"/>
                </g>
              </g>
              <g>
                <path class="first-color" d="m351.47,220.09s-.71-2.01-1.19-5.74c-.25-1.86-.37-4.15-.23-6.82.15-2.67.65-5.72,1.92-8.94.63-1.61,1.52-3.22,2.62-4.8.55-.79,1.24-1.51,1.88-2.29l.12-.14.03-.03c.07-.06-.1.07.15-.14l.06-.06.25-.23.48-.45c.33-.3.66-.6.99-.91.7-.61,1.26-1.23,2.09-1.85.85-.62,1.72-1.23,2.59-1.86.87-.68,1.84-1.1,2.79-1.63.96-.51,1.92-1.05,2.98-1.37,4.14-1.65,8.69-2.31,12.85-2.61,4.12-.33,8.36-.61,12.23-1.04,3.87-.43,7.58-1.35,9.74-2.88,1.07-.77,1.73-1.6,2.24-2.68l.11-.2.02-.02c.02-.08-.19.59-.09.29l.03-.09.05-.18.22-.73.21-.72c.1-.29.02-.27.05-.41-.01-.23.09-.39.1-.67,0-.29,0-.58.03-.87-.13-2.22-1.66-4.53-3.86-5.62-1.06-.56-2.2-.81-3.17-.72-.23.06-.46.09-.7.13-.2.1-.42.17-.65.24h-.04s.27-.2.13-.09l-.03.03-.13.08-.25.17-.5.34c-.12.14-.27.19-.42.36-.66.67-1.08,1.51-1.16,2.54-.08,1,.14,2.11.57,2.98.6,1.71,2.64,2.33,4.15,2.17,1.58-.16,2.6-1.18,2.97-2.02.38-.86.32-1.44.36-1.42-.04,0,.21.5.11,1.55-.08,1.03-.94,2.69-2.96,3.54-.98.41-2.22.64-3.57.42-.33-.07-.78-.18-1.06-.28l-.41-.14-.11-.04-.21-.11-.29-.16c-.74-.44-1.32-.98-1.83-1.6-1.01-1.23-1.74-2.76-2.05-4.61-.34-1.83.07-4.08,1.26-5.95.3-.48.73-.97,1.13-1.44l.43-.43.21-.22.1-.1.03-.03c-.13.1.2-.16.19-.15l.09-.06c.48-.35.97-.68,1.49-.99.54-.25,1.1-.47,1.68-.69,2.33-.72,4.82-.6,7.12.1,2.3.72,4.45,2.04,6.23,3.91,1.8,1.85,3.11,4.39,3.59,7.15.08.69.14,1.38.2,2.08.05.7-.07,1.52-.15,2.29-.05.35-.1.87-.17,1.07l-.18.73-.18.73-.05.19-.02.09-.12.38-.02.06-.2.5c-.97,2.68-3.01,5.15-5.33,6.71-2.32,1.61-4.77,2.51-7.12,3.1-2.36.59-4.63.87-6.85,1.09-4.46.42-8.61.37-12.72.49-4.06.08-7.68.24-10.96,1.26-.85.17-1.62.51-2.42.82-.78.32-1.62.57-2.29,1.01-.72.39-1.43.77-2.13,1.15-.71.39-1.47,1.05-2.19,1.54-.68.49-1.34.98-1.99,1.46-.53.52-1.13.96-1.62,1.5-.46.58-.99,1.09-1.39,1.68-.38.61-.84,1.17-1.19,1.79-1.45,2.45-2.4,5.04-3.02,7.41-.63,2.38-.97,4.54-1.22,6.34-.24,1.81-.3,3.24-.36,4.23-.05.98-.05,1.51-.05,1.51Z"/>
                <g>
                  <path class="first-color" d="m411.63,161.72c-1.78-1.88-3.93-3.19-6.23-3.91-.04-.01-.07-.02-.11-.02,1.44.74,2.8,1.71,3.98,2.96,1.79,1.85,3.1,4.39,3.59,7.15.08.68.15,1.38.19,2.08.05.7-.06,1.53-.15,2.29-.05.35-.11.87-.17,1.07l-.18.73-.18.73-.05.19-.02.09-.12.37-.03.06-.2.5c-.97,2.68-3.01,5.15-5.33,6.71-2.31,1.61-4.77,2.51-7.12,3.1-2.35.59-4.63.87-6.85,1.09-4.46.42-8.61.37-12.72.5-4.06.07-7.68.24-10.96,1.25-.85.17-1.63.51-2.42.83-.78.32-1.62.57-2.29,1.01-.71.39-1.43.77-2.12,1.15-.72.39-1.48,1.05-2.2,1.54-.67.49-1.33.98-1.99,1.46-.54.51-1.13.96-1.63,1.5-.46.57-.98,1.08-1.39,1.68-.39.62-.84,1.18-1.19,1.79-1.45,2.45-2.39,5.04-3.02,7.42-.31,1.17-.55,2.29-.74,3.34.03,1.48.12,2.82.28,3.98.48,3.73,1.19,5.74,1.19,5.74,0,0,0-.53.05-1.51.06-.99.12-2.43.36-4.23.26-1.79.59-3.96,1.22-6.34.63-2.38,1.57-4.96,3.02-7.41.35-.62.8-1.18,1.19-1.79.41-.6.93-1.11,1.39-1.68.5-.54,1.09-.98,1.62-1.5.65-.48,1.31-.97,1.99-1.46.72-.5,1.48-1.15,2.19-1.54.7-.38,1.41-.76,2.13-1.15.67-.44,1.51-.69,2.29-1.01.79-.31,1.57-.65,2.42-.82,3.28-1.02,6.9-1.18,10.96-1.26,4.11-.13,8.26-.07,12.72-.49,2.22-.22,4.49-.5,6.85-1.09,2.34-.59,4.8-1.49,7.12-3.1,2.32-1.56,4.36-4.02,5.33-6.71l.2-.5.02-.06.12-.38.02-.09.05-.19.18-.73.18-.73c.07-.2.12-.72.17-1.07.09-.77.2-1.6.15-2.29-.05-.71-.12-1.4-.2-2.08-.49-2.76-1.8-5.29-3.59-7.15Z"/>
                  <path class="first-color" d="m395.23,163.61c-.12.14-.27.19-.43.36-.66.67-1.08,1.51-1.16,2.53-.09,1,.14,2.11.57,2.98.47,1.36,3.9,5.9,8.03,2.66-3.57,1.48-5.51-1.2-5.68-1.68-.43-.87-.66-1.98-.57-2.98.08-1.03.5-1.87,1.16-2.54.15-.16.31-.22.42-.36l.5-.34.25-.17.13-.08.03-.03c.15-.11-.16.13-.13.1h.04c.23-.08.45-.15.65-.25.24-.04.48-.07.7-.13.44-.04.92,0,1.41.09-.19-.12-.39-.25-.59-.35-1.06-.57-2.2-.81-3.17-.72-.23.06-.47.08-.7.13-.2.1-.42.18-.65.24l-.05.02s.27-.21.13-.1l-.03.02-.12.08-.25.17-.5.34Z"/>
                </g>
              </g>
            </g>
            <g>
              <path class="first-color" d="m463.5,186.57c0-6.64-5.38-12.02-12.02-12.02s-12.02,5.38-12.02,12.02,5.38,12.02,12.02,12.02,12.02-5.38,12.02-12.02Z"/>
              <path class="first-color" d="m451.48,177.45c-5.04,0-9.12,4.08-9.12,9.12s4.08,9.12,9.12,9.12,9.12-4.09,9.12-9.12-4.08-9.12-9.12-9.12Z"/>
            </g>
            <g>
              <path class="first-color" d="m402.3,208.46c0-4.16-3.37-7.53-7.53-7.53s-7.53,3.37-7.53,7.53,3.37,7.53,7.53,7.53,7.53-3.37,7.53-7.53Z"/>
              <path class="first-color" d="m394.77,202.74c-3.15,0-5.71,2.56-5.71,5.71s2.56,5.71,5.71,5.71,5.71-2.56,5.71-5.71-2.55-5.71-5.71-5.71Z"/>
            </g>
          </g>
          <g>
            <g>
              <g>
                <path class="first-color" d="m249.67,211.89s-25.8-.3-38.03,2.07c-8.14,1.68-15.02,9.51-19.2,10.69-4.18,1.17-3.47-4.03-3.47-4.03-4.14,1.47-12.51.19-13.87-1.93-1.37-2.12,3.76-16.26,24.28-18,20.53-1.74,40.76,7.47,57.86,8.46.18,1.04-7.57,2.75-7.57,2.75Z"/>
                <path class="first-color" d="m188.97,220.62s-.71,5.2,3.47,4.03c4.19-1.18,11.07-9.01,19.2-10.69,12.23-2.37,38.03-2.07,38.03-2.07,0,0,.69-.16,1.63-.39-16.04-2.06-35.88-6.38-52.96-4.93-13.37,1.14-20.21,7.53-22.97,12.44,1.95,1.92,9.67,3,13.6,1.61Z"/>
              </g>
              <g>
                <path class="first-color" d="m210.32,205.06s-25.48-4.05-37.93-3.49c-8.3.47-16.24,7.23-20.55,7.78-4.31.55-2.84-4.49-2.84-4.49-4.31.85-12.41-1.64-13.45-3.94-1.03-2.3,6.1-15.53,26.65-14.27,20.56,1.26,39.22,13.32,56,16.79.03,1.05-7.88,1.62-7.88,1.62Z"/>
                <path class="first-color" d="m149,204.86s-1.46,5.04,2.84,4.49c4.31-.55,12.25-7.31,20.55-7.78,12.44-.56,37.93,3.49,37.93,3.49,0,0,.7-.05,1.67-.15-15.58-4.38-34.57-11.55-51.68-12.59-13.39-.82-21.09,4.52-24.53,8.96,1.65,2.19,9.13,4.38,13.22,3.58Z"/>
              </g>
              <g>
                <path class="first-color" d="m230.86,198.42s-16.73,4.8-21.83-6.57c-3.31-7.63-.86-17.76-2.3-21.86-1.44-4.1-5.29-.52-5.29-.52-1.18-4.24-7.04-10.34-9.56-10.24-2.52.11-11.14,12.44-.76,30.23,10.37,17.79,39.09,23.98,52.87,22.07,6.65-3.83-13.14-13.11-13.14-13.11Z"/>
                <path class="first-color" d="m197.37,184.83c9.99,17.14,27.06,25.36,42.77,23.33.19-2.7-9.29-9.73-9.29-9.73,0,0-16.73,4.8-21.83-6.57-3.31-7.63-.86-17.76-2.3-21.86-1.44-4.1-5.29-.52-5.29-.52-1.07-3.84-5.99-9.21-8.77-10.1-1.66,5.2-1.84,14.24,4.7,25.45Z"/>
              </g>
              <g>
                <path class="first-color" d="m262.14,196.72s-12.99,11.59-22.52,3.57c-6.29-5.43-8.49-15.62-11.58-18.69-3.08-3.06-4.98,1.83-4.98,1.83-2.92-3.3-10.85-6.25-13.07-5.06-2.22,1.19-4.62,16.04,12.46,27.55,17.08,11.52,45.64,4.6,57.21-3.11,4.33-6.35-17.53-6.08-17.53-6.08Z"/>
                <path class="first-color" d="m226.07,199.05c16.45,11.09,35.4,11.06,48.66,2.4-1-2.52-8.86-8.1-8.86-8.1,0,0-14.57,15.76-26.25,6.95-6.63-5.01-8.49-15.62-11.58-18.69-3.08-3.06-4.98,1.83-4.98,1.83-2.64-2.99-9.41-5.69-12.3-5.28.76,5.39,4.54,13.63,15.3,20.89Z"/>
              </g>
            </g>
            <g>
              <g>
                <path class="first-color" d="m335.95,233.9s1.81-1.12,4.52-3.73c1.36-1.3,2.9-3,4.45-5.17,1.56-2.18,3.07-4.87,4.1-8.17.52-1.65.83-3.46.97-5.38.07-.96-.02-1.95-.04-2.96v-.19s-.01-.05-.01-.05c-.02-.08.03.12-.03-.2v-.08s-.06-.33-.06-.33l-.1-.65c-.07-.44-.13-.88-.2-1.33-.16-.91-.21-1.75-.48-2.75-.28-1.01-.57-2.04-.86-3.08-.26-1.08-.74-2.01-1.15-3.01-.43-.99-.84-2.02-1.46-2.94-2.19-3.87-5.33-7.25-8.39-10.08-3.01-2.84-6.13-5.71-8.88-8.48-2.75-2.76-5.06-5.79-5.79-8.34-.36-1.28-.36-2.33-.07-3.49l.04-.22v-.03c.03-.08-.22.58-.1.28l.04-.09.07-.18.29-.7.28-.7c.1-.29.15-.23.22-.36.16-.17.17-.37.34-.59.18-.22.36-.46.52-.7,1.49-1.65,4.13-2.5,6.53-1.96,1.18.22,2.23.74,2.92,1.42.14.18.31.36.47.54.09.2.22.4.35.6l.03.04s-.08-.34-.03-.16v.03s.06.15.06.15l.09.29.17.58c0,.18.09.32.11.54.09.94-.1,1.86-.69,2.7-.56.83-1.43,1.56-2.31,1.97-1.54.96-3.52.17-4.6-.91-1.13-1.12-1.28-2.55-1.05-3.44.24-.91.64-1.32.61-1.33.03.03-.47.26-1.06,1.15-.59.85-.95,2.69.09,4.61.51.94,1.33,1.89,2.52,2.56.31.15.73.35,1,.45l.41.15.1.04.23.05.32.05c.86.12,1.65.06,2.43-.1,1.56-.33,3.09-1.06,4.49-2.31,1.41-1.21,2.5-3.22,2.75-5.43.07-.55.04-1.21.02-1.83l-.06-.61-.03-.3-.02-.16v-.04c.03.16-.06-.26-.06-.23l-.03-.1c-.16-.56-.33-1.14-.54-1.71-.26-.53-.57-1.06-.88-1.59-1.37-2.02-3.39-3.49-5.62-4.38-2.24-.87-4.75-1.2-7.31-.85-2.56.32-5.17,1.48-7.28,3.32-.49.49-.97.98-1.45,1.5-.47.52-.91,1.23-1.32,1.88-.18.3-.47.74-.54.94l-.31.68-.32.69-.08.17-.04.08-.14.37-.02.06-.15.51c-.93,2.7-.88,5.9-.05,8.57.8,2.7,2.15,4.94,3.61,6.87,1.46,1.94,3.06,3.58,4.66,5.14,3.21,3.12,6.48,5.68,9.61,8.35,3.12,2.61,5.84,4.99,7.75,7.84.56.66.95,1.42,1.37,2.16.41.74.9,1.46,1.15,2.22.31.75.63,1.5.93,2.23.31.75.5,1.74.75,2.57.22.81.42,1.61.63,2.39.09.73.28,1.45.32,2.19,0,.73.09,1.46.04,2.18-.08.72-.08,1.44-.2,2.15-.4,2.82-1.29,5.43-2.29,7.67-1,2.25-2.09,4.14-3.01,5.71-.94,1.56-1.8,2.72-2.37,3.53-.57.8-.91,1.21-.91,1.21Z"/>
                <g>
                  <path class="first-color" d="m325.59,150.71c2.56-.35,5.07-.02,7.31.85.03.02.07.03.1.05-1.59-.32-3.26-.42-4.96-.18-2.56.32-5.16,1.48-7.27,3.32-.49.48-.98.99-1.45,1.5-.48.51-.91,1.23-1.32,1.88-.18.3-.47.75-.53.94l-.32.69-.31.68-.08.18-.03.08-.14.37-.02.07-.16.51c-.92,2.69-.88,5.9-.04,8.57.8,2.7,2.15,4.94,3.61,6.87,1.47,1.93,3.07,3.58,4.66,5.14,3.21,3.12,6.48,5.68,9.6,8.35,3.12,2.6,5.84,4.99,7.76,7.84.55.67.95,1.42,1.37,2.16.41.74.91,1.46,1.16,2.22.32.75.63,1.5.94,2.23.31.75.5,1.74.75,2.58.22.81.42,1.6.63,2.39.1.74.28,1.46.33,2.19,0,.73.09,1.46.03,2.18-.08.72-.08,1.44-.19,2.15-.41,2.82-1.29,5.43-2.29,7.67-.49,1.11-1,2.13-1.51,3.07-.94,1.13-1.87,2.12-2.71,2.92-2.71,2.61-4.52,3.73-4.52,3.73,0,0,.34-.41.91-1.21.57-.81,1.43-1.96,2.37-3.53.92-1.56,2.02-3.45,3.01-5.71.99-2.24,1.89-4.85,2.29-7.67.11-.71.11-1.42.2-2.15.05-.72-.03-1.45-.04-2.18-.05-.73-.23-1.45-.32-2.19-.21-.78-.41-1.58-.63-2.39-.25-.84-.43-1.82-.75-2.57-.31-.73-.62-1.48-.93-2.23-.25-.76-.75-1.48-1.15-2.22-.42-.73-.82-1.49-1.37-2.16-1.92-2.85-4.64-5.24-7.75-7.84-3.13-2.67-6.39-5.23-9.61-8.35-1.6-1.56-3.19-3.2-4.66-5.14-1.46-1.93-2.81-4.17-3.61-6.87-.83-2.67-.88-5.87.05-8.57l.15-.51.02-.06.14-.37.04-.08.08-.17.32-.69.31-.68c.07-.19.36-.64.54-.94.41-.65.84-1.37,1.32-1.88.48-.52.97-1.01,1.45-1.5,2.11-1.84,4.72-3,7.28-3.32Z"/>
                  <path class="first-color" d="m337.2,162.47c0,.18.09.32.11.54.09.93-.1,1.86-.68,2.7-.56.84-1.43,1.56-2.31,1.97-1.22.76-6.74,2.16-7.93-2.96,1.86,3.4,5.05,2.51,5.49,2.24.88-.41,1.75-1.14,2.31-1.97.58-.85.78-1.77.69-2.7-.02-.23-.1-.36-.11-.54l-.17-.58-.09-.29-.05-.15v-.03c-.05-.18.04.2.02.16l-.03-.04c-.13-.2-.26-.39-.35-.6-.16-.18-.33-.36-.47-.54-.32-.31-.71-.58-1.16-.81.23.03.46.05.68.1,1.18.22,2.23.75,2.93,1.43.14.18.31.35.47.53.09.2.21.4.35.6l.03.04s-.08-.33-.03-.16v.04s.06.14.06.14l.09.29.18.58Z"/>
                </g>
              </g>
              <g>
                <path class="first-color" d="m347.25,208.26s-.46-2.08-2.01-5.51c-.77-1.72-1.86-3.74-3.39-5.93-1.53-2.19-3.56-4.53-6.33-6.59-1.38-1.04-2.98-1.94-4.75-2.71-.88-.38-1.84-.63-2.8-.96l-.18-.05-.04-.02c-.09-.02.12.02-.21-.04l-.08-.02-.33-.06-.65-.13c-.44-.08-.88-.17-1.32-.25-.91-.15-1.72-.39-2.75-.48-1.05-.07-2.12-.15-3.19-.22-1.1-.12-2.14.03-3.23.08-1.08.07-2.19.11-3.26.4-4.38.77-8.61,2.6-12.3,4.53-3.68,1.88-7.43,3.87-10.96,5.54-3.51,1.66-7.15,2.83-9.79,2.67-1.33-.09-2.32-.45-3.32-1.11l-.19-.11-.02-.02c-.06-.05.47.41.23.2l-.07-.06-.14-.13-.56-.5-.56-.5c-.24-.19-.16-.22-.26-.33-.11-.2-.29-.28-.44-.51-.15-.25-.31-.49-.48-.73-1.06-1.96-.97-4.72.33-6.81.6-1.04,1.45-1.85,2.32-2.28.23-.07.44-.17.66-.26.23-.02.45-.07.68-.14h.04s-.34-.05-.16-.03h.19s.3.02.3.02l.61.03c.17.05.33.03.55.08.91.23,1.71.72,2.32,1.54.6.81.99,1.87,1.08,2.84.39,1.77-1.02,3.37-2.39,4.03-1.43.69-2.84.36-3.59-.16-.77-.52-1.03-1.05-1.05-1.02.03-.02.08.53.72,1.38.61.84,2.22,1.8,4.38,1.46,1.05-.17,2.23-.62,3.26-1.52.25-.24.58-.56.76-.8l.28-.33.07-.08.12-.2.16-.29c.4-.76.61-1.53.71-2.32.21-1.58.03-3.26-.68-5.01-.67-1.73-2.2-3.43-4.19-4.4-.5-.25-1.13-.44-1.72-.63l-.59-.14-.3-.07-.15-.04h-.04c.16,0-.26-.04-.24-.04h-.11c-.59-.05-1.19-.07-1.79-.07-.59.07-1.19.18-1.79.3-2.36.61-4.42,2.02-6,3.82-1.57,1.82-2.72,4.07-3.25,6.6-.55,2.52-.33,5.36.7,7.97.3.62.6,1.25.93,1.87.33.62.86,1.27,1.33,1.87.23.27.55.69.7.82l.54.52.54.52.14.14.07.06.3.26.05.04.43.32c2.23,1.77,5.27,2.8,8.06,2.91,2.81.15,5.38-.37,7.69-1.1,2.31-.74,4.4-1.69,6.4-2.67,4.01-1.98,7.52-4.21,11.08-6.26,3.49-2.07,6.65-3.83,9.98-4.69.81-.3,1.66-.42,2.49-.56.83-.14,1.68-.37,2.48-.35.82-.05,1.62-.09,2.42-.14.81-.04,1.8.11,2.68.16.83.07,1.65.14,2.46.2.72.16,1.46.23,2.17.43.69.25,1.41.4,2.07.7.65.32,1.33.56,1.95.9,2.52,1.32,4.69,3.03,6.46,4.73,1.79,1.69,3.21,3.35,4.37,4.75,1.16,1.41,1.96,2.61,2.53,3.41.56.81.84,1.27.84,1.27Z"/>
                <g>
                  <path class="first-color" d="m265.39,190.19c.53-2.53,1.67-4.78,3.25-6.6.02-.03.05-.05.08-.08-.84,1.39-1.48,2.93-1.83,4.61-.55,2.52-.33,5.36.7,7.97.29.62.6,1.25.93,1.87.33.62.86,1.27,1.33,1.87.22.27.55.69.7.82l.54.52.54.53.14.13.07.06.3.26.05.04.43.32c2.23,1.77,5.27,2.8,8.06,2.91,2.81.15,5.38-.37,7.69-1.1,2.32-.74,4.41-1.68,6.4-2.67,4.02-1.98,7.52-4.21,11.08-6.26,3.49-2.06,6.66-3.83,9.98-4.69.82-.3,1.66-.42,2.49-.56.83-.14,1.68-.37,2.48-.35.81-.05,1.62-.09,2.41-.14.82-.04,1.8.12,2.68.16.83.07,1.65.14,2.46.2.73.16,1.47.23,2.18.43.69.25,1.4.4,2.07.7.65.32,1.33.56,1.95.9,2.52,1.32,4.69,3.04,6.46,4.73.88.83,1.67,1.66,2.38,2.45.76,1.27,1.38,2.46,1.86,3.53,1.55,3.43,2.01,5.51,2.01,5.51,0,0-.27-.46-.84-1.27-.57-.81-1.37-2-2.53-3.41-1.16-1.39-2.58-3.06-4.37-4.75-1.78-1.7-3.94-3.41-6.46-4.73-.63-.34-1.3-.58-1.95-.9-.66-.29-1.38-.45-2.07-.7-.7-.2-1.45-.27-2.17-.43-.81-.07-1.63-.14-2.46-.2-.88-.04-1.87-.2-2.68-.16-.8.04-1.6.09-2.42.14-.8-.02-1.64.21-2.48.35-.83.15-1.68.27-2.49.56-3.32.86-6.49,2.62-9.98,4.69-3.57,2.05-7.07,4.27-11.08,6.26-2,.98-4.09,1.94-6.4,2.67-2.31.73-4.87,1.26-7.69,1.1-2.79-.11-5.83-1.14-8.06-2.91l-.43-.32-.05-.04-.3-.26-.07-.06-.14-.14-.54-.52-.54-.52c-.15-.13-.48-.55-.7-.82-.47-.6-1-1.25-1.33-1.87-.33-.62-.63-1.25-.93-1.87-1.03-2.61-1.25-5.45-.7-7.97Z"/>
                  <path class="first-color" d="m280.35,183.19c.17.05.33.03.55.08.91.22,1.72.72,2.32,1.54.6.81.99,1.87,1.08,2.84.31,1.41-.22,7.07-5.44,6.48,3.81-.62,4.06-3.92,3.94-4.42-.09-.97-.48-2.03-1.08-2.84-.6-.83-1.4-1.32-2.32-1.54-.22-.05-.38-.03-.55-.08l-.61-.03-.3-.02h-.15s-.04,0-.04,0c-.18-.02.21.02.16.02h-.04c-.24.07-.46.13-.68.15-.23.09-.44.19-.66.26-.4.19-.78.48-1.15.82.1-.21.2-.41.32-.61.6-1.04,1.45-1.85,2.32-2.28.22-.07.44-.17.66-.26.23-.02.45-.07.68-.14h.05s-.35-.05-.16-.03h.19s.31.02.31.02l.6.03Z"/>
                </g>
              </g>
              <g>
                <path class="first-color" d="m348.53,220.09s.71-2.01,1.19-5.74c.25-1.86.37-4.15.23-6.82-.15-2.67-.65-5.72-1.92-8.94-.63-1.61-1.52-3.22-2.62-4.8-.55-.79-1.24-1.51-1.88-2.29l-.12-.14-.03-.03c-.07-.06.1.07-.15-.14l-.06-.06-.25-.23-.49-.45c-.33-.3-.66-.6-.99-.91-.7-.61-1.26-1.23-2.1-1.85-.85-.62-1.72-1.23-2.6-1.86-.87-.68-1.84-1.1-2.79-1.63-.96-.51-1.92-1.05-2.98-1.37-4.14-1.65-8.7-2.31-12.85-2.61-4.12-.33-8.36-.61-12.23-1.04-3.87-.43-7.58-1.35-9.74-2.88-1.08-.77-1.73-1.6-2.24-2.68l-.11-.2-.02-.02c-.03-.08.19.59.09.29l-.03-.09-.05-.18-.22-.73-.21-.72c-.1-.29-.02-.27-.05-.41.01-.23-.1-.39-.1-.67,0-.29,0-.58-.03-.87.13-2.22,1.66-4.53,3.86-5.62,1.06-.56,2.2-.81,3.17-.72.23.06.47.09.7.13.2.1.42.17.65.24h.05s-.27-.2-.13-.09l.03.03.13.08.26.17.5.34c.12.14.26.19.42.36.66.67,1.08,1.51,1.16,2.54.09,1-.14,2.11-.57,2.98-.6,1.71-2.64,2.33-4.15,2.17-1.58-.16-2.6-1.18-2.97-2.02-.38-.86-.33-1.44-.36-1.42.03,0-.21.5-.11,1.55.08,1.03.94,2.69,2.96,3.54.98.41,2.22.64,3.57.42.33-.07.78-.18,1.06-.28l.42-.14.1-.04.21-.11.29-.16c.74-.44,1.32-.98,1.83-1.6,1.01-1.23,1.74-2.76,2.06-4.61.34-1.83-.07-4.08-1.26-5.95-.3-.48-.73-.97-1.13-1.44l-.43-.43-.22-.22-.1-.1-.03-.03c.13.1-.2-.16-.18-.15l-.09-.06c-.48-.35-.98-.68-1.49-.99-.54-.25-1.11-.47-1.68-.69-2.33-.72-4.82-.6-7.12.1-2.29.72-4.45,2.04-6.23,3.91-1.79,1.85-3.1,4.39-3.59,7.15-.08.69-.15,1.38-.2,2.08-.05.7.06,1.52.15,2.29.05.35.1.87.16,1.07l.19.73.18.73.04.19.03.09.12.38.02.06.21.5c.97,2.68,3.01,5.15,5.33,6.71,2.31,1.61,4.77,2.51,7.12,3.1,2.36.59,4.63.87,6.85,1.09,4.46.42,8.61.37,12.72.49,4.06.08,7.68.24,10.96,1.26.85.17,1.63.51,2.42.82.78.32,1.62.57,2.29,1.01.72.39,1.43.77,2.13,1.15.71.39,1.47,1.05,2.19,1.54.67.49,1.33.98,1.99,1.46.53.52,1.13.96,1.62,1.5.46.58.99,1.09,1.39,1.68.39.61.84,1.17,1.19,1.79,1.45,2.45,2.4,5.04,3.02,7.41.63,2.38.96,4.54,1.22,6.34.25,1.81.3,3.24.36,4.23.05.98.05,1.51.05,1.51Z"/>
                <g>
                  <path class="first-color" d="m288.36,161.72c1.78-1.88,3.94-3.19,6.23-3.91.04-.01.07-.02.11-.02-1.44.74-2.8,1.71-3.98,2.96-1.79,1.85-3.1,4.39-3.59,7.15-.08.68-.14,1.38-.19,2.08s.06,1.53.15,2.29c.05.35.11.87.17,1.07l.18.73.18.73.05.19.02.09.12.37.02.06.2.5c.97,2.68,3.01,5.15,5.33,6.71,2.31,1.61,4.77,2.51,7.12,3.1,2.36.59,4.63.87,6.85,1.09,4.46.42,8.61.37,12.71.5,4.06.07,7.68.24,10.96,1.25.85.17,1.63.51,2.42.83.78.32,1.62.57,2.29,1.01.71.39,1.43.77,2.12,1.15.72.39,1.48,1.05,2.2,1.54.67.49,1.33.98,1.99,1.46.53.51,1.13.96,1.63,1.5.46.57.98,1.08,1.39,1.68.39.62.84,1.18,1.19,1.79,1.45,2.45,2.39,5.04,3.01,7.42.31,1.17.55,2.29.75,3.34-.03,1.48-.12,2.82-.28,3.98-.48,3.73-1.19,5.74-1.19,5.74,0,0,0-.53-.05-1.51-.06-.99-.12-2.43-.36-4.23-.26-1.79-.59-3.96-1.22-6.34-.63-2.38-1.57-4.96-3.02-7.41-.35-.62-.8-1.18-1.19-1.79-.41-.6-.93-1.11-1.39-1.68-.49-.54-1.09-.98-1.62-1.5-.65-.48-1.32-.97-1.99-1.46-.72-.5-1.48-1.15-2.19-1.54-.7-.38-1.41-.76-2.13-1.15-.67-.44-1.51-.69-2.29-1.01-.79-.31-1.57-.65-2.42-.82-3.28-1.02-6.9-1.18-10.96-1.26-4.11-.13-8.26-.07-12.72-.49-2.22-.22-4.49-.5-6.85-1.09-2.35-.59-4.81-1.49-7.12-3.1-2.32-1.56-4.36-4.02-5.33-6.71l-.21-.5-.02-.06-.12-.38-.03-.09-.04-.19-.18-.73-.19-.73c-.06-.2-.12-.72-.16-1.07-.09-.77-.2-1.6-.15-2.29.05-.71.12-1.4.2-2.08.49-2.76,1.8-5.29,3.59-7.15Z"/>
                  <path class="first-color" d="m304.77,163.61c.12.14.27.19.43.36.66.67,1.08,1.51,1.16,2.53.09,1-.14,2.11-.57,2.98-.47,1.36-3.9,5.9-8.03,2.66,3.57,1.48,5.51-1.2,5.68-1.68.43-.87.66-1.98.57-2.98-.08-1.03-.5-1.87-1.16-2.54-.16-.16-.31-.22-.42-.36l-.5-.34-.26-.17-.13-.08-.03-.03c-.15-.11.16.13.13.1h-.05c-.23-.08-.45-.15-.65-.25-.24-.04-.48-.07-.7-.13-.44-.04-.92,0-1.41.09.19-.12.38-.25.59-.35,1.06-.57,2.2-.81,3.17-.72.23.06.46.08.7.13.2.1.42.18.65.24l.04.02s-.27-.21-.13-.1l.03.02.13.08.25.17.5.34Z"/>
                </g>
              </g>
            </g>
            <g>
              <path class="first-color" d="m236.5,186.57c0-6.64,5.38-12.02,12.02-12.02s12.02,5.38,12.02,12.02-5.38,12.02-12.02,12.02-12.02-5.38-12.02-12.02Z"/>
              <circle class="first-color" cx="248.52" cy="186.57" r="9.12" transform="translate(23.88 401.3) rotate(-80.6)"/>
            </g>
            <g>
              <path class="first-color" d="m297.7,208.46c0-4.16,3.37-7.53,7.53-7.53s7.53,3.37,7.53,7.53-3.37,7.53-7.53,7.53-7.53-3.37-7.53-7.53Z"/>
              <path class="first-color" d="m305.23,202.74c3.15,0,5.71,2.56,5.71,5.71s-2.56,5.71-5.71,5.71-5.71-2.56-5.71-5.71,2.56-5.71,5.71-5.71Z"/>
            </g>
          </g>
        </g>
        <g>
          <g>
            <path class="first-color" d="m214.6,242.51s.75-3.43,3.31-9.07c1.27-2.83,3.07-6.16,5.58-9.78,2.51-3.6,5.86-7.46,10.43-10.87,2.28-1.71,4.91-3.2,7.83-4.46,1.45-.63,3.04-1.05,4.62-1.57l.3-.09.08-.02c.14-.03-.21.02.33-.06l.14-.03.53-.1,1.08-.21c.72-.14,1.44-.28,2.17-.42,1.5-.25,2.83-.64,4.53-.78,1.73-.12,3.48-.24,5.26-.36,1.81-.2,3.53.04,5.32.13,1.78.12,3.6.19,5.37.65,7.22,1.27,14.19,4.28,20.27,7.47,6.07,3.1,12.25,6.38,18.06,9.12,5.79,2.74,11.79,4.66,16.15,4.39,2.18-.15,3.82-.74,5.46-1.83l.32-.18.04-.02c.11-.08-.77.67-.37.32l.12-.1.23-.2.93-.83.93-.82c.38-.32.26-.36.43-.54.18-.33.47-.46.73-.85.24-.41.52-.81.8-1.2,1.74-3.22,1.59-7.78-.55-11.22-1-1.71-2.38-3.04-3.82-3.76-.37-.12-.72-.28-1.09-.43-.37-.04-.74-.13-1.12-.22l-.07-.02c-.08,0,.57-.07.27-.04h-.07s-.25.01-.25.01l-.5.03-1,.04c-.28.09-.54.04-.91.13-1.5.37-2.83,1.18-3.82,2.55-.99,1.33-1.63,3.08-1.78,4.68-.64,2.92,1.68,5.57,3.95,6.64,2.36,1.14,4.67.59,5.91-.27,1.28-.86,1.7-1.73,1.74-1.68-.06-.03-.14.88-1.19,2.28-1.01,1.38-3.66,2.96-7.22,2.4-1.74-.27-3.67-1.02-5.37-2.49-.41-.4-.94-.94-1.25-1.31l-.46-.55-.11-.14-.21-.33-.26-.47c-.66-1.26-1-2.53-1.18-3.82-.35-2.6-.06-5.38,1.11-8.25,1.11-2.86,3.63-5.66,6.92-7.25.83-.42,1.86-.73,2.83-1.04l.98-.24.49-.12.24-.06.07-.02c-.27.03.42-.05.39-.05h.18c.96-.07,1.95-.12,2.95-.12.98.12,1.96.3,2.95.49,3.89,1.01,7.28,3.34,9.9,6.31,2.6,2.99,4.48,6.71,5.35,10.88.91,4.15.55,8.84-1.15,13.13-.48,1.03-.99,2.06-1.52,3.09-.54,1.03-1.41,2.09-2.19,3.09-.37.44-.9,1.14-1.16,1.34l-.89.86-.89.87-.23.22-.11.1-.49.42-.09.07-.72.52c-3.68,2.92-8.68,4.61-13.29,4.79-4.64.25-8.86-.61-12.66-1.82-3.82-1.21-7.25-2.78-10.55-4.41-6.62-3.27-12.39-6.93-18.27-10.31-5.76-3.41-10.98-6.31-16.46-7.73-1.34-.49-2.73-.69-4.11-.93-1.37-.22-2.76-.61-4.08-.57-1.34-.08-2.67-.15-3.98-.22-1.34-.07-2.97.18-4.41.26-1.37.12-2.73.23-4.06.34-1.19.25-2.42.37-3.58.7-1.14.4-2.32.66-3.41,1.15-1.07.53-2.19.92-3.22,1.49-4.16,2.19-7.72,5.01-10.65,7.79-2.95,2.79-5.29,5.54-7.21,7.83-1.9,2.31-3.23,4.28-4.16,5.61-.93,1.33-1.38,2.08-1.38,2.08Z"/>
            <g>
              <path class="first-color" d="m349.51,212.73c-.87-4.17-2.75-7.88-5.35-10.88-.04-.05-.09-.08-.13-.13,1.38,2.29,2.44,4.83,3.02,7.6.91,4.15.55,8.84-1.15,13.13-.48,1.03-.99,2.06-1.53,3.09-.54,1.03-1.41,2.09-2.19,3.09-.37.44-.91,1.14-1.16,1.35l-.89.86-.89.86-.23.22-.11.1-.49.43-.09.07-.72.52c-3.68,2.92-8.68,4.61-13.29,4.79-4.63.25-8.86-.61-12.66-1.82-3.82-1.21-7.25-2.78-10.55-4.41-6.62-3.27-12.39-6.93-18.27-10.31-5.76-3.41-10.98-6.32-16.46-7.73-1.34-.49-2.73-.69-4.11-.93-1.37-.23-2.76-.6-4.08-.57-1.34-.07-2.67-.15-3.98-.22-1.34-.07-2.97.19-4.41.26-1.37.11-2.72.23-4.05.33-1.19.26-2.42.37-3.58.7-1.14.4-2.32.66-3.41,1.15-1.07.53-2.19.92-3.22,1.49-4.16,2.19-7.72,5.01-10.65,7.79-1.45,1.38-2.75,2.74-3.93,4.04-1.24,2.1-2.27,4.06-3.06,5.82-2.56,5.65-3.31,9.07-3.31,9.07,0,0,.45-.75,1.38-2.08.93-1.33,2.26-3.3,4.16-5.61,1.92-2.3,4.26-5.04,7.21-7.83,2.93-2.78,6.5-5.6,10.65-7.79,1.03-.56,2.15-.96,3.22-1.49,1.09-.48,2.27-.74,3.41-1.15,1.16-.33,2.39-.45,3.58-.7,1.33-.12,2.68-.23,4.06-.34,1.44-.07,3.07-.33,4.41-.26,1.31.07,2.64.14,3.98.22,1.32-.04,2.71.35,4.08.57,1.38.24,2.76.44,4.11.93,5.48,1.41,10.69,4.32,16.46,7.73,5.88,3.38,11.65,7.04,18.27,10.31,3.3,1.63,6.73,3.2,10.55,4.41,3.8,1.2,8.03,2.07,12.66,1.82,4.6-.18,9.61-1.87,13.29-4.79l.72-.52.09-.07.49-.42.11-.1.23-.22.89-.87.89-.86c.25-.21.79-.91,1.16-1.34.78-.99,1.65-2.06,2.19-3.09.53-1.03,1.05-2.06,1.52-3.09,1.7-4.3,2.06-8.98,1.15-13.13Z"/>
              <path class="first-color" d="m324.87,201.19c-.28.09-.54.04-.91.13-1.5.37-2.83,1.18-3.82,2.55-.99,1.33-1.63,3.08-1.78,4.68-.51,2.32.36,11.66,8.96,10.69-6.29-1.01-6.69-6.46-6.5-7.28.15-1.6.79-3.34,1.78-4.68.99-1.37,2.32-2.18,3.82-2.55.36-.09.62-.04.91-.13l1-.04.5-.03h.25s.07-.01.07-.01c.3-.03-.34.04-.27.04l.07.02c.38.09.75.18,1.12.22.37.15.73.32,1.09.43.66.32,1.29.79,1.9,1.35-.16-.34-.33-.68-.53-1-1-1.71-2.38-3.04-3.82-3.76-.37-.12-.72-.28-1.09-.43-.37-.03-.74-.12-1.12-.22l-.07-.02c-.08,0,.57-.07.27-.04h-.07s-.25.02-.25.02l-.5.02-1,.05Z"/>
            </g>
          </g>
          <g>
            <path class="first-color" d="m485.4,242.51s-.75-3.43-3.31-9.07c-1.27-2.83-3.07-6.16-5.58-9.78-2.51-3.6-5.86-7.46-10.43-10.87-2.28-1.71-4.91-3.2-7.82-4.46-1.45-.63-3.04-1.05-4.62-1.57l-.3-.09-.08-.02c-.14-.03.21.02-.33-.06l-.14-.03-.53-.1-1.08-.21c-.72-.14-1.44-.28-2.17-.42-1.5-.25-2.83-.64-4.53-.78-1.73-.12-3.48-.24-5.26-.36-1.81-.2-3.53.04-5.32.13-1.78.12-3.6.19-5.37.65-7.22,1.27-14.19,4.28-20.28,7.47-6.06,3.1-12.25,6.38-18.06,9.12-5.79,2.74-11.79,4.66-16.15,4.39-2.17-.15-3.82-.74-5.46-1.83l-.32-.18-.03-.02c-.11-.08.77.67.37.32l-.12-.1-.23-.2-.93-.83-.93-.82c-.38-.32-.26-.36-.42-.54-.18-.33-.47-.46-.73-.85-.24-.41-.52-.81-.81-1.2-1.74-3.22-1.59-7.78.56-11.22,1-1.71,2.38-3.04,3.82-3.76.37-.12.72-.28,1.09-.43.37-.04.74-.13,1.12-.22l.07-.02c.08,0-.57-.07-.26-.04h.07s.25.01.25.01l.5.03,1,.04c.28.09.54.04.9.13,1.5.37,2.83,1.18,3.82,2.55.99,1.33,1.63,3.08,1.78,4.68.65,2.92-1.68,5.57-3.95,6.64-2.36,1.14-4.67.59-5.91-.27-1.28-.86-1.7-1.73-1.74-1.68.06-.03.14.88,1.19,2.28,1,1.38,3.66,2.96,7.22,2.4,1.74-.27,3.67-1.02,5.37-2.49.41-.4.95-.94,1.25-1.31l.46-.55.11-.14.21-.33.26-.47c.66-1.26,1-2.53,1.18-3.82.35-2.6.06-5.38-1.11-8.25-1.11-2.86-3.63-5.66-6.92-7.25-.83-.42-1.86-.73-2.83-1.04l-.98-.24-.49-.12-.24-.06-.07-.02c.27.03-.42-.05-.39-.05h-.18c-.96-.07-1.95-.12-2.95-.12-.97.12-1.96.3-2.95.49-3.89,1.01-7.28,3.34-9.9,6.31-2.6,2.99-4.48,6.71-5.35,10.88-.91,4.15-.55,8.84,1.15,13.13.48,1.03.99,2.06,1.52,3.09.54,1.03,1.41,2.09,2.19,3.09.37.44.9,1.14,1.16,1.34l.89.86.89.87.23.22.11.1.49.42.09.07.71.52c3.68,2.92,8.68,4.61,13.29,4.79,4.64.25,8.86-.61,12.66-1.82,3.82-1.21,7.25-2.78,10.55-4.41,6.62-3.27,12.39-6.93,18.27-10.31,5.76-3.41,10.98-6.31,16.46-7.73,1.34-.49,2.73-.69,4.11-.93,1.37-.22,2.76-.61,4.08-.57,1.34-.08,2.67-.15,3.98-.22,1.34-.07,2.97.18,4.41.26,1.37.12,2.73.23,4.05.34,1.2.25,2.42.37,3.58.7,1.14.4,2.32.66,3.41,1.15,1.07.53,2.19.92,3.22,1.49,4.16,2.19,7.72,5.01,10.65,7.79,2.95,2.79,5.29,5.54,7.21,7.83,1.9,2.31,3.23,4.28,4.16,5.61.93,1.33,1.38,2.08,1.38,2.08Z"/>
            <g>
              <path class="first-color" d="m350.49,212.73c.87-4.17,2.75-7.88,5.35-10.88.04-.05.09-.08.12-.13-1.38,2.29-2.44,4.83-3.02,7.6-.91,4.15-.55,8.84,1.15,13.13.48,1.03.99,2.06,1.52,3.09.54,1.03,1.42,2.09,2.19,3.09.37.44.91,1.14,1.16,1.35l.89.86.89.86.23.22.11.1.49.43.09.07.72.52c3.68,2.92,8.68,4.61,13.29,4.79,4.64.25,8.86-.61,12.66-1.82,3.82-1.21,7.25-2.78,10.55-4.41,6.62-3.27,12.39-6.93,18.27-10.31,5.76-3.41,10.98-6.32,16.46-7.73,1.34-.49,2.73-.69,4.11-.93,1.37-.23,2.76-.6,4.08-.57,1.34-.07,2.67-.15,3.98-.22,1.34-.07,2.97.19,4.41.26,1.37.11,2.73.23,4.06.33,1.19.26,2.42.37,3.58.7,1.14.4,2.32.66,3.41,1.15,1.07.53,2.19.92,3.22,1.49,4.16,2.19,7.72,5.01,10.65,7.79,1.45,1.38,2.75,2.74,3.93,4.04,1.24,2.1,2.27,4.06,3.06,5.82,2.56,5.65,3.31,9.07,3.31,9.07,0,0-.45-.75-1.38-2.08-.93-1.33-2.26-3.3-4.16-5.61-1.92-2.3-4.26-5.04-7.21-7.83-2.93-2.78-6.5-5.6-10.65-7.79-1.03-.56-2.15-.96-3.22-1.49-1.09-.48-2.27-.74-3.41-1.15-1.16-.33-2.39-.45-3.58-.7-1.33-.12-2.68-.23-4.05-.34-1.44-.07-3.07-.33-4.41-.26-1.31.07-2.64.14-3.98.22-1.32-.04-2.71.35-4.08.57-1.38.24-2.76.44-4.11.93-5.48,1.41-10.69,4.32-16.46,7.73-5.88,3.38-11.65,7.04-18.27,10.31-3.3,1.63-6.73,3.2-10.55,4.41-3.8,1.2-8.03,2.07-12.66,1.82-4.6-.18-9.61-1.87-13.29-4.79l-.71-.52-.09-.07-.49-.42-.11-.1-.23-.22-.89-.87-.89-.86c-.26-.21-.79-.91-1.16-1.34-.78-.99-1.65-2.06-2.19-3.09-.53-1.03-1.05-2.06-1.52-3.09-1.7-4.3-2.06-8.98-1.15-13.13Z"/>
              <path class="first-color" d="m375.13,201.19c.28.09.54.04.9.13,1.5.37,2.83,1.18,3.82,2.55.99,1.33,1.63,3.08,1.78,4.68.52,2.32-.35,11.66-8.96,10.69,6.29-1.01,6.68-6.46,6.5-7.28-.15-1.6-.79-3.34-1.78-4.68-.99-1.37-2.32-2.18-3.82-2.55-.36-.09-.62-.04-.9-.13l-1-.04-.5-.03h-.25s-.07-.01-.07-.01c-.3-.03.34.04.26.04l-.07.02c-.38.09-.75.18-1.12.22-.37.15-.73.32-1.09.43-.66.32-1.29.79-1.9,1.35.16-.34.33-.68.53-1,1-1.71,2.38-3.04,3.82-3.76.37-.12.72-.28,1.09-.43.37-.03.74-.12,1.12-.22l.07-.02c.08,0-.56-.07-.26-.04h.07s.25.02.25.02l.5.02,1,.05Z"/>
            </g>
          </g>
        </g>
      </g>
      <g>
        <g>
          <g>
            <g>
              <g>
                <path class="first-color" d="m249.67,433.86s-25.8.3-38.03-2.07c-8.14-1.68-15.02-9.51-19.2-10.69-4.18-1.17-3.47,4.03-3.47,4.03-4.14-1.47-12.51-.19-13.87,1.93-1.37,2.12,3.76,16.26,24.28,18,20.53,1.74,40.76-7.47,57.86-8.46.18-1.03-7.57-2.74-7.57-2.74Z"/>
                <path class="first-color" d="m188.97,425.13s-.71-5.2,3.47-4.03c4.19,1.18,11.07,9.01,19.2,10.69,12.23,2.37,38.03,2.07,38.03,2.07,0,0,.69.15,1.63.39-16.04,2.06-35.88,6.38-52.96,4.93-13.37-1.14-20.21-7.53-22.97-12.44,1.95-1.92,9.67-3,13.6-1.61Z"/>
              </g>
              <g>
                <path class="first-color" d="m210.32,440.68s-25.48,4.05-37.93,3.49c-8.3-.47-16.24-7.23-20.55-7.78-4.31-.55-2.84,4.49-2.84,4.49-4.31-.85-12.41,1.64-13.45,3.93-1.03,2.3,6.1,15.54,26.65,14.27,20.56-1.26,39.22-13.32,56-16.79.03-1.05-7.88-1.62-7.88-1.62Z"/>
                <path class="first-color" d="m149,440.88s-1.46-5.04,2.84-4.49c4.31.55,12.25,7.31,20.55,7.78,12.44.56,37.93-3.49,37.93-3.49,0,0,.7.06,1.67.15-15.58,4.38-34.57,11.54-51.68,12.59-13.39.83-21.09-4.51-24.53-8.96,1.65-2.19,9.13-4.38,13.22-3.57Z"/>
              </g>
              <g>
                <path class="first-color" d="m230.86,447.32s-16.73-4.79-21.83,6.58c-3.31,7.63-.86,17.76-2.3,21.86-1.44,4.1-5.29.51-5.29.51-1.18,4.24-7.04,10.35-9.56,10.24-2.52-.1-11.14-12.43-.76-30.22,10.37-17.79,39.09-23.99,52.87-22.08,6.65,3.84-13.14,13.11-13.14,13.11Z"/>
                <path class="first-color" d="m197.37,460.92c9.99-17.14,27.06-25.36,42.77-23.33.19,2.69-9.29,9.73-9.29,9.73,0,0-16.73-4.79-21.83,6.58-3.31,7.63-.86,17.76-2.3,21.86-1.44,4.1-5.29.51-5.29.51-1.07,3.85-5.99,9.21-8.77,10.1-1.66-5.19-1.84-14.25,4.7-25.45Z"/>
              </g>
              <g>
                <path class="first-color" d="m262.14,449.02s-12.99-11.59-22.52-3.57c-6.29,5.43-8.49,15.62-11.58,18.69-3.08,3.06-4.98-1.83-4.98-1.83-2.92,3.3-10.85,6.25-13.07,5.06-2.22-1.19-4.62-16.04,12.46-27.55,17.08-11.52,45.64-4.6,57.21,3.11,4.33,6.35-17.53,6.08-17.53,6.08Z"/>
                <path class="first-color" d="m226.07,446.7c16.45-11.09,35.4-11.06,48.66-2.41-1,2.52-8.86,8.1-8.86,8.1,0,0-14.57-15.76-26.25-6.95-6.63,5.01-8.49,15.62-11.58,18.69-3.08,3.06-4.98-1.83-4.98-1.83-2.64,2.99-9.41,5.69-12.3,5.27.76-5.39,4.54-13.63,15.3-20.88Z"/>
              </g>
            </g>
            <g>
              <g>
                <path class="first-color" d="m335.95,411.84s1.81,1.12,4.52,3.74c1.36,1.29,2.9,3,4.45,5.17,1.56,2.17,3.07,4.87,4.1,8.17.52,1.65.83,3.46.97,5.38.07.96-.02,1.95-.04,2.97v.19s-.01.05-.01.05c-.02.08.03-.13-.03.2v.08s-.06.33-.06.33l-.1.65c-.07.44-.13.88-.2,1.33-.16.91-.21,1.75-.48,2.75-.28,1.01-.57,2.04-.86,3.08-.26,1.07-.74,2.01-1.15,3.01-.43.99-.84,2.02-1.46,2.94-2.19,3.87-5.33,7.25-8.39,10.08-3.01,2.84-6.13,5.71-8.88,8.47-2.75,2.76-5.06,5.8-5.79,8.34-.36,1.28-.36,2.33-.07,3.49l.04.22v.03c.03.08-.22-.58-.1-.28l.04.09.07.17.29.7.28.7c.1.29.15.22.22.36.16.17.17.36.34.59.18.22.36.46.52.7,1.49,1.65,4.13,2.49,6.53,1.96,1.18-.23,2.23-.74,2.92-1.42.14-.19.31-.36.47-.54.09-.2.22-.4.35-.6l.03-.04s-.08.34-.03.16v-.04s.06-.15.06-.15l.09-.29.17-.58c0-.18.09-.32.11-.54.09-.94-.1-1.86-.69-2.7-.56-.84-1.43-1.56-2.31-1.97-1.54-.96-3.52-.17-4.6.91-1.13,1.12-1.28,2.55-1.05,3.43.24.91.64,1.33.61,1.34.03-.03-.47-.26-1.06-1.15-.59-.85-.95-2.69.09-4.61.51-.94,1.33-1.89,2.52-2.56.31-.15.73-.35,1-.45l.41-.15.1-.04.23-.05.32-.05c.86-.12,1.65-.06,2.43.1,1.56.33,3.09,1.06,4.49,2.31,1.41,1.21,2.5,3.22,2.75,5.42.07.56.04,1.21.02,1.84l-.06.6-.03.3-.02.15v.04c.03-.16-.06.25-.06.23l-.03.1c-.16.57-.33,1.14-.54,1.71-.26.53-.57,1.06-.88,1.59-1.37,2.02-3.39,3.49-5.62,4.38-2.24.87-4.75,1.2-7.31.85-2.56-.32-5.17-1.48-7.28-3.32-.49-.48-.97-.98-1.45-1.5-.47-.51-.91-1.22-1.32-1.88-.18-.3-.47-.74-.54-.94l-.31-.68-.32-.69-.08-.17-.04-.09-.14-.37-.02-.06-.15-.51c-.93-2.7-.88-5.91-.05-8.57.8-2.7,2.15-4.94,3.61-6.87,1.46-1.94,3.06-3.58,4.66-5.14,3.21-3.12,6.48-5.68,9.61-8.35,3.12-2.6,5.84-4.99,7.75-7.84.56-.66.95-1.42,1.37-2.16.41-.74.9-1.45,1.15-2.21.31-.75.63-1.5.93-2.23.31-.75.5-1.74.75-2.57.22-.81.42-1.61.63-2.39.09-.73.28-1.45.32-2.19,0-.74.09-1.46.04-2.18-.08-.72-.08-1.44-.2-2.14-.4-2.82-1.29-5.43-2.29-7.68-1-2.25-2.09-4.14-3.01-5.71-.94-1.56-1.8-2.72-2.37-3.52s-.91-1.21-.91-1.21Z"/>
                <g>
                  <path class="first-color" d="m325.59,495.03c2.56.35,5.07.03,7.31-.85.03-.02.07-.03.1-.05-1.59.32-3.26.41-4.96.18-2.56-.32-5.16-1.48-7.27-3.32-.49-.48-.98-.99-1.45-1.5-.48-.52-.91-1.23-1.32-1.88-.18-.3-.47-.75-.53-.94l-.32-.69-.31-.69-.08-.18-.03-.08-.14-.37-.02-.07-.16-.51c-.92-2.69-.88-5.9-.04-8.57.8-2.7,2.15-4.94,3.61-6.87,1.47-1.93,3.07-3.58,4.66-5.14,3.21-3.12,6.48-5.68,9.6-8.35,3.12-2.6,5.84-4.99,7.76-7.84.55-.67.95-1.42,1.37-2.16.41-.74.91-1.46,1.16-2.22.32-.75.63-1.49.94-2.23.31-.75.5-1.74.75-2.57.22-.81.42-1.6.63-2.39.1-.74.28-1.46.33-2.19,0-.73.09-1.46.03-2.18-.08-.72-.08-1.44-.19-2.15-.41-2.82-1.29-5.43-2.29-7.67-.49-1.11-1-2.13-1.51-3.07-.94-1.13-1.87-2.12-2.71-2.92-2.71-2.61-4.52-3.74-4.52-3.74,0,0,.34.41.91,1.21s1.43,1.96,2.37,3.52c.92,1.56,2.02,3.46,3.01,5.71.99,2.24,1.89,4.86,2.29,7.68.11.7.11,1.42.2,2.14.05.72-.03,1.44-.04,2.18-.05.73-.23,1.45-.32,2.19-.21.78-.41,1.58-.63,2.39-.25.84-.43,1.82-.75,2.57-.31.73-.62,1.48-.93,2.23-.25.76-.75,1.48-1.15,2.21-.42.74-.82,1.5-1.37,2.16-1.92,2.85-4.64,5.24-7.75,7.84-3.13,2.68-6.39,5.23-9.61,8.35-1.6,1.56-3.19,3.2-4.66,5.14-1.46,1.93-2.81,4.17-3.61,6.87-.83,2.66-.88,5.87.05,8.57l.15.51.02.06.14.37.04.09.08.17.32.69.31.68c.07.19.36.64.54.94.41.65.84,1.37,1.32,1.88.48.52.97,1.02,1.45,1.5,2.11,1.84,4.72,3,7.28,3.32Z"/>
                  <path class="first-color" d="m337.2,483.28c0-.18.09-.32.11-.54.09-.94-.1-1.86-.68-2.7-.56-.84-1.43-1.56-2.31-1.97-1.22-.76-6.74-2.17-7.93,2.96,1.86-3.4,5.05-2.51,5.49-2.24.88.41,1.75,1.13,2.31,1.97.58.85.78,1.77.69,2.7-.02.23-.1.36-.11.54l-.17.58-.09.29-.05.15v.04c-.05.18.04-.2.02-.16l-.03.04c-.13.2-.26.39-.35.6-.16.18-.33.35-.47.54-.32.31-.71.58-1.16.81.23-.03.46-.05.68-.1,1.18-.23,2.23-.75,2.93-1.43.14-.18.31-.36.47-.53.09-.21.21-.4.35-.6l.03-.03s-.08.33-.03.16v-.04s.06-.15.06-.15l.09-.29.18-.58Z"/>
                </g>
              </g>
              <g>
                <path class="first-color" d="m347.25,437.48s-.46,2.08-2.01,5.51c-.77,1.71-1.86,3.74-3.39,5.93-1.53,2.19-3.56,4.52-6.33,6.59-1.38,1.04-2.98,1.94-4.75,2.71-.88.38-1.84.63-2.8.95l-.18.06-.04.02c-.09.02.12-.02-.21.04l-.08.02-.33.06-.65.13c-.44.08-.88.17-1.32.25-.91.15-1.72.39-2.75.48-1.05.07-2.12.14-3.19.21-1.1.12-2.14-.02-3.23-.07-1.08-.07-2.19-.12-3.26-.4-4.38-.77-8.61-2.6-12.3-4.54-3.68-1.88-7.43-3.87-10.96-5.54-3.51-1.66-7.15-2.83-9.79-2.66-1.33.09-2.32.45-3.32,1.11l-.19.11h-.02c-.06.06.47-.39.23-.18l-.07.06-.14.13-.56.5-.56.5c-.24.19-.16.22-.26.32-.11.2-.29.28-.44.52-.15.25-.31.49-.48.73-1.06,1.96-.97,4.72.33,6.81.6,1.04,1.45,1.85,2.32,2.28.23.07.44.17.66.26.23.02.45.07.68.13l.04.02s-.34.04-.16.02h.19s.3-.02.3-.02l.61-.03c.17-.06.33-.03.55-.08.91-.23,1.71-.72,2.32-1.54.6-.81.99-1.87,1.08-2.84.39-1.77-1.02-3.38-2.39-4.03-1.43-.7-2.84-.36-3.59.16-.77.52-1.03,1.05-1.05,1.02.03.02.08-.53.72-1.38.61-.84,2.22-1.8,4.38-1.46,1.05.17,2.23.62,3.26,1.51.25.24.58.57.76.8l.28.34.07.08.12.2.16.28c.4.77.61,1.54.71,2.32.21,1.58.03,3.26-.68,5-.67,1.74-2.2,3.44-4.19,4.41-.5.25-1.13.44-1.72.63l-.59.15-.3.07-.15.03h-.04c.16,0-.26.05-.24.04h-.11c-.59.05-1.19.07-1.79.07-.59-.07-1.19-.18-1.79-.3-2.36-.61-4.42-2.02-6-3.82-1.57-1.82-2.72-4.07-3.25-6.6-.55-2.52-.33-5.36.7-7.97.3-.62.6-1.25.93-1.87.33-.62.86-1.27,1.33-1.87.23-.27.55-.69.7-.82l.54-.52.54-.53.14-.13.07-.06.3-.26.05-.04.43-.31c2.23-1.77,5.27-2.8,8.06-2.91,2.81-.15,5.38.37,7.69,1.1,2.31.74,4.4,1.68,6.4,2.67,4.01,1.98,7.52,4.21,11.08,6.25,3.49,2.07,6.65,3.84,9.98,4.69.81.3,1.66.42,2.49.57.83.14,1.68.37,2.48.35.82.05,1.62.09,2.42.13.81.05,1.8-.11,2.68-.15.83-.07,1.65-.14,2.46-.2.72-.16,1.46-.23,2.17-.43.69-.25,1.41-.4,2.07-.7.65-.32,1.33-.56,1.95-.9,2.52-1.33,4.69-3.04,6.46-4.73,1.79-1.69,3.21-3.36,4.37-4.75,1.16-1.41,1.96-2.6,2.53-3.41.56-.81.84-1.27.84-1.27Z"/>
                <g>
                  <path class="first-color" d="m265.39,455.55c.53,2.53,1.67,4.78,3.25,6.6.02.03.05.05.08.07-.84-1.39-1.48-2.92-1.83-4.61-.55-2.52-.33-5.36.7-7.97.29-.62.6-1.25.93-1.87.33-.62.86-1.27,1.33-1.87.22-.27.55-.69.7-.82l.54-.52.54-.53.14-.13.07-.07.3-.26.05-.04.43-.31c2.23-1.77,5.27-2.8,8.06-2.91,2.81-.15,5.38.37,7.69,1.1,2.32.73,4.41,1.68,6.4,2.67,4.02,1.99,7.52,4.21,11.08,6.26,3.49,2.07,6.66,3.83,9.98,4.69.82.3,1.66.42,2.49.57.83.14,1.68.37,2.48.35.81.04,1.62.09,2.41.13.82.05,1.8-.11,2.68-.16.83-.07,1.65-.14,2.46-.2.73-.16,1.47-.23,2.18-.42.69-.25,1.4-.4,2.07-.7.65-.32,1.33-.56,1.95-.91,2.52-1.32,4.69-3.03,6.46-4.72.88-.83,1.67-1.66,2.38-2.45.76-1.27,1.38-2.46,1.86-3.53,1.55-3.43,2.01-5.51,2.01-5.51,0,0-.27.46-.84,1.27-.57.81-1.37,2-2.53,3.41-1.16,1.39-2.58,3.06-4.37,4.75-1.78,1.69-3.94,3.4-6.46,4.73-.63.34-1.3.58-1.95.9-.66.29-1.38.45-2.07.7-.7.2-1.45.27-2.17.43-.81.07-1.63.14-2.46.2-.88.04-1.87.2-2.68.15-.8-.04-1.6-.08-2.42-.13-.8.02-1.64-.21-2.48-.35-.83-.15-1.68-.27-2.49-.57-3.32-.85-6.49-2.62-9.98-4.69-3.57-2.05-7.07-4.27-11.08-6.25-2-.99-4.09-1.94-6.4-2.67-2.31-.73-4.87-1.26-7.69-1.1-2.79.11-5.83,1.14-8.06,2.91l-.43.31-.05.04-.3.26-.07.06-.14.13-.54.53-.54.52c-.15.13-.48.55-.7.82-.47.61-1,1.25-1.33,1.87-.33.62-.63,1.25-.93,1.87-1.03,2.61-1.25,5.45-.7,7.97Z"/>
                  <path class="first-color" d="m280.35,462.56c.17-.06.33-.03.55-.08.91-.23,1.72-.72,2.32-1.55.6-.81.99-1.87,1.08-2.84.31-1.41-.22-7.07-5.44-6.48,3.81.62,4.06,3.92,3.94,4.42-.09.97-.48,2.03-1.08,2.84-.6.83-1.4,1.32-2.32,1.54-.22.05-.38.02-.55.08l-.61.03-.3.02h-.15s-.04,0-.04,0c-.18.02.21-.02.16-.02l-.04-.02c-.24-.06-.46-.11-.68-.13-.23-.09-.44-.19-.66-.26-.4-.2-.78-.48-1.15-.82.1.21.2.41.32.61.6,1.04,1.45,1.85,2.32,2.28.22.07.44.17.66.26.23.02.45.07.68.13l.05.02s-.35.04-.16.02h.19s.31-.02.31-.02l.6-.03Z"/>
                </g>
              </g>
              <g>
                <path class="first-color" d="m348.53,425.65s.71,2.01,1.19,5.74c.25,1.86.37,4.16.23,6.83-.15,2.67-.65,5.72-1.92,8.94-.63,1.61-1.52,3.22-2.62,4.8-.55.79-1.24,1.51-1.88,2.29l-.12.14-.03.03c-.07.06.1-.07-.15.14l-.06.06-.25.23-.49.44c-.33.3-.66.61-.99.91-.7.61-1.26,1.23-2.1,1.85-.85.61-1.72,1.23-2.6,1.86-.87.67-1.84,1.1-2.79,1.63-.96.51-1.92,1.05-2.98,1.37-4.14,1.65-8.7,2.31-12.85,2.61-4.12.33-8.36.61-12.23,1.05-3.87.43-7.58,1.35-9.74,2.88-1.08.77-1.73,1.6-2.24,2.68l-.11.19-.02.03c-.03.08.19-.59.09-.29l-.03.09-.05.18-.22.72-.21.72c-.1.29-.02.27-.05.41.01.23-.1.39-.1.67,0,.29,0,.58-.03.87.13,2.22,1.66,4.53,3.86,5.62,1.06.56,2.2.81,3.17.72.23-.06.47-.09.7-.13.2-.1.42-.17.65-.24h.05s-.27.2-.13.09l.03-.02.13-.08.26-.17.5-.34c.12-.14.26-.2.42-.36.66-.67,1.08-1.51,1.16-2.54.09-1-.14-2.11-.57-2.98-.6-1.71-2.64-2.34-4.15-2.17-1.58.16-2.6,1.18-2.97,2.02-.38.86-.33,1.44-.36,1.42.03,0-.21-.5-.11-1.55.08-1.04.94-2.7,2.96-3.54.98-.41,2.22-.64,3.57-.42.33.07.78.18,1.06.28l.42.14.1.03.21.11.29.16c.74.44,1.32.98,1.83,1.6,1.01,1.23,1.74,2.76,2.06,4.61.34,1.83-.07,4.08-1.26,5.95-.3.48-.73.97-1.13,1.44l-.43.43-.22.21-.1.11-.03.03c.13-.09-.2.17-.18.15l-.09.06c-.48.35-.98.68-1.49.99-.54.25-1.11.47-1.68.69-2.33.72-4.82.6-7.12-.1-2.29-.72-4.45-2.04-6.23-3.91-1.79-1.85-3.1-4.39-3.59-7.15-.08-.69-.15-1.38-.2-2.08-.05-.7.06-1.52.15-2.29.05-.35.1-.87.16-1.07l.19-.73.18-.73.04-.19.03-.09.12-.38.02-.07.21-.49c.97-2.68,3.01-5.15,5.33-6.71,2.31-1.61,4.77-2.51,7.12-3.1,2.36-.59,4.63-.88,6.85-1.09,4.46-.42,8.61-.37,12.72-.5,4.06-.08,7.68-.24,10.96-1.26.85-.17,1.63-.51,2.42-.82.78-.32,1.62-.57,2.29-1.01.72-.39,1.43-.77,2.13-1.15.71-.39,1.47-1.05,2.19-1.54.67-.5,1.33-.98,1.99-1.46.53-.52,1.13-.96,1.62-1.5.46-.58.99-1.09,1.39-1.68.39-.61.84-1.17,1.19-1.79,1.45-2.45,2.4-5.04,3.02-7.41.63-2.38.96-4.54,1.22-6.34.25-1.81.3-3.24.36-4.23.05-.98.05-1.52.05-1.52Z"/>
                <g>
                  <path class="first-color" d="m288.36,484.03c1.78,1.87,3.94,3.19,6.23,3.91.04,0,.07.02.11.02-1.44-.74-2.8-1.71-3.98-2.96-1.79-1.86-3.1-4.39-3.59-7.15-.08-.68-.14-1.38-.19-2.08-.05-.7.06-1.53.15-2.29.05-.35.11-.88.17-1.07l.18-.73.18-.73.05-.19.02-.09.12-.38.02-.06.2-.5c.97-2.68,3.01-5.15,5.33-6.71,2.31-1.61,4.77-2.51,7.12-3.1,2.36-.59,4.63-.88,6.85-1.09,4.46-.42,8.61-.37,12.71-.5,4.06-.07,7.68-.24,10.96-1.25.85-.17,1.63-.52,2.42-.83.78-.32,1.62-.57,2.29-1,.71-.39,1.43-.77,2.12-1.15.72-.39,1.48-1.05,2.2-1.54.67-.49,1.33-.98,1.99-1.46.53-.51,1.13-.96,1.63-1.51.46-.57.98-1.08,1.39-1.67.39-.62.84-1.18,1.19-1.79,1.45-2.45,2.39-5.05,3.01-7.42.31-1.17.55-2.29.75-3.34-.03-1.48-.12-2.82-.28-3.98-.48-3.72-1.19-5.74-1.19-5.74,0,0,0,.53-.05,1.52-.06.99-.12,2.42-.36,4.23-.26,1.79-.59,3.96-1.22,6.34-.63,2.37-1.57,4.96-3.02,7.41-.35.62-.8,1.18-1.19,1.79-.41.6-.93,1.11-1.39,1.68-.49.54-1.09.98-1.62,1.5-.65.48-1.32.97-1.99,1.46-.72.5-1.48,1.15-2.19,1.54-.7.38-1.41.76-2.13,1.15-.67.44-1.51.69-2.29,1.01-.79.31-1.57.65-2.42.82-3.28,1.02-6.9,1.18-10.96,1.26-4.11.13-8.26.08-12.72.5-2.22.21-4.49.5-6.85,1.09-2.35.59-4.81,1.49-7.12,3.1-2.32,1.55-4.36,4.02-5.33,6.71l-.21.49-.02.07-.12.38-.03.09-.04.19-.18.73-.19.73c-.06.2-.12.72-.16,1.07-.09.77-.2,1.6-.15,2.29.05.7.12,1.4.2,2.08.49,2.76,1.8,5.29,3.59,7.15Z"/>
                  <path class="first-color" d="m304.77,482.14c.12-.14.27-.19.43-.36.66-.67,1.08-1.51,1.16-2.53.09-1-.14-2.11-.57-2.98-.47-1.36-3.9-5.9-8.03-2.66,3.57-1.48,5.51,1.2,5.68,1.68.43.87.66,1.98.57,2.98-.08,1.03-.5,1.87-1.16,2.54-.16.16-.31.22-.42.36l-.5.34-.26.17-.13.08-.03.02c-.15.11.16-.13.13-.1h-.05c-.23.08-.45.15-.65.25-.24.04-.48.07-.7.13-.44.04-.92,0-1.41-.1.19.13.38.25.59.35,1.06.56,2.2.81,3.17.72.23-.05.46-.08.7-.12.2-.1.42-.18.65-.25h.04s-.27.2-.13.09l.03-.02.13-.08.25-.17.5-.34Z"/>
                </g>
              </g>
            </g>
            <g>
              <path class="first-color" d="m236.5,459.17c0,6.64,5.38,12.02,12.02,12.02s12.02-5.38,12.02-12.02-5.38-12.02-12.02-12.02-12.02,5.38-12.02,12.02Z"/>
              <circle class="first-color" cx="248.52" cy="459.17" r="9.12" transform="translate(-71.63 46.73) rotate(-9.4)"/>
            </g>
            <g>
              <path class="first-color" d="m297.7,437.28c0,4.16,3.37,7.53,7.53,7.53s7.53-3.37,7.53-7.53-3.37-7.52-7.53-7.52-7.53,3.37-7.53,7.52Z"/>
              <path class="first-color" d="m305.23,443c3.15,0,5.71-2.55,5.71-5.71s-2.56-5.71-5.71-5.71-5.71,2.56-5.71,5.71,2.56,5.71,5.71,5.71Z"/>
            </g>
          </g>
          <g>
            <g>
              <g>
                <path class="first-color" d="m450.33,433.86s25.8.3,38.02-2.07c8.14-1.68,15.02-9.51,19.21-10.69,4.18-1.17,3.47,4.03,3.47,4.03,4.14-1.47,12.51-.19,13.87,1.93,1.37,2.12-3.76,16.26-24.28,18-20.53,1.74-40.76-7.47-57.86-8.46-.18-1.03,7.57-2.74,7.57-2.74Z"/>
                <path class="first-color" d="m511.03,425.13s.71-5.2-3.47-4.03c-4.18,1.18-11.07,9.01-19.21,10.69-12.23,2.37-38.02,2.07-38.02,2.07,0,0-.69.15-1.63.39,16.04,2.06,35.88,6.38,52.96,4.93,13.37-1.14,20.2-7.53,22.97-12.44-1.95-1.92-9.67-3-13.59-1.61Z"/>
              </g>
              <g>
                <path class="first-color" d="m489.68,440.68s25.48,4.05,37.92,3.49c8.3-.47,16.25-7.23,20.56-7.78,4.31-.55,2.84,4.49,2.84,4.49,4.31-.85,12.41,1.64,13.45,3.93,1.04,2.3-6.1,15.54-26.65,14.27-20.56-1.26-39.22-13.32-56.01-16.79-.03-1.05,7.89-1.62,7.89-1.62Z"/>
                <path class="first-color" d="m551,440.88s1.46-5.04-2.84-4.49c-4.31.55-12.26,7.31-20.56,7.78-12.44.56-37.92-3.49-37.92-3.49,0,0-.7.06-1.67.15,15.57,4.38,34.56,11.54,51.68,12.59,13.39.83,21.09-4.51,24.54-8.96-1.65-2.19-9.13-4.38-13.22-3.57Z"/>
              </g>
              <g>
                <path class="first-color" d="m469.14,447.32s16.73-4.79,21.83,6.58c3.31,7.63.85,17.76,2.29,21.86,1.44,4.1,5.29.51,5.29.51,1.18,4.24,7.04,10.35,9.56,10.24,2.51-.1,11.14-12.43.76-30.22-10.37-17.79-39.09-23.99-52.87-22.08-6.65,3.84,13.14,13.11,13.14,13.11Z"/>
                <path class="first-color" d="m502.63,460.92c-9.99-17.14-27.06-25.36-42.77-23.33-.19,2.69,9.29,9.73,9.29,9.73,0,0,16.73-4.79,21.83,6.58,3.31,7.63.85,17.76,2.29,21.86,1.44,4.1,5.29.51,5.29.51,1.06,3.85,5.99,9.21,8.77,10.1,1.66-5.19,1.84-14.25-4.7-25.45Z"/>
              </g>
              <g>
                <path class="first-color" d="m437.86,449.02s12.99-11.59,22.52-3.57c6.29,5.43,8.49,15.62,11.58,18.69,3.08,3.06,4.98-1.83,4.98-1.83,2.91,3.3,10.85,6.25,13.07,5.06,2.22-1.19,4.62-16.04-12.46-27.55-17.08-11.52-45.63-4.6-57.21,3.11-4.33,6.35,17.53,6.08,17.53,6.08Z"/>
                <path class="first-color" d="m473.93,446.7c-16.45-11.09-35.4-11.06-48.66-2.41,1,2.52,8.86,8.1,8.86,8.1,0,0,14.57-15.76,26.25-6.95,6.63,5.01,8.49,15.62,11.58,18.69,3.08,3.06,4.98-1.83,4.98-1.83,2.64,2.99,9.4,5.69,12.3,5.27-.76-5.39-4.54-13.63-15.3-20.88Z"/>
              </g>
            </g>
            <g>
              <g>
                <path class="first-color" d="m364.05,411.84s-1.81,1.12-4.52,3.74c-1.36,1.29-2.9,3-4.45,5.17-1.56,2.17-3.08,4.87-4.1,8.17-.52,1.65-.83,3.46-.97,5.38-.07.96.02,1.95.04,2.97v.19s.01.05.01.05c.01.08-.03-.13.03.2v.08s.06.33.06.33l.1.65c.07.44.13.88.2,1.33.17.91.21,1.75.47,2.75.28,1.01.57,2.04.86,3.08.26,1.07.74,2.01,1.16,3.01.43.99.84,2.02,1.46,2.94,2.19,3.87,5.33,7.25,8.39,10.08,3,2.84,6.13,5.71,8.88,8.47,2.75,2.76,5.06,5.8,5.79,8.34.36,1.28.36,2.33.07,3.49l-.04.22v.03c-.03.08.22-.58.11-.28l-.03.09-.07.17-.29.7-.28.7c-.1.29-.15.22-.22.36-.15.17-.17.36-.34.59-.18.22-.36.46-.52.7-1.49,1.65-4.13,2.49-6.53,1.96-1.18-.23-2.23-.74-2.92-1.42-.14-.19-.31-.36-.47-.54-.09-.2-.22-.4-.35-.6l-.03-.04s.08.34.04.16v-.04s-.06-.15-.06-.15l-.09-.29-.18-.58c0-.18-.08-.32-.11-.54-.09-.94.1-1.86.68-2.7.56-.84,1.43-1.56,2.31-1.97,1.54-.96,3.52-.17,4.6.91,1.14,1.12,1.29,2.55,1.05,3.43-.24.91-.64,1.33-.61,1.34-.03-.03.47-.26,1.06-1.15.59-.85.95-2.69-.09-4.61-.51-.94-1.33-1.89-2.52-2.56-.31-.15-.72-.35-1-.45l-.42-.15-.1-.04-.24-.05-.32-.05c-.86-.12-1.65-.06-2.43.1-1.55.33-3.09,1.06-4.49,2.31-1.41,1.21-2.5,3.22-2.75,5.42-.07.56-.04,1.21-.02,1.84l.06.6.03.3.02.15v.04c-.03-.16.05.25.06.23l.03.1c.16.57.33,1.14.54,1.71.26.53.56,1.06.88,1.59,1.37,2.02,3.39,3.49,5.61,4.38,2.24.87,4.75,1.2,7.31.85,2.56-.32,5.17-1.48,7.27-3.32.49-.48.97-.98,1.46-1.5.47-.51.91-1.22,1.31-1.88.18-.3.47-.74.54-.94l.31-.68.31-.69.08-.17.04-.09.14-.37.02-.06.15-.51c.92-2.7.88-5.91.04-8.57-.8-2.7-2.15-4.94-3.61-6.87-1.47-1.94-3.07-3.58-4.66-5.14-3.21-3.12-6.48-5.68-9.6-8.35-3.12-2.6-5.84-4.99-7.76-7.84-.55-.66-.94-1.42-1.37-2.16-.41-.74-.9-1.45-1.15-2.21-.32-.75-.63-1.5-.94-2.23-.31-.75-.49-1.74-.74-2.57-.22-.81-.43-1.61-.63-2.39-.09-.73-.28-1.45-.32-2.19,0-.74-.09-1.46-.04-2.18.08-.72.08-1.44.2-2.14.4-2.82,1.29-5.43,2.29-7.68.99-2.25,2.09-4.14,3.01-5.71.94-1.56,1.79-2.72,2.37-3.52.57-.81.91-1.21.91-1.21Z"/>
                <g>
                  <path class="first-color" d="m374.41,495.03c-2.56.35-5.07.03-7.31-.85-.03-.02-.07-.03-.1-.05,1.59.32,3.26.41,4.96.18,2.56-.32,5.16-1.48,7.27-3.32.49-.48.98-.99,1.46-1.5.48-.52.91-1.23,1.32-1.88.18-.3.46-.75.53-.94l.31-.69.32-.69.08-.18.03-.08.15-.37.02-.07.15-.51c.93-2.69.88-5.9.04-8.57-.8-2.7-2.15-4.94-3.61-6.87-1.47-1.93-3.07-3.58-4.66-5.14-3.21-3.12-6.48-5.68-9.6-8.35-3.12-2.6-5.84-4.99-7.76-7.84-.56-.67-.95-1.42-1.37-2.16-.41-.74-.91-1.46-1.15-2.22-.32-.75-.63-1.49-.94-2.23-.31-.75-.5-1.74-.75-2.57-.21-.81-.42-1.6-.63-2.39-.09-.74-.28-1.46-.32-2.19,0-.73-.09-1.46-.03-2.18.08-.72.08-1.44.19-2.15.41-2.82,1.29-5.43,2.3-7.67.49-1.11,1-2.13,1.51-3.07.94-1.13,1.86-2.12,2.71-2.92,2.71-2.61,4.52-3.74,4.52-3.74,0,0-.34.41-.91,1.21-.57.81-1.43,1.96-2.37,3.52-.93,1.56-2.02,3.46-3.01,5.71-1,2.24-1.89,4.86-2.29,7.68-.11.7-.11,1.42-.2,2.14-.05.72.04,1.44.04,2.18.05.73.23,1.45.32,2.19.21.78.42,1.58.63,2.39.25.84.43,1.82.74,2.57.31.73.62,1.48.94,2.23.25.76.75,1.48,1.15,2.21.42.74.81,1.5,1.37,2.16,1.92,2.85,4.64,5.24,7.76,7.84,3.13,2.68,6.39,5.23,9.6,8.35,1.6,1.56,3.19,3.2,4.66,5.14,1.46,1.93,2.81,4.17,3.61,6.87.83,2.66.88,5.87-.04,8.57l-.15.51-.02.06-.14.37-.04.09-.08.17-.31.69-.31.68c-.07.19-.36.64-.54.94-.41.65-.84,1.37-1.31,1.88-.48.52-.97,1.02-1.46,1.5-2.11,1.84-4.72,3-7.27,3.32Z"/>
                  <path class="first-color" d="m362.81,483.28c0-.18-.09-.32-.11-.54-.09-.94.1-1.86.68-2.7.56-.84,1.43-1.56,2.32-1.97,1.22-.76,6.74-2.17,7.93,2.96-1.85-3.4-5.05-2.51-5.49-2.24-.88.41-1.75,1.13-2.31,1.97-.58.85-.77,1.77-.68,2.7.02.23.1.36.11.54l.18.58.09.29.04.15v.04c.05.18-.03-.2-.02-.16l.03.04c.13.2.26.39.35.6.16.18.32.35.47.54.32.31.71.58,1.16.81-.23-.03-.46-.05-.68-.1-1.18-.23-2.22-.75-2.93-1.43-.14-.18-.31-.36-.47-.53-.09-.21-.21-.4-.35-.6l-.03-.03s.08.33.03.16v-.04s-.05-.15-.05-.15l-.09-.29-.18-.58Z"/>
                </g>
              </g>
              <g>
                <path class="first-color" d="m352.75,437.48s.46,2.08,2,5.51c.77,1.71,1.87,3.74,3.39,5.93,1.53,2.19,3.56,4.52,6.33,6.59,1.39,1.04,2.98,1.94,4.75,2.71.88.38,1.84.63,2.8.95l.18.06.04.02c.09.02-.12-.02.2.04l.08.02.33.06.65.13c.44.08.88.17,1.32.25.91.15,1.72.39,2.75.48,1.05.07,2.12.14,3.19.21,1.1.12,2.14-.02,3.23-.07,1.08-.07,2.18-.12,3.25-.4,4.38-.77,8.61-2.6,12.31-4.54,3.68-1.88,7.43-3.87,10.96-5.54,3.52-1.66,7.15-2.83,9.79-2.66,1.32.09,2.32.45,3.32,1.11l.2.11h.02c.06.06-.47-.39-.23-.18l.07.06.14.13.56.5.56.5c.24.19.16.22.26.32.11.2.29.28.44.52.15.25.31.49.48.73,1.06,1.96.97,4.72-.33,6.81-.61,1.04-1.45,1.85-2.32,2.28-.22.07-.44.17-.66.26-.23.02-.45.07-.68.13l-.04.02s.35.04.16.02h-.19s-.31-.02-.31-.02l-.6-.03c-.17-.06-.33-.03-.55-.08-.91-.23-1.71-.72-2.32-1.54-.6-.81-.99-1.87-1.08-2.84-.39-1.77,1.02-3.38,2.39-4.03,1.43-.7,2.84-.36,3.59.16.77.52,1.03,1.05,1.05,1.02-.03.02-.08-.53-.72-1.38-.61-.84-2.22-1.8-4.38-1.46-1.05.17-2.23.62-3.26,1.51-.25.24-.58.57-.76.8l-.28.34-.07.08-.12.2-.16.28c-.4.77-.61,1.54-.71,2.32-.21,1.58-.03,3.26.68,5,.67,1.74,2.2,3.44,4.19,4.41.5.25,1.13.44,1.72.63l.59.15.3.07.15.03h.04c-.16,0,.25.05.24.04h.11c.59.05,1.19.07,1.79.07.59-.07,1.19-.18,1.79-.3,2.36-.61,4.42-2.02,6.01-3.82,1.57-1.82,2.72-4.07,3.25-6.6.55-2.52.33-5.36-.7-7.97-.29-.62-.6-1.25-.93-1.87-.32-.62-.85-1.27-1.33-1.87-.23-.27-.55-.69-.7-.82l-.54-.52-.54-.53-.14-.13-.07-.06-.3-.26-.06-.04-.43-.31c-2.23-1.77-5.27-2.8-8.06-2.91-2.81-.15-5.38.37-7.69,1.1-2.31.74-4.4,1.68-6.4,2.67-4.02,1.98-7.52,4.21-11.08,6.25-3.5,2.07-6.66,3.84-9.98,4.69-.82.3-1.66.42-2.5.57-.83.14-1.68.37-2.48.35-.82.05-1.62.09-2.41.13-.81.05-1.8-.11-2.68-.15-.83-.07-1.65-.14-2.46-.2-.72-.16-1.46-.23-2.17-.43-.69-.25-1.41-.4-2.07-.7-.65-.32-1.33-.56-1.96-.9-2.52-1.33-4.68-3.04-6.46-4.73-1.79-1.69-3.21-3.36-4.37-4.75-1.16-1.41-1.96-2.6-2.52-3.41-.57-.81-.84-1.27-.84-1.27Z"/>
                <g>
                  <path class="first-color" d="m434.61,455.55c-.53,2.53-1.67,4.78-3.25,6.6-.02.03-.05.05-.08.07.84-1.39,1.48-2.92,1.83-4.61.55-2.52.33-5.36-.7-7.97-.29-.62-.6-1.25-.93-1.87-.33-.62-.86-1.27-1.33-1.87-.22-.27-.55-.69-.7-.82l-.54-.52-.54-.53-.14-.13-.07-.07-.3-.26-.05-.04-.43-.31c-2.24-1.77-5.27-2.8-8.06-2.91-2.81-.15-5.38.37-7.68,1.1-2.32.73-4.4,1.68-6.4,2.67-4.02,1.99-7.52,4.21-11.08,6.26-3.49,2.07-6.66,3.83-9.98,4.69-.81.3-1.66.42-2.49.57-.83.14-1.68.37-2.48.35-.82.04-1.62.09-2.42.13-.81.05-1.8-.11-2.68-.16-.83-.07-1.65-.14-2.46-.2-.73-.16-1.47-.23-2.17-.42-.69-.25-1.41-.4-2.07-.7-.65-.32-1.33-.56-1.95-.91-2.52-1.32-4.69-3.03-6.46-4.72-.88-.83-1.67-1.66-2.39-2.45-.75-1.27-1.38-2.46-1.86-3.53-1.55-3.43-2-5.51-2-5.51,0,0,.27.46.84,1.27.57.81,1.37,2,2.52,3.41,1.16,1.39,2.58,3.06,4.37,4.75,1.78,1.69,3.94,3.4,6.46,4.73.63.34,1.31.58,1.96.9.66.29,1.38.45,2.07.7.7.2,1.45.27,2.17.43.81.07,1.63.14,2.46.2.88.04,1.87.2,2.68.15.8-.04,1.6-.08,2.41-.13.8.02,1.64-.21,2.48-.35.84-.15,1.68-.27,2.5-.57,3.32-.85,6.48-2.62,9.98-4.69,3.57-2.05,7.07-4.27,11.08-6.25,2-.99,4.09-1.94,6.4-2.67,2.31-.73,4.87-1.26,7.69-1.1,2.79.11,5.83,1.14,8.06,2.91l.43.31.06.04.3.26.07.06.14.13.54.53.54.52c.15.13.48.55.7.82.48.61,1,1.25,1.33,1.87.33.62.64,1.25.93,1.87,1.03,2.61,1.25,5.45.7,7.97Z"/>
                  <path class="first-color" d="m419.65,462.56c-.17-.06-.33-.03-.55-.08-.91-.23-1.72-.72-2.32-1.55-.6-.81-.99-1.87-1.08-2.84-.31-1.41.22-7.07,5.44-6.48-3.82.62-4.06,3.92-3.95,4.42.09.97.48,2.03,1.08,2.84.6.83,1.4,1.32,2.32,1.54.22.05.38.02.55.08l.6.03.31.02h.15s.04,0,.04,0c.19.02-.21-.02-.16-.02l.04-.02c.23-.06.46-.11.68-.13.22-.09.44-.19.66-.26.4-.2.78-.48,1.15-.82-.1.21-.2.41-.32.61-.6,1.04-1.45,1.85-2.32,2.28-.22.07-.44.17-.66.26-.23.02-.45.07-.68.13l-.04.02s.35.04.16.02h-.19s-.3-.02-.3-.02l-.61-.03Z"/>
                </g>
              </g>
              <g>
                <path class="first-color" d="m351.47,425.65s-.71,2.01-1.19,5.74c-.25,1.86-.37,4.16-.23,6.83.15,2.67.65,5.72,1.92,8.94.63,1.61,1.52,3.22,2.62,4.8.55.79,1.24,1.51,1.88,2.29l.12.14.03.03c.07.06-.1-.07.15.14l.06.06.25.23.48.44c.33.3.66.61.99.91.7.61,1.26,1.23,2.09,1.85.85.61,1.72,1.23,2.59,1.86.87.67,1.84,1.1,2.79,1.63.96.51,1.92,1.05,2.98,1.37,4.14,1.65,8.69,2.31,12.85,2.61,4.12.33,8.36.61,12.23,1.05,3.87.43,7.58,1.35,9.74,2.88,1.07.77,1.73,1.6,2.24,2.68l.11.19.02.03c.02.08-.19-.59-.09-.29l.03.09.05.18.22.72.21.72c.1.29.02.27.05.41-.01.23.09.39.1.67,0,.29,0,.58.03.87-.13,2.22-1.66,4.53-3.86,5.62-1.06.56-2.2.81-3.17.72-.23-.06-.46-.09-.7-.13-.2-.1-.42-.17-.65-.24h-.04s.27.2.13.09l-.03-.02-.13-.08-.25-.17-.5-.34c-.12-.14-.27-.2-.42-.36-.66-.67-1.08-1.51-1.16-2.54-.08-1,.14-2.11.57-2.98.6-1.71,2.64-2.34,4.15-2.17,1.58.16,2.6,1.18,2.97,2.02.38.86.32,1.44.36,1.42-.04,0,.21-.5.11-1.55-.08-1.04-.94-2.7-2.96-3.54-.98-.41-2.22-.64-3.57-.42-.33.07-.78.18-1.06.28l-.41.14-.11.03-.21.11-.29.16c-.74.44-1.32.98-1.83,1.6-1.01,1.23-1.74,2.76-2.05,4.61-.34,1.83.07,4.08,1.26,5.95.3.48.73.97,1.13,1.44l.43.43.21.21.1.11.03.03c-.13-.09.2.17.19.15l.09.06c.48.35.97.68,1.49.99.54.25,1.1.47,1.68.69,2.33.72,4.82.6,7.12-.1,2.3-.72,4.45-2.04,6.23-3.91,1.8-1.85,3.11-4.39,3.59-7.15.08-.69.14-1.38.2-2.08.05-.7-.07-1.52-.15-2.29-.05-.35-.1-.87-.17-1.07l-.18-.73-.18-.73-.05-.19-.02-.09-.12-.38-.02-.07-.2-.49c-.97-2.68-3.01-5.15-5.33-6.71-2.32-1.61-4.77-2.51-7.12-3.1-2.36-.59-4.63-.88-6.85-1.09-4.46-.42-8.61-.37-12.72-.5-4.06-.08-7.68-.24-10.96-1.26-.85-.17-1.62-.51-2.42-.82-.78-.32-1.62-.57-2.29-1.01-.72-.39-1.43-.77-2.13-1.15-.71-.39-1.47-1.05-2.19-1.54-.68-.5-1.34-.98-1.99-1.46-.53-.52-1.13-.96-1.62-1.5-.46-.58-.99-1.09-1.39-1.68-.38-.61-.84-1.17-1.19-1.79-1.45-2.45-2.4-5.04-3.02-7.41-.63-2.38-.97-4.54-1.22-6.34-.24-1.81-.3-3.24-.36-4.23-.05-.98-.05-1.52-.05-1.52Z"/>
                <g>
                  <path class="first-color" d="m411.63,484.03c-1.78,1.87-3.93,3.19-6.23,3.91-.04,0-.07.02-.11.02,1.44-.74,2.8-1.71,3.98-2.96,1.79-1.86,3.1-4.39,3.59-7.15.08-.68.15-1.38.19-2.08.05-.7-.06-1.53-.15-2.29-.05-.35-.11-.88-.17-1.07l-.18-.73-.18-.73-.05-.19-.02-.09-.12-.38-.03-.06-.2-.5c-.97-2.68-3.01-5.15-5.33-6.71-2.31-1.61-4.77-2.51-7.12-3.1-2.35-.59-4.63-.88-6.85-1.09-4.46-.42-8.61-.37-12.72-.5-4.06-.07-7.68-.24-10.96-1.25-.85-.17-1.63-.52-2.42-.83-.78-.32-1.62-.57-2.29-1-.71-.39-1.43-.77-2.12-1.15-.72-.39-1.48-1.05-2.2-1.54-.67-.49-1.33-.98-1.99-1.46-.54-.51-1.13-.96-1.63-1.51-.46-.57-.98-1.08-1.39-1.67-.39-.62-.84-1.18-1.19-1.79-1.45-2.45-2.39-5.05-3.02-7.42-.31-1.17-.55-2.29-.74-3.34.03-1.48.12-2.82.28-3.98.48-3.72,1.19-5.74,1.19-5.74,0,0,0,.53.05,1.52.06.99.12,2.42.36,4.23.26,1.79.59,3.96,1.22,6.34.63,2.37,1.57,4.96,3.02,7.41.35.62.8,1.18,1.19,1.79.41.6.93,1.11,1.39,1.68.5.54,1.09.98,1.62,1.5.65.48,1.31.97,1.99,1.46.72.5,1.48,1.15,2.19,1.54.7.38,1.41.76,2.13,1.15.67.44,1.51.69,2.29,1.01.79.31,1.57.65,2.42.82,3.28,1.02,6.9,1.18,10.96,1.26,4.11.13,8.26.08,12.72.5,2.22.21,4.49.5,6.85,1.09,2.34.59,4.8,1.49,7.12,3.1,2.32,1.55,4.36,4.02,5.33,6.71l.2.49.02.07.12.38.02.09.05.19.18.73.18.73c.07.2.12.72.17,1.07.09.77.2,1.6.15,2.29-.05.7-.12,1.4-.2,2.08-.49,2.76-1.8,5.29-3.59,7.15Z"/>
                  <path class="first-color" d="m395.23,482.14c-.12-.14-.27-.19-.43-.36-.66-.67-1.08-1.51-1.16-2.53-.09-1,.14-2.11.57-2.98.47-1.36,3.9-5.9,8.03-2.66-3.57-1.48-5.51,1.2-5.68,1.68-.43.87-.66,1.98-.57,2.98.08,1.03.5,1.87,1.16,2.54.15.16.31.22.42.36l.5.34.25.17.13.08.03.02c.15.11-.16-.13-.13-.1h.04c.23.08.45.15.65.25.24.04.48.07.7.13.44.04.92,0,1.41-.1-.19.13-.39.25-.59.35-1.06.56-2.2.81-3.17.72-.23-.05-.47-.08-.7-.12-.2-.1-.42-.18-.65-.25h-.05s.27.2.13.09l-.03-.02-.12-.08-.25-.17-.5-.34Z"/>
                </g>
              </g>
            </g>
            <g>
              <path class="first-color" d="m463.5,459.17c0,6.64-5.38,12.02-12.02,12.02s-12.02-5.38-12.02-12.02,5.38-12.02,12.02-12.02,12.02,5.38,12.02,12.02Z"/>
              <path class="first-color" d="m451.48,468.29c-5.04,0-9.12-4.08-9.12-9.12s4.08-9.12,9.12-9.12,9.12,4.09,9.12,9.12-4.08,9.12-9.12,9.12Z"/>
            </g>
            <g>
              <path class="first-color" d="m402.3,437.28c0,4.16-3.37,7.53-7.53,7.53s-7.53-3.37-7.53-7.53,3.37-7.52,7.53-7.52,7.53,3.37,7.53,7.52Z"/>
              <path class="first-color" d="m394.77,443c-3.15,0-5.71-2.55-5.71-5.71s2.56-5.71,5.71-5.71,5.71,2.56,5.71,5.71-2.55,5.71-5.71,5.71Z"/>
            </g>
          </g>
        </g>
        <g>
          <g>
            <path class="first-color" d="m485.4,403.24s-.75,3.43-3.31,9.08c-1.27,2.83-3.07,6.16-5.58,9.78-2.51,3.6-5.86,7.46-10.43,10.87-2.28,1.71-4.92,3.2-7.83,4.47-1.45.63-3.04,1.04-4.61,1.57l-.3.1-.07.02c-.14.03.2-.02-.33.06l-.13.03-.53.1-1.08.21c-.72.14-1.44.28-2.17.41-1.5.25-2.84.64-4.53.78-1.73.12-3.48.24-5.26.36-1.81.2-3.53-.04-5.32-.13-1.78-.13-3.6-.19-5.37-.65-7.22-1.27-14.19-4.28-20.28-7.47-6.06-3.11-12.25-6.38-18.06-9.12-5.79-2.75-11.79-4.66-16.15-4.39-2.18.15-3.82.74-5.46,1.83l-.32.18-.04.03c-.1.08.77-.67.37-.32l-.12.1-.23.2-.93.83-.92.82c-.39.32-.26.36-.43.54-.18.33-.47.46-.73.85-.24.41-.51.8-.8,1.2-1.74,3.22-1.59,7.78.55,11.22,1,1.71,2.39,3.05,3.82,3.76.37.11.72.28,1.09.43.37.03.74.12,1.12.22l.08.02c.08,0-.57.07-.27.04h.06s.25-.02.25-.02l.5-.02,1-.05c.28-.09.54-.04.9-.13,1.51-.37,2.83-1.18,3.82-2.55.99-1.33,1.63-3.08,1.78-4.68.64-2.92-1.68-5.57-3.95-6.64-2.36-1.14-4.67-.59-5.91.27-1.28.87-1.7,1.73-1.74,1.68.05.03.14-.88,1.19-2.28,1-1.38,3.66-2.96,7.22-2.4,1.74.27,3.68,1.01,5.38,2.49.4.4.94.94,1.25,1.31l.46.55.12.14.2.33.26.47c.66,1.26,1,2.53,1.18,3.82.35,2.59.06,5.38-1.11,8.25-1.11,2.86-3.63,5.66-6.91,7.25-.83.42-1.86.73-2.83,1.04l-.97.24-.49.12-.25.06h-.06c.27-.02-.42.07-.39.06h-.18c-.96.07-1.95.12-2.95.12-.97-.12-1.96-.3-2.95-.49-3.89-1.01-7.28-3.34-9.9-6.31-2.6-2.99-4.48-6.71-5.35-10.88-.91-4.15-.55-8.84,1.15-13.13.48-1.03.99-2.06,1.53-3.09.54-1.03,1.41-2.09,2.19-3.09.37-.44.91-1.14,1.16-1.35l.89-.86.89-.87.23-.22.11-.1.49-.43.09-.06.72-.52c3.68-2.92,8.68-4.61,13.28-4.79,4.64-.25,8.87.61,12.67,1.82,3.81,1.21,7.25,2.78,10.55,4.41,6.62,3.27,12.39,6.93,18.27,10.31,5.76,3.41,10.97,6.32,16.45,7.73,1.34.49,2.73.69,4.11.93,1.37.23,2.76.6,4.08.57,1.34.07,2.67.15,3.98.22,1.34.07,2.97-.19,4.41-.26,1.37-.11,2.72-.23,4.06-.33,1.19-.26,2.42-.37,3.58-.7,1.14-.4,2.32-.66,3.41-1.15,1.07-.53,2.19-.92,3.22-1.49,4.16-2.19,7.72-5.01,10.65-7.79,2.95-2.79,5.29-5.54,7.21-7.83,1.91-2.31,3.23-4.28,4.16-5.61.93-1.33,1.38-2.09,1.38-2.09Z"/>
            <g>
              <path class="first-color" d="m350.49,433.02c.87,4.17,2.75,7.88,5.35,10.88.04.05.09.08.13.13-1.38-2.29-2.44-4.83-3.02-7.6-.91-4.15-.55-8.84,1.15-13.14.48-1.03.99-2.06,1.53-3.08.54-1.03,1.41-2.09,2.19-3.09.37-.44.91-1.14,1.16-1.35l.89-.86.89-.86.23-.22.11-.1.49-.43.09-.07.72-.52c3.68-2.92,8.68-4.61,13.28-4.79,4.64-.25,8.87.61,12.67,1.82,3.81,1.21,7.25,2.78,10.55,4.41,6.62,3.27,12.39,6.93,18.27,10.31,5.76,3.41,10.97,6.31,16.45,7.73,1.34.5,2.73.69,4.11.94,1.37.22,2.76.6,4.08.57,1.34.07,2.67.15,3.98.22,1.34.07,2.97-.19,4.41-.26,1.37-.11,2.72-.23,4.05-.33,1.19-.26,2.42-.37,3.58-.7,1.14-.4,2.32-.66,3.41-1.15,1.07-.53,2.19-.93,3.22-1.49,4.16-2.18,7.72-5,10.65-7.79,1.45-1.37,2.75-2.73,3.93-4.03,1.24-2.1,2.27-4.07,3.06-5.82,2.56-5.65,3.31-9.08,3.31-9.08,0,0-.45.75-1.38,2.09-.93,1.33-2.26,3.3-4.16,5.61-1.92,2.3-4.26,5.04-7.21,7.83-2.93,2.78-6.5,5.6-10.65,7.79-1.03.57-2.15.96-3.22,1.49-1.09.48-2.27.74-3.41,1.15-1.16.33-2.39.44-3.58.7-1.33.11-2.68.23-4.06.33-1.44.07-3.07.33-4.41.26-1.31-.07-2.64-.15-3.98-.22-1.32.03-2.71-.35-4.08-.57-1.38-.25-2.76-.44-4.11-.93-5.48-1.41-10.69-4.32-16.45-7.73-5.88-3.37-11.65-7.04-18.27-10.31-3.3-1.63-6.74-3.2-10.55-4.41-3.8-1.2-8.03-2.07-12.67-1.82-4.6.18-9.61,1.87-13.28,4.79l-.72.52-.09.06-.49.43-.11.1-.23.22-.89.87-.89.86c-.25.21-.79.91-1.16,1.35-.78.99-1.65,2.06-2.19,3.09-.53,1.03-1.04,2.06-1.53,3.09-1.7,4.29-2.06,8.98-1.15,13.13Z"/>
              <path class="first-color" d="m375.13,444.56c.28-.09.54-.04.9-.13,1.51-.37,2.83-1.18,3.82-2.54.99-1.33,1.63-3.08,1.78-4.68.51-2.32-.36-11.66-8.96-10.69,6.29,1.01,6.68,6.46,6.51,7.28-.15,1.6-.8,3.34-1.78,4.68-.99,1.37-2.31,2.18-3.82,2.55-.36.09-.62.04-.9.13l-1,.05-.5.02h-.25s-.06.02-.06.02c-.31.03.34-.04.27-.04l-.08-.02c-.38-.1-.75-.19-1.12-.22-.37-.15-.73-.32-1.09-.43-.66-.32-1.29-.79-1.9-1.35.16.34.33.67.53,1,1,1.71,2.39,3.04,3.82,3.76.37.11.72.28,1.09.43.37.03.74.12,1.12.22l.08.02c.08,0-.57.07-.27.04h.06s.25-.02.25-.02l.5-.02,1-.05Z"/>
            </g>
          </g>
          <g>
            <path class="first-color" d="m214.6,403.24s.75,3.43,3.31,9.08c1.27,2.83,3.07,6.16,5.58,9.78,2.51,3.6,5.86,7.46,10.43,10.87,2.28,1.71,4.92,3.2,7.83,4.47,1.45.63,3.04,1.04,4.61,1.57l.3.1.07.02c.14.03-.2-.02.33.06l.13.03.53.1,1.08.21c.72.14,1.44.28,2.17.41,1.5.25,2.84.64,4.53.78,1.73.12,3.48.24,5.26.36,1.81.2,3.53-.04,5.32-.13,1.78-.13,3.6-.19,5.37-.65,7.22-1.27,14.19-4.28,20.28-7.47,6.06-3.11,12.25-6.38,18.06-9.12,5.79-2.75,11.79-4.66,16.15-4.39,2.18.15,3.82.74,5.46,1.83l.32.18.04.03c.1.08-.77-.67-.37-.32l.12.1.23.2.93.83.92.82c.39.32.26.36.43.54.18.33.47.46.73.85.24.41.51.8.8,1.2,1.74,3.22,1.59,7.78-.55,11.22-1,1.71-2.39,3.05-3.82,3.76-.37.11-.72.28-1.09.43-.37.03-.74.12-1.12.22l-.08.02c-.08,0,.57.07.27.04h-.06s-.25-.02-.25-.02l-.5-.02-1-.05c-.28-.09-.54-.04-.9-.13-1.51-.37-2.83-1.18-3.82-2.55-.99-1.33-1.63-3.08-1.78-4.68-.64-2.92,1.68-5.57,3.95-6.64,2.36-1.14,4.67-.59,5.91.27,1.28.87,1.7,1.73,1.74,1.68-.05.03-.14-.88-1.19-2.28-1-1.38-3.66-2.96-7.22-2.4-1.74.27-3.68,1.01-5.38,2.49-.4.4-.94.94-1.25,1.31l-.46.55-.12.14-.2.33-.26.47c-.66,1.26-1,2.53-1.18,3.82-.35,2.59-.06,5.38,1.11,8.25,1.11,2.86,3.63,5.66,6.91,7.25.83.42,1.86.73,2.83,1.04l.97.24.49.12.25.06h.06c-.27-.02.42.07.39.06h.18c.96.07,1.95.12,2.95.12.97-.12,1.96-.3,2.95-.49,3.89-1.01,7.28-3.34,9.9-6.31,2.6-2.99,4.48-6.71,5.35-10.88.91-4.15.55-8.84-1.15-13.13-.48-1.03-.99-2.06-1.53-3.09-.54-1.03-1.41-2.09-2.19-3.09-.37-.44-.9-1.14-1.16-1.35l-.89-.86-.89-.87-.23-.22-.11-.1-.49-.43-.09-.06-.72-.52c-3.68-2.92-8.68-4.61-13.28-4.79-4.64-.25-8.87.61-12.67,1.82-3.81,1.21-7.25,2.78-10.55,4.41-6.62,3.27-12.39,6.93-18.27,10.31-5.76,3.41-10.97,6.32-16.45,7.73-1.34.49-2.73.69-4.11.93-1.37.23-2.76.6-4.08.57-1.34.07-2.67.15-3.98.22-1.34.07-2.97-.19-4.41-.26-1.37-.11-2.72-.23-4.06-.33-1.19-.26-2.42-.37-3.58-.7-1.14-.4-2.32-.66-3.41-1.15-1.07-.53-2.19-.92-3.22-1.49-4.16-2.19-7.72-5.01-10.65-7.79-2.95-2.79-5.29-5.54-7.21-7.83-1.91-2.31-3.23-4.28-4.16-5.61-.93-1.33-1.38-2.09-1.38-2.09Z"/>
            <g>
              <path class="first-color" d="m349.51,433.02c-.87,4.17-2.75,7.88-5.35,10.88-.04.05-.09.08-.13.13,1.38-2.29,2.44-4.83,3.02-7.6.91-4.15.55-8.84-1.15-13.14-.48-1.03-.99-2.06-1.53-3.08-.54-1.03-1.41-2.09-2.19-3.09-.37-.44-.91-1.14-1.16-1.35l-.89-.86-.89-.86-.23-.22-.11-.1-.49-.43-.09-.07-.72-.52c-3.68-2.92-8.68-4.61-13.28-4.79-4.64-.25-8.87.61-12.67,1.82-3.81,1.21-7.25,2.78-10.55,4.41-6.62,3.27-12.39,6.93-18.27,10.31-5.76,3.41-10.97,6.31-16.45,7.73-1.34.5-2.73.69-4.11.94-1.37.22-2.76.6-4.08.57-1.34.07-2.67.15-3.98.22-1.34.07-2.97-.19-4.41-.26-1.37-.11-2.72-.23-4.05-.33-1.19-.26-2.42-.37-3.58-.7-1.14-.4-2.32-.66-3.41-1.15-1.07-.53-2.19-.93-3.22-1.49-4.16-2.18-7.72-5-10.65-7.79-1.45-1.37-2.75-2.73-3.93-4.03-1.24-2.1-2.27-4.07-3.06-5.82-2.56-5.65-3.31-9.08-3.31-9.08,0,0,.45.75,1.38,2.09.93,1.33,2.26,3.3,4.16,5.61,1.92,2.3,4.26,5.04,7.21,7.83,2.93,2.78,6.5,5.6,10.65,7.79,1.03.57,2.15.96,3.22,1.49,1.09.48,2.27.74,3.41,1.15,1.16.33,2.39.44,3.58.7,1.33.11,2.68.23,4.06.33,1.44.07,3.07.33,4.41.26,1.31-.07,2.64-.15,3.98-.22,1.32.03,2.71-.35,4.08-.57,1.38-.25,2.76-.44,4.11-.93,5.48-1.41,10.69-4.32,16.45-7.73,5.88-3.37,11.65-7.04,18.27-10.31,3.3-1.63,6.74-3.2,10.55-4.41,3.8-1.2,8.03-2.07,12.67-1.82,4.6.18,9.61,1.87,13.28,4.79l.72.52.09.06.49.43.11.1.23.22.89.87.89.86c.25.21.79.91,1.16,1.35.78.99,1.65,2.06,2.19,3.09.54,1.03,1.05,2.06,1.53,3.09,1.7,4.29,2.06,8.98,1.15,13.13Z"/>
              <path class="first-color" d="m324.87,444.56c-.28-.09-.54-.04-.9-.13-1.51-.37-2.83-1.18-3.82-2.54-.99-1.33-1.63-3.08-1.78-4.68-.51-2.32.36-11.66,8.96-10.69-6.29,1.01-6.68,6.46-6.51,7.28.15,1.6.8,3.34,1.78,4.68.99,1.37,2.31,2.18,3.82,2.55.36.09.62.04.9.13l1,.05.5.02h.25s.06.02.06.02c.31.03-.34-.04-.27-.04l.08-.02c.38-.1.75-.19,1.12-.22.37-.15.73-.32,1.09-.43.66-.32,1.29-.79,1.9-1.35-.16.34-.33.67-.53,1-1,1.71-2.39,3.04-3.82,3.76-.37.11-.72.28-1.09.43-.37.03-.74.12-1.12.22l-.08.02c-.08,0,.57.07.27.04h-.06s-.25-.02-.25-.02l-.5-.02-1-.05Z"/>
            </g>
          </g>
        </g>
      </g>
    </g>
    <path class="first-color" d="m593.16,203.44l-1.12-2.06-2.19.84c-160.17,61.33-330.5,61.33-479.63.02l-2.23-.92-1.15,2.12c-46.01,84.83-46.01,154.03,0,238.87l1.16,2.14,2.24-.96c139.1-59.43,318.4-59.41,479.63.05l2.18.8,1.11-2.04c46.02-84.83,46.02-154.04,0-238.87Zm-243.55,190.43c-2.85-.04-5.69-.05-8.53-.05-83,0-162.54,15.09-230.68,43.79-43.5-81.35-43.5-148.16.01-229.5,73.77,29.99,152.85,45.18,235.17,45.18,1.42,0,2.85,0,4.27-.01,81.31-.52,161.95-15.73,239.71-45.21,43.56,81.4,43.55,148.25-.01,229.66-75.85-27.68-158.76-42.84-239.94-43.85Z"/>
    <path class="first-color" d="m121.81,423.84l-.62-1.02c-43.35-71-43.35-128.91,0-199.89l.61-1,1.11.4c141.23,51.58,302.54,51.57,454.21-.01l1.09-.37.6.98c43.35,70.99,43.35,128.9,0,199.89l-.59.97-1.08-.35c-152.66-50.01-322.46-50.02-454.21-.02l-1.12.42Zm219.76-40.6c2.68,0,5.35.01,8.04.04,76.93.85,155.51,13.66,227.33,37.06,41.91-69.16,41.91-125.79,0-194.94-73.66,24.92-150.07,37.79-227.11,38.22-79.45.4-155.76-12.4-226.81-38.2-41.88,69.12-41.88,125.74,0,194.87,64.48-24.29,139.86-37.06,218.55-37.06Z"/>
  </g>
  <text class="cls-2-l07sn second-color" transform="translate(128.23 352.34)">
	  <tspan x="0" y="0" id="span_svg_logo_envie.f4f1657a-77ca-44bc-abc1-82f0db20707e_23">NAME TEXT</tspan>	  
  </text>
  <g>
    <path class="second-color" d="m140.63,532.67c0,2.68.1,3.42.47,3.95.4.6,1.11.87,2.45.91v.84h-7.37v-.84c1.27,0,1.98-.27,2.41-.91.47-.64.67-1.94.67-4.52v-13.5c0-3.28-.24-3.62-2.75-3.72v-.8h5.93l13.97,20.04v-13.77c0-3.02-.1-3.99-.5-4.52-.44-.6-1.17-.87-2.55-.94v-.8h7.47v.8c-2.51.13-3.05,1.04-3.05,4.99v18.6h-1.91l-15.25-21.95v16.15Z"/>
    <path class="second-color" d="m174.54,532.97c-.4,1.07-.64,2.11-.64,2.75,0,1.21.87,1.74,2.81,1.81v.84h-7.84v-.84c1.91,0,3.02-1.17,4.29-4.56l7.14-18.9,2.08-.23,7.1,20.24c.94,2.75,1.57,3.38,3.52,3.45v.84h-8.64v-.84c1.71-.07,2.41-.47,2.41-1.44,0-.4-.13-1.07-.4-1.91l-1.41-4.22h-9.35l-1.07,3.02Zm5.9-15.98l-4.36,11.73h8.44l-4.09-11.73Z"/>
    <path class="second-color" d="m201.44,537.53c2.71-.07,2.92-.33,2.92-3.42v-15.78c0-3.12-.2-3.32-2.92-3.45v-.8h8.91v.8c-2.75.13-2.95.33-2.95,3.45v15.78c0,3.08.23,3.35,2.95,3.42v.84h-8.91v-.84Z"/>
    <path class="second-color" d="m219.86,537.56c2.68-.1,2.92-.33,2.92-3.42v-15.82c0-3.12-.2-3.32-2.92-3.42v-.84h8.91v.84c-2.75.1-2.95.3-2.95,3.42v19.03h4.72c4.02,0,5.46-1.31,6.43-5.8l1.04.13-.64,6.67h-17.52v-.8Z"/>
    <path class="second-color" d="m288.05,524.63v.84c-1.01.07-1.44.2-1.91.5-.34.2-.64.67-.94,1.31q-.07.13-.8,1.94c-.4,1.01-1.34,2.68-2.04,3.69l2.31,2.35c1.81,1.81,2.58,2.25,4.02,2.28v.84h-5.13l-3.05-3.35c-2.65,2.68-5.06,3.82-8.24,3.82-2.21,0-4.22-.64-5.5-1.71-1.17-1-1.91-2.81-1.91-4.69,0-3.35,1.84-5.56,6.23-7.37-2.34-2.45-3.25-4.09-3.25-6,0-3.12,2.71-5.36,6.47-5.36,1.81,0,3.58.57,4.76,1.54.97.77,1.57,2.08,1.57,3.38,0,2.48-1.91,4.32-6.2,6l7.21,7.57c1.24-1.91,2.04-4.02,2.04-5.43,0-.91-.6-1.21-2.38-1.31v-.84h6.74Zm-16.29,1.14c-1.04.47-1.58.87-2.18,1.61-1,1.24-1.61,2.92-1.61,4.59,0,3.38,2.14,5.66,5.29,5.66,2.48,0,4.76-1.17,6.53-3.35l-8.04-8.51Zm6.57-7.34c0-2.38-1.51-3.89-3.95-3.89-2.28,0-3.79,1.51-3.79,3.79,0,1.37.44,2.41,1.64,3.89.4.54,1.47,1.71,1.51,1.71,3.35-1.44,4.59-2.95,4.59-5.5Z"/>
    <path class="second-color" d="m316.52,531.66h1.11c.13,2.08.47,3.15,1.37,4.22,1.07,1.24,2.81,1.91,5.03,1.91,3.05,0,4.86-1.61,4.86-4.36s-1.24-3.92-6.23-6.33c-2.85-1.37-3.89-2.01-4.83-3.02-.97-1.04-1.47-2.35-1.47-3.95,0-1.98.74-3.65,2.11-4.86,1.27-1.11,2.78-1.61,4.79-1.61,1.27,0,1.84.07,3.95.57.5.1.91.17,1.24.17.5,0,1.11-.17,2.01-.5l-.2,6.6h-1.11c-.13-1.64-.4-2.61-.94-3.52-.94-1.54-2.65-2.38-4.83-2.38-1.61,0-2.75.47-3.55,1.41-.6.77-.97,1.81-.97,2.92,0,2.21,1.07,3.32,5.06,5.19,4.19,1.98,5.76,3.08,6.7,4.56.67,1.04.94,2.14.94,3.69,0,1.98-.64,3.48-1.91,4.56-1.41,1.24-3.25,1.84-5.46,1.84-1.31,0-2.14-.1-4.49-.57-.4-.07-.77-.1-1.11-.1-.54,0-1.14.1-2.31.33l.24-6.77Z"/>
    <path class="second-color" d="m346.74,534.11c0,3.08.2,3.35,2.81,3.42v.84h-8.38v-.84c2.38-.07,2.58-.3,2.58-3.42v-15.78c0-3.12-.17-3.35-2.58-3.45v-.8h9.21c2.41,0,4.42.33,5.66.91,2.21,1.04,3.32,2.98,3.32,5.83,0,3.22-1.31,5.26-4.05,6.23-1.37.5-3.82.8-6.4.8h-2.18v6.27Zm2.38-7.27c2.61,0,4.42-.47,5.46-1.41.97-.9,1.54-2.51,1.54-4.49,0-3.92-2.11-5.86-6.37-5.86h-3.02v11.76h2.38Z"/>
    <path class="second-color" d="m370.26,532.97c-.4,1.07-.64,2.11-.64,2.75,0,1.21.87,1.74,2.81,1.81v.84h-7.84v-.84c1.91,0,3.02-1.17,4.29-4.56l7.14-18.9,2.08-.23,7.1,20.24c.94,2.75,1.58,3.38,3.52,3.45v.84h-8.65v-.84c1.71-.07,2.41-.47,2.41-1.44,0-.4-.13-1.07-.4-1.91l-1.41-4.22h-9.35l-1.07,3.02Zm5.9-15.98l-4.36,11.73h8.44l-4.09-11.73Z"/>
    <path class="second-color" d="m415.76,531.66h1.11c.13,2.08.47,3.15,1.37,4.22,1.07,1.24,2.82,1.91,5.03,1.91,3.05,0,4.86-1.61,4.86-4.36s-1.24-3.92-6.23-6.33c-2.85-1.37-3.89-2.01-4.83-3.02-.97-1.04-1.47-2.35-1.47-3.95,0-1.98.74-3.65,2.11-4.86,1.27-1.11,2.78-1.61,4.79-1.61,1.27,0,1.84.07,3.95.57.5.1.9.17,1.24.17.5,0,1.11-.17,2.01-.5l-.2,6.6h-1.11c-.13-1.64-.4-2.61-.94-3.52-.94-1.54-2.65-2.38-4.83-2.38-1.61,0-2.75.47-3.55,1.41-.6.77-.97,1.81-.97,2.92,0,2.21,1.07,3.32,5.06,5.19,4.19,1.98,5.76,3.08,6.7,4.56.67,1.04.94,2.14.94,3.69,0,1.98-.64,3.48-1.91,4.56-1.41,1.24-3.25,1.84-5.46,1.84-1.31,0-2.14-.1-4.49-.57-.4-.07-.77-.1-1.11-.1-.54,0-1.14.1-2.31.33l.23-6.77Z"/>
    <path class="second-color" d="m445.11,532.97c-.4,1.07-.64,2.11-.64,2.75,0,1.21.87,1.74,2.81,1.81v.84h-7.84v-.84c1.91,0,3.02-1.17,4.29-4.56l7.14-18.9,2.08-.23,7.1,20.24c.94,2.75,1.58,3.38,3.52,3.45v.84h-8.65v-.84c1.71-.07,2.41-.47,2.41-1.44,0-.4-.13-1.07-.4-1.91l-1.41-4.22h-9.35l-1.07,3.02Zm5.9-15.98l-4.36,11.73h8.44l-4.09-11.73Z"/>
    <path class="second-color" d="m471.94,537.56c2.68-.1,2.92-.33,2.92-3.42v-15.82c0-3.12-.2-3.32-2.92-3.42v-.84h8.91v.84c-2.75.1-2.95.3-2.95,3.42v19.03h4.72c4.02,0,5.46-1.31,6.43-5.8l1.04.13-.64,6.67h-17.52v-.8Z"/>
    <path class="second-color" d="m501.86,517.42c2.01-2.51,4.93-3.82,8.54-3.82s6.5,1.27,8.54,3.82c1.84,2.35,2.78,5.26,2.78,8.78s-.94,6.47-2.78,8.75c-2.08,2.58-4.89,3.85-8.54,3.85s-6.57-1.34-8.54-3.85c-1.84-2.35-2.78-5.26-2.78-8.75s.91-6.4,2.78-8.78Zm2.41,16.82c1.34,2.38,3.45,3.65,6.13,3.65s4.79-1.27,6.13-3.65c1.21-2.18,1.81-4.79,1.81-8.04s-.6-5.86-1.81-8.04c-1.34-2.41-3.45-3.65-6.13-3.65s-4.79,1.27-6.13,3.65c-1.21,2.21-1.81,4.86-1.81,8.04s.6,5.8,1.81,8.04Z"/>
    <path class="second-color" d="m535.9,532.67c0,2.68.1,3.42.47,3.95.4.6,1.11.87,2.45.91v.84h-7.37v-.84c1.27,0,1.98-.27,2.41-.91.47-.64.67-1.94.67-4.52v-13.5c0-3.28-.23-3.62-2.75-3.72v-.8h5.93l13.97,20.04v-13.77c0-3.02-.1-3.99-.5-4.52-.44-.6-1.17-.87-2.55-.94v-.8h7.47v.8c-2.51.13-3.05,1.04-3.05,4.99v18.6h-1.91l-15.25-21.95v16.15Z"/>
  </g>
</svg>