<svg id="Layer_2" data-name="Layer 2" xmlns="http://www.w3.org/2000/svg" viewBox="0 0 700 700">
  <defs>
    <style>
      .cls-1-f10 {
        fill: #e8b778;
      }

      .cls-2-f10 {
        fill: none;
      }

      .cls-3-f10 {
        fill: #231f20;
      }

      .cls-4-f10 {
        fill: #010101;
      }
    </style>
  </defs>
  <g id="Layer_1-2" data-name="Layer 1">
    <rect class="cls-2-f10" width="700" height="700"/>
    <g>
      <g>
        <path class="cls-3-f10 first-color" d="m416.16,466.65c-3.6,0-7.25-.74-10.74-2.31l-242.94-109.09c-13.24-5.94-19.17-21.55-13.23-34.78l109.09-242.94c2.88-6.41,8.08-11.32,14.65-13.82,6.57-2.5,13.72-2.29,20.13.59l242.94,109.09c6.41,2.88,11.32,8.08,13.82,14.65s2.29,13.72-.59,20.13l-109.09,242.94c-4.38,9.75-13.99,15.53-24.04,15.53Zm-264.99-145.32c-5.47,12.18,0,26.54,12.17,32.01l242.94,109.09c12.18,5.47,26.54,0,32.01-12.17l109.09-242.94c2.65-5.9,2.84-12.48.54-18.53-2.3-6.05-6.82-10.84-12.72-13.49l-242.94-109.09c-5.9-2.65-12.48-2.84-18.53-.54-6.05,2.3-10.84,6.82-13.49,12.72l-109.09,242.94Z"/>
        <path class="cls-3-f10 first-color" d="m349.27,478.95c-7.03,0-13.64-2.74-18.61-7.71l-188.31-188.31c-10.26-10.26-10.26-26.95,0-37.21L330.67,57.41c4.97-4.97,11.58-7.71,18.61-7.71s13.64,2.74,18.61,7.71l188.31,188.31c10.26,10.26,10.26,26.95,0,37.21l-188.31,188.31c-4.97,4.97-11.58,7.71-18.61,7.71Zm0-427.15c-6.47,0-12.55,2.52-17.12,7.09l-188.31,188.31c-9.44,9.44-9.44,24.81,0,34.25l188.31,188.31c4.57,4.57,10.66,7.09,17.12,7.09s12.55-2.52,17.12-7.09l188.31-188.31c9.44-9.44,9.44-24.81,0-34.25L366.4,58.89c-4.57-4.57-10.66-7.09-17.12-7.09Z"/>
        <g>
          <g>
            <path class="cls-1-f10 first-color" d="m265.36,215.43c4.15,0,10.11-.26,18.14-.65l24.1,68.3,24.1-68.3c6.74.39,12.31.65,16.72.65s10.11-.26,17.24-.65v6.09c-9.85.13-10.76,1.68-10.76,11.02v58.58c0,9.59,1.04,11.27,10.76,11.27v6.09c-9.59-.52-16.72-.78-21.38-.78-5.31,0-12.31.26-21.12.78v-6.09c9.59,0,10.89-1.55,10.89-11.27l.13-63.5h-.65l-28.77,81-9.85-.78-28.12-80.22h-.65l-.78,61.56v1.68c0,8.94,1.17,11.53,10.63,11.53v6.09c-6.74-.39-11.28-.52-13.61-.52-4.02,0-9.2.26-15.42.52v-6.09c11.15-.26,11.79-2.2,11.92-12.44l.91-61.56v-.52c0-5.83-2.07-6.35-11.02-6.35v-6.09c6.48.39,12.05.65,16.59.65Z"/>
            <path class="cls-1-f10 first-color" d="m393.66,215.3c15.29,0,24.49-.52,27.73-.52,21.64,0,32.53,7.26,32.53,22.68,0,13.74-8.42,21.25-25.4,22.81,19.31,1.17,29.29,9.33,29.29,22.81,0,18.14-11.92,24.75-36.16,24.75-8.29,0-17.24-.52-26.7-.52-6.48,0-12.96.26-19.57.52v-6.09c9.59,0,11.02-1.55,11.02-11.27v-58.32c0-9.59-1.3-11.14-11.02-11.27v-6.09c5.96.39,12.05.52,18.27.52Zm13.87,41.99h7.65c11.92,0,17.11-4.67,17.11-18.27,0-14.38-5.7-17.75-18.27-17.75h-6.48v36.03Zm0,44.06h7.91c14.51,0,19.57-4.54,19.57-19.96,0-13.48-5.96-17.88-19.05-17.88h-8.42v37.84Z"/>
          </g>
          <g>
            <path class="cls-3-f10 first-color" d="m265.36,215.43c4.15,0,10.11-.26,18.14-.65l24.1,68.3,24.1-68.3c6.74.39,12.31.65,16.72.65s10.11-.26,17.24-.65v6.09c-9.85.13-10.76,1.68-10.76,11.02v58.58c0,9.59,1.04,11.27,10.76,11.27v6.09c-9.59-.52-16.72-.78-21.38-.78-5.31,0-12.31.26-21.12.78v-6.09c9.59,0,10.89-1.55,10.89-11.27l.13-63.5h-.65l-28.77,81-9.85-.78-28.12-80.22h-.65l-.78,61.56v1.68c0,8.94,1.17,11.53,10.63,11.53v6.09c-6.74-.39-11.28-.52-13.61-.52-4.02,0-9.2.26-15.42.52v-6.09c11.15-.26,11.79-2.2,11.92-12.44l.91-61.56v-.52c0-5.83-2.07-6.35-11.02-6.35v-6.09c6.48.39,12.05.65,16.59.65Z"/>
            <path class="cls-3-f10 first-color" d="m393.66,215.3c15.29,0,24.49-.52,27.73-.52,21.64,0,32.53,7.26,32.53,22.68,0,13.74-8.42,21.25-25.4,22.81,19.31,1.17,29.29,9.33,29.29,22.81,0,18.14-11.92,24.75-36.16,24.75-8.29,0-17.24-.52-26.7-.52-6.48,0-12.96.26-19.57.52v-6.09c9.59,0,11.02-1.55,11.02-11.27v-58.32c0-9.59-1.3-11.14-11.02-11.27v-6.09c5.96.39,12.05.52,18.27.52Zm13.87,41.99h7.65c11.92,0,17.11-4.67,17.11-18.27,0-14.38-5.7-17.75-18.27-17.75h-6.48v36.03Zm0,44.06h7.91c14.51,0,19.57-4.54,19.57-19.96,0-13.48-5.96-17.88-19.05-17.88h-8.42v37.84Z"/>
          </g>
        </g>
        <g>
          <path class="cls-3-f10 first-color" d="m531.69,223.75c.16.05.32.03.47,0,.02,0,.04-.01.07-.02.17-.07.32-.19.41-.36,0-.01.03-.02.03-.03,0-.02,0-.04.01-.05,0-.02.03-.04.03-.06.03-.09.04-.17.04-.26,0-.16-.06-.31-.15-.44-.03-.04-.08-.07-.11-.1-.06-.06-.11-.13-.19-.17-5.36-2.64-10.16-5.52-14.54-8.65,0,0,0-.02,0-.03-1.42-2.36-.5-8.64-.02-10.86.01-.06.02-.13.02-.19,0-.37-.27-.7-.65-.79-.44-.09-.88.19-.97.63-.15.7-1.2,5.82-.59,9.56-3.18-2.41-6.14-4.94-8.92-7.6-.81-.78-1.03-2.01-.53-3.02,1.33-2.69,3.43-8.14,3.29-15.48-.1-5.2-1.33-11.34-4.76-18.12-.12-.24-.36-.41-.64-.44-.27-.03-.55.08-.72.29-9.48,11.48-7.39,22.05-4.21,28.67-4.62-5.43-8.8-11.3-12.89-17.58-.91-1.39-1.04-3.16-.32-4.67,1.33-2.81,3.25-8.1,3.12-15.11-.1-5.2-1.33-11.34-4.76-18.12-.12-.25-.36-.41-.64-.44-.27-.03-.55.08-.72.29-6.87,8.32-7.67,16.16-6.37,22.38-.7-1.16-1.39-2.32-2.1-3.51-2.11-3.52-4.27-7.14-6.53-10.84,0,0,0-.02-.01-.02-.72-1.18-1.45-2.36-2.18-3.55-1.03-1.66-1.19-3.71-.4-5.49,1.3-2.93,2.95-7.96,2.82-14.48-.1-5.2-1.33-11.34-4.76-18.12-.12-.24-.36-.41-.64-.44-.27-.03-.55.08-.72.29-7.05,8.53-7.7,16.57-6.26,22.85-2.11-3.11-4.32-6.26-6.66-9.45-1.21-1.66-1.45-3.83-.62-5.71,1.3-2.93,2.94-7.95,2.81-14.46-.1-5.2-1.33-11.34-4.76-18.12-.12-.24-.36-.41-.64-.44-.27-.03-.55.08-.72.29-8.6,10.4-7.69,20.06-5.07,26.71-2.4-2.97-4.9-5.98-7.56-9.02-.98-1.13-1.96-2.22-2.94-3.29-1.43-1.57-1.84-3.79-1.03-5.76,1.24-3,2.62-7.73,2.5-13.73-.1-5.2-1.33-11.34-4.76-18.12-.12-.25-.36-.41-.64-.44-.27-.03-.55.08-.72.29-9.3,11.26-7.47,21.65-4.39,28.3-1.79-1.77-3.56-3.46-5.32-5.08-2.79-2.57-4.27-6.29-4.01-10.07.07-1.07.19-1.76.19-1.78.09-.44-.22-.87-.67-.94-.45-.08-.87.22-.94.67-.03.18-.6,3.66.01,7.31-1.79-1.54-3.57-3.01-5.32-4.4-.78-.62-1.12-1.61-.86-2.57.47-1.71,1.1-4.76,1.03-8.56-.13-6.45-2.12-15.37-9.83-24.57-.18-.21-.45-.32-.72-.29-.27.03-.51.2-.64.45-6.86,13.77-1.91,23.8,2.84,29.44-.54-.38-1.09-.77-1.62-1.13-.03-.04-.05-.08-.09-.12-2.96-2.54-5.87-4.29-8.68-5.43-7.19-4.2-13.71-7.16-19.33-9.23-1.39-.51-2.6-1.35-3.64-2.4-15.91-16.06-33.65-3.64-33.83-3.51-.2.14-.32.36-.34.61-.02.26.07.48.25.65.12.12,11.94,11.15,32.11,6.08,1.86-.47,3.82-.31,5.62.37,3.89,1.46,8.2,3.35,12.88,5.8-11.9-1.42-20.67,6.78-20.79,6.9-.18.17-.3.4-.25.65.02.24.14.46.34.61.13.1,12.8,8.95,31.36,2.01,2.4-.9,5.07-.56,7.14.94,4.86,3.52,9.93,7.61,15.17,12.35-15.48-7.11-28.06,4.62-28.2,4.76-.18.17-.31.41-.25.65.02.24.14.46.34.61.13.1,12.97,9.06,31.73,1.87,2.06-.79,4.38-.28,5.92,1.3.84.86,1.67,1.73,2.52,2.62.47.57.78.89.8.91.04.04.1.06.15.09,1.89,2.02,3.78,4.09,5.69,6.28,1,1.15,1.97,2.29,2.93,3.42-12.59-8.11-26-.8-26.16-.71-.21.12-.36.33-.4.56-.04.24.02.48.18.67.11.14,11.63,13.61,34.22,9.13,4.83,6.2,9.16,12.26,13.13,18.14-14.78-11.23-30.05-.73-30.22-.61-.2.14-.32.36-.34.61,0,.25.07.48.24.65.13.12,12.74,12.06,34.34,5.7.79,1.3,1.55,2.34,2.14,3.09,1.32,2.08,2.6,4.13,3.85,6.16-3.27-1.04-6.67-1.18-6.85-1.18-.45-.01-.83.34-.84.79-.05.44.34.83.79.84.03,0,1.99.07,4.27.55,2.4.5,4.48,2.01,5.75,4.11,1.61,2.66,3.18,5.28,4.71,7.84.06.1.11.19.17.28-12.93-11.6-28.56-3.73-28.74-3.63-.22.11-.37.31-.42.55-.06.24,0,.49.15.68.09.11,7.39,9.23,22.26,10.68-.72,3.46-1.78,13.17,5.77,22.71-5.61-3.77-11.13-7.67-16.56-11.63-2.89-2.11-3.86-6.06-2.14-9.2.11-.2.18-.32.19-.32.09-.14.14-.31.13-.46,0-.26-.13-.52-.37-.67-.38-.25-.88-.14-1.13.23-.1.15-2.02,3.2-1.64,6.76-1.64-1.21-3.26-2.43-4.88-3.65-2.23-1.68-3.39-4.44-3.01-7.2.22-1.59.31-3.1.28-4.53-.33-16.78-16.09-23.1-16.27-23.17-.21-.08-.44-.07-.64.02-.2.1-.36.27-.43.48-.05.15-3.52,11.01,4.09,22.2h0c-3.22-2.48-6.39-4.92-9.52-7.32-2.24-1.72-3.43-4.5-3.02-7.3.25-1.71.35-3.32.32-4.85-.33-16.78-16.09-23.1-16.27-23.17-.21-.08-.44-.07-.64.02-.2.1-.36.27-.43.48-.05.16-4.14,12.96,6.32,25.1-3.1-1.85-6.24-3.5-9.4-4.95-1.04-.48-1.85-1.35-2.22-2.44-1.15-3.42-3.1-6.61-3.19-6.77-.24-.38-.74-.5-1.13-.27-.38.24-.5.74-.27,1.13.03.04,2.08,3.4,3.16,6.77-1.69-.7-3.38-1.34-5.07-1.94-1.94-.69-3.33-2.4-3.69-4.42-3.75-21.21-24.61-21.83-24.83-21.84-.22,0-.44.08-.6.24-.16.16-.27.39-.24.6,0,.16.56,13.3,14.13,21.12-.61-.12-1.21-.22-1.8-.3-5.55-1.08-10.8-1.72-15.53-2.08-2.43-.19-4.77-.98-6.85-2.25-18.29-11.18-32.57,3.94-32.72,4.1-.16.18-.24.42-.21.66.03.24.17.46.38.58.14.09,13.51,8.24,31.79-.11,2.33-1.07,4.89-1.56,7.44-1.36,2.21.17,4.53.4,6.95.71-12.38,2.58-17.9,14.11-17.97,14.27-.1.22-.1.48,0,.69.11.22.3.38.54.44.16.04,15.77,3.81,30.8-10.36,1.38-1.3,3.35-1.8,5.18-1.28,6.8,1.94,13.81,4.61,20.64,8.27-18.18-5.76-28.94,9.85-29.06,10.03-.13.2-.17.46-.11.69.07.23.24.42.46.52.16.07,15.93,6.67,33.64-6.51,1.2-.9,5.02,1.41,6.85,2.79,3.65,2.76,7.37,5.62,11.13,8.52-13.67-4.58-24.78,5.03-24.92,5.15-.18.16-.28.45-.27.64,0,.24.12.47.31.62.14.11,13.73,10.4,34.17,2.12,1.11-.19,1.6-.03,2.24.35.99.83,2.06,1.64,3.22,2.45,3.9,2.97,7.85,5.95,11.86,8.91-16.87-5.46-27.92,8.52-28.04,8.68-.15.19-.2.43-.15.68.05.24.21.44.43.55.15.08,14.3,7.08,31.89-3.03,1.8-1.04,4.05-.93,5.75.27,2.07,1.46,4.15,2.91,6.24,4.35-3.75-.27-8.12.13-8.35.15-.45.04-.74.41-.74.89.04.45.44.78.89.74.07,0,6.98-.64,10.62.19.14.03,5.45,3.34,7.99,4.98,1.11.9,2.32,1.78,3.63,2.64-15.56-3.56-25.61,9.16-25.73,9.31-.15.19-.2.43-.15.68.05.24.21.44.43.55.15.08,13.88,6.9,31.09-2.57,2.66-1.46,5.92-1.38,8.58.09,2.63,1.46,5.28,2.86,7.95,4.21-3.47.76-7.45,3.01-8.06,3.36-.39.22-.53.72-.3,1.12.23.39.73.52,1.12.3,2.99-1.73,8.45-4.12,10.39-3.21.05.03.11.03.17.04,8.12,3.93,16.36,7.34,24.73,9.95Zm-49.47-23.7c.06.04.11.07.17.11-.1-.03-.21-.06-.32-.09.05,0,.1,0,.15-.02Zm40.78,18.92c-12.61-4.8-24.95-11.19-36.93-18.48-1.79-1.09-2.72-3.18-2.4-5.25.28-1.77.39-3.45.36-5.03-.23-11.62-7.85-18.22-12.58-21.21.48-.01.97-.03,1.46-.06,3.1-.16,6.06,1.39,7.7,4.03,11.63,18.77,23.14,34.29,42.39,45.99Z"/>
          <path class="cls-3-f10 first-color" d="m531.69,223.75c.16.05.32.03.47,0,.02,0,.04-.01.07-.02.17-.07.32-.19.41-.36,0-.01.03-.02.03-.03,0-.02,0-.04.01-.05,0-.02.03-.04.03-.06.03-.09.04-.17.04-.26,0-.16-.06-.31-.15-.44-.03-.04-.08-.07-.11-.1-.06-.06-.11-.13-.19-.17-5.36-2.64-10.16-5.52-14.54-8.65,0,0,0-.02,0-.03-1.42-2.36-.5-8.64-.02-10.86.01-.06.02-.13.02-.19,0-.37-.27-.7-.65-.79-.44-.09-.88.19-.97.63-.15.7-1.2,5.82-.59,9.56-3.18-2.41-6.14-4.94-8.92-7.6-.81-.78-1.03-2.01-.53-3.02,1.33-2.69,3.43-8.14,3.29-15.48-.1-5.2-1.33-11.34-4.76-18.12-.12-.24-.36-.41-.64-.44-.27-.03-.55.08-.72.29-9.48,11.48-7.39,22.05-4.21,28.67-4.62-5.43-8.8-11.3-12.89-17.58-.91-1.39-1.04-3.16-.32-4.67,1.33-2.81,3.25-8.1,3.12-15.11-.1-5.2-1.33-11.34-4.76-18.12-.12-.25-.36-.41-.64-.44-.27-.03-.55.08-.72.29-6.87,8.32-7.67,16.16-6.37,22.38-.7-1.16-1.39-2.32-2.1-3.51-2.11-3.52-4.27-7.14-6.53-10.84,0,0,0-.02-.01-.02-.72-1.18-1.45-2.36-2.18-3.55-1.03-1.66-1.19-3.71-.4-5.49,1.3-2.93,2.95-7.96,2.82-14.48-.1-5.2-1.33-11.34-4.76-18.12-.12-.24-.36-.41-.64-.44-.27-.03-.55.08-.72.29-7.05,8.53-7.7,16.57-6.26,22.85-2.11-3.11-4.32-6.26-6.66-9.45-1.21-1.66-1.45-3.83-.62-5.71,1.3-2.93,2.94-7.95,2.81-14.46-.1-5.2-1.33-11.34-4.76-18.12-.12-.24-.36-.41-.64-.44-.27-.03-.55.08-.72.29-8.6,10.4-7.69,20.06-5.07,26.71-2.4-2.97-4.9-5.98-7.56-9.02-.98-1.13-1.96-2.22-2.94-3.29-1.43-1.57-1.84-3.79-1.03-5.76,1.24-3,2.62-7.73,2.5-13.73-.1-5.2-1.33-11.34-4.76-18.12-.12-.25-.36-.41-.64-.44-.27-.03-.55.08-.72.29-9.3,11.26-7.47,21.65-4.39,28.3-1.79-1.77-3.56-3.46-5.32-5.08-2.79-2.57-4.27-6.29-4.01-10.07.07-1.07.19-1.76.19-1.78.09-.44-.22-.87-.67-.94-.45-.08-.87.22-.94.67-.03.18-.6,3.66.01,7.31-1.79-1.54-3.57-3.01-5.32-4.4-.78-.62-1.12-1.61-.86-2.57.47-1.71,1.1-4.76,1.03-8.56-.13-6.45-2.12-15.37-9.83-24.57-.18-.21-.45-.32-.72-.29-.27.03-.51.2-.64.45-6.86,13.77-1.91,23.8,2.84,29.44-.54-.38-1.09-.77-1.62-1.13-.03-.04-.05-.08-.09-.12-2.96-2.54-5.87-4.29-8.68-5.43-7.19-4.2-13.71-7.16-19.33-9.23-1.39-.51-2.6-1.35-3.64-2.4-15.91-16.06-33.65-3.64-33.83-3.51-.2.14-.32.36-.34.61-.02.26.07.48.25.65.12.12,11.94,11.15,32.11,6.08,1.86-.47,3.82-.31,5.62.37,3.89,1.46,8.2,3.35,12.88,5.8-11.9-1.42-20.67,6.78-20.79,6.9-.18.17-.3.4-.25.65.02.24.14.46.34.61.13.1,12.8,8.95,31.36,2.01,2.4-.9,5.07-.56,7.14.94,4.86,3.52,9.93,7.61,15.17,12.35-15.48-7.11-28.06,4.62-28.2,4.76-.18.17-.31.41-.25.65.02.24.14.46.34.61.13.1,12.97,9.06,31.73,1.87,2.06-.79,4.38-.28,5.92,1.3.84.86,1.67,1.73,2.52,2.62.47.57.78.89.8.91.04.04.1.06.15.09,1.89,2.02,3.78,4.09,5.69,6.28,1,1.15,1.97,2.29,2.93,3.42-12.59-8.11-26-.8-26.16-.71-.21.12-.36.33-.4.56-.04.24.02.48.18.67.11.14,11.63,13.61,34.22,9.13,4.83,6.2,9.16,12.26,13.13,18.14-14.78-11.23-30.05-.73-30.22-.61-.2.14-.32.36-.34.61,0,.25.07.48.24.65.13.12,12.74,12.06,34.34,5.7.79,1.3,1.55,2.34,2.14,3.09,1.32,2.08,2.6,4.13,3.85,6.16-3.27-1.04-6.67-1.18-6.85-1.18-.45-.01-.83.34-.84.79-.05.44.34.83.79.84.03,0,1.99.07,4.27.55,2.4.5,4.48,2.01,5.75,4.11,1.61,2.66,3.18,5.28,4.71,7.84.06.1.11.19.17.28-12.93-11.6-28.56-3.73-28.74-3.63-.22.11-.37.31-.42.55-.06.24,0,.49.15.68.09.11,7.39,9.23,22.26,10.68-.72,3.46-1.78,13.17,5.77,22.71-5.61-3.77-11.13-7.67-16.56-11.63-2.89-2.11-3.86-6.06-2.14-9.2.11-.2.18-.32.19-.32.09-.14.14-.31.13-.46,0-.26-.13-.52-.37-.67-.38-.25-.88-.14-1.13.23-.1.15-2.02,3.2-1.64,6.76-1.64-1.21-3.26-2.43-4.88-3.65-2.23-1.68-3.39-4.44-3.01-7.2.22-1.59.31-3.1.28-4.53-.33-16.78-16.09-23.1-16.27-23.17-.21-.08-.44-.07-.64.02-.2.1-.36.27-.43.48-.05.15-3.52,11.01,4.09,22.2h0c-3.22-2.48-6.39-4.92-9.52-7.32-2.24-1.72-3.43-4.5-3.02-7.3.25-1.71.35-3.32.32-4.85-.33-16.78-16.09-23.1-16.27-23.17-.21-.08-.44-.07-.64.02-.2.1-.36.27-.43.48-.05.16-4.14,12.96,6.32,25.1-3.1-1.85-6.24-3.5-9.4-4.95-1.04-.48-1.85-1.35-2.22-2.44-1.15-3.42-3.1-6.61-3.19-6.77-.24-.38-.74-.5-1.13-.27-.38.24-.5.74-.27,1.13.03.04,2.08,3.4,3.16,6.77-1.69-.7-3.38-1.34-5.07-1.94-1.94-.69-3.33-2.4-3.69-4.42-3.75-21.21-24.61-21.83-24.83-21.84-.22,0-.44.08-.6.24-.16.16-.27.39-.24.6,0,.16.56,13.3,14.13,21.12-.61-.12-1.21-.22-1.8-.3-5.55-1.08-10.8-1.72-15.53-2.08-2.43-.19-4.77-.98-6.85-2.25-18.29-11.18-32.57,3.94-32.72,4.1-.16.18-.24.42-.21.66.03.24.17.46.38.58.14.09,13.51,8.24,31.79-.11,2.33-1.07,4.89-1.56,7.44-1.36,2.21.17,4.53.4,6.95.71-12.38,2.58-17.9,14.11-17.97,14.27-.1.22-.1.48,0,.69.11.22.3.38.54.44.16.04,15.77,3.81,30.8-10.36,1.38-1.3,3.35-1.8,5.18-1.28,6.8,1.94,13.81,4.61,20.64,8.27-18.18-5.76-28.94,9.85-29.06,10.03-.13.2-.17.46-.11.69.07.23.24.42.46.52.16.07,15.93,6.67,33.64-6.51,1.2-.9,5.02,1.41,6.85,2.79,3.65,2.76,7.37,5.62,11.13,8.52-13.67-4.58-24.78,5.03-24.92,5.15-.18.16-.28.45-.27.64,0,.24.12.47.31.62.14.11,13.73,10.4,34.17,2.12,1.11-.19,1.6-.03,2.24.35.99.83,2.06,1.64,3.22,2.45,3.9,2.97,7.85,5.95,11.86,8.91-16.87-5.46-27.92,8.52-28.04,8.68-.15.19-.2.43-.15.68.05.24.21.44.43.55.15.08,14.3,7.08,31.89-3.03,1.8-1.04,4.05-.93,5.75.27,2.07,1.46,4.15,2.91,6.24,4.35-3.75-.27-8.12.13-8.35.15-.45.04-.74.41-.74.89.04.45.44.78.89.74.07,0,6.98-.64,10.62.19.14.03,5.45,3.34,7.99,4.98,1.11.9,2.32,1.78,3.63,2.64-15.56-3.56-25.61,9.16-25.73,9.31-.15.19-.2.43-.15.68.05.24.21.44.43.55.15.08,13.88,6.9,31.09-2.57,2.66-1.46,5.92-1.38,8.58.09,2.63,1.46,5.28,2.86,7.95,4.21-3.47.76-7.45,3.01-8.06,3.36-.39.22-.53.72-.3,1.12.23.39.73.52,1.12.3,2.99-1.73,8.45-4.12,10.39-3.21.05.03.11.03.17.04,8.12,3.93,16.36,7.34,24.73,9.95Zm-183.62-94.28c-15.04,7.1-26.59,2.57-29.84.96,3.11-2.91,15.28-12.51,30.62-2.57-9.08-.24-15,.48-15.16.5-.45.06-9.16.93-9.11,1.46.06.45,7.14-.08,8.97-.22.16-.01,6-.31,14.52-.13Zm17.48-14.72c-.33.31,4.65,5.88,4.96,6.21.36.39,8.2,8.7,11.54,11.58-17.87-5.21-20.83-18.61-21.29-22.2,4.01.34,19.5,2.89,22.38,20.98-3.21-2.75-11.48-11.13-11.57-11.23-.31-.33-5.69-5.66-6.02-5.34Zm38.79,30.59c-5.16.34-17.47,3.35-18.05,3.48-.44.1-6.41,1.65-6.29,2.1.1.44,6.13-.99,6.57-1.09,3.88-.86,13.66-2.57,17.78-2.86-13.87,9.52-26.13,6.79-29.62,5.7,2.62-3.34,13.08-14.57,29.61-7.32Zm-.41-21.01c-.42.16,1.54,5,1.71,5.42.24.61,5.53,14.01,8.4,18.25-15.39-11.19-13.4-24.77-12.54-28.33,3.62,1.69,17.26,9.37,13.81,27.3-2.25-3.38-6.95-13.4-8.55-17.47-.17-.42-2.4-5.34-2.82-5.18Zm27.84,39.97c-4.8-.43-14-1.43-18.69-1.59-1.75-.06-7.01.39-6.89,1.16.09.55,5.06.45,6.75.47,4.92.07,13.92,1.1,19.62,1.59-16.25,6.24-27.72.36-30.87-1.61,3.34-2.55,16.05-10.67,30.07-.02Zm7.85,21.15l15.51-1.46c-14.43,8.56-26.47,5.04-29.87,3.72,2.83-3.16,14.01-13.69,30.02-5.38l-15.85,2.05c-.45.04-8.26,1.18-8.17,1.7.04.45,7.91-.59,8.36-.63Zm-108.78-140.22c3.61-2.2,17.24-9.03,30.15,3.32-10.23-3.1-16.29-2.86-16.45-2.86-.45.01-3.24.1-3.23.55,0,0,0,0,0,0,.01.45,2.82.49,3.27.48.15,0,6.11.37,16.19,3.45-16.42,4.18-27.03-2.7-29.93-4.95Zm29.82,20.14c2.82-2.33,12.6-9.14,24.58-4.18,1.67.98,3.36,2,5.09,3.12-6.84-.85-18.35-.49-18.9-.49-.45,0-3.51.18-3.5.63h0c0,.46,3,.56,3.45.55.14,0,13.11.07,19.65,1.04-15.7,6.47-27.19,1.15-30.37-.68Zm55.85,22.03c-15.65,6.42-27.1,1.11-30.28-.72,3.27-2.69,15.81-11.38,30.34-.92-5.33-.58-19.87-.45-20.53-.46-.45,0-4.6.31-4.61.77-.02.44,4.05.51,4.5.52.16,0,15.49.24,20.58.82Zm8.26-21.37c-.45.02-.63,3.45-.65,3.85.03.68.15,16.03.68,21.08-3.49-4.64-10.2-16.63.5-30.52,6.94,14.63,3.28,25.92,1.15,30.47-.52-4.81-1.11-20.68-1.12-20.85-.02-.45-.1-4.05-.55-4.03Zm21.71,48.63c-.19-3.22-1.02-15.94-1.02-16.07-.01-.45-.08-5.37-.53-5.36-.45.01-.6,4.9-.59,5.35t0,0c.01.52.28,11.43.47,15.47-3.54-4.83-9.78-16.64.7-30.25,7.15,15.08,3.06,26.58.97,30.85Zm10.64,21.08c-3.78-1.38-15.53-3.62-16.05-3.73-.44-.1-4.77-.69-4.87-.24-.1.44,3.91,1.37,4.36,1.46.12.03,11.69,2.57,15.69,3.94-16.26,3.87-26.68-3-29.54-5.26,3.65-2.19,17.52-9.01,30.42,3.84Zm4.54-21.07c-.45.02-.56,4.88-.52,5.38.03.6.42,14.34.98,19.49-1.01-1.58-2.02-3.17-3.07-4.77-2.9-5.98-4.78-15.42,3.31-25.93,6.73,14.22,3.47,25.3,1.32,30.09,0,0,0-.01,0-.02-.43-1.71-1.07-14.24-1.28-18.92-.02-.45-.29-5.34-.74-5.32Zm20.55,85.38c.06.04.11.07.17.11-.1-.03-.21-.06-.32-.09.05,0,.1,0,.15-.02Zm-14.21-31.1s.04,0,.05,0c3.7,1.74,17.19,9.44,13.75,27.26l-6.89-13.8c-.2-.41-2.27-4.75-2.67-4.56-.41.2,1.46,4.68,1.65,5.08l6.43,13.98c-.5-.32-1-.63-1.5-.95-13.35-10.81-11.61-23.58-10.83-27.03Zm7.29-3.58c-4.86-1.7-17.45-5.34-18.04-5.52-.43-.13-5.42-1.26-5.56-.83-.14.43,4.66,1.98,5.09,2.11.15.05,14.18,4.41,18.52,5.98-2.43.27-4.71.34-6.84.24-.57,0-2.28-.16-2.65-.2-11.17-1.3-17.68-7.07-19.72-9.19,3.87-1.66,18.22-6.43,29.21,7.42Zm7.1-15.21c-.45.02-.68,5.76-.69,6.25.03.52.42,12.21,1.16,16.86-.37-.49-.77-1.03-1.19-1.69-.05-.08-.09-.15-.14-.23-3.51-5.52-7.77-16.38,1.74-28.72,6.87,14.49,3.34,25.72,1.2,30.35-.72-4.56-1.35-16.31-1.36-16.44-.02-.45-.27-6.4-.72-6.38Zm21.43,50.74c-3.18-3.9-11.5-16.55-.12-31.32,6.69,14.12,3.51,25.14,1.37,29.99-.9-2.98-1.99-12.04-2.29-15.55-.04-.45-.14-6.16-.59-6.12-.45.04-.56,4.31-.58,6.32.12,1.42.94,13.95,2.19,16.65,0,.01.02.02.02.03Zm19.17,18.07c-12.61-4.8-24.95-11.19-36.93-18.48-1.79-1.09-2.72-3.18-2.4-5.25.28-1.77.39-3.45.36-5.03-.23-11.62-7.85-18.22-12.58-21.21.48-.01.97-.03,1.46-.06,3.1-.16,6.06,1.39,7.7,4.03,11.63,18.77,23.14,34.29,42.39,45.99Z"/>
        </g>
        <g>
          <path class="cls-3-f10 first-color" d="m263.29,401.18c-2.07-2.04-6.33-6.57-6.87-7.07-.92-.99-1.83-1.97-2.72-2.95-1.34-1.48-1.64-3.63-.81-5.44,8.51-18.43.26-31.91.17-32.05-.13-.21-.34-.34-.58-.37-.25-.08-.48.04-.66.21-.15.14-12.62,11.98-6.46,27.86-4.43-5.54-8.23-10.88-11.46-15.96-1.34-2.11-1.51-4.74-.49-7.02,8.11-18.16.02-31.38-.07-31.52-.13-.21-.34-.34-.58-.37-.24-.07-.48.04-.66.21-.12.11-8.84,8.38-8.14,20.33-1.97-4.39-3.49-8.45-4.68-12.14-.81-2.52-.78-5.22-.04-7.76,5.59-19.21-4.35-31.23-4.45-31.36-.16-.18-.37-.29-.63-.29-.24,0-.47.11-.62.3-.14.17-13.52,17.02,1.32,33.82,1.15,1.3,1.98,2.85,2.49,4.51,1.72,5.6,4.24,12.09,7.87,19.27.97,2.88,2.53,5.89,4.89,9.01.02.02.05.04.07.06.02.02.04.04.06.06.33.55.69,1.12,1.03,1.68-5.34-5.09-15.06-10.64-29.22-4.62-.26.11-.44.34-.49.61-.05.27.04.55.24.74,8.72,8.26,17.5,10.78,23.94,11.3,3.36.27,6.09-.01,7.84-.31,1.41-.24,2.83.33,3.71,1.47.26.33.5.65.69.92.95,1.32,1.94,2.66,2.96,4.01-3.61-.83-7.12-.48-7.3-.45-.45.05-.77.45-.72.9.05.45.46.79.9.72.05,0,4.95-.52,8.83,1.06,2.32,2.97,4.82,6,7.52,9.09-6.45-3.48-16.72-5.93-28.51,2.67-.22.16-.35.43-.34.7.01.28.17.53.4.67,6.56,3.84,12.62,5.44,17.8,5.85,6.35.51,11.38-.76,14.41-1.86,1.62-.59,3.41-.2,4.61,1.04,1.18,1.22,2.38,2.44,3.63,3.67.14.14.32.22.51.23.23.02.47-.06.65-.24.32-.32.31-.84,0-1.16Z"/>
          <path class="cls-3-f10 first-color" d="m263.29,401.18c-2.07-2.04-6.33-6.57-6.87-7.07-.92-.99-1.83-1.97-2.72-2.95-1.34-1.48-1.64-3.63-.81-5.44,8.51-18.43.26-31.91.17-32.05-.13-.21-.34-.34-.58-.37-.25-.08-.48.04-.66.21-.15.14-12.62,11.98-6.46,27.86-4.43-5.54-8.23-10.88-11.46-15.96-1.34-2.11-1.51-4.74-.49-7.02,8.11-18.16.02-31.38-.07-31.52-.13-.21-.34-.34-.58-.37-.24-.07-.48.04-.66.21-.12.11-8.84,8.38-8.14,20.33-1.97-4.39-3.49-8.45-4.68-12.14-.81-2.52-.78-5.22-.04-7.76,5.59-19.21-4.35-31.23-4.45-31.36-.16-.18-.37-.29-.63-.29-.24,0-.47.11-.62.3-.14.17-13.52,17.02,1.32,33.82,1.15,1.3,1.98,2.85,2.49,4.51,1.72,5.6,4.24,12.09,7.87,19.27.97,2.88,2.53,5.89,4.89,9.01.02.02.05.04.07.06.02.02.04.04.06.06.33.55.69,1.12,1.03,1.68-5.34-5.09-15.06-10.64-29.22-4.62-.26.11-.44.34-.49.61-.05.27.04.55.24.74,8.72,8.26,17.5,10.78,23.94,11.3,3.36.27,6.09-.01,7.84-.31,1.41-.24,2.83.33,3.71,1.47.26.33.5.65.69.92.95,1.32,1.94,2.66,2.96,4.01-3.61-.83-7.12-.48-7.3-.45-.45.05-.77.45-.72.9.05.45.46.79.9.72.05,0,4.95-.52,8.83,1.06,2.32,2.97,4.82,6,7.52,9.09-6.45-3.48-16.72-5.93-28.51,2.67-.22.16-.35.43-.34.7.01.28.17.53.4.67,6.56,3.84,12.62,5.44,17.8,5.85,6.35.51,11.38-.76,14.41-1.86,1.62-.59,3.41-.2,4.61,1.04,1.18,1.22,2.38,2.44,3.63,3.67.14.14.32.22.51.23.23.02.47-.06.65-.24.32-.32.31-.84,0-1.16Zm-11.11-45.72c1.62,3.27,6.2,14.94-1.02,30.07-.1-6.81.32-20.25.33-20.41.01-.45.29-4.1-.25-4.08-.45-.01-.85,3.66-.86,4.11-.02.67-.97,13.99-.85,20.71-9.73-15.21-.25-27.29,2.65-30.4Zm-19.73-26.8c1.63,3.29,6.24,15.05-1.12,30.29-.35-7.23.28-19.47.29-19.61.02-.45.54-5.94.03-5.97-.45-.02-1.3,5.45-1.32,5.91-.03.56-.94,11.74-.65,19.05-1.04-1.85-1.99-3.64-2.88-5.4-4.21-12.26,3.17-21.59,5.67-24.27Zm-28.6,31.94c15.88-6.12,25.41,3.02,29.1,7.82-5.45-2.58-13.12-4.97-13.52-5.1-.42-.14-7.37-1.91-7.51-1.48-.14.43,4.38,1.97,6.81,2.82.1.04,9.04,2.99,14.38,5.66-4.72.78-16.9,1.38-29.27-9.72Z"/>
        </g>
        <path class="cls-3-f10 first-color" d="m272.54,411.37c-1.99-3.3-10.18-17.86-.23-34.34.21-.34.66-.39.94-.09,5.13,5.56,11.51,16.94.24,34.43-.22.34-.74.36-.95,0Z"/>
      </g>
      <g>
        <path class="cls-4-f10 second-color" d="m256.23,471.84c-5.41,3.72-10.81,8.02-16.22,12.91-5.41,4.88-10.73,10.09-15.96,15.62-5.23,5.53-10.35,11.3-15.36,17.3-5.01,6-9.79,11.99-14.36,17.96-4.56,5.98-8.88,11.83-12.94,17.56s-7.8,11.11-11.2,16.14c-3.4,5.03-6.41,9.58-9.04,13.65-2.63,4.07-4.79,7.44-6.47,10.12-.99,1.49-1.81,2.75-2.46,3.79-.65,1.04-1.12,1.76-1.41,2.16-.6.74-1.3,1.39-2.12,1.93-.82.54-1.71,1-2.68,1.38-.97.37-1.96.64-2.97.82-1.02.17-1.97.26-2.86.26-1.44,0-2.7-.24-3.79-.71-1.09-.47-1.66-1.15-1.71-2.05-.05-1.79.22-3.97.82-6.55.59-2.58,1.46-5.38,2.6-8.41,1.09-3.02,2.42-6.31,3.98-9.86,1.56-3.54,3.26-7.2,5.1-10.97,1.83-3.77,3.79-7.6,5.88-11.49s4.19-7.76,6.32-11.61c2.13-3.84,4.26-7.57,6.4-11.2,2.13-3.62,4.19-7.04,6.17-10.27-1.64,2.18-3.37,4.51-5.21,6.99-1.83,2.48-3.75,5.03-5.73,7.66-3.37,4.56-6.89,9.29-10.56,14.17-3.67,4.88-7.32,9.68-10.94,14.39-3.62,4.71-7.15,9.21-10.6,13.5-3.45,4.29-6.66,8.11-9.63,11.46s-5.64,6.12-8,8.33c-2.35,2.21-4.25,3.56-5.69,4.05-1.19.4-2.24.68-3.16.86-.92.17-1.72.26-2.42.26-.94,0-1.72-.14-2.34-.41-.62-.27-1.13-.61-1.52-1-.5-.4-.87-.87-1.12-1.41,1.34-.89,3.3-2.68,5.88-5.36,2.58-2.68,5.57-5.95,8.96-9.82s7.13-8.23,11.2-13.09,8.24-9.93,12.54-15.21c4.29-5.28,8.63-10.66,13.02-16.14,4.39-5.48,8.62-10.81,12.68-15.99,4.07-5.18,7.87-10.05,11.42-14.62,3.54-4.56,6.65-8.59,9.3-12.09,2.65-3.5,4.77-6.3,6.36-8.41,1.59-2.11,2.43-3.28,2.53-3.53.94-1.74,2.12-2.96,3.53-3.68s2.84-1.08,4.28-1.08c.94,0,1.82.16,2.64.48.82.32,1.46.78,1.93,1.38.47.6.73,1.29.78,2.08.05.79-.2,1.66-.74,2.6-3.62,6.05-7.27,12.35-10.94,18.9-3.67,6.55-7.27,13.08-10.79,19.6-3.52,6.52-6.87,12.88-10.04,19.08-3.17,6.2-6.06,11.98-8.67,17.33-2.6,5.36-4.86,10.14-6.77,14.36-1.91,4.22-3.31,7.59-4.2,10.12l-.15.37c1.44-2.18,3.4-5.14,5.88-8.89,2.48-3.74,5.38-8.02,8.7-12.83,3.32-4.81,7.02-10.02,11.08-15.62,4.07-5.6,8.38-11.37,12.94-17.3,4.56-5.93,9.34-11.9,14.32-17.93,4.98-6.03,10.05-11.85,15.21-17.48,5.16-5.63,10.36-10.92,15.62-15.88,5.26-4.96,10.44-9.37,15.55-13.24.45-.3.99-.53,1.64-.71.64-.17,1.29-.26,1.93-.26s1.26.09,1.86.26c.6.17,1.12.45,1.56.82s.76.84.93,1.41c.17.57.14,1.28-.11,2.12l-.67.89Zm-106.67,117.83c.05-.2.12-.5.22-.89.1-.4.16-.75.19-1.08.02-.32.02-.58,0-.78-.03-.2-.14-.22-.33-.07-.65,1.93-.67,2.88-.07,2.83Z"/>
        <path class="cls-4-f10 second-color" d="m213.31,547.34c1.64,0,2.96.2,3.98.59,1.02.39,1.81.91,2.38,1.54.57.64.94,1.35,1.12,2.13.17.79.26,1.54.26,2.28.25-.05.51-.08.78-.08h.86c1.34.1,2.09.61,2.27,1.53.17.92.04,1.95-.41,3.09-.4,1.09-.91,2.15-1.53,3.16-.62,1.02-1.08,1.72-1.38,2.12-.7.79-1.7,1.98-3.01,3.57-1.31,1.59-2.86,3.35-4.65,5.28-.55.99-1.08,1.96-1.6,2.9-.52.94-.93,1.81-1.23,2.6-.45,1.29-.5,2.37-.15,3.24.35.87,1.51,1.33,3.5,1.38,1.19,0,2.62-.51,4.28-1.52,1.66-1.02,3.38-2.31,5.17-3.87,1.79-1.56,3.54-3.27,5.28-5.13,1.74-1.86,3.32-3.59,4.76-5.21,1.44-1.61,2.62-2.99,3.53-4.13.92-1.14,1.45-1.81,1.6-2.01,1.04-1.19,2.23-1.79,3.57-1.79.6,0,1.15.14,1.67.41.52.27.92.64,1.19,1.12.27.47.37,1.03.3,1.67-.07.65-.41,1.34-1,2.08-.64.79-1.62,1.97-2.94,3.53-1.31,1.56-2.88,3.3-4.69,5.21-1.81,1.91-3.82,3.86-6.03,5.84-2.21,1.98-4.49,3.77-6.84,5.36-2.36,1.59-4.76,2.88-7.22,3.87-2.45.99-4.85,1.41-7.18,1.26-1.54-.1-3.01-.63-4.43-1.6s-2.54-2.29-3.38-3.98c-2.53,2.03-5.11,3.73-7.74,5.1-2.63,1.36-5.21,2.14-7.74,2.34-1.34,0-2.7-.22-4.09-.67-1.39-.45-2.58-1.19-3.57-2.23-.99-1.04-1.66-2.43-2.01-4.16-.35-1.73-.17-3.86.52-6.39.79-2.18,1.91-4.43,3.35-6.76,1.44-2.33,3.11-4.62,5.02-6.87,1.91-2.25,4-4.39,6.29-6.42,2.28-2.03,4.61-3.81,6.99-5.35,2.38-1.53,4.77-2.75,7.18-3.64,2.41-.89,4.72-1.36,6.96-1.41Zm-11.08,26.19c1.14-3.07,2.59-5.89,4.35-8.44,1.76-2.55,3.68-4.72,5.76-6.51-.59.35-1.1.68-1.52,1-.42.32-.68.61-.78.86.05-.15.12-.33.22-.56.1-.22.2-.41.3-.56l1.04-2.23c.25-.64.33-1.24.26-1.79-.07-.54-.53-.87-1.38-.97-1.49-.1-3.2.48-5.13,1.75s-3.84,2.86-5.73,4.8c-1.89,1.93-3.61,4.05-5.17,6.36-1.56,2.31-2.71,4.43-3.46,6.36-.4,1.04-.74,2.15-1.04,3.31s-.46,2.23-.48,3.2c-.03.97.15,1.77.52,2.42s1,.99,1.9,1.04c1.54-.2,3.1-.88,4.69-2.05,1.59-1.16,3.12-2.54,4.61-4.13.05-1.19.4-2.48,1.04-3.87Z"/>
        <path class="cls-4-f10 second-color" d="m225.96,579.63c.6-1.69,1.39-3.45,2.38-5.28.99-1.83,2.05-3.67,3.16-5.5,1.12-1.83,2.26-3.6,3.42-5.28,1.16-1.69,2.26-3.21,3.27-4.57s1.88-2.49,2.6-3.38c.72-.89,1.2-1.49,1.45-1.79.3-.25.75-.5,1.38-.74.62-.25,1.33-.47,2.12-.67.79-.2,1.61-.36,2.45-.48.84-.12,1.64-.19,2.38-.19.89,0,1.67.06,2.34.19.67.12,1.16.33,1.49.63.32.3.42.69.3,1.19-.12.5-.56,1.12-1.3,1.86-.79.79-1.7,1.82-2.72,3.09s-2.04,2.69-3.09,4.28c-1.04,1.59-2.08,3.25-3.12,4.98-1.04,1.74-2.02,3.43-2.94,5.1-.92,1.66-1.74,3.24-2.46,4.72-.72,1.49-1.28,2.78-1.67,3.87-.5,1.34-.72,2.01-.67,2.01.35.2,1.4-.35,3.16-1.64,1.76-1.29,3.88-3.04,6.36-5.25,2.48-2.21,5.17-4.7,8.07-7.48s5.67-5.55,8.29-8.33c.84-.89,1.92-1.55,3.24-1.97,1.31-.42,2.59-.63,3.83-.63.89,0,1.7.1,2.42.3s1.28.47,1.67.82c.4.35.6.79.6,1.34s-.3,1.14-.89,1.79c-.3.35-.7.91-1.19,1.67-.5.77-1,1.66-1.52,2.68-.52,1.02-1.04,2.11-1.56,3.27-.52,1.17-.98,2.32-1.38,3.46-.35.89-.63,1.76-.86,2.6-.22.84-.37,1.59-.45,2.23-.08.65-.04,1.18.11,1.6.15.42.42.68.82.78.3.1,1.26-.37,2.9-1.41,1.64-1.04,3.65-2.55,6.03-4.54,2.38-1.98,5-4.4,7.85-7.25,2.85-2.85,5.67-6.09,8.44-9.71.35-.5.97-.86,1.86-1.08.89-.22,1.86-.33,2.9-.33.94,0,1.91.09,2.9.26.99.17,1.8.46,2.42.86.62.4,1,.89,1.15,1.49.15.59-.12,1.29-.82,2.08-.69.79-1.54,1.87-2.53,3.24-.99,1.37-2.01,2.86-3.05,4.5s-2.03,3.32-2.98,5.06c-.94,1.74-1.69,3.37-2.23,4.91-.6,1.64-.84,2.99-.74,4.05.1,1.07.79,1.55,2.08,1.45,1.14-.05,2.52-.41,4.13-1.08,1.61-.67,3.35-1.56,5.21-2.68,1.86-1.12,3.82-2.42,5.88-3.91,2.06-1.49,4.12-3.07,6.17-4.76,2.06-1.69,4.05-3.43,5.99-5.24,1.93-1.81,3.74-3.58,5.43-5.32.64-.69,1.4-1.09,2.27-1.19.87-.1,1.61.01,2.23.33.62.32,1.04.79,1.27,1.41.22.62.04,1.28-.56,1.97-2.93,3.27-6.27,6.55-10.04,9.82-3.77,3.27-7.62,6.24-11.57,8.89-3.94,2.65-7.79,4.81-11.53,6.47-3.74,1.66-7.03,2.52-9.86,2.57-2.33-.2-4.1-.96-5.32-2.27-1.22-1.31-2.07-2.71-2.57-4.2-.59-1.74-.89-3.69-.89-5.88-1.09,1.04-2.42,2.21-3.98,3.5-1.56,1.29-3.24,2.5-5.02,3.64-1.79,1.14-3.61,2.1-5.47,2.86-1.86.77-3.66,1.15-5.39,1.15-2.03,0-3.56-.38-4.57-1.15-1.02-.77-1.69-1.75-2.01-2.94-.32-1.19-.38-2.48-.19-3.87.2-1.39.5-2.7.89-3.94-1.24,1.19-2.7,2.49-4.39,3.91-1.69,1.41-3.52,2.74-5.5,3.98-1.98,1.24-4.04,2.27-6.17,3.09-2.13.82-4.27,1.23-6.4,1.23-.55,0-1.05-.03-1.53-.07-.47-.05-.91-.12-1.3-.22-2.38-.55-3.71-1.8-3.98-3.76-.27-1.96.09-4.35,1.08-7.18Z"/>
        <path class="cls-4-f10 second-color" d="m350.93,547.64c1.93,0,3.38.36,4.35,1.08s1.6,1.6,1.9,2.64c.3,1.04.35,2.11.15,3.2-.2,1.09-.47,1.98-.82,2.68-1.49,2.63-3.35,4.95-5.58,6.96s-4.61,3.76-7.14,5.24c-2.53,1.49-5.1,2.71-7.7,3.68-2.6.97-5,1.72-7.18,2.27-.89,3.37-.88,5.75.04,7.14.92,1.39,2.44,2.01,4.58,1.86,1.98-.1,4.13-.69,6.43-1.79,2.31-1.09,4.61-2.41,6.92-3.94s4.54-3.21,6.7-5.02c2.16-1.81,4.09-3.51,5.8-5.1,1.71-1.59,3.11-2.95,4.2-4.09,1.09-1.14,1.74-1.83,1.93-2.08v.07c.69-.89,1.49-1.56,2.38-2.01s1.74-.67,2.53-.67c.54,0,1.03.1,1.45.3.42.2.72.51.89.93.17.42.19.96.04,1.6-.15.65-.52,1.41-1.12,2.31-.2.25-.94,1.07-2.23,2.46-1.29,1.39-3.01,3.06-5.17,5.02-2.16,1.96-4.64,4.04-7.44,6.25-2.8,2.21-5.8,4.27-9,6.17-3.2,1.91-6.5,3.52-9.89,4.83-3.4,1.31-6.76,2.05-10.08,2.2-1.44-.05-3.01-.45-4.72-1.19-1.71-.74-3.16-1.86-4.35-3.35-1.19-1.49-1.92-3.38-2.2-5.69-.27-2.31.26-5.07,1.6-8.29.64-1.34,1.54-2.89,2.68-4.65,1.14-1.76,2.48-3.58,4.02-5.47,1.54-1.88,3.27-3.76,5.21-5.62,1.93-1.86,4-3.51,6.21-4.95s4.54-2.62,6.99-3.53c2.45-.92,5-1.4,7.62-1.45Zm-4.32,6.99c-.89.05-1.95.5-3.16,1.34-1.22.84-2.49,1.92-3.83,3.24-1.34,1.31-2.65,2.79-3.94,4.43-1.29,1.64-2.43,3.22-3.42,4.76,1.19-.3,2.42-.72,3.68-1.26,1.26-.55,2.53-1.25,3.79-2.12,1.27-.87,2.48-1.91,3.65-3.12,1.17-1.21,2.24-2.64,3.24-4.28,1.09-2.08,1.09-3.07,0-2.98Z"/>
        <path class="cls-4-f10 second-color" d="m473.74,478.39c.05.2,0,.59-.15,1.19,4.71-.25,9.45-.48,14.21-.71,4.76-.22,9.36-.45,13.8-.67,4.44-.22,8.63-.42,12.57-.59,3.94-.17,7.44-.33,10.49-.48s5.58-.26,7.59-.33c2.01-.07,3.28-.11,3.83-.11,1.49,0,2.44.32,2.86.97.42.65.43,1.46.04,2.46-.25.74-.73,1.54-1.45,2.38-.72.84-1.5,1.62-2.34,2.34-.84.72-1.69,1.31-2.53,1.79-.84.47-1.54.71-2.08.71h-26.82c-5.18,0-10.7.01-16.55.04-5.85.03-11.6.06-17.26.11-1.84,3.42-4.23,7.59-7.18,12.5-2.95,4.91-6.21,10.23-9.78,15.96-3.57,5.73-7.36,11.72-11.38,17.96-4.02,6.25-8.03,12.44-12.05,18.56-4.02,6.13-7.92,12.05-11.72,17.78-3.79,5.73-7.28,10.92-10.45,15.58-3.17,4.66-5.9,8.63-8.18,11.9-2.28,3.27-3.92,5.55-4.91,6.84-.4.45-1.05.83-1.97,1.15-.92.32-1.87.48-2.86.48-1.24,0-2.27-.37-3.09-1.12-.82-.74-.98-1.81-.48-3.2.79-1.83,1.75-3.86,2.86-6.06,1.12-2.21,2.32-4.54,3.61-6.99,1.29-2.45,2.67-5.01,4.13-7.66,1.46-2.65,2.96-5.37,4.5-8.15,2.43-4.36,4.91-8.86,7.44-13.5,2.53-4.64,4.98-9.26,7.36-13.87,2.38-4.61,4.61-9.16,6.7-13.65,2.08-4.49,3.87-8.76,5.36-12.83,1.54-4.21,2.68-8.12,3.42-11.72.74-3.59.93-6.74.56-9.45-.37-2.7-1.38-4.86-3.01-6.47s-4.04-2.52-7.21-2.72c-1.34-.1-2.21-.45-2.6-1.05-.4-.6-.47-1.3-.22-2.11.35-.9,1.1-1.77,2.27-2.59,1.17-.83,2.44-1.24,3.83-1.24.35,0,1.53-.05,3.53-.15,2.01-.1,4.62-.22,7.85-.37,3.22-.15,6.96-.32,11.2-.52,4.24-.2,8.74-.42,13.5-.66.05-.1.11-.2.19-.29s.11-.17.11-.22c.74-1.57,1.64-2.67,2.68-3.31,1.04-.64,2.13-.96,3.27-.96.79,0,1.56.14,2.31.41s1.42.58,2.04.93c.62.35,1.13.7,1.53,1.04.4.35.62.57.67.67Zm-56.24,75.5c2.23-3.67,4.56-7.53,6.99-11.57s4.87-8.12,7.33-12.24c2.45-4.12,4.87-8.19,7.25-12.24,2.38-4.04,4.65-7.91,6.81-11.6,2.16-3.69,4.15-7.12,5.99-10.27,1.83-3.15,3.45-5.91,4.84-8.29-3.97.1-7.6.2-10.9.3-3.3.1-6.14.2-8.52.3,1.19,1.09,2.01,2.53,2.46,4.31s.57,3.86.37,6.21c-.2,2.36-.66,4.93-1.38,7.74-.72,2.8-1.65,5.74-2.79,8.81-1.09,3.08-2.36,6.24-3.79,9.49-1.44,3.25-2.96,6.52-4.57,9.82-1.61,3.3-3.27,6.57-4.98,9.82s-3.41,6.39-5.1,9.41Z"/>
        <path class="cls-4-f10 second-color" d="m458.87,547.64c1.93,0,3.38.36,4.35,1.08s1.6,1.6,1.9,2.64c.3,1.04.35,2.11.15,3.2-.2,1.09-.47,1.98-.82,2.68-1.49,2.63-3.35,4.95-5.58,6.96s-4.61,3.76-7.14,5.24c-2.53,1.49-5.1,2.71-7.7,3.68-2.6.97-5,1.72-7.18,2.27-.89,3.37-.88,5.75.04,7.14.92,1.39,2.44,2.01,4.58,1.86,1.98-.1,4.13-.69,6.43-1.79,2.31-1.09,4.61-2.41,6.92-3.94s4.54-3.21,6.7-5.02c2.16-1.81,4.09-3.51,5.8-5.1,1.71-1.59,3.11-2.95,4.2-4.09,1.09-1.14,1.74-1.83,1.93-2.08v.07c.69-.89,1.49-1.56,2.38-2.01s1.74-.67,2.53-.67c.54,0,1.03.1,1.45.3.42.2.72.51.89.93.17.42.19.96.04,1.6-.15.65-.52,1.41-1.12,2.31-.2.25-.94,1.07-2.23,2.46-1.29,1.39-3.01,3.06-5.17,5.02-2.16,1.96-4.64,4.04-7.44,6.25-2.8,2.21-5.8,4.27-9,6.17-3.2,1.91-6.5,3.52-9.89,4.83-3.4,1.31-6.76,2.05-10.08,2.2-1.44-.05-3.01-.45-4.72-1.19-1.71-.74-3.16-1.86-4.35-3.35-1.19-1.49-1.92-3.38-2.2-5.69-.27-2.31.26-5.07,1.6-8.29.64-1.34,1.54-2.89,2.68-4.65,1.14-1.76,2.48-3.58,4.02-5.47,1.54-1.88,3.27-3.76,5.21-5.62,1.93-1.86,4-3.51,6.21-4.95s4.54-2.62,6.99-3.53c2.45-.92,5-1.4,7.62-1.45Zm-4.32,6.99c-.89.05-1.95.5-3.16,1.34-1.22.84-2.49,1.92-3.83,3.24-1.34,1.31-2.65,2.79-3.94,4.43-1.29,1.64-2.43,3.22-3.42,4.76,1.19-.3,2.42-.72,3.68-1.26,1.26-.55,2.53-1.25,3.79-2.12,1.27-.87,2.48-1.91,3.65-3.12,1.17-1.21,2.24-2.64,3.24-4.28,1.09-2.08,1.09-3.07,0-2.98Z"/>
        <path class="cls-4-f10 second-color" d="m512.5,544.81c.25-.59.72-.89,1.41-.89s1.39.17,2.08.52,1.29.81,1.79,1.38c.5.57.67,1.08.52,1.52-.65,1.93-1.97,4.05-3.98,6.36-2.01,2.31-4.45,4.7-7.33,7.18-2.88,2.48-6.03,5.01-9.45,7.59-3.42,2.58-6.84,5.08-10.27,7.51,1.24,1.59,2.81,2.83,4.72,3.72,1.91.89,4.28,1.24,7.1,1.04,1.44-.1,3.02-.53,4.76-1.3,1.74-.77,3.52-1.75,5.36-2.94,1.83-1.19,3.67-2.52,5.51-3.98,1.83-1.46,3.57-2.92,5.21-4.39,1.64-1.46,3.15-2.84,4.54-4.13,1.39-1.29,2.53-2.38,3.42-3.27.25-.25.56-.55.93-.89.37-.35.68-.64.93-.89.84-.79,1.66-1.38,2.45-1.75.79-.37,1.54-.56,2.23-.56.99,0,1.69.33,2.08,1,.4.67.4,1.55,0,2.64-.4,1.04-1.12,2.08-2.16,3.12l-1.12,1.12c-.79.84-1.95,2.02-3.46,3.53-1.51,1.51-3.27,3.19-5.28,5.02-2.01,1.83-4.2,3.7-6.58,5.58-2.38,1.89-4.83,3.63-7.36,5.23s-5.08,2.94-7.66,4.01c-2.58,1.08-5.08,1.66-7.51,1.76-3.77.2-7-.45-9.71-1.95-2.7-1.5-4.95-3.5-6.73-6-2.63,1.8-5.13,3.56-7.51,5.29-2.38,1.72-4.5,3.33-6.36,4.82-1.86,1.49-3.37,2.83-4.54,4.02s-1.85,2.16-2.04,2.9c-.1.4-.53.62-1.3.67-.77.05-1.59-.04-2.46-.26-.87-.22-1.62-.53-2.27-.93-.64-.4-.89-.84-.74-1.34.45-1.44,1.39-3.01,2.83-4.72,1.44-1.71,3.22-3.52,5.36-5.42,2.13-1.9,4.51-3.87,7.14-5.91,2.63-2.04,5.36-4.11,8.18-6.19-.7-1.83-1.2-3.73-1.52-5.69-.32-1.96-.51-3.87-.56-5.73-.05-1.86.04-3.63.26-5.32.22-1.69.58-3.2,1.08-4.54.74-2.03,1.76-3.62,3.05-4.76h.07c.3-.2.74-.4,1.34-.59.59-.2,1.2-.29,1.82-.26.62.03,1.16.17,1.64.45.47.27.71.73.71,1.38l.07.97c-.1.64-.2,1.6-.3,2.86-.1,1.26-.16,2.71-.19,4.35s.05,3.4.22,5.28c.17,1.89.48,3.72.93,5.5.1-.1.22-.2.37-.3.15-.1.3-.2.45-.3,3.22-2.28,6.4-4.54,9.52-6.77,3.12-2.23,5.95-4.35,8.48-6.36s4.67-3.87,6.43-5.58c1.76-1.71,2.89-3.19,3.38-4.43Z"/>
        <path class="cls-4-f10 second-color" d="m538.31,526.07c.35-.1,1.19-.29,2.53-.56,1.34-.27,3.05-.58,5.13-.93,2.08-.35,4.46-.71,7.14-1.08,2.68-.37,5.51-.73,8.48-1.08,2.08-2.13,3.79-3.84,5.13-5.13,1.34-1.29,2.16-2.03,2.46-2.23.94-.54,1.96-.95,3.05-1.23,1.09-.27,2.11-.41,3.05-.41.79,0,1.48.1,2.05.3.57.2,1,.47,1.3.82.3.35.43.77.41,1.26-.03.5-.29,1.04-.78,1.64l-.52.52c-.3.35-.71.81-1.23,1.38-.52.57-1.13,1.23-1.82,1.97,1.59-.1,3.15-.17,4.69-.22,1.54-.05,3.02-.07,4.46-.07,2.43,0,4.75.09,6.96.26,2.21.17,4.2.45,5.99.82s3.33.86,4.65,1.45c1.31.59,2.32,1.34,3.01,2.23.45.74.61,1.51.48,2.31-.12.79-.42,1.49-.89,2.08-.47.59-1.07,1.02-1.79,1.26-.72.25-1.45.15-2.2-.3-.5-.69-2.02-1.18-4.57-1.45-2.55-.27-5.72-.41-9.48-.41-2.88,0-5.94.07-9.19.22-3.25.15-6.56.35-9.93.59-2.08,2.38-4.33,4.95-6.73,7.7-2.41,2.75-4.82,5.57-7.25,8.44-2.43,2.88-4.82,5.74-7.18,8.59-2.36,2.85-4.54,5.55-6.55,8.11-2.01,2.55-3.78,4.91-5.32,7.07-1.54,2.16-2.7,3.96-3.5,5.39-.25.55-.52,1.15-.82,1.82-.3.67-.55,1.28-.74,1.82-.4,1.09-.65,2.1-.74,3.01-.1.92.2,1.5.89,1.75.69.25,1.7.06,3.01-.56,1.31-.62,2.86-1.54,4.65-2.75,1.79-1.21,3.72-2.67,5.8-4.35,2.08-1.69,4.21-3.47,6.4-5.36,2.18-1.88,4.38-3.82,6.58-5.8,2.21-1.98,4.3-3.87,6.29-5.65.64-.84,1.36-1.38,2.16-1.6.79-.22,1.45-.16,1.97.19.52.35.79.94.82,1.79.02.84-.36,1.89-1.15,3.12v.07l-1.27,1.26c-1.09,1.14-2.57,2.63-4.43,4.46-1.86,1.84-3.94,3.79-6.25,5.88-2.31,2.08-4.79,4.17-7.44,6.25-2.65,2.08-5.31,3.93-7.96,5.54-2.65,1.61-5.26,2.89-7.81,3.83-2.55.94-4.9,1.29-7.03,1.04h.07c-1.83-.15-3.2-.67-4.09-1.56-.89-.89-1.45-2-1.67-3.31-.22-1.31-.19-2.75.11-4.32.3-1.56.72-3.14,1.26-4.72,1.24-3.12,3.14-6.63,5.69-10.53,2.55-3.89,5.42-7.89,8.59-11.98,3.17-4.09,6.51-8.16,10.01-12.2,3.5-4.04,6.83-7.8,10-11.27-2.48.25-4.8.48-6.96.71-2.16.22-4.04.44-5.65.63-1.61.2-2.9.36-3.87.48-.97.12-1.5.21-1.6.26-.89.25-1.6.06-2.12-.56-.52-.62-.58-1.42-.19-2.42.25-.74.78-1.51,1.6-2.31.82-.79,2.09-1.46,3.83-2.01Z"/>
      </g>
      <g>
        <path class="cls-4-f10 second-color" d="m235.91,614.27v35.44l-25.55-26.81v25.12h-4.1v-35.44l25.55,26.81v-25.12h4.1Z"/>
        <path class="cls-4-f10 second-color" d="m250.54,643.34c.4.61.96,1.07,1.69,1.37.72.31,1.55.46,2.48.46,1.19,0,2.26-.24,3.21-.72.95-.48,1.7-1.17,2.27-2.05.56-.88.84-1.9.84-3.06l.77,2.89c0,1.41-.43,2.59-1.28,3.52s-1.9,1.62-3.13,2.07c-1.24.45-2.47.67-3.69.67-1.35,0-2.61-.28-3.79-.84-1.17-.56-2.11-1.37-2.82-2.43-.71-1.06-1.06-2.35-1.06-3.86,0-2.15.76-3.88,2.29-5.18s3.66-1.95,6.39-1.95c1.61,0,2.95.19,4.03.55,1.08.37,1.94.79,2.58,1.25.64.47,1.08.84,1.3,1.13v2.27c-1.13-.77-2.28-1.33-3.47-1.66-1.19-.34-2.46-.51-3.81-.51-1.25,0-2.27.16-3.06.48-.79.32-1.37.77-1.76,1.35-.39.58-.58,1.27-.58,2.07s.2,1.56.6,2.17Zm-3.06-15.24c.84-.61,1.98-1.22,3.45-1.83s3.22-.92,5.28-.92c1.74,0,3.25.26,4.56.79,1.3.53,2.31,1.29,3.04,2.29.72,1,1.08,2.22,1.08,3.66v15.91h-3.86v-15.38c0-.77-.13-1.41-.39-1.9s-.62-.89-1.08-1.18c-.47-.29-1.01-.5-1.62-.63-.61-.13-1.25-.19-1.93-.19-1.09,0-2.08.13-2.96.39-.88.26-1.63.56-2.24.92-.61.35-1.09.66-1.45.92l-1.88-2.84Z"/>
        <path class="cls-4-f10 second-color" d="m277.01,614.8c.53-.51,1.15-.77,1.86-.77s1.37.26,1.88.77c.51.51.77,1.14.77,1.88s-.26,1.33-.77,1.86c-.51.53-1.14.8-1.88.8s-1.33-.27-1.86-.8-.79-1.15-.79-1.86.26-1.37.79-1.88Zm3.79,11.04v22.18h-3.86v-22.18h3.86Z"/>
        <path class="cls-4-f10 second-color" d="m297.42,610.41v37.61h-3.86v-37.61h3.86Z"/>
        <path class="cls-4-f10 second-color" d="m311.94,643.1c.58.58,1.25,1.04,2,1.37.75.34,1.58.51,2.48.51,1.09,0,1.95-.25,2.58-.75.63-.5.94-1.18.94-2.05,0-.77-.25-1.42-.75-1.95-.5-.53-1.13-.98-1.9-1.35-.77-.37-1.59-.71-2.46-1.04-.96-.39-1.94-.84-2.92-1.37s-1.8-1.22-2.46-2.07c-.66-.85-.99-1.92-.99-3.21s.34-2.41,1.04-3.28c.69-.87,1.59-1.51,2.7-1.93,1.11-.42,2.26-.63,3.45-.63s2.31.19,3.35.58c1.04.39,1.97.9,2.77,1.54.8.64,1.43,1.38,1.88,2.22l-3.09,1.98c-.61-.83-1.37-1.53-2.29-2.07-.92-.55-1.95-.82-3.11-.82-.8,0-1.5.18-2.07.53-.58.35-.87.9-.87,1.64,0,.58.22,1.09.67,1.54s1.03.85,1.74,1.21c.71.35,1.45.69,2.22,1.01,1.29.51,2.46,1.07,3.52,1.66,1.06.59,1.9,1.31,2.53,2.15.63.84.94,1.91.94,3.23,0,1.93-.7,3.54-2.1,4.82-1.4,1.29-3.24,1.93-5.52,1.93-1.48,0-2.81-.27-4-.8-1.19-.53-2.19-1.21-3.01-2.05-.82-.84-1.44-1.69-1.86-2.56l3.04-1.88c.45.67.96,1.3,1.54,1.88Z"/>
        <path class="cls-4-f10 second-color" d="m358.15,627.36c-.82-.82-1.54-1.74-2.17-2.77-.63-1.03-.94-2.15-.94-3.38,0-1.51.35-2.83,1.06-3.95.71-1.12,1.68-1.99,2.92-2.6s2.66-.92,4.27-.92c1.7,0,3.16.35,4.36,1.06,1.21.71,2.13,1.63,2.77,2.77.64,1.14.96,2.39.96,3.74,0,.8-.16,1.59-.48,2.36s-.79,1.54-1.4,2.29c-.61.76-1.35,1.48-2.22,2.17-.87.69-1.86,1.37-2.99,2.05-.87.51-1.82,1.04-2.84,1.57-1.03.53-2,1.13-2.92,1.78-.92.66-1.66,1.42-2.24,2.29-.58.87-.87,1.91-.87,3.13s.31,2.28.94,3.18c.63.9,1.47,1.59,2.53,2.07,1.06.48,2.23.72,3.52.72,1.54,0,3.03-.34,4.46-1.01,1.43-.68,2.8-1.58,4.12-2.72,1.32-1.14,2.6-2.43,3.83-3.88s2.43-2.96,3.59-4.53l2.99,1.88c-1.29,1.67-2.6,3.33-3.95,4.99-1.35,1.66-2.8,3.14-4.34,4.46-1.54,1.32-3.21,2.38-5.01,3.18-1.8.8-3.78,1.21-5.93,1.21-1.83,0-3.58-.38-5.23-1.13-1.66-.75-3-1.83-4.05-3.23-1.04-1.4-1.57-3.04-1.57-4.94,0-1.41.25-2.65.75-3.71.5-1.06,1.14-1.99,1.93-2.8.79-.8,1.65-1.49,2.58-2.07.93-.58,1.85-1.08,2.75-1.52.9-.43,1.67-.83,2.31-1.18,1.8-1.03,3.22-2.11,4.27-3.25,1.04-1.14,1.57-2.26,1.57-3.35,0-.84-.17-1.56-.51-2.17-.34-.61-.81-1.09-1.42-1.45s-1.37-.53-2.27-.53c-1.32,0-2.35.37-3.09,1.11-.74.74-1.11,1.72-1.11,2.94,0,1.09.43,2.14,1.3,3.13.87,1,1.78,2.06,2.75,3.18l17.84,20.49h-4.63l-16.2-18.51c-.51-.61-1.18-1.33-2-2.15Z"/>
        <path class="cls-4-f10 second-color" d="m413.59,641.37c.85,1.03,1.81,1.83,2.87,2.41,1.06.58,2.27.87,3.62.87,1.8,0,3.25-.5,4.34-1.49s1.64-2.27,1.64-3.81-.35-2.72-1.06-3.62c-.71-.9-1.63-1.63-2.77-2.19-1.14-.56-2.36-1.07-3.64-1.52-.84-.29-1.77-.67-2.8-1.13-1.03-.47-2.01-1.06-2.94-1.78-.93-.72-1.7-1.62-2.29-2.68s-.89-2.36-.89-3.91c0-1.67.42-3.17,1.25-4.48.84-1.32,1.99-2.35,3.47-3.11,1.48-.75,3.17-1.13,5.06-1.13s3.43.35,4.8,1.04c1.37.69,2.53,1.58,3.5,2.65.96,1.08,1.72,2.21,2.27,3.4l-3.52,2.03c-.42-.84-.95-1.66-1.59-2.46-.64-.8-1.42-1.46-2.34-1.98-.92-.51-2.03-.77-3.35-.77-1.83,0-3.17.44-4,1.33s-1.25,1.87-1.25,2.96c0,.93.24,1.79.72,2.58.48.79,1.29,1.53,2.44,2.22,1.14.69,2.69,1.37,4.65,2.05.9.32,1.85.74,2.84,1.25,1,.51,1.92,1.17,2.77,1.95.85.79,1.55,1.74,2.1,2.84.55,1.11.82,2.43.82,3.98s-.28,2.81-.84,4c-.56,1.19-1.33,2.2-2.31,3.04-.98.84-2.09,1.48-3.33,1.93-1.24.45-2.53.67-3.88.67-1.83,0-3.53-.39-5.09-1.18-1.56-.79-2.92-1.83-4.1-3.13-1.17-1.3-2.13-2.69-2.87-4.17l3.28-2.22c.77,1.35,1.58,2.54,2.43,3.57Z"/>
        <path class="cls-4-f10 second-color" d="m440.66,658.63v-32.79h3.86v32.79h-3.86Zm20.92-15.53c-1,1.74-2.32,3.07-3.98,4-1.66.93-3.5,1.4-5.52,1.4-1.83,0-3.45-.47-4.85-1.4s-2.49-2.27-3.28-4c-.79-1.74-1.18-3.79-1.18-6.17s.39-4.48,1.18-6.2c.79-1.72,1.88-3.04,3.28-3.98s3.01-1.4,4.85-1.4c2.02,0,3.86.47,5.52,1.4,1.65.93,2.98,2.26,3.98,3.98,1,1.72,1.49,3.78,1.49,6.2s-.5,4.44-1.49,6.17Zm-3.45-10.51c-.69-1.19-1.61-2.09-2.75-2.7-1.14-.61-2.4-.92-3.79-.92-1.12,0-2.23.31-3.33.92s-1.99,1.51-2.7,2.7c-.71,1.19-1.06,2.64-1.06,4.34s.35,3.15,1.06,4.34c.71,1.19,1.61,2.09,2.7,2.7s2.2.92,3.33.92c1.38,0,2.64-.31,3.79-.92,1.14-.61,2.06-1.51,2.75-2.7.69-1.19,1.04-2.63,1.04-4.34s-.35-3.15-1.04-4.34Z"/>
        <path class="cls-4-f10 second-color" d="m475.54,643.34c.4.61.96,1.07,1.69,1.37.72.31,1.55.46,2.48.46,1.19,0,2.26-.24,3.21-.72.95-.48,1.7-1.17,2.27-2.05.56-.88.84-1.9.84-3.06l.77,2.89c0,1.41-.43,2.59-1.28,3.52s-1.9,1.62-3.13,2.07c-1.24.45-2.47.67-3.69.67-1.35,0-2.61-.28-3.79-.84-1.17-.56-2.11-1.37-2.82-2.43-.71-1.06-1.06-2.35-1.06-3.86,0-2.15.76-3.88,2.29-5.18s3.66-1.95,6.39-1.95c1.61,0,2.95.19,4.03.55,1.08.37,1.94.79,2.58,1.25.64.47,1.08.84,1.3,1.13v2.27c-1.13-.77-2.28-1.33-3.47-1.66-1.19-.34-2.46-.51-3.81-.51-1.25,0-2.27.16-3.06.48-.79.32-1.37.77-1.76,1.35-.39.58-.58,1.27-.58,2.07s.2,1.56.6,2.17Zm-3.06-15.24c.84-.61,1.98-1.22,3.45-1.83s3.22-.92,5.28-.92c1.74,0,3.25.26,4.56.79,1.3.53,2.31,1.29,3.04,2.29.72,1,1.08,2.22,1.08,3.66v15.91h-3.86v-15.38c0-.77-.13-1.41-.39-1.9s-.62-.89-1.08-1.18c-.47-.29-1.01-.5-1.62-.63-.61-.13-1.25-.19-1.93-.19-1.09,0-2.08.13-2.96.39-.88.26-1.63.56-2.24.92-.61.35-1.09.66-1.45.92l-1.88-2.84Z"/>
      </g>
    </g>
  </g>
</svg>