<svg id="Layer_1" data-name="Layer 1" xmlns="http://www.w3.org/2000/svg" viewBox="0 0 700 700">
  <defs>
    <style>
      .cls-3-l05tt {
        font-family: ArialMT, Arial;
        font-size: 100px;
      }
    </style>
  </defs>
  <text class="cls-3-l05tt second-color" transform="translate(111.94 573.96)">
	<tspan x="0" y="0" id="span_svg_logo_envie.65eaccc5-8167-4d5d-965a-bd876bd5d6bc_38">Name Text</tspan>	
  </text>
  <g>
    <g>
      <path class="first-color" d="m349.8,463.35c-76.6,0-138.92-62.32-138.92-138.92s62.32-138.92,138.92-138.92,138.92,62.32,138.92,138.92-62.32,138.92-138.92,138.92Zm0-268.69c-71.56,0-129.77,58.21-129.77,129.77s58.21,129.77,129.77,129.77,129.77-58.21,129.77-129.77-58.21-129.77-129.77-129.77Z"/>
      <path class="first-color" d="m349.8,438.19c-62.73,0-113.76-51.03-113.76-113.76s51.03-113.76,113.76-113.76,113.76,51.03,113.76,113.76-51.03,113.76-113.76,113.76Zm0-222.94c-60.2,0-109.18,48.98-109.18,109.18s48.98,109.19,109.18,109.19,109.19-48.98,109.19-109.19-48.98-109.18-109.19-109.18Z"/>
    </g>
    <g>
      <path class="first-color" d="m186.92,336.23c-.81-2.43,1.19-7.47,5.57-7.41-.05-.56,0-1.26.36-1.98.54-1.07,1.44-1.55,1.75-1.7-12.94-2.14-10.89,9.73-10.89,9.73l-14.39-5.98c-.68,9.48-6.32,12.98-6.32,12.98,0,0,17.51,5.84,23.05,6.22,5.54.39,5.25-3.21,5.45-9.82.19-6.61,4.28-5.64,4.28-5.64-5.15-2.92-8.85,3.6-8.85,3.6Z"/>
      <path class="first-color" d="m193.88,292.47c-3.5-8.46-.15-9.92-.15-9.92-5.98.73-7.09,7.99-7.09,7.99-3.05-7.34,2.95-10.67,2.95-10.67-1.06-4.06,2.24-5.05,2.24-5.05-12.21-1.84-12.23,11.87-11.7,17.72-6.81,7.63-14.41,4.88-19.47,13.69-.46-3.43-4.69-7.83-7.52-9.82-2.83-1.99-6.1-3.23-9.2-4.78-3.09-1.55-5.36-3.5-7.15-6.46,1.48,1.79,4,2.49,6.3,2.18,2.3-.31,3.96-2.02,6.1-2.92,4.58-1.91.97,4.67.97,4.67,8.37-3.44,8.95-10.7,3.89-12.64-5.06-1.95-11.48,9.34-10.7-.97.6-7.99,7.05-6.63,9.92-5.62,1.26.45,2.69.18,3.62-.78,2.37-2.45-.7-6.06-.7-6.06,2.33-2.14.19-4.86.19-4.86l-19.26-5.25c2.19-13.13-17.65-6.13-21.88-16.34-.89,7.54,3.5,8.75,3.5,8.75-28.3.58-25.38,36.47-25.38,36.47,2.04-12.55,9.63-16.63,9.63-16.63-11.38,14.01,8.75,28.01-4.67,43.47,7.95-1.99,10.83-9.25,11.51-11.37-1.76,5.98.18,12.44,1.99,18.45,1.86,6.21,3.54,13.09.87,19-2.3,5.09-7.32,8.31-10.96,12.56-.76.89-1.46,1.82-2.09,2.78-1.59,1.74-3.03,3.55-4.4,5.43-1.64,2.28-3.16,4.66-4.49,7.26-.32.65-.66,1.34-.95,2l-.8,1.75c-.54,1.15-1.07,2.28-1.65,3.36-1.16,2.15-2.52,4.1-4.1,5.68-.4.39-.81.76-1.23,1.11-.41.34-.83.64-1.27.93-.88.58-1.84,1.05-2.82,1.4-1.97.71-4.03.89-5.81.5-1.78-.39-3.32-1.37-4.53-2.92-1.22-1.53-2.06-3.57-2.42-5.73-.17-1.08-.24-2.18-.17-3.27.03-.55.08-1.06.19-1.63.09-.57.23-1.13.36-1.69.61-2.25,1.62-4.47,2.91-6.63,2.57-4.35,6.2-8.29,9.83-12.54,1.81-2.13,3.62-4.34,5.24-6.76,1.63-2.39,3.05-5.02,4.11-7.75,1.16-3.08,1.88-6.29,2.19-9.51.36-.39.68-.9.94-1.56,2.19-5.44,1.15-12.95-.87-18.26-2.07-5.45-5.8-10.23-10.54-13.62-.58-.42-1.32.26-.97.88,1.09,1.97,1.63,4.3,1.76,6.57.19,3.6-.51,7.18-.9,10.76-.38,3.58-.41,7.34,1.06,10.63.94,2.12,3.51,4.73,5.96,5.45-.63,2.41-1.48,4.73-2.59,6.92-2.27,4.64-5.83,8.48-9.65,12.33-3.81,3.85-8,7.77-11.36,12.75-1.69,2.47-3.13,5.24-4.11,8.26-.23.76-.45,1.53-.62,2.32-.19.77-.32,1.63-.4,2.45-.17,1.66-.14,3.32.06,4.97.43,3.28,1.54,6.58,3.67,9.45,1.05,1.43,2.37,2.73,3.89,3.78,1.53,1.05,3.27,1.83,5.05,2.27,3.59.9,7.23.51,10.45-.58,1.62-.55,3.16-1.29,4.6-2.19.72-.45,1.42-.95,2.07-1.48.64-.52,1.26-1.08,1.84-1.65,1.99-1.96,3.6-4.16,4.93-6.43.14,2.82.45,5.62.89,8.35.66,4.15,1.25,8.31,1.12,12.5-.21,6.65-7.31,11.23-7.31,11.23-2.15,1.42-2.43,3.75-2.43,6.32,0,3.48,1.15,7.23,1.26,10.11.19,4.86-3.11,5.06-3.21,10.6-.1,5.54,4.08,5.84,7.98,5.84s4.38,4.38,4.38,4.38c3.11-6.32-3.31-11.87-3.31-11.87,5.64,1.46,6.22,6.03,6.22,6.03,5.45.1,5.74,4.18,5.74,4.18,1.07-7.29-4.28-11.38-4.28-11.38,5.45.29,6.16,5.01,6.16,5.01,2.19.33,2.98,2.68,2.98,2.68.3-1.7.38-3.19.3-4.48-.24-4-3.11-7.35-6.97-8.37l-6.55-1.73c-1.36-15.56,4.86-16.92,4.86-16.92,0,0,18.33-7.95,18.48-25.09.19-22.37,14.1-29.62,14.1-29.62,31.12-12.84,27.52-24.95,28.01-27.86-17.76.44-25.38-12.94-25.38-12.94,16.53,9.73,26.55,8.27,26.55,8.27,6.24-.34,20.02-11.87,23.56-14.92,6.13-.26,9.77-5.38,6.64-12.95Z"/>
      <path class="first-color" d="m190.84,386.7c1.88-2.23,4.13-.72,4.13-.72-1.15-1.29-2.27-2.27-3.34-3.01-3.29-2.29-7.7-2.1-10.89.31-7.6,5.73-18.66,7.97-27.68,4.15,0,0,2.92-10.11,4.67-19.26,1.75-9.14-3.31-14.39-16.53-11.48-13.23,2.92-14.01,21.2-14.01,21.2,9.73,4.47,14.59,1.75,14.59,1.75-2.14,5.06,1.17,11.28,1.17,11.28,0,0-2.33,8.17,6.61,9.53,3.09.47,6.32-.21,9.29-1.01,3.14-.85,6.4-2.74,9.73-1.87,3.37.88,4.13,3.74,6.58,5.73,4.3,3.5,7.11.4,9.52-2.66,2.41-3.06,6.15-.73,6.15-.73-3.04-6.35-11.37-4.74-11.37-4.74,4.63-3.53,8.59-1.16,8.59-1.16,3.44-4.22,6.83-1.92,6.83-1.92-5.07-5.35-11.59-3.67-11.59-3.67,3.6-4.1,7.56-1.71,7.56-1.71Z"/>
    </g>
    <g>
      <path class="first-color" d="m513.08,336.23c.81-2.43-1.19-7.47-5.57-7.41.05-.56,0-1.26-.36-1.98-.54-1.07-1.44-1.55-1.75-1.7,12.94-2.14,10.89,9.73,10.89,9.73l14.39-5.98c.68,9.48,6.32,12.98,6.32,12.98,0,0-17.51,5.84-23.05,6.22-5.54.39-5.25-3.21-5.45-9.82-.19-6.61-4.28-5.64-4.28-5.64,5.15-2.92,8.85,3.6,8.85,3.6Z"/>
      <path class="first-color" d="m506.12,292.47c3.5-8.46.15-9.92.15-9.92,5.98.73,7.09,7.99,7.09,7.99,3.05-7.34-2.95-10.67-2.95-10.67,1.06-4.06-2.24-5.05-2.24-5.05,12.21-1.84,12.23,11.87,11.7,17.72,6.81,7.63,14.41,4.88,19.47,13.69.46-3.43,4.69-7.83,7.52-9.82,2.83-1.99,6.1-3.23,9.2-4.78,3.09-1.55,5.36-3.5,7.15-6.46-1.48,1.79-4,2.49-6.3,2.18-2.3-.31-3.96-2.02-6.1-2.92-4.58-1.91-.97,4.67-.97,4.67-8.37-3.44-8.95-10.7-3.89-12.64,5.06-1.95,11.48,9.34,10.7-.97-.6-7.99-7.05-6.63-9.92-5.62-1.26.45-2.69.18-3.62-.78-2.37-2.45.7-6.06.7-6.06-2.33-2.14-.19-4.86-.19-4.86l19.26-5.25c-2.19-13.13,17.65-6.13,21.88-16.34.89,7.54-3.5,8.75-3.5,8.75,28.3.58,25.38,36.47,25.38,36.47-2.04-12.55-9.63-16.63-9.63-16.63,11.38,14.01-8.75,28.01,4.67,43.47-7.95-1.99-10.83-9.25-11.51-11.37,1.76,5.98-.18,12.44-1.99,18.45-1.86,6.21-3.54,13.09-.87,19,2.3,5.09,7.32,8.31,10.96,12.56.76.89,1.46,1.82,2.09,2.78,1.59,1.74,3.03,3.55,4.4,5.43,1.64,2.28,3.16,4.66,4.49,7.26.32.65.66,1.34.95,2l.8,1.75c.54,1.15,1.07,2.28,1.65,3.36,1.16,2.15,2.52,4.1,4.1,5.68.4.39.81.76,1.23,1.11.41.34.83.64,1.27.93.88.58,1.84,1.05,2.82,1.4,1.97.71,4.03.89,5.81.5,1.78-.39,3.32-1.37,4.53-2.92,1.22-1.53,2.06-3.57,2.42-5.73.17-1.08.24-2.18.17-3.27-.03-.55-.08-1.06-.19-1.63-.09-.57-.23-1.13-.36-1.69-.61-2.25-1.62-4.47-2.91-6.63-2.57-4.35-6.2-8.29-9.83-12.54-1.81-2.13-3.62-4.34-5.24-6.76-1.63-2.39-3.05-5.02-4.11-7.75-1.16-3.08-1.88-6.29-2.19-9.51-.36-.39-.68-.9-.94-1.56-2.19-5.44-1.15-12.95.87-18.26,2.07-5.45,5.8-10.23,10.54-13.62.58-.42,1.32.26.97.88-1.09,1.97-1.63,4.3-1.76,6.57-.19,3.6.51,7.18.9,10.76.38,3.58.41,7.34-1.06,10.63-.94,2.12-3.51,4.73-5.96,5.45.63,2.41,1.48,4.73,2.59,6.92,2.27,4.64,5.83,8.48,9.65,12.33,3.81,3.85,8,7.77,11.36,12.75,1.69,2.47,3.13,5.24,4.11,8.26.23.76.45,1.53.62,2.32.19.77.32,1.63.4,2.45.17,1.66.14,3.32-.06,4.97-.43,3.28-1.54,6.58-3.67,9.45-1.05,1.43-2.37,2.73-3.89,3.78-1.53,1.05-3.27,1.83-5.05,2.27-3.59.9-7.23.51-10.45-.58-1.62-.55-3.16-1.29-4.6-2.19-.72-.45-1.42-.95-2.07-1.48-.64-.52-1.26-1.08-1.84-1.65-1.99-1.96-3.6-4.16-4.93-6.43-.14,2.82-.45,5.62-.89,8.35-.66,4.15-1.25,8.31-1.12,12.5.21,6.65,7.31,11.23,7.31,11.23,2.15,1.42,2.43,3.75,2.43,6.32,0,3.48-1.15,7.23-1.26,10.11-.19,4.86,3.11,5.06,3.21,10.6.1,5.54-4.08,5.84-7.98,5.84s-4.38,4.38-4.38,4.38c-3.11-6.32,3.31-11.87,3.31-11.87-5.64,1.46-6.22,6.03-6.22,6.03-5.45.1-5.74,4.18-5.74,4.18-1.07-7.29,4.28-11.38,4.28-11.38-5.45.29-6.16,5.01-6.16,5.01-2.19.33-2.98,2.68-2.98,2.68-.3-1.7-.38-3.19-.3-4.48.24-4,3.11-7.35,6.97-8.37l6.55-1.73c1.36-15.56-4.86-16.92-4.86-16.92,0,0-18.33-7.95-18.48-25.09-.19-22.37-14.1-29.62-14.1-29.62-31.12-12.84-27.52-24.95-28.01-27.86,17.76.44,25.38-12.94,25.38-12.94-16.53,9.73-26.55,8.27-26.55,8.27-6.24-.34-20.02-11.87-23.56-14.92-6.13-.26-9.77-5.38-6.64-12.95Z"/>
      <path class="first-color" d="m509.16,386.7c-1.88-2.23-4.13-.72-4.13-.72,1.15-1.29,2.27-2.27,3.34-3.01,3.29-2.29,7.7-2.1,10.89.31,7.6,5.73,18.66,7.97,27.68,4.15,0,0-2.92-10.11-4.67-19.26-1.75-9.14,3.31-14.39,16.53-11.48,13.23,2.92,14.01,21.2,14.01,21.2-9.73,4.47-14.59,1.75-14.59,1.75,2.14,5.06-1.17,11.28-1.17,11.28,0,0,2.33,8.17-6.61,9.53-3.09.47-6.32-.21-9.29-1.01-3.14-.85-6.4-2.74-9.73-1.87-3.37.88-4.13,3.74-6.58,5.73-4.3,3.5-7.11.4-9.52-2.66-2.41-3.06-6.15-.73-6.15-.73,3.04-6.35,11.37-4.74,11.37-4.74-4.63-3.53-8.59-1.16-8.59-1.16-3.44-4.22-6.83-1.92-6.83-1.92,5.07-5.35,11.59-3.67,11.59-3.67-3.6-4.1-7.56-1.71-7.56-1.71Z"/>
    </g>
  </g>
  <g>
    <path class="first-color" d="m510.25,461.74c4.75-6.63,2.64-14.49,0-18.96,0,0,10.97,19.45,27.76,25.92,13.56,5.22,28.9,2.2,35.59-7.15,6.69-9.35,5.01-22.15-10.2-28.01-13.11-5.05-22.56-.7-27.07,5.61-3.8,5.32-.21,12.91,6.89,15.65,5.81,2.24,12.45.49,15.17-3.31,3.82-5.34-1.1-9.02-1.1-9.02-1.57,2.19-10.89.68-6.73-5.13,4.43-6.19,25.08,4.05,15.69,17.18-6.26,8.76-17.81,9.61-33.42,3.59-8.04-3.1-15.8-13.38-22.65-21.69,10.93,4.92,23.19.96,26.04-3.72,5.22-8.59-6.62-10.5-9.93-8.95,2.88,8.61-6.42,13.15-12.71,10.97-9.38-3.25-13.32-7.47-15.17-9.37-1.99.45-1.84.8-1.84.8,7.95,9.07,5.63,25.57-7.58,36.38.46,5.87,15.45,7.36,21.27-.77Z"/>
    <path class="first-color" d="m493.39,450.44c8.01-14.84.83-25.17-3.08-30.44,6.47,4.13,21.23,4.26,23.73-.37-11.05.86-31.96-8.98-38.06-20.18-.84,3.82.94,10.08,1.47,13.86.39,2.79.77,11.77-1.91,13.34,6.17-.05,8.84-3.42,9.45-7,7.37,16.92-5.26,23.41-5.26,23.41,4.41,2.9,4.33,6.6,2.21,8.6-1.22-3.78-3.06-5.49-8.5-7.07-4.92-1.43-11.05,1.36-13.62,4.75-3.07,4.05-10.43,17.54-17.82,20.47,15.42,3.15,42.06-2.06,51.4-19.38Z"/>
  </g>
  <g>
    <path class="first-color" d="m191.1,461.74c-4.75-6.63-2.64-14.49,0-18.96,0,0-10.97,19.45-27.76,25.92-13.56,5.22-28.9,2.2-35.59-7.15-6.69-9.35-5.01-22.15,10.2-28.01,13.11-5.05,22.56-.7,27.07,5.61,3.8,5.32.21,12.91-6.89,15.65-5.81,2.24-12.45.49-15.17-3.31-3.82-5.34,1.1-9.02,1.1-9.02,1.57,2.19,10.89.68,6.73-5.13-4.43-6.19-25.08,4.05-15.69,17.18,6.26,8.76,17.81,9.61,33.42,3.59,8.04-3.1,15.8-13.38,22.65-21.69-10.93,4.92-23.19.96-26.04-3.72-5.22-8.59,6.62-10.5,9.93-8.95-2.88,8.61,6.42,13.15,12.71,10.97,9.38-3.25,13.32-7.47,15.17-9.37,1.99.45,1.84.8,1.84.8-7.95,9.07-5.63,25.57,7.58,36.38-.46,5.87-15.45,7.36-21.27-.77Z"/>
    <path class="first-color" d="m207.96,450.44c-8.01-14.84-.83-25.17,3.08-30.44-6.47,4.13-21.23,4.26-23.73-.37,11.05.86,31.96-8.98,38.06-20.18.84,3.82-.94,10.08-1.47,13.86-.39,2.79-.77,11.77,1.91,13.34-6.17-.05-8.84-3.42-9.45-7-7.37,16.92,5.26,23.41,5.26,23.41-4.41,2.9-4.33,6.6-2.21,8.6,1.22-3.78,3.06-5.49,8.5-7.07,4.92-1.43,11.05,1.36,13.62,4.75,3.07,4.05,10.43,17.54,17.82,20.47-15.42,3.15-42.06-2.06-51.4-19.38Z"/>
  </g>
  <path class="first-color" d="m368.44,395.84c-6.03-.32-11.25-1.14-15.64-2.46-4.39-1.32-8.44-2.83-12.14-4.52-4.76,2.12-10.08,3.57-15.95,4.37s-12.46.87-19.76.24c-8.79-.85-15.66-2.91-20.64-6.19-4.98-3.28-7.83-6.77-8.57-10.48-.74-3.7.71-7.09,4.37-10.16,3.65-3.07,9.71-4.87,18.18-5.4,4.76-.32,9.05-.21,12.86.32,3.81.53,7.35,1.27,10.64,2.22,3.28.95,6.35,2.04,9.21,3.25,2.86,1.22,5.66,2.36,8.41,3.41,1.48-3.18,3.04-6.61,4.68-10.32,1.64-3.7,3.31-7.54,5-11.51,1.69-3.97,3.39-7.91,5.08-11.83,1.69-3.91,3.28-7.62,4.76-11.11-7.94.11-16.33-.79-25.16-2.7-8.84-1.9-17.54-4.92-26.11-9.05-6.67-3.07-12.54-6.85-17.62-11.35-5.08-4.5-8.84-9.92-11.27-16.27-1.8-4.76-2.54-9.18-2.22-13.25.32-4.07,1.69-7.49,4.13-10.24,3.17-3.49,7.54-5.58,13.1-6.27,5.56-.69,11.27-.13,17.14,1.67,5.87,1.8,11.27,4.76,16.19,8.89,4.92,4.13,8.33,9.31,10.24,15.56.21.95-.08,1.59-.87,1.9-.79.32-1.67-.16-2.62-1.43-2.54-3.49-5.66-6.27-9.37-8.33-3.71-2.06-7.33-3.36-10.87-3.89-3.55-.53-6.77-.32-9.68.63-2.91.95-4.84,2.7-5.79,5.24-.85,2.33-.9,5.13-.16,8.41.74,3.28,2.06,6.3,3.97,9.05,2.64,3.71,6.19,7.17,10.64,10.4,4.45,3.23,9.34,5.98,14.68,8.25,5.34,2.28,10.87,4,16.59,5.16,5.72,1.17,11.17,1.59,16.35,1.27.74,0,1.32-.05,1.75-.16,3.28-7.3,6.75-14.34,10.4-21.11,3.65-6.77,7.59-12.86,11.83-18.26,1.8-2.33,3.76-4.58,5.87-6.75,2.12-2.17,4.47-4.15,7.06-5.95,2.59-1.8,5.42-3.33,8.49-4.6,3.07-1.27,6.51-2.12,10.32-2.54,3.91-.32,7.25.13,10,1.35,2.75,1.22,4.84,2.88,6.27,5,1.43,2.12,2.2,4.5,2.3,7.14.1,2.65-.48,5.24-1.75,7.78-4.23,8.79-10.21,16.56-17.94,23.34-7.73,6.77-16.51,12.06-26.35,15.88-1.8,4.76-3.73,9.74-5.79,14.92-2.06,5.19-4.23,10.27-6.51,15.24-2.28,4.98-4.74,9.71-7.38,14.21-2.65,4.5-5.5,8.55-8.57,12.14,3.7,1.38,7.57,2.01,11.59,1.91,4.02-.1,8.04-.79,12.06-2.06,4.02-1.27,7.94-2.99,11.75-5.16,3.81-2.17,7.41-4.63,10.79-7.38,3.39-2.75,6.43-5.64,9.13-8.65,2.7-3.02,4.89-6.06,6.59-9.13.32-.53.74-.87,1.27-1.03.53-.16,1-.16,1.43,0,.42.16.71.48.87.95.16.48.03,1.09-.4,1.83-3.39,6.99-7.3,13.44-11.75,19.37-4.45,5.93-9.18,11.03-14.21,15.32-5.03,4.29-10.16,7.57-15.4,9.84-5.24,2.27-10.4,3.31-15.48,3.1Zm-58.26-7.94c4.23.1,8.12-.13,11.67-.71,3.54-.58,6.53-1.77,8.97-3.57-2.96-1.48-5.93-2.88-8.89-4.21-2.96-1.32-6.25-2.3-9.84-2.94-5.82-.95-10.61-.95-14.37,0-3.76.95-5.95,2.25-6.59,3.89-.63,1.64.5,3.25,3.41,4.84,2.91,1.59,8.12,2.49,15.64,2.7Zm104.14-115.09c-4.87,5.08-9.05,10.98-12.54,17.7-3.49,6.72-6.77,13.79-9.84,21.19,7.2-3.39,13.76-7.88,19.68-13.49,5.93-5.61,10.79-12.28,14.6-20,1.16-2.43,1.53-4.45,1.11-6.03-.42-1.59-1.3-2.64-2.62-3.18-1.32-.53-2.94-.5-4.84.08-1.91.58-3.76,1.83-5.56,3.73Z"/>
  <g>
    <path class="first-color" d="m348.62,167c19.78,0,33.07,4.59,38.36,6.83,2.01-29.62,11.74-59.36,11.74-59.36-4.25,7.39-12.58,20.76-24.53,26.42,10.04,0,9.51,13.72.54,13.72-5.99,0-6.54-6.23-7.76-6.23,0,0-.37,6.23-6.78,6.23-9.03,0-9.39-13.62.38-13.62-9.51-9.51-11.96-38.62-11.96-38.62,0,0-2.45,29.1-11.96,38.62,9.77,0,9.42,13.62.38,13.62-6.41,0-6.78-6.23-6.78-6.23-1.22,0-1.77,6.23-7.76,6.23-8.97,0-9.49-13.72.54-13.72-11.95-5.66-20.28-19.03-24.53-26.42,0,0,9.74,29.74,11.74,59.36,5.29-2.23,18.58-6.83,38.36-6.83Z"/>
    <path class="first-color" d="m348.62,170.97c-21.07,0-34.59,5.48-38.13,7.1.08,1.98.13,3.95.13,5.9,0,0,13.89-7.39,38-7.39s38,7.39,38,7.39c0-1.95.05-3.92.13-5.9-3.54-1.61-17.12-7.1-38.13-7.1Z"/>
  </g>
  <rect class="first-color" x="81.63" y="487.92" width="536.47" height="2"/>
  <rect class="first-color" x="84.89" y="588.17" width="536.47" height="2"/>
</svg>