<svg id="Layer_1" data-name="Layer 1" xmlns="http://www.w3.org/2000/svg" viewBox="0 0 700 700">
  <defs>
    <style>
      .cls-1-e01tt {
        fill: #231f20;
        font-family: ArialMT, Arial;
        font-size: 91.81px;
      }
    </style>
  </defs>
  <g>
    <path class="first-color" d="m388.35,190.5c-3.49-3.17-7.19-6.14-10.43-9.55-9.31-9.75-18.35-19.75-27.67-29.49-2.6-2.72-5.58-5.2-8.75-7.22-4.74-3.03-8-2.4-11.97,1.62-1.15,1.16-2.36,2.33-3.21,3.7-1.82,2.92-7.41,3.67-10.23.65-1.24-1.32-2.59-2.55-4-3.69-5.8-4.65-10.23-4.77-16.29-.47-5.13,3.64-9.41,8.18-13.5,12.9-5.86,6.77-11.52,13.73-17.61,20.29-4.47,4.81-9.49,9.11-14.28,13.65,2.14,2.07,4.54,4.12,6.63,6.45,5.09,5.67,9.93,11.58,15.08,17.21,12.19,13.32,27.28,20.56,45.45,20.71,4.51.04,9.08-.56,13.54-1.32,5.27-.9,10.56-1.97,15.66-3.55,7.96-2.47,14.58-7.33,20.13-13.42,6.02-6.62,11.63-13.61,17.36-20.49,1.85-2.21,3.53-4.56,5.34-6.91-.51-.45-.87-.75-1.22-1.07Zm-114.97,9.29l.45,2.6-2.33-1.23-2.33,1.23.45-2.6-1.89-1.84,2.61-.38,1.17-2.36,1.17,2.36,2.61.38-1.89,1.84Zm15.11,13.04l-3.57-1.87-3.57,1.87.68-3.97-2.89-2.81,3.99-.58,1.78-3.61,1.78,3.61,3.99.58-2.89,2.81.68,3.97Zm21.04,10.73l-5.05-2.65-5.05,2.65.96-5.62-4.08-3.98,5.64-.82,2.52-5.11,2.52,5.11,5.64.82-4.08,3.98.96,5.62Zm38.51-29.13c-11.4,2.32-22.96,1.99-34.48,1.8-8.46-.14-16.91-.81-25.2-2.64-2.02-.45-3.93-1.38-6.25-2.22,1.5-.59,2.71-.88,3.7-1.5,2.71-1.68,5.25-3.65,8.01-5.25,6.6-3.83,13.79-5.74,21.4-6.24,8.48-.56,16.61,1.55,24.85,3,5.24.92,9.63,3.57,14.17,5.92,1.71.89,2.87,2.85,4.6,4.66-3.9.9-7.33,1.77-10.8,2.47Z"/>
    <path class="first-color" d="m451.74,192.04c-.4,1-.78,2.02-1.21,3.01-3.71,8.63-8.69,16.53-13.98,24.24-4.28,6.24-8.48,12.54-13.04,18.57-3.64,4.8-7.74,9.25-11.69,13.82-4.14,4.79-8.22,9.64-12.55,14.26-3.56,3.81-7.34,7.42-11.2,10.93-3.97,3.6-8.14,6.98-12.23,10.43-1.02.86-2.09,1.65-2.92,2.8,2.84-1.62,5.64-3.31,8.52-4.85,7.07-3.77,14.25-7.35,21.26-11.25,6.53-3.63,12.87-7.61,19.35-11.35,6.17-3.57,12.71-5.32,19.98-4.5,7.98.89,15.36,3.32,22.45,6.99,4.02,2.08,8.49,2.69,12.94,3.38,5.07.79,10.08,1.99,15.12,3.02.33.07.66.13,1.17.24-1.3-3.76-2.6-7.31-3.77-10.9-2.42-7.43-4.7-14.9-7.16-22.32-2.26-6.8-4.45-13.64-7.1-20.3-3.28-8.23-6.95-16.29-10.54-24.4-2.22-5.03-4.61-9.98-6.89-14.99-4.54-9.98-7.98-20.35-10.03-31.12-1.39-7.27-.41-14.26,4.3-20.32,1.14-1.46,2.37-2.97,3.87-3.97,1.22-.82,1.03-1.52.73-2.51-.74-2.48-1.53-4.95-2.2-7.45-.42-1.56-.2-3.13,1.23-4.06,1.56-1.02,3.35-1.38,5.2-.76.29.1.56.44.7.74,1.59,3.32,3.15,6.65,4.72,9.98.12.25.16.53.24.8-2.28.47-2.04-1.72-3.22-2.81-.91,1.75-2.26,2.87-3.96,2.65.4,1.77.77,3.42,1.17,5.2,1.34-.61,3.07-1.28,4.58.97.74-1.8-.4-4.08,2.27-4.56,1.65,4.35,3.48,8.75,4.98,13.26,1.44,4.34,2.78,8.75,3.76,13.21,2.14,9.73,6.76,18.31,12.36,26.29,7.88,11.21,14.64,22.99,20.59,35.32,4.4,9.11,7.97,18.52,11.09,28.11,2.79,8.58,7.49,16.09,12.43,23.51,3.06,4.59,6.04,9.22,8.83,13.98.87,1.48.94,3.41,1.42,5.13.13.47.3,1.16.63,1.3,4.68,1.96,6.85,6.11,8.77,10.31,4.38,9.57,8.68,19.19,12.78,28.89,3.23,7.63,6.04,15.44,9.18,23.11,2.24,5.47,4.94,10.75,7.03,16.27,2.72,7.2,5.05,14.54,7.54,21.83,1.39,4.06,2.86,8.09,4.13,12.18,3.41,10.93,6.86,21.85,10.05,32.84,2.61,8.99,5.06,18.03,7.23,27.14,1.76,7.38,3.13,14.86,4.41,22.33.96,5.61,1.53,11.3,2.25,16.95.08.59.01,1.2-.38,1.99-.23-.36-.56-.7-.67-1.09-2.32-8.27-4.68-16.52-6.91-24.81-3.34-12.38-6.5-24.81-9.89-37.18-2.8-10.23-5.74-20.42-8.75-30.6-1.18-4-2.56-7.96-4.1-11.84-5.3-13.32-10.68-26.6-16.08-39.87-2.43-5.97-5.34-11.76-7.35-17.86-1.57-4.78-2.18-9.89-3.07-14.88-.86-4.83-1.5-9.7-3.7-14.18-.2-.41-.15-.95-.36-1.35-.21-.4-.58-.75-.95-1.01-.44-.32-1.03-.45-1.43-.8-1.07-.91-2.15-1.87-1.16-2.91-1.3-.91-2.54-1.52-3.46-2.46-3.74-3.8-7.56-7.56-12.31-10.01-2.6-1.34-5.58-2.01-8.44-2.75-3.23-.83-6.52-1.43-9.79-2.08-7.1-1.4-14.19-2.82-21.3-4.15-4.88-.91-9.79-1.66-14.68-2.53-5.99-1.07-12.03-2-17.95-3.39-3.87-.9-7.54-2.65-11.38-3.74-3.9-1.1-7.86-2.36-11.86-2.63-5.12-.34-10.07,1.25-14.69,3.56-8.35,4.17-16.66,8.41-24.98,12.65-6.98,3.56-13.86,7.33-20.94,10.68-8.62,4.07-17.42,7.78-26.14,11.65-.68.3-1.36.61-2.04.92.04.15.08.3.12.45.53-.12,1.06-.23,1.59-.36,2.55-.64,4.55.84,4.87,3.43.32,2.61-.63,4.54-2.66,6.14-5.68,4.47-11.9,8.02-18.48,10.96-3.18,1.42-6.43,2.73-9.69,3.95-2.72,1.02-4.02.31-4.99-2.45-1.57-4.47-.42-7.6,4.27-10.24,3.08-1.73,6.43-2.98,9.67-4.43,2.17-.97,4.36-1.91,6.54-2.86-.06-.15-.12-.3-.18-.44-1.32.45-2.65.87-3.96,1.36-7.95,3.01-16.25,3.52-24.59,2.94-5.04-.35-10.16-1.24-14.69-3.66-4.68-2.5-9.23-5.31-13.61-8.32-6.92-4.74-13.86-9.51-20.39-14.75-4.16-3.34-7.81-7.39-11.32-11.43-2.93-3.38-5.34-7.22-7.95-10.88-.43-.61-.71-1.33-.76-2.24.45.47.87.96,1.34,1.41,6.93,6.69,13.62,13.67,20.88,19.99,7.37,6.42,15.31,12.22,24.37,16.14,4.94,2.14,9.93,4.26,15.09,5.71,4.18,1.17,8.63,1.73,12.98,1.84,6.59.16,12.97-1.34,18.94-4.21,6.29-3.03,12.77-5.76,18.76-9.29,5.6-3.3,11.1-7.02,15.9-11.37,7.79-7.07,14.99-14.77,22.38-22.27,3.09-3.14,6.05-6.41,9.01-9.68,5.27-5.82,10.51-11.65,15.71-17.52,4.17-4.71,8.39-9.38,12.38-14.25,5.46-6.66,10.82-13.42,14.93-21.05.69-1.28,1.52-2.48,2.28-3.72.14.07.27.13.41.2Zm6.06-67.93c-.5.37-1.1.73-1.6,1.19-6.2,5.72-8.25,13.05-6.84,21.01,1.23,6.95,2.99,13.94,5.55,20.51,4.33,11.12,9.49,21.9,14.25,32.85,2.76,6.35,5.69,12.65,8.08,19.14,3.28,8.89,6.14,17.93,9.14,26.93,2.49,7.48,4.93,14.98,7.36,22.47.88,2.71,1.95,5.17,5.36,5.29.29.01.57.18.86.27,2.78.91,5.52,2,8.36,2.68,5.63,1.34,11.39,2.19,16.96,3.74,5.52,1.54,10.95,1.1,16.48.46.58-2.3-.52-4.24-1.65-6.04-2.86-4.58-5.84-9.09-8.82-13.59-3.9-5.88-7.74-11.79-10.24-18.45-2.98-7.96-5.86-15.97-9.08-23.83-5.26-12.81-11.55-25.1-19.3-36.62-3.57-5.31-7.23-10.59-10.34-16.17-2.55-4.56-4.34-9.54-6.48-14.33-.37-.84-.47-1.85-1.84-1.89-4.04-.11-6.34-2.56-7.82-6.04-2.74-6.43-5.5-12.85-8.38-19.58Zm-118.87,196.49c-.61-2.23.23-3.71,1.58-4.57-1.37-1.19-2.63-2.28-4.03-3.49-.72,1.39-2,2.64-4.43,2.39,2,1.4,1.96,3.17,1.21,5.06q3.28-.41,5.68.61Z"/>
    <path class="first-color" d="m459.18,356.01c3.99.76,7.7.49,11.26-1.12,4.6-2.08,9.4-3.38,14.42-4.08,2.86-.4,5.7-1.39,8.37-2.53,2.98-1.27,4.25-.67,5.92,2.89,1.75,3.75,3.12,7.71,6.52,10.4,1.27,1,2.59,1.97,3.94,2.85,3.09,2.01,4.28,5.12,4.84,8.49,1.89,11.56,5.18,22.58,11.56,32.57,2.47,3.87,4.22,8.18,6.53,12.17,2.21,3.81,5.31,6.85,9.08,9.18,2.65,1.63,5.32,3.24,7.94,4.91.72.46,1.3,1.15,2.31,2.05-5.27.76-9.22-.63-12.84-3.47-8.45-6.61-13.7-15.47-17.98-25.07-3.01-6.76-5.46-13.69-7.79-20.71-2.42-7.29-6.13-14.03-11.33-19.86-1.49-1.67-2.56-3.75-3.6-5.76-1.41-2.75-2.61-5.61-3.84-8.31-8.89,2.32-16.71,7.37-26.07,7.35.04.2.08.39.12.59,4.09,0,8.18.07,12.26-.03,1.46-.04,2.46.3,2.95,1.95-2.07.44-4.14,1.13-6.23,1.26-4.32.26-8.68.51-12.61-2.08-2.32-1.53-3.72-.99-3.93,1.75-.3,3.97-2.4,7.1-4.05,10.46-1.89,3.86-3.91,7.66-5.93,11.59,8.48,5.7,13.76,14.01,18.64,22.74,6.37,11.39,13.03,22.63,19.66,33.88,2.98,5.06,7.23,9.02,11.87,12.55,8.33,6.33,16.68,12.62,25.09,18.85,2.58,1.91,5.34,3.58,7.8,5.72-1.93-1.11-3.89-2.19-5.8-3.35-6.58-4.02-13.17-8.03-19.7-12.13-7.08-4.45-14.09-9.05-19.58-15.49-6.16-7.23-11.26-15.11-15.1-23.89-2.52-5.75-5.8-11.2-9.1-16.56-4.45-7.23-9.25-14.25-14.23-21.88-.94,2.01-1.92,3.58-2.41,5.28-1.68,5.78-3.09,11.64-4.79,17.41-2.87,9.75-6.6,19.05-14.45,26.06-3.01,2.69-6.52,4.24-10.51,4.61-1.05.1-1.5.43-1.72,1.39-.41,1.76-.86,3.51-1.38,5.24-1.63,5.44-2.53,4.98-7.2,4.61-2.99-.24-3.25-.49-2.91-3.49.56-4.97,1.37-9.92,2.35-14.83.8-4.01,1.93-7.96,3.04-11.91.37-1.31,1-2.6,1.74-3.75,1.47-2.31,4.45-3.44,7-2.68,1.4.42,2.3,1.51,2.14,3-.37,3.48-.79,6.96-1.41,10.4-.59,3.25-1.46,6.44-2.26,9.91,2.97-.86,5.13-2.55,6.98-4.68,5.72-6.61,9.97-14.13,12.88-22.32,1.59-4.47,2.6-9.18,3.5-13.86.75-3.88,1.97-7.57,3.98-10.89,2.98-4.92,6.38-9.57,9.49-14.41,2.25-3.5,3.72-7.33,4.12-11.53.05-.5.31-.99.46-1.45Zm-47.13,77.77c-1.7,1.02-3.14,1.88-4.7,2.82,1.52,1.02,1.46,2.82,1.13,4.93,1.92-1.78,3.52-.44,5.54.45-.84-2.42.17-3.81,2.07-5.24-2.48-.2-3.78-1.18-4.04-2.97Z"/>
    <path class="first-color" d="m474.81,323.41c-2.63,1.01-5.21,2.24-7.92,2.99-6.26,1.73-12.56,3.32-18.88,4.78-4.19.96-7.28,3.28-9.64,6.75-.37.54-.74,1.09-1.11,1.63.88.82,1.73,1.62,2.73,2.55.65-.79,1.33-1.58,1.98-2.39,4.26-5.3,9.81-8.3,16.51-9.22,7.77-1.07,14.63-4.77,21.82-7.52,7.41-2.84,14.89-5.49,22.35-8.16,2.9-1.04,5.85-1.92,8.78-2.87.06.13.13.27.19.4-1.53.79-3.02,1.69-4.6,2.35-7.83,3.28-15.61,6.72-23.56,9.67-7.1,2.63-14.41,4.72-21.64,7.01-3.35,1.06-6.84,1.77-10.06,3.11-5.78,2.41-9.76,6.61-11.79,12.7-2.82,8.45-6.4,16.56-11.02,24.24-4.12,6.85-6.54,14.45-8.56,22.16-.8,3.06-1.54,6.14-2.43,9.72-.23-.84-.46-1.24-.42-1.61.31-2.8.54-5.63,1.06-8.39.5-2.63,1.26-5.21,2-7.78,1.01-3.49,1.95-7.02,3.25-10.41.84-2.2,2.24-4.19,3.46-6.23,3.54-5.93,6.16-12.26,8.44-18.76.65-1.85,1.59-3.62,2.6-5.31.75-1.24.81-2.02-.61-2.67-.59-.27-1.1-.71-1.69-1.11-4.95,6.24-12.08,10.49-16.13,17.89,3.2.6,5.93,1.91,7.67,5.04-2.73.18-5.05-.75-7.27-1.78-1.58-.73-2.44-.76-3.26,1.07-2.8,6.2-5.78,12.32-8.68,18.48-3.42,7.27-7.8,13.84-14.01,19.02-3.59,2.99-7.49,5.55-12.22,6.47-2.58.5-4.97.1-7.71-1.56,1.51-.32,2.5-.68,3.5-.72,4.19-.14,7.26-2.59,10.32-4.98,11.21-8.73,18.1-20.52,23.43-33.38,2.01-4.85,4.7-9.23,8.18-13.22,5.71-6.53,11.13-13.3,16.77-19.88.84-.98,2.13-1.84,3.37-2.18,8.47-2.28,16.97-4.43,25.48-6.57,2.77-.7,5.58-1.27,8.38-1.87.25-.05.53.06.8.09.04.16.08.31.12.47Z"/>
    <path class="first-color" d="m340.91,323.54c1.97,0,3.96-.17,5.91.03,9.42.93,17.93-2.24,26.15-6.11,4.29-2.02,8.15-4.97,12.1-7.66,3.86-2.62,7.94-4.7,12.46-5.84,6.29-1.58,12.31-3.83,18.15-6.65,7.56-3.65,15.55-6.27,23.83-7.51,4.9-.73,9.99-.13,14.99-.11.12,0,.24.24.56.57-.53.17-.92.4-1.32.42-11.82.62-23.15,3.44-34.14,7.71-4.12,1.61-8.14,3.5-12.29,5.01-3.53,1.29-7.19,2.22-10.79,3.33-.55.17-1.05.47-2.03.93,1.12.34,1.84.42,2.4.76,3.95,2.34,7.96,4.61,11.75,7.19,1.08.73,1.53,2.4,2.27,3.63-.16.11-.33.22-.49.33-2.77-1.81-5.48-3.75-8.35-5.4-1.94-1.12-4.12-1.82-6.18-2.74-.82-.36-1.83-.61-2.36-1.24-1.15-1.37-2.05-.71-3.04.04-.58.44-1.25.8-1.69,1.35-3.69,4.61-9.45,5.76-14.21,8.59-.82.49-1.73.83-2.69,1.28,6.4,8.19,12.68,16.38,22.2,21.26l-.32.64c-1.69-.47-3.42-.82-5.06-1.43-8.35-3.13-14.45-9.15-20.12-15.72-.16-.18-.34-.37-.41-.59-.54-1.79-1.43-1.7-3.05-1.08-1.92.73-4.09.86-6.16,1.14-3.68.51-7.36,1.04-11.06,1.34-1.03.08-2.16-.5-3.18-.93-1.38-.58-2.69-1.32-4.03-1.99.06-.19.13-.39.19-.58Z"/>
    <path class="first-color" d="m509.85,291.63c-2.33.18-4.65.39-6.98.52-6.63.39-13.27.74-19.91,1.11-4.16.23-8.32.51-12.48.71-8.16.39-16.34.51-24.47,1.17-6.56.53-11.88,3.53-16.44,8.57-9.32,10.31-16.8,21.93-24.5,33.38-5.84,8.68-11.41,17.55-16.88,26.48-2.7,4.41-4.89,9.14-7.52,14.12-.14-4.11.93-7.4,2.67-10.58,2.52-4.62,5.03-9.27,7.28-14.03,3.04-6.45,7.6-11.87,11.58-17.68,3.59-5.25,7.37-10.37,11.26-15.4,2.91-3.77,6.19-7.24,9.16-10.96,1.9-2.38,3.51-5,5.31-7.46,3.89-5.31,9.23-8.09,15.7-8.67,7.38-.66,14.77-1.36,22.17-1.68,4.27-.19,8.58.42,12.87.53,4.25.11,8.51.11,12.76.02,5.88-.12,11.75-.37,17.62-.55.28,0,.57.06.85.09-.02.1-.03.2-.05.3Z"/>
    <path class="first-color" d="m382.5,386.81c.07,4.08-2.05,7.78-4.02,11.51-3.18,6.01-7.33,11.48-9.69,17.96-.98,2.68-2.13,2.9-4.65,1.6-1.23-.63-2.42-1.34-3.61-2.04-1.85-1.09-2.35-2-1.53-4.05,1.37-3.4,2.9-6.74,4.55-10.01,2.72-5.38,5.56-10.69,8.43-15.99.62-1.15,1.47-2.21,2.35-3.19,1.79-2,3.37-2.36,5.66-1.42,2.05.84,2.61,2.52,2.52,4.56-.01.24,0,.49,0,1.08Zm-10.78,19.14c-2.55-.29-3.9-1.4-4.63-3.41-.83,2.11-2.53,2.57-3.91,2.68.4,1.81.75,3.4,1.13,5.17,1.54-1.17,3.19-.5,5.04.63-.88-2.34.24-3.69,2.38-5.07Z"/>
    <path class="first-color" d="m470.13,395.18c-.51-.88-1.2-1.7-1.5-2.64-1.83-5.62-2.09-11.35-.34-16.99.75-2.42,2.24-4.64,3.53-6.87.32-.55,1.15-.79,1.96-1.01-1.62,9.11-3.77,18.01-2.93,27.26-.23.08-.47.16-.7.25Z"/>
    <path class="first-color" d="m525.09,311.39c5.72-2.79,16.54,2.13,18.16,11.13-5.25-5.3-10.87-9.25-18.16-11.13Z"/>
    <path class="first-color" d="m539.2,299.36c-4.21-2.37-8.43-4.74-12.64-7.11.07-.16.14-.31.21-.47,1.01.38,2.01.79,3.03,1.12,2.04.64,4.1,1.18,6.13,1.86,1.97.66,3.26,2,3.72,4.02-.15.2-.3.39-.45.59Z"/>
  </g>
  <text class="cls-1-e01tt second-color" transform="translate(82.65 561.8)">
	  <tspan x="0" y="0" id="span_svg_logo_envie.71a80d86-82c8-4550-acac-046191b226db_17">NAME TEXT</tspan>	 
  </text>
</svg>