<svg id="Layer_1" data-name="Layer 1" xmlns="http://www.w3.org/2000/svg" viewBox="0 0 700 700">
  <defs>
    <style>
      .cls-3-l06tt {
        font-family: ArialMT, Arial;
        font-size: 100px;
      }
    </style>
  </defs>
  <g>
    <path class="first-color" d="m502.59,256.95l-49.95-30.41-100.89-14.04-.17-.02-94.63,13.61-56.08,30.42-40.99,54.94,101.11,148.92-90.69-147.33,71.96-20.96,5.64,64.16,47.27,104.02-39.23-106.12,88.32-38.65,7.33,144.1h0s6.72-144.45,6.72-144.45l89.11,39.08-34.38,105.99,42.07-103.74,5.81-64.39,72,20.97-87.21,147.3,95.73-146.84,1.85-2.09-40.7-54.48Zm-328.69,47.98l32.53-38.88,30.85,20.42-63.39,18.46Zm80.02,42.38l-4.57-52.05,90.31,10.66-85.74,41.39Zm195.35,0l-85.77-41.41,90.36-10.91-4.59,52.32Zm6.52-62.89l-.95-.21-.04.75-103.2,14.94-103.23-14.95-.08-.81-.92.26-33.59-23.78,46.05-23.85,91.78-12.5,96.74,12.5,41.27,23.7-33.83,23.95Zm10.73,2.23l32.09-18.6,30.73,36.9-62.82-18.3Z"/>
    <path class="first-color" d="m463.2,213.67l39.93-30.09c1.25,1.65,3.2,2.73,5.43,2.73,3.77,0,6.83-3.06,6.83-6.83s-3.06-6.83-6.83-6.83-6.83,3.06-6.83,6.83c0,1.34.4,2.59,1.07,3.64-9,5.27-27.44,14.33-47.06,13.61-21.42-.79-15.45-44.96-11.77-64.47.62.13,1.26.2,1.91.2,5.14,0,9.3-4.17,9.3-9.3s-4.17-9.3-9.3-9.3-9.3,4.17-9.3,9.3c0,3.65,2.12,6.78,5.19,8.3-8.29,15.66-28.02,47.64-48.86,42.95-20.99-4.72-33.55-54.44-38-81.21,5.9-.9,10.43-5.94,10.43-12.09,0-6.78-5.49-12.27-12.27-12.27s-12.27,5.49-12.27,12.27c0,6.15,4.53,11.19,10.43,12.09-4.45,26.78-17.01,76.49-38,81.21-20.84,4.69-40.57-27.28-48.86-42.95,3.06-1.52,5.19-4.65,5.19-8.3,0-5.14-4.17-9.3-9.3-9.3s-9.3,4.17-9.3,9.3,4.17,9.3,9.3,9.3c.66,0,1.3-.07,1.91-.2,3.69,19.51,9.65,63.68-11.77,64.47-19.89.74-39.9-8.59-49.49-13.82.59-1.01.96-2.17.96-3.43,0-3.77-3.06-6.83-6.83-6.83s-6.83,3.06-6.83,6.83,3.06,6.83,6.83,6.83c2.31,0,4.34-1.15,5.58-2.91l42.08,29.52s86.21-19.57,112.12-17.98c25.91,1.59,69.23,6.26,108.38,18.73Z"/>
  </g>
  <text class="cls-3-l06tt second-color" transform="translate(111.94 556.7)">
	<tspan x="0" y="0" id="span_svg_logo_envie.5a7b1dc7-c105-466b-8a5e-0ea46169bd4a_26">Name Text</tspan>	
  </text>
  <g>
    <path class="second-color" d="m255.42,579.73v37.6h-1.94l-26.14-32.49v32.49h-2.04v-37.6h3.07l25.07,31.14v-31.14h1.99Z"/>
    <path class="second-color" d="m285.05,617.12c-1.08.65-2.26.97-3.6.97-2.1,0-3.28-1.13-3.55-3.39-1.67,2.31-3.98,3.5-6.94,3.5-1.78,0-3.33-.48-4.63-1.51-1.67-1.4-2.53-3.28-2.53-5.59,0-7.26,7.21-9.14,13.18-9.14h.81v-3.71c0-3.87-1.78-5.81-5.33-5.81-2.58,0-4.95.97-7.1,2.85v-1.83c2.21-1.72,4.84-2.58,7.96-2.58,4.95,0,8.39,2.31,8.39,7.91v15.33c0,1.51.59,2.26,1.72,2.26.43,0,.97-.16,1.61-.43v1.18Zm-7.26-13.66c-6.88,0-9.95,2.9-9.95,7.37,0,3.23,1.99,5.54,4.57,5.54,2.26,0,4.03-1.18,5.38-3.5v-9.41Z"/>
    <path class="second-color" d="m293.01,585.01c-2.21,0-3.33-2.74-1.83-4.36,1.56-1.56,4.46-.43,4.46,1.83,0,1.34-1.18,2.53-2.64,2.53Zm1.99,6.67v25.66h-3.98v-25.66h3.98Z"/>
    <path class="second-color" d="m307.91,579.73v37.6h-3.98v-37.6h3.98Z"/>
    <path class="second-color" d="m328.19,616.26c-1.88,1.34-3.87,1.99-6.08,1.99-2.85,0-5.22-.59-7.1-1.72v-3.39c2.15,2.74,3.98,3.55,7.05,3.55,3.44,0,5.7-2.26,5.7-5.06,0-2.37-1.08-3.77-3.71-5.11l-4.41-2.21c-2.96-1.45-4.41-3.6-4.41-6.4,0-.38,0-.7.05-.92.22-2.1,1.13-3.66,2.74-4.68,1.67-1.02,3.55-1.56,5.65-1.56,2.53,0,4.57.48,6.19,1.45v2.58c-1.83-1.67-3.82-2.47-5.97-2.47-2.8,0-5.11,1.77-5.11,4.41,0,1.88,1.13,3.39,3.33,4.52l4.3,2.15c3.07,1.56,4.57,3.87,4.57,7.05,0,2.53-.91,4.46-2.8,5.81Z"/>
    <path class="second-color" d="m382.73,617.33h-5.22l-3.01-3.5c-3.39,2.74-6.99,4.14-10.86,4.14-3.6,0-6.51-1.02-8.61-3.07-2.1-2.1-3.17-4.62-3.17-7.58,0-4.2,2.63-7.69,7.96-10.43-2.69-3.28-4.03-6.4-4.03-9.36,0-2.42.86-4.46,2.64-6.19,1.78-1.72,4.03-2.58,6.78-2.58,2.9,0,5,.75,6.35,2.26,1.34,1.45,2.04,3.17,2.04,5.11,0,4.03-2.42,6.78-9.04,10.06l11.4,13.23c1.45-2.15,2.15-5.33,2.15-9.47,0-.81-.05-2.04-.22-3.71h3.39c.05.48.05,1.18.05,2.1,0,4.9-1.34,9.14-3.98,12.75l5.38,6.24Zm-21.73-19.15c-3.28,1.72-4.95,4.63-4.95,8.66,0,2.26.81,4.36,2.37,6.24,1.61,1.88,3.66,2.8,6.19,2.8,3.28,0,6.13-1.13,8.61-3.39l-12.21-14.31Zm3.98-17.8c-3.17,0-5.49,2.58-5.49,6.24,0,2.74,1.29,5.49,3.82,8.23l.11.16c4.46-2.15,6.46-4.68,6.46-8.5,0-3.39-1.88-6.13-4.89-6.13Z"/>
    <path class="second-color" d="m419.79,615.45c-2.1,1.78-4.68,2.69-7.85,2.69-3.6,0-6.56-.75-8.93-2.31v-3.44c2.58,2.69,5.59,4.03,8.98,4.03,4.46,0,7.21-2.85,7.21-7.32-.22-2.74-.92-4.36-2.91-5.97-.7-.59-1.29-1.08-1.72-1.34l-2.1-1.29-1.94-1.24c-1.34-.86-2.31-1.51-2.96-1.99-.59-.48-1.34-1.13-2.26-2.04-1.72-1.78-2.37-3.87-2.37-6.67s1.02-5.22,3.07-6.88c2.1-1.72,4.63-2.58,7.58-2.58s5.65.65,7.69,1.88v2.69c-2.1-1.94-4.63-2.9-7.69-2.9-1.99,0-3.71.65-5.11,1.94-1.34,1.29-2.04,2.96-1.99,4.95,0,.75.11,1.45.32,2.1.48,1.29.65,1.83,1.94,2.9l1.29,1.08c.27.16.86.48,1.78,1.08l1.67.97c3.01,1.88,4.95,3.23,5.86,4.03,2.37,2.21,3.55,4.95,3.55,8.23s-1.02,5.59-3.12,7.42Z"/>
    <path class="second-color" d="m449.59,613.94c-2.37,2.8-5.7,4.2-10,4.2-1.94,0-3.66-.38-5.11-1.08v14.09h-3.93l-.05-39.48h3.98v2.53c1.99-2.31,4.57-3.44,7.8-3.44s5.7,1.02,7.58,3.01c2.21,2.31,3.33,5.75,3.33,10.22,0,3.82-1.18,7.1-3.6,9.95Zm-8.61-21.51c-2.63,0-4.79,1.18-6.51,3.6v19.26c1.56.81,3.28,1.24,5.16,1.24,5.59,0,9.25-4.63,9.25-12.53,0-7.1-2.8-11.56-7.91-11.56Z"/>
    <path class="second-color" d="m479.17,617.12c-1.08.65-2.26.97-3.6.97-2.1,0-3.28-1.13-3.55-3.39-1.67,2.31-3.98,3.5-6.94,3.5-1.78,0-3.33-.48-4.63-1.51-1.67-1.4-2.53-3.28-2.53-5.59,0-7.26,7.21-9.14,13.18-9.14h.81v-3.71c0-3.87-1.78-5.81-5.33-5.81-2.58,0-4.95.97-7.1,2.85v-1.83c2.21-1.72,4.84-2.58,7.96-2.58,4.95,0,8.39,2.31,8.39,7.91v15.33c0,1.51.59,2.26,1.72,2.26.43,0,.97-.16,1.61-.43v1.18Zm-7.26-13.66c-6.88,0-9.95,2.9-9.95,7.37,0,3.23,1.99,5.54,4.57,5.54,2.26,0,4.03-1.18,5.38-3.5v-9.41Z"/>
  </g>
</svg>