<svg id="Layer_1" data-name="Layer 1" xmlns="http://www.w3.org/2000/svg" viewBox="0 0 700 700">
  <defs>
    <style>
      .cls-1-e01sn {
        font-family: ArialMT, Arial;
        font-size: 62px;
      }

      .cls-2-e01sn {
        letter-spacing: -.02em;
      }

      .cls-3-e01sn {
        fill: #231f20;
      }
    </style>
  </defs>
  <g>
    <g>
      <path class="cls-3-e01sn first-color" d="m525.26,382.72c-3.87,6.98-10.25,10.96-17.09,15.19.24-1.76.43-3.06.6-4.36.62-4.67.52-9.29-1.04-13.78-2.26-6.49-5.49-12.5-9.23-18.25-7.3-11.26-14.94-22.26-24.23-32-2.15-2.26-4.08-4.86-7.13-6.07-1.63-.65-3.06.33-2.96,2.05.04.68.27,1.39.6,1.99.8,1.45.9,2.77.14,4.35-1.83,3.81-1.83,7.7-.24,11.67,1.45,3.61,3.14,7.1,5.22,10.35,3.03,4.74,5.58,9.81,9.28,14.1-3.61-2.36-7.22-4.51-11.02-6.35-3.6-1.75-7.18-3.74-10.92-4.97-5.38-1.77-10.81-3.7-16.55-4.18-1.47-.12-2.94-.01-4.38.33-1.97.47-2.31,1.31-1.22,2.98.93,1.43,2.45,2.06,3.83,2.88.77.46,1.58.78,1.85,1.84.99,3.93,3.59,6.51,6.96,8.62,4.08,2.55,8.64,4.12,12.67,6.71,9.05,5.83,10.12,8.76,9.18,18.86-1.38-5.29-4.92-8.14-9.13-10.38-1.18-.63-2.4-1.19-3.6-1.77-7.58-3.63-15.74-5.72-23.5-8.86-2.94-1.19-6.18-1.4-9.38-1.34-1.33.02-3.01-.21-3.47,1.32-.44,1.46.82,2.57,1.83,3.57.25.24.48.52.78.69,2.63,1.54,4.34,3.88,5.82,6.46,2.19,3.83,5.32,6.75,9.2,8.81,2.42,1.28,4.93,2.41,7.41,3.58,1.37.65,2.51,1.52,3.36,2.79,3.02,4.5,1.7,10.22-3.08,13.97-4.1,3.22-8.85,4.9-13.81,6.1-7.3,1.77-14.89,2.19-21.97,4.99-5.85,2.32-11.67,4.66-16.58,8.72-7.79,6.43-12.43,14.89-14.98,24.46-1.73,6.49-4.35,12.38-9.27,16.99-3.41,3.19-3.7,6.9-2.73,11.03,1.56,6.68,5.23,12.13,10.1,16.79,3.71,3.55,8.02,6.23,13.13,7.27,3.7.75,5.01.04,6.72-3.28,2.97-5.76,6.16-11.38,10.24-16.45,9.84-12.24,22.72-20.01,37.23-25.35,10.35-3.81,21.21-5.44,32.01-7.27,13-2.21,24.08-7.94,32.98-17.79,5.82-6.44,10.8-13.51,15.8-20.57,8.42-11.9,16.72-23.83,21.76-37.74,4.22-11.65,9.49-22.92,12.72-34.95.52-1.92.94-3.84.71-5.84-.09-.76-.35-1.61-1.15-1.89-.8-.28-1.46.19-2.01.8-.66.73-1.51,1.33-1.99,2.15-.66,1.13-1.51,1.6-2.78,1.88-3.56.8-6.7,2.46-9.44,4.93-4.64,4.18-7.19,9.68-9.57,15.24-2.69,6.27-4.38,12.94-7.73,18.97Zm26.14-36.18c-2.82,4.92-2.83,10.41-4.17,15.56-.41,1.56-.09,3.05,1.44,3.8.85.42.72.75.48,1.4-6.37,17.64-14.38,34.39-25.93,49.33-5.11,6.62-9.7,13.62-15.17,19.98-8.69,10.11-19.63,15.98-32.68,18.18-10.73,1.8-21.51,3.48-31.8,7.19-12.4,4.47-23.77,10.72-33.25,20.06-5.35,5.27-9.76,11.26-13.4,17.83-.58,1.05-1.13,2.11-1.69,3.17-2.63,4.96-3.75,5.32-8.92,2.81-8.37-4.07-13.95-10.57-16.78-19.4-1.19-3.72-1.24-7.19,2.08-10.23,5.39-4.93,7.91-11.45,9.8-18.37,2.56-9.39,7.19-17.69,15.29-23.42,8.18-5.79,17.5-8.93,27.39-10.45,6.75-1.03,13.44-2.36,19.53-5.72,3.59-1.98,6.73-4.54,8.66-8.11,1.8-3.32,1.42-6.94-.11-10.39-1.61-3.64-4.78-5.38-8.24-6.81-4.2-1.74-8.13-3.91-10.98-7.6-.67-.87-1.24-1.81-1.98-2.91,2.51.18,4.68,1.01,6.89,1.6,3.92,1.03,5.04.44,6.14-3.57,5.67,1.92,11.16,4.17,16.45,6.99,4.72,2.52,6.25,6.98,7.9,11.51,1.05,2.86.65,5.7.21,8.55-.78,5.03-1.82,10-3.92,14.69-.37.82-1.09,1.98.2,2.55,1.13.49,1.78-.52,2.24-1.42,1.51-2.9,2.38-6.04,3.05-9.21,1.7-8.03,2.47-16.16,2.56-24.38.06-6-2.61-10.35-7.24-13.79-3.12-2.31-6.44-4.27-9.99-5.85-3.29-1.47-6.38-3.25-9.23-5.47-1.04-.81-1.64-1.85-2.32-3.31,3.86.74,7.33,1.34,10.77,2.08,1.87.4,3.36-.04,4.48-1.54.44-.59.77-.91,1.53-.59,8.08,3.43,15.76,7.51,22.19,13.59,3.95,3.73,4.8,8.64,4.69,13.76-.15,7.46-1.85,14.7-3.3,21.97-1.06,5.33-2.06,10.68-3.1,16.02-.2,1.01-.42,2.2.76,2.53,1.35.37,1.78-.82,1.99-1.91,1.61-8.32,3.18-16.65,4.81-24.97.84-4.31,1.44-8.64,1.59-13.02.16-4.72-1.13-9.01-2.93-13.43-2.15-5.26-6.13-9.04-8.99-13.67-4.14-6.7-8.81-13.1-11.47-20.64-1.06-3.01-.77-5.76.74-8.94,1.22,1.81,2.28,3.43,3.39,5,1.34,1.9,2.75,3.76,4.09,5.66,1.98,2.82,5.29,2.65,7.07-.22,2.62,3.58,5.28,7,7.71,10.58,4.25,6.24,8.28,12.62,11.93,19.24,4.9,8.89,5.32,18.16,2.95,27.84-2.05,8.37-3.76,16.82-5.63,25.23-.23,1.05-.66,2.3.75,2.66,1.45.37,1.65-1,1.91-2,2.05-7.86,3.57-15.84,5.27-23.78.18-.83.34-1.47,1.38-2.03,7.06-3.78,13.78-8.09,18.14-15.1,2.91-4.68,5.08-9.72,6.68-15,1.57-5.16,3.93-9.95,6.61-14.61,2.6-4.53,6.29-7.67,11.44-9.47Z"/>
      <path class="cls-3-e01sn first-color" d="m167.02,363.74c-2.38-5.56-4.92-11.06-9.57-15.24-2.74-2.47-5.88-4.13-9.44-4.93-1.26-.28-2.11-.75-2.78-1.88-.48-.82-1.33-1.43-1.99-2.15-.55-.6-1.21-1.08-2.01-.8-.81.28-1.06,1.13-1.15,1.89-.24,1.99.19,3.91.71,5.84,3.23,12.02,8.5,23.29,12.72,34.95,5.04,13.91,13.33,25.84,21.76,37.74,5,7.06,9.98,14.13,15.8,20.57,8.9,9.85,19.98,15.58,32.98,17.79,10.81,1.84,21.67,3.47,32.01,7.27,14.51,5.34,27.4,13.11,37.23,25.35,4.08,5.08,7.27,10.69,10.24,16.45,1.71,3.32,3.02,4.03,6.72,3.28,5.11-1.04,9.42-3.72,13.13-7.27,4.87-4.65,8.54-10.11,10.1-16.79.97-4.13.68-7.83-2.73-11.03-4.91-4.6-7.54-10.5-9.27-16.99-2.55-9.57-7.19-18.03-14.98-24.46-4.91-4.06-10.73-6.41-16.58-8.72-7.07-2.8-14.67-3.23-21.97-4.99-4.96-1.2-9.7-2.88-13.81-6.1-4.78-3.75-6.1-9.47-3.08-13.97.85-1.27,2-2.15,3.36-2.79,2.48-1.17,4.99-2.3,7.41-3.58,3.89-2.06,7.01-4.98,9.2-8.81,1.48-2.59,3.19-4.92,5.82-6.46.29-.17.53-.45.78-.69,1.01-1,2.27-2.11,1.83-3.57-.46-1.53-2.14-1.29-3.47-1.32-3.2-.05-6.44.16-9.38,1.34-7.77,3.14-15.93,5.23-23.5,8.86-1.21.58-2.42,1.15-3.6,1.77-4.2,2.24-7.75,5.09-9.13,10.38-.94-10.1.13-13.03,9.18-18.86,4.03-2.6,8.6-4.17,12.67-6.71,3.38-2.11,5.97-4.69,6.96-8.62.27-1.06,1.08-1.37,1.85-1.84,1.38-.83,2.9-1.46,3.83-2.88,1.09-1.67.75-2.51-1.22-2.98-1.44-.34-2.91-.46-4.38-.33-5.74.48-11.17,2.41-16.55,4.18-3.74,1.23-7.31,3.22-10.92,4.97-3.79,1.84-7.41,3.99-11.02,6.35,3.7-4.29,6.25-9.36,9.28-14.1,2.08-3.25,3.76-6.75,5.22-10.35,1.6-3.97,1.6-7.85-.24-11.67-.76-1.57-.65-2.9.14-4.35.33-.6.57-1.31.6-1.99.09-1.73-1.34-2.7-2.96-2.05-3.06,1.21-4.98,3.82-7.13,6.07-9.29,9.74-16.93,20.74-24.23,32-3.73,5.75-6.97,11.76-9.23,18.25-1.56,4.49-1.66,9.11-1.04,13.78.17,1.3.36,2.61.6,4.36-6.84-4.24-13.22-8.21-17.09-15.19-3.34-6.04-5.04-12.7-7.73-18.97Zm-6.98-7.73c2.68,4.67,5.04,9.46,6.61,14.61,1.61,5.28,3.78,10.32,6.68,15,4.36,7.01,11.08,11.32,18.14,15.1,1.04.56,1.2,1.2,1.38,2.03,1.7,7.94,3.22,15.92,5.27,23.78.26,1,.46,2.37,1.91,2,1.42-.36.99-1.61.75-2.66-1.87-8.41-3.58-16.86-5.63-25.23-2.37-9.68-1.95-18.95,2.95-27.84,3.65-6.62,7.68-13,11.93-19.24,2.44-3.58,5.09-7,7.71-10.58,1.78,2.87,5.1,3.04,7.07.22,1.33-1.91,2.75-3.76,4.09-5.66,1.11-1.57,2.16-3.19,3.39-5,1.51,3.19,1.8,5.94.74,8.94-2.66,7.55-7.32,13.94-11.47,20.64-2.86,4.63-6.85,8.42-8.99,13.67-1.8,4.42-3.1,8.7-2.93,13.43.15,4.39.75,8.72,1.59,13.02,1.63,8.32,3.2,16.65,4.81,24.97.21,1.08.65,2.28,1.99,1.91,1.18-.33.96-1.52.76-2.53-1.04-5.34-2.04-10.68-3.1-16.02-1.45-7.27-3.14-14.52-3.3-21.97-.11-5.12.75-10.03,4.69-13.76,6.43-6.08,14.11-10.17,22.19-13.59.76-.32,1.09,0,1.53.59,1.12,1.5,2.61,1.93,4.48,1.54,3.44-.74,6.91-1.34,10.77-2.08-.68,1.46-1.28,2.5-2.32,3.31-2.85,2.22-5.94,4-9.23,5.47-3.54,1.58-6.87,3.54-9.99,5.85-4.63,3.43-7.3,7.78-7.24,13.79.09,8.22.86,16.35,2.56,24.38.67,3.18,1.54,6.31,3.05,9.21.46.89,1.11,1.91,2.24,1.42,1.29-.56.57-1.73.2-2.55-2.1-4.69-3.14-9.65-3.92-14.69-.44-2.85-.84-5.68.21-8.55,1.65-4.53,3.18-8.99,7.9-11.51,5.29-2.82,10.79-5.07,16.45-6.99,1.1,4.01,2.22,4.6,6.14,3.57,2.21-.58,4.38-1.42,6.89-1.6-.74,1.1-1.31,2.04-1.98,2.91-2.86,3.68-6.78,5.86-10.98,7.6-3.46,1.43-6.63,3.17-8.24,6.81-1.53,3.45-1.9,7.07-.11,10.39,1.94,3.57,5.08,6.14,8.66,8.11,6.09,3.36,12.77,4.69,19.53,5.72,9.89,1.51,19.21,4.65,27.39,10.45,8.1,5.74,12.73,14.03,15.29,23.42,1.89,6.92,4.41,13.45,9.8,18.37,3.32,3.03,3.27,6.5,2.08,10.23-2.83,8.83-8.41,15.33-16.78,19.4-5.18,2.51-6.29,2.16-8.92-2.81-.56-1.06-1.11-2.12-1.69-3.17-3.64-6.56-8.05-12.55-13.4-17.83-9.48-9.34-20.84-15.58-33.25-20.06-10.29-3.71-21.07-5.39-31.8-7.19-13.05-2.19-23.99-8.06-32.68-18.18-5.47-6.36-10.06-13.36-15.17-19.98-11.54-14.94-19.55-31.7-25.93-49.33-.23-.65-.37-.98.48-1.4,1.53-.75,1.85-2.24,1.44-3.8-1.34-5.15-1.35-10.64-4.17-15.56,5.15,1.8,8.84,4.94,11.44,9.47Z"/>
    </g>
    <g>
      <g>
        <polygon class="cls-3-e01sn first-color" points="410.21 313.56 409.7 312.99 409.98 312.74 410.49 313.31 410.21 313.56"/>
        <path class="cls-3-e01sn first-color" d="m413.25,310.74l-.53-.55.54-.52.53.54-.54.53Zm3.17-3.23l-.55-.52.51-.55.56.52-.51.55Zm3-3.38l-.58-.49.48-.57.58.49-.48.58Zm2.83-3.52l-.61-.46.45-.6.61.46-.45.6Zm2.65-3.66l-.63-.43.42-.62.63.42-.42.62Zm2.47-3.79l-.65-.4.39-.64.65.39-.39.64Zm2.28-3.91l-.67-.37.36-.66.67.36-.36.66Zm2.08-4.01l-.68-.33.32-.67.69.33-.33.68Zm1.88-4.11l-.7-.3.29-.69.7.29-.29.69Zm1.67-4.2l-.71-.26.25-.7.71.26-.26.71Zm1.46-4.28l-.73-.23.22-.71.73.22-.22.72Zm1.24-4.35l-.74-.19.18-.72.74.18-.19.73Zm1.02-4.4l-.74-.15.15-.73.75.15-.15.74Zm.8-4.45l-.75-.12.11-.74.75.11-.11.74Zm.58-4.48l-.76-.08.07-.75.76.07-.07.75Zm.35-4.51l-.76-.04.04-.75.76.03-.04.75Zm.13-4.52h-.76s0-.43,0-.43v-.32s.76,0,.76,0v.33s0,.43,0,.43Zm-.85-4.49l-.04-.74.76-.04.04.75-.76.03Zm-.31-4.47l-.07-.75.76-.08.07.75-.76.07Zm-.53-4.46l-.11-.74.75-.11.11.75-.75.11Zm-.75-4.43l-.15-.73.74-.15.15.74-.75.14Zm-.97-4.38l-.18-.73.74-.19.19.73-.74.18Zm-1.19-4.33l-.22-.71.72-.23.22.72-.73.22Zm-1.41-4.26l-.26-.7.71-.26.26.71-.71.26Zm-1.62-4.19l-.29-.69.7-.3.29.69-.7.29Zm-1.83-4.1l-.32-.67.68-.33.33.68-.69.33Zm-2.03-4l-.36-.66.67-.37.36.66-.67.36Zm-2.23-3.9l-.39-.64.65-.4.39.64-.65.39Zm-2.42-3.78l-.42-.62.62-.43.43.62-.63.43Zm-2.6-3.65l-.45-.6.61-.46.45.6-.61.46Zm-2.78-3.52l-.48-.57.58-.49.48.58-.58.49Zm-2.95-3.38l-.51-.55.56-.52.51.55-.56.51Zm-3.11-3.23l-.53-.52.53-.55.54.53-.54.54Z"/>
        <polygon class="cls-3-e01sn first-color" points="409.98 178.29 409.7 178.04 410.21 177.47 410.49 177.73 409.98 178.29"/>
      </g>
      <path class="cls-3-e01sn first-color" d="m320.19,245.52c0-38.91,31.54-70.44,70.44-70.44,6.7,0,13.18.94,19.32,2.68-15.96-14.13-36.95-22.72-59.95-22.72-49.97,0-90.48,40.51-90.48,90.48s40.51,90.48,90.48,90.48c23,0,43.99-8.59,59.95-22.72-6.14,1.75-12.62,2.68-19.32,2.68-38.91,0-70.44-31.54-70.44-70.44Z"/>
      <g>
        <polygon class="cls-3-e01sn first-color" points="382.82 205.02 385.25 216.42 396.65 218.85 385.25 221.28 382.82 232.68 380.39 221.28 368.99 218.85 380.39 216.42 382.82 205.02"/>
        <polygon class="cls-3-e01sn first-color" points="400.88 233.96 402.27 240.48 408.79 241.87 402.27 243.26 400.88 249.79 399.49 243.26 392.96 241.87 399.49 240.48 400.88 233.96"/>
        <polygon class="cls-3-e01sn first-color" points="363.64 250.7 365.48 259.34 374.11 261.18 365.48 263.02 363.64 271.66 361.79 263.02 353.16 261.18 361.79 259.34 363.64 250.7"/>
      </g>
    </g>
    <g>
      <path class="second-color" d="m185.46,223.54l1.52-3.34-20.59-9.36-1.52,3.34-.42-.19,2.93-6.44,21.03-2.72.03-.06-15.98-7.26-1.52,3.34-.42-.19,3.24-7.13.42.19-1.52,3.34,21.43,9.74-.27.6-25.96,3.49-.03.06,19.35,8.79,1.52-3.34.42.19-3.24,7.13-.42-.19Z"/>
      <path class="second-color" d="m207.42,182.74l1.87-2.23-12.4-22.05.51-.61,23.91,8.32,1.89-2.25.35.3-6.54,7.8-.36-.3,2.36-2.81-9.27-3.25-4.93,5.88,4.81,8.57,2.36-2.81.35.3-4.57,5.45-.35-.3Zm-7.86-20.62l5.03,8.97,4.67-5.57-9.71-3.4Z"/>
      <path class="second-color" d="m243.05,146.67l2.98-2.14-13.21-18.35-2.98,2.14-.27-.38,8.64-6.22.27.38-2.98,2.14,13.21,18.35,2.98-2.14.27.38-8.64,6.22-.27-.38Z"/>
      <path class="second-color" d="m275.3,126.79l3.41-1.36-8.4-21-3.41,1.36-.17-.43,9.88-3.95.17.43-3.41,1.36,8.4,21,5.46-2.19c1.8-.72,2.99-1.85,3.56-3.38.57-1.53.71-3.37.4-5.5l.34-.14,2.69,6.72-18.76,7.5-.17-.43Z"/>
      <path class="second-color" d="m357.37,103.78l.36.03c.14,1.21.36,2.23.67,3.08.31.85.68,1.55,1.09,2.12.42.57.86,1.02,1.34,1.35s.97.58,1.48.76.99.3,1.46.36c.47.06.91.12,1.33.15,1.16.1,2.13.01,2.91-.27s1.41-.68,1.9-1.18c.49-.5.85-1.05,1.08-1.66.23-.61.37-1.18.42-1.71.07-.77-.02-1.44-.25-2.01-.24-.57-.56-1.07-.96-1.5-.41-.42-.85-.78-1.35-1.07-.49-.29-.97-.52-1.42-.69l-3.68-1.49c-1.73-.71-3.01-1.55-3.84-2.53-.83-.98-1.18-2.23-1.05-3.74.09-.99.34-1.89.77-2.7.43-.81.98-1.5,1.68-2.06.69-.56,1.5-.97,2.42-1.25.92-.27,1.91-.36,2.96-.27.77.07,1.41.19,1.91.37s.93.37,1.29.56c.36.2.68.38.96.53.28.16.58.25.89.28.29.03.48,0,.59-.06s.26-.25.46-.54l.46.04-.53,5.96-.39-.04c-.06-.8-.22-1.58-.47-2.35s-.61-1.45-1.06-2.05c-.46-.6-1.02-1.11-1.71-1.51-.68-.4-1.5-.65-2.44-.73-.53-.05-1.12-.03-1.76.06-.65.09-1.26.28-1.84.58-.58.3-1.08.72-1.49,1.26-.41.54-.66,1.25-.74,2.13-.06.7.03,1.31.27,1.83s.57.97.99,1.35c.42.38.9.71,1.44.99.54.28,1.09.53,1.64.76l3.87,1.6c.41.17.92.39,1.53.67.62.28,1.21.66,1.77,1.15.56.49,1.03,1.12,1.39,1.88.36.76.5,1.7.4,2.82-.09,1.03-.37,2-.84,2.9s-1.09,1.67-1.88,2.32c-.79.65-1.72,1.14-2.79,1.48-1.07.34-2.25.45-3.55.33-.46-.04-.87-.08-1.22-.12s-.68-.1-.98-.17c-.3-.07-.61-.15-.91-.23s-.63-.19-1-.34c-.43-.17-.89-.37-1.37-.59-.49-.22-.92-.35-1.29-.38-.33-.03-.56.02-.69.14-.13.12-.25.29-.36.5l-.49-.04.63-7.08Z"/>
      <path class="second-color" d="m400.77,117.53l2.72,1.03,16.73-18.97.74.28.03,25.32,2.75,1.04-.16.43-9.52-3.61.16-.43,3.43,1.3v-9.82s-7.16-2.72-7.16-2.72l-6.5,7.37,3.43,1.3-.16.43-6.65-2.52.16-.43Zm16.87-14.22l-6.81,7.71,6.8,2.58v-10.29Z"/>
      <path class="second-color" d="m446.42,138.97l2.94,2.19,13.51-18.13-2.94-2.19.28-.37,8.54,6.36-.28.37-2.94-2.19-13.51,18.13,4.72,3.52c1.56,1.16,3.14,1.58,4.74,1.27,1.61-.31,3.24-1.16,4.9-2.53l.29.22-4.33,5.81-16.2-12.07.28-.37Z"/>
      <path class="second-color" d="m492.21,164.33c1.41-1.06,2.92-1.77,4.53-2.12,1.62-.35,3.19-.42,4.73-.21,1.54.21,2.97.67,4.29,1.38,1.32.71,2.4,1.62,3.22,2.71.88,1.16,1.48,2.48,1.81,3.96.33,1.48.38,2.98.15,4.5-.23,1.53-.75,3-1.55,4.42-.81,1.42-1.91,2.66-3.32,3.72-1.23.93-2.62,1.6-4.15,2.01-1.54.41-3.07.55-4.61.42-1.54-.14-3.01-.55-4.42-1.25s-2.59-1.68-3.56-2.97c-1-1.32-1.64-2.75-1.95-4.29-.31-1.54-.31-3.06-.02-4.56.29-1.5.85-2.93,1.7-4.28.84-1.35,1.9-2.51,3.17-3.46Zm2.29,3.04c-1.58,1.19-2.89,2.34-3.91,3.44s-1.74,2.2-2.16,3.29c-.42,1.09-.53,2.17-.33,3.23.2,1.07.73,2.17,1.59,3.31.85,1.13,1.76,1.94,2.74,2.43.98.49,2.05.69,3.21.58,1.16-.1,2.41-.5,3.75-1.17,1.34-.68,2.8-1.62,4.38-2.81,1.21-.92,2.33-1.88,3.35-2.89,1.02-1.01,1.8-2.08,2.35-3.2.55-1.12.79-2.28.71-3.48-.08-1.2-.6-2.44-1.57-3.72-.97-1.28-2.02-2.13-3.15-2.53s-2.31-.49-3.54-.27c-1.23.22-2.47.68-3.72,1.38s-2.49,1.5-3.7,2.42Z"/>
      <path class="second-color" d="m510.47,214.08l1.29,3.44,21.18-7.93-1.29-3.44.43-.16,2.48,6.63-12.96,16.78.02.06,16.44-6.15-1.29-3.44.43-.16,2.75,7.34-.43.16-1.29-3.44-22.04,8.25-.23-.62,15.89-20.81-.02-.06-19.91,7.45,1.29,3.44-.43.16-2.75-7.34.43-.16Z"/>
    </g>
  </g>
  <text class="cls-1-e01sn second-color" transform="translate(167.52 592.39)">
	<tspan x="0" y="0" id="span_svg_logo_envie.f30a6581-4d44-4946-b763-0772ebc549f6_7">NAME TEXT</tspan>	
</text>
</svg>