<svg id="Layer_1" data-name="Layer 1" xmlns="http://www.w3.org/2000/svg" viewBox="0 0 700 700">
  <g>
    <g>
      <path class="second-color" d="m54.03,383.66l24.2-3.54c1.39-.26,2.04-1.2,1.95-2.82l-.1-.7.83-.12.96,6.58-.75.64-13.01,11.21-11.51,9.92c.06.02.14.03.23.03.09,0,.16,0,.22-.01l24.38-3.56c1.37-.35,1.98-1.36,1.83-3.03l-.08-.52.83-.12,1.06,7.24-.83.12-.07-.48c-.34-1.73-1.24-2.52-2.71-2.37l-24.2,3.54c-1.39.26-2.04,1.2-1.95,2.82l.1.7-.83.12-.97-6.63.75-.64,13.88-11.96,10.65-9.13c-.18-.03-.33-.04-.45-.02l-24.38,3.56c-1.37.35-1.98,1.36-1.83,3.03l.07.48-.83.12-1.05-7.2.83-.12.07.48c.34,1.7,1.24,2.49,2.71,2.37Z"/>
      <path class="second-color" d="m77.83,343.08c1.06-.41,1.59-1.21,1.58-2.38h.88s0,7.27,0,7.27h-.88c0-.12-.03-.26-.09-.44-.06-.18-.22-.37-.48-.57-.27-.21-.6-.22-1.01-.04l-9.65,3.71v9.83s9.66,3.69,9.66,3.69c.59.21.99.07,1.21-.42.22-.49.34-1.09.37-1.83v-1.68s.88,0,.88,0v7.27s-.88,0-.88,0c0-.12,0-.29-.02-.51-.01-.22-.15-.54-.42-.97-.27-.43-.65-.74-1.15-.95l-8.42-3.25-19.84-7.56c-.09-.06-.13-.13-.13-.22,0-.09.04-.15.13-.18l28.24-10.78Zm-10.47,17.06v-9.21s-12.08,4.59-12.08,4.59l4.23,1.58,7.85,3.03Z"/>
      <path class="second-color" d="m79.79,325.43c.36-.02.65-.14.88-.35.23-.21.37-.42.42-.62l.08-.35.83.09-.66,6.44-.83-.09c.01-.12.01-.26,0-.42-.01-.16-.13-.39-.35-.68-.22-.29-.54-.45-.95-.5l-26.13-2.69c-.41-.04-.75.04-1.02.25-.27.21-.44.43-.49.66l-.08.39-.83-.09.66-6.44.83.09c-.09.85.26,1.37,1.03,1.57l26.61,2.74Z"/>
      <path class="second-color" d="m82.46,295.94l.37-.74,3.8,1.72-3.23,16.84-.82-.16c.02-.11.03-.25.04-.42,0-.16-.1-.4-.29-.71-.2-.31-.49-.5-.9-.58l-25.79-4.95c-.4-.08-.75-.02-1.04.16-.29.18-.47.39-.54.61l-.12.38-.82-.16,1.23-6.41.82.16c-.02.12-.03.26-.04.42,0,.16.09.41.29.73.19.32.49.52.89.6l27.22,5.23,1.55-8.05c.17-.89.08-1.7-.27-2.43-.35-.73-.71-1.23-1.08-1.51-.36-.28-.73-.5-1.09-.66l-.16-.08Z"/>
      <path class="second-color" d="m102.38,243.54c1.13.03,1.93-.49,2.39-1.57l.81.34-2.84,6.69-.81-.34c.05-.11.08-.26.09-.44.02-.19-.06-.42-.22-.72-.16-.29-.47-.44-.92-.44l-10.33-.36-3.84,9.05,7.44,7.18c.46.42.89.45,1.28.09.39-.36.74-.87,1.06-1.54l.65-1.54.81.34-2.84,6.7-.81-.34c.05-.11.11-.27.18-.48.07-.21.07-.56,0-1.06-.08-.5-.31-.93-.69-1.32l-6.48-6.29-15.3-14.72c-.06-.09-.07-.17-.04-.25s.1-.12.19-.11l30.21,1.13Zm-16.31,11.61l3.6-8.48-12.91-.49,3.28,3.11,6.04,5.86Z"/>
      <path class="second-color" d="m99.53,197.73l20.88,12.74c1.23.68,2.34.38,3.3-.93l.37-.6.71.44-3.47,5.68-.99.02-17.17.31-15.19.28c.04.06.09.11.15.17.07.06.13.1.18.13l21.03,12.84c1.28.61,2.39.22,3.34-1.16l.28-.45.71.44-3.81,6.24-.71-.44.25-.41c.84-1.55.65-2.73-.57-3.55l-20.88-12.75c-1.23-.68-2.34-.37-3.3.93l-.37.6-.71-.44,3.49-5.72.99-.02,18.32-.33,14.02-.22c-.12-.14-.23-.24-.33-.31l-21.03-12.84c-1.28-.61-2.39-.22-3.34,1.16l-.25.41-.71-.44,3.79-6.21.71.44-.25.41c-.83,1.53-.64,2.71.57,3.55Z"/>
      <path class="second-color" d="m136.66,168.79l.47.4.4.34.47.4c.54.5,1.09,1.1,1.63,1.83.14.2.26.33.35.41,1.61,2.15,2.61,4.51,3.01,7.07.4,2.56.15,4.98-.76,7.25-.52,1.21-1.21,2.38-2.07,3.5l-.03.03-.03.03-9.81,11.68-.67-.57c.08-.09.15-.21.24-.35s.12-.39.11-.74c0-.35-.18-.67-.52-.96l-20.08-16.87c-.34-.28-.67-.41-1-.38-.33.03-.58.12-.76.29l-.29.27-.64-.54,9.84-11.71c.91-1.08,1.94-1.97,3.11-2.68,2.08-1.28,4.41-1.95,7-2s5.08.52,7.45,1.71c.09.08.24.17.46.27.81.41,1.51.85,2.12,1.32Zm-1.42,3.47l-.41-.34c-3.1-2.52-6.35-3.92-9.76-4.17-3.41-.26-6.05.73-7.92,2.96l-6.61,7.86,22.31,18.74,6.6-7.86c1.89-2.25,2.41-5.03,1.56-8.33-.85-3.3-2.78-6.25-5.77-8.85Z"/>
      <path class="second-color" d="m173.17,137c.13-.02.32-.05.58-.08.26-.03.74-.01,1.45.05.71.06,1.4.19,2.06.37s1.39.53,2.2,1.03c.81.51,1.51,1.14,2.1,1.91,1.41,1.84,1.96,3.91,1.66,6.19-.3,2.29-1.38,4.13-3.22,5.55-1.45,1.11-3.03,1.82-4.75,2.14-.75.13-1.23.37-1.45.72-.21.35-.3.63-.27.84.03.21.13.45.28.7l.16.21-.66.51-5.52-7.21.66-.51c1.13,1.13,2.28,1.97,3.45,2.52,1.17.55,2.24.81,3.18.79.95-.02,1.77-.14,2.47-.36.7-.22,1.29-.52,1.78-.89,1.59-1.22,2.24-2.82,1.98-4.81-.27-1.99-1.08-3.51-2.43-4.55-.93-.73-2.3-1.16-4.1-1.3-1.81-.14-3.37-.08-4.71.16l-1.99.3c-.13.02-.29.05-.5.07-.2.03-.61.04-1.22.04-.61,0-1.19-.04-1.76-.12-.56-.09-1.21-.28-1.95-.59-.73-.31-1.37-.72-1.91-1.23-.49-.44-.85-.81-1.08-1.12-1.3-1.7-1.81-3.62-1.51-5.75.29-2.13,1.29-3.85,2.99-5.15.86-.66,1.87-1.13,3.02-1.42.54-.12.98-.27,1.32-.45.34-.18.55-.37.64-.54.09-.18.13-.36.12-.56,0-.2-.04-.35-.1-.45-.06-.1-.12-.19-.17-.26l.66-.51,5.52,7.21-.66.51-.05-.07c-.54-.7-1.38-1.51-2.52-2.43-1.15-.92-2.28-1.43-3.4-1.54-1.04-.09-2,.09-2.89.54s-1.58,1.14-2.08,2.04c-.69,1.27-.83,2.59-.4,3.97s1.13,2.45,2.12,3.2c.46.36,1.08.66,1.86.91.87.22,1.82.27,2.84.16l6.16-.72Z"/>
      <path class="second-color" d="m197.41,110c.6.53,1.09,1.12,1.49,1.78.44.73.74,1.48.89,2.24.32,1.49.21,2.96-.34,4.41s-1.45,2.66-2.72,3.63c-.16.13-.42.3-.77.52l-4.48,2.72,1.35,2.22.11.19,4.18,6.9,1.17,1.92c.23.38.51.6.85.67s.61.06.83-.04l.32-.15.43.72-5.54,3.36-.43-.72c.1-.06.21-.15.33-.26s.24-.33.34-.67c.1-.34.04-.69-.19-1.07l-13.6-22.42c-.38-.63-.93-.85-1.64-.66l-.04.02-.35.11-.43-.72,4.03-2.45,3.88-2.35.45-.27c.3-.18.54-.31.7-.37.23-.14.38-.22.47-.24.15-.09.27-.15.36-.17,1.41-.62,2.87-.81,4.38-.6,1.51.22,2.82.8,3.94,1.74Zm-3.03,12.35c1.22-1.16,1.97-2.54,2.24-4.17.27-1.62-.01-3.13-.85-4.51-.97-1.61-2.42-2.62-4.32-3.05-1.91-.42-3.71-.12-5.42.92l-2.11,1.28,7.11,11.72,1.21-.73.56-.34c.75-.46,1.28-.83,1.59-1.12Z"/>
      <path class="second-color" d="m234.52,117.25c.82.78,1.77.92,2.83.42l.38.8-6.57,3.11-.38-.8c.11-.05.23-.14.36-.27s.24-.36.31-.68c.07-.33-.06-.64-.39-.93l-7.48-7.14-8.88,4.21.79,10.31c.07.62.36.92.9.92.53,0,1.14-.16,1.81-.44l1.51-.72.38.8-6.57,3.11-.38-.8c.11-.05.26-.13.45-.24.19-.11.42-.37.7-.79.27-.42.39-.9.37-1.44l-.66-9-1.64-21.17c.02-.1.06-.18.14-.21s.15-.02.22.04l21.81,20.93Zm-19.9-2.18l8.32-3.94-9.31-8.95.38,4.5.61,8.39Z"/>
    </g>
    <g>
      <path class="second-color" d="m243.13,575.84l-10.8,24.31c-.56,1.43-.08,2.57,1.47,3.43l.7.31-.37.83-6.61-2.94-.16-1.07-2.75-18.48-2.44-16.35c-.06.05-.11.11-.16.19-.05.08-.09.15-.12.21l-10.88,24.49c-.48,1.47.1,2.61,1.72,3.44l.53.23-.37.83-7.27-3.23.37-.83.48.21c1.79.69,3.04.32,3.75-1.11l10.8-24.31c.56-1.43.08-2.57-1.47-3.43l-.7-.31.37-.83,6.66,2.96.16,1.07,2.94,19.72,2.21,15.09c.14-.15.23-.28.28-.4l10.88-24.49c.48-1.47-.1-2.61-1.72-3.44l-.48-.21.37-.83,7.23,3.21-.37.83-.48-.21c-1.76-.68-3.01-.31-3.75,1.11Z"/>
      <path class="second-color" d="m274.01,613.51c.14,1.23.83,2,2.07,2.32l-.24.93-7.65-2,.24-.93c.12.03.29.04.49.03.2-.01.45-.13.74-.35.29-.22.4-.57.33-1.05l-1.24-11.17-10.34-2.71-6.55,9.14c-.38.56-.34,1.03.11,1.39.45.37,1.06.67,1.82.9l1.76.46-.24.93-7.65-2,.24-.93c.12.03.3.07.54.12.24.04.61-.01,1.14-.17.52-.16.96-.47,1.31-.94l5.75-7.96,13.44-18.78c.09-.08.18-.1.27-.08s.14.09.15.19l3.53,32.69Zm-15.06-15.74l9.69,2.54-1.5-13.97-2.84,4.01-5.36,7.42Z"/>
      <path class="second-color" d="m295.65,617.45c0,.39.13.71.35.97.22.26.44.42.66.48l.37.1-.13.9-6.98-.98.13-.9c.13.02.28.02.46.02.18,0,.43-.13.75-.35.32-.23.51-.56.58-1.01l3.95-28.29c.06-.44-.02-.82-.23-1.12-.22-.3-.45-.49-.7-.56l-.42-.11.13-.9,6.98.98-.13.9c-.92-.13-1.5.23-1.75,1.06l-4.03,28.82Z"/>
      <path class="second-color" d="m329.92,617.73l.85.28-1.26,4.36-18.63-.86.04-.91c.13,0,.28,0,.46-.03.18-.02.42-.16.72-.42.3-.26.46-.61.48-1.06l1.32-28.54c.02-.45-.09-.81-.33-1.1-.24-.28-.49-.45-.74-.49l-.43-.07.04-.91,7.09.33-.04.91c-.13,0-.28,0-.46.03-.18.02-.42.16-.74.42-.32.26-.48.61-.5,1.06l-1.4,30.12,8.91.41c.99.05,1.85-.18,2.57-.67.73-.49,1.21-.96,1.46-1.4.24-.44.42-.86.54-1.27l.06-.19Z"/>
      <path class="second-color" d="m395.42,612.27c.66,1.05,1.61,1.45,2.87,1.21l.18.94-7.77,1.49-.18-.94c.13-.02.28-.09.45-.18.18-.1.35-.31.51-.64.17-.32.11-.69-.16-1.09l-5.93-9.55-10.5,2.01-1.98,11.07c-.1.67.13,1.07.69,1.21s1.24.15,2.03.03l1.79-.34.18.94-7.77,1.49-.18-.94c.13-.02.31-.07.54-.13s.55-.28.95-.65c.4-.37.66-.84.78-1.42l1.76-9.66,4.03-22.74c.04-.11.11-.17.21-.19.09-.02.17.02.22.1l17.27,27.97Zm-20.37-7.71l9.84-1.89-7.37-11.96-.83,4.84-1.64,9Z"/>
      <path class="second-color" d="m428.38,572.73l9.22,24.96c.59,1.42,1.74,1.9,3.44,1.44l.72-.27.32.85-6.79,2.51-.86-.65-14.86-11.32-13.15-10.01c0,.07,0,.15.02.25.02.09.04.17.06.23l9.28,25.14c.68,1.38,1.89,1.81,3.63,1.26l.54-.2.32.85-7.46,2.76-.32-.86.5-.18c1.76-.75,2.4-1.89,1.91-3.41l-9.22-24.96c-.59-1.42-1.74-1.89-3.44-1.44l-.72.27-.32-.85,6.83-2.52.86.66,15.86,12.08,12.11,9.27c0-.2-.03-.36-.08-.48l-9.28-25.14c-.68-1.38-1.89-1.81-3.64-1.26l-.49.18-.32-.85,7.42-2.74.32.85-.49.18c-1.74.74-2.37,1.88-1.91,3.41Z"/>
      <path class="second-color" d="m474.4,562.13l.33.58.29.5.33.58c.37.71.7,1.53.98,2.48.07.25.14.44.2.55.84,2.8.98,5.58.43,8.35-.55,2.77-1.71,5.14-3.48,7.12-.98,1.05-2.12,1.98-3.42,2.8l-.04.02-.04.02-14.38,8.27-.48-.83c.11-.06.23-.15.37-.27.14-.11.27-.35.39-.72s.06-.76-.18-1.17l-14.22-24.72c-.24-.42-.53-.67-.88-.76-.35-.09-.64-.09-.88,0l-.4.17-.45-.79,14.42-8.29c1.33-.76,2.72-1.29,4.18-1.58,2.6-.54,5.24-.35,7.9.57,2.67.92,4.99,2.43,6.97,4.53.06.11.19.26.37.45.67.72,1.23,1.43,1.67,2.14Zm-2.74,3.02l-.29-.5c-2.22-3.74-5.03-6.37-8.42-7.91-3.39-1.53-6.46-1.51-9.2.06l-9.68,5.57,15.8,27.47,9.68-5.57c2.77-1.59,4.34-4.24,4.7-7.93.37-3.69-.5-7.43-2.6-11.2Z"/>
      <path class="second-color" d="m514.04,529.61c.14-.04.34-.09.61-.16.27-.06.8-.1,1.58-.12s1.54.03,2.27.15c.73.12,1.57.4,2.51.85.94.45,1.78,1.05,2.51,1.81,1.75,1.82,2.6,3.98,2.55,6.49-.05,2.51-.99,4.64-2.81,6.38-1.43,1.37-3.05,2.34-4.87,2.89-.8.23-1.29.55-1.48.95-.19.4-.25.72-.19.95.06.23.19.47.39.72l.2.21-.66.63-6.84-7.12.66-.63c1.36,1.09,2.7,1.86,4.04,2.3,1.33.44,2.51.6,3.53.46,1.02-.14,1.89-.37,2.62-.69.73-.32,1.34-.72,1.82-1.18,1.57-1.51,2.08-3.32,1.55-5.44-.53-2.12-1.59-3.66-3.18-4.62-1.09-.68-2.63-.98-4.59-.91-1.97.07-3.66.32-5.07.75l-2.11.57c-.14.04-.31.09-.53.14-.22.05-.65.12-1.31.19-.66.08-1.3.1-1.92.08-.62-.02-1.35-.16-2.18-.4s-1.57-.61-2.22-1.1c-.58-.42-1.01-.78-1.3-1.08-1.62-1.68-2.4-3.69-2.34-6.03.06-2.34.93-4.31,2.61-5.93.85-.82,1.88-1.45,3.09-1.9.57-.19,1.03-.41,1.37-.65.34-.24.55-.46.62-.67s.09-.41.06-.63c-.03-.21-.08-.37-.16-.48-.08-.1-.15-.19-.22-.26l.66-.63,6.84,7.12-.66.63-.07-.07c-.66-.69-1.67-1.46-3.02-2.31s-2.64-1.27-3.86-1.25c-1.13.02-2.15.34-3.05.94-.91.6-1.57,1.42-2,2.45-.59,1.46-.58,2.91.05,4.34.63,1.44,1.52,2.51,2.68,3.21.54.33,1.24.58,2.12.75.97.13,2,.07,3.09-.18l6.57-1.53Z"/>
      <path class="second-color" d="m530.72,495.32c.8.33,1.53.75,2.17,1.28.72.59,1.29,1.24,1.73,1.97.87,1.41,1.28,2.96,1.25,4.64s-.52,3.25-1.47,4.71c-.12.19-.32.46-.6.81l-3.61,4.42,2.19,1.79.19.15,6.79,5.55,1.89,1.55c.37.3.74.43,1.11.38.37-.05.65-.16.83-.34l.28-.27.7.58-4.46,5.46-.71-.58c.08-.1.16-.23.25-.38.09-.16.12-.43.11-.81-.02-.38-.21-.73-.58-1.03l-22.08-18.05c-.62-.5-1.26-.53-1.92-.08l-.03.04-.32.24-.7-.58,3.25-3.97,3.12-3.82.36-.44c.24-.3.44-.51.58-.64.18-.22.32-.36.4-.42.12-.15.23-.25.31-.3,1.22-1.14,2.65-1.88,4.28-2.2,1.63-.32,3.18-.21,4.67.35Zm1.38,13.76c.84-1.63,1.1-3.32.78-5.09-.31-1.76-1.15-3.2-2.51-4.31-1.58-1.29-3.43-1.81-5.54-1.56-2.11.26-3.85,1.23-5.23,2.91l-1.7,2.08,11.54,9.43.97-1.19.45-.56c.61-.74,1.01-1.32,1.22-1.72Z"/>
      <path class="second-color" d="m568.51,483.59c1.21.25,2.16-.17,2.85-1.24l.81.52-4.28,6.65-.81-.52c.07-.11.13-.26.18-.46.05-.2.01-.46-.11-.81-.12-.34-.42-.56-.9-.64l-11.01-2.29-5.78,8.99,6.65,9.06c.42.53.87.64,1.35.33.49-.31.96-.8,1.42-1.45l.98-1.53.81.52-4.28,6.65-.81-.52c.07-.11.16-.27.28-.48.12-.21.18-.59.19-1.13,0-.54-.15-1.06-.49-1.54l-5.78-7.93-13.69-18.6c-.05-.11-.04-.2,0-.28.05-.08.13-.11.22-.08l32.17,6.77Zm-19.63,9.44l5.42-8.43-13.74-2.91,2.94,3.94,5.39,7.4Z"/>
    </g>
  </g>
  <path class="first-color" d="m602.73,304.51c-13.31-71.63-53.72-133.8-113.79-175.04-60.07-41.24-132.6-56.63-204.23-43.31l-.71-3.8c72.65-13.5,146.21,2.1,207.12,43.92,60.92,41.82,101.9,104.87,115.4,177.52l-3.79.7Z"/>
  <g>
    <path class="first-color" d="m117.36,534.43c-.17-29.76,21.18-90.37,75.47-150.44,7.05-25.28,11.91-48.73,11.82-63.85-.04-6.95-1.78-11.82-1.8-16.7-.09-15,9.49-24.32,16.32-24.49,3.66-.02,6.48,2.65,6.51,8.62,0,.85.01,1.71-.11,2.68-1.84,18.79-7.17,46.87-14.18,77.16,28.4-23.21,62.21-40.12,99.89-40.34l5.49.09c1.71.11,2.93,1.45,2.95,3.15-.11,1.59-1.45,2.81-3.16,2.82-3.41-.1-1.71-.11-5.37-.09-36.71.21-72.34,17.74-102.06,44.13-9.53,39.69-23.48,94.4-42.66,130.61-17.01,31.93-30.71,45.3-39.37,45.35-6.22.04-9.68-6.89-9.74-18.72Zm33.1-32.75c15.8-30.58,29.09-72.12,38.9-105.11-39.14,42.54-65.55,115.87-65.43,135.51.02,3.17.76,4.87,2.22,4.86,3.54-.02,11.4-10.07,24.31-35.26Zm61.85-269.14c-.05-8.41,4.65-17.34,11.24-17.38,4.15-.02,8.43,2.76,8.48,10.68.05,8.78-4.52,20.39-10.61,20.43-4.88.03-9.06-6.66-9.1-13.73Z"/>
    <path class="first-color" d="m285.64,427.23c-.03-4.76.43-9.64,1.38-14.15,6.05-29.91,21.79-89.76,32.16-110.43,8.32-16.39,18.76-24.99,25.71-25.03,4.51-.03,7.58,3.61,7.62,11.05.01,2.56-.33,5.61-1.04,9.03-.35,1.83-54.38,107.15-54.19,138.37.03,5.49,1.76,8.65,5.66,8.62,1.95-.01,4.39-.76,7.3-2.36,29.66-16.03,74.46-135.31,118.57-161.91,5.96-3.57,9.36-5.18,12.04-5.19,2.56-.01,4.64,1.19,8.43,2.51,6.48,2.4,11.13,5.54,11.19,15.67.01,2.32-.22,5-.68,8.17-5.65,35.03-20.76,78.9-20.7,89.02,5.45-5.76,45.42-74.65,62.61-74.75,6.95.57,9.9,4.33,9.93,9.45,0,.61,0,1.34-.11,2.07-1.64,10.74-5.47,23.32-5.41,34.3.06,10.85,3.9,20.1,17.34,24.04,4.03,1.2,8.55,1.78,13.43,1.75,40-.23,101.85-38.15,102.33-39.62,3.4-3.07,6.44-4.31,8.51-4.32,1.71,0,2.81.84,2.82,2.18,0,1.34-1.08,3.18-3.63,5.14-10.68,8.23-71.58,42.73-115.73,42.99-7.93.05-15.37-1.13-21.85-3.65-30.68-12.14-20.65-49.64-24.8-49.61-.37,0-.97.37-1.7,1.23-8.85,9.69-25.6,43.2-35.14,60.45-5.31,9.91-15.76,15.46-23.81,15.5-6.34.04-10.75-2.74-10.8-11.28-.13-21.59,22.58-80.38,22.45-103.55-.04-6.71-1.64-9.26-5.54-9.48-25.12.15-89.06,140.52-116.66,155.44-4.74,2.59-8.76,3.71-12.17,3.73-11.22.07-15.44-12.23-15.51-25.4Z"/>
  </g>
</svg>