<svg id="Layer_1" data-name="Layer 1" xmlns="http://www.w3.org/2000/svg" viewBox="0 0 700 700">
  <defs>
    <style>
      .cls-1s-n07 {
        fill: #231f20;
      }

      .cls-2s-n07 {
        fill: #010101;
      }
    </style>
  </defs>
  <path class="cls-1s-n07 first-color" d="m548.64,328.89c-.66.34-1.33.4-2.05.2-.66-.27-1.19-.73-1.45-1.39-6.56-16.23-17.88-34.18-27.9-48.62-.39-.53-.53-1.2-.33-1.86.14-.66.47-1.19,1.07-1.59,24.23-14.44,42.92-24.7,62.13-37.16-42.85,20.27-49.29,24.91-69.55,36.24-1.07.59-1.72,1.45-1.99,2.58-.27,1.19,0,2.25.66,3.25,4.01,5.73,8.17,11.78,12.17,18.01-8.67,5-17.41,10.31-26.22,15.64-18.42,11.27-36.96,22.53-56.76,31.8l-2.72,1.32,1.45,2.59c.47.79,1,2.31,1.47,3.9.51,1.72.92,3.45,1.04,4.58.41,3.24-.06,6.62-.45,9.6-.2,1.66-.41,3.19-.47,4.64-.39,6.09,1.13,10.33,9.94,10.87,7.09.46,8.81-3.32,9.14-8.61.08-1.26.08-2.65.08-4.17-.08-4.11-.14-8.75,2.97-10.6l.27-.2c17.49-13.32,31.14-21.53,45.91-30.4,7.52-4.47,15.32-9.12,23.99-14.75,3.54,6.52,6.67,13.15,9.07,19.78.39,1.13,1.25,1.99,2.38,2.39,1.21.4,2.4.33,3.46-.33,22.31-13.79,42.45-30.28,63.11-46.38-20.73,13.71-38.88,25.64-60.41,38.69Zm-44.45-4.24c-5.69,3.45-11.27,6.76-16.88,10.27-1.39.06-2.99.19-4.71.4-1.66-.27-1.93-1.39-.92-3.32,1.52-1.52,1.52-2.58,0-3.04,5.55-3.32,10.98-6.63,16.49-10.01,8.68-5.25,17.33-10.55,26.23-15.65,1.33,2.15,2.63,4.33,3.89,6.52-8.74,5.61-16.57,10.31-24.1,14.82Z"/>
  <g>
    <path class="cls-1s-n07 first-color" d="m336.36,213.6c-18.63.43-32.31.33-45.87.33-12.55-.12-24.92-.22-41.11.1h-.91c-4.85.1-13.68.31-16.81,12.21l-.72,2.58c-12.84.1-25.7.2-38.57.2-4.54,0-7.58,1.61-9.39,4.94-2.13,3.96-2.85,10.39-2.54,19.4,0,55.59-.81,111.19-.81,166.7-.5,6.74,0,12.09,1.41,16.17,1.41,3.76,3.66,6.33,6.79,7.82,3.63,1.82,50.31,2.8,98.4,2.9,50.22,0,101.66-.86,107.42-2.68,3.94-1.28,6.79-3.74,8.52-7.6,1.91-4.17,2.54-9.95,1.91-17.24l-.78-166.49-.13-3.43c-.5-14.36-.69-21.22-11.74-21.1-12.84,0-25.8-.22-38.67-.22l-.72-2.68c-.91-3.31-3.04-6.11-5.76-8.25-3.04-2.25-6.57-3.64-9.92-3.64m.81-98.99c-13.46,3.74-63.4,4.17-78.08,6.11-2,.2-3.13,1.49-3.13,3.41v8.15l-2.72.53c-4.04.98-3.13,4.72,1.72,4.82,25.61.65,51.22-.22,76.96-.31,11.52,0,11.24,19.71-.13,19.71-67.13,0-78.24.22-79.46.22-1.41.12-2.35.96-2.63,2.04-.22.43-.31.86-.31,1.29s.09.84.22,1.18c.28.63,1,1.06,2.22,1.06h0c26.52-.43,52.94-.75,79.46-.96,11.55-.1,11.55,18.97.13,18.85-50.03-.31-76.55.22-79.8.33-5.17,1.18-5.98,7.29,1.53,7.07h0c25.3-.33,50.63-.65,75.92-.86,1.53,0,2.85.22,4.16.86,1.22.53,2.41,1.28,3.44,2.47,1.1,1.06,1.82,2.35,2.41,3.63.5,1.41.72,2.8.72,4.41v8.03c3.63.65,7.29,2.35,10.43,4.7,3.22,2.47,5.98,5.8,7.48,9.54l33.72.22c17.63-.12,17.94,8.99,18.53,28.18,1.82,55.61.72,113.56.91,169.48.81,8.56-.09,15.64-2.54,21-2.54,5.78-6.76,9.64-12.74,11.46-6.39,2.04-58.64,3-109.36,2.88-48.9-.1-96.77-1.18-101.25-3.43-4.85-2.35-8.3-6.31-10.33-11.89-1.82-5.13-2.41-11.56-1.82-19.38l.81-165.74c-.5-10.39.59-18.01,3.35-23.24,3.13-5.8,8.2-8.58,15.37-8.58l33.53-.22c4.95-14.34,16.09-14.68,22.48-14.78h.81c16.28-.43,28.74-.33,41.3-.22,12.65.1,25.52.22,42.42-.22l.09-2.25v-5.57c0-.65-.09-1.08-.28-1.61-.22-.43-.53-.98-.94-1.29-.28-.43-.69-.75-1.19-.96-.41-.12-1.03-.22-1.53-.22-25.2.22-50.53.53-75.83.86-16,.31-16.22-18.87-2.72-21.53l.5-.12c.09,0,26.83-.65,80.4-.22,2.41,0,2.32-4.39,0-4.39-26.55.22-53.07.53-79.49.86-4.35.1-7.08-2.15-8.52-5.15-.5-1.28-.81-2.67-.81-4.17-.09-1.39.22-2.78.72-4.07,1.22-3.43,4.16-6.31,8.7-6.53h.09s7.8-.33,79.68-.33c2.25,0,2.54-5.13.13-5.13-25.74.1-51.53.96-77.27.31h-.19c-11.33-.86-14.37-12.32-5.26-16.93v-3.86c0-2.57,1-4.92,2.63-6.64,1.5-1.71,3.73-2.78,6.26-2.78,25.83-.31,55.38.43,79.08-.1Z"/>
    <path class="cls-1s-n07 first-color" d="m194.41,280.12l8.61,107.45c1.22,10.62,4.45,22.71,14.37,27.65,17.53,8.56,135.78,7.93,152.38-2.25,8.7-5.35,11.65-16.81,12.77-26.67l8.48-109.07,1.63,113.35c-1.31,12.44-5.26,25.61-16.09,32.25-18.63,11.36-146.21,10.6-165.65,1.08-12.34-6-16.81-19.93-18.32-33.33l1.82-110.45Z"/>
  </g>
  <g>
    <path class="cls-2s-n07 second-color" d="m163.7,423.08c-.11-3.61-1.15-6.61-3.1-9.02-2.7-3.45-5.73-5.65-9.07-6.59-3.34-.94-6.91-.86-10.71.23-3.79,1.09-7.74,3.04-11.83,5.86-4.1,2.82-8.27,6.24-12.51,10.26-4.25,4.02-8.49,8.53-12.73,13.52-4.25,5-8.42,10.22-12.51,15.66-4.1,5.45-8.06,10.97-11.89,16.57-3.83,5.6-7.4,11.03-10.71,16.28-3.31,5.18-6.57,10.39-9.8,15.61-3.23,5.22-6.31,10.44-9.24,15.66-2.93,5.22-5.65,10.5-8.17,15.83-2.52,5.33-4.72,10.74-6.59,16.23.6-6.84,1.88-14.31,3.83-22.43,1.95-8.11,4.32-16.45,7.1-25.02,2.78-8.56,5.86-17.2,9.24-25.92,3.38-8.71,6.8-17.11,10.26-25.19,3.45-8.08,6.8-15.65,10.03-22.71,3.23-7.06,6.1-13.26,8.62-18.59,2.52-5.33,4.54-9.58,6.09-12.73,1.54-3.16,2.35-4.88,2.42-5.18,1.95-3.16,2.76-5.73,2.42-7.72-.34-1.99-1.2-3.29-2.59-3.89-1.39-.6-3.04-.49-4.96.34-1.92.83-3.48,2.48-4.68,4.96-3.23,6.69-6.52,13.96-9.86,21.81-3.34,7.85-6.63,16.02-9.86,24.51-3.23,8.49-6.37,17.19-9.41,26.09-3.04,8.9-5.88,17.71-8.51,26.43-2.63,8.72-5.03,17.24-7.21,25.58-2.18,8.34-4.02,16.19-5.52,23.55-1.13,5.48-2.05,10.65-2.76,15.5-.71,4.85-1.17,9.26-1.35,13.24-.19,3.98-.11,7.48.23,10.48.34,3,.96,5.41,1.86,7.21,1.2,2.63,2.55,4.34,4.06,5.13,1.5.79,2.82.96,3.94.51,1.13-.45,1.86-1.41,2.2-2.87.34-1.47-.06-3.18-1.18-5.13-2.03-3.91-2.89-8.34-2.59-13.3.3-4.96,1.35-10.16,3.16-15.61,1.8-5.45,4.15-10.97,7.04-16.57,2.89-5.6,5.92-10.95,9.07-16.06,3.16-5.11,6.24-9.84,9.24-14.2,3-4.36,5.52-8.04,7.55-11.04,4.36-6.39,9.03-13.02,14.03-19.89,5-6.87,10.07-13.43,15.21-19.67,5.15-6.24,10.22-11.91,15.21-17.02,5-5.11,9.69-9.13,14.09-12.06,4.4-2.93,8.32-4.51,11.78-4.73,3.45-.23,6.24,1.43,8.34,4.96,1.43,2.48,2.16,5.45,2.2,8.9.04,3.46-.38,7.14-1.24,11.04-.86,3.91-2.05,7.91-3.55,12-1.5,4.1-3.06,8.04-4.68,11.83-1.62,3.79-3.17,7.31-4.68,10.54-1.5,3.23-2.67,5.9-3.49,8-1.13,2.93-2.35,6.14-3.66,9.64-1.32,3.49-2.59,7.12-3.83,10.87-1.24,3.76-2.37,7.59-3.38,11.49-1.01,3.91-1.73,7.72-2.14,11.44-.41,3.72-.45,7.29-.11,10.71.34,3.42,1.22,6.52,2.65,9.3,1.28,3.08,2.78,4.98,4.51,5.69,1.73.71,3.21.71,4.45,0,1.24-.72,1.97-1.94,2.2-3.66.23-1.73-.49-3.53-2.14-5.41-2.1-2.33-3.55-5.05-4.34-8.17-.79-3.12-1.11-6.44-.96-9.97.15-3.53.66-7.18,1.52-10.93.86-3.76,1.88-7.42,3.04-10.99,1.16-3.57,2.37-6.95,3.61-10.14,1.24-3.19,2.35-5.99,3.32-8.4,1.2-3.23,2.82-6.91,4.85-11.04,2.03-4.13,4.09-8.43,6.2-12.9,2.1-4.47,4.11-9.02,6.03-13.64,1.92-4.62,3.42-9.05,4.51-13.3,1.09-4.24,1.58-8.17,1.47-11.78Z"/>
    <path class="cls-2s-n07 second-color" d="m670.88,442.47c-2.63-2.1-5.9-3.74-9.8-4.9-3.91-1.16-8.23-2.05-12.96-2.65-4.96-.52-10.2-.77-15.72-.73-5.52.04-11.06.23-16.62.56-5.56.34-10.99.77-16.28,1.3-5.3.53-10.2,1.01-14.71,1.46,2.48-4.28,4.9-8.6,7.27-12.96,2.37-4.36,4.49-8.62,6.37-12.79,1.88-4.17,3.45-8.17,4.73-12,1.28-3.83,2.1-7.36,2.48-10.59.38-3.68.04-6.5-1.01-8.45-1.05-1.95-2.44-3.16-4.17-3.61-1.73-.45-3.63-.19-5.69.79-2.07.98-3.89,2.52-5.47,4.62-2.25,2.86-4.47,6.29-6.65,10.31-2.18,4.02-4.32,8.47-6.42,13.35-2.1,4.88-4.17,10.14-6.2,15.78-2.03,5.63-3.94,11.49-5.75,17.58-7.59.83-15.16,1.46-22.71,1.92-6.11.36-12.2.45-18.28.27-2.45-1.75-5.39-3.13-8.82-4.16-3.91-1.16-8.23-2.05-12.96-2.65-4.96-.52-10.2-.77-15.72-.73-5.52.04-11.06.23-16.62.56-5.56.34-10.99.77-16.28,1.3-5.3.53-10.2,1.01-14.71,1.46,2.48-4.28,4.9-8.6,7.27-12.96,2.37-4.36,4.49-8.62,6.37-12.79,1.88-4.17,3.45-8.17,4.73-12,1.28-3.83,2.1-7.36,2.48-10.59.38-3.68.04-6.5-1.01-8.45-1.05-1.95-2.44-3.16-4.17-3.61-1.73-.45-3.63-.19-5.69.79-2.07.98-3.89,2.52-5.47,4.62-2.25,2.86-4.47,6.29-6.65,10.31-2.18,4.02-4.32,8.47-6.42,13.35-2.1,4.88-4.17,10.14-6.2,15.78-2.03,5.63-3.94,11.49-5.75,17.58-7.59.83-15.16,1.46-22.71,1.92-7.55.45-15.08.49-22.6.11-2.18-.15-4.38-.34-6.59-.56-2.22-.23-4.53-.52-6.93-.9-1.13-1.95-2.25-3.06-3.38-3.32-1.13-.26-1.99-.07-2.59.56-.6.64-.83,1.48-.68,2.54.15,1.05.9,1.92,2.25,2.59,2.18.6,4.94,1.09,8.28,1.47,3.34.38,7.12.64,11.33.79,7.29.38,14.43.49,21.41.34,6.99-.15,13.94-.45,20.85-.9-2.63,9.02-5.01,18.28-7.16,27.78-.99,4.4-1.91,8.75-2.76,13.05-.51.62-1.59,1.66-3.27,3.12-1.8,1.58-4.02,3.36-6.65,5.35-2.63,1.99-5.52,4-8.68,6.03-3.16,2.03-6.37,3.78-9.64,5.24-3.27,1.47-6.42,2.48-9.47,3.04-3.04.56-5.73.36-8.06-.62-2.25-.9-3.81-2.25-4.68-4.06-.86-1.8-1.3-3.78-1.3-5.92s.32-4.3.96-6.48c.64-2.18,1.33-4.13,2.08-5.86,2.55.08,5.05-.17,7.49-.73,2.44-.56,4.58-1.33,6.42-2.31,1.84-.97,3.29-2.12,4.34-3.44,1.05-1.31,1.46-2.72,1.24-4.23-.15-1.28-.75-2.44-1.8-3.49-1.05-1.05-2.59-1.8-4.62-2.25-2.18-.45-4.28-.38-6.31.23-2.03.6-3.94,1.52-5.75,2.76-1.8,1.24-3.46,2.65-4.96,4.23-1.5,1.58-2.78,3.12-3.83,4.62-1.09,1.56-2.08,3.21-2.97,4.95-1.22,1.5-2.63,3.15-4.24,4.97-1.73,1.96-3.61,3.93-5.63,5.92-2.03,1.99-4.13,3.94-6.31,5.86-2.18,1.92-4.38,3.61-6.59,5.07-2.22,1.46-4.38,2.61-6.48,3.44-2.1.83-4.06,1.17-5.86,1.01-2.63-.6-3.89-2.69-3.78-6.25.11-3.57,1.48-8.4,4.11-14.48.68-1.58.41-2.72-.79-3.44-1.2-.71-2.78-.66-4.73.17-1.05.45-2.27,1.22-3.66,2.31-1.39,1.09-2.84,2.29-4.34,3.61-1.5,1.32-3.01,2.65-4.51,4-1.5,1.35-2.93,2.59-4.28,3.72.98-2.93,1.84-6.1,2.59-9.52.75-3.42,1.16-6.59,1.24-9.52.07-2.93-.32-5.37-1.18-7.32-.86-1.95-2.42-2.93-4.68-2.93-2.63,0-5.15.94-7.55,2.82-2.41,1.88-4.72,4.3-6.93,7.27-2.22,2.97-4.3,6.25-6.25,9.86-1.95,3.61-3.78,7.1-5.47,10.48-1.69,3.38-3.23,6.46-4.62,9.24-1.39,2.78-2.61,4.81-3.66,6.08-.38.45-.66.66-.85.62-.19-.04-.32-.17-.39-.39-.08-.23-.11-.51-.11-.84v-.73c.15-2.55.86-5.75,2.14-9.58,1.28-3.83,2.72-7.78,4.34-11.83,1.61-4.06,3.21-7.95,4.79-11.66,1.58-3.72,2.7-6.71,3.38-8.96.37-1.2.3-2.27-.23-3.21-.53-.94-1.33-1.58-2.42-1.92-1.09-.34-2.29-.3-3.61.11-1.32.41-2.57,1.33-3.78,2.76-1.58,1.88-3.12,4.6-4.62,8.17-.69,1.64-1.33,3.33-1.93,5.06-2,2.32-4.62,4.75-7.87,7.28-3.38,2.63-6.97,5-10.76,7.1-3.79,2.1-7.55,3.7-11.27,4.79-3.72,1.09-6.93,1.33-9.64.73-1.58-.38-2.93-1.09-4.06-2.14-1.13-1.05-1.92-2.5-2.37-4.34-.45-1.84-.53-4.15-.23-6.93.3-2.78,1.09-6.09,2.37-9.92.38-1.2.32-2.25-.17-3.16-.49-.9-1.24-1.5-2.25-1.8-1.01-.3-2.2-.24-3.55.17-1.35.41-2.7,1.26-4.06,2.54-.38.38-1.17,1.2-2.37,2.48-1.2,1.28-2.61,2.74-4.23,4.4-1.62,1.65-3.31,3.38-5.07,5.18-1.77,1.8-3.44,3.4-5.01,4.79-1.58,1.39-2.95,2.46-4.11,3.21-1.17.75-1.9.9-2.2.45-.38-.52-.55-1.26-.51-2.2.04-.94.17-1.92.39-2.93.23-1.01.51-1.97.85-2.87.34-.9.62-1.61.85-2.14,1.05-2.55,2.48-5.07,4.28-7.55,1.8-2.48,3.79-4.68,5.97-6.59,2.18-1.92,4.47-3.42,6.87-4.51,2.4-1.09,4.77-1.52,7.1-1.3,1.8.15,3.49.73,5.07,1.75,1.58,1.01,2.89,2.5,3.94,4.45.52,1.35,1.26,2.31,2.2,2.87.94.56,1.8.77,2.59.62.79-.15,1.37-.6,1.75-1.35.38-.75.26-1.76-.34-3.04-1.28-2.7-3.16-4.75-5.63-6.14-2.48-1.39-5.15-2.27-8-2.65-4.73-.68-9.35-.34-13.86,1.01-4.51,1.35-8.58,3.44-12.23,6.25-3.64,2.82-6.69,6.22-9.13,10.2-2.44,3.98-3.93,8.3-4.45,12.96-.3,2.33-.17,4.58.39,6.76.56,2.18,1.75,3.72,3.55,4.62,2.03,1.05,4.11,1.28,6.25.68,2.14-.6,4.24-1.67,6.31-3.21,2.07-1.54,4.07-3.38,6.03-5.52,1.95-2.14,3.76-4.26,5.41-6.37,1.65-2.1,3.14-4.02,4.45-5.75,1.31-1.73,2.38-2.93,3.21-3.61-1.58,3.08-2.48,6.07-2.7,8.96-.23,2.89.17,5.49,1.18,7.78,1.01,2.29,2.65,4.21,4.9,5.75,2.25,1.54,5.07,2.46,8.45,2.76,4.13.45,8.36.11,12.68-1.01,4.32-1.13,8.51-2.74,12.57-4.85,4.06-2.1,7.83-4.58,11.33-7.44.85-.7,1.67-1.4,2.47-2.1-.74,3.14-1.33,6.28-1.73,9.42-.52,4.06-.64,7.55-.34,10.48.08,1.05.23,2.18.45,3.38.23,1.2.58,2.33,1.07,3.38.49,1.05,1.11,1.93,1.86,2.65.75.71,1.76,1.07,3.04,1.07s2.5-.58,3.66-1.75c1.16-1.17,2.29-2.65,3.38-4.45,1.09-1.8,2.1-3.76,3.04-5.86.94-2.1,1.82-4.06,2.65-5.86.15-.23.64-1.14,1.47-2.76.83-1.61,1.86-3.57,3.1-5.86,1.24-2.29,2.63-4.71,4.17-7.27,1.54-2.55,3.08-4.86,4.62-6.93,1.54-2.07,3-3.72,4.39-4.96,1.39-1.24,2.61-1.67,3.66-1.3.98.75,1.28,2.39.9,4.9-.38,2.52-1.22,5.49-2.54,8.9-1.32,3.42-2.97,7.04-4.96,10.87-1.99,3.83-4.08,7.4-6.25,10.71-1.28,2.03-1.32,3.55-.11,4.56,1.2,1.01,3.12,1,5.75-.06,2.1-1.28,3.72-2.57,4.85-3.89,1.13-1.31,2.44-2.65,3.94-4,1.5-1.43,3.08-2.82,4.73-4.17,1.65-1.35,3.16-2.54,4.51-3.55,1.35-1.01,2.44-1.78,3.27-2.31.83-.52,1.16-.64,1.01-.34-.98,2.18-1.56,4.23-1.75,6.14-.19,1.92.06,3.62.73,5.13.68,1.5,1.78,2.74,3.32,3.72,1.54.98,3.59,1.54,6.14,1.69,4.06.23,8.04-.58,11.95-2.42,3.91-1.84,7.62-4.19,11.16-7.04,3.53-2.85,6.86-5.97,9.97-9.35.25-.27.49-.54.73-.81-.09.9-.14,1.79-.12,2.67.08,3.04.98,5.79,2.7,8.23,1.73,2.44,4.62,4.15,8.68,5.13,3.16.68,6.46.81,9.92.39,3.46-.41,6.95-1.18,10.48-2.31,3.53-1.13,7-2.59,10.42-4.4,3.42-1.8,6.65-3.72,9.69-5.75,3.04-2.03,5.84-4.15,8.4-6.37.51-.44.99-.88,1.47-1.32-.44,2.39-.85,4.76-1.25,7.12-1.5,9.02-2.63,17.6-3.38,25.75-.75,8.15-1.01,15.38-.79,21.69.15,6.09.85,11.4,2.08,15.95,1.24,4.54,3.06,8.02,5.47,10.42,1.73,1.58,3.36,2.44,4.9,2.59,1.54.15,2.76-.08,3.66-.68.9-.6,1.33-1.39,1.3-2.37-.04-.98-.73-1.88-2.08-2.7-3.83-2.18-6.65-5.18-8.45-9.02-1.8-3.83-2.78-8.75-2.93-14.76-.15-3.83.04-8.1.56-12.79.53-4.7,1.26-9.6,2.2-14.71.94-5.11,2.03-10.29,3.27-15.55,1.24-5.26,2.57-10.33,4-15.21,1.43-4.88,2.87-9.47,4.34-13.75,1.47-4.28,2.83-8.04,4.11-11.27,1.95-3,4.06-6.27,6.31-9.8,2.25-3.53,4.58-7.21,6.99-11.04.3,0,.56-.04.79-.11,4.73-.53,9.93-1.2,15.61-2.03,5.67-.83,11.4-1.54,17.19-2.14,5.78-.6,11.44-1.03,16.96-1.3,5.15-.24,9.8-.17,14,.21-.11.08-.22.15-.31.24-.6.64-.83,1.48-.68,2.54.15,1.05.9,1.92,2.25,2.59,2.18.6,4.94,1.09,8.28,1.47,2.27.26,4.74.45,7.41.6.11.21.22.42.32.64.75,1.65,1.73,2.61,2.93,2.87,1.2.26,2.29.11,3.27-.45.97-.56,1.63-1.35,1.97-2.37.03-.1.06-.21.08-.31,5.68.21,11.27.26,16.76.14,6.99-.15,13.94-.45,20.85-.9-2.63,9.02-5.01,18.28-7.16,27.78-.99,4.4-1.91,8.75-2.76,13.04-1.19,1.48-2.78,3.23-4.79,5.27-2.07,2.1-4.36,4.28-6.87,6.54-2.52,2.25-5.13,4.45-7.83,6.59-2.7,2.14-5.34,3.96-7.89,5.47-1.95,1.13-4.04,2.1-6.25,2.93-2.22.83-4.28,1.18-6.2,1.07-1.92-.11-3.59-.85-5.01-2.2-1.43-1.35-2.29-3.61-2.59-6.76-.08-.3-.11-.79-.11-1.47,2.7-2.4,5.73-4.28,9.07-5.63,3.34-1.35,6.93-2.4,10.76-3.16,1.88-.38,3.08-1.18,3.61-2.42.53-1.24.53-2.38,0-3.44-.53-1.05-1.5-1.76-2.93-2.14-1.43-.38-3.19.08-5.3,1.35-2.18,1.35-4.56,2.95-7.16,4.79-2.59,1.84-5.2,3.85-7.83,6.03.37-2.33.88-4.85,1.52-7.55.64-2.7,1.37-5.56,2.2-8.56.45-1.88.38-3.4-.23-4.56-.6-1.16-1.5-1.9-2.7-2.2-1.2-.3-2.52-.09-3.94.62-1.43.72-2.7,2.01-3.83,3.89-.99,1.7-1.74,3.6-2.26,5.7-.55.64-1.6,1.63-3.15,2.98-1.8,1.58-4.02,3.36-6.65,5.35-2.63,1.99-5.52,4-8.68,6.03-3.16,2.03-6.37,3.78-9.64,5.24-3.27,1.47-6.42,2.48-9.47,3.04-3.04.56-5.73.36-8.06-.62-2.25-.9-3.81-2.25-4.68-4.06-.86-1.8-1.3-3.78-1.3-5.92s.32-4.3.96-6.48c.64-2.18,1.33-4.13,2.08-5.86,2.55.08,5.05-.17,7.49-.73,2.44-.56,4.58-1.33,6.42-2.31,1.84-.97,3.29-2.12,4.34-3.44,1.05-1.31,1.46-2.72,1.24-4.23-.15-1.28-.75-2.44-1.8-3.49-1.05-1.05-2.59-1.8-4.62-2.25-2.18-.45-4.28-.38-6.31.23-2.03.6-3.94,1.52-5.75,2.76-1.8,1.24-3.46,2.65-4.96,4.23-1.5,1.58-2.78,3.12-3.83,4.62-1.95,2.78-3.59,5.84-4.9,9.18-1.31,3.34-1.93,6.54-1.86,9.58.08,3.04.98,5.79,2.7,8.23,1.73,2.44,4.62,4.15,8.68,5.13,3.16.68,6.46.81,9.92.39,3.46-.41,6.95-1.18,10.48-2.31,3.53-1.13,7-2.59,10.42-4.4,3.42-1.8,6.65-3.72,9.69-5.75,3.04-2.03,5.84-4.15,8.4-6.37.61-.53,1.19-1.05,1.75-1.57,0,.03,0,.07,0,.1-.11,2.37-.02,4.71.28,7.04.3,2.33.79,4.51,1.46,6.54-2.85,3.16-5.18,6.5-6.99,10.03-1.8,3.53-2.67,7.14-2.59,10.82,0,1.35.34,2.37,1.01,3.04.68.68,1.39,1,2.14.96.75-.04,1.43-.43,2.03-1.18.6-.75.86-1.84.79-3.27.53-3.38,1.26-6.42,2.2-9.13.94-2.7,2.05-5.15,3.32-7.32,1.58,2.63,3.53,4.51,5.86,5.63,2.33,1.13,4.77,1.71,7.32,1.75,2.55.04,5.11-.32,7.66-1.07,2.55-.75,4.88-1.69,6.99-2.82,2.78-1.5,5.62-3.34,8.51-5.52,2.89-2.18,5.67-4.47,8.34-6.87,2.67-2.4,5.11-4.79,7.32-7.16.12-.13.23-.24.34-.37-.37,2.07-.74,4.13-1.08,6.17-1.5,9.02-2.63,17.6-3.38,25.75-.75,8.15-1.01,15.38-.79,21.69.15,6.09.85,11.4,2.08,15.95,1.24,4.54,3.06,8.02,5.47,10.42,1.73,1.58,3.36,2.44,4.9,2.59,1.54.15,2.76-.08,3.66-.68.9-.6,1.33-1.39,1.3-2.37-.04-.98-.73-1.88-2.08-2.7-3.83-2.18-6.65-5.18-8.45-9.02-1.8-3.83-2.78-8.75-2.93-14.76-.15-3.83.04-8.1.56-12.79.53-4.7,1.26-9.6,2.2-14.71.94-5.11,2.03-10.29,3.27-15.55,1.24-5.26,2.57-10.33,4-15.21,1.43-4.88,2.87-9.47,4.34-13.75,1.46-4.28,2.83-8.04,4.11-11.27,1.95-3,4.06-6.27,6.31-9.8,2.25-3.53,4.58-7.21,6.99-11.04.3,0,.56-.04.79-.11,4.73-.53,9.93-1.2,15.61-2.03,5.67-.83,11.4-1.54,17.19-2.14,5.78-.6,11.44-1.03,16.96-1.3,5.52-.26,10.5-.17,14.93.28,4.06.45,7.53,1.3,10.42,2.54,2.89,1.24,4.86,3.06,5.92,5.47.75,1.65,1.73,2.61,2.93,2.87,1.2.26,2.29.11,3.27-.45.97-.56,1.63-1.35,1.97-2.37.34-1.01.02-1.93-.96-2.76Zm-307.93,33.13c.94-1.28,1.73-2.2,2.37-2.76.64-.56,1.16-.83,1.58-.79.41.04.73.28.96.73.3.68.26,1.52-.11,2.54-.38,1.01-.98,1.95-1.8,2.82-.83.86-1.79,1.58-2.87,2.14-1.09.56-2.2.77-3.32.62,1.2-2.25,2.27-4.02,3.21-5.3Zm62.6-26.93c.23-.9.45-1.8.68-2.7.23-.9.49-1.8.79-2.7.3,0,.6-.02.9-.06.3-.04.6-.06.9-.06l-3.27,5.52Zm6.09-10.59l-3.27.34c1.8-6.09,3.81-11.96,6.03-17.64,2.21-5.67,4.6-10.88,7.16-15.61,2.25-4.13,4.21-7.29,5.86-9.47,1.65-2.18,2.82-3.23,3.49-3.16.68.08.77,1.26.28,3.55-.49,2.29-1.75,5.8-3.78,10.54-2.03,5.03-4.43,10.24-7.21,15.61-2.78,5.37-5.63,10.65-8.56,15.83Zm73.81,2.03c-.66-1.14-1.31-1.98-1.97-2.54,2.89.49,5.45,1.2,7.66,2.15.95.41,1.79.89,2.54,1.42-.44-.04-.87-.08-1.31-.12-2.22-.23-4.53-.52-6.93-.9Zm-52.34,35.5c.94-1.28,1.73-2.2,2.37-2.76.64-.56,1.16-.83,1.58-.79.41.04.73.28.96.73.3.68.26,1.52-.11,2.54-.38,1.01-.98,1.95-1.8,2.82-.83.86-1.79,1.58-2.87,2.14-1.09.56-2.2.77-3.32.62,1.2-2.25,2.27-4.02,3.21-5.3Zm119.06-26.93c.23-.9.45-1.8.68-2.7.23-.9.49-1.8.79-2.7.3,0,.6-.02.9-.06.3-.04.6-.06.9-.06l-3.27,5.52Zm6.09-10.59l-3.27.34c1.8-6.09,3.81-11.96,6.03-17.64,2.21-5.67,4.6-10.88,7.16-15.61,2.25-4.13,4.21-7.29,5.86-9.47,1.65-2.18,2.82-3.23,3.49-3.16.68.08.77,1.26.28,3.55-.49,2.29-1.75,5.8-3.78,10.54-2.03,5.03-4.43,10.24-7.21,15.61-2.78,5.37-5.63,10.65-8.56,15.83Z"/>
  </g>
  <g>
    <path class="cls-2s-n07 second-color" d="m193.87,572.41l-18.12-24.46v18.11c0,1.5.07,2.49.22,2.96.14.47.56.91,1.24,1.31.68.4,1.7.6,3.06.6v.89h-9.56v-.89c1.22-.09,2.15-.32,2.8-.68s1.02-.76,1.14-1.18c.12-.42.18-1.42.18-3v-13.84c0-2-.09-3.34-.27-4.02-.18-.68-.47-1.12-.87-1.31-.4-.19-1.28-.29-2.66-.29v-.89h7.56l15.18,20.42v-15.61c0-1.15-.12-1.96-.35-2.42-.23-.46-.71-.83-1.43-1.1-.72-.27-1.58-.4-2.59-.4v-.89h9.3v.89c-1.08.09-1.94.3-2.56.63-.62.33-1.02.73-1.19,1.2-.17.47-.26,1.26-.26,2.38v21.59h-.81Z"/>
    <path class="cls-2s-n07 second-color" d="m214.7,562.2h-9.73l-.66,1.66c-.98,2.4-1.47,3.96-1.47,4.7,0,.78.26,1.38.78,1.78.52.4,1.19.61,2.01.61v.89h-7.62v-.89c1.13-.18,1.98-.59,2.53-1.22.55-.64,1.22-1.97,2-4.01.06-.19.37-.94.91-2.23l7.45-18.11h.74l8.56,20.73,1.17,2.73c.26.62.62,1.1,1.07,1.45s1.12.57,2.01.66v.89h-10.07v-.89c1.23,0,2.07-.09,2.5-.28.43-.19.65-.55.65-1.11,0-.28-.29-1.12-.87-2.52l-1.97-4.83Zm-.32-.87l-4.54-11.12-4.52,11.12h9.05Z"/>
    <path class="cls-2s-n07 second-color" d="m225.21,546.61v-.89h11.72v.89h-.55c-1.26,0-2.09.11-2.48.32-.39.21-.65.61-.78,1.18s-.2,1.95-.2,4.12v12.8c0,2.05.05,3.4.14,4.03.09.63.35,1.11.76,1.41.41.31,1.19.46,2.35.46h.76v.89h-11.72v-.89h.76c1.1,0,1.86-.14,2.28-.42.42-.28.69-.72.8-1.32s.17-1.98.17-4.17v-12.8c0-2.08-.06-3.42-.17-4.02-.11-.6-.37-1.02-.76-1.25s-1.23-.35-2.53-.35h-.55Z"/>
    <path class="cls-2s-n07 second-color" d="m260.96,564.14l-.19,7.68h-21.77v-.89h.76c1.1,0,1.86-.14,2.28-.42.42-.28.69-.72.81-1.32.12-.6.18-1.98.18-4.17v-12.8c0-2.08-.06-3.42-.18-4.02-.12-.6-.37-1.02-.76-1.25-.38-.23-1.23-.35-2.52-.35h-.57v-.89h12.3v.89h-1.13c-1.26,0-2.09.11-2.48.32s-.65.61-.78,1.18-.2,1.95-.2,4.12v13.66c0,1.89.05,3.07.15,3.54.1.47.37.84.82,1.11.45.26,1.41.39,2.88.39h1.95c1.58,0,2.74-.14,3.51-.42.76-.28,1.49-.9,2.17-1.85s1.31-2.46,1.88-4.52h.89Z"/>
    <path class="cls-2s-n07 second-color" d="m287.63,556.06h8.09v.89c-1.01.28-1.9.78-2.68,1.5-.74.69-1.52,2.05-2.34,4.06-.68,1.65-1.3,2.86-1.87,3.62,1.35,1.98,2.41,3.22,3.18,3.73.78.53,1.6.79,2.46.79,1.18,0,2.1-.57,2.74-1.71h.87c-.26,1.05-.83,1.91-1.7,2.56-.86.64-1.85.96-2.99.96-2.46,0-4.62-1.26-6.48-3.77-2.2,2.51-4.55,3.77-7.03,3.77-.89.01-1.78-.15-2.65-.5-.87-.35-1.64-.84-2.32-1.47-.68-.64-1.23-1.39-1.64-2.27-.42-.88-.61-1.84-.59-2.9,0-1.6.43-2.96,1.29-4.06.86-1.09,2.51-2.48,4.97-4.16-1.47-2.09-2.21-3.98-2.21-5.68,0-1.32.5-2.51,1.51-3.56,1-1.05,2.26-1.58,3.8-1.58,1.37,0,2.6.39,3.69,1.17,1.1.8,1.64,1.82,1.64,3.08,0,1.98-1.81,3.89-5.44,5.75,1.13,1.55,2.23,3.07,3.28,4.56,1.05,1.49,2.08,2.96,3.07,4.41.72-1.01,1.29-2.07,1.7-3.18.42-1.09.62-1.95.62-2.58,0-1.48-.98-2.33-2.95-2.56v-.89Zm-8.15,1.83c-1.31.83-2.32,1.8-3.04,2.89-.72,1.1-1.08,2.16-1.08,3.18,0,1.59.62,3.09,1.87,4.48,1.25,1.4,2.66,2.1,4.23,2.1,1.74,0,3.36-.88,4.86-2.64-1.34-2.07-2.57-3.93-3.7-5.59-1.13-1.66-2.18-3.13-3.14-4.42Zm1.89-2.33c2.52-1.5,3.78-3.12,3.78-4.87,0-.51-.07-.98-.22-1.41-.15-.43-.35-.8-.62-1.11-.27-.31-.6-.55-.97-.71-.38-.17-.79-.25-1.25-.25-.92,0-1.65.31-2.19.92-.54.6-.81,1.37-.81,2.29,0,1.26.76,2.97,2.29,5.14Z"/>
    <path class="cls-2s-n07 second-color" d="m309.87,571.55v-8.39h.95c1.07,5.47,3.61,8.2,7.62,8.2,1.8,0,3.2-.52,4.19-1.57.99-1.05,1.48-2.22,1.48-3.51s-.43-2.41-1.3-3.29c-.87-.87-2.46-1.81-4.76-2.81-2.05-.9-3.6-1.68-4.65-2.36-1.05-.67-1.86-1.55-2.45-2.63-.59-1.08-.88-2.23-.88-3.44,0-1.86.63-3.41,1.9-4.65,1.27-1.24,2.87-1.86,4.81-1.86,1.08,0,2.1.18,3.06.54.96.36,1.94,1.1,2.95,2.23.58-.71.91-1.47.98-2.29h.83v6.83h-.83c-.48-1.99-1.33-3.55-2.54-4.7-1.22-1.14-2.62-1.71-4.22-1.71s-2.64.42-3.35,1.26c-.71.84-1.07,1.76-1.07,2.76,0,1.21.45,2.23,1.34,3.06.88.85,2.48,1.8,4.78,2.85,2.2,1,3.81,1.81,4.81,2.42s1.8,1.45,2.41,2.53c.6,1.08.91,2.32.91,3.73,0,2.23-.73,4.05-2.19,5.45-1.46,1.4-3.41,2.1-5.86,2.1-2.81,0-5.15-1.1-7.03-3.29-.42.6-.72,1.45-.93,2.54h-.95Z"/>
    <path class="cls-2s-n07 second-color" d="m337.5,559.54v5.48c0,2.05.05,3.4.14,4.03.09.63.35,1.11.77,1.41.42.31,1.2.46,2.34.46h.85v.89h-11.74v-.89h.68c1.1,0,1.86-.14,2.28-.42.42-.28.69-.72.8-1.32s.17-1.98.17-4.17v-12.8c0-2.08-.06-3.42-.17-4.02-.11-.6-.37-1.02-.76-1.25-.39-.23-1.23-.35-2.53-.35h-.47v-.89l3.21-.12c2.57-.09,4.57-.14,6.01-.14,2.65,0,4.68.21,6.11.64,1.43.42,2.6,1.17,3.51,2.25.91,1.08,1.37,2.44,1.37,4.08,0,1.42-.31,2.68-.94,3.77-.62,1.09-1.52,1.92-2.68,2.48s-3.22.85-6.15.85h-2.82Zm0-.96h1.83c1.47,0,2.66-.15,3.57-.45s1.66-.93,2.27-1.9c.6-.96.91-2.15.91-3.56,0-2.16-.52-3.74-1.56-4.74-1.04-1.01-2.72-1.51-5.06-1.51-.86,0-1.51.03-1.97.08v12.09Z"/>
    <path class="cls-2s-n07 second-color" d="m363.49,562.2h-9.73l-.66,1.66c-.98,2.4-1.47,3.96-1.47,4.7,0,.78.26,1.38.78,1.78.52.4,1.19.61,2.01.61v.89h-7.62v-.89c1.13-.18,1.98-.59,2.53-1.22.55-.64,1.22-1.97,2-4.01.06-.19.37-.94.91-2.23l7.45-18.11h.74l8.56,20.73,1.17,2.73c.26.62.62,1.1,1.07,1.45.45.35,1.12.57,2.01.66v.89h-10.07v-.89c1.23,0,2.07-.09,2.5-.28.43-.19.65-.55.65-1.11,0-.28-.29-1.12-.87-2.52l-1.97-4.83Zm-.32-.87l-4.54-11.12-4.52,11.12h9.05Z"/>
  </g>
</svg>