<svg id="Layer_1" data-name="Layer 1" xmlns="http://www.w3.org/2000/svg" viewBox="0 0 700 700">
  <defs>
    <style>
      .cls-1s-n06 {
        fill: #231f20;
      }
    </style>
  </defs>
  <path class="cls-1s-n06 second-color" d="m206.85,616.18v36.71h6.35v-36.71h-6.35Z"/>
  <path class="cls-1s-n06 second-color" d="m112.54,611.79c13.09,14.18,26.18,28.35,39.28,42.53.33-.15.66-.29.99-.44v-54.32h-4.21v40.6c-13.76-13.95-26.44-28.45-39.98-42.53-.46,18.94-.91,37.07-1.35,55.19h4.71v-40.7c.19-.11.38-.22.57-.33Z"/>
  <path class="cls-1s-n06 second-color" d="m435.14,616.13v36.62h6.22c0-7.62-.1-14.99.04-22.35.08-4.15,1.22-8.04,5.31-10.08,6.62-3.3,12.91.42,13.27,8.02.29,5.99,0,12.01-.01,18.02,0,2.16,0,4.31,0,6.51h6.16c0-4.3-.05-8.46.01-12.63.06-4.18.43-8.37.31-12.54-.24-8.58-5.42-13.07-14.02-12.56-4.58.28-7.93,2.69-11.05,6.64v-5.66h-6.24Z"/>
  <path class="cls-1s-n06 second-color" d="m180.45,632.67c-3.55.72-7.22,1.22-10.58,2.47-5.02,1.87-7.2,6.42-6.11,11.43.94,4.34,4.88,7.18,9.94,7.37,4.84.18,8.82-1.7,12.23-5,2.35,3.94,3.95,4.7,8.47,3.89.88-.16,1.66-.85,2.49-1.29-4.19-1.27-4.81-1.96-4.79-6.05.03-6.28.23-12.56.23-18.84,0-5.77-3.05-9.69-8.64-11.05-5.01-1.22-9.67-.22-14.19,2.25-2.64,1.44-2.89,3.31-1.99,6.52.97-1.2,1.55-2.1,2.3-2.82,4.8-4.62,12.71-3.98,15.34,1.19,2.84,5.59,1.35,8.69-4.69,9.93Zm5.52,12.07c-.19,2.66-5.1,5.84-8.65,5.98-3.16.12-5.9-1.79-6.83-4.75-1.15-3.66-.06-7.35,3.38-8.79,3.79-1.58,7.92-2.38,12.17-3.6,0,4.14.19,7.66-.06,11.16Z"/>
  <path class="cls-1s-n06 second-color" d="m396.43,651.08c6.98,3.89,14.34,4.07,21.38.32,6.56-3.49,8.64-9.69,8.58-16.78,0-.64.02-1.27,0-1.91-.39-8.75-5.6-15.17-13.82-17.03-9.29-2.1-18.22,1.2-21.89,8.62-3.56,7.2-3.45,14.64.63,21.65,1.18,2.03,3.08,3.98,5.13,5.12Zm.3-25.55c1.68-5.2,5.35-7.7,10.62-7.71,5.34,0,8.94,2.39,10.62,7.65.96,2.99,1.28,6.19,1.9,9.34-.67,3.2-1.02,6.4-2.03,9.37-1.64,4.82-5.48,7.31-10.4,7.33-5.02.03-8.9-2.56-10.59-7.48-2.1-6.11-2.1-12.37-.12-18.5Z"/>
  <path class="cls-1s-n06 second-color" d="m228.7,594.32v58.46h6.39v-58.46h-6.39Z"/>
  <path class="cls-1s-n06 second-color" d="m311.78,650.72c-4.08,1.19-7.27-.4-10.04-3.26-.58-.6-1.13-1.23-1.96-2.14-.64,2.34-1.13,4.14-1.75,6.43,6.48,2.63,12.78,3.54,18.87-.39,4.09-2.64,5.87-6.67,5.22-11.52-.59-4.42-3.93-6.28-7.72-7.53-2.07-.68-4.32-1-6.2-2.01-1.57-.84-3.2-2.22-3.97-3.77-1.35-2.7.09-6.01,2.69-7.5,3.04-1.74,6.87-.99,9.08,1.79.57.72,1.12,1.45,1.95,2.54.79-2.37,1.41-4.21,2.28-6.81-3.9-.49-7.45-1.4-10.97-1.27-6.31.23-10.36,4.53-10.95,10.78-.49,5.22,2.37,8.78,8.52,10.69,2.08.65,4.17,1.28,6.17,2.13,2.56,1.1,4.06,2.98,3.76,5.98-.28,2.82-2.08,5-4.97,5.84Z"/>
  <path class="cls-1s-n06 second-color" d="m344.98,632.61c-3.41.94-7.02,1.23-10.32,2.43-5.07,1.84-7.28,6.2-6.35,11.32.81,4.43,4.84,7.39,10.04,7.58,4.83.17,8.79-1.74,12.2-5.04,2.22,3.98,4.34,4.91,8.76,3.9.78-.18,1.43-.88,2.15-1.35-4.1-1.12-4.79-1.85-4.78-5.74.03-6.37.25-12.75.23-19.12-.01-5.76-3.1-9.66-8.71-11.01-5.11-1.23-9.87-.18-14.42,2.45-2.53,1.46-2.49,3.35-1.78,6.03.83-.9,1.41-1.56,2.02-2.19,3.29-3.41,9.16-4.43,12.82-2.24,2.83,1.7,4.68,5.99,3.98,9.54-.64,3.26-3.65,2.83-5.85,3.44Zm5.63,11.83c-.12,2.63-4.52,5.86-8.14,6.25-3.15.34-6.09-1.38-7.2-4.21-1.37-3.48-.55-7.15,2.53-8.89,2.24-1.26,4.85-1.9,7.36-2.63,1.72-.5,3.54-.67,5.49-1.02,0,3.63.12,7.07-.04,10.49Z"/>
  <path class="cls-1s-n06 second-color" d="m371.41,594.38v58.49h6.39v-58.49h-6.39Z"/>
  <polygon class="cls-1s-n06 second-color" points="300.21 455.08 274.31 496.44 253.55 455.08 239.49 455.08 266.51 509.12 239.21 552.57 241.58 552.57 267.48 511.2 288.23 552.57 302.3 552.57 275.28 498.53 302.58 455.08 300.21 455.08"/>
  <polygon class="cls-1s-n06 second-color" points="329.17 427.16 343.1 427.16 343.1 329.67 329.45 329.67 300.35 407.38 271.24 329.67 257.59 329.67 257.59 427.16 259.54 427.16 259.54 336.08 293.66 427.16 295.05 427.16 329.17 336.08 329.17 427.16"/>
  <polygon class="cls-1s-n06 second-color" points="247.85 427.16 217.49 329.67 203.42 329.67 222.08 389.42 185.45 389.42 173.62 427.16 175.71 427.16 186.85 391.37 222.78 391.37 233.92 427.16 247.85 427.16"/>
  <path class="cls-1s-n06 first-color" d="m628.43,222.72c-30.87-19.54-60.8-38.47-90.72-57.41,28.96-5.2,61.48,7.52,75.51-32.64-49.24-6.77-97.52-13.4-151.46-20.81,30.24-20.14,70.31-21.48,68.25-65.02-2.83-.6-4.35-1.45-5.42-1.07-5.8,2.07-11.7,4.04-17.19,6.78-65.91,32.93-134.55,48.24-209.03,41.02-26.24-2.55-54.59,4.91-80.43,12.84-32.68,10.03-63.65,25.55-95.6,38.07-33.19,13.01-51.14,37.82-51.61,72.42-1.26,93.41-1.56,186.85-.5,280.25.54,47.37,35.84,83.77,81.71,84.36,93.4,1.19,186.85,1.12,280.25-.07,37.41-.47,62.39-22.02,76.57-56.19,2.35-5.66,2.97-12.53,6.6-17.08,13.18-16.51,3.49-27.95-6.51-42.82-9.44,15.12-17.49,26.48-7.09,42.08,2.58,3.87.64,12.18-1.51,17.52-11.89,29.45-33.85,47.53-65.77,47.85-94.78.95-189.58,1.14-284.35,0-40.63-.49-71.21-32.56-71.46-73.18-.59-95.48-.26-190.96.28-286.44.14-24.54,11.38-44.99,33.79-54.98,70.67-31.52,140.03-63.95,222.03-59.71,50.14,2.6,95.03,9.17,137.88,36.96,18.23,11.82,37.28,18.17,62.76,33.84,22.74,13.99,38.34,23.52,48.95,29.98,0,0,12.93,12.14,15.6,19.67,1.94,5.46,14.46,8.63,21.22,9.97-4.77,6.35-22.88,9.06-42.68-.95-23.08-11.68-72.58-27.86-132.24-77.38,32.9,27.31,50.92,49.66,53.35,151.71.25,10.5-9.8,16.08-5.47,25.11-10.47-21.81-27.38-57.26-30.77-80.64-5.12-35.26-28.95-49.73-56.52-61.59-20.29-8.73-30.26-.84-28.65,21.29,2.04,28.1,16.85,50.12,34.6,70.88,7.78,9.1,26.06,48.13,33.94,60.61-19.4-29.34-16.36,3.37-52.23-39.43-2.18-2.6-32.54-27.17-35.51-28.88-43.05-24.74-86.11-49.46-126.85-72.85-28.79,17.7-60.49,37.19-92.19,56.68.32.87.64,1.75.96,2.62,5.96-2.08,12.41-3.32,17.79-6.41,19-10.91,38-21.91,56.29-33.95,13.8-9.08,24.64-10.06,38.6,1.53,15.67,13.01,33.52,24.19,51.97,32.86,42.93,20.16,82.25,43.99,108.33,85.35,9.08,14.4,32.12,14.34,36.66,34.09.17.72,2.5,1.52,3.69,1.34,17-2.54,19.94,9.96,23.95,21.79,5.93,17.51,11.79,35.07,18.78,52.17,1.89,4.62,7.74,7.63,11.77,11.37,1.34-5.7,5.1-12.15,3.6-16.97-6.07-19.59-13.99-38.6-20.67-58.02-1.91-5.56-4.67-13.3-2.36-17.42,12.24-21.84,13.34-45.95,13.01-69.33-.46-33.36-5.03-66.65-7.8-99.52,4.58,2.07,11.43,5.11,18.23,8.24,23.06,10.63,45.78,22.11,69.27,31.69,15.11,6.16,30.4,7.64,43.46-5.24,0,0,0,0,0,0v-.02c1.68-1.65,3.32-3.53,4.91-5.67-.66-.42-1.32-.83-1.98-1.25h0Zm-210.35-127.49c108.29-43.26,40.57,2.42,103.37-35.66-16.27,31.81-73.6,52.28-103.37,35.66Zm46.85,23.32c157.01,12.14,66.24,25.43,132.47,25.35-34.5,21.6-96.81,8.86-132.47-25.35Zm-51.74,145.19c-11.78-18.65-19.77-39.82-27.57-60.68-.89-2.37,7.54-11.72,12.03-12.01,22.5-1.47,56.02,31.54,56.43,58.23-1.41,1.56-4.28,7.66-8.59,8.96-10.85,3.26-29.98,9.18-32.3,5.51Zm31.57,58.33c-6.05-15.66-11.6-30.04-18.69-48.4,10.74-2.72,27.88-10.61,30.65-7.12,9.48,11.96,13.91,27.92,20.87,43.72-13.22,4.75-23.2,8.33-32.83,11.8Zm7.91,35.09c-1.24-1.02-2.48-2.03-3.72-3.05,2.24-4.32,3.5-11.12,6.92-12.49,9.42-3.77,19.74-5.27,29.71-7.67.64,3.24,1.29,6.49,1.93,9.73-11.61,4.5-23.23,8.99-34.84,13.49Z"/>
  <polygon class="cls-1s-n06 second-color" points="150.36 427.16 163.87 427.16 163.87 329.67 161.92 329.67 161.92 422.01 115.68 329.67 102.18 329.67 102.18 427.16 104.12 427.16 104.12 334.82 150.36 427.16"/>
  <polygon class="cls-1s-n06 second-color" points="230.85 457.03 230.85 455.08 182.11 455.08 182.11 552.57 230.85 552.57 230.85 550.62 196.04 550.62 196.04 507.72 219.85 507.72 219.85 499.79 196.04 499.79 196.04 457.03 230.85 457.03"/>
  <polygon class="cls-1s-n06 second-color" points="143.54 552.57 143.54 457.03 172.37 457.03 172.37 455.08 100.78 455.08 100.78 457.03 129.61 457.03 129.61 552.57 143.54 552.57"/>
  <polygon class="cls-1s-n06 second-color" points="402.98 331.62 402.98 329.67 354.24 329.67 354.24 427.16 402.98 427.16 402.98 425.21 368.17 425.21 368.17 382.31 391.98 382.31 391.98 374.38 368.17 374.38 368.17 331.62 402.98 331.62"/>
  <path class="cls-1s-n06 second-color" d="m259.88,650.71c-4.07,1.19-7.28-.36-10.07-3.21-.62-.63-1.27-1.24-2.07-2.03-.6,2.33-1.08,4.16-1.54,5.95,5.26,3.32,13.62,3.43,18.51.17,4.14-2.76,6.11-6.71,5.47-11.69-.59-4.56-4.06-6.39-7.94-7.66-1.99-.65-4.15-.94-5.95-1.91-1.58-.85-3.23-2.19-4.01-3.74-1.41-2.79.11-6.18,2.88-7.65,3.02-1.6,6.69-.84,8.84,1.85.58.72,1.12,1.48,1.97,2.59.8-2.35,1.42-4.18,2.31-6.8-3.88-.49-7.43-1.4-10.94-1.29-6.3.2-10.37,4.48-10.99,10.74-.52,5.22,2.29,8.75,8.48,10.71,2.08.66,4.18,1.26,6.17,2.13,2.52,1.1,4.1,2.94,3.81,5.96-.27,2.81-2.07,5.05-4.93,5.88Z"/>
  <polygon class="cls-1s-n06 second-color" points="353.69 552.57 353.69 457.03 382.51 457.03 382.51 455.08 310.93 455.08 310.93 457.03 339.76 457.03 339.76 552.57 353.69 552.57"/>
</svg>