<svg id="Layer_1" data-name="Layer 1" xmlns="http://www.w3.org/2000/svg" viewBox="0 0 700 700">
  <path class="first-color" d="m410.75,364.2c-46.5,102.17-74.66,206.97-30.78,206.97h-106.76c38.64,0,73.36-68.12,137.54-206.97Zm222.69,206.97h-127.72c22.92-.65,46.5-8.51,41.92-36.68l-15.72-101.52c-6.55.65-51.74,0-119.86-1.96,72.05-1.96,117.24-2.62,118.55-2.62l-47.81-297.35c32.75-9.83,53.71-37.33,49.12-69.43l70.08,472.88c3.93,24.89,9.83,36.02,31.44,36.68Z"/>
  <g>
    <path class="second-color" d="m159.42,396.01c.3,0,.45.15.45.45,0,.23-.15.34-.45.34-4.52,0-8.67-.66-12.44-1.98-3.77-1.32-7.03-3.26-9.78-5.82-2.75-2.56-4.88-5.73-6.39-9.5-1.51-3.77-2.26-8.07-2.26-12.89,0-6.94,1.26-13.63,3.79-20.07,2.53-6.45,5.67-12.61,9.44-18.49,3.77-5.88,7.84-11.44,12.21-16.68,4.37-5.24,8.44-10.14,12.21-14.7,3.77-4.56,6.92-8.78,9.44-12.67,2.53-3.88,3.79-7.37,3.79-10.46,0-1.51-.4-2.53-1.19-3.05-.79-.53-1.79-.79-3-.79-.98,0-2.05.17-3.22.51-1.17.34-2.32.74-3.45,1.19-1.13.45-2.15.92-3.05,1.41-.9.49-1.58.85-2.03,1.07-5.43,3.17-11.2,6.97-17.3,11.42-6.11,4.45-12.33,9.33-18.66,14.64-6.33,5.32-12.63,10.93-18.88,16.85-6.26,5.92-12.23,11.87-17.92,17.87-5.69,5.99-10.99,11.91-15.89,17.75-4.9,5.84-9.12,11.37-12.67,16.57-.07,0-.15.04-.23.11h-.11v.11c0,.07-.06.06-.17-.06-.11-.11-.21-.21-.28-.28.53-4.45,1.85-9.05,3.96-13.8,2.11-4.75,4.75-9.56,7.92-14.42,3.17-4.86,6.71-9.72,10.63-14.59,3.92-4.86,7.9-9.69,11.93-14.48,4.03-4.79,7.97-9.48,11.82-14.08,3.84-4.6,7.33-9.03,10.46-13.29,3.13-4.26,5.73-8.31,7.8-12.16,2.07-3.84,3.3-7.42,3.68-10.74,0-.3.15-.45.45-.45.3.08.45.27.45.56-.45,3.92-1.72,8.01-3.79,12.27-2.07,4.26-4.62,8.65-7.63,13.17-3.02,4.52-6.41,9.14-10.18,13.85-3.77,4.71-7.63,9.42-11.59,14.13-3.96,4.71-7.86,9.39-11.7,14.02-3.84,4.64-7.35,9.16-10.52,13.57-3.17,4.41-5.86,8.67-8.09,12.78-2.22,4.11-3.71,8.01-4.47,11.7,3.69-5.2,7.99-10.7,12.89-16.51,4.9-5.8,10.18-11.67,15.83-17.58,5.65-5.92,11.57-11.78,17.75-17.58,6.18-5.8,12.4-11.31,18.66-16.51,6.26-5.2,12.4-10.01,18.43-14.42,6.03-4.41,11.72-8.16,17.07-11.25.6-.38,1.43-.81,2.49-1.3,1.05-.49,2.19-.96,3.39-1.41,1.21-.45,2.47-.83,3.79-1.13,1.32-.3,2.54-.45,3.67-.45,1.58,0,2.9.41,3.96,1.24,1.05.83,1.58,2.23,1.58,4.18,0,3.24-1.28,6.84-3.84,10.8-2.56,3.96-5.77,8.25-9.61,12.89-3.84,4.64-8.03,9.61-12.55,14.93s-8.71,10.91-12.55,16.79c-3.84,5.88-7.05,12.04-9.61,18.49-2.56,6.45-3.84,13.14-3.84,20.07,0,4.6.75,8.63,2.26,12.1,1.51,3.47,3.58,6.37,6.22,8.71,2.64,2.34,5.75,4.09,9.33,5.26,3.58,1.17,7.44,1.75,11.59,1.75Z"/>
    <path class="second-color" d="m185.66,332.8c.38,0,.57.23.57.68-1.13,1.21-2.51,2.6-4.13,4.18-1.62,1.58-3.37,3.07-5.26,4.47-1.89,1.4-3.83,2.58-5.82,3.56-2,.98-3.86,1.47-5.6,1.47-1.06,0-2.02-.3-2.88-.9-.87-.6-1.3-1.66-1.3-3.17,0-1.73.34-3.51,1.02-5.31-1.51,1.36-3.05,2.6-4.64,3.73-1.58,1.13-2.83,1.7-3.73,1.7-.53,0-1.03-.13-1.53-.4-.49-.26-.74-.81-.74-1.64,0-.9.28-1.88.85-2.94.57-1.05,1.28-2.05,2.15-3,.87-.94,1.79-1.71,2.77-2.32.98-.6,1.92-.9,2.83-.9.83,0,1.56.23,2.2.68.64.45,1.15.94,1.53,1.47.38-.45.72-.91,1.02-1.36.3-.45.83-.68,1.58-.68.3,0,.58.08.85.23.26.15.4.42.4.79,0,.23-.25.77-.74,1.64-.49.87-1.02,1.87-1.58,3-.57,1.13-1.07,2.28-1.53,3.45-.45,1.17-.68,2.21-.68,3.11,0,.75.23,1.26.68,1.53.45.27.94.4,1.47.4,1.58,0,3.34-.49,5.26-1.47,1.92-.98,3.82-2.17,5.71-3.56,1.88-1.39,3.64-2.86,5.26-4.41,1.62-1.54,2.96-2.88,4.01-4.02Zm-22.05,2.15c-.23-.23-.58-.58-1.07-1.07-.49-.49-.92-.74-1.3-.74-.45,0-1.13.34-2.03,1.02s-1.81,1.47-2.71,2.37-1.7,1.83-2.37,2.77c-.68.94-1.02,1.68-1.02,2.21,0,.45.23.68.68.68s1.09-.23,1.92-.68,1.7-1.04,2.6-1.75c.9-.72,1.83-1.49,2.77-2.32.94-.83,1.79-1.66,2.54-2.49Z"/>
    <path class="second-color" d="m224.33,332.8c.45,0,.68.23.68.68-.9.9-2.11,2.09-3.62,3.56-1.51,1.47-3.13,2.9-4.86,4.3-1.74,1.4-3.49,2.58-5.26,3.56-1.77.98-3.34,1.47-4.69,1.47s-2.26-.34-2.71-1.02-.74-1.41-.85-2.21c-.11-.79-.19-1.53-.23-2.21s-.32-1.02-.85-1.02c-.38,0-.96.25-1.75.73-.79.49-1.62,1.06-2.49,1.7-.87.64-1.68,1.28-2.43,1.92-.75.64-1.24,1.07-1.47,1.3-.38,0-.79-.09-1.24-.28-.45-.19-.68-.66-.68-1.41,1.21-2.41,2.17-4.39,2.88-5.94.72-1.54,1.37-3.02,1.98-4.41.6-1.39.9-2.2.9-2.43-.08,0-.13.02-.17.06-.04.04-.1.06-.17.06-1.06.53-2.36,1.38-3.9,2.54-1.55,1.17-3.17,2.55-4.86,4.13s-3.39,3.28-5.09,5.09c-1.7,1.81-3.15,3.54-4.35,5.2-.15.68-.6,1.02-1.36,1.02-.45,0-.81-.13-1.07-.4s-.4-.58-.4-.96c0-.3.04-.53.11-.68.45-1.13,1.09-2.54,1.92-4.24.83-1.7,1.74-3.34,2.71-4.92.98-1.58,1.98-2.94,3-4.07,1.02-1.13,1.94-1.7,2.77-1.7.75,0,1.13.27,1.13.79,0,.38-.19.79-.57,1.24-1.28,1.66-2.49,3.36-3.62,5.09-1.13,1.74-2.19,3.54-3.17,5.43,1.58-1.81,3.28-3.62,5.09-5.43s3.58-3.41,5.32-4.81c1.73-1.39,3.32-2.53,4.75-3.39,1.43-.87,2.56-1.3,3.39-1.3,1.05,0,1.58.49,1.58,1.47,0,.6-.17,1.38-.51,2.32-.34.94-.77,1.96-1.3,3.05-.53,1.09-1.11,2.21-1.75,3.34-.64,1.13-1.26,2.15-1.87,3.05.15-.07.38-.26.68-.56,1.21-.91,2.51-1.79,3.9-2.66,1.39-.87,2.5-1.3,3.34-1.3.9,0,1.49.36,1.75,1.07.26.72.43,1.53.51,2.43.07.91.15,1.72.23,2.43.07.72.38,1.07.91,1.07,1.21,0,2.67-.49,4.41-1.47,1.73-.98,3.45-2.17,5.15-3.56,1.7-1.39,3.28-2.81,4.75-4.24,1.47-1.43,2.62-2.6,3.45-3.51Z"/>
    <path class="second-color" d="m246.83,332.8c.45,0,.68.23.68.68-1.28,1.43-2.73,2.87-4.35,4.3-1.62,1.43-3.36,2.71-5.2,3.84-1.85,1.13-3.77,2.05-5.77,2.77-2,.72-4.01,1.07-6.05,1.07-1.81,0-3.13-.51-3.96-1.53-.83-1.02-1.32-2.28-1.46-3.79,0-1.13.16-2.28.49-3.45.33-1.17.8-2.24,1.41-3.22.62-.98,1.38-1.79,2.28-2.43.91-.64,1.96-.96,3.17-.96,1.66,0,2.56.53,2.71,1.58,0,.53-.23,1.04-.68,1.53-.45.49-1,.96-1.64,1.41-.64.45-1.34.85-2.09,1.19-.75.34-1.47.58-2.15.74-.6,1.43-.9,2.83-.9,4.18.07,1.06.41,1.92,1.02,2.6.6.68,1.54,1.02,2.83,1.02,1.81,0,3.62-.36,5.43-1.07,1.81-.72,3.58-1.62,5.32-2.71,1.73-1.09,3.37-2.32,4.92-3.68,1.54-1.36,2.88-2.71,4.02-4.07Zm-17.08-1.7c-.98,0-1.9.44-2.77,1.3s-1.6,1.9-2.21,3.11c1.05-.38,2.21-.96,3.45-1.75,1.24-.79,1.87-1.53,1.87-2.2,0-.3-.11-.45-.34-.45Z"/>
    <path class="second-color" d="m442.46,270.72c0,.45-.26.68-.79.68-.3,0-.49-.15-.57-.45-.75-1.88-1.92-3.43-3.51-4.64-1.58-1.21-3.37-2.15-5.37-2.83-2-.68-4.13-1.15-6.39-1.41-2.26-.26-4.45-.4-6.56-.4-6.64,0-14.04.83-22.22,2.49-8.18,1.66-16.79,3.73-25.84,6.22-9.05,2.49-18.32,5.2-27.82,8.14-9.5,2.94-18.92,5.69-28.27,8.25,1.96,2.11,3.47,4.68,4.52,7.69,1.05,3.02,1.58,6.79,1.58,11.31,0,3.77-.3,7.69-.9,11.76-.6,4.07-1.45,8.22-2.54,12.44-1.09,4.22-2.37,8.46-3.84,12.72-1.47,4.26-3.11,8.46-4.92,12.61,3.99-4.75,8.18-9.57,12.55-14.47,4.37-4.9,8.63-9.73,12.78-14.48,4.15-4.75,8.09-9.35,11.82-13.8,3.73-4.45,7.01-8.59,9.84-12.44,2.83-3.84,5.07-7.29,6.73-10.35,1.66-3.05,2.49-5.6,2.49-7.63,0-.3.15-.45.45-.45s.45.15.45.45c0,2.87-.94,6.2-2.83,10.01-1.89,3.81-4.39,7.93-7.52,12.38-3.13,4.45-6.77,9.16-10.91,14.14-4.15,4.98-8.48,10.01-13,15.1-4.52,5.09-9.09,10.16-13.68,15.21-4.6,5.05-8.93,9.95-13,14.7-2.64,5.43-5.35,10.53-8.14,15.32-2.79,4.79-5.62,9.14-8.48,13.06-.98,1.28-1.79,2.3-2.43,3.05-.64.75-1.28,1.43-1.92,2.04-.64.6-1.11.9-1.41.9s-.45-.27-.45-.79c0-2.03.62-4.47,1.87-7.29,1.24-2.83,2.98-5.94,5.2-9.33,2.22-3.39,4.82-7.03,7.8-10.91,2.98-3.88,6.24-7.94,9.78-12.16,1.88-4.3,3.64-8.67,5.26-13.12,1.62-4.45,3.03-8.86,4.24-13.23,1.21-4.37,2.15-8.69,2.83-12.95.68-4.26,1.02-8.39,1.02-12.38,0-4.45-.53-8.18-1.58-11.2-1.06-3.01-2.6-5.54-4.64-7.58-7.77,2.11-15.31,3.98-22.62,5.6-7.31,1.62-14.29,2.73-20.92,3.34-2.19.23-4.07.34-5.65.34-2.71,0-4.71-.26-5.99-.79-1.28-.53-1.96-1.21-2.03-2.03,0-1.21,1.09-2.62,3.28-4.24,2.19-1.62,5.03-3.15,8.54-4.58,3.51-1.43,7.46-2.66,11.87-3.68,4.41-1.02,8.88-1.53,13.4-1.53,3.69,0,7.24.43,10.63,1.3,3.39.87,6.37,2.36,8.93,4.47,8.67-2.64,17.45-5.45,26.35-8.42,8.89-2.98,17.73-5.71,26.52-8.2,8.78-2.49,17.41-4.56,25.9-6.22,8.48-1.66,16.64-2.49,24.48-2.49,2.49,0,5.05.13,7.69.4,2.64.27,5.14.77,7.52,1.53,2.37.76,4.48,1.81,6.33,3.17,1.85,1.36,3.22,3.13,4.13,5.32v.34Zm-172,24.43c6.56-.6,13.34-1.77,20.36-3.51,7.01-1.73,14.25-3.73,21.71-5.99-2.41-1.88-5.22-3.22-8.42-4.01-3.21-.79-6.58-1.19-10.12-1.19-4.22,0-8.46.49-12.72,1.47-4.26.98-8.14,2.15-11.65,3.51-3.51,1.36-6.35,2.77-8.54,4.24-2.19,1.47-3.28,2.73-3.28,3.79,0,.6.49,1.09,1.47,1.47.98.38,2.68.57,5.09.57,1.66,0,3.69-.11,6.11-.34Zm17.41,96.35c2.49-3.54,5.01-7.44,7.58-11.7s5.05-8.76,7.46-13.51c-5.65,6.63-10.31,12.61-13.97,17.92-3.66,5.32-5.56,9.63-5.71,12.95.83-.98,1.51-1.79,2.03-2.43.53-.64,1.06-1.28,1.58-1.92.53-.64.87-1.07,1.02-1.3Z"/>
    <path class="second-color" d="m375.06,332.8c.45,0,.68.23.68.68-1.28,1.43-2.73,2.87-4.35,4.3-1.62,1.43-3.36,2.71-5.2,3.84-1.85,1.13-3.77,2.05-5.77,2.77-2,.72-4.01,1.07-6.05,1.07-1.81,0-3.13-.51-3.96-1.53-.83-1.02-1.32-2.28-1.46-3.79,0-1.13.16-2.28.49-3.45.33-1.17.8-2.24,1.41-3.22.62-.98,1.38-1.79,2.28-2.43.91-.64,1.96-.96,3.17-.96,1.66,0,2.56.53,2.71,1.58,0,.53-.23,1.04-.68,1.53-.45.49-1,.96-1.64,1.41-.64.45-1.34.85-2.09,1.19-.75.34-1.47.58-2.15.74-.6,1.43-.9,2.83-.9,4.18.07,1.06.41,1.92,1.02,2.6.6.68,1.54,1.02,2.83,1.02,1.81,0,3.62-.36,5.43-1.07,1.81-.72,3.58-1.62,5.32-2.71,1.73-1.09,3.37-2.32,4.92-3.68,1.54-1.36,2.88-2.71,4.02-4.07Zm-17.08-1.7c-.98,0-1.9.44-2.77,1.3s-1.6,1.9-2.21,3.11c1.05-.38,2.21-.96,3.45-1.75,1.24-.79,1.87-1.53,1.87-2.2,0-.3-.11-.45-.34-.45Z"/>
    <path class="second-color" d="m400.85,332.8c.15,0,.3.06.45.17.15.11.23.28.23.51-1.21,1.28-2.66,2.73-4.35,4.35-1.7,1.62-3.53,3.17-5.48,4.64-1.96,1.47-3.96,2.7-5.99,3.67-2.04.98-3.96,1.47-5.77,1.47-1.51,0-2.7-.38-3.56-1.13-.87-.75-1.49-1.66-1.87-2.71-.98.83-1.98,1.74-3,2.71-1.02.98-2.07,1.9-3.17,2.77-1.09.87-2.17,1.6-3.22,2.21-1.05.6-2.15.9-3.28.9-.15,0-.26-.09-.34-.28-.07-.19-.11-.32-.11-.4,2.26-.38,4.45-1.43,6.56-3.17,2.11-1.73,4.22-3.66,6.33-5.77-.3-.98-.45-2.19-.45-3.62,0-.68.02-1.43.06-2.26.04-.83.13-1.6.28-2.32.15-.72.4-1.32.74-1.81.34-.49.85-.74,1.53-.74.6,0,.9.41.9,1.24,0,.91-.1,1.96-.28,3.17-.19,1.21-.28,2.45-.28,3.73l1.24-1.24,2.09-2.09c.79-.79,1.58-1.54,2.37-2.26.79-.72,1.56-1.32,2.32-1.81.75-.49,1.43-.74,2.03-.74.3,0,.45.23.45.68-1.28.3-2.66,1.11-4.13,2.43-1.47,1.32-3.04,2.85-4.69,4.58l-1.58,1.58c.15,1.51.53,2.75,1.13,3.73.6.98,1.58,1.47,2.94,1.47,1.51,0,3.2-.51,5.09-1.53,1.88-1.02,3.75-2.22,5.6-3.62,1.85-1.39,3.58-2.88,5.2-4.47,1.62-1.58,2.96-2.94,4.01-4.07Z"/>
    <path class="second-color" d="m475.93,303.51c.23-.6.57-.9,1.02-.9.98,0,1.47.56,1.47,1.7,0,.6-.27,1.21-.79,1.81-1.88,2.04-4.26,3.41-7.12,4.13-2.87.72-6.03,1.07-9.5,1.07-4.3,0-8.44-.43-12.44-1.3-4-.87-8.03-1.87-12.1-3-5.65,4.68-11.42,9.12-17.3,13.34-5.88,4.22-11.12,7.84-15.72,10.86-1.51,1.89-2.88,3.71-4.13,5.48-1.24,1.77-2.39,3.49-3.45,5.14-1.73,2.79-3.11,5.35-4.13,7.69-1.02,2.34-1.53,4.37-1.53,6.11,0,.68.13,1.37.4,2.09.27.72.53,1.39.79,2.03.27.64.66,1.38,1.19,2.21,0,.38-.19.57-.56.57-.15,0-.23-.08-.23-.23-1.73-1.89-2.6-4.18-2.6-6.9,0-1.58.28-3.32.85-5.2.57-1.88,1.38-3.92,2.43-6.11,1.43-2.94,3.24-6.09,5.43-9.44,2.19-3.35,4.65-6.77,7.41-10.23,2.75-3.47,5.71-6.95,8.88-10.46,3.17-3.51,6.41-6.92,9.72-10.23-2.56-.6-5.13-1.07-7.69-1.41s-5.16-.51-7.8-.51c-3.62,0-6.82.49-9.61,1.47-2.79.98-4.56,2.79-5.31,5.43-.23.68-.6,1.02-1.13,1.02-.38,0-.7-.15-.96-.45-.26-.3-.4-.72-.4-1.24,0-.68.27-1.32.79-1.92,1.66-1.73,3.77-3.03,6.33-3.9s5.39-1.3,8.48-1.3,6.24.19,9.22.57c2.98.38,5.9.9,8.76,1.58,4-3.92,7.86-7.5,11.59-10.74,3.73-3.24,7.2-6.03,10.4-8.37,3.2-2.34,6.05-4.15,8.54-5.43,2.49-1.28,4.49-1.92,5.99-1.92.6,0,1.13.13,1.58.4.45.27.68.77.68,1.53,0,1.28-.75,2.96-2.26,5.03-1.51,2.07-3.47,4.35-5.88,6.84-2.41,2.49-5.2,5.11-8.37,7.86-3.17,2.75-6.37,5.48-9.61,8.2,4,1.06,7.97,2,11.93,2.83,3.96.83,8.05,1.24,12.27,1.24,3.54,0,6.65-.51,9.33-1.53,2.68-1.02,4.39-2.84,5.14-5.48Zm-70.79,25.56c4.37-2.94,9.22-6.35,14.53-10.23,5.32-3.88,10.57-7.9,15.78-12.04-1.36-.38-2.71-.74-4.07-1.07-1.36-.34-2.71-.7-4.07-1.07-3.92,3.92-7.78,7.95-11.59,12.1-3.81,4.15-7.33,8.25-10.57,12.33Zm53.83-50.89c-1.51.68-3.37,1.81-5.6,3.39-2.22,1.58-4.69,3.51-7.41,5.77-2.71,2.26-5.6,4.79-8.65,7.58-3.05,2.79-6.16,5.77-9.33,8.93,1.43.38,2.83.75,4.18,1.13,1.36.38,2.71.75,4.07,1.13,3.17-2.56,6.31-5.22,9.44-7.97,3.13-2.75,5.94-5.37,8.42-7.86s4.5-4.75,6.05-6.78c1.54-2.04,2.32-3.66,2.32-4.86,0-.83-.38-1.24-1.13-1.24-.38,0-.79.09-1.24.28-.45.19-.83.36-1.13.51Z"/>
  </g>
  <g>
    <path class="second-color" d="m303.76,605.63v28.91c.07,1.67,1.06,2.59,2.97,2.76h.83v.99h-7.87l-.62-.99-10.89-17.14-9.64-15.16c-.03.07-.06.16-.08.26-.02.1-.03.19-.03.26v29.12c.17,1.67,1.25,2.55,3.23,2.66h.63v.99h-8.65v-.99h.57c2.08-.1,3.16-1.02,3.23-2.76v-28.91c-.07-1.67-1.06-2.59-2.97-2.76h-.83v-.99h7.92l.62.99,11.62,18.29,8.86,14.01c.07-.21.1-.38.1-.52v-29.12c-.17-1.67-1.25-2.55-3.23-2.66h-.57v-.99h8.6v.99h-.57c-2.05.1-3.13,1.02-3.23,2.76Z"/>
    <path class="second-color" d="m348.3,635.37c.49,1.25,1.42,1.88,2.81,1.88v1.04h-8.6v-1.04c.14,0,.31-.03.52-.1.21-.07.43-.26.68-.57.24-.31.26-.71.05-1.2l-4.38-11.41h-11.62l-4.38,11.41c-.24.7-.08,1.17.5,1.43.57.26,1.29.41,2.16.44h1.98v1.04h-8.6v-1.04c.14,0,.34,0,.6-.03.26-.02.64-.18,1.15-.49.5-.31.88-.76,1.12-1.35l3.85-9.95,8.96-23.44c.07-.1.16-.16.26-.16s.17.05.21.16l12.71,33.39Zm-20.16-12.4h10.89l-5.42-14.27-1.87,5-3.6,9.27Z"/>
    <path class="second-color" d="m369.92,635.84c.07.42.24.75.52.99.28.24.54.38.78.42l.42.05v.99h-7.66v-.99c.14,0,.3-.02.49-.05.19-.03.44-.2.76-.5.31-.29.47-.68.47-1.17v-31.05c0-.49-.14-.88-.42-1.17-.28-.3-.56-.46-.83-.5l-.47-.05v-.99h7.66v.99c-1.01,0-1.58.47-1.72,1.41v31.62Z"/>
    <path class="second-color" d="m405.34,633.34l.94.26-1.15,4.79h-20.26v-.99c.14,0,.3-.02.49-.05.19-.03.44-.2.76-.49.31-.3.47-.69.47-1.17v-31.05c0-.49-.14-.88-.42-1.17-.28-.29-.56-.46-.83-.49l-.47-.05v-.99h7.71v.99c-.14,0-.3.02-.49.05-.19.03-.45.2-.78.49-.33.3-.49.69-.49,1.17v32.77h9.69c1.08,0,2-.29,2.76-.86.76-.57,1.27-1.1,1.51-1.59.24-.49.42-.96.52-1.41l.05-.21Z"/>
    <path class="second-color" d="m433.16,619.28c.14.07.34.18.6.34.26.16.7.52,1.33,1.09.62.57,1.18,1.18,1.67,1.82.49.64.93,1.49,1.33,2.55.4,1.06.6,2.16.6,3.31,0,2.74-.96,5.08-2.89,7.01-1.93,1.93-4.26,2.89-7.01,2.89-2.15,0-4.15-.47-5.99-1.41-.8-.42-1.42-.54-1.88-.36s-.74.37-.86.6c-.12.23-.2.51-.24.86v.31h-.99v-10.73h.99c.24,1.88.72,3.49,1.43,4.85s1.52,2.36,2.42,3.02,1.76,1.14,2.58,1.43,1.59.44,2.32.44c2.36,0,4.13-1.03,5.31-3.1,1.18-2.07,1.51-4.07.99-6.02-.35-1.35-1.32-2.74-2.92-4.17-1.6-1.42-3.11-2.5-4.53-3.23l-2.08-1.15c-.14-.07-.31-.16-.52-.29s-.6-.4-1.17-.83c-.57-.43-1.09-.89-1.56-1.38s-.94-1.14-1.41-1.95c-.47-.82-.77-1.66-.91-2.53-.14-.76-.21-1.37-.21-1.82,0-2.53.9-4.7,2.71-6.49,1.81-1.79,3.98-2.68,6.51-2.68,1.28,0,2.57.28,3.85.83.59.28,1.11.45,1.56.52.45.07.78.05.99-.05.21-.1.38-.25.52-.44.14-.19.22-.36.24-.49.02-.14.03-.26.03-.36h.99v10.73h-.99v-.1c0-1.04-.21-2.4-.62-4.09-.42-1.68-1.11-2.98-2.08-3.88-.9-.83-1.94-1.35-3.1-1.56-1.16-.21-2.3-.07-3.41.42-1.56.7-2.64,1.84-3.23,3.44-.59,1.6-.7,3.11-.31,4.53.17.66.54,1.39,1.09,2.19.66.83,1.51,1.56,2.55,2.19l6.3,3.75Z"/>
    <path class="second-color" d="m503.69,615.68v3.7h2.66v.68h-2.66v18.23h-.99c0-2.29-1.11-3.13-3.33-2.5-.63.21-1.11.42-1.46.62-.03,0-.07.02-.1.05l-.1.05c-.1.03-.24.1-.42.18-.17.09-.3.15-.37.18-1.94.9-3.93,1.37-5.94,1.41h-.47c-2.67-.03-5.04-.93-7.09-2.68-2.05-1.75-3.07-4.05-3.07-6.9,0-2.33.76-4.37,2.27-6.12,1.51-1.75,3.83-2.84,6.95-3.26-5.9-1.28-8.86-4.36-8.86-9.22,0-2.67.9-4.71,2.71-6.12s4.06-2.11,6.77-2.11c1.98,0,3.58.28,4.79.83.59.28,1.11.45,1.56.52.45.07.79.05,1.02-.05.22-.1.41-.25.55-.44.14-.19.22-.36.23-.49.02-.14.03-.26.03-.36h.99v10.73h-.99v-.1c0-1.04-.21-2.4-.62-4.09-.42-1.68-1.11-2.98-2.08-3.88-.87-.83-1.93-1.35-3.18-1.56-1.25-.21-2.45-.09-3.6.36-1.22.45-2.18,1.28-2.89,2.47-.71,1.2-1.07,2.56-1.07,4.09s.24,2.75.73,3.88c.49,1.13,1.09,2.04,1.82,2.74.73.7,1.6,1.26,2.6,1.69,1.01.43,1.98.74,2.92.91.94.17,1.89.26,2.87.26h3.59v-3.7h4.22Zm-4.22,12.5v-8.13h-7.5c-.83,0-1.67.1-2.5.31-3.26.97-4.9,3.82-4.9,8.54,0,1.42.34,2.87,1.02,4.35.68,1.48,1.76,2.6,3.26,3.36.83.42,1.68.63,2.55.63,1.53-.17,2.86-.64,4.01-1.41,2.15-1.42,3.47-3.44,3.96-6.04.07-.35.1-.89.1-1.62Z"/>
    <path class="second-color" d="m561.99,619.28c.14.07.34.18.6.34.26.16.7.52,1.33,1.09.62.57,1.18,1.18,1.67,1.82.49.64.93,1.49,1.33,2.55.4,1.06.6,2.16.6,3.31,0,2.74-.96,5.08-2.89,7.01-1.93,1.93-4.26,2.89-7.01,2.89-2.15,0-4.15-.47-5.99-1.41-.8-.42-1.42-.54-1.88-.36s-.74.37-.86.6c-.12.23-.2.51-.24.86v.31h-.99v-10.73h.99c.24,1.88.72,3.49,1.43,4.85s1.52,2.36,2.42,3.02,1.76,1.14,2.58,1.43,1.59.44,2.32.44c2.36,0,4.13-1.03,5.31-3.1,1.18-2.07,1.51-4.07.99-6.02-.35-1.35-1.32-2.74-2.92-4.17-1.6-1.42-3.11-2.5-4.53-3.23l-2.08-1.15c-.14-.07-.31-.16-.52-.29s-.6-.4-1.17-.83c-.57-.43-1.09-.89-1.56-1.38s-.94-1.14-1.41-1.95c-.47-.82-.77-1.66-.91-2.53-.14-.76-.21-1.37-.21-1.82,0-2.53.9-4.7,2.71-6.49,1.81-1.79,3.98-2.68,6.51-2.68,1.28,0,2.57.28,3.85.83.59.28,1.11.45,1.56.52.45.07.78.05.99-.05.21-.1.38-.25.52-.44.14-.19.22-.36.24-.49.02-.14.03-.26.03-.36h.99v10.73h-.99v-.1c0-1.04-.21-2.4-.62-4.09-.42-1.68-1.11-2.98-2.08-3.88-.9-.83-1.94-1.35-3.1-1.56-1.16-.21-2.3-.07-3.41.42-1.56.7-2.64,1.84-3.23,3.44-.59,1.6-.7,3.11-.31,4.53.17.66.54,1.39,1.09,2.19.66.83,1.51,1.56,2.55,2.19l6.3,3.75Z"/>
    <path class="second-color" d="m602,608.23c.28.9.42,1.81.42,2.71,0,1.01-.16,1.95-.47,2.81-.59,1.7-1.61,3.12-3.05,4.25s-3.1,1.8-4.97,2c-.24.04-.61.05-1.09.05h-6.2v15.52c0,.52.15.92.44,1.2s.58.43.86.47l.42.05v.99h-7.66v-.99c.14,0,.3-.02.49-.05.19-.03.44-.19.76-.47.31-.28.47-.68.47-1.2v-31c0-.87-.42-1.42-1.25-1.67h-.05l-.42-.1v-.99h11.56c.42,0,.73.02.94.05.31,0,.52.02.62.05.21,0,.37.02.47.05,1.81.24,3.4.94,4.79,2.08s2.36,2.54,2.92,4.17Zm-10.63,10.63c1.94-.42,3.55-1.36,4.82-2.84,1.27-1.48,1.9-3.17,1.9-5.08,0-2.22-.83-4.13-2.5-5.73-1.67-1.6-3.68-2.4-6.04-2.4h-2.92v16.2h2.45c1.04,0,1.81-.05,2.29-.16Z"/>
    <path class="second-color" d="m635.81,635.37c.49,1.25,1.42,1.88,2.81,1.88v1.04h-8.6v-1.04c.14,0,.31-.03.52-.1.21-.07.43-.26.68-.57.24-.31.26-.71.05-1.2l-4.38-11.41h-11.62l-4.38,11.41c-.24.7-.08,1.17.5,1.43.57.26,1.29.41,2.16.44h1.98v1.04h-8.6v-1.04c.14,0,.34,0,.6-.03.26-.02.64-.18,1.15-.49.5-.31.88-.76,1.12-1.35l3.85-9.95,8.96-23.44c.07-.1.16-.16.26-.16s.17.05.21.16l12.71,33.39Zm-20.16-12.4h10.89l-5.42-14.27-1.87,5-3.6,9.27Z"/>
  </g>
</svg>