<svg id="Layer_1" data-name="Layer 1" xmlns="http://www.w3.org/2000/svg" viewBox="0 0 700 700">
  <defs>
    <style>
      .cls-1-n05tt {
        fill: #231f20;
      }
    </style>
  </defs>
  <g>
    <path class="cls-1-n05tt second-color" d="m107.88,314.78c-.45,0-.68-.57-.68-1.71,0-.57.06-1.25.17-2.05.11-.8.4-1.77.85-2.9,1.02-2.96,2.85-6.97,5.46-12.04,2.62-5.07,5.72-10.76,9.31-17.08,3.59-6.32,7.48-12.89,11.7-19.72,4.21-6.83,8.48-13.6,12.81-20.32,4.32-6.71,8.45-13,12.38-18.87,3.93-5.86,7.43-10.96,10.5-15.28,3.07-4.33,5.46-7.51,7.17-9.56,1.93-5.81,4.04-10.42,6.32-13.83,2.28-3.42,4.61-5.12,7-5.12,1.82,0,3.81.37,5.98,1.11,2.16.74,4.04,1.65,5.63,2.73,1.59,1.08,2.39,2.25,2.39,3.5,0,1.02-.46,1.82-1.37,2.39-2.62,2.16-4.93,5.41-6.92,9.73-1.99,4.33-3.67,9.31-5.04,14.94-1.37,5.63-2.39,11.61-3.07,17.93-.68,6.32-1.02,12.55-1.02,18.7,0,6.72.4,13.09,1.2,19.12.8,6.03,2.05,11.1,3.76,15.2,1.37-3.64,3.42-8.17,6.15-13.57,2.73-5.41,5.86-11.33,9.39-17.76,3.53-6.43,7.23-12.98,11.1-19.64,3.87-6.66,7.65-13.03,11.35-19.12,3.7-6.09,7.11-11.55,10.25-16.39,3.13-4.84,5.75-8.68,7.85-11.53,2.1-2.84,3.39-4.27,3.84-4.27.34,0,.94-.08,1.79-.26.85-.17,1.68-.26,2.48-.26,1.71,0,2.56.46,2.56,1.37,0,.8-.4,1.65-1.2,2.56-5.81,7.63-11.84,16.02-18.1,25.19-6.26,9.16-12.32,18.47-18.19,27.92-5.86,9.45-11.18,18.44-15.97,26.98-4.78,8.54-8.65,16.05-11.61,22.54l.51.85c1.48,2.51,3.3,4.47,5.46,5.89,2.16,1.42,4.15,2.13,5.98,2.13,1.25,0,2.39-.34,3.42-1.02.11,0,.23-.06.34-.17.45,0,.74.26.85.77.11.51,0,.88-.34,1.11-2.62,1.82-5.52,2.73-8.71,2.73-2.62,0-5.24-.74-7.85-2.22-2.62-1.48-5.01-3.64-7.17-6.49-5.46-7.4-9.34-15.82-11.61-25.27-2.28-9.45-3.42-18.9-3.42-28.35,0-5.12.28-10.13.85-15.03.57-4.89,1.31-9.56,2.22-14-4.78,6.49-9.76,13.57-14.94,21.26-5.18,7.68-10.33,15.57-15.45,23.65-5.12,8.08-9.96,15.96-14.51,23.65-4.55,7.68-8.6,14.77-12.12,21.26-3.53,6.49-6.26,12.06-8.2,16.73-.57,1.25-1.08,1.88-1.54,1.88Z"/>
    <path class="cls-1-n05tt second-color" d="m229.46,290.36c-3.53,0-6.26-1.11-8.2-3.33-1.93-2.22-2.9-5.09-2.9-8.62,0-3.3.88-6.94,2.65-10.93,1.76-3.98,4.58-8.03,8.45-12.12,3.98-4.32,8.94-7.83,14.86-10.5,5.92-2.67,11.55-4.01,16.9-4.01,4.32,0,8.03.94,11.1,2.82,3.07,1.88,5.12,4.24,6.15,7.09,1.25,0,2.82.34,4.7,1.02,1.88.68,2.82,1.94,2.82,3.76,0,1.25-.63,2.68-1.88,4.27-.8,1.14-2.19,2.85-4.18,5.12-1.99,2.28-3.84,4.72-5.55,7.34-1.37,2.05-2.45,3.96-3.24,5.72-.8,1.77-1.2,3.27-1.2,4.53,0,1.71.85,2.56,2.56,2.56,1.93,0,4.84-1.08,8.71-3.24,4.21-2.39,8.25-5.12,12.12-8.2,3.87-3.07,6.89-5.52,9.05-7.34.57-.45.97-.68,1.2-.68.45,0,.68.29.68.85,0,.68-.29,1.31-.85,1.88-1.02.91-3.02,2.62-5.98,5.12-2.96,2.51-6.35,5.12-10.16,7.86-3.82,2.73-7.54,4.95-11.18,6.66-1.82.8-3.5,1.4-5.04,1.79-1.54.4-2.93.6-4.18.6-3.07,0-5.41-.88-7-2.65-1.6-1.76-2.39-4.07-2.39-6.92,0-1.14.17-2.33.51-3.59.34-1.25.74-2.5,1.2-3.76l1.2-2.9c-2.96,3.64-5.92,6.69-8.88,9.14-2.96,2.45-5.92,4.58-8.88,6.4-2.51,1.48-4.87,2.56-7.09,3.24-2.22.68-4.24,1.02-6.06,1.02Zm5.29-4.44c2.05,0,5.01-1.22,8.88-3.67,3.87-2.45,8.37-6.23,13.49-11.35.68-.68,1.96-1.91,3.84-3.67,1.88-1.76,3.9-3.76,6.06-5.98,2.16-2.22,4.01-4.44,5.55-6.66s2.31-4.07,2.31-5.55c0-2.16-1.88-3.25-5.63-3.25-3.3,0-7.26,1.28-11.87,3.84-4.61,2.56-9.02,6.35-13.23,11.35-4.33,5.12-7.49,9.54-9.48,13.23-1.99,3.7-2.99,6.52-2.99,8.45,0,2.16,1.02,3.24,3.07,3.24Z"/>
    <path class="cls-1-n05tt second-color" d="m300.49,291.04c-1.14,0-2.5-.26-4.1-.77-1.59-.51-3.19-1.45-4.78-2.82,1.25-1.71,3.05-4.01,5.38-6.92,2.33-2.9,4.81-6.12,7.43-9.65,2.62-3.53,5.06-7.06,7.34-10.59-1.82,1.82-3.82,3.76-5.98,5.81-2.16,2.05-4.33,3.93-6.49,5.63-.45.34-.91.51-1.37.51s-.68-.23-.68-.68c0-.68.51-1.48,1.54-2.39,3.19-2.84,6.69-6.03,10.5-9.56,3.81-3.53,6.63-7.23,8.45-11.1.57-1.37.85-2.62.85-3.76,0-1.48-.29-2.39-.85-2.73-.46-.34-.68-.79-.68-1.37,0-1.02.51-1.54,1.54-1.54.57,0,1.02.12,1.37.34,1.25.57,2.45,1.65,3.59,3.24,1.14,1.6,1.71,4.04,1.71,7.34,0,3.07-.63,6.49-1.88,10.25,1.25-1.93,2.5-3.78,3.76-5.55,1.25-1.76,2.45-3.39,3.59-4.87,2.28-2.96,4.7-5.21,7.26-6.75,2.56-1.54,4.81-2.3,6.74-2.3,3.19,0,4.78,1.82,4.78,5.46,0,2.05-.68,4.73-2.05,8.03-1.25,2.85-2.96,6.26-5.12,10.25,1.93-2.62,3.9-5.12,5.89-7.51,1.99-2.39,3.73-4.38,5.21-5.98,3.3-3.3,6.46-5.69,9.48-7.17,3.02-1.48,5.78-2.22,8.28-2.22,2.96,0,5.32.83,7.09,2.48,1.76,1.65,2.65,3.9,2.65,6.75,0,2.05-.51,4.27-1.54,6.66-.68,1.37-1.82,3.19-3.42,5.46-1.6,2.28-3.3,4.67-5.12,7.17-1.82,2.51-3.36,4.78-4.61,6.83-1.25,2.05-1.88,3.53-1.88,4.44,0,1.14.62,1.71,1.88,1.71,1.93,0,4.15-.85,6.66-2.56,2.96-2.05,6.15-4.5,9.56-7.34,3.42-2.84,6.2-5.18,8.37-7,.45-.45.85-.68,1.2-.68.45,0,.68.29.68.85,0,.68-.29,1.31-.85,1.88-1.71,1.6-3.9,3.59-6.57,5.98-2.68,2.39-5.55,4.78-8.62,7.17-3.07,2.39-6.09,4.41-9.05,6.06-2.96,1.65-5.58,2.48-7.85,2.48-2.96,0-5.38-.68-7.26-2.05-1.88-1.37-2.82-3.53-2.82-6.49,0-1.93.4-4.1,1.2-6.49.79-2.39,2.39-5.21,4.78-8.45s4.95-6.43,7.68-9.56c2.73-3.13,5.01-5.72,6.83-7.77,1.37-1.59,2.05-2.79,2.05-3.59,0-1.02-.68-1.54-2.05-1.54-1.6,0-3.96.85-7.09,2.56-3.13,1.71-6.46,4.44-9.99,8.2-2.28,2.39-4.58,5.41-6.92,9.05-2.33,3.64-4.41,7.32-6.23,11.01-1.82,3.7-3.24,6.97-4.27,9.82-.8,2.05-2.28,3.07-4.44,3.07-1.14,0-2.19-.34-3.16-1.02-.97-.68-1.22-1.42-.77-2.22,2.84-5.01,5.66-9.96,8.45-14.86,2.79-4.89,5.32-10.02,7.6-15.37,1.59-3.53,2.39-6.2,2.39-8.03,0-1.59-.68-2.39-2.05-2.39s-3.22.83-5.55,2.48c-2.33,1.65-4.35,3.5-6.06,5.55-2.73,3.19-5.35,6.75-7.85,10.67-2.5,3.93-4.67,7.49-6.49,10.67-1.48,2.39-3.02,4.72-4.61,7-1.6,2.28-3.36,4.44-5.29,6.49-2.51,2.85-4.95,4.27-7.34,4.27Z"/>
    <path class="cls-1-n05tt second-color" d="m406.35,291.9c-5.01,0-9.19-1.22-12.55-3.67-3.36-2.45-5.04-6-5.04-10.67,0-5.01,1.2-9.67,3.59-14,2.39-4.33,5.58-8.11,9.56-11.36,3.98-3.24,8.34-5.78,13.06-7.6,4.72-1.82,9.42-2.73,14.09-2.73s8.14.83,10.42,2.48c2.28,1.65,3.42,3.67,3.42,6.06s-1.05,4.7-3.16,7.26c-2.11,2.56-5.15,4.81-9.14,6.74-2.51,1.14-5.38,2.13-8.62,2.99-3.24.85-6.06,1.28-8.45,1.28-1.82,0-2.73-.28-2.73-.85,0-.45.79-.68,2.39-.68,1.48,0,3.78-.43,6.92-1.28,3.13-.85,6.17-2.02,9.14-3.5,3.3-1.82,5.63-3.64,7-5.46,1.37-1.82,2.05-3.47,2.05-4.95,0-1.37-.54-2.5-1.62-3.42-1.08-.91-2.59-1.37-4.52-1.37-1.82,0-3.87.51-6.15,1.54-3.3,1.48-6.69,3.9-10.16,7.26-3.47,3.36-6.35,7.03-8.62,11.01-2.28,3.99-3.42,7.8-3.42,11.44,0,2.51.71,4.61,2.13,6.32,1.42,1.71,3.56,2.56,6.4,2.56s6.37-.94,10.25-2.82c3.87-1.88,7.8-4.21,11.78-7,3.98-2.79,7.68-5.61,11.1-8.45,3.42-2.84,6.15-5.23,8.2-7.17.68-.68,1.2-1.03,1.54-1.03s.51.29.51.85c0,.8-.34,1.48-1.02,2.05-4.33,3.99-9.02,8.14-14.09,12.46-5.07,4.33-10.47,8-16.22,11.01-5.75,3.01-11.76,4.58-18.01,4.7Z"/>
    <path class="cls-1-n05tt second-color" d="m167.98,368.91c-.68,0-1.42-.28-2.22-.85-2.05-1.93-3.07-4.38-3.07-7.34,0-3.53,1.51-7.2,4.52-11.01,3.02-3.81,7.48-6.86,13.4-9.14,6.72-2.62,14-4.81,21.86-6.57,7.85-1.76,15.91-3.07,24.16-3.93,8.25-.85,16.19-1.28,23.82-1.28,2.84,0,5.63.06,8.37.17,2.73.12,5.35.29,7.85.51,16.73,1.6,29.51,4.78,38.33,9.56,8.82,4.78,13.23,9.79,13.23,15.03,0,2.16-.74,4.21-2.22,6.15-.68.91-1.68,1.79-2.99,2.65-1.31.85-2.36,1.28-3.16,1.28-.68,0-1.02-.34-1.02-1.02,0-.8.57-2.11,1.71-3.93,1.37-2.05,2.05-3.93,2.05-5.63,0-3.3-2.08-5.89-6.23-7.77-4.16-1.88-9.56-3.19-16.22-3.93-6.66-.74-13.8-1.11-21.43-1.11-5.24,0-10.53.14-15.88.43-5.35.29-10.36.66-15.03,1.11-2.16.23-5.44.63-9.82,1.2-4.38.57-9.31,1.28-14.77,2.13-5.46.85-10.99,1.88-16.56,3.07-5.58,1.2-10.7,2.53-15.37,4.01-4.67,1.48-8.45,3.1-11.35,4.87-2.9,1.77-4.35,3.73-4.35,5.89,0,1.48.85,3.02,2.56,4.61.23.23.34.4.34.51,0,.23-.17.34-.51.34Zm46.96,86.06c-5.92-.46-9.96-2.33-12.12-5.63-2.16-3.3-3.24-7.17-3.24-11.61,0-3.76.51-7.62,1.54-11.61,1.02-3.98,2.1-7.62,3.24-10.93,1.14-3.19,2.65-6.54,4.52-10.07,1.88-3.53,4.44-7.74,7.68-12.64,3.24-4.89,7.48-11.04,12.72-18.44,5.23-7.4,11.72-16.56,19.47-27.49,1.37-1.71,2.56-2.56,3.59-2.56.68,0,1.17.26,1.45.77.28.51.31,1,.09,1.45-10.7,15.82-18.93,29.4-24.67,40.72-5.75,11.33-9.99,20.98-12.72,28.94-.57,1.6-1.28,3.84-2.13,6.75-.85,2.9-1.62,6.03-2.31,9.39-.68,3.36-1.02,6.52-1.02,9.48,0,3.19.57,5.92,1.71,8.2,1.14,2.28,3.13,3.42,5.98,3.42,1.71,0,3.3-.57,4.78-1.71.57-.34.91-.51,1.02-.51.23,0,.34.11.34.34,0,.34-.34.79-1.02,1.37-2.16,1.93-5.12,2.73-8.88,2.39Z"/>
    <path class="cls-1-n05tt second-color" d="m256.26,442.85c-5.01,0-9.19-1.22-12.55-3.67-3.36-2.45-5.04-6-5.04-10.67,0-5.01,1.2-9.67,3.59-14,2.39-4.33,5.58-8.11,9.56-11.36,3.98-3.24,8.34-5.78,13.06-7.6,4.72-1.82,9.42-2.73,14.09-2.73s8.14.83,10.42,2.48c2.28,1.65,3.42,3.67,3.42,6.06s-1.05,4.7-3.16,7.26c-2.11,2.56-5.15,4.81-9.14,6.74-2.51,1.14-5.38,2.13-8.62,2.99-3.24.85-6.06,1.28-8.45,1.28-1.82,0-2.73-.28-2.73-.85,0-.45.79-.68,2.39-.68,1.48,0,3.78-.43,6.92-1.28,3.13-.85,6.17-2.02,9.14-3.5,3.3-1.82,5.63-3.64,7-5.46,1.37-1.82,2.05-3.47,2.05-4.95,0-1.37-.54-2.5-1.62-3.42-1.08-.91-2.59-1.37-4.52-1.37-1.82,0-3.87.51-6.15,1.54-3.3,1.48-6.69,3.9-10.16,7.26-3.47,3.36-6.35,7.03-8.62,11.01-2.28,3.99-3.42,7.8-3.42,11.44,0,2.51.71,4.61,2.13,6.32,1.42,1.71,3.56,2.56,6.4,2.56s6.37-.94,10.25-2.82c3.87-1.88,7.8-4.21,11.78-7,3.98-2.79,7.68-5.61,11.1-8.45,3.42-2.84,6.15-5.23,8.2-7.17.68-.68,1.2-1.03,1.54-1.03s.51.29.51.85c0,.8-.34,1.48-1.02,2.05-4.33,3.99-9.02,8.14-14.09,12.46-5.07,4.33-10.47,8-16.22,11.01-5.75,3.01-11.76,4.58-18.01,4.7Z"/>
    <path class="cls-1-n05tt second-color" d="m278.12,457.53c-.45,0-.77-.17-.94-.51-.17-.34-.03-.74.43-1.2,3.53-4.67,8.11-10.36,13.75-17.08s11.87-13.49,18.7-20.32c-1.71-4.44-2.56-8.88-2.56-13.32,0-4.78.91-8.42,2.73-10.93.57-.68,1.82-1.59,3.76-2.73,1.93-1.14,3.76-2.11,5.46-2.9,1.59-.68,2.79-1.03,3.59-1.03.68,0,.74.46.17,1.37-1.82,2.96-2.73,7.06-2.73,12.29,0,2.28.17,4.61.51,7,5.58-5.01,11.27-9.5,17.08-13.49,5.81-3.98,11.5-7.14,17.08-9.48,5.58-2.33,10.87-3.39,15.88-3.16.23,0,.31.12.26.34-.06.23-.31.34-.77.34-4.1,0-9.28,1.77-15.54,5.29-6.26,3.53-12.87,8.03-19.81,13.49-2.16,1.82-4.35,3.7-6.57,5.63-2.22,1.94-4.47,3.87-6.75,5.81.91,4.1,2.13,8.03,3.67,11.78s3.21,6.83,5.04,9.22c1.25,1.48,2.59,2.68,4.01,3.59,1.42.91,3.04,1.37,4.87,1.37,2.16,0,3.76-.68,4.78-2.05.23-.23.45-.26.68-.09.23.17.23.37,0,.6-.8,1.14-1.85,1.99-3.16,2.56-1.31.57-2.59.85-3.84.85-4.44,0-8.34-.94-11.7-2.82-3.36-1.88-6.21-4.27-8.54-7.17-2.33-2.9-4.24-5.78-5.72-8.62-7.06,6.72-13.4,13.18-19.04,19.38-5.63,6.2-9.76,11.01-12.38,14.43-.68,1.02-1.48,1.54-2.39,1.54Z"/>
    <path class="cls-1-n05tt second-color" d="m358.54,444.04c-3.64,0-6.43-1.08-8.37-3.24-1.94-2.16-2.9-5.18-2.9-9.05,0-3.64.97-7.91,2.9-12.81l.34-.85-3.07,2.9c-.45.46-.97.68-1.54.68s-.85-.23-.85-.68c0-.57.4-1.25,1.2-2.05,2.96-2.62,6-5.38,9.14-8.28,3.13-2.9,5.78-5.66,7.94-8.28-.8.34-1.65.51-2.56.51s-1.6-.23-2.05-.68c-.8-.57-1.2-1.59-1.2-3.07,0-1.25.6-2.56,1.79-3.93s3.67-2.56,7.43-3.59c.8-.23,1.62-.4,2.48-.51.85-.11,1.68-.23,2.48-.34,3.64-5.12,6.83-9.88,9.56-14.26,2.73-4.38,4.89-7.31,6.49-8.79.68-.8,1.9-1.48,3.67-2.05,1.76-.57,3.64-1.02,5.64-1.37,1.99-.34,3.56-.51,4.7-.51,3.76,0,5.63.34,5.63,1.02,0,.46-.85,1.54-2.56,3.24-2.85,2.73-6.18,6.12-9.99,10.16-3.82,4.04-7.71,8.4-11.7,13.06,3.3.46,6.34,1.31,9.14,2.56,2.79,1.25,4.81,2.85,6.06,4.78.45.57.68,1.25.68,2.05,0,.91-.29,1.37-.85,1.37-.46,0-.97-.28-1.54-.85-2.39-2.39-6.38-3.59-11.95-3.59-1.14,0-2.31.06-3.5.17-1.2.11-2.42.29-3.67.51-3.87,5.01-7.4,10.02-10.59,15.03-3.19,5.01-5.46,9.68-6.83,14-.68,2.05-1.02,3.93-1.02,5.63s.4,3.1,1.2,4.18c.79,1.08,1.99,1.62,3.59,1.62,1.02,0,2.28-.28,3.76-.85,2.16-.79,4.67-2.13,7.51-4.01,2.84-1.88,5.72-4.01,8.62-6.4s5.63-4.72,8.2-7c2.56-2.28,4.7-4.21,6.4-5.81,1.71-1.59,2.67-2.5,2.9-2.73.34-.34.62-.51.85-.51.45,0,.68.34.68,1.02,0,.8-.34,1.54-1.02,2.22-1.14,1.14-2.88,2.85-5.21,5.12-2.33,2.28-5.01,4.81-8.03,7.6-3.02,2.79-6.23,5.44-9.65,7.94-3.42,2.5-6.86,4.58-10.33,6.23-3.47,1.65-6.8,2.48-9.99,2.48Z"/>
  </g>
  <g>
    <path class="cls-1-n05tt second-color" d="m187.15,519.53v-34.39h10.59c2.15,0,3.84.33,5.1,1s2.28,1.7,3.08,3.11,1.2,2.96,1.2,4.66c0,1.58-.34,3-1.03,4.27-.69,1.27-1.66,2.28-2.91,3.05,1.63.59,2.92,1.61,3.87,3.04.94,1.43,1.41,3.2,1.41,5.29s-.43,3.91-1.28,5.48c-.85,1.57-1.99,2.72-3.41,3.43-1.42.71-3.38,1.07-5.86,1.07h-10.74Zm3.73-19.94h6.11c1.6,0,2.73-.11,3.41-.33.97-.33,1.72-.88,2.24-1.65.52-.77.79-1.83.79-3.16,0-1.24-.24-2.26-.72-3.08-.48-.82-1.11-1.39-1.9-1.7-.79-.31-2.21-.47-4.27-.47h-5.66v10.39Zm0,15.88h7.03c1.55,0,2.69-.14,3.43-.42,1.06-.41,1.88-1.08,2.43-2,.56-.93.83-2.1.83-3.51,0-1.3-.27-2.4-.8-3.3-.53-.9-1.25-1.56-2.15-1.97-.9-.41-2.31-.62-4.24-.62h-6.53v11.82Z"/>
    <path class="cls-1-n05tt second-color" d="m227.03,511.51l3.56.54c-.59,2.66-1.67,4.66-3.23,6.02-1.56,1.35-3.48,2.03-5.78,2.03-2.89,0-5.23-1.1-7.02-3.29-1.79-2.2-2.69-5.37-2.69-9.51s.9-7.58,2.71-9.84,4.09-3.39,6.86-3.39,4.85,1.11,6.61,3.33,2.65,5.43,2.65,9.64l-.02,1.13h-15.25c.14,2.8.79,4.91,1.95,6.33s2.56,2.13,4.22,2.13c2.6,0,4.4-1.71,5.42-5.11Zm-11.38-6.83h11.4c-.16-2.16-.62-3.77-1.38-4.83-1.11-1.55-2.53-2.32-4.25-2.32-1.55,0-2.87.64-3.96,1.93-1.1,1.29-1.7,3.03-1.81,5.22Z"/>
    <path class="cls-1-n05tt second-color" d="m248.28,516.46c-1.16,1.2-2.36,2.11-3.61,2.72-1.25.61-2.55.91-3.89.91-2.13,0-3.82-.64-5.09-1.92-1.27-1.28-1.9-3.01-1.9-5.18,0-1.44.3-2.71.89-3.82.59-1.11,1.41-1.98,2.44-2.6,1.03-.62,2.6-1.09,4.69-1.38,2.81-.41,4.88-.91,6.19-1.48l.02-1.08c0-1.7-.31-2.9-.92-3.59-.86-1-2.18-1.5-3.96-1.5-1.61,0-2.81.33-3.61,1s-1.38,1.92-1.76,3.76l-3.4-.56c.48-2.67,1.47-4.62,2.94-5.84,1.48-1.22,3.59-1.83,6.35-1.83,2.14,0,3.82.4,5.04,1.21s1.99,1.8,2.31,2.99c.32,1.19.48,2.92.48,5.21v5.63c0,3.94.07,6.42.22,7.45.15,1.02.44,2.02.88,2.99h-3.61c-.36-.86-.59-1.88-.7-3.07Zm-.28-9.43c-1.27.62-3.15,1.16-5.65,1.59-1.45.25-2.47.54-3.05.86s-1.03.77-1.35,1.36c-.32.59-.48,1.26-.48,2.03,0,1.19.37,2.14,1.1,2.85s1.75,1.07,3.05,1.07,2.36-.32,3.37-.96c1.01-.64,1.76-1.5,2.26-2.57.5-1.07.75-2.63.75-4.68v-1.55Z"/>
    <path class="cls-1-n05tt second-color" d="m270.26,519.53v-3.66c-.8,1.41-1.74,2.46-2.81,3.17-1.08.7-2.3,1.05-3.66,1.05-1.61,0-2.99-.43-4.13-1.3-1.14-.87-1.9-1.97-2.29-3.29-.38-1.33-.57-3.14-.57-5.44v-15.43h3.45v13.82c0,2.56.13,4.28.39,5.15.26.87.73,1.56,1.43,2.09.7.52,1.49.79,2.38.79,1.66,0,3.02-.68,4.08-2.04.91-1.17,1.36-3.32,1.36-6.45v-13.35h3.47v24.91h-3.1Z"/>
    <path class="cls-1-n05tt second-color" d="m286.49,515.75l.47,3.73c-.95.25-1.81.38-2.58.38-1.2,0-2.17-.24-2.91-.71-.74-.48-1.24-1.13-1.51-1.96-.27-.83-.41-2.48-.41-4.95v-14.33h-2.53v-3.28h2.53v-6.17l3.45-2.53v8.7h3.5v3.28h-3.5v14.57c0,1.34.1,2.21.31,2.6.3.56.85.84,1.67.84.39,0,.9-.05,1.52-.16Z"/>
    <path class="cls-1-n05tt second-color" d="m289.63,529.12l-.38-3.96c.77.25,1.42.38,1.97.38.74,0,1.34-.15,1.82-.45.48-.3.87-.76,1.19-1.38.11-.22.56-1.6,1.36-4.14l-7.77-24.95h3.73l4.27,14.42c.53,1.8,1.02,3.72,1.48,5.77.39-1.94.86-3.83,1.41-5.67l4.36-14.51h3.47l-7.75,25.33c-1.02,3.28-1.82,5.48-2.41,6.58-.59,1.1-1.25,1.9-2,2.38-.74.48-1.59.73-2.53.73-.66,0-1.4-.17-2.23-.52Z"/>
    <path class="cls-1-n05tt second-color" d="m319.63,508.46l3.52-.38c.19,1.89.61,3.37,1.28,4.42.66,1.06,1.61,1.9,2.85,2.54,1.23.64,2.63.96,4.18.96,2.22,0,3.94-.54,5.17-1.63,1.23-1.08,1.84-2.49,1.84-4.22,0-1.01-.22-1.9-.67-2.66s-1.12-1.38-2.02-1.86c-.9-.48-2.84-1.17-5.83-2.05-2.66-.79-4.55-1.58-5.68-2.38-1.13-.8-2-1.81-2.63-3.04s-.94-2.62-.94-4.16c0-2.78.9-5.06,2.7-6.83,1.8-1.77,4.22-2.65,7.27-2.65,2.1,0,3.93.41,5.5,1.24,1.57.83,2.79,2.02,3.66,3.57.87,1.55,1.33,3.37,1.4,5.46l-3.59.33c-.19-2.24-.86-3.89-2.01-4.97-1.15-1.08-2.76-1.62-4.84-1.62s-3.72.47-4.83,1.42c-1.11.95-1.67,2.17-1.67,3.67,0,1.39.41,2.47,1.22,3.24.81.77,2.64,1.54,5.49,2.33,2.78.77,4.74,1.44,5.86,2,1.72.88,3.02,2.03,3.9,3.46s1.32,3.14,1.32,5.12-.46,3.76-1.38,5.38c-.92,1.62-2.18,2.85-3.76,3.69-1.59.84-3.5,1.26-5.74,1.26-3.49,0-6.27-1.05-8.34-3.14s-3.15-4.93-3.23-8.51Z"/>
    <path class="cls-1-n05tt second-color" d="m346.68,529.08v-34.46h3.19v3.24c.78-1.34,1.65-2.31,2.6-2.91.95-.59,2.04-.89,3.28-.89,1.61,0,3.06.48,4.36,1.43,1.3.95,2.34,2.4,3.13,4.35.79,1.95,1.18,4.29,1.18,7.02,0,4.24-.89,7.5-2.66,9.79s-3.86,3.44-6.25,3.44c-1.06,0-2.06-.27-2.98-.82-.92-.55-1.72-1.32-2.39-2.32v12.13h-3.45Zm3.15-21.86c0,3.22.54,5.59,1.61,7.12,1.08,1.52,2.38,2.29,3.91,2.29s2.75-.79,3.86-2.37c1.11-1.58,1.66-4.02,1.66-7.32s-.54-5.66-1.61-7.23c-1.08-1.56-2.39-2.34-3.93-2.34-1.39,0-2.65.84-3.79,2.52-1.14,1.68-1.71,4.12-1.71,7.33Z"/>
    <path class="cls-1-n05tt second-color" d="m381.89,516.46c-1.16,1.2-2.36,2.11-3.61,2.72-1.25.61-2.55.91-3.89.91-2.13,0-3.82-.64-5.09-1.92-1.27-1.28-1.9-3.01-1.9-5.18,0-1.44.3-2.71.89-3.82.59-1.11,1.41-1.98,2.44-2.6,1.03-.62,2.6-1.09,4.69-1.38,2.81-.41,4.88-.91,6.19-1.48l.02-1.08c0-1.7-.31-2.9-.92-3.59-.86-1-2.18-1.5-3.96-1.5-1.61,0-2.81.33-3.61,1s-1.38,1.92-1.76,3.76l-3.4-.56c.48-2.67,1.47-4.62,2.94-5.84,1.48-1.22,3.59-1.83,6.35-1.83,2.14,0,3.82.4,5.04,1.21s1.99,1.8,2.31,2.99c.32,1.19.48,2.92.48,5.21v5.63c0,3.94.07,6.42.22,7.45.15,1.02.44,2.02.88,2.99h-3.61c-.36-.86-.59-1.88-.7-3.07Zm-.28-9.43c-1.27.62-3.15,1.16-5.65,1.59-1.45.25-2.47.54-3.05.86s-1.03.77-1.35,1.36c-.32.59-.48,1.26-.48,2.03,0,1.19.37,2.14,1.1,2.85s1.75,1.07,3.05,1.07,2.36-.32,3.37-.96c1.01-.64,1.76-1.5,2.26-2.57.5-1.07.75-2.63.75-4.68v-1.55Z"/>
  </g>
  <g>
    <path class="cls-1-n05tt first-color" d="m323.93,620.73c-151.25,0-274.31-114.15-274.31-254.46S172.68,111.81,323.93,111.81c30.45,0,60.36,4.6,88.9,13.66l-1.22,3.85c-28.15-8.94-57.65-13.48-87.68-13.48-149.03,0-270.28,112.34-270.28,250.43s121.24,250.43,270.28,250.43c86.04,0,164.99-36.67,216.59-100.6l3.14,2.54c-52.37,64.89-132.46,102.1-219.73,102.1Z"/>
    <path class="cls-1-n05tt first-color" d="m323.93,598.09c-151.27,0-274.33-116.37-274.33-259.41S172.67,79.27,323.93,79.27c18.6,0,37.19,1.77,55.26,5.27l-.77,4c-17.82-3.45-36.15-5.19-54.49-5.19-149.02,0-270.26,114.54-270.26,255.34s121.24,255.34,270.26,255.34c65.47,0,128.64-22.4,177.86-63.09l2.59,3.14c-49.95,41.29-114.04,64.02-180.46,64.02Z"/>
  </g>
  <g>
    <path class="cls-1-n05tt first-color" d="m635.55,253.87c-8.12-16.5-18.37-31.49-31.58-44.36-3.59-3.5-7.58-6.44-12.05-8.72-2.82-1.44-4.58-1.55-5.12-.38-.5,1.08.6,3.27,2.71,4.53,2.02,1.21,3.17,2.99,4.24,4.94.96,1.74,1.86,3.52,2.98,5.16,8.03,11.78,12.79,24.75,13.77,38.96,1.25,18.12.08,36.02-6.05,53.34-3.76,10.62-5.52,21.57-5.92,32.84-.39,11.04-1.05,22.09-1.98,33.1-1.39,16.45-6.16,31.87-15.04,45.91-.6.95-1.24,1.87-2.05,3.08-.21-.74-.35-.96-.31-1.12.35-1.16.73-2.32,1.13-3.47,3.5-9.93,6.08-20.1,8.1-30.43,4.59-23.41,3.24-46.89,1.02-70.38-.72-7.69-2.13-15.25-1.64-23.09.9-14.45,1.35-28.93,1.74-43.4.34-12.88-.88-25.65-4.42-38.08-2.68-9.39-6.76-18.25-11.57-26.73-14.27-25.17-31.84-47.58-55.07-65.16-4.49-3.4-9.23-6.47-13.91-9.61-1.02-.68-2.17-1.51-3.88-.78.32.79.51,1.49.86,2.1,1.25,2.21,2.48,4.43,3.83,6.57,1.76,2.8,3.5,5.64,5.49,8.28,2.53,3.35,5.42,6.43,7.96,9.77,1.46,1.92,2.74,4.02,3.74,6.21,1.38,3.01,2.48,6.15,3.6,9.28,3.99,11.16,8.67,22.03,14.52,32.34,6.77,11.92,13.79,23.7,19.7,36.09,4.52,9.49,9.2,18.9,12.35,28.97.5,1.58.98,3.17,1.37,4.78.37,1.5.6,3.02.9,4.54-.53-.34-.7-.75-.86-1.16-6.72-17.65-15.52-34.2-25.98-49.91-1.64-2.47-3.1-5.1-4.32-7.8-3.61-8-7.76-15.62-13.46-22.37-8.37-9.9-15.68-20.59-22.38-31.66-5.04-8.33-11.01-15.72-18.51-21.93-12.21-10.1-24.63-19.8-39.3-26.3-9.34-4.14-18.97-6.67-29.13-7.11-6.51-.28-13.04-.33-19.56-.22-3.86.07-7.71.59-11.55,1.07-1.54.19-3.36.29-3.95,2.19.21.35.27.64.44.71.8.36,1.61.72,2.44.97,10.1,3.03,19.82,7.03,29.03,12.13,4.23,2.34,8.28,5.16,11.98,8.28,6,5.06,11.77,10.4,17.39,15.87,9.36,9.11,19.68,16.76,31.57,22.27,6.62,3.07,13.22,6.2,19.72,9.54,4.62,2.37,9.25,4.81,13.5,7.77,6.64,4.64,12.31,10.41,17.21,16.88,4.07,5.37,8.19,10.72,12.09,16.22,10.05,14.21,18.91,29.12,25.68,45.19,3,7.12,5.88,14.31,8.5,21.58,2.62,7.27,4.86,14.68,7.27,22.02-8.42-22.67-19.24-43.89-35.55-62-16.3-18.1-35.86-31.44-58.69-40,36.67,17.17,64.1,43.56,80.87,80.63-.42-.19-.76-.48-1.05-.8-6.24-6.87-12.45-13.76-18.73-20.58-.96-1.04-2.16-1.92-3.38-2.66-7.74-4.73-15.31-9.79-23.33-13.98-10.28-5.37-20.93-10.04-31.44-14.98-7.22-3.4-14.25-7.1-20.69-11.87-5.91-4.38-10.69-9.91-15.79-15.13-8.88-9.1-17.81-18.14-26.72-27.22-.42-.43-.79-.92-1.18-1.38.12-.2.23-.39.35-.59,2.93,1.13,5.82,2.39,8.8,3.35,6.41,2.06,12.76,4.7,19.34,5.76,10.29,1.67,20.43,3.75,30.4,6.76,6.77,2.05,13.73,3.74,19.87,7.36,14.55,8.58,27.17,19.34,36.69,33.49,3.33,4.95,6.76,9.84,10.38,14.59,6.06,7.95,11.13,16.48,15.47,25.46,1.6,3.31,3.23,6.61,4.84,9.91.22-.09.44-.19.65-.28-1.32-3.62-2.41-7.33-3.99-10.83-4.23-9.4-9.27-18.33-15.61-26.51-2.84-3.67-5.61-7.43-7.96-11.42-4.93-8.4-11.23-15.57-18.47-22.02-11.36-10.12-23.56-18.63-38.77-22.08-8.94-2.03-17.7-4.88-26.9-5.66-8.21-.7-16.16-2.45-23.86-5.4-3.3-1.27-6.64-2.44-10-3.55-1.17-.39-2.51-1.08-3.83.42.44,2.25,2.23,3.64,3.7,5.21,5.21,5.58,10.47,11.1,15.66,16.69,3.16,3.41,6.29,6.84,9.28,10.39,8.77,10.43,19.5,18.22,31.82,23.94,8.93,4.15,18.03,8.01,26.63,12.75,11.32,6.24,22.31,13.11,33.29,19.96,3.44,2.15,6.4,5.06,9.49,7.74,1.84,1.59,3.44,3.45,5.24,5.08,7.73,6.99,12.77,15.73,16.55,25.3,3.11,7.86,4.6,16.13,6.42,24.34,2.45,11.08,3.7,22.25,4.02,33.53,1.12,39.76-9.99,76.21-30.14,110.17-.26.44-.74.75-1.56,1.56.29-1.12.37-1.55.51-1.97,4.58-13.09,6.75-26.54,5.98-40.43-.07-1.28.29-2.6.57-3.88,1-4.64,2.02-9.27,3.09-13.89.27-1.17.51-2.43,1.14-3.4,1.49-2.31,3.17-4.51,4.85-6.69,1.35-1.75,2.96-3.31,4.21-5.12,4.41-6.39,5.23-13.49,3.66-20.93-.18-.83-.93-1.82-1.68-2.15-.43-.19-1.61.63-2.06,1.27-2.85,4.07-5.6,8.21-8.38,12.33-.38.57-.74,1.15-1.28,1.99-.2-.7-.34-1-.37-1.32-1.02-14.96-3.71-29.61-8.12-43.94-.26-.83-.5-1.74-.44-2.59.25-3.52.53-7.05.97-10.56.79-6.26,1.48-12.54.79-18.84-.6-5.39-1.41-10.77-4.15-15.6-.54-.96-1.21-2.19-2.46-1.73-.74.27-1.2,1.4-1.7,2.2-.22.35-.2.85-.29,1.28-1.42,7.08-2.06,14.22-1.47,21.44.06.76-.05,1.54-.12,3.05-6.01-11.02-13.71-19.61-22.57-26.75-.02-.56-.07-.68-.03-.77.19-.4.38-.79.61-1.17,4.33-7.06,5.63-14.83,5.15-22.93-.12-2.02-.82-4.17-1.83-5.93-2.73-4.76-6.69-5.42-11.05-2.02-.68-.84-1.35-1.69-2.04-2.53-2.36-2.85-5.06-5.29-8.48-6.77-1.39-.6-2.94-1.05-4.44-1.15-3.51-.23-5.8,2.15-5.19,5.58.36,2.03,1.36,3.94,2.14,5.88.32.79.81,1.51,1.56,2.9-1.57-.78-2.53-1.24-3.48-1.72-3.28-1.65-6.62-3.13-10.33-3.4-3.12-.23-6.17-.05-8.97,1.66-5.13,3.12-5.88,7.59-1.94,12.16,2.57,2.98,5.84,5.04,9.26,6.91.79.43,1.54.91,2.96,1.76-2.15.08-3.5-.06-4.76.21-2.68.57-5.5.97-7.93,2.14-3.83,1.84-4.55,5.3-2.37,8.91,1.6,2.66,3.96,4.42,6.74,5.68,1,.45,2.01.86,3.01,1.28-2,4.99-.61,7.88,4.42,9.4.84.25,1.72.49,2.59.54,7.07.41,13.9-.52,20.27-3.82,5.16-2.68,9.56-6.25,12.68-11.64,5,4.78,9.49,9.52,13.59,14.92-3.45-.93-6.49-1.81-9.58-2.53-.87-.2-1.85.07-2.78.12.11,1.04-.06,2.2.37,3.08,1.7,3.48,4.56,5.65,8.31,6.56,2.04.49,4.12.83,6.2,1.11,2.65.36,4.25,1.74,5.43,4.18,5.68,11.73,9.39,24.1,12.17,36.77.71,3.26,1.22,6.57,1.82,9.85-.84-.28-1.14-.72-1.42-1.18-3.32-5.58-7.81-10.15-12.69-14.35-.77-.67-1.51-1.79-2.81-.88-.07.23-.17.43-.19.64-.01.21.01.46.11.65,3.76,7.5,7,15.33,13.65,20.95,1.17.99,2.15,2.23,3.26,3.29,1.18,1.14,1.69,2.47,1.78,4.12.2,3.64.55,7.28.87,10.91.63,7.19.2,14.36-.53,21.52-.11,1.07-.43,2.12-.66,3.17-1.66-6.31-2.92-12.48-4.27-18.63-1.36-6.2-3.6-12.08-6.74-17.59-2.47-4.34-5.04-8.68-9.07-11.73-2.53-1.92-3.02-3.94-2.21-6.87,2.34-8.51,2.49-17.03-.49-25.46-1.94-5.48-4.54-10.57-8.86-14.6-2.24-2.09-4.82-3.54-8.05-3.25-3.12.28-5.17,2.07-5.51,5.19-.19,1.73-.05,3.53.19,5.26.24,1.79.79,3.53,1.36,5.97-2.24-2-3.87-3.61-5.65-5.04-4.23-3.39-8.95-5.78-14.48-5.93-6.39-.17-9.61,4.32-7.51,10.32.4,1.14.9,2.3,1.63,3.25,1.95,2.53,4.04,4.95,6.09,7.4.52.63,1.11,1.2,2.04,2.19-1.43-.08-2.29-.15-3.14-.18-3.93-.16-7.73.5-11.3,2.16-4.08,1.9-5.87,6.35-4.4,10.6.84,2.42,2.47,4.32,4.68,5.39,3.16,1.54,6.49,2.72,9.8,3.93,1.42.52,2.95.71,4.89,1.16-1.49.81-2.66,1.23-3.57,1.98-1.69,1.38-3.52,2.74-4.75,4.49-1.87,2.66-1.15,4.75,1.78,6.22,2.63,1.32,5.48,1.67,8.39,1.48,1.47-.1,2.93-.19,4.64-.3-.43,1.07-.77,1.76-.99,2.48-1.06,3.48.15,5.57,3.7,6.38,2.56.59,5.09.22,7.5-.66,6.5-2.35,11.89-6.24,16.02-11.85,2.42-3.28,4.67-6.63,6.05-11.12,8.45,10.13,12.95,21.31,14.73,33.75-3.01-4.35-7.21-7.17-11.72-9.54-.77-.4-1.85-.2-2.79-.28-.04.93-.41,2.02-.06,2.77,3.76,7.94,8.49,15.03,17.01,18.62,1.95,8.4,2.25,24.63.59,28.17-.9-2.14-1.54-4.55-2.82-6.56-4.14-6.52-8.5-12.91-12.81-19.32-.52-.77-1.02-1.81-2.76-1.26,0,.9-.16,1.95.03,2.94.7,3.58,1.44,7.16,2.33,10.7,2.04,8.08,5.62,15.35,11.53,21.34.97.98,2.02,1.88,3.12,2.9-4.97,26.72-20.19,47.28-40.55,64.62,1.6-2.49,3.38-4.86,5.09-7.27,6.75-9.52,12.44-19.62,16.07-30.77,3.73-11.47,6.09-23.13,3.87-35.24-2.79-15.25-9.09-28.59-21.23-38.73-.93-.78-1.73-1.71-2.63-2.52-.42-.38-.94-.66-1.41-.98-.21.15-.42.3-.62.44.55,1.23.99,2.53,1.67,3.68,3.22,5.37,5.82,10.93,5.82,17.38,0,.66.19,1.31.28,1.97.72,5.19.59,10.35-.17,15.53-2.49,16.81-10.26,30.92-21.98,42.99-7.11,7.32-11.92,15.93-14.19,25.84-1.11,4.84-1.39,9.86-2.38,14.72-.95,4.64-1.91,9.36-3.64,13.74-2.58,6.51-6.79,11.64-13.58,14.66-9.63,4.27-19.29,8.31-29.5,10.95-1.2.31-2.35.8-3.53,1.21.04.27.08.55.12.82.79.07,1.6.3,2.37.19,2.29-.34,4.58-.75,6.85-1.24,13.67-2.97,26.19-8.71,38.06-15.95,22.28-13.58,41.82-30.41,58.68-50.28,4.61-5.43,9.32-10.57,15.33-14.47,5.28-3.42,10.11-7.71,15.73-10.38,7.22-3.43,12.89-8.16,16.72-14.99,4.78-8.53,11.08-15.64,18.62-21.8,6.19-5.06,11.55-10.94,16.08-17.56,15.26-22.35,24.53-47.1,28-73.79,3.72-28.64-.75-56.22-13.58-82.27Zm-84.07-56.75c-7.63-12.72-14.92-25.58-20.72-39.25-.95-2.24-1.89-4.48-2.81-6.73-.16-.4-.2-.85.07-1.5,1.41,2.15,2.82,4.3,4.23,6.45.18-.09.36-.19.54-.28-.68-1.43-1.2-2.98-2.07-4.29-6.17-9.29-11.97-18.83-18.96-27.58-2.52-3.16-4.62-6.65-6.91-9.99.18-.16.36-.33.54-.49,1.23.89,2.46,1.77,3.68,2.67,27.48,20.25,48.29,46.2,64.53,75.97,8.51,15.59,13.11,32.31,13.44,50.13.1,5.19.17,10.39.22,15.58.01.97-.09,1.94-.14,2.91-.14,0-.27.02-.41.03-.81-4.06-1.53-8.14-2.46-12.17-2.96-12.82-5.51-25.77-10.54-37.99-5.78-14.05-12.94-27.37-22.16-39.51-.45-.6-.97-1.14-1.85-1.46.37.73.69,1.48,1.1,2.19,3.89,6.69,8.06,13.22,11.63,20.07,5.74,11,10.23,22.52,13.37,34.57,3.35,12.84,6.66,25.68,8.64,38.83,1.5,9.96,1.99,19.45.87,26.7-.45-1.28-.75-2.01-.96-2.77-1.56-5.42-3.27-10.81-4.6-16.28-.85-3.53-1.15-7.19-1.67-10.79-1.36-9.36-4.04-18.35-7.81-27-5.65-12.97-11.51-25.88-18.79-38.02Zm-15.62-6.63c-4.49-5.16-8.87-10.43-13.51-15.46-15.05-16.34-31.84-30.65-50.31-43-.75-.5-1.78-.58-2.64-.94-1-.42-2.06-.8-2.91-1.44-6.01-4.51-11.96-9.1-17.96-13.64-3.24-2.45-6.54-4.83-10.27-6.8.28.45.47,1.02.86,1.34,10.25,8.41,20.15,17.32,31.82,23.82,10.24,5.7,18.97,13.33,27.6,21.11,3.69,3.33,7.23,6.83,10.83,10.26.53.51,1.01,1.08,1.27,1.97-.71-.37-1.43-.73-2.14-1.11-5.06-2.73-10.09-5.5-15.17-8.19-7.43-3.92-14.93-7.71-22.33-11.7-6.87-3.7-12.72-8.79-18.37-14.09-6.29-5.9-12.43-11.96-18.86-17.7-9.05-8.1-19.6-13.53-31.29-16.79-4.54-1.27-9.05-2.65-13.6-4.43,2.89-.28,5.78-.76,8.68-.78,6.85-.06,13.71-.15,20.54.2,11.16.57,21.77,3.37,31.89,8.23,16.14,7.75,30.03,18.6,43.1,30.63,4.99,4.59,8.72,10.26,12.44,15.89,2.13,3.23,4.1,6.57,6.36,9.71,3.67,5.11,7.51,10.1,11.28,15.14,4.1,5.48,8.2,10.96,12.3,16.45.25.34.42.74.63,1.1-.08.07-.16.15-.24.22Zm15.83,93.28c4.79,6.19,4.88,24.27,1.84,36.2-5.08-11.72-4.15-23.72-1.84-36.2Zm-26.03-17.98c.48-3.45,1.21-6.89.25-10.44-.29,3.04-.59,6.08-.88,9.13-.2,0-.4-.02-.6-.02-.38-1.33-.67-2.69-1.15-3.98-.93-2.47-1.95-4.92-2.99-7.35-.5-1.16-1.05-2.26.22-3.27,1.16-.91,2.55-1.18,3.69-.32,1.1.83,2.14,1.96,2.72,3.18.7,1.46,1.1,3.15,1.24,4.78.55,6.27-.95,12.22-2.98,18.05l-.72-.09c.4-3.22.76-6.45,1.21-9.67Zm-41.33-.68c-2.12-1.34-4.16-2.97-5.83-4.84-2.66-2.98-2.01-5.94,1.48-7.94,3.01-1.73,6.27-1.99,9.63-1.26,7.11,1.55,13.09,5.2,18.38,10.06,2.24,2.06,4.41,4.22,5.78,7.03-4.47-3.91-8.91-7.82-14.66-9.98,3.39,2.8,6.78,5.61,10.16,8.41-.12.21-.25.42-.37.63-2.55-.24-4.68-1.83-7.1-2.48-2.4-.64-4.83-1.19-7.35-1.47,6.92,3.43,14.44,5.75,19.46,12.45-1.11-.39-2.22-.78-3.34-1.17-.01,0-.03-.02-.04-.03,0,0,0,0,0,0,0,0,0,0,0,0h0l.03.02s.1.05.1.05c-9.16-2.1-18.26-4.42-26.33-9.49Zm-6.01,17.54c-4.28-3.85-3.69-7.26,1.85-8.85,5.65-1.62,11.41-2.28,17.25-.26,4.06,1.4,8.29,2.28,12.45,3.39,1.25.33,2.51.65,3.76.97-4.18,1.83-8.34.65-13.26.64,1.49.72,2.33,1.13,3.64,1.76-5.29,1.12-10.14.31-15.17.08,2.91,2.05,6.92,2.45,19.01,2.02-4.51,2.79-9.52,4.04-14.71,4.52-5.45.5-10.58-.46-14.82-4.28Zm34.63,7.65c-5.97,3.81-12.46,6.22-19.63,6.15-2.16-.02-4.39-.5-6.44-1.21-1.92-.66-2.34-2.17-1.71-4.04.4-1.19,1.04-1.8,2.43-1.67,6.91.64,13.65-.29,20.86-2.58-2.29,2.23-4.7,2.84-7.04,3.46-2.26.6-4.59.93-6.84,1.65,4.57.75,9.02-.07,13.14-1.74,4.01-1.62,7.67-4.08,11.92-6.4-1.84,2.97-4.22,4.79-6.7,6.37Zm8.52-14.66c-1.41-1.5-1.37-2.98-1.5-4.42-.59-6.5-3.25-12.08-7.57-16.91-.22-.24-.46-.48-.73-.66-.17-.11-.42-.08-.9-.16,2.03,4.1,4.51,7.86,5.03,12.54-1-1.11-1.97-2.25-3.01-3.31-2.87-2.91-5.81-5.74-8.65-8.68-2.21-2.28-3.42-5.13-4.17-8.18-.34-1.41-.53-2.88.72-4.02,1.32-1.21,2.74-.55,4.03,0,4.16,1.8,7.56,4.64,10.06,8.38,4.62,6.93,7.87,14.34,7.09,22.96-.06.65-.2,1.28-.39,2.46Zm7.09,22.41c4.81.97,8.61,2.76,12.16,5.54-5.07,1.08-9.6-.87-12.16-5.54Zm18.54,47.73c3.67,1.55,10.38,10.19,12.18,15.85-4.25-1.42-6.92-5.92-12.18-15.85Zm23.9,25.06c1.49-2.04,2.7-4.29,4.07-6.42.45-.7,1-1.33,1.79-2.36.99,4,.81,7.49-.4,10.82-1.01,2.78-2.28,5.52-3.83,8.02-1.9,3.06-4.21,5.87-6.66,9.21-.6-7.46.94-13.69,5.03-19.27Zm-76.63-42.98c-.98-1.31-1.87-2.76-2.47-4.27-1.79-4.54.26-7.42,5.1-7.33.66.01,1.34.04,1.97.19,7.56,1.85,13.5,6.15,18.15,12.37-2.12-1.77-4.16-3.64-6.38-5.28-2.29-1.69-4.75-3.16-7.39-4.43,9.66,7.42,18.07,15.93,24.28,26.49-8.46-8.67-17.26-16.88-28.34-22.2.68,1.66,2.2,2.47,3.54,3.4,6.19,4.3,11.95,9.1,17.26,14.45.99,1,1.94,2.05,2.72,3.32-8.39-5.68-17.51-10.3-24.75-17.64.68,2.36,2.26,4.02,4.08,5.38,3.89,2.91,7.87,5.7,11.83,8.52,1.24.88,2.51,1.72,4.25,2.91-8.02-1.69-18.53-8.77-23.85-15.89Zm-4.43,26.79c-1.79-.81-3.56-1.86-5.03-3.15-3.25-2.85-2.86-7.48.73-9.93,3.42-2.32,7.34-2.92,11.37-3.1,3.81-.17,7.19.89,10.65,3.78-4.33-.47-7.92-2.29-11.77-1.62-.05.23-.09.45-.14.68,2.93.7,5.9,1.28,8.78,2.15,3.07.92,6.09,2.02,9.06,3.23,2.86,1.16,5.62,2.57,8.35,4.17-8.96-1.87-17.74-4.72-27.78-4.8,1.07.61,1.5,1,2,1.12,1.61.38,3.26.6,4.87.97,5.8,1.37,11.6,2.76,17.39,4.18.72.18,1.38.59,2.03,1.09-9.34.16-18.57-.92-27.73-2.75-.08.31-.15.62-.23.93,1.26.46,2.48,1.15,3.78,1.34,6.99,1.03,14,1.93,21.01,2.88.75.1,1.5.17,2.6.29-8.92,2.84-21.86,2.22-29.93-1.45Zm9.78,17.29c-1.8.11-3.73-.36-5.47-.96-1.83-.63-2.12-1.71-1.23-3.39.46-.86,1.08-1.71,1.83-2.32,3.13-2.56,6.72-4.36,10.71-4.89,4.65-.62,9.36-.77,14.09-.95-4.75,2.48-10.1,2.84-15.24,4.02,7.01,1.64,13.26-1.61,19.84-2.87-5.72,4.43-12.63,6.14-19.34,8.45,3.01.66,5.7-.49,8.45-1.22,2.77-.73,5.51-1.55,8.64-2.44-3.32,2.59-6.78,4.28-10.49,5.1-3.86.85-7.85,1.23-11.8,1.49Zm24.92,2.51c-2.61,2.38-5.31,4.75-8.78,5.76-1.97.57-4.11.93-6.14.82-2.92-.16-3.76-1.93-2.51-4.62.86-1.85,2.07-3.08,4.28-3.69,4.43-1.24,8.72-2.97,13.42-4.62-3.37,4-7.42,6.79-11.96,8.99.11.22.23.43.34.65,1.18-.33,2.45-.49,3.52-1.03,4.99-2.53,9.24-5.92,12.41-10.65,1.11-1.66,2.75-2.98,4.14-4.45.22.22.44.43.66.65-2.2,4.76-5.54,8.68-9.38,12.19Zm11.31-22.21c.21-5.16-.07-10.23-.86-15.27-.8-5.03-2.07-9.87-6.24-13.43,2.73,6.25,5.05,12.57,4.53,19.56-1.72-7.1-4.84-13.36-10.88-17.9,1.49,2.59,3.12,5.1,4.42,7.78,1.34,2.74,2.35,5.63,3.51,8.46-.11.03-.22.07-.33.1-3.44-4.67-7.17-9.17-10.24-14.07-2.43-3.88-3.2-8.48-2.74-13.09.33-3.35,3.07-5.22,6.18-4.01,2.07.81,4.04,2.28,5.61,3.88,3.08,3.12,4.75,7.17,6.22,11.22,3,8.29,3.83,16.76,1.64,25.4-.12.47-.3.93-.81,1.37Zm6.15,34.22c5.26,1.05,9.34,5.6,12.37,13.85-5.9-2.98-8.99-8.36-12.37-13.85Zm.03,24.75c6.9,8.08,12.41,16.8,13.32,28.47-7.97-8.38-11.68-17.94-13.32-28.47Zm-57.11,108.15c.69-4.48,1.41-8.95,2-13.44,1.44-11.02,6.25-20.42,13.68-28.54,6.53-7.13,12.32-14.77,16.71-23.4,3.96-7.77,6.11-16.11,7.17-24.72.29-2.4.16-4.85.1-7.28-.07-2.76-.09-5.54-.48-8.26-.43-3.03-1.25-6-2-9.49.99,1.26,1.85,2.19,2.52,3.24,9.31,14.52,13.18,30.22,10.37,47.42-2.72,16.67-10.47,30.78-21.32,43.5-7.28,8.53-15.49,15.97-25.06,23.13.69-1.17.99-1.73,1.33-2.26,4.06-6.32,7.98-12.75,12.25-18.93,3.95-5.73,8.24-11.22,12.45-16.76,9.86-12.99,15.62-27.62,17.74-43.74.1-.75.08-1.51.12-2.27-.18-.08-.37-.15-.55-.23-.67,2.67-1.42,5.32-2.01,8-2.98,13.69-9.25,25.75-18.21,36.42-9.29,11.07-16.58,23.45-23.75,35.92-.88,1.53-1.84,3.02-2.78,4.52-.17.26-.46.44-1.14,1.08.36-1.63.66-2.75.84-3.89Zm-8.42,17.77c1.47-2.36,2.22-4.79,4.96-5.59.47-.14.85-.68,1.2-1.1,4.63-5.55,9.93-10.31,15.94-14.35,3.64-2.45,7.03-5.27,10.54-7.92-8.95,11.54-18.97,22.01-32.64,28.95Zm95.56-98.45c5.48-8.82,11.41-17.39,16.45-26.46,6.35-11.43,9.83-23.93,10.92-36.97,1.01-12,1.74-24.02,2.26-36.05.44-10.23,1.88-20.27,5.17-29.96,6.75-19.88,7.92-40.22,5.4-60.89-1.17-9.58-4.59-18.4-9.52-26.66-.68-1.14-1.43-2.26-1.91-3.48-1.91-4.79-4.81-8.93-7.99-12.93-.39-.49-.76-.99-.75-1.92,1.48,1.08,3.06,2.04,4.42,3.25,9.71,8.53,17.68,18.54,24.59,29.41.58.9.88,2.01,1.16,3.07,1.52,5.89,3.21,11.74,4.41,17.7,2.42,12.02,5.03,24.04,6.69,36.18,1.67,12.13.39,24.25-2.36,36.21-2.03,8.83-4.02,17.68-5.7,26.58-2.1,11.14-6.36,21.32-12.23,30.97-5.69,9.35-11.02,18.91-16.61,28.31-5.27,8.88-11.19,17.23-19.17,23.97-3.35,2.83-6.42,5.98-9.62,8.98-.25-.16-.51-.33-.76-.5,1.71-2.94,3.35-5.93,5.15-8.82Zm72.3-96.68c-4.08,23.88-12.67,45.98-26.44,65.98-4.73,6.87-10.42,12.9-16.77,18.28-5.97,5.06-10.83,11.02-14.98,17.61-1.83,2.9-3.77,5.73-5.71,8.55-2.31,3.35-5.4,5.79-9.01,7.64-2.85,1.46-5.75,2.87-8.44,4.6-2.95,1.9-5.68,4.15-8.52,6.24-.67.5-1.38.95-2.07,1.42-.18-.16-.35-.32-.52-.48,3.38-4.73,6.38-9.82,10.25-14.11,5.54-6.14,11.45-12.02,17.69-17.45,8.49-7.38,14.84-16.35,20.63-25.79,5.72-9.33,11.04-18.91,16.69-28.28,6.38-10.57,10.05-22.08,12.41-34.1,1.7-8.68,3.67-17.3,5.35-25.98,2.73-14.14,2.89-28.31.27-42.51-2.07-11.2-4.27-22.37-7.53-33.29-.5-1.67-.95-3.35-.91-5.26.78,1.4,1.6,2.77,2.32,4.19,4.23,8.27,8.26,16.67,11.01,25.55,6.82,22.04,8.16,44.49,4.28,67.21Z"/>
    <path class="cls-1-n05tt first-color" d="m504.66,270.9c1.96,1.21,3.92,2.41,5.88,3.62.15-.33.48-.9.44-.92-1.92-1.28-3.84-2.58-6.32-2.7Z"/>
  </g>
</svg>