<svg id="Layer_1" data-name="Layer 1" xmlns="http://www.w3.org/2000/svg" viewBox="0 0 700 700">
  <defs>
    <style>
      .cls-1s-l09 {
        fill: #231f20;
      }
    </style>
  </defs>
  <path class="cls-1s-l09 second-color" d="m407.67,561.7c.4-.28.81-.56,1.21-.85,0-4.36.11-8.73-.1-13.07-.04-.76-1.44-2.09-2.22-2.1-15.33-.12-30.65-.11-45.98-.03-.78,0-2.22.84-2.24,1.32-.17,4.68-.1,9.37-.1,14.06.33.19.67.39,1,.58,2.7-10.3,8.38-16.19,19.56-14.09v55.78c-3.06.14-5.88.26-8.69.39.03.26.05.53.08.79h26.81v-1.04h-8.74v-56.34c10.99-1.22,17.13,3.99,19.42,14.61Z"/>
  <path class="cls-1s-l09 second-color" d="m242.46,649.33c-2.23.57-4.59.67-6.88,1.06-4.84.83-7.64,3.97-7.16,7.94.47,3.91,3.96,6.46,8.87,5.9,2.64-.3,5.17-1.45,7.02-2,1.87.94,3.37,1.69,4.67,2.34,0-6.31.23-11.64-.11-16.95-.14-2.13-.93-4.84-2.42-6.14-5.2-4.55-14.91-1.45-17.21,5.35,1.15.33,2.3.65,3.37.96,2.81-3.97,6.71-5.27,10.29-3.3.9.5,1.86,1.81,1.85,2.74,0,.73-1.35,1.86-2.29,2.1Zm3.09,4.86c-1.32,1.71-2.31,4.28-4.02,4.91-2.29.84-5.14.27-7.72.02-.41-.04-1.19-1.82-.92-2.31.52-.95,1.58-1.98,2.59-2.22,2.88-.69,5.85-1,8.78-1.46.43.35.86.7,1.29,1.06Z"/>
  <path class="cls-1s-l09 second-color" d="m299.46,603.73c.02.31.04.63.07.94h50.29v-17.84c-1.12,1.32-1.47,2.74-1.95,4.11-2.05,5.86-5.3,11.09-11.81,11.95-6.11.81-12.41.17-18.69.17v-29.58c4.15.7,8.76.26,11.62,2.29,2.92,2.07,4.11,6.57,6,9.88v-25.99c-5.56,12.54-7.79,14.02-17.52,12.34v-24.72c5.29,0,10.3-.19,15.3.05,5.06.24,8.7,2.91,10.81,7.56.81,1.8,1.6,3.6,2.4,5.4.34-.04.69-.09,1.03-.13,0-4.22.13-8.45-.13-12.66-.04-.7-1.83-1.84-2.82-1.85-14.08-.12-28.15-.09-42.23-.05-.71,0-1.42.41-2.13.62,1.47.89,2.84,1.07,4.15.86,3.95-.66,4.8,1.05,4.75,4.79-.2,15.72-.08,31.45-.09,47.17,0,1.34-.11,2.69-.18,4.2-3.15.17-6,.32-8.85.48Z"/>
  <path class="cls-1s-l09 second-color" d="m314.73,659.6c-3.5,1.79-6.99.53-9.88-3.43-1.07.33-2.19.68-3.32,1.03,1.96,6.27,8.09,8.83,14.53,6.28,3.11-1.23,4.89-3.47,5.02-6.82.14-3.43-2.02-5.23-4.97-6.18-2.72-.88-5.55-1.44-8.26-2.35-.75-.25-1.74-1.24-1.74-1.89,0-.69,1.08-2,1.62-1.97,2.58.17,5.15.62,7.7,1.14,1.38.28,2.69.9,4.58,1.55-1.26-6.04-6.21-8.48-12.03-6.99-3.36.86-5.7,2.66-5.89,6.39-.18,3.61,1.96,5.52,5.11,6.51,2.47.77,5.04,1.27,7.47,2.13.89.31,2.25,1.49,2.14,1.98-.22.99-1.14,2.13-2.08,2.61Z"/>
  <path class="cls-1s-l09 second-color" d="m358.47,659.83c3.62,5.49,10.21,5.85,18.63.92,1.35,1.04,2.75,2.11,4.71,3.61.9-1.05,1.71-2,2.43-2.85-1.77-1.64-3.26-3.02-4.58-4.25,1.02-2.72,1.86-4.96,2.81-7.47-1.58-.32-2.75-.56-4.02-.83-.55,1.29-1.07,2.5-1.84,4.27-2.09-2.61-3.9-4.86-5.73-7.13,5.94-4.48,7.3-7.82,4.96-11.4-2.14-3.28-7.37-4.44-10.96-2.12-1.39.9-3.23,2.6-3.21,3.9.05,3.03,1.1,6.04,1.82,9.36-6.38,4.54-8.18,9.18-5.02,13.98Zm10.73-25.67c1.59,2.18,3.52,3.71,3.3,4.82-.29,1.48-2.26,2.62-3.51,3.91-1.23-1.45-2.96-2.75-3.48-4.42-.24-.78,1.88-2.28,3.68-4.31Zm-7.47,20.16c.43-2.35,2.72-4.36,4.56-7,3.16,3.95,5.51,6.88,7.93,9.92-2.86,2.52-5.91,4.09-9.09,2.33-1.69-.94-3.68-3.7-3.4-5.24Z"/>
  <path class="cls-1s-l09 second-color" d="m414.36,603.71c.01.34.02.68.03,1.03h50.32v-18.07c-1.24,1.34-1.56,2.85-2.07,4.3-2.01,5.71-5.13,10.96-11.47,11.82-6.22.85-12.65.18-19.06.18v-29.5c4.18.71,8.79.28,11.65,2.31,2.92,2.08,4.13,6.57,6.14,10.09v-25.13c-2.1,3.53-3.37,7.91-6.28,9.91-2.91,2-7.46,1.61-11.49,2.3v-25.82c4.46,0,8.71.05,12.95-.01,6.81-.1,11.51,2.89,13.98,9.3.53,1.37,1.21,2.69,1.82,4.03.33-.11.65-.21.98-.32,0-3.85-.1-7.71.04-11.56.08-2.36-.91-3.03-3.13-3.02-14.08.06-28.16.02-42.24.06-.69,0-1.39.4-2.08.61.04.32.08.64.12.96h8.46v56.52h-8.67Z"/>
  <path class="cls-1s-l09 second-color" d="m287.72,664.06v-32.29h-3.47v32.29h3.47Z"/>
  <path class="cls-1s-l09 second-color" d="m227.31,603.81c.04.28.07.56.11.84h19.42c.02-.31.04-.62.06-.94-2.86-.14-5.71-.29-8.69-.44v-52.13c.14-.02.28-.04.42-.06,6.16,17.74,12.32,35.48,18.48,53.21.27-.02.53-.04.8-.06,6.22-18.01,12.44-36.03,18.96-54.88v54.42h-8.62c.02.29.04.57.06.86h26.6c.02-.31.03-.61.05-.92-2.87-.15-5.73-.31-8.56-.46-.18-.54-.4-.89-.4-1.23-.03-17.49-.03-34.97-.09-52.46,0-2.1,1.02-2.54,2.81-2.47,1.95.08,3.91.02,5.87.02-.02-.52-.04-1.03-.06-1.55-4.94,0-9.89.11-14.82-.05-2.38-.08-3.51.64-4.27,3.02-2.8,8.71-5.88,17.34-8.88,25.99-1.66,4.8-3.37,9.58-5.38,15.28-4.43-12.94-8.38-24.93-12.66-36.8-3.19-8.82-.63-7.3-10.19-7.44-2.89-.04-5.78-.04-8.67.03-.73.02-1.44.38-2.16.58.03.32.06.63.09.95h8.39v56.1c-3.1.21-5.88.39-8.65.57Z"/>
  <path class="cls-1s-l09 second-color" d="m191.65,664.01v-24.13c5.68,7.12,10.72,14.39,15.52,21.82,1.6,2.46,3.32,3.26,6.02,2.16v-32.21c-1.24-.06-2.28-.11-3.93-.2v25.77c-5.65-8.38-10.66-15.65-15.47-23.05-1.56-2.41-3.23-3.48-6.28-2.18,0,9.93.02,19.91-.01,29.89-.01,3.25,1.88,2.46,4.14,2.14Z"/>
  <path class="cls-1s-l09 second-color" d="m268.09,635.03c.84-2.87-.02-4.16-3.4-3.36q-.25,3.96,3.4,3.36Z"/>
  <path class="cls-1s-l09 second-color" d="m110.39,603.72c.05.3.1.6.15.9h19.4c.01-.31.03-.62.04-.94-2.87-.13-5.74-.26-8.67-.39v-51.91c11.85,18.85,23.24,36.98,34.63,55.1.56-.2,1.13-.41,1.69-.61v-4.27c0-16.85.08-33.71-.07-50.56-.03-3.16.91-4.32,4.04-3.97,1.52.17,3.1-.15,4.65-.24-.01-.28-.03-.56-.04-.85h-19.26c-.02.31-.04.62-.06.93,2.88.13,5.75.26,8.82.4v42.4c-1.04-1.5-1.61-2.24-2.1-3.04-7.87-12.7-15.79-25.36-23.54-38.13-1.36-2.23-2.89-3.12-5.45-3.01-4.01.17-8.04.02-12.06.08-.67.01-1.33.4-1.99.62.05.33.1.65.16.98h8.5v56.05c-3.05.16-5.94.3-8.82.45Z"/>
  <path class="cls-1s-l09 second-color" d="m268.42,661.35c-.15-6.01-.14-12.03,0-18.04.07-2.85-1.26-3.22-3.73-2.56v23.32c2.72.71,3.8-.01,3.74-2.72Z"/>
  <path class="cls-1s-l09 second-color" d="m482.63,599.48c-1.65,2.94-3.5,4.63-7.03,4.03-1.05-.18-2.19.17-3.29.28.04.29.08.57.12.86h17.34c.03-.31.06-.61.09-.92-2.42-.17-4.84-.33-7.69-.53,5.21-8.71,10.13-16.93,15.35-25.65,5.39,8.87,10.4,17.15,15.58,25.68-2.91.22-5.13.38-7.35.55.03.27.06.53.09.8h24.68c.01-.37.02-.74.03-1.11-1.42,0-2.92.28-4.24-.08-1.39-.38-3.12-1.05-3.81-2.16-6.02-9.55-11.79-19.27-17.78-28.84-1.19-1.9-1.05-3.28.08-5.05,2.89-4.56,5.83-9.1,8.34-13.87,2.25-4.27,4.68-7.66,10.23-6.4.34.08.76-.25,1.15-.39-.04-.22-.08-.43-.12-.65h-16.85c-.02.29-.04.59-.05.89,2.35.15,4.69.3,7.52.49-4.37,7.19-8.44,13.88-12.75,20.96-4.33-7.14-8.38-13.83-12.74-21.02,2.83-.16,5.02-.28,7.21-.4-.03-.29-.06-.58-.09-.87h-24.06c-.01.24-.02.47-.04.71.67.12,1.39.45,2.01.33,3.58-.67,5.38,1.22,7.05,4.11,4.32,7.5,8.88,14.86,13.48,22.2,1.14,1.82,1.24,3.18.07,5.06-4.31,6.93-8.55,13.9-12.55,21.02Z"/>
  <path class="cls-1s-l09 second-color" d="m225.1,603.85c-.89-.13-1.82-.49-2.66-.34-3.51.64-4.96-1.01-6.14-4.2-6.34-17.18-12.9-34.28-19.47-51.38-.53-1.37-1.75-2.48-2.64-3.71-.78,1.19-1.82,2.28-2.32,3.58-6.64,17.46-13.27,34.93-19.73,52.46-.97,2.63-2.32,3.53-4.95,3.25-1.16-.13-2.38.22-3.57.35.05.22.09.44.14.66h17.6c0-.3,0-.61-.01-.91h-8.75c2.84-7.58,5.43-14.59,8.13-21.57.2-.52,1.1-1.1,1.68-1.11,5.4-.09,10.81-.09,16.21-.01.6,0,1.54.49,1.73.98,2.75,7.05,5.41,14.14,8.15,21.39-3.36.17-6.15.31-8.94.45.03.35.06.71.1,1.06h25.36c.03-.32.05-.64.08-.96Zm-43.2-24.79c2.85-7.58,5.59-14.86,8.68-23.06,3.11,8.19,5.86,15.45,8.75,23.06h-17.43Z"/>
  <circle class="cls-1s-l09 first-color" cx="215.87" cy="273.03" r="11.6"/>
  <path class="cls-1s-l09 second-color" d="m586.26,561.13v-15.25h-20.44c4.7,1.39,9.55,1.74,12.8,4.19,3.34,2.52,5.08,7.17,7.64,11.06Z"/>
  <path class="cls-1s-l09 first-color" d="m254.22,173.29c13.86,0,20.79,12.5,20.79,21.57v157.94c0,9.07-6.93,19.85-20.79,19.85v10.59h78.49v-10.59c-14.64,0-21.96-10.78-21.96-19.87v-157.94c0-9.05,7.32-21.55,21.96-21.55v-9.46h-78.49v9.46Z"/>
  <circle class="cls-1s-l09 first-color" cx="485.14" cy="273.03" r="11.59" transform="translate(-67.56 206.44) rotate(-22.5)"/>
  <path class="cls-1s-l09 second-color" d="m565.65,545.83v.04h.16c-.05-.02-.11-.03-.16-.04Z"/>
  <path class="cls-1s-l09 first-color" d="m103.95,272.69l246.05,246.05,246.05-246.05L350,26.64l-246.05,246.05Zm246.05,215.9l-215.9-215.9L350,56.79l215.9,215.9-215.9,215.9Z"/>
  <polygon class="cls-1s-l09 first-color" points="352.34 297.8 370.98 269.37 352.34 239.59 332.87 269.37 352.34 297.8"/>
  <path class="cls-1s-l09 first-color" d="m389.18,194.86v157.94c0,9.07-6.93,19.85-20.79,19.85v10.59h78.49v-10.59c-14.64,0-21.96-10.78-21.96-19.87v-157.94c0-9.05,7.32-21.55,21.96-21.55v-9.46h-78.49v9.46c13.86,0,20.79,12.5,20.79,21.57Z"/>
  <path class="cls-1s-l09 second-color" d="m507.34,649.32c-2.79.63-5.69.79-8.46,1.48-3.96,1-6.07,3.92-5.72,7.41.34,3.43,3.08,6.13,7.11,5.99,3.16-.1,6.29-1.22,8.87-1.77,1.76.76,3.37,1.46,5.36,2.33-.31-3.62-.63-6.2-.74-8.79-.12-2.74.25-5.52-.14-8.21-.32-2.17-.87-4.86-2.34-6.21-5.03-4.6-14.83-1.61-17.22,4.93.26.47.52.94.77,1.41,1.32-.72,2.86-1.21,3.91-2.2,2.11-1.99,7.19-2.74,9.5-.9.73.58,1.4,1.87,1.27,2.71-.12.73-1.32,1.63-2.18,1.83Zm2.96,4.82c-1.2,1.67-2.07,4.18-3.68,4.8-2.3.89-5.15.52-7.74.38-.5-.03-1.48-1.64-1.28-2.15.39-1,1.33-2.25,2.26-2.49,3-.75,6.1-1.07,9.17-1.56.42.34.85.68,1.27,1.02Z"/>
  <path class="cls-1s-l09 second-color" d="m536.11,545.88v15.04c3.42-9.85,9.29-15.52,20.48-13.34v56.26h-8.81c.03.25.06.5.09.75h26.47c.01-.31.02-.61.03-.92-2.88-.13-5.76-.26-8.72-.39v-57.4h-29.54Z"/>
  <path class="cls-1s-l09 second-color" d="m464.75,642.21c-1.59-.74-2.89-1.34-4.55-2.11v33.26c1.39-.12,2.51-.21,3.94-.33v-11c6.71,3.19,11.19,2.46,14.29-2.09,3.46-5.08,2.9-13.67-1.14-17.6-3.76-3.65-7.75-3.56-12.53-.14Zm11.85,9.85c-.08,4.99-2.75,8.23-6.71,8.15-4.01-.09-6.47-3.35-6.32-8.41.13-4.65,2.82-7.95,6.51-8.02,3.91-.07,6.59,3.34,6.52,8.28Z"/>
  <path class="cls-1s-l09 second-color" d="m423.52,656.03c-1.08-2.79-2.38-2.7-4.49-1.98.69,8.42,8.18,12.93,17.31,10.64,5.29-1.33,8.36-4.64,8.5-9.18.14-4.59-2.29-7.57-7.74-9.23-3.26-1-6.66-1.59-9.86-2.75-3.55-1.29-4.18-4.69-1.57-7.09,3.35-3.08,11.07-1.96,13.56,1.77.81,1.21,2.35,1.93,3.56,2.87.31-.42.61-.84.92-1.26-.93-5.42-3.08-7.74-8.68-8.83-5.08-.99-9.95-.51-13.38,3.93-3.05,3.94-1.99,9.16,2.31,11.71,1.84,1.09,4.03,1.62,6.1,2.29,2.59.84,5.35,1.29,7.81,2.4,3.33,1.51,3.83,5.44,1.28,7.76-4.25,3.85-13.56,2.24-15.61-3.03Z"/>
</svg>