<svg id="Layer_1" data-name="Layer 1" xmlns="http://www.w3.org/2000/svg" viewBox="0 0 700 700">
  <defs>
    <style>
      .cls-1s-n04 {
        fill: #231f20;
      }
    </style>
  </defs>
  <polygon class="cls-1s-n04 second-color" points="307.63 312.28 322.41 312.28 322.41 205.67 320.27 205.67 320.27 306.65 269.71 205.67 254.93 205.67 254.93 312.28 257.06 312.28 257.06 211.3 307.63 312.28"/>
  <path class="cls-1s-n04 first-color" d="m278.81,95.36c86.18-27.34,168.59-24.62,245.14,25.05,77.66,50.39,119.92,123.16,122.53,215.82,2.72,96.63-37.32,174.03-117.12,228.53-79.68,54.43-166.57,57.81-256.71,26.73,119.64,59.53,235.48,24.51,313.8-64.09,96.35-109,92.12-273.15-9.71-376.33-78.13-79.17-205.01-108.05-297.93-55.7Z"/>
  <polygon class="cls-1s-n04 second-color" points="333.07 312.28 335.35 312.28 347.54 273.14 386.83 273.14 399.02 312.28 414.25 312.28 381.04 205.67 365.66 205.67 386.07 271.01 346.01 271.01 333.07 312.28"/>
  <path class="cls-1s-n04 first-color" d="m181.81,339.12c-1.72-8.4-2.81-14.77-4.34-21.03-12.7-51.74-25.54-103.45-38.23-155.2-13.66-55.72-16.16-57.16-72.21-44.76-17.1,3.78-24.45,13.3-22.81,30.9,2.37,25.56,3.72,51.22,5.78,76.81,3.53,43.79,7.28,87.57,11.04,132.54,10.94-1.23,19.91-2.23,30.38-3.41,2.87,13.98,5.7,27.75,8.64,42.05,8.99-.85,15.87-1.5,24.01-2.27,6.54,39.52,13.68,77.65,18.68,116.05,1.38,10.58-1.54,22.95-6.13,32.79-8.38,17.97-11.22,34.36-.42,52.4,6.12,10.22,9.63,22,15.16,35.09,16.37-4.23,25.74-17.74,31.13-34.47,6.89-21.37,1.26-40.03-13.9-56.38-5.58-6.02-13.16-12.49-14.5-19.75-7.76-41.86-13.92-84.02-20.7-126.56,8.25-2.49,14.97-4.51,23.23-7-1.75-13.81-3.44-27.23-5.23-41.35,5.7-1.38,10.06-2.54,14.46-3.48,4.44-.95,8.92-1.67,15.97-2.97Zm-29.68,201.16l-4.67,5.11s0,0,0,0c0,0-1.31,25.31,6.38,38.24,7.68,12.91.03,24.76,0,24.81-11.49-20.01-25.69-39.57-6.39-63.05h0s0,0,0,0c1.38-1.68,2.93-3.38,4.67-5.11Zm12.63-233.36l-32.83-133.07c10.86,43.38,21.47,87,32.83,133.07Zm-4.01,13.35c-1.82-.52-3.6-.85-5.03-.81,1.63-.09,3.32.25,5.03.81Zm-34.19-168.22l-3.14-12.73c.96,3.55,1.95,7.75,3.14,12.73Zm-7.4-24.12c-1.35-1.91-3.1-3.61-5.37-4.67,2.25.86,3.95,2.35,5.37,4.67Zm-13.46-5.6c-.62.03-1.27.07-1.94.12,1.22-.08,1.94-.12,1.94-.12Zm31.24,189.23l-36.3,6.05c12.07-2.01,24.08-4.01,36.3-6.05ZM53.04,151.23c-.87-10.26.73-17.29,8.15-21.17l20.27,190.74c.75-.12,1.5-.25,2.25-.38l-2.25.38h0c-4.72.79-9.46,1.58-14.25,2.37-2.03-22.98-4.03-44.34-5.77-65.73-2.87-35.4-5.4-70.83-8.41-106.21Zm54.22,235.72c-2.16-11.19-3.99-20.68-6.45-33.45,2.32-.35,4.58-.7,6.82-1.04h0,0l5.19,33.49c-1.83.33-3.68.67-5.55,1.01Zm-35.97-39.06c-1.4-1.6-2.79-3.19-4.19-4.79,3.97-4.11,7.4-10.98,11.99-11.86,1.37-.26,2.75-.51,4.12-.77l1.71,15.14,83.05-13.83-96.69,16.1Z"/>
  <polygon class="cls-1s-n04 second-color" points="253.41 390.57 284.94 390.57 284.94 495.06 300.17 495.06 300.17 390.57 331.7 390.57 331.7 388.44 253.41 388.44 253.41 390.57"/>
  <polygon class="cls-1s-n04 second-color" points="583.92 207.8 583.92 205.67 530.61 205.67 530.61 312.28 583.92 312.28 583.92 310.15 545.84 310.15 545.84 263.24 571.88 263.24 571.88 254.56 545.84 254.56 545.84 207.8 583.92 207.8"/>
  <polygon class="cls-1s-n04 second-color" points="395.67 390.57 395.67 388.44 342.36 388.44 342.36 495.06 395.67 495.06 395.67 492.92 357.59 492.92 357.59 446.01 383.63 446.01 383.63 437.33 357.59 437.33 357.59 390.57 395.67 390.57"/>
  <polygon class="cls-1s-n04 second-color" points="405.11 388.44 434.66 447.53 404.8 495.06 407.39 495.06 435.72 449.82 458.42 495.06 473.8 495.06 444.25 435.96 474.1 388.44 471.52 388.44 443.19 433.67 420.49 388.44 405.11 388.44"/>
  <polygon class="cls-1s-n04 second-color" points="483.24 390.57 514.77 390.57 514.77 495.06 530 495.06 530 390.57 561.53 390.57 561.53 388.44 483.24 388.44 483.24 390.57"/>
  <polygon class="cls-1s-n04 second-color" points="471.67 290.65 439.83 205.67 424.91 205.67 424.91 312.28 427.04 312.28 427.04 212.67 464.36 312.28 465.88 312.28 503.2 212.67 503.2 312.28 518.43 312.28 518.43 205.67 503.5 205.67 471.67 290.65"/>
</svg>