<svg id="Layer_1" data-name="Layer 1" xmlns="http://www.w3.org/2000/svg" viewBox="0 0 700 700">
  <defs>
    <style>
      .cls-1s-f02 {
        fill: #231f20;
      }
    </style>
  </defs>
  <path class="cls-1s-f02 second-color" d="m391.2,559.58c-.26.76-.8,1.14-1.6,1.14-1,0-1.69-.59-2.07-1.78-.38-1.19-.57-3.02-.57-5.49v-18.17c0-.67.33-1,1-1h3.14v-.85h-4.13v-5.56h-4.85v1.35c0,1.52-.21,2.6-.64,3.24-.43.64-1.07.96-1.92.96v.85h1.57c.66,0,1,.33,1,1v18.17c0,2.61.55,4.75,1.64,6.41,1.09,1.66,2.83,2.49,5.2,2.49,1.38,0,2.6-.29,3.67-.85,1.07-.57,1.86-1.26,2.39-2.07l-3.14-2.85c-.19,1.24-.42,2.23-.68,2.99Z"/>
  <polygon class="cls-1s-f02 second-color" points="450.53 533.43 449.67 533.43 440.41 545.61 432.85 533.43 428 533.43 437.77 549.11 428.08 561.93 428.93 561.93 438.2 549.75 445.75 561.93 450.6 562 440.76 546.18 450.53 533.43"/>
  <path class="cls-1s-f02 second-color" d="m418.46,534.89c-2.09-1.31-4.37-1.96-6.84-1.96s-4.82.67-6.91,2c-2.09,1.33-3.74,3.11-4.95,5.35-1.21,2.23-1.82,4.68-1.82,7.34s.62,5.12,1.85,7.38c1.24,2.26,2.95,4.04,5.13,5.34,2.18,1.31,4.63,1.96,7.34,1.96s5-.74,7.16-2.21c2.16-1.47,3.72-3.42,4.67-5.84l-1.28-.71c-.76,2.14-2.03,3.86-3.81,5.17-1.78,1.31-3.69,1.96-5.74,1.96-3.14,0-5.64-1.14-7.52-3.42-1.88-2.28-2.89-5.25-3.03-8.91h22.59v-.85c0-2.61-.62-5.04-1.85-7.27-1.24-2.23-2.9-4-4.99-5.31Zm-15.75,12.58c0-2.47.4-4.75,1.21-6.84.81-2.09,1.89-3.75,3.24-4.99,1.35-1.23,2.84-1.85,4.45-1.85s3.1.62,4.45,1.85c1.35,1.24,2.42,2.91,3.21,5.02.78,2.11,1.18,4.38,1.18,6.81h-17.75Z"/>
  <path class="cls-1s-f02 second-color" d="m368.59,534.16c-2.14-1.33-4.47-2-6.99-2s-4.93.68-7.06,2.04c-2.14,1.36-3.82,3.18-5.06,5.46-1.24,2.28-1.86,4.78-1.86,7.5s.63,5.23,1.89,7.54c1.26,2.31,3.01,4.13,5.24,5.46,2.23,1.34,4.73,2,7.5,2s5.11-.75,7.32-2.26c2.21-1.5,3.8-3.49,4.77-5.97l-1.31-.73c-.78,2.18-2.07,3.94-3.89,5.28-1.82,1.34-3.77,2-5.86,2-3.2,0-5.76-1.16-7.68-3.49-1.92-2.33-2.95-5.36-3.09-9.1h23.08v-.87c0-2.67-.63-5.14-1.89-7.43-1.26-2.28-2.96-4.09-5.1-5.42Zm-16.09,12.85c0-2.52.41-4.85,1.24-6.99.82-2.14,1.93-3.83,3.31-5.1,1.38-1.26,2.9-1.89,4.55-1.89s3.17.63,4.55,1.89c1.38,1.26,2.48,2.97,3.28,5.13.8,2.16,1.2,4.48,1.2,6.95h-18.13Z"/>
  <path class="cls-1s-f02 second-color" d="m255.24,556.18c0,.97-.24,1.46-.73,1.46s-.95-.41-1.38-1.24l-18.27-32.83h-4.95v38.22h.87v-32.61c0-.97.24-1.46.73-1.46.44,0,.9.41,1.38,1.24l18.2,32.83h5.02v-38.22h-.87v32.61Z"/>
  <path class="cls-1s-f02 first-color" d="m368.08,30.83h-36.16c-85.66,0-155.35,69.69-155.35,155.35v327.64c0,85.66,69.69,155.35,155.35,155.35h36.16c85.66,0,155.35-69.69,155.35-155.35V186.18c0-85.66-69.69-155.35-155.35-155.35Zm139.84,482.99c0,77.11-62.73,139.83-139.84,139.83h-36.16c-77.11,0-139.83-62.73-139.83-139.83V186.18c0-77.11,62.73-139.83,139.83-139.83h36.16c77.11,0,139.84,62.73,139.84,139.83v327.64Z"/>
  <path class="cls-1s-f02 second-color" d="m466.24,559.58c-.26.76-.8,1.14-1.6,1.14-1,0-1.69-.59-2.07-1.78-.38-1.19-.57-3.02-.57-5.49v-18.17c0-.67.33-1,1-1h3.14v-.85h-4.13v-5.56h-4.85v1.35c0,1.52-.21,2.6-.64,3.24-.43.64-1.07.96-1.92.96v.85h1.57c.66,0,1,.33,1,1v18.17c0,2.61.55,4.75,1.64,6.41,1.09,1.66,2.83,2.49,5.2,2.49,1.38,0,2.6-.29,3.67-.85,1.07-.57,1.86-1.26,2.39-2.07l-3.14-2.85c-.19,1.24-.42,2.23-.68,2.99Z"/>
  <path class="cls-1s-f02 first-color" d="m462.07,191.08c-6.55,2.33-15.24,17.24-20.71,31.32,1.01-15.42.47-31.44-2.35-48.48l.04-.25c.76-5.29,1.9-16.28-.88-20.98,7.3-8.45,7.19-15.42,4.77-18.89-1.71-2.45-4.5-3.33-7.14-2.25-.25.1-.58.26-.95.49-.43-.5-.98-.92-1.68-1.21-4.41-1.89-14.75,1.42-17.53,5.64-.48.74-.72,1.51-.74,2.26-1.69.79-2.88,2.29-3.22,4.24-.36,2.04-.32,9.1,14.39,15.42.06,3.3,1.85,8.16,8.3,14.81,7.17,41.41.45,76.84-9.1,112.55.27-5.99-.07-18.65-1.09-30.69-2.69-31.65-7.58-34.98-9.19-36.07-1.87-1.28-4.07-1.15-6.03.34-12.44,9.43,7.62,59.85,11.77,69.86l2.17,5.23c-1.31,4.73-2.65,9.47-4.01,14.24-2.91,10.26-5.92,20.87-8.7,31.72-3.24,12.65-4.23,27.53-3.78,43.12-9.85-29.1-16.69-43.62-20.34-43.12-2.14.29-2.31,3.31-2.39,4.6-1.03,17.72,19.57,39.11,20.45,40.01l2.43,2.5c0,.15.02.31.02.46l-3.54-3.11c-37.1-32.68-58.28-47.43-62.98-43.81-2.74,2.11-.57,6.46.36,8.31,12.77,25.49,58.59,38.77,60.54,39.32l5.73,1.63c2.62,48.55,17.77,101.61,21.55,114.02h-116.56v-226.91h69.73v-7.36h-69.73v-66.29h-21.58v66.29h-38.62v-132.38h148.56v-7.35h-170.14v307.91h21.58v-160.82h38.62v234.27h179.94v-7.35h-37.14c-1.72-5.65-9.37-31.73-15.19-63.18l.29-.1c25.35-8.78,35.05-37.67,35.45-38.89l1.04-3.2-3.35.28c-9.77.83-19.33,9.44-26.01,17.12,15.18-32.39,37.96-82.33,36.47-87.51-.27-.96-1.01-1.68-1.95-1.91-1.26-.3-3.04-.17-8.26,5.29-12.52,13.1-34.69,45.57-38.69,75.38-2.61-23.75-2.94-47.59,1.8-66.11,1.52-5.93,3.11-11.8,4.72-17.58l3.04-2.11c25.51-17.72,37.44-29.1,35.47-33.84-1.36-3.28-6.34-2.36-8.21-2.02-12.68,2.32-20.44,11.14-24.99,19.17,5.34-18.86,10.41-37.36,13.67-56.4l1.93-1.99c3.78-3.91,36.68-38.59,28.99-52.68-1.58-2.9-4.17-3.97-7.04-2.94Zm-50.86,32.2c.43,3.96,2.76,25.02,5.91,43.33-6.27-19.14-10.43-38.6-5.91-43.33Zm2.23.41c4.53,6.36,6.83,34,7.37,50.93-3.71-18.65-6.71-44.99-7.37-50.93Zm-26.99,123.95c2.11,6.9,7.19,17.39,11.1,25.02-5.05-6.99-10.56-16.45-11.1-25.02Zm1.59-2.2c2.57,4.26,6.58,13.79,10.62,24.6-4.64-9.2-9.23-19.21-10.62-24.6Zm-42.57,3.84c9.45,8.94,27.44,20.97,40.1,29.05-13.72-5.79-32.18-15.63-40.1-29.05Zm-.89-3.96c6.58,2.81,23.46,15.67,41.12,30.49-13.8-8.84-33.21-21.95-41.12-30.49Zm72.36,77.97s0,0,0,0h0s0,0,0,0Zm30.82-18.84c-3.23,7.41-11.97,23.95-28.03,31.11l.02-.38,27.62-30.6c.13-.04.25-.09.38-.14Zm-5.55,2.62l-22.23,24.62.08-1.27c1.79-2.73,11.31-16.75,22.15-23.35Zm13.34-70.9c-5.39,15.05-22.27,52.3-35.89,81.36,4.26-14.81,16.64-53.78,35.89-81.36Zm-6.18,5.43c-18.51,29.67-29.84,68.11-32.74,78.66-2.05-28.06,19.35-61.94,32.74-78.66Zm.02-51.08c-6.61,4.05-15.4,12.07-21.61,18.09,3.89-7.3,10.62-15.7,21.61-18.09Zm-24.19,23.68c7.52-7.55,20.27-19.52,27.44-23.07-3.33,4.57-15.23,14.3-27.47,23.15.01-.03.02-.06.03-.08Zm6.51-179.93c.28.11.43.19.37.66-1.64,2.65-2.92,7.22-1.98,15.06-2.95-7.76-7.46-11.13-11.11-11.76,2.17-2.61,10.01-5.12,12.72-3.96Zm-4.99,20.36c-9.7-4.37-11.73-8.94-11.38-11.01.13-.73.55-1.26,1.2-1.54l.44.42.62-.65s.08,0,.11,0c.1,0,.21,0,.31,0,2.78.2,6.87,3.39,9.35,11.67l-.66,1.11Zm9.11,14.7c-4.95-5.46-7.04-10.24-5.62-13.01.65-1.26,1.94-1.92,3.13-2.09l1.13-.03c.08,0,.15.01.23.03.96.17,2.06,5.48,1.12,15.1Zm-.62-18.87l-.69.02c-.2-.01-.4-.02-.6-.01-.96-6.98-.05-11.14,1.24-13.39l.26.06.17-.72c.54-.74,1.11-1.19,1.63-1.4.27-.11.55-.17.82-.17.04,0,.09,0,.14,0h0c.65.05,1.26.44,1.72,1.1,1.73,2.48.98,8.05-4.68,14.52Zm5.65,88.95s0,0,0,0h0s0,0,0,0Zm24.77-42.18c2.24,7.81-10.36,25.71-22.08,39.15,6.12-12.39,18.15-35.8,22.08-39.15Zm-.42-1.07l-.49-.69c.15.15.31.36.49.69Zm-23.47,38.98c3.73-14.74,15.42-37.56,21.83-39.84.18-.07.36-.13.54-.13.14,0,.28.05.43.15-4.5,3.33-17.7,29.49-22.8,39.82Z"/>
  <path class="cls-1s-f02 second-color" d="m331.47,532.16c-4.71,0-7.93,2.69-9.68,8.08-.19.39-.36.58-.51.58-.29,0-.49-.39-.58-1.16v.22c-.83-5.14-3.76-7.72-8.81-7.72-4.71,0-7.93,2.69-9.68,8.08-.19.39-.36.58-.51.58-.24-.05-.36-.36-.36-.95v-7.21h-4.88v29.12h4.88v-10.7c0-3.69.42-6.79,1.27-9.32.85-2.52,1.98-4.42,3.39-5.68,1.41-1.26,2.91-1.89,4.51-1.89,2.13,0,3.6.76,4.4,2.29.8,1.53,1.2,3.94,1.2,7.24v18.05h4.88v-13.18c.19-3.15.73-5.81,1.6-7.97.87-2.16,1.97-3.77,3.28-4.84,1.31-1.07,2.72-1.6,4.22-1.6,2.14,0,3.6.76,4.4,2.29.8,1.53,1.2,3.94,1.2,7.24v18.05h4.88v-18.27c-.05-3.74-.79-6.56-2.22-8.48-1.43-1.92-3.73-2.88-6.88-2.88Z"/>
  <path class="cls-1s-f02 second-color" d="m287.35,560.18c-.44,0-.72-.19-.84-.58-.12-.39-.18-.99-.18-1.82v-17.69c-.05-2.43-1.04-4.36-2.98-5.79-1.94-1.43-4.49-2.15-7.64-2.15-4.9,0-8.42,1.51-10.56,4.51l2.69,2.84c.68-1.31,1.27-2.35,1.78-3.13.51-.78,1.27-1.52,2.29-2.22,1.02-.7,2.26-1.06,3.71-1.06,1.94,0,3.39.72,4.33,2.15.95,1.43,1.42,3.07,1.42,4.91v2.11c-.73,1.31-1.78,2.31-3.17,2.99-1.38.68-3.29,1.38-5.71,2.11-2.04.63-3.64,1.21-4.8,1.75-1.16.53-2.15,1.29-2.95,2.26-.8.97-1.2,2.21-1.2,3.71,0,2.09.92,3.8,2.77,5.13,1.84,1.34,4.15,2,6.92,2,1.41,0,2.69-.29,3.86-.87,1.16-.58,2.18-1.41,3.06-2.48.15-.1.33-.28.55-.55.22-.27.38-.4.47-.4s.17.07.22.22c0,2.72,1.26,4.08,3.79,4.08,1.75,0,3.01-.78,3.79-2.33l-.73-.36c-.19.44-.49.65-.87.65Zm-5.97-5.24c-.49,1.75-1.38,3.16-2.69,4.22-1.31,1.07-2.89,1.6-4.73,1.6-1.6,0-2.94-.46-4-1.38-1.07-.92-1.6-2.16-1.6-3.71,0-1.46.32-2.67.95-3.64.63-.97,1.41-1.73,2.33-2.29.92-.56,2.16-1.2,3.71-1.93,1.55-.73,2.8-1.38,3.75-1.97.95-.58,1.71-1.31,2.29-2.18v11.28Z"/>
</svg>