<svg id="Layer_1" data-name="Layer 1" xmlns="http://www.w3.org/2000/svg" viewBox="0 0 700 700">
  <defs>
    <style>
      .cls-1s-a08 {
        fill: #231f20;
      }
    </style>
  </defs>
  <path class="cls-1s-a08 second-color" d="m380.67,616.29c.85,0,1.81.07,2.88.22,1.06.15,2.14.57,3.23,1.25,1.09.68,2.13,1.76,3.13,3.23,1,1.47,1.86,3.51,2.59,6.1h.7v-11.7h-38.86v11.7h.7c.72-2.6,1.59-4.63,2.59-6.1,1-1.47,2.05-2.55,3.13-3.23,1.09-.68,2.16-1.1,3.23-1.25,1.06-.15,2.02-.22,2.88-.22h3.71v43.72h-7.09v.9h20.58v-.9h-7.09v-43.72h3.71Z"/>
  <polygon class="cls-1s-a08 second-color" points="442.41 660 442.41 660.9 455.77 660.9 455.77 660 449.63 660 461.84 639.55 474.3 660 468.17 660 468.17 660.9 487.34 660.9 487.34 660 482.03 660 466.12 633.99 476.79 616.29 482.93 616.29 482.93 615.39 469.64 615.39 469.64 616.29 475.77 616.29 465.54 633.1 455.32 616.29 461.45 616.29 461.45 615.39 442.41 615.39 442.41 616.29 447.71 616.29 461.33 638.66 448.54 660 442.41 660"/>
  <path class="cls-1s-a08 second-color" d="m397.54,660v.9h38.99v-14h-.7c-.13.98-.43,2.22-.89,3.71-.47,1.49-1.19,2.93-2.17,4.31-.98,1.38-2.25,2.58-3.8,3.58-1.56,1-3.51,1.5-5.85,1.5h-12.08v-23.07h5.18c1.53,0,2.78.27,3.74.8.96.53,1.73,1.25,2.3,2.14.58.89,1.02,1.92,1.34,3.07.32,1.15.63,2.34.93,3.58h.7v-19.88h-.7c-.47,1.92-.95,3.48-1.44,4.7-.49,1.21-1.09,2.17-1.79,2.88-.7.7-1.54,1.18-2.52,1.44-.98.26-2.17.38-3.58.38h-4.15v-19.75h10.61c1.75,0,3.24.21,4.47.64,1.24.43,2.3,1.08,3.2,1.95.89.87,1.66,1.94,2.3,3.2.64,1.26,1.24,2.72,1.79,4.38h.7v-11.06h-36.56v.9h7.09v43.72h-7.09Z"/>
  <path class="cls-1s-a08 second-color" d="m517.89,616.29c.85,0,1.81.07,2.88.22,1.06.15,2.14.57,3.23,1.25,1.09.68,2.13,1.76,3.13,3.23,1,1.47,1.86,3.51,2.59,6.1h.7v-11.7h-38.86v11.7h.7c.72-2.6,1.59-4.63,2.59-6.1,1-1.47,2.05-2.55,3.13-3.23,1.09-.68,2.16-1.1,3.23-1.25,1.06-.15,2.02-.22,2.88-.22h3.71v43.72h-7.09v.9h20.58v-.9h-7.09v-43.72h3.71Z"/>
  <path class="cls-1s-a08 first-color" d="m370.43,246.15s0,0,0,0c0,0,0,0,0,.01,0,0,0,0,0,0Z"/>
  <path class="cls-1s-a08 second-color" d="m231.69,660.9h19.69v-.9h-5.69l-17.38-45.76h-1.53l-17.26,45.76h-5.62v.9h13.74v-.9h-7.09l6.71-17.77h14.83l6.71,17.77h-7.09v.9Zm-14.06-19.56l7.03-18.6,7.03,18.6h-14.06Z"/>
  <polygon class="cls-1s-a08 second-color" points="162.66 660 162.66 660.9 177.81 660.9 177.81 660 170.72 660 170.72 618.91 170.84 618.91 197.75 661.79 199.03 661.79 199.03 616.29 206.12 616.29 206.12 615.39 190.98 615.39 190.98 616.29 198.07 616.29 198.07 650.22 197.94 650.22 176.34 615.39 162.66 615.39 162.66 616.29 169.76 616.29 169.76 660 162.66 660"/>
  <polygon class="cls-1s-a08 second-color" points="252.97 660 252.97 660.9 268.12 660.9 268.12 660 261.02 660 261.02 617.12 261.15 617.12 276.36 660.96 291.64 616.67 291.77 616.67 291.77 660 284.67 660 284.67 660.9 305.25 660.9 305.25 660 298.16 660 298.16 616.29 305.25 616.29 305.25 615.39 291.13 615.39 279.3 649.78 279.18 649.78 267.35 615.39 252.97 615.39 252.97 616.29 260.07 616.29 260.07 660 252.97 660"/>
  <path class="cls-1s-a08 second-color" d="m308.83,660v.9h38.99v-14h-.7c-.13.98-.43,2.22-.89,3.71-.47,1.49-1.19,2.93-2.17,4.31-.98,1.38-2.25,2.58-3.8,3.58-1.56,1-3.51,1.5-5.85,1.5h-12.08v-23.07h5.18c1.53,0,2.78.27,3.74.8.96.53,1.73,1.25,2.3,2.14.58.89,1.02,1.92,1.34,3.07.32,1.15.63,2.34.93,3.58h.7v-19.88h-.7c-.47,1.92-.95,3.48-1.44,4.7-.49,1.21-1.09,2.17-1.79,2.88-.7.7-1.54,1.18-2.52,1.44-.98.26-2.17.38-3.58.38h-4.15v-19.75h10.61c1.75,0,3.24.21,4.47.64,1.24.43,2.3,1.08,3.2,1.95.89.87,1.66,1.94,2.3,3.2.64,1.26,1.24,2.72,1.79,4.38h.7v-11.06h-36.56v.9h7.09v43.72h-7.09Z"/>
  <path class="cls-1s-a08 first-color" d="m615.2,436.5s-.05,0-.07,0c0,0,0,0,0,0-.04,0-.09,0-.13,0,0,0,0,0,0,0-.02,0-.04,0-.06,0-15.18,3.83-30.67,9.46-42.7,19.92.05-.04.1-.08.16-.12-8.78,7.18-16.06,15.83-23.96,23.92.06-.06.13-.13.19-.19-16.31,16.45-33.11,47.64-44.78,52.83-8.34,5.33-16.78,7.53-25.15,10.02,16.59-14.82,30.62-32.47,41.32-52.17,5.05-7.04,9.82-14.32,13.75-21.97-.02.05-.04.1-.06.15,1.9-3.94,4.07-7.82,6.52-11.45,7.01-7.66,14.48-14.93,23.51-20.26,9.28-5.68,16.08-14.6,22.47-23.25,13.05-17.31,11.46-39.77,10.58-60.22.18-14.99.3-30.02-.41-44.96.02-.27.13-.63-.17-.76-.36-.07-.42.33-.55.58,0,0,0,0,0,0-.01.02-.02.04-.03.07,0,0,0-.02.01-.03-.06.12-.13.25-.19.38.01-.02.02-.04.04-.07-1.97,3.82-2.51,8.22-4.18,12.18-2.03,4.21-5.06,7.82-7.32,11.9-7.05,12.32-13,25.41-15.44,39.48,0-.01,0-.03,0-.04-.02.11-.03.22-.05.34,0-.03,0-.05.01-.08-1.06,11.5.52,23.05-.04,34.57-.27,2.85-.65,6-2.01,8.66,0,0,0-.01,0-.02-1.67,3.27-4.32,5.86-6.24,8.96-1.91,3.77-2.46,8.09-4.81,11.66-4.01,6.27-9.76,11.06-14.53,16.69,17.68-38.13,28.81-80.54,25.15-122.74,0-.07-.02-.14-.03-.21,0,.04.01.08.02.13-.16-4.26.2-8.54.83-12.76.18-1.28.38-2.55.58-3.82,2.96-20.66-1.86-49.08-20.26-61.4.01,0,.02.02.04.03-1.27-1-2.48-2.08-3.73-3.1.05.04.09.07.14.11-.11-.1-.23-.18-.34-.28v-17.87c0-106.47-86.62-193.09-193.09-193.09-46.8,0-89.77,16.74-123.23,44.55-14.83,4.15-30.44,1.36-45.43,4.42-10.92,2.41-19.37,10.24-26.81,18.14-13.77,10.61-21.68,26.06-29.82,41.01-7.78,16.12-19.22,29.74-32.74,41.34-2.28,1.8-4.49,3.82-7.09,5.06-.08.02-.16.05-.24.06h0c-.32,0-.36.52-.04.56.02,0,.05,0,.07,0,0,0,0,0,0,0,.04,0,.09,0,.13,0,0,0,0,0,0,0,.02,0,.04,0,.06,0,15.18-3.83,30.67-9.46,42.7-19.92-.05.04-.1.08-.16.12,8.78-7.18,16.06-15.83,23.96-23.92-.06.06-.13.13-.19.19,16.31-16.45,33.11-47.64,44.78-52.83,8.73-5.58,17.57-7.73,26.32-10.37-15.84,14-29.37,30.56-39.94,49.02-5.99,8.13-11.71,16.55-16.3,25.47.02-.05.04-.1.06-.15-1.9,3.94-4.07,7.82-6.52,11.45-7.01,7.66-14.48,14.93-23.51,20.26-9.28,5.68-16.08,14.6-22.47,23.25-13.05,17.31-11.46,39.77-10.58,60.22-.18,14.99-.3,30.02.41,44.96-.02.27-.13.63.17.76.36.07.42-.33.55-.58,0,0,0,0,0,0,.01-.02.02-.04.03-.07,0,0,0,.02-.01.03.06-.12.13-.25.19-.38-.01.02-.02.04-.04.07,1.97-3.82,2.51-8.22,4.18-12.18,2.03-4.21,5.06-7.82,7.32-11.9,7.05-12.32,13-25.41,15.44-39.48,0,.01,0,.03,0,.04.01-.11.03-.22.05-.34,0,.03,0,.05-.01.08,1.06-11.5-.52-23.05.04-34.57.27-2.85.65-6,2.01-8.66,0,0,0,.01,0,.02,1.67-3.27,4.32-5.86,6.24-8.96,1.91-3.77,2.46-8.09,4.81-11.66,4.01-6.27,9.76-11.06,14.53-16.69-17.68,38.13-28.81,80.54-25.15,122.74,0,.07.02.14.03.21,0-.04-.01-.08-.02-.13.16,4.27-.2,8.54-.83,12.76-.18,1.28-.38,2.55-.58,3.82-2.96,20.66,1.85,49.08,20.26,61.4-.01-.01-.02-.02-.04-.03,1.27,1,2.48,2.08,3.73,3.1-.05-.04-.09-.07-.14-.11.24.21.5.41.75.61v17.87c0,106.47,86.62,193.09,193.09,193.09,47.16,0,90.43-17,124-45.19,14.48-3.69,29.66-1.13,44.26-4.11,10.92-2.41,19.37-10.24,26.81-18.14,13.77-10.61,21.68-26.06,29.82-41.01,7.78-16.12,19.22-29.74,32.74-41.34,2.28-1.8,4.49-3.82,7.09-5.06.08-.02.16-.05.24-.06,0,0,0,0,0,0,.32,0,.36-.52.04-.56Zm-44.46-58.35c.63-19.96,11.26-37.63,21.5-54.07-6.45,28.06-12.54,56.34-20.87,83.91-.11-9.95-.73-19.9-.63-29.85Zm-10.42,56.77c12.97-18.39,18.14-40.4,22.71-62.09,3.38-16.46,8.46-32.5,11.11-49.11.11,4.5-.23,9.03.21,13.51.03.26.06.52.09.78-.74,21.75,4.06,44.54-4.79,65.18-5.23,10.71-13.21,20.31-22.22,27.98-.41.26-.83.52-1.25.78.03-.02.05-.03.08-.05-2.16,1.19-4.25,2.46-6.42,3.62.16-.2.33-.39.48-.59ZM129.26,251.69c-.63,19.96-11.26,37.63-21.5,54.07,6.45-28.06,12.54-56.34,20.87-83.91.11,9.95.73,19.9.63,29.85Zm10.42-56.77c-12.97,18.39-18.14,40.4-22.71,62.09-3.38,16.46-8.46,32.5-11.11,49.11-.11-4.5.23-9.03-.21-13.51-.03-.26-.06-.52-.09-.78.74-21.75-4.06-44.54,4.79-65.18,5.23-10.71,13.21-20.31,22.22-27.98.41-.26.83-.52,1.25-.78-.03.02-.05.04-.08.05,2.16-1.19,4.25-2.46,6.42-3.62-.16.2-.33.39-.48.59Zm374.8,171.62c.47-2.37,1.02-4.73,1.75-7.02-1.69,27.89,6.88,54.91,7.8,82.63-.13-.35-.26-.71-.42-1.04-4.28-8.25-12.33-13.94-15.04-23.25-2.01-5.5-.98-11.23-.26-16.85.57-11.73,3.25-23.14,6.18-34.45,0-.02,0-.03.01-.05,0,.02,0,.03,0,.05,0,0,0,0,0,0Zm.07-.37s0,0,0-.01c0-.02,0-.04.01-.07,0,.03-.01.05-.02.08Zm11.34,52.1s0-.08.02-.13c-.22,1.54-.5,3.07-.71,4.61,0-.02,0-.04,0-.06,0,.02,0,.03,0,.05-.36-2.21-.7-4.41-1.05-6.62-1.67-10.2-3.76-20.34-4.84-30.62.01.1.02.2.04.29-.99-7.52-1.57-15.06-1.34-22.64.74,2.82,2.21,5.4,3.34,8.07,0-.02-.02-.05-.03-.07.02.05.04.11.07.16,4.49,8.86,5.9,18.55,4.67,28.37.13,6.12,1.19,12.26-.12,18.35-.01.08-.02.16-.03.24Zm17.41-162.07c3.9,6.47,7.46,13.22,9.15,20.64,2.39,11.75-.16,24.23,5.77,35.2.07.17.15.35.22.52,0,0,0-.01,0-.02,6.74,19.02,6.32,39.08,3.71,58.85-5.36-13.68-12.16-26.88-13.7-41.75-.51-7.8-2.38-14.96-5.15-21.77v-51.67Zm9.84,106.78s.03.02.04.04c-.03-.03-.06-.05-.1-.08-.08-.06-.15-.12-.23-.18.1.08.19.15.29.23,0,0,0,0,0,0Zm-9.84-5.48c2.62,2.95,5.38,5.76,8.6,8.15,2.42,2.21,4.38,4.86,6.49,7.35-.07-.1-.14-.19-.22-.29.34.44.69.88,1.03,1.33-.03-.04-.06-.08-.09-.12.07.1.14.19.22.29-.04-.05-.08-.1-.12-.15,5.19,5.95-2.19,25.27-3.82,33.01-6.35,21.04-14.3,41.73-24.9,60.99,8.27-21.49,12.81-44.81,12.81-69.18v-41.37Zm-357.76-94.22c-.47,2.37-1.02,4.73-1.75,7.02,1.69-27.89-6.88-54.91-7.8-82.63.13.35.26.71.42,1.04,4.28,8.25,12.33,13.94,15.04,23.25,2.01,5.5.98,11.23.26,16.85-.57,11.73-3.25,23.14-6.18,34.45,0,.02,0,.03-.01.05,0-.02,0-.03,0-.05,0,0,0,0,0,0Zm-.07.37s0,0,0,.01c0,.02,0,.04-.01.07,0-.03.01-.05.02-.08Zm-11.34-52.1s0,.08-.02.13c.22-1.54.5-3.07.71-4.61,0,.02,0,.04,0,.06,0-.02,0-.03,0-.05.36,2.21.7,4.41,1.05,6.62,1.67,10.2,3.76,20.34,4.84,30.62-.01-.1-.02-.2-.04-.29.99,7.52,1.57,15.06,1.34,22.64-.74-2.82-2.21-5.4-3.34-8.07,0,.02.02.05.03.07-.02-.05-.04-.11-.07-.16-4.49-8.86-5.9-18.55-4.67-28.37-.13-6.13-1.19-12.26.12-18.35.01-.08.02-.16.03-.24Zm-17,162.75c-4.06-6.68-7.81-13.64-9.56-21.32-2.39-11.75.16-24.22-5.77-35.2-.07-.17-.15-.35-.22-.52,0,0,0,.01,0,.02-6.74-19.02-6.32-39.08-3.71-58.85,5.36,13.68,12.16,26.88,13.7,41.75.53,8.17,2.56,15.65,5.56,22.76v51.36Zm-10.25-107.46s-.03-.02-.04-.03c.03.03.06.05.1.08.08.06.15.12.23.18-.1-.08-.19-.15-.29-.23,0,0,0,0,0,0Zm10.25,5.94c-2.74-3.12-5.62-6.1-9.01-8.61-2.42-2.21-4.38-4.86-6.49-7.35.07.1.14.19.22.29-.34-.44-.69-.88-1.03-1.33.03.04.06.08.09.12-.07-.1-.14-.19-.22-.29.04.05.08.1.12.15-5.19-5.95,2.19-25.27,3.82-33.01,6.71-22.23,15.21-44.07,26.73-64.25-9.18,22.47-14.23,47.04-14.23,72.77v41.5Zm299.43,278.27c-4.7,3.73-9.23,7.16-13.1,10.08-27.47,15.84-59.31,24.92-93.24,24.92h0c-103.22,0-187.19-83.97-187.19-187.19v-13.21c.13.15.26.29.4.43-.02-.03-.05-.05-.07-.08.17.18.34.36.51.54-.02-.02-.05-.05-.07-.07,1.28,1.24,3.56,7.32,2.51,1.41,0,.02,0,.03.01.05-.02-.11-.04-.23-.07-.34,0,0,0,.01,0,.02-.05-.27-.11-.54-.19-.8,0,0,0,.01,0,.02,0-.02-.01-.05-.02-.07-.71-2.03-1.77-3.89-3.02-5.64v-46.39c1.8,3.14,3.73,6.23,5.76,9.33.73.75,5.07,7.26,4.82,4.08-7.28-24.67,8.35-43.98-10.57-68.38v-48.47c0-21.76,3.73-42.66,10.59-62.09-1.19,13.96.71,27.81-1.62,42.76,0-.02,0-.05.01-.07-.01.09-.03.18-.04.27,0-.02,0-.03,0-.05-.01.09-.02.18-.04.28,0,.04-.01.07-.02.11,0-.05.01-.1.02-.16-1.13,5.67-.2,11.39-.02,17.08-.33,5.93-1.03,11.96.36,17.82,2.16,9.31,7.97,17.38,9.39,26.91,0-.02,0-.05,0-.08,2.1,12.26,1.73,5.8,3.12-1.39,2.36-8.79,5.51-17.41,7.24-26.37.01-.05.02-.11.03-.16,0,0,0,0,0,0,.01-.05.02-.11.03-.16,0,.01,0,.02,0,.03,2.25-15.51,7.33-31.83-3.26-45.44-5.91-7.55-12.7-14.86-12.65-25.17,0-.04,0-.08,0-.12,0,0,0,.02,0,.02-.02-.21-.03-.42-.05-.63,0,.05,0,.11,0,.16,0-.13-.02-.25-.03-.38,0,.02,0,.04,0,.06.14-2.19.39-4.38.69-6.56-.01.1-.03.2-.04.3.02-.16.05-.32.07-.48,0,.04-.01.07-.02.11.01-.1.03-.19.04-.29,0,.01,0,.02,0,.03.74-5.97,2.45-11.67,4.58-17.23,7.31-15.2,16.61-29.26,27.57-41.85,8.84-8.46,22.3-20.12,34.48-29.8,3.34-2.65,6.58-5.14,9.57-7.41,28.35-17.29,61.62-27.26,97.18-27.26,103.22,0,187.19,83.97,187.19,187.19v13.34c-.27-.29-.53-.6-.81-.89.02.03.05.05.07.08-.17-.18-.34-.36-.51-.54.02.02.05.05.07.07-1.28-1.24-3.56-7.32-2.51-1.41,0-.02,0-.03-.01-.05.02.11.04.23.07.34,0,0,0-.01,0-.02.05.27.11.54.19.8,0,0,0-.01,0-.02,0,.02.01.05.02.07.78,2.25,2,4.29,3.43,6.2v46.55c-1.91-3.38-3.99-6.72-6.16-10.05-.73-.75-5.07-7.26-4.82-4.08,7.33,24.84-8.57,44.25,10.97,68.89,0,0,0,.01.01.02v48.27c0,22.38-3.95,43.86-11.19,63.77,1.57-14.64-.63-29.1,1.82-44.76,0,.02,0,.04-.01.07.01-.09.03-.18.04-.27,0,.02,0,.03,0,.05.01-.09.02-.18.04-.28,0-.04.01-.07.02-.11,0,.05-.01.1-.02.16,1.13-5.67.2-11.39.02-17.08.33-5.93,1.03-11.96-.36-17.82-2.16-9.31-7.97-17.38-9.39-26.91,0,.02,0,.05,0,.08-2.1-12.26-1.73-5.8-3.12,1.39-2.36,8.79-5.51,17.41-7.24,26.37-.01.05-.02.11-.03.16,0,0,0,0,0,0-.01.05-.02.11-.03.16,0-.01,0-.02,0-.03-2.25,15.51-7.33,31.83,3.26,45.44,5.91,7.55,12.7,14.86,12.65,25.17,0,.04,0,.08,0,.12v-.02c.01.21.03.42.05.63,0-.05,0-.11,0-.16,0,.13.02.25.03.38,0-.02,0-.04,0-.06-.14,2.19-.39,4.38-.69,6.56.01-.1.03-.2.04-.3-.02.16-.05.32-.07.48,0-.04.01-.07.02-.11-.01.1-.03.19-.04.29,0-.01,0-.02,0-.03-1.01,8.16-3.84,15.82-7.07,23.32-5.74,10.94-12.53,21.26-20.23,30.8-.69.75-1.38,1.5-2.06,2.25.02-.02.03-.03.05-.05-.07.07-.14.15-.21.22.05-.05.1-.11.16-.16-8.6,8.54-23.72,21.75-37.26,32.5Z"/>
  <path class="cls-1s-a08 second-color" d="m484.5,174.3h-60.47c2.25-2.24,4.53-4.46,6.78-6.66h0c1.94-1.28,3.75-2.77,5.71-3.99-.03.01-.06.03-.08.03,1.39-.76,2.84-1.48,4.43-1.71,0,0-.02,0-.02.01,2.94-.44-3.38-.12-4.36.8.03-.01.06-.03.09-.04-2.75,1.7-6.2,2.06-8.52,4.48.02-.01.04-.03.06-.04-.23.2-.46.4-.69.6-2.96,2.16-5.95,4.33-8.93,6.53h-16.01v5.09h4.15c1.54,0,3.04.15,4.5.42-17.68,13.53-34.2,28.64-42.8,49.75.1-.82.22-1.63.41-2.44,0,.02,0,.04-.02.05.24-1.01.48-2.03.71-3.04-.02.09-.04.17-.06.25.28-1.15.56-2.31.8-3.48-.02.09-.04.17-.06.26,3.74-19.23,3.02-39.69,9.17-58.35,4.17-8.79,11.06-16.55,19.44-21.36-2.37.54-4.39,2.03-6.46,3.26-1.79.8-3.54,1.97-5.18,3.11,0-.02,0-.03,0-.05-4.29,3.16-8.74,6.36-11.94,10.67-23.51,23.05-12.55,58.92-14.61,88.09-9.01,19.96-14.01,41.64-23.23,61.49-.91,2.21-1.91,4.36-2.97,6.45h-33.15c8.94-26.08,13.28-52.66-2.11-78.94-.03.03-.07.06-.1.08-2.24-3.97-5.43-9.62-7.65-12.49.98,2.13,2.38,4.23,3.25,6.47,0,0,0-.01,0-.02.11.25.23.51.35.77-.02-.04-.04-.08-.05-.12.12.27.25.54.37.81,0,0,0-.02-.01-.03,1.37,2.45,2.6,5.03,2.84,7.86,0-.04-.01-.09-.02-.13.98,15-1.2,29.99-1.38,44.99-7.91,9.57-18.8,19.77-26.74,30.75h-.94v-110.74c0-13.45,10.9-24.34,24.34-24.34h3.72v-5.09h-81.55v.04h-5.58v5.09h5.58c17.93,0,23.88,13.34,24.55,24.08v227.65c-.67,10.74-6.63,24.08-24.55,24.08h-5.58v5.09h5.58v.04h81.53v-5.09h-.27c-9.42,0-19.26-5.35-24.32-13.18.92.06,1.89.16,2.92.33,8.6,2.52,14.59,3.73,22.12-2.25,0,0,0,0,0,0,18.66-5.69,30.01-19.79,41.67-34.25,5.77-4.57,11.97-9.36,19.48-10.27.04-.08.07-.17.11-.25-25.52.97-42.67,22.27-65.65,29.95,0-.01.02-.01.03-.02-8.53,2.06-16.38,5.51-23.56,10.26-.38-1.51-.59-3.07-.59-4.67v-16.49c4.31-13.07,9.05-25.97,15.69-38.04-.03.06-.07.11-.1.16.06-.09.12-.19.17-.28-.02.03-.03.06-.05.08,3.7-6.23,8.43-11.75,13.76-16.63,0,0-.01.01-.02.02.02-.02.04-.04.06-.06-.01.01-.03.02-.04.04.32-.28.64-.56.96-.84-.07.05-.14.12-.21.18,1.43-1.25,2.79-2.56,4.27-3.73-.03.02-.04.04-.07.05,1.62-1.23,3.1-2.6,4.6-3.97,0,0-.02.02-.03.03.15-.14.31-.26.47-.4-.01.01-.02.02-.03.03,4.09-3.51,8.67-6.41,13.36-9.01.16-.04.33-.09.49-.12,11.14-.91,21.89-7.7,31.53-13.36,3.59-2.61,6.82-5.33,9.75-8.16h67.46v110.49c0,13.45-10.9,24.34-24.34,24.34h-4.18v5.09h82.03v-.04h5.58v-5.09h-5.58c-18.11,0-24-13.61-24.57-24.41v-227.01c.57-10.79,6.47-24.41,24.57-24.41h5.58v-5.09h-5.58v-.04Zm-213.02,266.22s0,0,0-.01c.04-.01.09-.03.13-.04-.04.02-.08.04-.12.06Zm.45.25c.3-.12.61-.24.91-.36-.3.13-.57.42-.91.36Zm12.93-9.31c-3.13,1.82-6.65,2.81-9.89,4.42,3.99-1.92,2.51-1.4-.64.03,3.4-1.78,6.85-3.34,10.53-4.45Zm-7.95,2.92c.74-.35,1.51-.65,2.27-.97-.76.32-1.51.64-2.27.97Zm15.25,1.54c.82-.24,1.64-.49,2.45-.74-.77.42-1.6.6-2.45.74Zm1.01.52c.33-.17.71-.21,1.06-.31-.48.16-.96.32-1.43.49.12-.06.25-.13.37-.19Zm-4.77,1.27c.84-.28,1.67-.51,2.52-.75-.46.24-.93.48-1.39.72-1.08.29-2.14.61-3.24.78.81-.28,4.28-1.25,2.11-.75Zm1.51.5c.51-.13,1.03-.21,1.55-.32-.88.28-1.76.56-2.62.87-.14.03-.28.06-.42.09.5-.22,1-.43,1.49-.65Zm-6.85.97c1.4-.76,8.56-2.84,7.06-2.49.87-.22,1.74-.43,2.61-.64,0,0-.01,0-.02,0-3.2,1.06-6.52,1.84-9.65,3.13Zm4.8-2.36c-.42-.03-.96.25-1.44.32,3.13-1.23,6.45-1.92,9.73-2.63-.45.19-.91.39-1.35.59-2.28.44-4.63,1.2-6.93,1.72Zm-7.09.78c1.45-.47,2.93-.85,4.41-1.24.95-.23,1.9-.44,2.87-.57-2.37.78-4.89,1.05-7.28,1.82Zm3.09-.34c-2.18.99-4.53,1.38-6.8,2.08.3-.1.6-.2.9-.3-.02,0-.03.01-.05.02,1.97-.63,3.95-1.24,5.95-1.8Zm-5.48-.17c1.86-.8,3.72-1.62,5.67-2.17.98-.22,1.94-.52,2.93-.69-2.84,1.02-5.64,2.22-8.59,2.86Zm-2.8,1.68c-1.04.33-2.11.61-3.16.96.22-.1.44-.2.66-.3.84-.2,1.67-.41,2.5-.66Zm-1.32,1.17c.89-.43,1.81-.8,2.76-1.04-1.53.57-3.07,1.22-4.52,1.91.59-.28,1.17-.58,1.76-.87Zm.42.99c-.15-.02-.29,0-.44-.02.2-.02.4-.04.6-.05-.05.03-.11.05-.16.08Zm.25-.32s0,0,0,0c-.25.04-.51.06-.77.1,1.2-.36,2.4-.76,3.62-1.08-.96.31-1.86.8-2.85.99,0,0,0,0,0,0Zm.87.4c1.73-.54,3.43-1.15,5.15-1.72-.02,0-.04,0-.05.01,1.17-.36,2.32-.74,3.5-1.07-2.88.92-5.76,2.77-8.77,2.83.06-.02.12-.03.17-.05Zm1.48.29c.39-.13.77-.27,1.16-.41.77-.21,1.54-.42,2.31-.61-.55.24-1.09.48-1.64.72,0,0,0,0,0,0-.37.15-.74.3-1.12.44-.24-.04-.48-.09-.71-.13Zm1.02.2s0,0,.01,0c1.96-.6,3.76-1.62,5.76-2.07-1.49.58-2.93,1.26-4.38,1.92,0,0,0,0,0,0-.25.1-.51.2-.76.3-.21-.05-.43-.1-.64-.14Zm.91.2c1.09-.35,2.13-.84,3.18-1.28,0,0,0,0-.01,0,1.17-.47,2.32-.96,3.5-1.4.6-.12,1.19-.25,1.79-.36-2.62,1.31-5.6,1.79-8.26,3.08-.07-.02-.13-.03-.2-.04Zm.5.11c1.43-.5,2.85-1.03,4.29-1.51-.01,0-.03,0-.04,0,.36-.11.72-.22,1.09-.33-1.55.75-3.1,1.46-4.75,1.97-.2-.05-.39-.08-.59-.13Zm1.17.29c.14-.06.29-.12.43-.19,0,0-.02,0-.02.01,1.4-.38,2.7-1.03,4.07-1.51-1.26.59-2.47,1.25-3.67,1.94-.27-.08-.54-.17-.81-.24Zm1,.3c1.81-.89,3.6-1.79,5.45-2.62-.01,0-.02.01-.03.01,1.57-.7,6.11-2.14,2.06-.97,2.19-1.02,4.53-1.42,6.89-1.81-1.16.68-2.4,1.09-3.67,1.49-3.38.85-6.62,2.53-9.72,4.19-.33-.09-.66-.19-.99-.29Zm1.47.43c3.17-1.53,6.37-2.97,9.71-4.09-2.19,1.25-4.42,2.43-6.66,3.57.01,0,.02-.01.03-.01-.32.14-.63.26-.95.38,1.95-1.14,4.09-2.19,5.99-3.32-2.81.7-5.29,3.76-8.12,3.46Zm1.25.31c.49-.15.99-.28,1.47-.48-.31.2-.61.41-.9.62-.19-.04-.38-.09-.56-.14Zm40.6-33.79c-7.06,6.09,4.22-3.39,7.73-4.69-15.93,12.2,1.76-1.8,8.92-4.15,0,0,0,0,0,0,.35-.13.71-.27,1.07-.37-5.13,2.08-9.75,5.15-14.03,8.64,0,0,0,0,0,0-.49.45-1.12.77-1.46,1.23-1.34,1.13-4.42,3.68-1.06,1.13-.46.46-2.15,1.75-1.88,1.75-.82.84,7.86-5.93,10.5-7.18-3.98,3.14-10.09,9.17-2.53,2.62,0,0,0,0,0,0,.8-.62,1.59-1.24,2.38-1.87-.01.02-.03.02-.04.04,1.17-.85,2.36-1.69,3.56-2.51-8.55,6.15-26.14,24.34-10.89,9.83-6.67,6.54-1.84,2.1,2.23-1.47-2.45,2.67-5.01,5.68-6.97,8.55,2.6-3,5.17-6.01,7.94-8.85-2.09,2.35-8.48,12.23-3.78,5.67-1.82,2.72,5.76-7.28,7.83-8.97-1.25,1.18-7.21,8.38-5.35,6.47-1.52,2.04-3.15,4-4.87,5.89-9.76,11.08-25.09,16.11-37.94,22.4,2.14-1.22,4.48-2.27,6.65-3.29-2.43.81-4.73,1.9-6.88,3.29-.15,0-.3,0-.45-.05,4.11-2.04,8.3-4.22,12.42-6.1-4.44,1.48-8.54,3.8-12.64,6.04-.09-.02-.18-.05-.28-.07,2.08-1.39,4.54-2.26,6.68-3.49,2.08-1.59,11.61-4.7,5.31-2.79,1.02-.54,2.07-1.01,3.11-1.51,0,0-.02.01-.03.02,2.71-1.28,5.65-2.33,8.31-3.59-5.86,1.67-11.07,5.22-17.23,5.57,0,0,0,0,0,0,0,0,0,0-.01,0,4.7-2.01,11.6-3.69,2.59-1.54.37-.18.74-.35,1.1-.53.44-.12,1.34-.37.48-.22,15.22-6.94,4.69-1.39-4.69.13,3.24-.93,9.96-2.54,2.97-1.06-.23-.04-.51.09-.76.11,3.99-1.69,8.27-3.06,12.25-4.63-7.22,1.84-13.94,5.29-21.34,6.32,2.09-.45,5.73-1.24,1.26-.47,2.56-1.48,14.52-3.87,7.36-2.75,1.85-.93,11.77-3.91,6.45-2.5,24.99-9.78-1.51.61-12.23,3.24,4.99-1.45,1.2-.57-1.58.17,4.28-2.32,22.25-7.16,10.37-4.14,5.75-2.26,11.89-3.78,17.73-5.51-10.09,1.81-19.65,5.45-29.26,8.87,1.17-.74,7.68-2.68,4.33-1.84,2.37-1.58,16.14-5.61,10.15-4.19,4.33-1.76,8.91-3.16,13.27-4.67-6.18,1.46-12.14,3.68-18.15,5.68,6.17-2.85,12.74-5.06,19.04-7.4-11.02,2.72-21.1,7.99-31.85,11.44,3.57-1.54,7.37-2.86,10.88-4.37-3.43,1.07-6.84,2.28-10.21,3.51,1.86-.81,6.57-2.22,1.7-.85,15.23-4.47,29.29-11.01,41.82-20.99Zm9.42-1.08c-.37.34-.7.69-1.05,1.04.32-.38.65-.74,1.05-1.04Zm-53.7,22.38s-.04.02-.05.03c1.12-.41,2.27-.74,3.42-1.09-1.99.86-3.97,1.73-6.05,2.34.88-.45,1.76-.88,2.68-1.28Zm-5.28,2.71c.81-.37,1.63-.72,2.48-1.02-2.64,1.16-5.07,2.69-7.42,4.33,1.61-1.16,3.12-2.49,4.94-3.31Zm-4.11,4.92c-.31.15-.62.31-.93.47,0-.02-.02-.04-.02-.05.32-.14.63-.3.95-.42Zm143.08-257.52s.01,0,.02,0c-.12.12-.24.24-.35.36.11-.12.22-.25.33-.37Zm-2.14.07c.21-.18.42-.36.63-.54.04.01.08.02.12.03-.95.85-1.9,1.69-2.91,2.43.69-.68,1.43-1.29,2.16-1.92Zm-2.57,2.38s.04-.02.06-.03c-.26.23-.51.46-.77.69.23-.22.43-.48.71-.65Zm-3.3,5.43s0-.04,0-.06c1.02-1.2,2.1-2.34,3.22-3.44-1.12,1.28-2.19,2.58-3.19,3.94,0-.12.01-.24-.01-.36.08-.09.25-.15.26-.25-.09,0-.17.12-.27.17Zm-3.19,1.54h0c.38-.12.02-.1-.09-.03,1.59-1.52,3.24-2.97,4.89-4.44-.02.02-.04.04-.06.06-1.88,1.9-3.64,3.87-5.41,5.87-.3.06-.58.08-.87.2.52-.54.91-1.27,1.55-1.65Zm2.53-.74c.18-.23.35-.48.59-.65,0,.12.01.25.02.37-.53.48-.96,1.06-1.4,1.62.27-.45.51-.92.81-1.35,0,0,0,0,0,.01Zm-4.2,6.42c-.36.54-.72,1.08-1.08,1.63.63-1.34,1.22-2.71,2.16-3.87-.4.72-.76,1.48-1.07,2.25Zm2.47-4.01c-.51.85-.97,1.75-1.52,2.58.38-.92.87-1.82,1.52-2.58Zm.37,1.52s-.03.04-.05.06c.07-.1.15-.2.22-.3-1.5,2.84-2.98,5.7-4.32,8.62-.57,1.3-1.07,2.63-1.55,3.97,1.15-4.48,2.88-8.65,5.7-12.35Zm-.43-1.65c.21-.3.44-.59.66-.88-.18.33-.39.62-.66.88Zm-4.1,2.27c.65-.66,1.12-1.55,1.87-2.08h0c.24-.1.5-.15.76-.21-1.36,1.46-2.63,2.99-3.9,4.53.37-.59.73-1.19,1.12-1.76,0,0,0,.01-.01.02.47-.7,1.11-1.29,1.66-1.88-.55.34-1.02.9-1.48,1.37Zm-2.35,3.28c.35-.59.69-1.19,1.08-1.75,0,0,0,.01-.01.02.33-.43.67-.86,1.06-1.24-.78.94-1.44,1.96-2.13,2.97Zm-13.03,32.02c-1.98,4.87-3.85,9.78-5.72,14.69.61-2.1,1.23-4.2,1.83-6.3,4.09-12.68,8.12-25.67,16.22-36.44-3.87,5.9-15.14,34.01-12.33,28.06Zm4.77-17.67c.94-1.76,1.71-3.62,2.81-5.28-1,1.73-1.82,3.55-2.81,5.28Zm6.18-11.56c.52-.93,1.11-1.83,1.66-2.75.1-.12.2-.24.29-.36-.71,1-1.19,2.15-1.95,3.11Zm2.79.58c-.96,2.21-2.18,4.28-3.38,6.37-.2.38-.39.79-.59,1.17,1.17-2.59,2.61-5.05,3.97-7.54Zm-3.49-.47c-.91,1.89-2.59,3.14-3.78,4.83-2.19,2.73-4.08,5.66-5.91,8.64,3.9-6.94,7.96-13.88,13.73-19.46-2.03,2.89-9.68,12.91-4.04,5.99Zm1.59-6.06c.48-.41.89-.92,1.42-1.24-1.1,1.08-2.13,2.23-3.12,3.39.36-.5.73-1,1.1-1.48,0,0-.01.02-.02.02.19-.25.38-.49.62-.69Zm-1.55,1.46c-.56.77-1.19,1.42-1.99,1.94.64-.67,1.31-1.31,1.99-1.94Zm-1.34,1.65c-.27.33-.54.66-.81,1-1.69,2.1-3.28,4.27-4.86,6.45,1.58-2.73,3.02-5.6,5.67-7.46Zm-8.9,11.46c-.68,1.16-1.49,2.24-2.27,3.34,1.64-2.89,3.4-5.72,5.38-8.39-1.05,1.68-2.09,3.35-3.1,5.05Zm-8.09,22.27c-2.72,8.16-7.33,15.44-10.57,23.39.57-1.65,1.15-3.29,1.73-4.93.76-2.14,1.5-4.29,2.25-6.43,1.09-3.19,2.43-6.43,3.88-9.53,0,0,0,0,0,0,2.61-5.21,9.06-18.03,2.78-6.24,1.07-2.29,2.27-4.52,3.44-6.76,1.45-2.79,3.18-5.75,5-8.47-3.19,5.11-12.36,27.06-8.49,18.96Zm-22.64,48.63c.45-1.23,1.07-2.37,1.68-3.53,1.03-1.96,2.04-3.93,3.06-5.89-.93,2.15-1.93,4.27-2.91,6.4,0,0,0,0,0-.01-.45,1.11-1.07,2.11-1.83,3.04Zm-11.59,26.84c3.57-8.71,8.26-16.82,12.35-25.28-1.19,2.75-2.47,5.46-3.71,8.18,0,0,0,0,0-.01-2.84,5.71-5.2,11.75-8.64,17.12Zm12.01-26.84s0-.01,0-.02c-.46.99-.92,1.98-1.37,2.97.01-.03.03-.06.05-.09-.69,1.45-1.37,2.89-2.06,4.34.16-.39.34-.77.49-1.15,1.03-2.31,1.68-4.82,3.25-6.83-.12.26-.24.52-.37.78Zm1.39-4.58c3.8-9.87,7.43-19.8,11.19-29.68,1.11-3.64,5.82-14.8,5.53-14.46.66-1.69,1.4-3.36,2.14-5.01,0,.01-.02.03-.03.04,1.02-2.09,1.92-4.29,3.26-6.21-.99,2.22-3.93,8.83-1.34,3.51-1.77,5.56-7.99,19.37-2.22,6.94-6.64,14.75-10.35,30.86-18.54,44.87Zm13.63-38.43c.37-.88.55-1.85,1.09-2.64-.37.88-.73,1.76-1.09,2.64Zm1.17-3.17c1.13-2.72,2.21-5.45,3.47-8.12.51-.73,1-1.48,1.51-2.22-1.87,3.33-3.19,6.97-4.98,10.33Zm16.53-29.82c-4.68,5.9-7.53,12.93-11.88,19.07,1.58-3.41,3.24-6.77,5.04-10.07,1.7-3.39,4.39-6.15,6.84-9Zm-18.41,12.82c-.19.99-.34,1.98-.53,2.97.01-10.47.46-21.14,2.29-31.46-1.39,9.45-.6,19.04-1.75,28.48Zm-7.56-17.94c.6-8.01,1.48-16.12,4.43-23.65-.02.05-.04.09-.06.14,1.63-3.72,3.33-7.5,5.71-10.8,0,.02-.02.03-.03.05.5-.6,1.03-1.18,1.59-1.73-3.79,5.35-9.97,17.42-2.87,5.32,0,0,0,0,0,0,2.22-3.45,4.48-6.87,7.07-10.05,0,0,0,.01,0,.02.61-.8,1.32-1.51,2.06-2.2-5.08,5.27-13.17,22.06-6.61,10.14,0,0,0,0,0,0,0,0,0,0,0-.01,0,0,0,0,0,0,1.09-1.75,2.23-3.46,3.41-5.15-3.65,5.84-7.21,12.84-1.3,2.93,0,0,0,0,0,0,0,0,0-.01.01-.02,0,0,0,0,0,0,2.34-3.62,4.73-7.26,7.76-10.34-5.1,5.52-8.39,12.28-11.2,19.18,1.95-3.51,3.75-7.65,5.94-11.22,0,0,0,0,0,.01.11-.18.22-.35.33-.53-3.73,7.08-4.32,8.63.08.78-5.72,12.02.49-.47,3.53-5.48,0,0-.01.02-.02.03.03-.04.06-.09.08-.13.03.02.06.04.1.05-2.04,2.65-6.72,13.21-5.94,12.56-1.44,3.66-1.62,4.49.11.4-2.27,12.41-3.82,24.92-5.53,37.42-.1-7.43,3.04-36.12.35-17.5.38-3.25-.06-.42-.32,1,1.12-7.66-.32,1.43-1.37,4.45.93-15.01-.36,2.1-1.58,8.35,0-3.65.13-7.42.45-10.98.18-2.38.49-4.76.81-7.12,2.73-15.16-1.48,5.3-2.2,12.52.14-1.72.04-1.76-.22.61-.07-1.24.15-2.47.35-3.69,0,0,0,0,0,.01.92-4.29.48-3.2-.31.38.09-3.9.41-7.8.99-11.66,0,.01,0,.03,0,.04,1.72-13.36-3.26,18.83-2.86,25.13-.25-.71.13-4.87-.09-3.48.19-2.36.11-2.57-.16-.08-.4-2.3.75-8.29-.22-2.9-.5-5.29-.18-10.6.2-15.88-1.51,8.83-.42,18-1.74,26.92-.22-4.62-1.07-9.23-.72-13.86Zm6.6,23.06c.04-.64.07-1.28.1-1.92.1.65.08,1.28-.1,1.92Zm-.29-8.37c-.04,1.49-.11,2.98-.15,4.47-.03.74-.05,1.47-.06,2.21-.02-2.22.14-4.46.21-6.68Zm-.42,11.59c-.01-.31-.02-.63-.03-.94,0,.31.12.63.03.94Zm-.9-26.6c-.17,3.42-.14,6.85-.14,10.27-.04,6.48.22,12.97.39,19.45-.03-.31-.06-.62-.09-.94,0,.01,0,.03,0,.05-.83-9.59-1.41-19.27-.16-28.84Zm-1.08,32.52c.25,1.03.44,2.08.43,3.14-.18-1.04-.43-2.07-.43-3.14Zm.17,4.19s0-.02,0-.02c-.02-.3-.03-.6-.04-.9.09.31.18.62.04.93Zm-.19.73s-.03.06-.04.09c-.04-.79-.06-1.58-.08-2.38,0,.76.25,1.55.12,2.29Zm.44-7.79c.05,1.44.15,2.88.32,4.32,0,0,0,.02,0,.02-.26-1.44-.36-2.88-.31-4.34Zm.19-3.18c.15,1.54.29,3.1.53,4.63,0,.08-.02.15-.03.23-.23-1.62-.46-3.23-.51-4.86Zm-1.17,12.19c-.02-.16-.03-.33-.05-.49.09-.66.09-1.33.13-2-.02.84.38,1.73-.08,2.49Zm-.17-1.85c-.02-.2-.03-.41-.05-.61-.13-1.63-.13-3.27-.08-4.91.25,1.82.09,3.69.13,5.52Zm-.07,2.42c-.03.07-.07.13-.1.2-.02-.62-.05-1.23-.07-1.85.04.54.22,1.07.18,1.61-.02.04-.03.08-.05.12.02-.03.03-.05.05-.08Zm-2.21,3.95c-.15.24-.27.5-.4.75-.03-3.26.23-6.48.34-9.72.01.12.02.25.03.38.46,2.86-.58,5.74.02,8.59Zm.4-5.1c.1.72.2,1.45.3,2.17.07.48.12.95.19,1.42-.21.43-.48.83-.72,1.24-.27-1.63.09-3.22.24-4.83Zm.29-.39s0,.03.01.05c-.13-.99-.15-1.98-.06-2.98.39,1.97.6,3.96.74,5.96-.1.2-.2.38-.3.57-.1-1.21-.24-2.4-.39-3.6Zm-.02-6.13c-.03-.78-.02-1.56.02-2.34.12,1.55.13,3.1.25,4.65-.05-.36-.1-.73-.15-1.09,0,.02,0,.04,0,.07-.04-.43-.08-.86-.12-1.28Zm.71.09c.09,1.25.14,2.49.18,3.74-.07-.71-.1-1.42-.13-2.14-.02-.54-.07-1.07-.05-1.6Zm.16,8.04c.04.19.07.38.1.57-.04.07-.07.13-.11.2-.02-.36-.04-.73-.06-1.09.02.11.04.22.06.32Zm0-18.42c.04-.33-.07-.21-.06.04-.18-2.16-.24-4.33-.21-6.49.04,1.5.1,2.99.18,4.49.05,1.52.28,3.04.24,4.56-.1-.86-.04-1.75-.14-2.59Zm-2.82,31.96c5.24-11.39,10.05-22.99,16.23-33.91-1.69,3.93-10.98,20.77-5.45,11.45-4.14,10.92-10.75,20.73-14.54,31.88,1.06-3.21,2.38-6.33,3.75-9.42Zm-7.69,22.35c3.95-9.82,7.42-19.82,11.82-29.45,0,0,0,0,0,.01,1.09-2.34,2.27-4.65,3.56-6.89-6.31,17.9-11.95,36.57-21.36,53.1,2.11-5.55,4.1-11.14,5.99-16.77Zm-8.98,24.26c1.6-3.28,3.23-6.54,4.94-9.75-1.39,2.98-2.72,5.96-4.06,8.96,0,0,0-.02,0-.03-1.41,3.15-2.9,6.26-4.38,9.38,1.11-2.88,2.3-5.72,3.49-8.56Zm-.65,4.74c-.55,1.81-2.21,3.96-2.08,5.66-1.26,2.04-2.54,4.06-3.83,6.09h-.05c2.03-3.9,4.06-7.79,5.96-11.75Zm-43.68,8.48c-.31,1.11-.66,2.19-1.04,3.27h-1.34c1.64-5.05,3.59-11.37,4.43-13.82-3.45,13.78-2.65,11.25.9-.7-.36,3.14-2.8,10.31-2.94,11.25Zm-1.33-2.78c.78-3.31,1.55-6.62,2.27-9.95,1.23-3.79,2.38-7.65,3.53-11.48-1.38,7.26-3.61,14.36-5.8,21.43Zm1.68-12.54c.53-1.92,1.08-3.84,1.66-5.75-.03.12-.06.23-.09.35-.48,1.81-1.05,3.59-1.57,5.4Zm4.08-10.41s.03-.09.04-.13l.54-1.88c-.06.7-.36,1.35-.58,2.01Zm.36,5.01c.06-.31.12-.62.18-.92.15-.84.35-1.67.42-2.53.5-.91.27-2.07.6-3.06-.39,2.18-.35,4.43-1.2,6.51Zm.68-10.63c-.04.16-.09.32-.14.47.09-.48.19-.96.27-1.44-.05.32-.09.64-.14.97Zm-.41-12.64c.09-5.03-.42-10.35-1.24-15.17,1.35,4.89,2.07,9.89,1.24,15.17Zm-5.43-6.08c.65-6.25.53-12.56.09-18.82,0,0,0,0,0,0-.03-.22-.06-.44-.08-.67,0,.05.02.11.02.16-.11-1.01-.29-2-.45-3,1.61,4.41,3.37,8.77,4.6,13.22.46,5.89,1.07,11.82.93,17.73-.28-7.45-3.15-22.17-.97-6.54-.18-.84-.72-4.36-.75-3.62-1.53-9.76.96,9.42,0,13.43,0,0,0,0,0,0-.03.35-.07.69-.13,1.03.71-5.03-.93-21.63-1.09-18.37-1.76-10.11.14,2.37.34,6.55-.18-2.26-.67-6.75-.36-1.92-.07,1.09.18,2.48.19,3.69-.61-6.03-.02,1.18-.08,3.64-.1-1.85-.86-8.13-1.07-7.73.08,5.71.71,11.65.28,17.44-.05.09-.11.18-.17.26.45-2.9.2-11.24-.24-11.46-.01,0-.03,0-.04,0-.26-5.89-.21-.03-.18,2.63-.67-7.93.09,3.76-.2,6.85,0,0,0-.01,0-.02-.22,1.28.13,2.8-.65,3.88,1-4.03.2-16.01.27-6.17,0-.01,0-.02,0-.02-.05,1.29-.09,2.57-.22,3.85.06-4.39-.09-20.45-.39-9.29-.12-.97-.04,3.55-.19,4.53-.41-3.78.05-7.49.52-11.24Zm4.53,10.75c.06-1.11.1-2.23.07-3.35.02.21.04.42.07.63,0,.92.37,1.89-.14,2.72Zm-.63-8.72c.12.85.25,1.7.36,2.56.11,2.14.11,4.29.12,6.43,0,0,0-.01,0-.02,0,.19-.12.34-.18.51.25-3.16.08-6.34-.29-9.48Zm-.22,1.42c.11,1.26.21,2.52.27,3.77.09,1.51.13,3.03.08,4.54h0c-.12.41-.4.77-.59,1.17.46-3.13.42-6.32.24-9.48Zm-.63,9.8c.04.34-.07.63-.26.9.11-.84.2-1.69.27-2.54,0,.55,0,1.1,0,1.64,0,0,0,0,0,0Zm-.84,1.81c.15-1.63.17-3.25.31-4.89,0,.48-.01.96-.01,1.44,0,0,0,0,0,0-.14,1.13.14,2.41-.3,3.45Zm-.98-16.02c.55,4.77,1,9.58.82,14.38,0,0,0,0,0,0,0,0,0,0,0,.01,0,0,0,0,0,0-.12.79-.01,1.66-.31,2.39.12-1.49.2-2.98.22-4.48.1-4.11-.35-8.2-.73-12.29Zm.93,15.3c0,.22.01.44,0,.65,0,0,0,0,0,0,0,.06-.01.11-.02.17-.06.1-.13.2-.19.3.08-.37.17-.74.2-1.12Zm-.91.19c-.01.48-.02.97-.03,1.46,0,0,0,0,0,0,0,.22-.02.43-.02.65-.16.23-.32.47-.49.7.46-4,.55-8.03.36-12.06.2,3.09.25,6.18.17,9.28,0,0,0-.01,0-.02Zm-1.85,2.31c.1-1.83.37-3.66.42-5.49.08,1.7.04,3.41-.02,5.11,0,0,0,0,0,0-.04.59-.07,1.19-.1,1.78,0,0,0,0,0,0,.03.51-.18.94-.48,1.34.06-.91.11-1.82.17-2.74Zm-.65,2.12c.13-3.35.18-6.72.34-10.07.06,2.63.11,5.28.04,7.9,0,0,0,0,0,0,.02.66-.25,3.88-.02,2.19,0,.27,0,.54,0,.81-.13.22-.27.43-.4.65.01-.49.03-.99.05-1.48Zm-.57,6.66c-3.07,5.08-5.78,10.37-8.63,15.58,5.24-7.08,8.97-15.58,13.57-23.23-3.63,6.43-12.13,28.2-5.84,14.05,0,.02-.02.03-.02.05.09-.18.18-.36.26-.54-5.48,13.19,1.71-2.54,4.26-7.88-2.19,5.79-3.87,12.13-5.33,17.98,1.38-4.12,2.65-8.3,4.18-12.37-5.68,20.83,1.91-4.39,4.9-12.78-1.8,8.14-15.65,49.16-8.51,30.68-.65,2.28,1.07-2.79,1.48-3.6-.79,3.22-1.27,6.53-1.89,9.79h-.22c.1-.25.2-.49.3-.74-.12.24-.24.49-.36.74h-22.44c6.47-10.18,17.69-17.45,24.28-27.73Zm-12.35,58.59c2.17-7.67,4.21-14.94.14-2.21.23-.87.47-1.74.7-2.62,0,.03-.01.07-.02.1,2.07-6.85,4.66-13.52,7.33-20.14h1.04c-1.77,4.51-5.52,13.27-3.01,8.08-3.86,9.52-6.31,19.47-8.96,29.35.69-4.25,1.77-8.44,2.81-12.62,0,.02-.01.04-.02.06Zm-3.04,8.41c.22-11.81,5.26-22.6,9.76-33.28h.97c-4.84,10.62-8.95,21.68-10.73,33.28Zm12.59-32.53c-.07.7.15.32.56-.75h1.13c-.29.78-.57,1.57-.83,2.37-2.53,7.6-6.16,14.72-9.03,22.18,2.24-8.1,4.5-16.22,8.18-23.8Zm-12.6,7.9c-.82,1.48-3.79,11.91-4.7,16.58-.02-6.16.71-12.16,2.4-18.09,0,.01,0,.02,0,.03.94-3.23,1.59-5.57,2.02-7.18h4.55c-2.78,8.75-5.4,17.72-7.02,26.8.02-4.56.42-9.05,1.62-13.46,0,.02,0,.03,0,.05.92-3.35,3.92-12.5,1.14-4.74Zm-5.24,17.83c-.05,2.84-.68,5.61-.77,8.46-.05-.74-.09-1.47-.14-2.21,0,.02,0,.04,0,.06-.25-5.25.76-10.46,1.67-15.62-.28,3.1-.59,6.2-.75,9.31Zm.15,18.74c-.52-3.24-.57-6.5-.24-9.76.05,1.99.12,3.98.23,5.97.06,1.26.19,2.53.02,3.79Zm-2.43,3.12c.3,1.04.78,2.04,1.07,3.07,0-.02-.02-.03-.03-.05-.44-.85-.74-1.77-1.02-2.67,0,.02,0,.03.02.03-.04-.13-.07-.25-.04-.38Zm-2.81-4.27c-.05-.19-.09-.37-.14-.56.25.82.54,1.64.92,2.42-.33-.6-.64-1.2-.78-1.87,0,0,0,0,0,0Zm-1.82-5.15c.15.99.55,1.94.64,2.93-.18-.41-.26-.87-.36-1.3,0,0,0,.01,0,.02-.11-.55-.19-1.1-.29-1.65Zm-.05,2.96c-.23-.32-.57-.58-.6-.99-.05-.13-.02-.34-.07-.41-.15-.63-.11-1.29-.13-1.93.19,1.13.44,2.25.81,3.34Zm-.83-6.43c.05.43.1.86.16,1.29.08.6.19,1.22.3,1.83-.24-1.03-.51-2.06-.46-3.12Zm.2-6.9c.54,2.99.34,6.05.97,9.03-.11-.5-.22-1-.33-1.5-.33-2.5-.91-4.99-.64-7.53Zm.81-1.14c-.02.3-.02.67-.04.99-.22-1.96-.61-3.93-.35-5.9.07-.71.14-1.42.21-2.13.24,1.52.48,3.03.3,4.57-1.01-4.98.19.6-.11,2.46Zm.05,7.63c-.04-.27-.09-.55-.13-.82-.1-.91-.2-1.83-.28-2.74.23,1.19.42,2.35.4,3.56Zm.55,6.79c.18.65.36,1.3.55,1.95-.08-.11-.15-.22-.23-.34-.18-.48-.32-.96-.43-1.46.13.11.12-.06.11-.15Zm-.09-4.05s0,0,0,.01c-.08-.41-.04-.83-.06-1.25.38,2.79,1.01,5.54,1.77,8.26-.42-1.27-.74-2.57-1.02-3.87-.26-1.05-.46-2.1-.7-3.16Zm1.14-8.52c-.28-2.22-1.04-4.42-.68-6.67.05-.45.09-.9.13-1.35.18,2.08.4,4.16.57,6.23-.95-6.2-.5-1.9-.02,1.78Zm-.34,1.48c.14,1.05.44,2.08.49,3.13-.38-2.2-.99-4.38-1.03-6.62.15,1.17.34,2.33.54,3.48Zm.64,7.03c-.13-.63-.22-1.26-.3-1.9.1.63.28,1.25.3,1.9Zm-.97-3.06c-.32-1.87-.62-3.77-.45-5.66,0,.02,0,.03,0,.05.05,1.87.22,3.76.44,5.62Zm1.31-11.65c0-.17-.02-.34-.03-.51,0,.02,0,.04,0,.07.31-13.92-.34-9.9-.47,1.48-1.15-8.03.93-16.15,2.4-24.11h2.95c-3.37,10.59-4.22,22.04-4.03,33.16-1.17-8.67.64-17.43,1.48-26.07-1.09,5.19-1.8,10.66-2.3,15.99Zm1.99-3.22c0,3.02,0,6.04.1,9.06.06,2.31.26,4.62.32,6.94-.7-5.32-1.03-10.65-.43-16Zm.16,18.81c-.65-2.96-.78-5.95-.66-8.97.01.25.01.51.03.76.11,2.74.38,5.47.63,8.21Zm-.6,5.48c-.35-1.82-.8-3.63-1.08-5.46-.04-.35-.12-.71-.17-1.07.44,2.17,1.05,4.32,1.25,6.53Zm-.08-8.82c.19,1.62.38,3.24.6,4.86.13.98.27,1.96.41,2.94-.49-2.58-1.11-5.16-1.01-7.81Zm.74,11.51c-.09-.42-.25-.82-.27-1.24.08.42.18.83.27,1.24Zm.46-23.01c-.27-3.19,0,1.39-.2,2.52-.85-8.87.32-17.74,2.5-26.33h4.02c-1.64,5.01-4.62,15.45-5.4,21.62.07-4.3,2.27-15.29.26-5.53.66-11.86-.51,2.93-1.17,7.73Zm1.16,24.99c-.17-.92-.32-1.85-.42-2.78.14.92.28,1.85.42,2.78Zm-2.2-48.81c-1.39,5.48-2.43,11.14-3.12,16.76-.33-3.85-.05,3.46-.49,4.93-.9-7.17,1.46-14.51,2.03-21.69h1.58Zm-5.19,0h.91c-.31.78-.62,1.56-.91,2.35v-2.35Zm0,3.98c.23-.76.48-1.52.74-2.27,0,.01,0,.02,0,.04.19-.59.39-1.17.61-1.75h1.49c-1.04,3.74-2.03,7.58-2.84,11.44v-7.46Zm0,10.85c.6-4.98,2.04-9.91,2.9-14.83h.7c-1.19,5.53-2.16,11.33-2.88,17.01-.82-4.49.25,1.32-.31,2.95-.73-7.68-.08-.59-.29,3.19-.05-.16-.09-.45-.12-.79v-7.53Zm0,10.43s0,.01,0,.02c0,.02,0,.03,0,.05v-.07Zm0,12.81c.01.14.04.28.05.43-.02-.1-.03-.19-.05-.29v-.14Zm0,47.02v-41.48c2.55,3.27,4.67,6.91,6.81,10.45,0,0,0,0,0,0,.02.04.04.07.05.11-.01-.02-.02-.05-.04-.07.69,1.54.95,3.19,1.22,4.84,0-.06-.02-.12-.03-.19.25,1.5.47,3,.64,4.49-2.91,7.12-5.83,14.43-8.65,21.85Zm8.63-47.99c-.15-3.94-.28-7.86.66-11.72-.11,1.28-.23,2.56-.34,3.84-.27,2.62-.26,5.25-.32,7.88Zm.76,12.88c-.05-.77-.11-1.55-.12-2.32.04.32.08.64.12.96.05.45,0,.91,0,1.37Zm0-7.46c0-1.65-.19-3.32.08-4.95-.08,1.65-.08,3.3-.08,4.95Zm.25-10.37c.19-3.1.26-6.22.77-9.29-.22,2.69-.43,5.38-.6,8.08-.06.4-.11.81-.17,1.21Zm.58,10.58c0,.28,0,.56,0,.84-.02.26-.05.51-.07.77.02-.54.05-1.07.07-1.61Zm.03,4.99c-.02-.59-.13-1.18.03-1.75.03.59.07,1.18.11,1.77-.05,0-.1-.03-.14-.02Zm.13-14.73c-.04.25-.08.5-.12.75,0-1.14.16-2.27.37-3.38-.08.88-.17,1.75-.25,2.63Zm7.36-32.99h5.23c-2.22,4.39-4.31,8.98-6.27,13.53-2.09,5.28-3.85,11.36-4.92,17.16.55-4.5,1.48-8.95,2.64-13.33,0,0,0,0,0,0,3.28-12.54-2.62,6.49-3.66,14.52.91-10.83,4.42-21.33,6.98-31.88Zm-4.81,28.98c-.06.49-.12.99-.18,1.48-.36,4.78-1.25,9.5-1.75,14.26-.17-5.31.78-10.58,1.93-15.74Zm-1.25,28.19c.05-.28.09-.56.14-.84.04.13.07.26.11.39-.08.15-.17.3-.25.45Zm18.8-21.98s.03-.02.04-.04c-.07.06-.14.12-.21.18.02-.02.04-.04.06-.06-7.31,5.99-13.78,13.07-18.39,21.36-.19-2.41.84-4.84,1.03-7.26-.34,6.01,1.26-7.52,1.73-10.03,0,0,0,0,0,.01,4.65-12.9,10.43-26.06,15.32-39.36h31.97c-8.15,13.61-19.33,24.85-31.55,35.19Zm34.14-35.19h.21c-.92,1.46-1.84,2.92-2.76,4.37.9-1.43,1.73-2.9,2.56-4.37Zm-.67,3.66c.66-1.08,1.41-2.1,2.18-3.11-.03.05-.06.1-.09.15-.69,1.01-1.36,2.05-2.04,3.07,0-.04-.03-.07-.05-.11Zm1.06,3.65c2-2.58,4.18-4.98,6.44-7.32h.35c-2.26,2.44-4.55,4.86-6.79,7.32Zm10.54-1.56c-.15.12-.3.24-.45.36.28-.28.57-.57.85-.85-.13.16-.27.33-.4.49Zm3.81-5.58s-.07.1-.11.14c-.2.21-.39.42-.66.54.25-.23.51-.46.76-.68Zm-.19-.06s.07-.07.11-.11h.03s-.09.07-.14.11Zm.17,7.67c-.22.26-.52.45-.78.68.26-.23.53-.44.78-.68Zm-.67-6.9c-.1.09-.2.19-.3.28-.73.7-1.48,1.38-2.23,2.06.8-.82,1.57-1.71,2.53-2.34Zm-1.11,9.1c.13-.09.25-.18.38-.27-.07.15-.24.2-.38.27Zm1.6-.83c-.35.2-.71.37-1.06.56.32-.44.8-.79,1.36-.78h0c.36-.07-.34-.08-.47,0,2.81-2.07,5.28-4.55,7.78-6.97-2.45,2.48-4.41,5.63-7.6,7.2Zm9.78-26.84c.61-.82,1.36-1.53,2.03-2.3-3.16,4.82-6.31,9.67-10.06,14.01h-.76c1.58-1.95,3.01-3.78,3.55-4.6,1.04-1.72,7.74-9.78,5.24-7.11Zm-5.03,5.65c.24-.31.47-.62.71-.93.55-.6,1.09-1.21,1.64-1.82-.78.92-1.57,1.83-2.35,2.75Zm12.02-13.19c-1.56,2.94-3.26,5.78-5.16,8.51-.73,1.22-1.77,2.2-2.73,3.24,2.49-4.01,5.13-7.92,7.89-11.75Zm-9.2,25.24h.98c-2.16,2.13-4.37,4.22-6.61,6.28,1.58-1.65,3.58-3.89,5.63-6.28Zm-4.31,7.21s0,0,0,0c2.45-2.28,4.74-4.71,6.96-7.21h.41c-2.32,2.55-4.76,4.98-7.38,7.21Zm6.91-5.43c.06-.05.12-.11.19-.16-.35.31-.71.61-1.05.92.82-.82,1.61-1.67,2.38-2.54h.33c-.57.63-1.18,1.22-1.84,1.78Zm2.45-7.77c2.43-2.94,4.48-5.49,5.38-6.69.66-.98,4.02-4.71,1.74-2.33.67-1.04,3.73-4.27,1.31-1.83,2.66-4.21,15.18-20.01,7.06-10.2.78-1.19,1.52-2.4,2.29-3.6,0,0,0,0,0,0,.74-1.13,1.43-2.27,2.17-3.39,0,0,0,.01-.02.02.79-1.35,1.87-2.74,2.5-4.03-7.62,11.43-15.76,22.57-25.7,32.04h-1.05c.28-.31.28-.36-.13,0h-.37c5.37-5.71,16.2-16.97,8.61-9.56,12.84-15.21,4.8-5.46-3.8,2.28,2.61-3.17,13.41-18.59,7.02-10.15,0,0,0-.01,0-.02-.79,1.04-1.58,2.08-2.37,3.12,0,0,0-.01,0-.02-3.04,3.75-5.86,7.72-9.13,11.26,2.15-4.54,16.49-21.72,8.2-12.32,3.25-4.43,6.58-8.87,9.77-13.31-2.76,3.27-5.46,6.71-8.14,10.09,3.46-5.41,6.66-10.99,9.91-16.53,0,0,0,0,0,0,7.79-12.74-1.75,2.24-5.67,7.1,1.52-3.42,3.34-6.69,5.24-9.91,0,0,0,0-.01.01,13.2-23.16-10.44,18.52-18.07,25.64,5.59-7.88,10.83-16.08,16.38-23.94-5.97,7.42-11.33,15.44-16.99,23.13,4.39-7.26,8.53-14.71,12.6-22.13-7.84,11.82-13.95,25.16-24.04,35.25h-1.19c1.83-2.33,3.79-4.59,5.45-6.87,9.55-11.8,7.57-9.83-1.07.31,1.31-2.32,7.41-9.67,2.98-4.55,3.05-4.57,6.4-9.03,9.45-13.57-6.27,7.35-11.2,15.86-17.7,23.04,6.9-9.37,14.21-18.49,20.93-27.97-7.82,9.74-15.99,19.38-23.31,29.55.48-.87,2.18-2.97,2-3,6.1-9.09,12.16-18.24,17.63-27.7-6.65,10.11-13.73,20.03-20.4,30.17.61-1.48,3.83-5.5,1.04-2.07,5.98-12.29,13.93-23.56,20.97-35.23-4.73,6.69-9.4,13.59-13.81,20.55,2.29-6.84,16.31-27.27,6.08-12.78,5.81-12.52,10.33-25.58,15.91-38.19,0,0,0,0,0,0,0,0,0-.02.01-.02,0,0,0,0,0,0,.79-1.67,1.58-3.34,2.38-5.01-3.69,9.35,4.26-9.2,2.98-6.49,4.62-10.81,9.79-21.54,16.82-31.02,0,.01-.01.02-.02.02.3-.37.61-.75.94-1.1-9.08,12.39-14.33,27.19-19.71,41.31,3.66-8.23,7.02-16.59,10.93-24.7-6.8,14.34-10.8,30.04-14.41,45.31,3.71-12.54,7.05-25.24,12.09-37.33-.13.56.13-.19.19-.44,0,0,0,0,0,0,.91-2.45,2.14-4.75,3.32-7.07-2.64,5.99-6.9,19.57-7.36,22.3,0,0,0,0,0,0,.02-.06.05-.12.07-.19,0,0,0,.01,0,.01.11-.32.22-.64.33-.96-2.41,8.78-4.13,18.08-5.7,26.88,2.62-12.19,5.4-24.24,11.04-35.44-3.19,8.88,5.41-13.13,7.87-16.97-10.99,29.41.89-2.3,6.86-13.18-4.52,8.23-14.81,43.74-12.88,39.11-4.08,21.67.93-4.08,4.32-12.65-3.15,11.42-5,23.14-7.28,34.76,4.45-16.28,6.56-33.77,12.53-49.78-2.92,10.06-5.42,20.58-7.52,30.69,3.17-11.51,6.18-23.05,9.51-34.52-.13.53-.31,1.04-.43,1.58h0c-7.47,31.06-3.8,66.25-25.25,92.34,1.85-3.05,3.86-6.32,5.43-9.37-4.19,7.39-9.33,14.03-15.01,20.21h-1.71Zm-4.1-2.03c2.74-3.61,6.2-6.59,9.27-9.9-.63.68-1.26,1.35-1.89,2.03-2.44,2.65-4.9,5.28-7.39,7.88Zm10.79-20.37c1.23-2.54,3.04-4.74,4.56-7.11-1.48,2.39-3.01,4.75-4.55,7.11,0,0-.01,0-.02,0Zm28.71-80.85c.51-1.34,1.02-2.68,1.53-4.02-.12.37-.24.75-.36,1.12-.5,1.61-1,3.2-1.79,4.69.21-.6.42-1.2.63-1.8,0,0,0,0,0,.01Zm-32.62,103.25c1.03-1.21,2.06-2.42,3.1-3.62-.91,1.22-1.85,2.42-2.79,3.62h-.3Zm1.63,0c4.22-6.05,8.55-12.01,12.62-18.16-.72,1.47-1.47,2.92-2.28,4.34-2.98,4.77-6.11,9.49-9.72,13.82h-.62Zm65.83,0h-61.84c29.22-34.43,20.1-81.58,38.58-121.23,2.75-4.1,5.89-7.91,9.21-11.56,8.29,3.88,14.04,12.3,14.04,22.06v110.74Z"/>
</svg>