<svg id="Layer_1" data-name="Layer 1" xmlns="http://www.w3.org/2000/svg" viewBox="0 0 700 700">
  <defs>
    <style>
      .cls-1s-n08 {
        fill: #231f20;
      }
    </style>
  </defs>
  <path class="cls-1s-n08 second-color" d="m423.75,468.32c-.44,1.12-.84,2.19-1.18,3.23-.35,1.04-.52,1.96-.52,2.77,0,.62.14,1.15.43,1.59.29.44.78.74,1.47.9.61-1,1.27-2.22,1.96-3.67.69-1.44,1.28-2.96,1.76-4.56.48-1.6.72-3.09.72-4.48,0-1.65-.44-3.03-1.33-4.13-.89-1.1-2.46-1.65-4.74-1.65-2.5,0-4.76.49-6.79,1.47-2.02.98-3.75,2.26-5.2,3.84-1.44,1.58-2.55,3.25-3.32,5.02-.77,1.77-1.15,3.46-1.15,5.08,0,1.73.42,3.22,1.27,4.45.85,1.23,1.93,2.32,3.26,3.26,1.33.94,2.74,1.84,4.25,2.68,1.5.85,2.92,1.73,4.24,2.66,1.33.92,2.42,1.98,3.26,3.18.85,1.19,1.27,2.62,1.27,4.27,0,1.85-.53,3.4-1.59,4.65-1.06,1.25-2.42,2.19-4.07,2.83-1.66.64-3.35.95-5.08.95-2,0-3.66-.38-4.97-1.13-1.31-.75-2.28-1.74-2.92-2.97-.64-1.23-.95-2.56-.95-3.99,0-1.35.27-2.69.81-4.04.54-1.35,1.33-2.58,2.37-3.7-1.04,0-2.14.23-3.29.69-1.16.46-2.13,1.25-2.92,2.37-.79,1.12-1.18,2.68-1.18,4.68,0,2.31.57,4.24,1.7,5.78,1.14,1.54,2.63,2.68,4.48,3.44,1.85.75,3.81,1.12,5.89,1.12,1.77,0,3.54-.27,5.31-.81,1.77-.54,3.4-1.33,4.88-2.37,1.48-1.04,2.67-2.32,3.55-3.84.89-1.52,1.33-3.28,1.33-5.28s-.41-3.63-1.24-5c-.83-1.37-1.9-2.55-3.21-3.55-1.31-1-2.7-1.91-4.19-2.74-1.48-.83-2.88-1.65-4.19-2.48-1.31-.83-2.38-1.75-3.21-2.77-.83-1.02-1.24-2.24-1.24-3.67,0-1.19.32-2.52.95-3.98.64-1.46,1.53-2.86,2.69-4.19,1.15-1.33,2.5-2.42,4.04-3.26.84-.46,1.72-.78,2.64-1-.18.36-.2.72.07.92,1.34,1.02,3.17.7,5.43.45.07.26.12.53.12.84,0,.85-.17,1.8-.52,2.86-.35,1.06-.74,2.15-1.18,3.26Z"/>
  <path class="cls-1s-n08 second-color" d="m291.59,464.16c-1.73,5.89-3.25,10.99-4.56,15.3-1.31,4.31-2.45,8.04-3.44,11.17-.98,3.14-1.82,5.84-2.51,8.11-.69,2.27-1.27,4.33-1.73,6.18.69,0,1.35-.3,1.96-.89.62-.6,1.27-1.68,1.96-3.26.69-1.58,1.49-3.82,2.4-6.73.9-2.91,2.01-6.66,3.32-11.26,1.31-4.6,2.89-10.23,4.74-16.89.19,1.23.42,2.78.69,4.65.27,1.87.57,3.92.9,6.15.33,2.23.66,4.51,1.01,6.84.35,2.33.68,4.57,1.01,6.73.33,2.16.64,4.11.92,5.86.29,1.75.53,3.13.72,4.13.31,1.73.84,2.95,1.59,3.64.75.69,1.72,1.04,2.92,1.04.04-1.5.24-3.44.61-5.8.37-2.37.87-5,1.5-7.88.64-2.89,1.36-5.88,2.17-8.98.81-3.1,1.64-6.14,2.48-9.13.85-2.98,1.68-5.76,2.51-8.32.83-2.56,1.57-4.73,2.22-6.5-.85,0-1.62.35-2.31,1.04-.69.69-1.14,1.29-1.33,1.79-.15.35-.45,1.18-.89,2.51-.44,1.33-.96,2.98-1.56,4.97-.6,1.98-1.24,4.16-1.93,6.53-.69,2.37-1.36,4.79-1.99,7.28-.64,2.48-1.21,4.87-1.73,7.16-.52,2.29-.91,4.34-1.18,6.15-.15-.92-.33-2.1-.52-3.52-.19-1.42-.4-2.99-.63-4.71-.23-1.71-.46-3.52-.69-5.43-.23-1.91-.46-3.82-.69-5.75-.27-2.31-.56-4.54-.87-6.7-.31-2.16-.69-4.09-1.15-5.8-.46-1.71-1.07-3.06-1.82-4.04-.75-.98-1.7-1.47-2.86-1.47s-2.34.33-3.67.98c-1.33.66-2.59,1.53-3.78,2.63-1.19,1.1-2.18,2.3-2.95,3.61-.77,1.31-1.15,2.62-1.15,3.93,0,.92.26,1.7.78,2.34.52.64,1.42.95,2.69.95-.19-.58-.29-1.25-.29-2.02,0-.92.17-1.97.52-3.15.35-1.17.82-2.3,1.41-3.38.6-1.08,1.31-1.97,2.14-2.69.83-.71,1.7-1.07,2.63-1.07.31,0,.53.13.66.37.13.25.2.57.2.95,0,.42-.05.88-.14,1.36-.1.48-.18.82-.26,1.01Z"/>
  <path class="cls-1s-n08 second-color" d="m329.24,486.91c.85,0,1.53-.17,2.05-.52.52-.35.78-1,.78-1.96,0-1.31-.5-2.36-1.5-3.15s-2.25-1.18-3.75-1.18-3.01.38-4.53,1.15c-1.52.77-2.97,1.8-4.33,3.09-1.37,1.29-2.59,2.72-3.67,4.27-1.08,1.56-1.93,3.14-2.54,4.74-.62,1.6-.92,3.09-.92,4.48,0,1.62.41,2.82,1.24,3.61.83.79,1.84,1.18,3.03,1.18,1.42,0,2.82-.56,4.19-1.68,1.37-1.12,2.88-2.79,4.53-5.02-.04.31-.08.61-.12.9-.04.29-.06.55-.06.78,0,1,.34,1.93,1.01,2.77.67.85,1.72,1.27,3.15,1.27s2.8-.44,4.24-1.33c1.44-.89,2.8-2.12,4.07-3.7.45-.56.87-1.17,1.26-1.8-.11.65-.16,1.24-.16,1.74,0,1.35.37,2.49,1.1,3.44.73.94,1.85,1.42,3.35,1.42,2.27,0,4.46-.89,6.55-2.66,1.35-1.14,2.49-2.6,3.44-4.38-.04.46-.06.9-.06,1.32,0,1.69.36,3.11,1.07,4.24s1.9,1.7,3.55,1.7c2.08,0,4.02-.95,5.83-2.86.66-.7,1.3-1.49,1.93-2.36.1.78.29,1.56.58,2.33.44,1.16,1.19,2.13,2.25,2.92,1.06.79,2.49,1.18,4.3,1.18,1.65,0,3.15-.39,4.48-1.16,1.33-.77,2.3-1.98,2.92-3.64,1.73-.27,3.33-.95,4.79-2.05,1.46-1.1,2.56-2.7,3.29-4.82l-.52-.58c-1.12,2.16-2.27,3.72-3.46,4.71-1.19.98-2.46,1.59-3.81,1.82.12-.42.2-.87.26-1.36.06-.48.09-.97.09-1.47,0-1.77-.25-3.47-.75-5.11-.5-1.64-1-3.2-1.5-4.68-.5-1.48-.75-2.86-.75-4.13,0-.65.06-1.19.17-1.62.12-.42.17-.73.17-.92s-.08-.37-.23-.52c-.15-.15-.39-.23-.69-.23-.54,0-1.05.3-1.53.9-.48.6-.72,1.61-.72,3.03v.69c-.73,1.54-1.58,3-2.54,4.39-.96,1.39-2.02,2.71-3.18,3.99-.15.15-.43.31-.84.46-.1.04-.2.09-.29.14l-.26-.14c-.05.12-.12.23-.17.35-.18.1-.36.21-.55.34-.44.31-.82.77-1.13,1.39-.26.53-.41,1.27-.45,2.21-.02.02-.03.05-.04.08-.9,1.41-1.87,2.57-2.89,3.49-1.02.92-2.05,1.39-3.09,1.39-.85,0-1.48-.37-1.91-1.1-.42-.73-.64-1.85-.64-3.35,0-.89.07-1.82.2-2.8.13-.98.32-1.99.55-3.03,1.69-1.39,3.3-3.04,4.82-4.97,1.52-1.92,2.93-3.94,4.22-6.03,1.29-2.1,2.41-4.18,3.35-6.24.94-2.06,1.67-3.93,2.19-5.6.52-1.68.78-3.03.78-4.07,0-.04,0-.1,0-.14.38-.07.75-.19,1.13-.4-.36-.46-.8-.76-1.29-.9-.02-.13-.04-.24-.07-.37-.15-.67-.37-1.25-.63-1.73-.27-.48-.62-.72-1.04-.72-.66,0-1.55.66-2.69,1.96-1.14,1.31-2.38,3.06-3.72,5.25-1.35,2.19-2.69,4.63-4.04,7.31-1.35,2.68-2.59,5.42-3.72,8.23-1.14,2.81-2.05,5.49-2.74,8.03-.21.78-.38,1.52-.53,2.24-1.5,2.85-2.93,4.88-4.29,6.08-1.48,1.31-2.88,1.96-4.19,1.96-.96,0-1.68-.23-2.14-.69-.46-.46-.69-1.39-.69-2.77s.3-2.76.9-4.24c.6-1.48,1.3-2.9,2.11-4.25.81-1.35,1.51-2.54,2.11-3.58.6-1.04.9-1.79.9-2.25,0-.42-.13-.74-.38-.95-.25-.21-.55-.32-.9-.32-.77,0-1.56.41-2.37,1.24-.81.83-1.57,1.9-2.28,3.21-.71,1.31-1.34,2.7-1.88,4.19-.29.79-.54,1.55-.76,2.3-1.59,2.68-3.16,4.73-4.72,6.13-1.69,1.52-3.06,2.28-4.1,2.28-.69,0-1.19-.28-1.5-.84-.31-.56-.46-1.13-.46-1.7,0-.69.17-1.43.52-2.22.35-.79.73-1.57,1.16-2.34.42-.77.81-1.45,1.16-2.05.35-.6.52-1.07.52-1.41,0-.31-.14-.56-.4-.75-.27-.19-.59-.35-.95-.46-.37-.12-.66-.19-.9-.23-.04,0-.13.12-.29.35-.77,1.16-1.66,2.43-2.66,3.81-1,1.39-2.05,2.72-3.15,4.01-1.1,1.29-2.17,2.35-3.21,3.18-1.04.83-2,1.24-2.89,1.24-1.04,0-1.56-.75-1.56-2.25,0-1.12.23-2.39.69-3.81.46-1.42,1.1-2.87,1.91-4.33.81-1.46,1.73-2.82,2.77-4.07,1.04-1.25,2.12-2.25,3.23-3,1.12-.75,2.21-1.13,3.29-1.13s1.77.32,2.19.95c.42.63.64,1.4.64,2.28,0,.31-.03.65-.09,1.01-.06.37-.13.7-.2,1.01Zm41.55,1.18c.98-1.33,1.92-2.72,2.8-4.19.31,1.58.68,3.26,1.13,5.05.44,1.79.66,3.59.66,5.4,0,.58-.02,1.08-.06,1.5-.04.42-.1.83-.17,1.21-1.77-.39-3.26-1.12-4.48-2.19-1.21-1.08-2.11-2.23-2.69-3.47.89-.89,1.82-1.99,2.8-3.32Zm-3.03,5.11c.62.96,1.55,1.93,2.8,2.89,1.25.96,2.69,1.6,4.3,1.91-.42,1.27-1.02,2.06-1.79,2.37-.77.31-1.39.46-1.85.46-1.5,0-2.67-.59-3.49-1.76-.83-1.17-1.24-2.45-1.24-3.84,0-1.31.42-1.98,1.27-2.02Zm-8.75-12.47c.94-2.31,1.93-4.52,2.97-6.64,1.04-2.12,2.06-4,3.06-5.66,1-1.65,1.88-2.97,2.63-3.96.75-.98,1.28-1.47,1.59-1.47.08,0,.16.06.26.17.1.12.14.37.14.75,0,.77-.23,1.86-.69,3.26-.46,1.41-1.12,2.99-1.96,4.76-.85,1.77-1.82,3.6-2.92,5.49-1.1,1.89-2.28,3.71-3.55,5.46-1.27,1.75-2.58,3.3-3.93,4.65.65-2.23,1.45-4.5,2.4-6.81Z"/>
  <path class="cls-1s-n08 first-color" d="m583.3,403.81c-1.53,10.86-.9,22.04-3.29,32.77-2.42,10.88,1.61,1.93,2.45-.74,3.18-10.01,4.56-20.25,5.21-30.64,2.15-34.28-2.45-15.13-4.38-1.4Z"/>
  <path class="cls-1s-n08 second-color" d="m346.94,474.5c.48.31,1.03.46,1.65.46.92,0,1.78-.34,2.57-1.01.79-.67,1.18-1.38,1.18-2.11,0-.65-.17-1.12-.52-1.39-.35-.27-.81-.41-1.39-.41-.92,0-1.86.3-2.8.9-.94.6-1.41,1.3-1.41,2.11,0,.66.24,1.14.72,1.44Z"/>
  <path class="cls-1s-n08 first-color" d="m544.66,445.88c3.17-.45,5.64.61,7.61-1.12-2.4-.74-4.9-2.01-7.61,1.12Z"/>
  <path class="cls-1s-n08 first-color" d="m552.39,444.76c4.92,1.57,9.15-.29,13.56-1.21-4.83-1.11-9.34-.66-13.56,1.21Z"/>
  <path class="cls-1s-n08 first-color" d="m584.68,371.89c-.6-2.44-9.24-8.74-12.32-9.15-2.74-.37-2.74-2.24-3.81-3.96-.89-1.42-2.94-8.37-3.37-10.17-.39-1.63-1.13-4.13,1.28-5.3.02-1.39-.08-2.58-1.85-2.52-1.41.05-2.82-.18-4.24-.28.31,2.37-.27,4.85-.02,7.05.42,3.75.2,7.4-.07,11.07-.16,2.19-1.27,3.36-3.53,3.47-6.34.3-12.68.79-18.51,3.98,0,0-.09-.03-.09-.03-.04,1.74-.11,2.92,2.28,2.06,10.51-3.75,21.19-3.04,31.86-.85,3.68.76,6.84,2.94,10.12,4.78.6.34,1.65,2.05,2.26-.15Z"/>
  <path class="cls-1s-n08 first-color" d="m552.26,444.76s.04,0,.06.01c0,0,.05,0,.07-.02-.04-.01-.07,0-.1,0-.01,0-.02,0-.03,0Z"/>
  <path class="cls-1s-n08 first-color" d="m28.93,449.42c3.59.22,5.47.53,8.08-.44-3.17-1.89-4.79-.83-8.08.44Z"/>
  <path class="cls-1s-n08 first-color" d="m671.09,401.25c1.97.33,3.67-.23,5.33-.89,2.27-.19,4.65.55,6.95-.46-2.34-.95-4.7-.29-6.98-.38-1.35,0-2.69,0-4.04.02-3.21-.04-6.48-.62-9.5.72-1.32.03-2.64.06-3.96.09l-.51.02c-2.84-.68-5.67-1.35-8.51-2.03-2.89-1.46-6.02-.92-9.11-.78-1.01-.26-2.22-.38-3.37-.49-.25-.12-.56-.17-.64-.5,7.45-.25,15,.41,22.32-1.23,1.95.07,3.94.48,5.89-.36-1.95-.83-3.94-.41-5.89-.35-2.4-.04-4.8-.09-7.21-.12-3.61-.05-7.57.78-10.12-2.08,0-.31.02-.63.02-.94,1.97-.26,4.5.83,6.57-1.52-2.75.26-4.63.43-6.52.6-.96,0-1.93,0-2.89,0-2.64-.03-5.28-.06-7.92-.08-4.9-.13-9.54-2.47-14.65-.94-.98-.27-1.97-.55-2.96-.83-1.76-.21-3.53-.43-5.3-.65.9-.33,1.8-.66,2.7-1,1.34-.16,3.05.08,4-.5.43,0,.84-.03,1.22-.11,1.38-.19,2.76-.39,4.12-.58-.44-1.14-5.98-.14-5.2-1.74,1.28-.15,2.56-.3,3.85-.44l-.22-.19c.16,0,.31,0,.47.02-.08.06-.17.12-.26.17,2.75,1.28,5.67,2.03,9.35.41,2.64,0,5.28.02,7.93.02.77.13,1.47.2,1.98.13,1.99.11,3.9-.28,6.43-.37-2.38-.97-4.16-.07-5.76-.24-2.08-.35-4.16-.69-6.24-1.04-.07-.07-.1-.16-.1-.23,0-.06.02-.12.05-.17.42-.14.84-.29,1.27-.43,2.79-.07,5.68.02,8.33-.24,2.79-.27,1.48-.69-.3-.93.37-.15.74-.3,1.11-.45,2.09.13,3.8-.15,5.24-.69.3.06.62.08.96.08,1.2.09,3.18.31,3.36-.12.3-.76-1.7-.69-3.19-.65-.35,0-.68-.05-.98-.12.46-.17.93-.35,1.41-.52,1.73,0,3.46,0,5.19-.02.88.05,1.78.09,2.66.14,2.02.68,4.34.43,7.74.31-2.82-.36-4.66-.6-6.5-.83-2.03-.17-.98-2.37-5.24-1.09-.51-.11-1.03-.22-1.55-.32.54-.21,1.08-.41,1.63-.61h5.19c-2.83-.6-4.82-1.03-6.81-1.45.07-.17.17-.32.25-.49l2.78-.94c1.4-.15,2.84.47,4.69-.2-1.71-.3-3.26-.56-4.8-.83-1.32-.17-2.65-.35-3.98-.52-2.28-.74-5.47-.52-7.97-1.03.47-.16.94-.31,1.42-.46,1.71-.02,3.52.18,5.08-.27h0c.92,1.02,3.29.79,5.32.84,1.43.69,3.51.42,5.34.5,1.11.48,2.5.57,4.1.4.04-.73-1.69-.65-2.79-.84-1.79-.15-3.56-.3-5.34-.45-2.1-.43-4.35-.55-6.71-.46h0c-3.11-1.4-7.92-1.03-11.87-1.56-1.74-.17-3.48-.33-5.23-.5,3.31-.35,6.27-1.07,6.94-4.33-.14-.12-.27-.26-.41-.39.04,0,.07,0,.11-.02l.31.41c1.48-.92,5.5.09,4.18-2.98,1.23,0,2.46-.02,3.69-.03,1.9,3.28,3.87-.22,5.8.02l.38.17.41-.14c2.68-.47,5.8.73,8.12-1.14-1.45-1.25-2.89-2.5-4.33-3.75-2.58.05-5.45-1.5-7.66.72,0,0,0,0-.02,0l-.38-.2-.41.17c-.07-.89-.15-1.79-.22-2.7,2.09-.11,4.18-.22,6.28-.33,1.58.12,3.24.55,4.68-.48-1.52-1.67-3.11-.7-4.63-.36-2.65-.06-5.32-.12-7.98-.18.21.14.25.3.1.49-.2-.02-.4-.02-.6-.03.17-.15.33-.31.5-.45-1.27-.55-2.56-1.1-3.83-1.65,1.85-.32,3.7-.65,5.53-.98h.04c.75-.03,1.51-.07,2.26-.11,3.55-.44,7.38.76,10.71-1,.89-1.18,2.51-.87,3.89-1.03,2.86-.06,5.99.65,8.39-1.56-3.14-.69-5.82-.37-8.39.7-2.24.02-4.49.05-6.74.07-1.36-.24-3.17.38-3.85-1.12.45,0,.88-.05,1.31-.13,3.29.1,6.74.68,10.15-1.72h-10.15c-.4-.34-.79-.68-1.2-1.02,1.68-.12,3.35-.22,5.03-.34,2.94.33,5.76.04,9.24-.65-3.98-1.77-7.27-.96-10.56-.23-2.68,0-5.35.02-8.03.03-.65.23-1.28.47-1.93.7-.61-.54-1.22-1.07-1.84-1.6,1.36-.64,2.73-1.27,4.09-1.9,1.76-.3,3.79.6,5.89-.98-3.25-.21-6.14-.02-8.73-.91-1.72,0-3.44-.02-5.16-.04-3.18-.41-6.19.22-9.21.76l-.39.17c.16-.31.16-.61,0-.91,1.16-1.76,4.23-.51,5.6-1.93.75.21,1.51.42,2.27.63,3.24-.19,6.77,1.33,9.67-.9,6.83-2.48,14.8.95,22.6-2.55-2.51-.12-3.98-.17-5.43-.25-7.5.76-15,.8-22.49-.02-.9,0-1.79,0-2.7-.02-3.61.48-7.53-.93-10.91.98-.84.02-1.68.03-2.51.05-1.08-.14-2.51-.15-2.7-1.07-.28-1.31,1.36-.92,2.25-.93,7.26-.04,14.52-.02,21.78-.02-3.97-1.15-7.85-2.71-11.89-.98-2.39-1.9-5.35-.74-8.08-.82-4.45-.08-8.9-.17-13.35-.25-.25-.23-.5-.24-.79-.03h0c-3.16-1.17-6.62-.24-9.87-.83-2.17-1.99-5.12-2.12-8.23-1.88h0c-.37-.07-.72-.17-1.06-.3.12-.65,2.43-1.16.93-1.6-1.76-.53-4.44-.77-5.04,1.59-.41.1-.82.11-1.23.03-.74-.84-1.63-1.12-3.15-1.27-7.39-.71-15.04.5-22.25-1.56,3.53,0,7.06,0,10.59,0,.5,0,1-.02,1.51-.02h5.38c.06-.25.12-.49.17-.74-.95-.11-1.9-.22-2.85-.34,1.26-1.6,4.3,0,5.69-1.74-3.01-2.27-6.73-.24-9.88-1.03.03-.33.07-.66.1-.99,2.2-.06,4.4-.11,6.61-.16h11.88c0-.26,0-.51-.02-.77h-11.86c-5.28-.03-10.55-.04-15.83-.07-2.79.02-5.58.03-8.37.05-8.37,0-16.75-.02-25.12-.03-5.23-1.02-10.52-1.11-15.82-1.03l14.3-20.1,41.65-41.65,6.12,6.12c3.77,3.77,9.88,3.77,13.65,0l32.32-39.15c3.77-3.77,3.77-9.88,0-13.65l-9.32-9.32c-3.77-3.77-9.88-3.77-13.65,0l-38.25,33.22c-3.77,3.77-3.77,9.88,0,13.65l6.12,6.12-41.65,41.65-24.49,17.43,2.14,2.14,6.8-5.62-6.41,6,2.91,2.91,4.35-3.43-3.22,3.82c-.14,0-.28,0-.41,0-2.03.04-4.94-1.29-5,1.77-1.84.34-3.69.68-5.53,1.02-4.06.1-7.89-1.5-12.01-.88-.81-.07-1.62-.13-2.43-.2.83-1.18,2.4-.8,3.7-.97,1.06-.17,2.89.63,2.98-.7.07-1.09-1.7-1.1-2.94-1.17-2.44.31-7.04-1.58-5.4,2.89-2.17.02-4.33.06-6.5.08h0s-.14,0-.14,0c-2.71,0-4.66,1.44-7.03,2.09-2.22-1.32-4.94-1.13-7.53-1.31q-3.66-2.82-7.39-1.66c1.15,1.31,3.92.44,4.85,1.98.8.34,1.6.67,2.41,1.01-3.62,1.99-8.34-.48-11.93,1.6-.88.1-1.75.21-2.63.31-.91-.05-1.82-.09-2.73-.14-.13-.74,2.94-1.1.66-1.91-2.58-.93-5.61-1.63-5.95,1.84.07.09.15.17.22.26-.13,0-.27,0-.41.02l.18-.27c-1.36.1-2.74.19-4.1.28-8.48-.17-16.96-.49-25.35.76l-1.36.92c-.43.03-.87.06-1.3.09-2.8-1.9-6.1-.84-9.22-.84-4.41-2.22-8.22-1.67-11.15,1.54-1.92,2.09-4.56,2.37-7.56,2.22-1.47-1.5-3.58-.71-5.43-.82.3.29.24.56,0,.83v.17s-.08-.02-.12-.04c.04-.04.08-.08.12-.12,0-.28,0-.55,0-.83-.41-3.77-3.33-3.28-6.64-2.12-1.91-1.31-4.04-1.88-6.56-1.01-3.28-1.41-4.85-.94-4.14,2.05-.02.56-.04,1.12-.06,1.69-.87.07-1.73.14-2.6.21-.02-1.29-.94-1.91-2.66-1.94-.33-1.86,1.48-3.67-.02-5.94-3.68,2.81-8.05.72-12.16,1.08-.88.02-1.76-.03-2.62.07-1.45.16-3.87-1.03-4.12.81-.26,2.03,2.3,1.89,4.27,1.94.43,0,.86.12,1.29.18,0,.14,0,.28,0,.43,0,.14,0,.29,0,.43-1.47,1.62-3.77.6-5.64.96-2.63.26-2.36,1.7-2.33,3.06-1.72.66-3.43,1.32-5.16,1.98-.6-.08-1.19-.12-1.77-.12-1.84,0-3.57.41-5.23,1.11-2.09-1.28-4.12.19-6.19.06-.05-.02-.1-.04-.15-.07h0s-.08.03-.12.04c-.66-.8-1.7-1.07-2.9-1.07h0c-2.17-1.66-4.49-1.08-6.81-.23-1.73.33-3.72-.19-5.2.9-3.35,1.16-7.56-1.92-10.52,1.16-4.92-.73-9.82-1.17-14.67.23-.39-.12-.78-.22-1.17-.31.63-1.77.46-3.12-2.78-2.82.18-.72,1.58-1.54.51-2.07-1.12-.55-2.59.17-3.27.89-1.13,1.21.49,1.1,1.41,1.25.46.92,2.89,1.38,1.18,2.8l.11.18c-6.24.2-12.62-1.03-18.69.96-4.18,1.96-5.43-3.28-9.31-2.05-2.7-.4-5.77-2.41-7.63.94-3.27.12-6.57-1.47-9.81.12-1.8.31-3.6.64-5.4.95-.05-.22-.07-.41-.07-.59,0-1.55,1.74-2.04,3.48-2.75,1.94-.8,3.17-2.03-.33-2.69-3.93-4.32-8.1-4.73-16.73-1.03,5.84-.13,11.05-2.27,15.03,1.16-2.02,1-4.36.84-6.62.99-1.36,0-2.71,0-4.07,0-2.72.04-5.44.08-8.16.12h0c-.36.03-.72.04-1.08.02.37-1.72,1.19-3.68-2.93-2.98h0c-1.47-.12-2.64.37-3.72,1.03-2.72.16-5.62-.66-8.12.78-2.32.36-4.86-.22-7,.91h0c-1.23.07-3.01-.21-3.14.97-.07.65,1.35,1.4,2.1,2.1-1.36.18-3.06-.36-3.9.96-1.77.4-3.54.79-5.31,1.19-2.18.03-4.37.07-6.56.1-.02.17-.06.35-.12.51.02.07.04.13.06.2-.04,0-.08,0-.12,0,.02-.07.05-.12.07-.19-.06-.18-.07-.36.12-.51-.03-.36-.07-.72-.11-1.08,1.24-.5,3.07.07,3.9-1.17,1.58-.55,3.86.6,5.29-1.39-2.9-.74-5.39-.53-7.84.52-5.85.36-11.45,2-17.42,1.78,0-.28.02-.55.05-.83h0c.75-.54,1.97-1.38-.21-1.34-1.7.02-3.18.98-3.87,2.32.35.63.69,1.26,1.04,1.89,3.16,2.06,6.38-.83,9.56.07-.07.59-.13,1.17-.19,1.76-6.22.06-11.59,1.57-15.88,4.99h0c-.41-.05-.79,0-1.16.14-2.74-.34-5.32-2.08-8.28-.51-.38.05-.73.16-1.05.31-.46.08-.93.17-1.4.26-2.77.29-5.74-.68-8.33.73-3.47-.74-6.83.12-10.23.4-3.11-.06-6.22-.12-9.32-.17-2.17.83-5.07-2.03-6.87.72-.4.11-.78.22-1.16.36-6.71.65-13.43,1.3-20.14,1.95-1.75.33-3.51.66-5.27.99-3.95,1.06-8.77.34-11.88,3.13-2.36-.17-4.61.06-6.71.92-1.78.3-3.56.6-5.34.89-1.1.41-2.83.25-2.8,1.7,1.61.36,3,.17,4.1-.79,1.84-.15,3.92.38,5.35-.99,2.03-.12,4.4.36,5.32-1.68h0c1.55.9,3.36.49,5.07.54.48.31.95.62,1.42.93-2.51,1-5.69.55-7.97,2.04-1.32.35-2.65.69-3.98,1.04-1.54.53-3.08,1.06-4.8,1.65,1.85,1.36,3.29.11,4.69.4.93.64,1.85,1.27,2.78,1.9.09.32.17.65.26.96-1.41.6-3.13,1.33-4.84,2.07-1.42-.56-3.27-.49-4.94-.55h-10.57c-.02.09-.04.18-.06.28,3.97.22,7.95.45,11.92.67.92-.02,1.91-.06,2.88-.08-.45.2-.72.31-1.22.52h5.18s.07.06.1.08c-4.94.08-9.87.26-14.81,0-1.46.03-2.92.07-5.44.12,6.02,1.35,12,.89,17.62,1.07-1.21.49-1.23,2.53-2.63,2.77-.74.19-1.82.46-2.62.67-2.52-.23-5.11-.36-8.12.31,2.27.22,4.12.19,6.05.22-.65.17-1.03.26-1.81.46,2.82.22,4.82.36,6.6-.3,1.14.03,2.28.07,3.42.12-.4.17-.8.34-1.2.5h-10.16c3.42,1.2,6.86.91,10.16.86.43.05.87.07,1.31.07-.69.74-2.5.44-3.85.56-2.25-.02-4.49-.03-6.74-.04-2.57-.54-5.25-.69-8.39-.35,2.41,1.1,5.53.74,8.39.78,1.38.08,3-.07,3.88.51,3.33.89,7.17.28,10.72.5.75.02,1.51.03,2.26.05,1.86.17,3.71.33,5.57.5-1.27.28-2.56.55-3.83.83l.5.22c-.2,0-.4,0-.6.02-.16-.09-.12-.17.1-.24-2.66.03-5.32.06-7.98.09-1.53-.17-3.11-.65-4.63.18,1.44.51,3.1.3,4.69.24,2.08.05,4.18.11,6.27.17-.07.45-.15.89-.22,1.35l-.41-.08-.39.09s0,0-.02,0c-2.2-1.11-5.06-.33-7.65-.36-1.44.62-2.88,1.25-4.33,1.87,2.32.93,5.44.33,8.12.57l.41.07.38-.07c1.93-.12,3.9,1.62,5.8-.02,1.3-.2,2.43.15,3.67.14-.47.69.28.93,1.35,1.04-.75-.05-1.55.07-2.46.8.79.06,1.5.22,2.17.41.53.11,1.05.26,1.57.47-.51-.15-1.03-.32-1.57-.47-2.6-.55-5.25-.12-7.43-.43-2.24,0-4.47,0-6.71-.02-.84-.02-1.67-.06-2.51-.08-.95.5-2.69.15-3.8.46.99-.45,2.49-.36,3.8-.46-3.46-.84-7.22-.28-11.25-.46,2,1.17,4.69.97,7.22.96,2.17,0,4.36,0,6.53-.02,1.73.02,3.46.06,5.19.08,3.08.86,6.41.36,10.54.45.87.25,1.8-.05,2.66-.14.26.07.61.02.98-.07,1.83.75,4.36,1.11,7.41,1.18,1.31.04,2.61.08,3.91.12.9.15,1.81.3,2.71.46.88.63,2.25.73,3.67.8-.33.19-.7.34-.78.74,1.36.38,2.74.77,4.12,1.16.38.15.79.22,1.22.22.95,1.17,2.66.69,4.01,1.02.92.68,1.84,1.36,2.75,2.04-.02.13.03.26.05.4h-14.81c-.02.14-.03.28-.04.42h7.86c2.34,0,4.69-.02,7.03-.02v.05c-1.12,0-2.17.17-2.89.9-.41.08-.83.16-1.25.21-1.12.53-3.42.41-3.1,1.69.09.36.45.31.73.38-.64.09-1.27.18-1.9.27-5.1-.77-9.75.4-14.65.46-2.65.02-5.28.02-7.92.04h-2.89c-.94-.04-1.89-.09-2.94-.14-1.05-.05-2.21-.1-3.58-.17,2.08,1.17,4.61.63,6.57.76,0,.16.02.31.02.47-2.56,1.43-6.5,1.02-10.13,1.04-2.4.02-4.8.03-7.2.06-1.01-.02-2.03-.08-3.05-.08-.95,0-1.89.06-2.84.26,1.95.41,3.94.22,5.89.18,7.32.81,14.87.49,22.32.61-.25.52-1.6.36-2.42.53.31.09.27.21.22.32,0,0,.02.02.02.03h-.04s.02-.02.02-.03c-.09-.11-.16-.22-.22-.32-3.57.06-7.31-.5-10.69.36-2.84.34-5.67.67-8.51,1.01h-.51c-1.32-.02-2.64-.04-3.96-.06-1.59-.35-3.24-.43-4.92-.43-1.52,0-3.05.07-4.57.07-1.35,0-2.7,0-4.04,0-2.28.04-4.64-.28-6.98.19,2.31.5,4.69.14,6.95.23,1.66.33,3.37.61,5.33.45,1.4,0,2.8-.02,4.19-.03,1.26.06,2.51.12,3.77.18-1.55.97-5.38-.34-6.64.91,2.52,1.52,6.85.72,10.27,1.08-2.98,1.01-6.75.18-10.47.63,6.58.2,12.5.98,18.74.81-.47.45-.93.88-1.41,1.33-2.46-.42-5.09-.32-7.68-.34-3.23-.05-6.48-.27-10.27.2,2.89,1.04,6.05.61,8.91.69,2.56.02,5.12.05,7.68.07-.76.41-1.79.44-2.84.44-.77,0-1.55-.02-2.26.07h-7.02c3.06.64,4.67,1.29,7.05.47,1.38.13,2.76.26,4.14.4,2.51.04,5.02.08,7.53.12,3.45.43,7.06.5,10.65.64-.07.02-.14.02-.21.03-2.44.43-5.52,1.1-5.8,3.73-.05,0-.09.02-.14.02.04.02-.04.03,0,.05-4.91-.2-9.77-.21-13.45,2.8-1.93.02-3.27.6-3.62,2.1-1.77,2.92-6.61,3.81-8.24,6.81-2.42-.49-4.23,1.03-6.5,1.07-1.35.31-2.7.62-4.04.93-1.74.03-3.27.38-4.61,2.02h5.21c1.17,2.27,3.56,2.05,6.06,1.58-.05,1.17-.28,2.43,2.13,2.42,1.03.62,2.04,1.23,3.07,1.84-1.3,2.06-5.11,1.17-6.55,3.06-1.91.41-3.82.84-6.86,1.49,3.21.48,5.13.93,6.74-.38,1.4.2,1.27.99,1.26,1.75-.33.02-.65.08-.96.18-1.86.43-3.71.87-6.7,1.56,3.21.26,5.25.82,6.52-.9,2.14.18,4.28.36,6.43.55-.37.58-.74,1.16-1.1,1.74-2.6.36-5.21.7-7.81,1.05-1.49.4-2.98.79-5.69,1.5,3.43.36,5.32.64,6.83-.58,3.08-.06,6.16-.12,9.25-.17.45.03.88.07,1.33.11.09.84-.43,1.43-1.35,1.88-2.55-.06-5.15-.25-7.28,1.71,2.05.17,3.86.31,5.67.45-.84,1.03-2.34.71-3.57.94-1.15.35-2.68.37-2.68,1.72,1.53.31,2.92.22,4.09-.65,1.7-.09,3.4-.19,5.1-.29,1.81.47,2.62,2.22,4.91,2.08,1.9,1.8,4.2,2.99,7.24,2.99.41,0,.82-.03,1.25-.07l.37.2.45-.02h0c3.08,1.28,6.48,1.48,9.88,1.7,1.33.33,2.65.67,3.98.99.99,1.31,2.65,1.08,4.26,1,2.56.44,4.95,1.58,7.74,1.04,1.35.39,2.55,1.16,4.16.86,3.41.34,6.81.69,10.23,1.03,4.59-1.27,9.04,2.55,13.65.2.86.02,1.71.03,2.56.05,1.05,1.09,2.76.47,4.09.85,2.8,2,6.24.65,9.35,1,3.13-.36,6.26-.73,9.39-1.08,2.48-.97,6.05.55,7.91-1.84.02.02.03,0,.05.02,2.1-.79,3.8-2.42,6.61-1.79,3.81,1.6,7.98.4,11.94.81-1.82,1.86-5.49.41-8.05,2.8,4.34-.81,9.41,2.69,11.04-2.74.39,0,.76.06,1.13.14.65.63,1.46.74,2.32.74.55,0,1.12-.05,1.67-.03,1.31-1.14,4.22-1.66,2.75-3.88-.45-.65-.88-1.3-1.32-1.94,2.25-1.19,1.43-1.87-.77-1.94-2.23-.07-2.53-.77-1.8-2.09.81-.27,1.61-.55,2.42-.82,1.07.33,2.44,1.72,3.23.36,2.01-3.45,3.51-.35,5.22.04-.76,4.04,5.03,1.5,6.36,3.45,1.07.36,2.18,1.44,3.27.7,1.15-.79.89-1.93-.49-2.72-.05-.33-.11-.66-.17-1,.17-.27.23-.56.17-.87,1.03-.75,2.26-1.06,3.69-.95,2.83,1.31,5.86,2.08,9.26,1.9-.47.83-3.27.81-1.52,2.48,1.17,1.11,1.79,2.81,4.35,1.38l.52.07.52-.02c.23,1.38,1.22,2.03,3.15,1.81,2.16,0,4.32.02,6.48.02,1.35.38,2.69.76,4.04,1.14-.32-.34-.17-.66.05-.98v-.08h.05s-.03.06-.05.08c-.02.33-.03.64-.05.98,3.93,1.08,7.91,1.55,12.02.54,3.19,2.33,7.13.88,10.72,1.16-.08-.12-.07-.23-.02-.34,0-.12-.02-.24-.04-.36.03,0,.07,0,.09,0,.06,0,.12,0,.17,0-.06.12-.17.25-.22.37.02.12.02.22.02.34,3.13.03,6.27.07,9.4.12,3.38.1,6.76.2,10.15.3,11.74,1.42,23.46-.12,35.2-.19,3.58-.03,7.16-.07,10.74-.11,4.88.05,9.75.09,14.62.14,2.67.41,5.34.66,8.03.07-.26-.26-.21-.52-.07-.77,0-.09-.02-.18-.03-.27.07-.02.12,0,.18,0-.06.09-.11.18-.15.27.02.25.05.51.07.77,7.12-.07,14.22-.15,21.34-.22,2.22.04,4.44.09,6.65.14-.16-.21-.07-.38.05-.55l.02-.3h.17c-.04.1-.12.2-.19.3,0,.18-.02.36-.05.55,2.68,0,5.35-.02,8.02-.04-.17-.22-.1-.4.02-.57,0-.1,0-.2,0-.3h.17c-.05.1-.12.2-.18.3,0,.19,0,.38-.02.57,3.12.65,6.21.23,9.31-.07,0-.16,0-.31,0-.48-.07-.12-.17-.23-.24-.35h.24v.35c.09.15.14.3,0,.48,2.22-.02,4.42-.03,6.64-.05,3.05-.02,6.12.15,9.12-.29.99,0,2.05-.3,3.08-.51.74.02,1.48.02,2.22.04,2.52,1.37,5.44.59,8.17.8,2.31.76,4.63,1.6,6.85,1.6,1.88,0,3.69-.6,5.37-2.34.85-.08,1.7-.17,2.56-.26,2.87.08,5.77.37,8.47-.7,1.56.21,3.13.44,4.7.65,1.79.5,3.54,1.18,5.39,1.44,1.98.27,4.06.15,2.96-2.13.83-.11,1.65-.21,2.47-.31.92.11,1.83.22,2.74.33.28,1.94,2.23,1.79,4.08,1.77,3.18-.17,6.5.57,9.48-.84,2.14-.08,4.28-.17,6.41-.25-.09-.13-.08-.26-.03-.38.02.12.04.26.03.38,3.23-.1,6.65.91,9.6-.86h0c1.33-.31,2.66-.62,4-.93,2.34,1.77,5.15.75,7.8.72,1.81-.31,3.63-.63,5.44-.95-.09-.12-.06-.23,0-.33v-.27c.06,0,.11,0,.17-.02-.02.1-.11.19-.17.29,0,.11,0,.21,0,.33,2.63.03,5.25.06,7.87.07,2.75-.34,5.48-.68,8.22-1.02-.07-.27-.13-.55-.2-.82h-5.26c-.44-.29-.87-.58-1.31-.87,1.71-.11,3.41-.21,5.11-.31-.25-.09-.41-.24-.55-.4.18.13.37.26.55.4,2.87.17,5.76.5,8.43-.68,1.21-.06,2.41-.12,3.62-.19,1.51.04,3.08.23,4.14-.89.89-.05,1.79-.11,2.69-.17,1.73-.31,3.46-.62,5.18-.93.95.32,1.9.65,2.85.98,1,.07,1.97.1,2.84-.18.24,1.53.45,2.84.64,3.96.65,3.85,3.98,6.67,7.89,6.67h41.37c4.27,0,7.91-3.08,8.61-7.29.43-2.58.97-6.08,1.66-10.79h.61c4.5,1.31,9.12.65,13.72.5,2.85-.04,5.85.26,7.81-1.85v-.02.02c1.82-.33,3.63-.66,5.45-.98.44.02.88.06,1.33.08,2.29.22,4.37-.12,5.77-.62.64-2.38-5.25.21-2.89-3.12.35-.06.69-.12,1.03-.2h0s4.8,0,4.8,0c-1.36-.79-2.29-1.31-3.22-1.85l-.03-.02h7.8c-3.12-2.22-5.41-2.11-7.84-.98-2.03-.28-4.14-.43-5.3-1.98,2.74-.44,5.72.26,8.29-.98-.32.13-.65.15-.99.04.04-.04.05-.07.1-.12h.02c.3.03.59.06.88.08,1.23-.02,2.46-.06,3.68-.08,4.33,1.1,7.07-1.6,11.16-2.54-4.51-.47-8.48-.88-12.47-1.31-.65-.54-1.54-.93-2.27-1.41.99-.12,2.04-.12,3.06-.21.02,0,.03,0,.05,0,1.6.04,3.27.17,4.26-.5,1.33-.17,2.65-.33,3.98-.5,3.4-.11,6.81-.21,9.88-.84h.46s.37-.09.37-.09c3.67.19,6.33-.44,8.48-1.46,2.29.07,3.1-.81,4.91-1.04,1.7.05,3.41.1,5.1.15,1.17.43,2.56.48,4.09.32,0-.67-1.54-.68-2.69-.86-1.23-.12-2.72.04-3.57-.47,1.82-.07,3.62-.14,5.67-.22-2.13-.98-4.73-.88-7.28-.86-.92-.22-1.44-.51-1.35-.93.45-.02.88-.03,1.32-.05,3.09.02,6.17.05,9.25.07,1.51.61,3.4.47,6.84.3-2.72-.36-4.21-.55-5.7-.74-2.6-.18-5.2-.36-7.81-.53-.36-.29-.73-.58-1.1-.87,2.14-.09,4.28-.18,6.43-.27,1.28.86,3.32.58,6.52.45-2.99-.36-4.84-.57-6.7-.79-.31-.05-.62-.08-.96-.09,0-.37-.14-.78,1.27-.87,1.61.65,3.52.43,6.73.19-3.04-.33-4.95-.54-6.86-.74-1.43-.94-5.25-.5-6.55-1.53,1.03-.31,2.05-.61,3.07-.92,2.42,0,2.18-.62,2.13-1.22,2.51.24,4.89.36,6.06-.79h5.21c-1.35-.82-2.87-.99-4.61-1.01-1.35-.15-2.7-.31-4.04-.46-2.27-.02-4.08-.78-6.5-.53-.19-.17-.67-.24-.93-.39.85-.29,1.84-.22,2.49-1.02-1.27-2.49-5.1.13-6.65-1.81,1.26-.12,2.51-.24,3.77-.36,1.4.02,2.8.04,4.19.06Zm-35.72-49.34h0s-.02,0-.02,0c0,0,.02,0,.02,0Zm-3.09,26.37s-.11-.07-.11-.11h.22c-.07.03-.07.07-.12.11Zm-.18-9.87c.08.11.15.2.2.31,0,.02.02.02.03.03h-.02s0-.02-.02-.03c-.09-.07-.24-.15-.24-.23,0-.02,0-.05.04-.07Zm4.13,1.29c.07,0,.14-.02.22-.03.36-.31,1.02-.36,1.84-.26,0,0,.02,0,.03,0h.02s-.03,0-.05,0c-.61.08-1.22.17-1.84.26-.02,0-.03.02-.05.04-.06,0-.11,0-.17,0-.78.22-1.5.31-2.17.31-1.37,0-2.58-.36-3.8-.69,1.98.12,3.99.25,5.97.38Zm-10.53-31.41s0,.08,0,.12c-.02,0-.04.02-.07.02-.02-.05,0-.1-.03-.15.03,0,.06,0,.09,0Zm-2.89,42.36h.09s-.07.02-.09.04v-.04Zm0,.31c.36.17.83.15,1.22.26-.41-.03-.82-.05-1.22-.07,0-.06,0-.12,0-.19Zm-8.72-51.3c.02.07.07.07.1.14-.14-.07-.31-.02-.45-.12.12,0,.23-.02.35-.02Zm-44.39-9.26s-.02.04-.03.07h-.05s.06-.05.08-.07ZM47.56,362.34c-.35.15-.7.3-1.05.45-.74-.46-1.17-.47-1.63-.55.88.04,1.83,0,2.68.11Zm1.55,3.51c-1.63,0-3.26,0-4.88,0,.31-.03.62-.07.93-.1,1.73.02,3.46.02,5.19.04.18.13.36.26.54.4-.6-.11-1.19-.22-1.78-.33Zm11.82,10.92h-.02l.22-.15s.07,0,.11,0c-.1.05-.2.1-.3.14Zm6.76-29.8s0,.02,0,.03h0s0-.02.02-.03c.05-.21.12-.41.2-.61h0s0,0,0,0h0c.12.25-.11.42-.2.62Zm21.43-2.83s0,.02,0,.02h0v-.02Zm-.6,7.29c.06-.17.24-.16.27-.36.13.04.27,0,.4.07-.16.21-.47.15-.67.3Zm-47.04,45.97c.13.07.27.12.31.21-.1-.07-.21-.13-.31-.21Zm8.66-.81c-.12-.1-.46-.09-.65-.17.22.02.45.05.69.07-.02.03-.02.07-.04.1Zm2.76.35h.02-.02s0,0,0,0Zm.04,4.48s-.07-.06-.12-.08c.07,0,.12-.02.19-.02-.05.03-.04.07-.07.11Zm4.04-5.04s0-.09,0-.13c.02,0,.03,0,.05,0,0,.04,0,.08.02.12,0,0-.04,0-.07,0Zm3.39.11h-.13s.12,0,.17,0c0,0-.02,0-.03,0Zm-3.22,33.5s.03-.02.05-.04c.02.02.06.03.07.06-.04,0-.08-.02-.12-.02Zm16.33-31.85c.23,0,.46.02.7.02-.25.04-.59.1-.84.14.06-.06.09-.12.13-.17Zm-7.26,16.27c.11-.21.21-.46.21-.94,0,0,0,0,0,0,.16.63.14,1.03-.22.95Zm1.16,17.51c.32-.05.64,0,.96-.04-.07.17.02.26,0,.39-.36-.13-.55-.2-.97-.35Zm2.72-38.49c-1.46.14-2.92.07-4.37,0,1.46-.07,2.91-.1,4.37,0,.02,0,.04,0,.07,0h0s-.07,0-.07,0Zm3.03,22.02c.52-.55,1.38-.82,2.13-.83.18,0,.38.02.56.02-.96.26-1.89.49-2.7.81Zm7.78-21.97v.07c-.07-.03-.18-.04-.26-.07.08,0,.17,0,.26,0Zm-.39,55.23h-.02s.05-.07.09-.1c.04.02.09,0,.14.03-.07.03-.14.04-.21.07Zm.41-54.27h-.21c.1-.05.15-.11.21-.17v.17Zm7.86-2.51l.07-.09c.08.02.17.04.26.07-.11,0-.22.02-.33.02Zm2.75,23.3s-.09-.05-.12-.08c.09,0,.16.02.24.02-.04.02-.09.02-.12.06Zm5.72-67.05s-.05,0-.08,0c.02-.02.06-.04.08-.06,0,0,0,.04,0,.07Zm-1.14-1.76c-.37,0-.74-.05-1.12-.2.99-.02,1.98-.05,2.98-.07-.62.12-1.23.26-1.86.26Zm5.06,70.75s-.03.02-.06.04c-.03-.04-.12-.04-.16-.08.07.02.14.02.22.03h0Zm5.29-29.57c0-.07-.07-.05-.08-.12.04.07.14.03.17.12h-.09Zm4.08-39.35c-.05-.06-.12-.1-.19-.15,0,0,.02,0,.04,0,.05.04.1.07.15.12v.04Zm1.39,73.94c-.1-.05-.17-.13-.27-.19.17,0,.27.08.45.08-.02.07-.16.05-.18.11Zm37.24-83.87s.12.07.17.12c-.07,0-.13,0-.19,0l-.02-.07s.03-.03.03-.05Zm-32.03,3.03v-.03s0,0,0,0v.03Zm8.05,103.44h0s.02-.02.02-.02t-.02.02Zm3.98,6.05s.02-.04,0-.07h.08s-.07.03-.09.07Zm4.36-26.54c.14.09.26.19.4.29-.14-.09-.31-.16-.4-.29Zm6.86,11.16c.09-.04.19-.07.27-.12,0,.03.04.07.03.11-.11-.02-.2.04-.31.02Zm2.13-8.36v-.06s.04,0,.04,0c0,0-.02.04-.04.06Zm4.18,23.89s-.02-.06-.04-.08h.11s-.04.06-.07.08Zm1.83-2.61c-.22.02-.56-.13-.79-.17.39,0,.89.1,1.27.07-.17.04-.32.05-.49.09Zm2.03,1.31v-.24c.03.07.04.17.09.24h-.09Zm12.38-41.94c-.1,6.95-.53,11.48-1.3,13.6-.51,1.13-1.5,1.81-2.95,2.03-1.53.2-2.8.3-3.84.3-1.26,0-2.51-.12-3.73-.37-1.41-.39-4.36-5.34-8.86-14.84-1.94-4.11-4.33-10-7.13-17.65l-.04-.12c-.07-.31-.22-.58-.44-.78l-.04,5.61c0,1.58.02,2.9.07,3.99.07,1.46.12,2.89.12,4.32,0,8.39-.55,13.8-1.66,16.21l-.52,1.11c-.76,1.78-2.72,2.66-5.87,2.66-3.79,0-5.95-1.27-6.5-3.8l-.63-2.29c-.27-.83-.47-1.6-.6-2.31-.14-.7-.21-1.94-.21-3.71s-.02-3.32-.06-4.63c-.03-1.32-.05-4.06-.05-8.22s.02-7.96.07-11.89c0-3.62-.09-7.24-.26-10.86l-.03-2.99c0-7.21.36-12.25,1.07-15.1.84-2.8,1.93-4.38,3.25-4.73,1.51-.49,2.99-.74,4.47-.74s2.98.3,4.43.88c1.57.55,2.98,1.43,4.21,2.66.81,1.01,1.44,2.14,1.88,3.4,1.06,2.36,2.06,5.15,2.99,8.38.47,1.55.96,3.09,1.48,4.62,1.06,3.13,2.04,6.28,2.95,9.47.91,3.19,1.94,6.36,3.1,9.51.69,1.87,1.31,3.76,1.85,5.69l.55,1.8h.26l.07-.77c.1-.79.17-1.56.22-2.33.07-3,.31-7.24.7-12.74.67-19.47,2.17-29.47,4.51-29.99.74-.19,1.48-.29,2.22-.29,3.57,0,5.36.87,5.36,2.62l-1.11,52.29Zm36.9-72.71c-.03.06,0,.07-.04.12-.03-.03-.08-.05-.12-.08.06-.02.12-.02.17-.04Zm-2.52.54l.05.02h-.06s0-.02,0-.02Zm-10.48,10.48c.02.07-.05.08-.02.14-.07,0-.12.02-.18,0,.03-.08.17-.07.21-.15Zm-6.73-16.8c0,.08-.11.14-.08.23-.04-.02-.1,0-.14-.02.07-.07.15-.15.22-.22Zm-1.51,23.87s-.06.08-.07.12c-.03-.03-.04-.07-.07-.12.05,0,.1,0,.15,0Zm-6.39-14.41c.13.16.27.31.42.46-.24,0-.46.09-.7.1.21-.22.13-.36.28-.56Zm-.28,1.44s.11.1.16.15h-.16v-.15Zm39.46,41.2l-.04,1.11c-.05,2.69-.21,5.36-.48,8.01-.4,3.7-.69,7.4-.88,11.12-.1,1.6-.22,3.2-.37,4.8-.2,2.24-.33,4.51-.41,6.8l.12,5.14c0,1.16-.34,2.18-1,3.08-.66.9-1.57,1.5-2.71,1.81-1.15.31-2.28.46-3.42.46-3.72,0-6.19-1.34-7.43-4.03-.17-.51-.26-1.06-.26-1.62v-1.66c-.42-4.53-.69-9.2-.81-14,0-.51.05-1.02.14-1.51,0-.27-.23-.41-.69-.41l-8.16.18c-.25,0-.41.05-.5.15-.08.1-.14.27-.17.52-.66,6-1.4,11.27-2.22,15.8-.26,1.87-.87,3.73-1.8,5.58-.57.66-1.65.99-3.25.99-.74,0-1.45-.1-2.13-.3-.68-.19-1.17-.48-1.46-.84-1.27-1.93-1.97-3.99-2.07-6.21-.29-2.73-.44-5.33-.44-7.79l.03-2.29c0-2.56-.03-5.01-.09-7.37-.06-2.35-.09-4.65-.09-6.89,0-3.56.17-7.12.51-10.67.74-8.05,2.71-14.82,5.91-20.31l.51-.85c.62-1.13,1.36-2.16,2.22-3.07,2.89-2.65,6.26-4.14,10.12-4.47.96-.07,1.92-.11,2.88-.11,2.54,0,5.06.36,7.57,1.1,1.67.57,3.03,1.42,4.09,2.57,1.06,1.14,1.96,2.46,2.7,3.93,1.15,2.22,2.03,4.52,2.62,6.91,1.03,4.36,1.55,7.81,1.55,10.37,0,1.46-.03,2.77-.11,3.95Zm.57,53.58c.14-.14.12-.33.2-.5.12.17.11.33.26.5h-.45Zm62.73-82.8s-.08.02-.11.07c-.03-.04-.1-.04-.15-.07.09,0,.17,0,.26,0Zm-10.79-14.89h0s.02,0,.02,0c-.07.03-.13,0-.2.04-.03-.04-.07-.05-.11-.09.09.05.21,0,.29.04Zm-13.64.37s.1.03.14.05c-.44.11-.56.34-.5.65-.21,0-.41-.02-.62-.02.33-.23.65-.45.98-.68Zm-4.99.68c.03-.08.12-.16.17-.24.04.09.17.16.24.24h-.41l.07.06h-.14s.05-.04.07-.06Zm-11.96,6.95h-.02s0-.02,0-.02c0,0,.02,0,.03.02Zm-1.28-2.18c-.03.06-.02.14-.07.2-.03,0-.03-.05-.07-.06.07-.03.07-.11.13-.14Zm-6.86-8.78c.08.05.12.12.22.17l.03.05h-.49c.07-.07.16-.15.24-.22Zm-2.56,3.06c.33-.22.66-.12.99,0h.03,0s-.02,0-.02,0h-.99s-.02,0-.04.02c.02,0,.03,0,.03,0h-.05c-.06-.02-.12-.02-.19-.02.07-.12-.09-.14-.06-.24.09.08.24.14.31.22Zm-6.76,105.55s0-.07-.02-.1c.05,0,.1.02.15.03-.04.02-.08.04-.12.07Zm10.53,3.95c-.06-.04-.13-.05-.2-.08.14,0,.27,0,.41,0-.05.07-.15.02-.21.07Zm12.26,2.86s-.09,0-.14,0c.07-.11.12-.21.14-.32v.31Zm6.73,2.84s.03-.02.04-.03c0,.02.02.02.03.04,0,0-.05,0-.07,0Zm8.12.36c-.07.03-.13.09-.21.12,0-.08.02-.17.02-.26.09-.03.19-.04.28-.07-.04.07-.07.15-.09.22Zm3.61-4.15c.08-.11.12-.22.17-.33,0,.11.02.21,0,.32-.06,0-.12,0-.18,0Zm3.1-1.11h-.11c-.77.55-1.61.47-2.49.15.83-.05,1.66-.1,2.49-.15.03-.03.08-.02.12-.03,0,0,0,.02-.02.03Zm9.19-20.93c.4-.28.62-.45.84-.63.15,0,.31-.03.46,0-.52.12-.83.46-1.3.64Zm2.62,19.98h-.06s.03-.07.06-.1c.02.03-.03.07,0,.1Zm2.1-37.27c0,2.02-.11,4.08-.31,6.17-.21,2.09-.7,3.93-1.5,5.5-.79,1.58-2.04,2.6-3.76,3.07-.67.17-1.33.26-1.99.26-.79,0-1.58-.12-2.37-.36-1.68-.57-2.97-2.03-3.88-4.37-.91-2.36-1.54-5.24-1.87-8.67-.33-3.42-.5-6.99-.5-10.71,0-3.13.07-6.18.21-9.15.13-2.98.27-5.64.42-7.98.12-1.79.21-3.3.26-4.51l.15-2.36c-1.08,2.38-2.02,4.82-2.8,7.31-1.51,4.75-3.32,9.38-5.43,13.88-.71,1.52-1.57,2.76-2.56,3.71-1,.94-2.21,1.42-3.64,1.42-.79,0-1.64-.17-2.55-.48-.76-.35-1.27-.93-1.51-1.74-1.31-3.55-2.51-7.15-3.62-10.82-.22-.74-.45-1.47-.7-2.22l-.81-2.58c-.55-1.9-1.01-3.83-1.41-5.81v-.11c-.02-.07-.05-.16-.09-.26-.03-.1-.12-.2-.24-.3v8.46l.04,6.46c0,2.91-.09,5.82-.26,8.76-.05.84-.07,1.84-.07,3.03v1.62c0,2.27-.1,4.69-.29,7.26-.2,2.57-.73,4.75-1.59,6.56-.87,1.79-2.26,2.74-4.18,2.84-.88.27-1.79.41-2.7.41-.69,0-1.39-.1-2.11-.3-1.35-.37-2.36-1.31-3.01-2.81-.65-1.5-1.08-3.17-1.31-5-.22-1.84-.36-3.46-.41-4.89-.02-.6-.05-1.08-.07-1.48-.3-2.9-.45-5.81-.45-8.72l.04-2.14.11-3.1c.07-3.05.21-6.1.41-9.16.12-1.72.24-3.46.34-5.2.07-1.73.17-3.45.29-5.18.1-1.11.21-2.21.33-3.32.15-1.36.27-2.7.37-4.03.12-2.27.32-4.52.59-6.76.02-.07.04-.14.04-.19.27-2.14.71-4.24,1.33-6.31.26-.84.81-1.43,1.62-1.78,1.8-.79,3.58-1.18,5.36-1.18s3.47.37,5.17,1.11c2.04.88,3.42,2.07,4.13,3.53.71,1.46,1.24,3.19,1.59,5.19.12.55.25,1.11.37,1.7.39,1.65.75,3.31,1.07,4.99.42,1.99.87,3.97,1.33,5.94.15.67.31,1.35.48,2.03,1.06,4.63,2.23,9.24,3.51,13.81.02.05.05.1.06.15.02.05.04.12.09.19.02.07.07.14.12.22.61-1.79,1.27-3.51,1.99-5.17.36-.86.75-1.72,1.14-2.58,1.16-2.59,2.28-5.21,3.37-7.87.05-.12.11-.26.18-.41.64-1.65,1.48-3.7,2.51-6.17,1.03-2.46,2.16-4.93,3.37-7.4,1.22-2.47,2.42-4.56,3.61-6.28,1.18-1.71,2.22-2.57,3.13-2.57h.15c.79-.12,1.58-.18,2.36-.18,1.38,0,2.73.22,4.06.67.91.34,1.55.86,1.9,1.55.36.69.54,1.54.54,2.55v23.78c0,2.56.07,5.12.22,7.68.15,1.92.22,3.85.22,5.8,0,1.21-.03,2.41-.07,3.62-.02.66-.05,1.31-.07,1.95-.07,1.93-.17,3.87-.3,5.84-.07,1.08-.12,2.27-.15,3.58Zm.48,30.56s.02-.02.02-.03c.05-.02.09-.04.13-.07h0s-.11.07-.16.1Zm.09-12.93c-.05-.07-.12-.06-.17-.12.18.09.36-.07.54-.02-.14,0-.22.13-.36.13Zm5.32,27.56c0-.14.02-.29.02-.44.04.16.09.31.22.44-.07-.02-.17.02-.25,0Zm37.12-113.3c.09,0,.18-.02.27-.02,0,.09-.04.11-.05.19-.09-.02-.19-.02-.3-.03.03-.05.05-.1.07-.14Zm-16.03,4.79c.05.06.14.03.18.1-.02,0-.05.02-.08.02-.1.02-.22,0-.33,0,.09-.03.16-.07.23-.12Zm-3.09-7.89c.23,0,.45.02.66.11-.33.26-.57.14-.78-.11h.12Zm-11.36-.87s.04.03.07.05v.02s-.04-.05-.07-.07c-.28-.21-.58-.42-.87-.64.4.14.64.38.87.64Zm-.02,1.89c0,.07,0,.15,0,.22h-.14c.07-.07.09-.16.15-.22Zm12.04,90.83s0-.04,0-.06h.04s0,.04-.04.06Zm10.82,21.22c-.06,0-.12,0-.17,0-.04-.15.03-.3-.07-.44.07,0,.16.02.24.02v.43Zm5.1-4.76v-.02s.04,0,.05,0c0,0-.03,0-.05.02Zm.13-16.52s0-.05.02-.09c.02.03.03.06.05.09,0,0-.04,0-.07,0Zm1.07,24.79c.09-.1-.02-.21.02-.31.07.02.16,0,.23.02l.21.3c-.15,0-.31-.02-.46-.02Zm4.37-1.27c-.07.02-.16.06-.24.08h-.02c.08-.06.19-.09.26-.17v.09Zm-.05-.75h.04v.06s-.03-.04-.04-.06Zm-.12-95.3c-.55.66-1.84,1-3.88,1-1.73-.07-3.35-.12-4.88-.15l-2.29-.07c-1.52,0-2.78.03-3.76.09-.98.06-1.97.09-2.96.09l-1.14-.03c.02.17.04.66.06,1.47,0,.81.02,1.79.05,2.94.02,1.15.04,2.25.04,3.31,0,1.43-.02,2.52-.07,3.28l-.18,3.18-.52,10.2.04.41c0,.17-.07.57-.19,1.18,0,.15.07.23.19.26.24.1,1.24.17,2.99.22,1.38.05,2.76.16,4.13.33.74.12,1.42.38,2.03.78.4.37.6.81.6,1.33,0,.59-.25,1.07-.74,1.44-.84.4-1.72.59-2.65.59-1.93.05-3.85.07-5.76.07-.4,0-.65.09-.78.26-.22.29-.33,2.27-.33,5.95l.04,1.44c0,2.37-.17,4.71-.49,7.05-.24,1.4-.36,2.8-.36,4.17,0,2.29.33,4.17.99,5.61.98,3.2,2.48,4.8,4.47,4.8s4.14-.55,6.24-1.66c1.36-.65,2.75-.96,4.18-.96,1.01,0,2.02.13,3.03.41.15.02.28.07.41.15,1.01.34,1.52.84,1.52,1.47,0,.47-.32.96-.97,1.48-2.75,2.12-5.85,3.38-9.26,3.8-1.83.27-3.66.41-5.51.41-2.29,0-4.59-.18-6.91-.55-3.25-.42-5.81-1.23-7.68-2.44-5.81-4.11-8.72-12.54-8.72-25.3,0-5.52.53-12.45,1.59-20.79.22-1.94.43-3.72.61-5.33.18-1.61.54-3.51,1.05-5.67.25-1.11.41-1.9.48-2.4.25-1.65.64-3.27,1.18-4.84.55-1.58,1.46-2.59,2.77-3.03,2.29-.55,4.59-.84,6.91-.89l.81-.04h2.29c1.6-.07,3.19-.11,4.76-.11l7.02.07,4.17-.07c1.28,0,2.56.17,3.85.51.42.15.86.55,1.33,1.22.46.66.7,1.35.7,2.07,0,.49-.17.92-.48,1.29Zm85.5-22.14l-.05.2c.2-.02.41-.03.6-.05-.13.21-.02.36-.07.56-.18-.17-.39-.33-.53-.51-.08-.07-.17-.13-.25-.2h.3Zm-13.36,13.85h0s0,0,0,0h0Zm-14.73-15.08s.04,0,.07,0c0,.09-.04.17,0,.26h-.07c0-.08,0-.17,0-.26Zm-4.29,2.91c.51-.18,1.03-.37,1.55-.56.04-.02.08-.05.12-.07h-.02s.02-.02.04-.02t.02-.02h0s0,0-.02.02c0,0-.02,0-.02.02l.05.02c-.06.02-.11.04-.17.06-.44.3-.99.44-1.55.56-.03,0-.06.02-.09.03,0,0-.02,0-.02,0,.03,0,.07-.02.11-.02Zm-2.28,7.27c-.14.1-.32.03-.46.12-.02-.04,0-.12-.04-.17.16.03.37-.02.5.06Zm-14.89-15.22s.02.07.06.1c-.02.02-.06,0-.07.02,0-.04,0-.08.02-.12Zm-9.16,6.96c0,.08-.03.17,0,.25h-.03c0-.08,0-.17,0-.25h.03Zm-4.52,16.75c-.08.02-.17,0-.25.02.07-.02.17,0,.25-.02Zm-12.85-15.64v.09s-.09-.02-.14-.02c.04-.02.09-.03.14-.07Zm-4.13.69h.02s.07,0,.1,0c0,.17.02.33.02.5-.08,0-.16,0-.24,0,.12-.17.12-.34.11-.51Zm.03,114.04c.18,0,.36-.02.54-.02-.04.16,0,.27.03.4-.19-.12-.38-.25-.57-.37Zm21.53-1.29c-.07-.05-.15-.08-.22-.12.07,0,.17,0,.24,0l-.02.13Zm7.4,2.27c-.26-.1-.55-.02-.81-.13-.17-.13-.33-.26-.5-.4.17,0,.33-.02.5-.03-.23-.28-.17-.51-.04-.74.02.25.02.49.04.74v.43c.37,0,.75-.02,1.13-.02-.11.07-.23.08-.32.16Zm-.88-1.85c.13,0,.27,0,.41-.02-.1.19-.26.37-.38.56,0-.18-.02-.36-.02-.55Zm5.41-19h0,0s0,0,0,0Zm6.57-73.23c-1.82,0-4.48.1-7.97.3-.3,0-.6-.02-.88-.06-.3-.03-.6-.05-.93-.05-.25,0-.49.02-.72.05-.23.04-.4.09-.48.17-.09.07-.13.21-.13.41.1.93.15,1.83.15,2.7,0,1.57-.18,3.71-.54,6.43-.36,2.7-.53,5.1-.53,7.19l.03,9.72c0,3.32-.21,8.2-.63,14.62l-.07,1.96c-.05,2.07-.18,4.64-.41,7.72-.61,7.81-2.14,12.16-4.58,13.04-1.28.51-2.58.78-3.91.78-1.23,0-2.47-.22-3.73-.67-.67-.25-1.12-.63-1.39-1.14-.26-.52-.45-1.07-.57-1.66-.05-.27-.11-.53-.18-.78-.3-1.18-.59-3.28-.87-6.32-.28-3.03-.51-6.09-.69-9.2-.17-3.1-.27-5.37-.29-6.79l-.04-6.24c0-2.07.04-4.15.11-6.24.1-2.37.17-4.77.22-7.24.15-9.68.67-15.61,1.55-17.8.07-.17.11-.31.11-.44,0-.15-.06-.24-.18-.28-.12-.03-.75-.07-1.89-.09l-5.98-.26c-2.37,0-4.03-.18-4.99-.55-.96-.37-1.44-1.43-1.44-3.18,0-.52.13-.97.41-1.35.27-.38.63-.64,1.07-.76,4.16.17,9.39.26,15.66.26,12.21,0,21.22-.15,27.03-.45,1.89,0,2.84.9,2.84,2.7,0,.86-.26,1.69-.76,2.47-.5.79-1.12,1.18-1.83,1.18-.61-.1-1.48-.15-2.59-.15Zm13.18,65.35s.06-.03.07-.05c.06.05.15-.02.2.04-.09,0-.17,0-.27,0Zm4.4,29.72s-.07,0-.09-.02c.06,0,.12-.02.17-.02l-.08.04Zm5.15-1.89s-.02-.07-.03-.1c.03,0,.07,0,.12,0-.02.03-.06.07-.08.1Zm5.42-.17c.22.16.31.37.45.57-.15-.19-.3-.38-.45-.57Zm1.33-.75c-.07.02-.12.07-.19.11,0-.13-.13-.22-.17-.32.12,0,.24,0,.36,0v.21Zm5.24-9.18l.05-.02s.02,0,.02,0c0,0-.04,0-.07.02Zm7.53-84.37c-.54.66-1.84,1-3.88,1-1.72-.07-3.35-.12-4.87-.15l-2.29-.07c-1.53,0-2.78.03-3.77.09-.98.06-1.97.09-2.95.09l-1.14-.03c.02.17.04.66.05,1.47.02.81.03,1.79.06,2.94.02,1.15.04,2.25.04,3.31,0,1.43-.02,2.52-.07,3.28l-.19,3.18-.51,10.2.03.41c0,.17-.06.57-.18,1.18,0,.15.06.23.18.26.25.1,1.25.17,2.99.22,1.38.05,2.75.16,4.13.33.74.12,1.41.38,2.03.78.39.37.59.81.59,1.33,0,.59-.25,1.07-.74,1.44-.84.4-1.72.59-2.66.59-1.92.05-3.84.07-5.76.07-.4,0-.65.09-.78.26-.22.29-.33,2.27-.33,5.95l.03,1.44c0,2.37-.16,4.71-.48,7.05-.25,1.4-.36,2.8-.36,4.17,0,2.29.33,4.17.99,5.61.98,3.2,2.47,4.8,4.47,4.8s4.15-.55,6.24-1.66c1.36-.65,2.75-.96,4.18-.96,1.01,0,2.02.13,3.03.41.15.02.28.07.41.15,1.01.34,1.51.84,1.51,1.47,0,.47-.32.96-.96,1.48-2.75,2.12-5.85,3.38-9.27,3.8-1.82.27-3.66.41-5.5.41-2.29,0-4.59-.18-6.91-.55-3.25-.42-5.81-1.23-7.68-2.44-5.81-4.11-8.72-12.54-8.72-25.3,0-5.52.53-12.45,1.59-20.79.22-1.94.42-3.72.61-5.33.18-1.61.53-3.51,1.05-5.67.25-1.11.41-1.9.48-2.4.25-1.65.64-3.27,1.18-4.84.54-1.58,1.46-2.59,2.77-3.03,2.29-.55,4.59-.84,6.91-.89l.81-.04h2.29c1.6-.07,3.19-.11,4.76-.11l7.02.07,4.17-.07c1.28,0,2.56.17,3.85.51.41.15.86.55,1.32,1.22.47.66.7,1.35.7,2.07,0,.49-.16.92-.48,1.29Zm86.09-24.11s-.02.02,0,.03h-.12s.07,0,.11-.03Zm-6.78.03h-.13s-.05-.07-.07-.11c.05.03.15.08.2.11Zm-1.25-9.79s0,.05-.02.07c-.04-.05-.13-.05-.17-.1.07,0,.12.02.19.02Zm-6.76,11.79c0,.06-.07.04-.08.09-.02-.03-.02-.06-.05-.09h.13Zm-6.69-14.84s0,0-.02.02l-.02-.02h.04Zm.04,2.01c-.09.02-.17,0-.26.02-.06-.13-.21-.22-.3-.35.18.11.37.22.56.32Zm-12.08,9.86s.02-.04.03-.06c0,0,0,0,.02,0-.02.02-.03.03-.05.05-.22.34-.52.64-1.03.78.35-.26.69-.51,1.03-.78Zm-5.23,107.3s.05.03.07.06h-.07s0,0,.02,0v-.05Zm-8.12-107.39v.04h-.04s.02-.02.04-.04Zm-3.95-5.82c.11-.12.28-.07.4-.16.04.07.08.12.13.18-.17,0-.35-.02-.53-.02-.53.92-1.47,1.53-2.66,1.95.04-1.28.94-1.92,2.66-1.95Zm-9.2,2.2c-.12,0-.22.05-.32.07-.51-.22-.93-.21-1.49-.52.77.31,1.2.28,1.81.45Zm-8.94,5.51s.07.1.1.14h-.65c.14-.14.39-.03.55-.14Zm-15.23,100.72s.02-.07.04-.1c.02.03,0,.07.02.1h-.06Zm13.3,12.83c.24,0,.48,0,.73,0-.07.22.07.26.09.41-.27-.14-.63-.11-.82-.41Zm3.84,6.22c-.02.16-.02.31-.02.46-.07-.16-.04-.31.02-.46,0-.07,0-.15,0-.21l.06-.02c-.02.07-.05.16-.07.23Zm5.66-11.7c-.03.43-.06.85-.08,1.27h0s0,0,0,0h0c-.35-.45-.17-.87.08-1.28,0-.04,0-.08,0-.12h.07s-.05.08-.07.12Zm1.55,9.67c-.13-.05-.26-.11-.38-.16.13,0,.26,0,.4,0-.02.06-.02.11-.02.17Zm7.62-9.3s0-.05,0-.07c0,.02.02.05.03.07h-.02Zm4.25-19.05c-1.75,0-3.3-.78-4.66-2.32-1.92-2.27-3.43-4.52-4.54-6.76-.65-1.23-1.39-2.53-2.26-3.88-.49-.77-.98-1.56-1.47-2.41-.32-.54-.65-1.09-1-1.66-.44-.71-.86-1.46-1.26-2.25-.22-.45-.44-.88-.66-1.29-.05-.1-.11-.19-.17-.28-.07-.08-.14-.12-.24-.12-.05,0-.09.02-.13.07-.03.05-.07.1-.09.15,0,.05-.02.09-.03.12-.92,1.75-1.86,3.58-2.84,5.5-2.17,4.26-4.35,8.44-6.54,12.55-.61,1.07-1.33,1.79-2.16,2.2-.83.41-1.72.61-2.68.61-.64,0-1.31-.07-1.99-.18-1.92-.2-2.88-1.06-2.88-2.59,0-.42.06-.88.18-1.41.57-2.32,1.36-4.75,2.37-7.33,1.01-2.57,2.03-5.03,3.07-7.37l1.03-2.44c1.01-2.56,2.15-5.07,3.43-7.53.35-.64.65-1.31.93-1.99.36-.86.79-1.69,1.25-2.47.32-.52.48-1.05.48-1.59,0-.4-.08-.81-.26-1.26-1.43-3.62-2.8-7.25-4.1-10.89-.76-2.03-1.57-4.04-2.43-6.06-.96-2.17-1.85-4.38-2.68-6.65-.83-2.27-1.48-4.61-1.98-7.05-.1-.54-.15-1.01-.15-1.4,0-.74.19-1.31.57-1.7.39-.39,1.03-.74,1.94-1.03,1.16-.36,2.32-.55,3.51-.55s2.39.17,3.62.52c1.65.59,2.75,1.66,3.32,3.21,1.27,3.05,2.47,6.35,3.58,9.9,1.16,3.86,2.35,7.11,3.58,9.75.25-.47.54-1.03.88-1.7,1.03-2.09,2.37-4.66,3.99-7.7,1.63-3.04,3.27-5.83,4.94-8.37,1.66-2.54,3.07-4.11,4.23-4.73,1.21-.51,2.41-.77,3.62-.77,1.01,0,2.07.17,3.19.53,1.12.36,1.68.86,1.68,1.5,0,.35-.12.75-.37,1.22-1.45,3.05-2.85,6.11-4.21,9.2-1.42,3.3-2.93,6.57-4.5,9.84-1.58,3.26-3.37,6.45-5.36,9.58-.52.86-1,1.73-1.44,2.62l-.52.96c-.12.22-.18.43-.18.63,0,.14.04.31.11.48.77,1.97,1.47,3.96,2.11,5.98.51,1.63,1.07,3.25,1.66,4.88,1.33,3.76,2.77,7.51,4.32,11.22.32.77.6,1.46.85,2.07.6,1.6,1.38,3.32,2.37,5.14.35.65.51,1.36.51,2.14,0,.59-.12,1.14-.35,1.66-.23.52-.61.89-1.12,1.11-.72.27-1.41.41-2.07.41Zm2.37,17.45c-.06-.07-.17-.11-.25-.17.21.02.42.03.63.06-.12.07-.26.05-.38.11Zm.39-.11c3.04-.79,6.08-.67,9.11.05-3.04-.02-6.07-.03-9.11-.05Zm10.16,6.67s0-.04.02-.07c.04.05.12.03.16.07-.06,0-.12,0-.18,0Zm.29-.71s0-.02,0-.03h.02s0,.02-.02.03Zm.35-1.97h-.02s.03-.02.03-.02c0,0,0,0,0,.02Zm.84,9.2c-.02-.11-.04-.21-.08-.31.07-.02.16,0,.24-.02-.04.12-.12.22-.16.33Zm4.34-2.23h0s0,0,0,0h0Zm1.1-8.92s-.02-.03-.02-.03c0-.02.02,0,.04,0,0,.02-.02.02-.02.04Zm1.89,7.66c-.17-.29-.29-.6-.68-.79.06-.02.12,0,.18-.02.2.26.39.52.59.79-.03,0-.06.02-.09.02Zm-.52-2.82c.27.3.05.57-.12.84v.03h-.02s.02-.03.02-.03c.02-.28.06-.55.12-.84,0-.15,0-.31-.02-.45.13.27.45.38.64.59-.21-.03-.41-.1-.62-.13Zm13.31-6.13h-.02v-.08c-.02-.11-.03-.22.02-.34v-.03h0s0,.02,0,.03c0,.12,0,.23-.02.34,0,.02.02.06.02.08Zm1.23,10.96s.06,0,.06,0c.02.03.02.06.02.1-.02-.04-.06-.07-.08-.11Zm3.96-1.66s-.03-.09-.06-.14c.08,0,.17,0,.26,0,0,.08,0,.17,0,.26-.08-.03-.12-.1-.21-.12Zm1.49-8.18v-.02s.07,0,.09.03c-.03,0-.06,0-.09,0Zm.06-.71s0-.06,0-.08c-.48.12-.8,0-1.07-.22-.17-.03-.32-.07-.48-.1.07-.04.16-.09.23-.14.08.08.16.17.25.24.36.07.71.14,1.07.22h.05s-.04.05-.06.08Zm2.66,3.53s0,.02,0,.02l-.03.02s.03-.03.04-.05c.02-.13.05-.26.08-.39.03.12.02.26-.08.39Zm.08-.41c-.03-.14-.12-.27-.2-.41.1,0,.2,0,.3,0-.03.13-.07.26-.1.4Zm-.14-5.41s.02-.04.06-.07c0,.02-.02.04-.02.04,0,.02-.02.02-.04.02Zm.32-2.72c-.12-.1-.07-.17-.22-.28-.85-.63-2.03-2.24.27-2.6-.41.65-.32,1.61-.06,2.89Zm1.01,7.75v-.64s.07.04.11.04c-.03.22.02.41.18.6h-.29Zm8.04-18.73s-.02-.02-.02-.02l.02-.02s0,.02,0,.04Zm1.31,22.61c.07-.06.16-.02.22-.07.14.16.26.34.39.5-.2-.15-.41-.29-.6-.43Zm2.38-90.99c-.5.79-1.12,1.18-1.83,1.18-.62-.1-1.48-.15-2.59-.15-1.82,0-4.48.1-7.98.3-.29,0-.59-.02-.88-.06-.29-.03-.6-.05-.92-.05-.25,0-.49.02-.72.05-.24.04-.4.09-.48.17-.09.07-.13.21-.13.41.1.93.15,1.83.15,2.7,0,1.57-.18,3.71-.54,6.43-.36,2.7-.54,5.1-.54,7.19l.04,9.72c0,3.32-.21,8.2-.63,14.62l-.07,1.96c-.05,2.07-.18,4.64-.41,7.72-.62,7.81-2.14,12.16-4.58,13.04-1.28.51-2.59.78-3.91.78-1.23,0-2.48-.22-3.73-.67-.67-.25-1.13-.63-1.39-1.14-.26-.52-.45-1.07-.57-1.66-.05-.27-.12-.53-.18-.78-.3-1.18-.59-3.28-.87-6.32-.29-3.03-.51-6.09-.69-9.2-.17-3.1-.27-5.37-.3-6.79l-.03-6.24c0-2.07.03-4.15.11-6.24.1-2.37.17-4.77.22-7.24.15-9.68.66-15.61,1.55-17.8.07-.17.11-.31.11-.44,0-.15-.07-.24-.18-.28-.12-.03-.75-.07-1.89-.09l-5.99-.26c-2.36,0-4.02-.18-4.98-.55-.97-.37-1.45-1.43-1.45-3.18,0-.52.14-.97.41-1.35.27-.38.63-.64,1.08-.76,4.16.17,9.38.26,15.66.26,12.21,0,21.22-.15,27.02-.45,1.9,0,2.84.9,2.84,2.7,0,.86-.25,1.69-.75,2.47Zm1.6,86.04c0-.07.02-.12.02-.19.04.11.15.14.21.23-.06-.04-.17,0-.22-.04Zm6.74-126.25s0,.04,0,.06c0,0-.02,0-.02,0,0-.02.02-.03.03-.05.11-.58.22-1.15,1.01-1.49-.35.5-.67.99-1.01,1.49Zm13.27,124.55v-.2s.07,0,.1,0c-.07.05-.04.13-.1.19Zm.14-1.41c-.1-.02-.22.02-.32,0l.09.08h-.15s.04-.05.06-.08c.13-.04.26-.07.39-.12,0,.06-.07.07-.07.12Zm65.31-111.66c.02.1.11.18.16.27-.06,0-.11,0-.16,0,0-.09,0-.18,0-.26Zm-19.98,3.54h0s-.05,0-.07,0c0,0,.06,0,.07,0Zm-8.15-14.31c.08.08.17.17.26.26-.1.03-.22,0-.31.03.05-.11.04-.2.06-.29Zm-1.36,3.24s.05,0,.07-.02c.02.04.02.08.04.13.15.12.24.07.38.18-.17.03-.35.04-.5.09.04-.09.08-.18.12-.27l-.11-.11Zm-1.29,4.07s.07.03.09.06c-.03,0-.06,0-.09,0v-.05Zm-6.23-6.13s-.05.08-.08.11c-.11-.05-.17-.1-.31-.15.13,0,.26.02.39.04Zm-.4,8.08h.22c-.1.11-.17.23-.22.36,0-.12.02-.24,0-.36Zm.17,4.78h-.08s.03-.02.04-.03c0,0,.03.02.04.03Zm-.18-3.84s.07,0,.09.02h-.09v-.02Zm-.92-9.15c.1,0,.21.02.31.02-.1.04-.22,0-.29.21-.2.64-.85-.21-.02-.23Zm-1.89,4.9c.06.12.12.26.17.39-.11.02-.22-.02-.33,0,.12-.14.11-.26.16-.39Zm-1.18,8.19c.07-.51.12-1.03.2-1.54-.05-.09-.1-.17-.16-.26.06,0,.12,0,.19,0,0,.08-.02.17-.03.26.28.52.37,1.03-.2,1.54.11,0,.22,0,.32,0-.08.1-.17.2-.26.3,0,.1-.02.19-.02.29-.06.03-.1.07-.16.11,0-.15-.06-.29-.16-.42.12,0,.23.02.34.02l-.07-.29Zm-2.54,5.96s-.07.05-.11.07c-.02-.02,0-.04,0-.04.02-.03.07-.03.12-.03Zm-2.8-5.88c-.69.07-.58.45-.92.65,0-.24-.16-.45-.27-.65h1.19Zm-8,21.66s-.03.12-.05.17c-.05-.06-.07-.12-.13-.17h.18Zm-9.34,78.78v.03s-.06.03-.08.05c.04-.02.07-.06.08-.08,0-.14,0-.29,0-.43,0-.02-.02-.06-.02-.09h.02v.09c.05.15.12.3,0,.43Zm4.04,11.96c.24-.51.57-.82.97-1,.05.34.1.68.15,1.01-.36-.03-.74-.03-1.13,0Zm61.9-35.44c-2.56,14.82-3.36,25.18-4.41,32.22-1.04,7.04-7.9,13.54-13.99,13.61-11.63.14-28.45-1.18-35.95-9.09.3-.2.57-.47.8-.82-.66-.39-1.3-.51-1.92-.51-1.86-2.48-2.88-5.53-2.71-9.27.3-6.6-2.09-15.06-3.53-26.16-2.29-18.17-2.48-29.8-.57-35.54,1.29-3.89,9.56-9.26,11.84-10.39,11.24-4.95,13.33-16.73,12.64-24.04h13.9c-.59,6.19,1.54,18.28,15.62,28.88,2.54,1.91,15.1,1.64,8.28,41.11Zm2.07,29.72c-.03-.07-.07-.13-.12-.2h.14c0,.07-.02.13-.02.2Zm6.38-88.69c-.06.03-.02.03-.09.07-.34.19-.53.26-.07-.07-.53.27-.37.16-.04-.03.23-.13.29-.15.38-.17.05-.05.1-.06.16-.1l.02.02s-.13.07-.17.08c-.11.1-.23.1-.34.21.06,0,.1,0,.16,0,.19-.12.36-.23.36-.27.08.08.21.16.31.23-.23,0-.44.04-.66.04Zm19.15,78.73c-.02-.11-.04-.22-.06-.32.36,0,.72.05,1.06.12-.36-.06-.68.08-1,.2Zm10.67-32.77h-.03s.02,0,.03,0c1.47-.19,2.94-.14,4.42,0-1.47.14-2.94.28-4.42,0Zm39.07,10.56s.05,0,.07,0c-.07.02-.12.03-.19.04.04,0,.08-.02.12-.03Z"/>
  <path class="cls-1s-n08 first-color" d="m165.89,461.56c.16.34.72.72,1.19.78.34.04.79-.4,1.19-.63-.39-.31-.78-.63-1.34-1.08-.45.38-1.13.76-1.05.93Z"/>
  <path class="cls-1s-n08 first-color" d="m55.59,454.78h-8.86c0,.17.02.33.03.5h8.86c0-.17-.01-.33-.02-.5Z"/>
  <path class="cls-1s-n08 first-color" d="m35.76,372.62c.26-.05.52-.31.4-.39-1.1-.73-3.02-.32-4.59-.42h-10.44c-.01.16-.02.32-.03.48h10.47c1.36.19,2.6.62,4.19.32Z"/>
  <path class="cls-1s-n08 first-color" d="m193.46,459.86c-2.12-1.33-3.97-1.44-5.87.37,2.14.28,4.04.84,5.87-.37Z"/>
  <path class="cls-1s-n08 first-color" d="m134.77,459.82c-1.48-.38-2.88-.48-4.15.44,1.35-.29,2.96,1.05,4.15-.44Z"/>
  <path class="cls-1s-n08 first-color" d="m47.88,390.7c-2.16-.93-4.65-.73-7.79-.49,2.68,1.35,5.45.15,7.79.49Z"/>
  <path class="cls-1s-n08 first-color" d="m176.19,452.5c-2.19-1.28-4.51-.98-8.59-.37,3.44.69,5.26,1.05,7.07,1.42,1.47,1.13,2.59,2.78,5.37,1.95,2.58.05,5.16.09,7.75.13,1.42,1.49,3.41,1.23,5.67,1.4-.94-1.94-2.63-1.46-4.05-1.51h0c-2.93-1.57-6.27-.74-9.44-.89,1.29-3.16-2.3-1.63-3.77-2.14Z"/>
  <path class="cls-1s-n08 first-color" d="m536.49,462.38c-.13-1.18,3.1.33,2.51-1.8-.58-2.09-2.82-2.07-4.91-2.35-1.68-.23-2.7.12-2.17,1.48.58,1.47,1.61,2.73,4.57,2.67Z"/>
  <path class="cls-1s-n08 first-color" d="m559.24,459.59c.43-.65-.25-.92-.82-.88-.76.06-1.53.33-2.19.64-.13.06.09.92.35.99,1.09.3,1.99-.05,2.65-.75Z"/>
  <path class="cls-1s-n08 first-color" d="m543.69,460.67c3.09-.08,6.16-.27,9.26-.11-3.08-1.16-6.21-1.55-9.26.11Z"/>
  <path class="cls-1s-n08 first-color" d="m512.56,451.53c3.3-.97,6.79-.84,10.26-1.22q-6.81-.8-10.26,1.22Z"/>
  <path class="cls-1s-n08 first-color" d="m663,419.7c2.61.49,4.49.33,8.07.22-3.28-.64-4.91-1.17-8.07-.22Z"/>
  <path class="cls-1s-n08 first-color" d="m191.17,367.66c-3.57-.31-4.52,20.61-4.52,20.61h6.81s1.29-20.3-2.29-20.61Z"/>
  <path class="cls-1s-n08 first-color" d="m398.91,461.28h13.45c-4.59-1.81-8.97-.33-13.45,0Z"/>
  <path class="cls-1s-n08 first-color" d="m644.41,422.6c0,.08-.01.17-.02.25h8.86c.01-.08.02-.17.03-.25h-8.86Z"/>
  <path class="cls-1s-n08 first-color" d="m531.21,461.9c-4.28-.43-6.92-.66-10.76.18,3.86.58,6.5.61,10.76-.18Z"/>
  <path class="cls-1s-n08 first-color" d="m437.54,460.47c2.66,2.28,5.37-.73,8.04.03,1.79-.03,3.58-.06,5.37-.09.81-.02,1.62-.04,2.43-.05,3.2.46,5.52-.69,4.84-2.87-.48-1.58-3.08-1.03-4.69.03-1,.31-2,.62-3,.93h0c-2.05-1.25-2.21,1-3.56,1.04-3.12-3.22-7.28.09-10.76-.93-1.34-.09-3.16.21-2.83,1.13.51,1.44,2.68.67,4.17.77Z"/>
  <path class="cls-1s-n08 first-color" d="m486.89,454.65c-2.88-.96-2.96,2.09-5.23,1.99-1.16-.17-2.81-1.5-3.35-.22-.71,1.68,1.5,1.99,3.35,2.08,1.77,0,3.54,0,5.31,0,1.96-.13,4.25.97,5.72-.79.1-.12-1.07-.82-1.65-1.25.84-3.37-2.76-1.23-4.16-1.82Z"/>
  <path class="cls-1s-n08 second-color" d="m430.68,501.44c.83.79,1.84,1.18,3.03,1.18,1.42,0,2.82-.56,4.19-1.68,1.37-1.12,2.88-2.79,4.53-5.02-.04.31-.08.61-.12.9-.04.29-.06.55-.06.78,0,1,.34,1.93,1.01,2.77.67.85,1.72,1.27,3.15,1.27s2.8-.44,4.24-1.33c1.44-.89,2.8-2.12,4.07-3.7.59-.74,1.13-1.53,1.62-2.38-.04.51-.07.99-.07,1.46,0,1.69.36,3.11,1.07,4.24.71,1.14,1.9,1.7,3.55,1.7,2.08,0,4.02-.95,5.83-2.86.85-.9,1.67-1.95,2.46-3.14-.02.29-.03.58-.03.86,0,1.46.35,2.71,1.04,3.73.69,1.02,1.87,1.53,3.52,1.53,1.46,0,2.97-.58,4.53-1.73,1.56-1.15,2.99-2.6,4.3-4.33.42.19.87.34,1.33.43.46.1.94.14,1.44.14,1.27,0,2.61-.38,4.01-1.13.43-.23.83-.53,1.2-.87-.5,1.35-.94,2.5-1.32,3.44-.4,1-.61,1.6-.61,1.79.31.42.74.74,1.3.95.56.21,1.15.32,1.76.32.77-1.27,1.65-2.72,2.66-4.33,1-1.62,2.08-3.18,3.23-4.71,1.15-1.52,2.35-2.77,3.58-3.75s2.44-1.47,3.64-1.47c.65,0,1.2.2,1.65.61.44.4.66,1.15.66,2.22,0,.89-.14,1.8-.4,2.74-.27.94-.55,1.86-.84,2.74-.29.89-.43,1.73-.43,2.54,0,1.08.34,1.96,1.01,2.66s1.68,1.04,3.03,1.04c1.46,0,2.79-.42,3.98-1.27,1.19-.85,2.29-2,3.29-3.47,1-1.46,1.91-3.14,2.71-5.02l-.63-.75c-.69,1.42-1.49,2.83-2.4,4.22-.91,1.39-1.84,2.53-2.8,3.44-.96.91-1.93,1.36-2.89,1.36-.5,0-.91-.16-1.24-.49-.33-.33-.49-.9-.49-1.7,0-.96.2-1.92.61-2.86.4-.94.8-1.93,1.18-2.94.38-1.02.58-2.13.58-3.32,0-1.31-.34-2.5-1.01-3.58s-1.76-1.62-3.26-1.62-2.93.52-4.39,1.56c-1.46,1.04-2.84,2.34-4.13,3.9-1.29,1.56-2.45,3.13-3.49,4.71.54-1.58.98-3.09,1.33-4.53.35-1.44.52-2.47.52-3.09,0-1-.52-1.5-1.56-1.5-.54,0-1.06.14-1.56.4-.5.27-.87.54-1.1.81,0,1.27-.21,2.68-.64,4.22-.19.69-.4,1.38-.61,2.05-.39.65-.85,1.2-1.38,1.64-.75.62-1.51,1.05-2.28,1.3-.77.25-1.46.38-2.08.38-.77,0-1.5-.19-2.19-.58,1.12-1.69,2.04-3.46,2.77-5.28.73-1.83,1.1-3.49,1.1-5,0-1.27-.27-2.33-.81-3.18-.54-.85-1.6-1.27-3.18-1.27-1.19,0-2.21.34-3.06,1.01-.85.67-1.49,1.57-1.93,2.69-.44,1.12-.66,2.31-.66,3.58,0,1.5.3,2.97.9,4.42.6,1.44,1.43,2.61,2.51,3.49-1.08,1.35-2.18,2.45-3.29,3.32-1.12.87-2.08,1.3-2.89,1.3-.62,0-1.12-.26-1.5-.78-.39-.52-.58-1.36-.58-2.51,0-.73.14-1.62.43-2.66.29-1.04.64-2.09,1.07-3.15.42-1.06.88-2,1.36-2.83.48-.83.9-1.4,1.24-1.7-.19-.08-.4-.15-.61-.2-.21-.06-.41-.09-.61-.09-.81,0-1.61.35-2.4,1.04-.79.69-1.5,1.6-2.14,2.71-.64,1.12-1.15,2.31-1.53,3.58-.02.06-.03.12-.05.18-.36.65-.73,1.3-1.14,1.93-.9,1.41-1.87,2.57-2.89,3.49-1.02.92-2.05,1.39-3.09,1.39-.85,0-1.48-.37-1.91-1.1-.42-.73-.64-1.85-.64-3.35,0-.89.07-1.82.2-2.8.13-.98.32-1.99.55-3.03,1.69-1.39,3.3-3.04,4.82-4.97,1.52-1.92,2.93-3.94,4.22-6.03,1.29-2.1,2.41-4.18,3.35-6.24.94-2.06,1.67-3.93,2.19-5.6.52-1.68.78-3.03.78-4.07,0-.54-.08-1.15-.23-1.82-.14-.59-.32-1.1-.55-1.54.17-.03.33-.06.51-.08-2.23-1.92-3.88-1.86-6.01-.81.79.77,1.57,1.08,2.41,1.17-.23.23-.47.49-.73.78-.81.93-1.68,2.1-2.59,3.48-4.45-2.37-7.75.47-11.12.35h10.89c-.3.45-.6.92-.9,1.42-1.35,2.19-2.69,4.63-4.04,7.31-1.35,2.68-2.59,5.42-3.72,8.23-1.14,2.81-2.05,5.49-2.74,8.03-.22.79-.39,1.53-.53,2.25-1.57,2.64-3.13,4.65-4.66,6.03-1.69,1.52-3.06,2.28-4.1,2.28-.69,0-1.19-.28-1.5-.84-.31-.56-.46-1.13-.46-1.7,0-.69.17-1.43.52-2.22.35-.79.73-1.57,1.16-2.34.42-.77.81-1.45,1.16-2.05.35-.6.52-1.07.52-1.41,0-.31-.14-.56-.4-.75-.27-.19-.59-.35-.95-.46-.37-.12-.66-.19-.9-.23-.04,0-.13.12-.29.35-.77,1.16-1.66,2.43-2.66,3.81-1,1.39-2.05,2.72-3.15,4.01-1.1,1.29-2.17,2.35-3.21,3.18-1.04.83-2,1.24-2.89,1.24-1.04,0-1.56-.75-1.56-2.25,0-1.12.23-2.39.69-3.81.46-1.42,1.1-2.87,1.91-4.33.81-1.46,1.73-2.82,2.77-4.07,1.04-1.25,2.12-2.25,3.23-3,1.12-.75,2.21-1.13,3.29-1.13s1.77.32,2.19.95c.42.63.63,1.4.63,2.28,0,.31-.03.65-.09,1.01-.06.37-.13.7-.2,1.01.85,0,1.53-.17,2.05-.52.52-.35.78-1,.78-1.96,0-1.31-.5-2.36-1.5-3.15-1-.79-2.25-1.18-3.75-1.18s-3.01.38-4.53,1.15c-1.52.77-2.97,1.8-4.33,3.09-1.37,1.29-2.59,2.72-3.67,4.27-1.08,1.56-1.93,3.14-2.54,4.74-.62,1.6-.92,3.09-.92,4.48,0,1.62.41,2.82,1.24,3.61Zm50.07-11.03c-.33-1.14-.49-2.26-.49-3.38,0-1.69.4-3.1,1.21-4.22.81-1.12,1.6-1.68,2.37-1.68.5,0,.91.26,1.24.78.33.52.49,1.34.49,2.45,0,1.39-.32,2.86-.95,4.42-.64,1.56-1.43,3.05-2.4,4.48-.66-.77-1.15-1.72-1.47-2.86Zm-17.04-9.67c.94-2.31,1.93-4.52,2.97-6.64,1.04-2.12,2.06-4,3.06-5.66,1-1.65,1.88-2.97,2.63-3.96.75-.98,1.28-1.47,1.59-1.47.08,0,.16.06.26.17.1.12.14.37.14.75,0,.77-.23,1.86-.69,3.26-.46,1.41-1.12,2.99-1.96,4.76-.85,1.77-1.82,3.6-2.92,5.49-1.1,1.89-2.28,3.71-3.55,5.46-1.27,1.75-2.58,3.3-3.93,4.65.65-2.23,1.45-4.5,2.4-6.81Z"/>
  <path class="cls-1s-n08 first-color" d="m438.4,466.68c-3.66-.39-5.67.44-8.8,1.58,4.02.24,5.94-.45,8.8-1.58Z"/>
  <path class="cls-1s-n08 first-color" d="m513.55,453.69h7.6c-3.33-1.3-5.2-1.44-7.6,0Z"/>
  <path class="cls-1s-n08 first-color" d="m522.68,460.35c.02-.17.05-.33.07-.5h-8.95c0,.17.01.33.01.5h8.86Z"/>
  <path class="cls-1s-n08 first-color" d="m510.71,453.07c-1.63-.64-2.8,0-4.64,1.68,2.47-.25,3.91-.39,5.33-.54-.22-.39-.3-.99-.69-1.14Z"/>
  <path class="cls-1s-n08 first-color" d="m492.83,464.27h8.37c-3.09-1.72-5.22-4.24-8.37,0Z"/>
  <path class="cls-1s-n08 first-color" d="m672.34,329.04c-.02-.19-.04-.37-.06-.56h-10.57c-2.01.14-4.44-.65-5.85,1.64,1.65.09,3.1.18,4.55.26,3.98-.45,7.95-.89,11.93-1.34Z"/>
  <path class="cls-1s-n08 first-color" d="m426.47,314.67c-1.88-.96-3.57-2.25-5.69-1.11-.53.29-.48,2.05-.21,2.12,2.19.57,3.28-2.08,5.89-1.01Z"/>
  <path class="cls-1s-n08 first-color" d="m417.43,320.08c-1.85-.33-3.59-2.12-6.5-.44,2.24,1.31,4.33.86,6.5.44Z"/>
  <path class="cls-1s-n08 first-color" d="m623.22,325.57c-3.32-.77-5.04-.03-8.12.52,3.22.41,5.08.7,8.12-.52Z"/>
  <path class="cls-1s-n08 first-color" d="m481.16,314.95c-1.34-.15-1.97-.32-2.54-.26-.96.11-2.63.27-1.47,1.3,1.02.91,2.22-.09,4.02-1.05Z"/>
  <path class="cls-1s-n08 first-color" d="m453.06,316.99c.98-.14,1.46-.72.98-1.45-.34-.53-.49-1.28-1.67-1.19-.87.32-1.4.85-1.15,1.55.22.64.84,1.23,1.84,1.09Z"/>
  <path class="cls-1s-n08 first-color" d="m406.96,316.77c.21-.1.29-.72.17-.77-1.1-.5-2.24-.66-3.38.09.93.71,1.87,1.31,3.21.68Z"/>
  <path class="cls-1s-n08 first-color" d="m314.99,326.47c1.07-.04,2.49-.2,1.01-1.22-.88-.61-1.93.1-3.55.91,1.29.17,1.92.33,2.54.31Z"/>
  <path class="cls-1s-n08 first-color" d="m367.56,319.23c1.09.09,1.55-.3,1.33-.78-.15-.32-.83-.61-1.34-.7-.62-.11-1.35.11-1.05.71.18.36.82.6,1.07.77Z"/>
  <path class="cls-1s-n08 first-color" d="m652.12,390.92c2.34-.67,5.11,1.72,7.79-.98-3.14-.48-5.63-.89-7.79.98Z"/>
  <path class="cls-1s-n08 first-color" d="m678.87,353.1h-10.44c-1.56.21-3.48-.61-4.59.84-.12.16.14.68.4.78,1.6.6,2.84-.26,4.19-.65h10.47c-.01-.32-.02-.65-.03-.97Z"/>
  <path class="cls-1s-n08 first-color" d="m73.16,338.3c.9-.01,1.8-.03,2.7-.04,1.46-.82,3.84-.5,4.85-2.05-1.85-1.16-3.25.41-4.84.28-2.45-2.4-3.8-.11-5.49.7-.71.2-2.17.27-1.68.93,1.17,1.58,2.92.63,4.47.18Z"/>
  <path class="cls-1s-n08 first-color" d="m658.97,363.84c-.83.06-1.67.12-2.5.17-2.24.01-4.47.02-6.71.03-2.62.76-5.96-.69-9.03,1.82,4.14-.16,7.48.83,10.55-.89,1.73-.05,3.46-.11,5.19-.16,2.18.01,4.36.02,6.53.03,2.52.03,5.21.41,7.22-1.92-4.04.38-7.8-.76-11.26.92Z"/>
  <path class="cls-1s-n08 first-color" d="m312.9,320.92c-.69.25-1.19.83-1.69,1.32-.07.06.36.41,1.22,1.33.51-.73.96-1.3,1.32-1.9.4-.65-.18-.99-.85-.75Z"/>
  <path class="cls-1s-n08 first-color" d="m599.32,321.88h-8.11c2.16.79,4.27.82,8.11,0Z"/>
  <path class="cls-1s-n08 first-color" d="m593.7,320.27c1.84.42,3.52.48,6.43-.38-2.99-.18-4.77-.9-6.43.38Z"/>
  <path class="cls-1s-n08 first-color" d="m529.47,313.05c-1.63,0-3.48-.98-5.31.23,1.82.62,3.51.44,5.31-.23Z"/>
  <path class="cls-1s-n08 first-color" d="m585.7,313.67c-2.21-.03-4.41-.06-6.62-.08h0c-7.58.02-15.16.04-22.74.07-2.36-1.57-5.21-.83-7.89-.91-2.72.84-5.8-.64-9.57.87,5.04,1.53,9.31.97,13.5.91.89,0,1.77,0,2.66,0h0c7.97,0,15.95.01,23.92.01,3.52,0,7.05.01,10.57.02,3.27-.04,6.63.47,9.73-.92-4.55-.2-9.05-1.97-13.55.04Z"/>
  <path class="cls-1s-n08 first-color" d="m380.21,319.61c.98-.14,1.97-.29,2.95-.43-.53-.47-1.01-.99-1.61-1.41-1.56-1.08-2.11,0-2.79.76h-6.94c2.53,1.89,5.18,2.93,8.39,1.08Z"/>
  <path class="cls-1s-n08 first-color" d="m126.9,334.07c1.08-.2,1.92-.74,1.97-1.71-.37-.75-.7-1.63-2.16-1.31-.97.21-2.24.46-1.84,1.58.28.76.52,1.72,2.03,1.44Z"/>
  <path class="cls-1s-n08 first-color" d="m243.31,325.22c-1.95-.99-3.24-.1-4.62.27-2.26-1.88-3.97-.95-5.55.65,1.85-.22,3.69-.43,5.54-.64,2,3.01,2.98.42,4.63-.28Z"/>
  <path class="cls-1s-n08 first-color" d="m136.78,335.25c1.01.06,2.21.19,2.72-.81.1-.94-.93-.99-1.73-1.05-1.04-.08-2.32-.19-2.66.83-.32.95.9,1,1.67,1.04Z"/>
  <path class="cls-1s-n08 first-color" d="m208.14,316.11c.45-.07.77-.58,1.12-.87-.29-.37-.48-.62-.68-.87-.45.29-1.09.53-1.31.89-.28.46.14.97.87.85Z"/>
  <path class="cls-1s-n08 first-color" d="m171.65,324.99c-2.1-.28-3.57.21-5,1.21,1.56-.06,3.64.97,5-1.21Z"/>
  <path class="cls-1s-n08 first-color" d="m97.16,336.4c.67.78,1.94,2.11,2.61,1.48,1.11-1.05.37-2.56-1.25-3.51-.9-.05-1.79-.1-2.69-.15-.91-.63-1.78-1.29-2.75-1.87-1.19-.72-1.94.05-2.57.6-1.06.93-.47,1.34.99,1.35h0c.48,2.76,3.51,1.78,5.66,2.11Z"/>
  <path class="cls-1s-n08 first-color" d="m85.49,335.33c-.99.04-1.7.38-1.29,1.21.41.82,1.41.55,2.25.54h0s0,0,0,0c1.67-.26,2.94,1.48,4.56.53.19-.11-1.01-1.53-1.57-2.34-1.32.02-2.63,0-3.95.06Z"/>
  <path class="cls-1s-n08 first-color" d="m304.06,326.66h-7.42c3.43,1.64,4.73.93,7.42,0Z"/>
  <path class="cls-1s-n08 first-color" d="m127.96,337.01c.16-.06.2-.73.04-.81-1.8-.84-3.04.28-4.75.72,1.74.45,3.24.6,4.71.08Z"/>
  <path class="cls-1s-n08 first-color" d="m105.56,332.01c-.37-.64.18-1.79-1.35-1.8-1.27,0-1.53.93-1.9,1.69-.55,1.13.24,1.43,1.51,1.45,1.19.01,2.18-.17,1.74-1.34Z"/>
  <path class="cls-1s-n08 first-color" d="m264.46,323.72c-.47-.64-1.21-.79-2.03-.47-.5.2-.89.55-1.34.84.75.14,1.49.36,2.24.39.56.03,1.31-.06,1.13-.76Z"/>
  <path class="cls-1s-n08 first-color" d="m276.69,318.18c1.26.5,2.28.9,4.77,1.88-1.67-2.24-2.74-2.72-4.77-1.88Z"/>
  <path class="cls-1s-n08 first-color" d="m247.94,325.91c3.51,1.02,6.25.64,9.59-1.38-3.72-.14-7.01-1.65-9.59,1.38Z"/>
  <path class="cls-1s-n08 first-color" d="m293.39,322.58c-.74-3.15-3.77-.14-5.34-1.08-1.07-1.03-2.66-.93-2.86.13-.28,1.47,1.83.65,2.84.93,1.36.63,2.73,1.27,4.09,1.9h7.28c-2.15-1.81-4.02-1.97-6.01-1.88Z"/>
  <path class="cls-1s-n08 first-color" d="m259.43,321.74c.52.22,1.16.38,1.57-.52-.59-.29-1.23-.68-1.94-.94-.73-.26-1.37-.03-1.06.59.18.37.89.65,1.44.87Z"/>
  <path class="cls-1s-n08 first-color" d="m252.6,329.55c.2.73,1.18.9,2.03.66.73-.19,1.35-.6,2.85-1.29-1.72-.23-2.47-.44-3.2-.4-.81.03-1.94.13-1.69,1.03Z"/>
  <path class="cls-1s-n08 first-color" d="m247.77,322.29c2.12.46,3.46-.33,5.3-1.5-2.87-.31-4.31.13-5.3,1.5Z"/>
</svg>