<svg id="Layer_1" data-name="Layer 1" xmlns="http://www.w3.org/2000/svg" viewBox="0 0 700 700">
  <g>
    <path class="second-color" d="m174.26,209.18c.42-.38,1.29-.19,2.6.57,1.31.76,2.66,1.72,4.04,2.87,1.38,1.15,2.57,2.31,3.56,3.5.99,1.19,1.38,2.01,1.17,2.46-1.35,1.38-3.24,4.11-5.68,8.2-2.44,4.09-5.14,8.94-8.07,14.56-2.94,5.62-5.93,11.75-8.98,18.4-3.05,6.65-5.81,13.28-8.29,19.89-2.48,6.61-4.52,12.89-6.11,18.85-1.59,5.96-2.39,11.08-2.39,15.36,0,2.83.32,5.16.96,6.99.64,1.83,1.66,3.02,3.08,3.55,1.91.76,3.89,1.15,5.95,1.15,1.27,0,2.55-.13,3.82-.4,1.28-.27,2.55-.59,3.83-.97.57,0,.78.23.64.69-.14.46-.44.99-.9,1.6-.46.61-1.03,1.2-1.7,1.78-.67.57-1.26.9-1.75.97-1.13.15-2.27.27-3.4.34-1.13.08-2.34.11-3.61.11-1.35,0-2.64-.06-3.88-.17-1.24-.11-2.46-.36-3.67-.75-4.11-1.07-7.07-3.17-8.87-6.3-1.81-3.13-2.71-6.99-2.71-11.58,0-3.9.48-8.2,1.43-12.9.96-4.7,2.25-9.63,3.88-14.79,1.63-5.16,3.51-10.41,5.63-15.76,2.12-5.35,4.34-10.56,6.64-15.65,2.3-5.08,4.62-9.95,6.96-14.61,2.34-4.66,4.53-8.9,6.59-12.72-5.24,4.43-10.48,9.3-15.72,14.61-5.24,5.31-10.31,10.79-15.19,16.45-4.89,5.66-9.53,11.33-13.92,17.02-4.39,5.69-8.36,11.18-11.9,16.45-1.7,4.36-3.31,8.54-4.83,12.55s-2.89,7.68-4.09,11c-1.21,3.32-2.16,6.19-2.87,8.6-.71,2.41-1.1,4.14-1.17,5.22-.28.61-1.08.53-2.39-.23-1.31-.76-2.69-1.8-4.14-3.09-1.45-1.3-2.76-2.66-3.93-4.07-1.17-1.42-1.68-2.42-1.54-3.04.57-2.44,1.63-5.85,3.19-10.2,1.56-4.36,3.42-9.23,5.58-14.61,2.16-5.39,4.48-11.08,6.96-17.08,2.48-6,4.92-11.86,7.33-17.59,2.05-4.89,4-9.55,5.84-13.98,1.84-4.43,3.44-8.31,4.78-11.63,1.34-3.32,2.39-5.96,3.13-7.91.74-1.95,1.08-2.92,1.01-2.92-1.13-.3-2.89.63-5.26,2.81-2.37,2.18-5.03,5.04-7.97,8.6-2.94,3.55-5.97,7.55-9.08,11.98-3.12,4.43-6,8.75-8.66,12.95-2.66,4.2-4.89,8.04-6.69,11.52-1.81,3.48-2.85,6.06-3.13,7.74h-.32c-.36.46-1.1.17-2.23-.86-1.13-1.03-2.25-2.35-3.35-3.95-1.1-1.61-1.97-3.27-2.6-4.99-.64-1.72-.57-3.08.21-4.07h-.21c.28-.99,1.1-2.48,2.44-4.47,1.34-1.99,3.04-4.26,5.1-6.82,2.05-2.56,4.39-5.33,7.01-8.31,2.62-2.98,5.37-5.9,8.23-8.77,2.87-2.87,5.79-5.6,8.77-8.2,2.97-2.6,5.83-4.83,8.55-6.71,2.73-1.87,5.26-3.27,7.6-4.18,2.34-.92,4.32-1.15,5.95-.69.35.15.87.52,1.54,1.09.67.57,1.33,1.28,1.96,2.12.64.84,1.2,1.72,1.7,2.64.5.92.74,1.8.74,2.64,0,1.76-.27,3.84-.8,6.25-.53,2.41-1.27,5.08-2.23,8.02-.96,2.94-2.05,6.07-3.29,9.4s-2.57,6.78-3.98,10.37l-3.72,9.63c3.89-5.35,7.98-10.7,12.27-16.05,4.28-5.35,8.78-10.49,13.49-15.42s9.62-9.53,14.72-13.81c5.1-4.28,10.41-7.98,15.94-11.12l.11-.12h.32Z"/>
    <path class="second-color" d="m207.52,274.86c0,.54-.3.96-.9,1.26-.6.31-1.26.48-1.97.52-.71.04-1.35-.09-1.91-.4-.57-.3-.85-.76-.85-1.38,0-.3-.04-.59-.11-.86-.07-.27-.11-.55-.11-.86-.07-.84-.18-1.78-.32-2.81-.14-1.03-.39-1.99-.74-2.87-.36-.88-.87-1.62-1.54-2.24-.67-.61-1.54-.96-2.6-1.03-1.84-.08-3.63.36-5.37,1.32-1.74.96-3.42,2.24-5.05,3.84-1.63,1.6-3.15,3.44-4.57,5.5-1.42,2.06-2.71,4.22-3.88,6.48-1.17,2.25-2.18,4.51-3.03,6.76-.85,2.25-1.52,4.34-2.02,6.25-.21.92-.42,1.99-.64,3.21-.21,1.22-.32,2.45-.32,3.67,0,1.07.09,2.08.27,3.04.18.96.51,1.78,1.01,2.46.5.69,1.13,1.17,1.91,1.43.78.27,1.81.25,3.08-.06.99-.23,2.23-1.05,3.72-2.46,1.49-1.41,3.01-3.08,4.57-4.99,1.56-1.91,3.06-3.9,4.52-5.96,1.45-2.06,2.64-3.9,3.56-5.5.78-2.21,1.45-4.39,2.02-6.53.57-2.14.92-4.09,1.06-5.85h.74c.85-.46,1.96-.44,3.35.06,1.38.5,2.69,1.24,3.93,2.24,1.24.99,2.25,2.16,3.03,3.5.78,1.34.99,2.66.64,3.95-.14.46-.34.97-.58,1.55-.25.57-.48,1.17-.69,1.78-.57,1.38-1.13,2.83-1.7,4.36-.57,1.53-1.08,3.06-1.54,4.58-.46,1.53-.85,3-1.17,4.41-.32,1.42-.48,2.66-.48,3.73,0,1.6.11,2.52.32,2.75h.96c1.91-.69,3.75-1.87,5.52-3.55,1.77-1.68,3.47-3.61,5.1-5.79,1.63-2.18,3.17-4.49,4.62-6.93,1.45-2.44,2.81-4.77,4.09-6.99.35-.53.65-1.05.9-1.55.25-.5.51-1.01.8-1.55.21-.38.64-.59,1.27-.63.64-.04,1.26.06,1.86.29.6.23,1.08.54,1.44.92.35.38.39.84.11,1.38-.42.69-.83,1.39-1.22,2.12-.39.73-.8,1.47-1.22,2.24-2.2,3.9-4.61,7.81-7.22,11.75-2.62,3.94-5.67,7.51-9.14,10.72-.5.46-1.13.99-1.91,1.6-.78.61-1.66,1.19-2.66,1.72-.99.54-2.11.97-3.35,1.32-1.24.34-2.6.48-4.09.4-3.47-.3-5.99-1.45-7.54-3.44-1.56-1.99-2.34-4.36-2.34-7.11v-1.6c-1.35,1.53-2.75,2.98-4.2,4.36-1.45,1.38-2.94,2.6-4.46,3.67-1.52,1.07-3.06,1.93-4.62,2.58-1.56.65-3.12.97-4.67.97-2.55-.23-4.69-.88-6.43-1.95-1.74-1.07-3.1-2.31-4.09-3.73-.99-1.41-1.7-2.94-2.12-4.58-.42-1.64-.64-3.23-.64-4.76,0-.61.02-1.22.05-1.83.04-.61.09-1.15.16-1.61.28-2.44.97-5.12,2.07-8.02,1.1-2.9,2.48-5.81,4.14-8.71,1.66-2.9,3.61-5.71,5.84-8.42,2.23-2.71,4.66-5.12,7.28-7.22,2.62-2.1,5.37-3.78,8.23-5.04s5.83-1.89,8.87-1.89c1.91,0,3.72.23,5.42.69,1.56.46,2.85,1.22,3.88,2.29,1.03,1.07,1.82,2.31,2.39,3.72.57,1.42.94,2.92,1.12,4.53.18,1.61.23,3.21.16,4.81Z"/>
    <path class="second-color" d="m303.99,295.26c-.99,1.68-2.34,3.76-4.04,6.25-1.7,2.48-3.6,4.87-5.68,7.16-2.09,2.29-4.34,4.26-6.75,5.9-2.41,1.64-4.82,2.46-7.22,2.46-1.42,0-2.76-.23-4.04-.69-1.28-.46-2.41-1.15-3.4-2.06-.99-.92-1.77-2.1-2.34-3.55-.57-1.45-.81-3.17-.74-5.16.07-1.91.32-3.82.74-5.73.43-1.91.99-3.95,1.7-6.13.71-2.18,1.54-4.57,2.5-7.16.96-2.6,2.07-5.5,3.35-8.71.57-1.53,1.06-2.98,1.49-4.36.43-1.38.64-2.6.64-3.67,0-.76-.44-.96-1.33-.57-.89.38-2.36,1.49-4.41,3.32-2.48,2.45-4.78,4.85-6.91,7.22-2.12,2.37-4.21,5.01-6.27,7.91-1.13,2.6-2.2,5.43-3.19,8.48-.92,3.06-1.74,6.29-2.44,9.69-.71,3.4-1.17,6.86-1.38,10.37,0,.76-.53,1.07-1.59.92-1.06-.15-2.21-.52-3.45-1.09-1.24-.57-2.39-1.3-3.45-2.18-1.06-.88-1.63-1.7-1.7-2.46.21-5.35,1.12-10.72,2.71-16.1,1.59-5.39,3.42-10.91,5.47-16.56,1.06-2.9,1.84-5.31,2.34-7.22.5-1.91.57-3.05.21-3.44-.85.15-2.87,1.64-6.06,4.47-2.48,2.37-4.75,4.76-6.8,7.16-2.05,2.41-4.18,5.06-6.38,7.97-1.84,4.51-3.4,9.13-4.67,13.87-1.27,4.74-2.09,9.63-2.44,14.67-.07.69-.64.96-1.7.8s-2.2-.52-3.4-1.09c-1.21-.57-2.34-1.28-3.4-2.12-1.06-.84-1.63-1.64-1.7-2.41.28-5.73,1.29-11.4,3.03-17.02s3.59-11.29,5.58-17.02c.99-2.67,1.97-5.42,2.92-8.25.96-2.83,1.86-5.92,2.71-9.28.85-.46,2.02-.48,3.51-.06,1.49.42,2.9,1.09,4.25,2.01,1.34.92,2.44,2.03,3.29,3.32.85,1.3,1.06,2.6.64,3.9h.11c0,.15-.04.27-.11.34,2.62-2.67,5.42-4.95,8.39-6.82,2.97-1.87,6.09-2.92,9.35-3.15.85,0,1.79.33,2.82.97,1.03.65,1.97,1.45,2.82,2.41.85.96,1.49,1.97,1.91,3.04.43,1.07.5,2.03.21,2.87-.14.23-.23.46-.27.69-.04.23-.12.42-.27.57,2.69-2.75,5.59-5.14,8.71-7.16,3.12-2.02,6.37-3.15,9.77-3.38.78,0,1.66.33,2.66.97.99.65,1.89,1.45,2.71,2.41.81.96,1.45,1.97,1.91,3.04.46,1.07.55,2.03.27,2.87-1.21,3.67-2.41,7.03-3.61,10.09-1.21,3.06-2.27,5.69-3.19,7.91-.85,1.91-1.59,3.71-2.23,5.39-.64,1.68-1.21,3.36-1.7,5.04-.5,1.68-.92,3.4-1.28,5.16-.35,1.76-.6,3.67-.74,5.73-.07.38,0,.8.21,1.26.21.46.71.5,1.49.12,1.98-.99,4.32-2.81,7.01-5.44,2.69-2.64,5.49-6.25,8.39-10.83.64-.99,1.31-2.16,2.02-3.5.71-1.34,1.45-2.77,2.23-4.3l1.17-1.95c.43-.61.99-.99,1.7-1.15.71-.15,1.36-.13,1.96.06.6.19,1.03.56,1.28,1.09.25.54.16,1.19-.27,1.95-.92,1.68-1.86,3.34-2.82,4.99-.96,1.64-1.89,3.31-2.81,4.99Z"/>
    <path class="second-color" d="m342.98,274.75c-3.05,5.96-7.12,10.95-12.22,14.96-5.1,4.01-10.84,7.01-17.21,9v.92c0,2.45.44,4.83,1.33,7.16.88,2.33,2.28,3.84,4.2,4.53,1.34.31,2.97.17,4.89-.4s3.93-1.6,6.06-3.09,4.32-3.44,6.59-5.85c2.27-2.41,4.46-5.29,6.59-8.65,1.13-1.76,2.16-3.48,3.08-5.16.92-1.68,1.77-3.28,2.55-4.81.43-.61.99-.99,1.7-1.15.71-.15,1.36-.13,1.96.06.6.19,1.03.56,1.28,1.09.25.54.16,1.19-.27,1.95l-2.02,3.55c-1.7,2.98-3.79,6.32-6.27,10.03-2.48,3.71-5.49,7.36-9.03,10.95-1.98,1.83-3.97,3.25-5.95,4.24-1.98.99-3.88,1.74-5.68,2.24-1.81.5-3.45.78-4.94.86-1.49.08-2.66.11-3.51.11-5.24,0-9.32-1.38-12.22-4.13-2.91-2.75-4.46-6.49-4.68-11.23-.14-4.36.6-8.65,2.23-12.9,1.63-4.24,4.25-8.96,7.86-14.16,1.13-1.6,2.67-3.36,4.62-5.27,1.95-1.91,4.14-3.65,6.59-5.21,2.44-1.57,5.05-2.85,7.81-3.84,2.76-.99,5.52-1.45,8.29-1.38,2.69.08,4.85.84,6.48,2.29,1.63,1.45,2.44,3.36,2.44,5.73,0,2.22-.85,4.74-2.55,7.57Zm-6.38-9.74c-2.76.61-5.4,2.04-7.92,4.3-2.52,2.25-4.75,4.87-6.69,7.85-1.95,2.98-3.61,6.08-4.99,9.29-1.38,3.21-2.36,6.04-2.92,8.48,5.1-1.91,9.72-4.76,13.87-8.54s7.56-8.42,10.25-13.93c.57-1.38.85-2.75.85-4.13,0-1.15-.2-2.02-.58-2.64-.39-.61-1.01-.84-1.86-.69Z"/>
    <path class="second-color" d="m377.83,262.14c0,.69-.51.99-1.54.92-1.03-.08-2.21-.32-3.56-.75-1.35-.42-2.62-.96-3.82-1.6-1.2-.65-1.95-1.24-2.23-1.78-.07-5.12.55-9.7,1.86-13.75,1.31-4.05,3.03-7.64,5.15-10.77,2.12-3.13,4.58-5.85,7.38-8.14,2.8-2.29,5.68-4.28,8.66-5.96,2.97-1.68,5.95-3.07,8.92-4.18,2.97-1.11,5.74-2.04,8.29-2.81,4.46-1.3,9.08-2.22,13.87-2.75,4.78-.53,9.58-.8,14.4-.8,4.04,0,8.22.12,12.54.34,4.32.23,8.39.54,12.22.92,3.4.31,6.8.56,10.2.75,3.4.19,6.62.29,9.67.29,3.75,0,7.22-.23,10.41-.69,3.19-.46,6.13-1.34,8.82-2.64.5-.23.78.11.85,1.03s0,1.99-.21,3.21c-.21,1.22-.51,2.43-.9,3.61-.39,1.19-.83,1.97-1.33,2.35-2.83,1.07-5.93,1.85-9.3,2.35-3.37.5-6.78.75-10.25.75-3.9,0-7.92-.21-12.06-.63-4.14-.42-8.34-.86-12.59-1.32-4.53-.53-9.12-1.03-13.76-1.49-4.64-.46-9.26-.69-13.87-.69-2.91,0-5.76.11-8.55.34-2.8.23-5.61.65-8.45,1.26-3.83.76-7.53,2.06-11.1,3.9-3.58,1.83-6.78,4.41-9.62,7.74-2.83,3.32-5.15,7.53-6.96,12.61-1.81,5.08-2.85,11.21-3.13,18.4Zm49.62-40c.35-.61,1.22-.71,2.6-.29,1.38.42,2.8,1.15,4.25,2.18,1.45,1.03,2.67,2.29,3.67,3.78.99,1.49,1.24,2.96.74,4.41-3.54,4.66-7.05,9.72-10.52,15.19-3.47,5.46-6.8,11.08-9.99,16.85-3.19,5.77-6.16,11.6-8.93,17.48-2.76,5.89-5.21,11.62-7.33,17.19-2.12,5.58-3.9,10.89-5.31,15.93-1.42,5.04-2.34,9.55-2.76,13.52-.07.53-.53.48-1.38-.17-.85-.65-1.79-1.53-2.81-2.64-1.03-1.11-1.95-2.27-2.76-3.5-.82-1.22-1.26-2.18-1.33-2.87.21-4.05,1.03-8.71,2.44-13.98,1.42-5.27,3.24-10.81,5.47-16.62,2.23-5.81,4.76-11.79,7.6-17.94,2.83-6.15,5.77-12.13,8.82-17.94,3.04-5.81,6.07-11.35,9.08-16.62,3.01-5.27,5.82-9.93,8.45-13.98Z"/>
    <path class="second-color" d="m465.05,274.75c-3.05,5.96-7.12,10.95-12.22,14.96s-10.84,7.01-17.21,9v.92c0,2.45.44,4.83,1.33,7.16.88,2.33,2.28,3.84,4.2,4.53,1.35.31,2.97.17,4.89-.4s3.93-1.6,6.06-3.09,4.32-3.44,6.59-5.85c2.27-2.41,4.46-5.29,6.59-8.65,1.13-1.76,2.16-3.48,3.08-5.16.92-1.68,1.77-3.28,2.55-4.81.42-.61.99-.99,1.7-1.15.71-.15,1.36-.13,1.97.06.6.19,1.03.56,1.27,1.09.25.54.16,1.19-.27,1.95l-2.02,3.55c-1.7,2.98-3.79,6.32-6.27,10.03-2.48,3.71-5.49,7.36-9.03,10.95-1.98,1.83-3.97,3.25-5.95,4.24-1.98.99-3.88,1.74-5.68,2.24-1.81.5-3.45.78-4.94.86-1.49.08-2.66.11-3.51.11-5.24,0-9.31-1.38-12.22-4.13s-4.46-6.49-4.67-11.23c-.14-4.36.6-8.65,2.23-12.9,1.63-4.24,4.25-8.96,7.86-14.16,1.13-1.6,2.67-3.36,4.62-5.27,1.95-1.91,4.14-3.65,6.59-5.21,2.44-1.57,5.05-2.85,7.81-3.84,2.76-.99,5.52-1.45,8.29-1.38,2.69.08,4.85.84,6.48,2.29,1.63,1.45,2.44,3.36,2.44,5.73,0,2.22-.85,4.74-2.55,7.57Zm-6.38-9.74c-2.76.61-5.4,2.04-7.92,4.3-2.51,2.25-4.75,4.87-6.69,7.85-1.95,2.98-3.61,6.08-4.99,9.29-1.38,3.21-2.36,6.04-2.92,8.48,5.1-1.91,9.72-4.76,13.87-8.54s7.56-8.42,10.25-13.93c.57-1.38.85-2.75.85-4.13,0-1.15-.2-2.02-.58-2.64-.39-.61-1.01-.84-1.86-.69Z"/>
    <path class="second-color" d="m523.06,293.2c-.5.84-1.01,1.7-1.54,2.58-.53.88-1.04,1.74-1.54,2.58-1.27,2.22-2.62,4.45-4.04,6.71-1.42,2.25-2.96,4.28-4.62,6.08-1.67,1.8-3.47,3.25-5.42,4.36-1.95,1.11-4.09,1.58-6.43,1.43-1.28-.08-2.46-.55-3.56-1.43-1.1-.88-2.12-2.02-3.08-3.44-.96-1.41-1.84-3.08-2.66-4.99-.82-1.91-1.58-3.97-2.29-6.19-4.82,3.75-9.71,7.13-14.66,10.14-4.96,3.02-9.88,5.44-14.77,7.28h.32c-.64.46-1.34.72-2.12.8-.78.08-1.45.02-2.02-.17-.57-.19-.96-.48-1.17-.86-.21-.38-.07-.84.43-1.38,5.17-2.45,10.48-5.52,15.94-9.23,5.45-3.71,10.91-7.85,16.36-12.44-.92-3.59-1.72-7.2-2.39-10.83-.67-3.63-1.26-6.9-1.75-9.8-1.06,2.06-2.3,4.2-3.72,6.42l-4.14,7.11c-.28.38-.76.61-1.43.69-.67.08-1.29.04-1.86-.12-.57-.15-1.03-.4-1.38-.75-.36-.34-.36-.75,0-1.2h-.11c.78-1.76,1.82-3.78,3.13-6.08,1.31-2.29,2.67-4.74,4.09-7.34l5.95-10.89c.43-.76,1.15-1.51,2.18-2.24,1.03-.72,2.18-1.09,3.45-1.09,1.77,0,3.12.84,4.04,2.52,1.49,9.86,2.87,18.11,4.14,24.76,4.82-4.43,9.38-8.96,13.71-13.58,4.32-4.62,8.29-9.15,11.9-13.58h.11c.5-.53,1.01-.67,1.54-.4.53.27.99.73,1.38,1.38.39.65.64,1.4.74,2.24.11.84.05,1.53-.16,2.06-3.83,4.36-8.09,8.98-12.8,13.87-4.71,4.89-9.72,9.71-15.04,14.44,2.2,10.24,4.32,15.4,6.38,15.47.57.08,1.24-.17,2.02-.75.78-.57,1.61-1.34,2.5-2.29.88-.95,1.81-2.02,2.76-3.21.96-1.18,1.86-2.42,2.71-3.73.42-.61.87-1.28,1.33-2.01.46-.72,1.01-1.64,1.65-2.75.64-1.11,1.43-2.46,2.39-4.07.96-1.6,2.11-3.59,3.45-5.96.21-.38.62-.59,1.22-.63.6-.04,1.19.06,1.75.29.57.23,1.03.54,1.38.92.35.38.43.84.21,1.38l-4.46,7.91Z"/>
    <path class="second-color" d="m525.43,259.73c-.63.23-1.19.27-1.69.11-.49-.15-.88-.4-1.16-.74-.28-.34-.38-.73-.32-1.15.07-.42.35-.82.84-1.2,4.99-3.51,10.11-6.42,15.35-8.71,3.89-9.02,6.66-16.77,8.29-23.27.85-.46,2.02-.5,3.51-.12,1.49.38,2.9,1.03,4.25,1.95,1.34.92,2.44,2.03,3.29,3.32.85,1.3,1.06,2.6.64,3.9-.29.76-.74,1.93-1.38,3.5-.64,1.57-1.42,3.34-2.34,5.33,5.31-1.15,10.66-1.72,16.04-1.72.71,0,1.58.02,2.6.06,1.03.04,1.89.1,2.6.17.21.61.21,1.3,0,2.06-.21.76-.55,1.47-1.01,2.12-.46.65-1.01,1.19-1.65,1.6-.64.42-1.27.56-1.91.4-.85-.08-1.66-.13-2.44-.17-.78-.04-1.56-.06-2.34-.06-2.48,0-4.94.15-7.38.46-2.44.31-4.91.76-7.38,1.38l-4.99,10.54-.64,1.38c-.64,1.3-1.51,3.11-2.6,5.44-1.1,2.33-2.28,4.93-3.56,7.79-1.28,2.87-2.57,5.87-3.88,9-1.31,3.13-2.5,6.17-3.56,9.11-1.06,2.94-1.93,5.67-2.6,8.2-.67,2.52-1.01,4.58-1.01,6.19s.18,2.71.53,3.09h.85c1.91-.76,3.75-1.97,5.52-3.61,1.77-1.64,3.45-3.51,5.05-5.62,1.59-2.1,3.12-4.33,4.57-6.71,1.45-2.37,2.78-4.66,3.98-6.88h-.11c.35-.61.71-1.2,1.06-1.78.35-.57.71-1.16,1.06-1.78.21-.38.62-.59,1.22-.63.6-.04,1.18.06,1.75.29.57.23,1.03.54,1.38.92.35.38.43.84.21,1.38l-2.66,4.7c-1.06,1.83-2.18,3.75-3.35,5.73-1.17,1.99-2.43,3.95-3.77,5.9-1.35,1.95-2.76,3.82-4.25,5.62-1.49,1.8-3.05,3.42-4.67,4.87-.5.46-1.13.99-1.91,1.6-.78.61-1.68,1.17-2.71,1.66-1.03.5-2.18.92-3.45,1.26-1.27.34-2.61.52-4.01.52-2.88-.15-4.97-1.22-6.27-3.21-1.3-1.99-1.95-4.43-1.95-7.34,0-.61.04-1.34.1-2.18.07-.84.18-1.6.32-2.29.49-3.44,1.25-6.88,2.26-10.32s2.18-6.86,3.47-10.26c1.3-3.4,2.72-6.78,4.27-10.14,1.55-3.36,3.13-6.72,4.77-10.09l3.08-6.65c-1.63.76-3.26,1.55-4.88,2.35-1.63.8-3.25,1.7-4.86,2.69h-.21Z"/>
  </g>
  <g>
    <path class="second-color" d="m195.87,340.81v41.54l-29.95-31.42v29.44h-4.8v-41.54l29.95,31.42v-29.44h4.8Z"/>
    <path class="second-color" d="m213.02,374.89c.47.72,1.13,1.25,1.98,1.61s1.82.54,2.91.54c1.39,0,2.65-.28,3.76-.85,1.11-.56,2-1.36,2.66-2.4.66-1.04.99-2.23.99-3.59l.9,3.39c0,1.66-.5,3.03-1.5,4.13s-2.22,1.9-3.67,2.43c-1.45.53-2.89.79-4.32.79-1.58,0-3.06-.33-4.44-.99-1.38-.66-2.48-1.61-3.31-2.85-.83-1.24-1.24-2.75-1.24-4.52,0-2.52.89-4.55,2.69-6.08,1.79-1.53,4.29-2.29,7.49-2.29,1.88,0,3.46.22,4.72.65,1.26.43,2.27.92,3.02,1.47.75.55,1.26.99,1.53,1.33v2.66c-1.32-.9-2.68-1.55-4.07-1.95-1.39-.4-2.88-.59-4.46-.59-1.47,0-2.67.19-3.59.57-.92.38-1.61.9-2.06,1.58-.45.68-.68,1.49-.68,2.43s.23,1.83.71,2.54Zm-3.59-17.86c.98-.72,2.33-1.43,4.04-2.15s3.78-1.07,6.19-1.07c2.03,0,3.81.31,5.34.93,1.53.62,2.71,1.52,3.56,2.68s1.27,2.6,1.27,4.29v18.65h-4.52v-18.03c0-.9-.15-1.65-.45-2.23s-.73-1.05-1.27-1.38c-.55-.34-1.18-.58-1.89-.74-.72-.15-1.47-.23-2.26-.23-1.28,0-2.44.15-3.48.45-1.04.3-1.91.66-2.63,1.07-.72.42-1.28.77-1.7,1.07l-2.21-3.33Z"/>
    <path class="second-color" d="m244.04,341.43c.62-.6,1.35-.9,2.18-.9s1.6.3,2.2.9c.6.6.9,1.34.9,2.2s-.3,1.55-.9,2.18c-.6.62-1.34.93-2.2.93s-1.55-.31-2.18-.93c-.62-.62-.93-1.35-.93-2.18s.31-1.6.93-2.2Zm4.44,12.94v26h-4.52v-26h4.52Z"/>
    <path class="second-color" d="m267.97,336.29v44.08h-4.52v-44.08h4.52Z"/>
    <path class="second-color" d="m284.98,374.61c.68.68,1.46,1.21,2.35,1.61.88.4,1.86.59,2.91.59,1.28,0,2.29-.29,3.02-.88.73-.58,1.1-1.38,1.1-2.4,0-.9-.29-1.67-.88-2.29-.58-.62-1.33-1.15-2.23-1.58-.9-.43-1.87-.84-2.88-1.21-1.13-.45-2.27-.99-3.42-1.61-1.15-.62-2.11-1.43-2.88-2.43-.77-1-1.16-2.25-1.16-3.76s.4-2.83,1.21-3.84c.81-1.02,1.87-1.77,3.17-2.26,1.3-.49,2.65-.73,4.04-.73s2.7.23,3.93.68,2.31,1.05,3.25,1.81c.94.75,1.68,1.62,2.2,2.6l-3.62,2.32c-.72-.98-1.61-1.79-2.68-2.43-1.07-.64-2.29-.96-3.64-.96-.94,0-1.75.21-2.43.62-.68.42-1.02,1.06-1.02,1.92,0,.68.26,1.28.79,1.81.53.53,1.21,1,2.03,1.41s1.7.81,2.6,1.19c1.51.6,2.88,1.25,4.13,1.95,1.24.7,2.23,1.54,2.97,2.51.73.98,1.1,2.24,1.1,3.79,0,2.26-.82,4.14-2.46,5.65s-3.8,2.26-6.47,2.26c-1.73,0-3.3-.31-4.69-.93-1.39-.62-2.57-1.42-3.53-2.4-.96-.98-1.69-1.98-2.18-3l3.56-2.2c.53.79,1.13,1.53,1.81,2.2Z"/>
    <path class="second-color" d="m339.15,356.15c-.96-.96-1.81-2.04-2.54-3.25-.73-1.21-1.1-2.52-1.1-3.96,0-1.77.42-3.31,1.24-4.63.83-1.32,1.97-2.34,3.42-3.05,1.45-.71,3.12-1.07,5-1.07,2,0,3.7.42,5.11,1.24,1.41.83,2.5,1.91,3.25,3.25.75,1.34,1.13,2.8,1.13,4.38,0,.94-.19,1.87-.57,2.77s-.92,1.8-1.64,2.68c-.72.89-1.58,1.73-2.6,2.54s-2.19,1.61-3.5,2.4c-1.02.6-2.13,1.21-3.33,1.84-1.21.62-2.35,1.32-3.42,2.09-1.07.77-1.95,1.67-2.63,2.68-.68,1.02-1.02,2.24-1.02,3.67s.37,2.68,1.1,3.73c.74,1.05,1.72,1.86,2.97,2.43s2.62.85,4.12.85c1.81,0,3.55-.4,5.23-1.19,1.68-.79,3.29-1.86,4.83-3.19,1.54-1.34,3.04-2.85,4.49-4.55,1.45-1.7,2.85-3.47,4.21-5.31l3.5,2.2c-1.51,1.96-3.05,3.91-4.63,5.85-1.58,1.94-3.28,3.68-5.09,5.23-1.81,1.55-3.77,2.79-5.88,3.73-2.11.94-4.43,1.41-6.95,1.41-2.15,0-4.19-.44-6.13-1.33-1.94-.89-3.52-2.15-4.75-3.79s-1.84-3.57-1.84-5.79c0-1.66.29-3.11.88-4.35s1.34-2.34,2.26-3.28c.92-.94,1.93-1.75,3.02-2.43,1.09-.68,2.17-1.27,3.22-1.78,1.05-.51,1.96-.97,2.71-1.38,2.11-1.21,3.78-2.48,5-3.81,1.22-1.34,1.84-2.65,1.84-3.93,0-.98-.2-1.83-.59-2.54-.4-.71-.95-1.28-1.67-1.7-.71-.41-1.6-.62-2.66-.62-1.55,0-2.75.43-3.62,1.3-.87.87-1.3,2.02-1.3,3.45,0,1.28.51,2.51,1.53,3.67,1.02,1.17,2.09,2.41,3.22,3.73l20.91,24.02h-5.42l-18.99-21.7c-.6-.72-1.38-1.55-2.35-2.51Z"/>
    <path class="second-color" d="m404.14,372.57c1,1.21,2.12,2.15,3.36,2.83,1.24.68,2.66,1.02,4.24,1.02,2.11,0,3.8-.58,5.09-1.75,1.28-1.17,1.92-2.66,1.92-4.46s-.42-3.18-1.24-4.24c-.83-1.05-1.91-1.91-3.25-2.57-1.34-.66-2.76-1.25-4.27-1.78-.98-.34-2.07-.78-3.28-1.33-1.21-.55-2.35-1.24-3.45-2.09s-1.99-1.89-2.68-3.14-1.04-2.77-1.04-4.58c0-1.96.49-3.71,1.47-5.26.98-1.54,2.34-2.76,4.07-3.65,1.73-.88,3.71-1.33,5.93-1.33s4.02.41,5.62,1.22c1.6.81,2.97,1.85,4.1,3.11,1.13,1.26,2.02,2.59,2.66,3.98l-4.12,2.37c-.49-.98-1.11-1.94-1.87-2.88-.75-.94-1.67-1.71-2.74-2.32s-2.38-.9-3.93-.9c-2.15,0-3.71.52-4.69,1.55-.98,1.04-1.47,2.2-1.47,3.48,0,1.09.28,2.1.85,3.02.57.92,1.52,1.79,2.85,2.6,1.34.81,3.16,1.61,5.45,2.4,1.05.38,2.17.87,3.33,1.47,1.17.6,2.25,1.37,3.25,2.29,1,.92,1.82,2.03,2.46,3.33s.96,2.85.96,4.66-.33,3.3-.99,4.69-1.56,2.58-2.71,3.56c-1.15.98-2.45,1.73-3.9,2.26s-2.97.79-4.55.79c-2.15,0-4.13-.46-5.96-1.38-1.83-.92-3.43-2.15-4.8-3.67-1.38-1.53-2.5-3.16-3.36-4.89l3.84-2.6c.9,1.58,1.86,2.98,2.85,4.18Z"/>
    <path class="second-color" d="m435.87,392.8v-38.43h4.52v38.43h-4.52Zm24.53-18.2c-1.17,2.03-2.72,3.6-4.66,4.69-1.94,1.09-4.1,1.64-6.47,1.64-2.15,0-4.04-.55-5.68-1.64-1.64-1.09-2.92-2.66-3.84-4.69-.92-2.03-1.38-4.45-1.38-7.23s.46-5.25,1.38-7.26c.92-2.02,2.2-3.57,3.84-4.66,1.64-1.09,3.53-1.64,5.68-1.64,2.37,0,4.53.55,6.47,1.64,1.94,1.09,3.49,2.65,4.66,4.66s1.75,4.44,1.75,7.26-.58,5.2-1.75,7.23Zm-4.04-12.32c-.81-1.39-1.88-2.45-3.22-3.17s-2.82-1.07-4.44-1.07c-1.32,0-2.62.36-3.9,1.07s-2.34,1.77-3.16,3.17c-.83,1.39-1.24,3.09-1.24,5.09s.41,3.69,1.24,5.09c.83,1.39,1.88,2.45,3.16,3.17s2.58,1.07,3.9,1.07c1.62,0,3.1-.36,4.44-1.07s2.41-1.77,3.22-3.17c.81-1.39,1.21-3.09,1.21-5.09s-.41-3.69-1.21-5.09Z"/>
    <path class="second-color" d="m476.76,374.89c.47.72,1.13,1.25,1.98,1.61s1.82.54,2.91.54c1.39,0,2.65-.28,3.76-.85,1.11-.56,2-1.36,2.66-2.4.66-1.04.99-2.23.99-3.59l.9,3.39c0,1.66-.5,3.03-1.5,4.13s-2.22,1.9-3.67,2.43c-1.45.53-2.89.79-4.32.79-1.58,0-3.06-.33-4.44-.99-1.38-.66-2.48-1.61-3.31-2.85-.83-1.24-1.24-2.75-1.24-4.52,0-2.52.89-4.55,2.69-6.08,1.79-1.53,4.29-2.29,7.49-2.29,1.88,0,3.46.22,4.72.65,1.26.43,2.27.92,3.02,1.47.75.55,1.26.99,1.53,1.33v2.66c-1.32-.9-2.68-1.55-4.07-1.95-1.39-.4-2.88-.59-4.46-.59-1.47,0-2.67.19-3.59.57-.92.38-1.61.9-2.06,1.58-.45.68-.68,1.49-.68,2.43s.23,1.83.71,2.54Zm-3.59-17.86c.98-.72,2.33-1.43,4.04-2.15s3.78-1.07,6.19-1.07c2.03,0,3.81.31,5.34.93,1.53.62,2.71,1.52,3.56,2.68s1.27,2.6,1.27,4.29v18.65h-4.52v-18.03c0-.9-.15-1.65-.45-2.23s-.73-1.05-1.27-1.38c-.55-.34-1.18-.58-1.89-.74-.72-.15-1.47-.23-2.26-.23-1.28,0-2.44.15-3.48.45-1.04.3-1.91.66-2.63,1.07-.72.42-1.28.77-1.7,1.07l-2.21-3.33Z"/>
  </g>
  <g>
    <path class="first-color" d="m638.18,410.59c-9.8-1-19.6-2.41-29.42-2.59-7.13-.13-14.56.5-21.39,2.43-14.1,3.99-27.34,10.4-40.61,16.63-11.51,5.4-23.1,10.62-34.68,15.86-.96.43-2.12.41-3.18.6.44-1.42,1.17-1.95,1.95-2.38,9.25-5.08,18.54-10.1,27.77-15.22,3.75-2.08,7.63-4.05,11.05-6.61,11.51-8.63,23.57-16.66,32.79-27.97,4.54-5.56,8.95-11.22,13.32-16.91,1.9-2.48,3.64-5.09,5.24-7.77,2.32-3.89,4.89-7.71,6.55-11.88,3.33-8.34,11.44-11.08,17.33-17.1,2.3-2.35,4.2-5.06,6.42-7.48,4.96-5.4,9.78-10.21,11.65-17.57,1.69-6.67.6-13.8-.33-20.5-.21-1.53-.46-3.14-1.42-4.35-1.25-1.58-3.44-2.11-5.46-2.05s-3.99.61-6,.74c-10.27.67-14.77-9.91-22.01-15.18-2.85-2.07-6.14-4.09-9.51-4.73-5.01-.95-9.63-3.85-14.64-4.44-.19-.02-.39-.04-.56.04-.17.08-.28.23-.39.38-.41.57-.83,1.14-1.24,1.71-1.33,1.84.23,4.11.74,6.07.66,2.54,1.08,5.14,1.23,7.76.32,5.32-.47,10.65-1.99,15.75-4.1,13.76-2.7,27.13,7.37,38.52,1.91,2.16,3.61,4.51,5.51,6.67,2.39,2.71,5.62,7,5.16,10.83-.16,1.3-.77,2.5-1.43,3.63-4.05,6.89-10.85,12.04-16.2,17.9-5.49,6.01-10.73,12.24-16.16,18.3-5.44,6.07-11.08,11.98-17.25,17.31-6.37,5.51-13.7,9.04-20.75,13.59-9.9,6.4-20.59,11.55-31.78,15.25-5.75,1.9-11.67,3.13-17.43,4.97-7.74,2.47-15.12,5.77-23.03,7.57s-16.02,2.89-24.03,4.31c-8.46,1.5-17.22,1.2-25.78,2.2-10.01,1.17-20.3-.5-30.18-2.07-1.08-.17-2.49-1.21-1.71-2.25.34-.45,2.19-.65,2.71-.79,1.93-.52,3.87-.97,5.8-1.47,4.17-1.07,8.53-1.66,12.52-3.18,19.62-7.48,38.4-18.57,54.57-31.89,3.42-2.28,6.52-5.38,9.7-7.99,2.6-2.15,7.09-4.22,5.45-8.2-7.94.68-16.09.11-24.07,2.07-9.56,2.34-19,5.43-28.68,6.99-5.77.93-11.22,3.09-16.6,5.31-2.35.97-4.56,2.13-7,2.87s-5.06,1.28-7.17,2.84c-.81.6-1.52,1.34-2.26,2.04-4.37,4.15-9.7,5.94-14.95,8.63-8.6,4.41-18.01,6.62-27.4,8.78-12.77,2.94-25.76,5.62-38.93,5.34s-25.71-2.46-38.11-5.28c-4.01-.91-8-1.91-11.99-2.93-9.96-2.57-19.88-5.35-29.99-7.25-7.8-1.47-15.68-2.41-23.51-3.63-6.58-1.03-13.03-2.87-19.57-3.85s-13.41.05-20.05.68c-10,.96-20.08,1-30.09,1.92-11.79,1.08-23.45,3.37-34.85,6.56-11.24,3.15-22.15,6.91-32.16,13.02-3.63,2.21-6.84,4.87-10.26,7.34-3.2,2.31-6.84,4.13-9.38,7.24-1.6,1.95-2.64,4.28-3.67,6.58-1.55,3.47-3.1,6.94-4.65,10.41.71.23,6.29,2.22,6.48,1.93,4.06-6.14,9.13-10.41,14.72-14.09,3.6-2.37,7.27-4.66,11.04-6.76,6.49-3.62,12.73-8.28,19.71-10.3,11.23-3.25,22.33-7.52,34.29-7.9,8.4-.27,16.78-1.25,25.18-1.36,7.79-.1,15.11,1.73,21.84,6.22,7.58,5.05,16.19,8.67,23.32,14.24,10.57,8.26,22.71,13.5,34.45,19.34,8.26,4.1,17.7,6.03,26.79,8.22,14.19,3.42,28.58,5.91,42.93,8.49,3.09.56,7.63,1.41,10.24-.89-4.07-2.15-8.37-3.55-12.28-6.15-3.68-2.44-7.08-5.26-10.54-8-4.68-3.71-9.55-7.26-14.69-10.28-10.55-6.22-21.36-12-32.01-18.07-1.28-.73-2.21-2.06-3.28-3.15,3.96.42,7.99.53,11.86,1.37,11.28,2.45,22.43,5.48,33.74,7.77,9.4,1.9,18.93,3.31,28.45,4.52,10.96,1.39,21.97,2.46,32.98,3.42,8.85.77,17.73,1.24,26.61,1.67,8.4.4,16.94-.26,25.19,1.03,13.23,2.07,26.45,1.75,39.55.52,10.92-1.02,21.69-3.85,32.44-6.25,4.7-1.05,9.27-2.17,14.16-2.36,6.21-.24,12.47-.86,18.56-2.08,14.01-2.81,28.08-3.31,42.27-2.46,9.1.54,18.22,1.26,27.33,1.2,5.95-.04,12.05-.71,17.79-2.24,9.97-2.65,19.83-5.84,29.5-9.43,11.29-4.2,21.92-9.73,30.49-18.54,2.47-2.53,5.47-4.71,6.1-8.45-1.31-2.95-3.87-3.04-6.19-3.27Z"/>
    <path class="first-color" d="m667.26,267.55c-1.39-2.33-3.23-4.31-5.63-5.58-2.53-1.34-5.31-2.11-7.98-3.12-4.55-1.73-8.89-4.19-13.68-5.02-4.59-.8-9.26-.01-13.65,1.38-3.89,1.23-8.69,2.66-11.77,5.41-.39.35-.78.75-.88,1.26-.09.43.05.88.18,1.3,1.01,3.18,2.57,9.84,6.1,11.21.77.3,1.61.33,2.43.37,4.36.17,8.72.35,13.08.52,2.08.08,4.18.17,6.16.81,1.87.61,3.55,1.7,5.07,2.94,7.53,6.14,6.84,15.15,5.71,23.95-.91,7.07-2.96,13.96-5.81,20.48-2.45,5.58-5.8,10.79-10.12,15.1-2.21,2.2-4.69,4.27-7.38,5.85-2.53,1.48-6.09,2.67-7.92,5.06.86.71,3.17,1.58,4.4,1.27,5.37-1.34,10.31-4.91,14.78-8.1,4.7-3.35,8.98-7.29,12.73-11.68,9.78-11.43,14.38-24.48,16.83-39.08.72-4.25,1.21-8.61.81-12.93-.35-3.78-1.39-7.97-3.43-11.39Z"/>
  </g>
</svg>