<svg id="Layer_1" data-name="Layer 1" xmlns="http://www.w3.org/2000/svg" viewBox="0 0 700 700">
  <defs>
    <style>
      .cls-1s-l02 {
        fill: #231f20;
      }
    </style>
  </defs>
  <path class="cls-1s-l02 first-color" d="m549.78,461.55c-3.2-2.55-5.08-5.17-6.61-4.98-1.96.25-3.64,2.76-5.43,4.3,1.46,1.67,2.82,4.56,4.42,4.7,1.93.17,4.06-2,7.62-4.02Z"/>
  <path class="cls-1s-l02 second-color" d="m499.02,563.39c8.08-9.55,12.91-21.18,25.7-25.65-.39-.38-.78-.76-1.18-1.15h-21.44c-.19.46-.38.91-.56,1.37,2.29,1.25,4.58,2.5,7.84,4.27-4.13,6.04-8,11.7-12.44,18.18-4.27-6.92-7.83-12.7-11.48-18.6,3.46-1.5,5.99-2.59,8.53-3.69-.22-.55-.45-1.11-.67-1.66h-27.45c.64,1.34.99,2.95,1.5,3,7.27.73,9.86,6.76,13.37,11.66,3.46,4.83,9.45,9.88,9.32,14.7-.14,5.07-6.14,10.04-9.7,14.96-3.48,4.81-6.7,9.97-13.38,11.01-.5.08-.77,1.68-1.18,2.64h21.73c.12-.53.24-1.07.37-1.6-1.3-.51-2.95-.69-3.82-1.6-1.12-1.18-2.67-3.61-2.21-4.36,3.57-5.74,7.59-11.19,12.03-17.54,4.56,7.42,8.39,13.67,12.29,20.01-3.46,1.65-5.83,2.78-8.21,3.91.25.37.5.74.75,1.1h26.93c-13.91-6.4-17.04-21.23-26.63-30.95Z"/>
  <path class="cls-1s-l02 second-color" d="m503.11,633.27c-6.52-1.36-11.87,1.18-13.95,8.73,1.5-.64,2.94-1.52,4.5-1.88,3.1-.7,6.26-1.35,9.41-1.46.73-.03,1.94,2.15,2.12,3.43.09.59-1.65,1.86-2.73,2.14-2.77.7-5.69.83-8.46,1.54-4.26,1.08-6.62,3.91-6.14,8.42.46,4.35,3.49,6.5,7.52,6.47,4.99-.03,9.97-.75,14.54-1.14,0-4.67-.09-9.99.03-15.31.12-5.22-.74-9.66-6.85-10.94Zm-8.33,22.43c-1.04-.49-2.31-1.81-2.33-2.78-.03-.91,1.29-2.45,2.28-2.7,3.27-.86,6.66-1.26,10.59-1.94-.81,6.15-5.96,9.54-10.53,7.41Z"/>
  <path class="cls-1s-l02 second-color" d="m470.56,657.58c4.04-3.77,5.07-12.47,2.36-18.34-1.97-4.26-5.41-6.55-10.06-6.04-3.47.38-6.84,1.6-10.73,2.56,0,10.16-.06,21.06.09,31.95.02,1.14,1.22,2.26,1.88,3.39.73-1.07,1.97-2.09,2.08-3.23.29-3.01.1-6.06.1-10,1.41.76,1.91.98,2.35,1.28,4.44,2.98,8.43,1.72,11.95-1.56Zm-14.53-10.42c.02-5.31,3.22-9.48,7.25-9.44,4.01.04,6.67,3.65,6.69,9.09.02,5.75-2.73,9.39-7.07,9.33-4.05-.06-6.89-3.77-6.88-8.98Z"/>
  <path class="cls-1s-l02 second-color" d="m576.62,553.18c.44-.43.87-.87,1.31-1.3v-15.32h-50.33v15.72c.47.33.94.65,1.42.98,3.68-8.47,7.52-16.67,19.06-12.79,0,15.05-.03,30.19.02,45.32.01,3.75-2.22,4.84-5.39,5.43-1.51.28-2.87,1.32-4.3,2.02.22.47.43.94.65,1.41h27.26c-.39-1.9-1.3-3.18-2.3-3.26-6.18-.46-7.51-4.15-6.95-9.49.24-2.28.04-4.6.04-6.9,0-11.64,0-23.28,0-34.49,11.96-4.14,15.2,5.15,19.52,12.68Z"/>
  <path class="cls-1s-l02 second-color" d="m401.43,542.75c3.08,2.3,4.74,6.51,7.02,9.89.35-.25.71-.5,1.06-.75v-15.46h-50.34v15.85c3.36-3.25,4.97-7.57,8.07-9.83,3.11-2.27,7.72-2.49,12.42-3.82,0,16.87-.03,32,.02,47.14.01,3.74-2.19,4.85-5.38,5.44-1.51.28-2.89,1.32-4.32,2.02.21.48.42.95.64,1.43h27.27c.19-.5.39-1.01.58-1.51-1.51-.74-3.15-1.3-4.51-2.26-1.84-1.3-4.93-2.86-4.97-4.38-.37-15.47-.23-30.95-.23-48.19,4.98,1.63,9.53,2.09,12.67,4.43Z"/>
  <path class="cls-1s-l02 second-color" d="m276.84,591.36c-1.37.26-2.61,1.26-3.9,1.93.19.43.37.85.56,1.28h25.34c.17-.45.35-.89.52-1.34-1.18-.7-2.59-1.18-3.5-2.14-1.76-1.87-4.54-3.97-4.61-6.04-.42-13.06-.39-26.14-.02-39.2.06-1.93,2.57-3.94,4.23-5.64,1.02-1.04,2.56-1.56,3.87-2.31l-.55-1.7c-4.91,0-9.83.14-14.73-.05-2.95-.12-4.11.83-5.19,3.79-4.71,13.01-9.91,25.84-15.44,40.04-1.3-3.17-2.04-4.88-2.71-6.63-4.27-11.11-8.48-22.24-12.84-33.31-.56-1.42-1.85-3.55-2.9-3.6-6.18-.34-12.39-.17-18.59-.17-.17.59-.33,1.18-.5,1.77,1.19.7,2.59,1.18,3.53,2.13,2.13,2.15,5.65,4.45,5.76,6.82.56,12.28.29,24.59.17,36.89-.04,3.9-2.08,6.33-6.06,7.29-6.14,1.47-10.52-.5-12.93-6.44-5.97-14.77-11.8-29.6-17.81-44.35-.63-1.55-2.13-2.76-3.22-4.13-1.12,1.36-2.65,2.55-3.29,4.11-5.62,13.67-11.12,27.38-16.55,41.13-1.82,4.61-3.89,8.78-9.32,10.07-.68.16-1.07,1.56-1.98,2.99h22.52c.15-.48.31-.96.46-1.45-1.41-.67-2.76-1.69-4.24-1.95-4.37-.78-5.02-3.22-3.99-7.1,2.57-9.75,2.48-9.77,12.55-9.77,2.88,0,5.82-.33,8.63.14,1.48.25,3.42,1.64,3.93,2.98,1.51,4.01,2.48,8.24,3.37,12.45.05.22-2.68.91-4.02,1.58-1.05.53-1.95,1.36-2.91,2.06.31.36.63.73.94,1.09h47.96c.64-.78,1.27-1.56,1.91-2.34-1.25-.33-2.47-.77-3.74-.97-6.66-1.06-7.87-5.76-7.85-11.43.04-10.76-.02-21.53.01-32.3,0-.74.42-1.47.94-3.23,6.55,17.33,12.67,33.54,18.8,49.76.59.02,1.19.04,1.78.06,6.57-16.17,13.15-32.35,19.72-48.52,1.27,13.45,1.25,26.49,1.28,39.54.01,3.73-1.86,5.56-5.42,6.24Zm-92.73-20.95c2.68-6.81,5.27-13.42,8.47-21.57,2.69,6.52,4.74,11.41,6.72,16.32.63,1.56,1.1,3.18,1.81,5.24h-17.01Z"/>
  <path class="cls-1s-l02 second-color" d="m309.15,591.34c-1.24.18-2.35,1.3-3.53,1.99.18.43.35.86.53,1.29h49c.3-5.77.58-11.27.86-16.77-.67-.17-1.33-.34-2-.51-1.12,2-1.94,4.27-3.44,5.93-2.56,2.83-5.15,6.5-8.46,7.58-4.18,1.37-9.17,1.02-13.66.34-1.93-.29-4.73-3.15-4.92-5.05-.62-6.43-.23-12.95-.23-19.13,10-3.63,15.01,1.56,17.95,10.72.38-.49.76-.98,1.13-1.47v-22.48c-4.37,7.44-9.99,11.34-19.16,8,0-3.47,0-7.09,0-10.71s0-7.49,0-11.06c6.12,0,11.75-1.28,16.32.37,4.27,1.54,7.42,6.19,11.9,10.21v-13.96h-45.31c-.17.46-.34.91-.51,1.37,1.38.77,2.68,1.83,4.16,2.23,3.31.9,4.58,2.82,4.55,6.26-.13,12.88-.14,25.76,0,38.64.04,3.8-1.43,5.66-5.17,6.19Z"/>
  <path class="cls-1s-l02 first-color" d="m220.22,184.91c.21,22.87.1,45.74.1,68.61,0,23.45.05,46.9-.06,70.34-.02,3.37.75,5.51,3.97,7.36,40.61,23.26,81.14,46.66,121.6,70.18,2.74,1.59,4.57,1.5,7.16,0,40.34-23.34,80.7-46.63,121.13-69.81,3.61-2.07,4.78-4.51,4.76-8.69-.17-45.94-.15-91.87-.04-137.81,0-3.82-.89-6.1-4.51-8.17-39.47-22.55-78.87-45.22-118.07-68.24-5.25-3.08-8.86-2.86-13.88.08-38.92,22.73-77.97,45.24-117.09,67.64-3.61,2.07-5.13,4.24-5.09,8.49Zm197.14,154.72c-21.09,12.19-42.22,24.3-63.23,36.62-3.38,1.98-5.83,2.07-9.36,0-30.44-17.79-61.03-35.33-92.72-53.6,10.12-5.84,19.14-11.22,28.39-16.19,1.29-.69,3.94.25,5.54,1.16,19.82,11.3,39.61,22.67,59.27,34.23,3.11,1.83,5.35,1.74,8.36-.02,19.35-11.34,38.86-22.41,58.18-33.81,3.56-2.1,6.24-2.33,9.81-.09,7.92,4.97,16.12,9.48,25.1,14.7-10.25,5.93-19.79,11.46-29.34,16.98Zm-11.13-85.06c0,9.22-.12,18.44.07,27.66.07,3.23-.82,5.25-3.75,6.91-16.68,9.44-33.2,19.16-49.93,28.51-1.7.95-4.88.91-6.59-.05-16.54-9.29-32.88-18.95-49.38-28.31-2.88-1.63-4.02-3.43-3.99-6.77.15-19.01-.04-38.03.24-57.04.03-2.11,1.78-5.06,3.62-6.15,16.29-9.72,32.73-19.21,49.29-28.47,1.84-1.03,5.23-1.06,7.06-.04,16.58,9.23,32.92,18.88,49.45,28.19,3.15,1.78,4.09,3.87,4,7.33-.22,9.41-.08,18.82-.08,28.23Zm50.83,49.42c-9.81-5.66-18.63-10.61-27.26-15.87-1.28-.78-2.38-3.01-2.39-4.58-.16-19.56-.13-39.13-.04-58.69,0-1.39.47-3.47,1.43-4.05,9.1-5.5,18.35-10.74,28.26-16.46v99.65Zm-166.34-140.66c18.27-10.55,36.49-21.16,54.88-31.49,1.89-1.06,5.33-1.35,7.11-.34,30.34,17.25,60.53,34.75,90.75,52.22.8.46,1.49,1.1,2.91,2.16-9.67,5.6-18.78,11.06-28.13,16.07-1.26.68-3.93-.48-5.58-1.43-18.98-10.84-37.96-21.7-56.78-32.81-4.33-2.56-7.53-3.35-12.42-.38-19,11.55-38.39,22.47-57.74,33.45-1.66.94-4.55,1.45-6.05.65-8.95-4.79-17.66-10.02-27.56-15.75,13.48-7.8,26.04-15.09,38.61-22.35Zm-49.1,40.88c9.73,5.61,18.85,10.75,27.8,16.18,1.1.67,1.8,2.86,1.81,4.35.12,19.58.12,39.16,0,58.74,0,1.51-.61,3.75-1.69,4.4-8.96,5.42-18.1,10.55-27.92,16.19v-99.86Z"/>
  <path class="cls-1s-l02 second-color" d="m266.99,628.54c-.05-1.18-1.21-2.3-1.86-3.45-.73,1.05-2.08,2.08-2.1,3.14-.16,9.76-.16,19.53,0,29.29.02,1.07,1.35,2.11,2.07,3.17.66-1.14,1.83-2.26,1.88-3.43.22-4.78.09-9.57.09-14.36,0-4.79.12-9.58-.09-14.36Z"/>
  <path class="cls-1s-l02 first-color" d="m100.52,202.82c-1.68,1.67-4.34,3.14-4.74,5.07-.31,1.51,2.2,3.59,4.5,6.96,2.27-3.37,4.59-5.33,4.57-7.26-.01-1.6-2.79-3.18-4.34-4.77Z"/>
  <path class="cls-1s-l02 first-color" d="m618.31,364.37c5.14.09,9.24-3.87,9.27-8.93.02-4.96-4.24-9.16-9.22-9.09-4.76.07-8.8,4-8.99,8.75-.2,4.99,3.85,9.18,8.94,9.27Z"/>
  <path class="cls-1s-l02 first-color" d="m192.8,96.87c5.23.18,9.05-3.44,9.17-8.69.12-5.24-3.55-9.13-8.7-9.19-4.88-.06-9.17,4.17-9.15,9.01.02,4.65,3.99,8.7,8.68,8.87Z"/>
  <path class="cls-1s-l02 first-color" d="m332.71,68.53c-2.44-3.46-5.8-6.99-9.55-8.57-2.9-1.22-8.28-.69-10.3,1.32-2.02,2.01-2.39,7.21-1.37,10.32,1.08,3.31,4.17,6.54,7.22,8.51,9.17,5.91,18.69,11.3,28.23,16.59,1.48.82,4.2.81,5.68-.02,9.54-5.3,19.06-10.69,28.23-16.6,3.05-1.97,6.15-5.22,7.21-8.53,1-3.11.56-8.32-1.48-10.31-2.05-2-7.3-2.39-10.34-1.28-3.46,1.25-6.66,4.51-8.85,7.67-4.89,7.05-9.09,14.58-13.57,21.91,2.35-9.36,5.51-18.36,7.88-27.57,1.56-6.05,2.68-12.38,2.72-18.6.05-6.87-5.88-12.98-12.2-14.26-5.51-1.12-12.55,2.15-14.97,8.35-1.65,4.22-2.62,9.49-1.66,13.8,2.8,12.64,6.72,25.03,10.2,37.52-.14.07-.29.15-.43.22-4.17-6.86-8.01-13.95-12.63-20.49Z"/>
  <path class="cls-1s-l02 first-color" d="m539.85,416.39c-1.15,1.41-2.78,2.55-4.38,3.47-34.63,19.91-72.08,24.27-110.82,18.63-17.71-2.57-35.05-7.65-52.11-11.49,24.6,44.39,80.74,70.5,131.75,60.41,8.46-1.67,16.84-4.24,23.08-10.83,5.38-5.68,4.61-11.89-1.93-15.16-2.51-1.26-5.44-2.32-8.18-2.35-9.57-.1-19.2-.36-28.69.63-17.47,1.82-34.84,2.69-52.19-.78-15.77-3.15-30.28-9.14-44.01-19.5,1.79,0,2.53-.1,3.23.01,14.74,2.42,29.4,5.83,44.24,7.09,32.1,2.73,63.25-1.76,92.45-16.16,4.28-2.11,7.95-2.37,12.49-1.24,28.63,7.12,55.18,3.05,78.59-15.79,8.47-6.82,15.73-14.8,21.85-26.18-12.3-1.34-23.25-3.44-34.22-3.57-28.72-.34-52.75,10.27-71.14,32.79Z"/>
  <path class="cls-1s-l02 first-color" d="m528.07,251.71c-.23,1.74,2.35,3.86,4.74,7.34,2.25-3.49,4.53-5.48,4.48-7.42-.05-1.66-3.11-4.8-4.21-4.54-2.03.47-4.77,2.78-5.01,4.62Z"/>
  <path class="cls-1s-l02 first-color" d="m449.46,72.86c-8.36-3.4-17.02-6.3-26.28-3.94-7.4,1.89-9.03,6.43-4.71,12.72,1.19,1.73,2.54,3.46,4.16,4.75,8.72,6.89,17.17,14.24,26.43,20.33,24.84,16.34,45.97,36.02,58.98,63.22,4.17,8.72,7.25,17.97,10.95,27.31,4.58-27.36,13.12-53.31,25.63-77.99,2.74-5.4,4.57-11.39,5.93-17.31.6-2.6-.11-6.81-1.89-8.26-1.72-1.41-5.98-1.11-8.41,0-10.96,5.01-16.86,14.63-19.55,25.7-2.93,12.04-4.33,24.46-6.37,36.52-.39-1.04-.89-2.85-1.7-4.5-6.55-13.41-12.11-27.45-20.02-40.01-10.54-16.72-24.24-30.86-43.15-38.54Z"/>
  <path class="cls-1s-l02 first-color" d="m515.42,87.99c-.02-4.83-4.34-9.05-9.22-9-5.18.05-8.93,3.96-8.81,9.19.11,5,3.72,8.6,8.71,8.69,5.08.09,9.33-3.97,9.32-8.88Z"/>
  <path class="cls-1s-l02 first-color" d="m161.04,93.92c-3.08-1.51-8.32-2.33-10.56-.7-2.06,1.49-2.49,6.95-1.73,10.22,1.46,6.29,3.65,12.6,6.63,18.33,12.9,24.78,20.65,51.15,25.21,79.21,1.96-6.9,3.24-13.29,5.55-19.28,12.51-32.47,35.29-56.13,64.07-74.84,9.46-6.14,18.25-13.4,26.87-20.71,3.78-3.2,8.56-7.59,5.44-13.26-3.11-5.65-9.59-5.16-15.07-4.59-11.66,1.23-22.31,5.55-31.77,12.46-14.49,10.58-26.03,23.96-34.69,39.54-6.1,10.98-10.95,22.65-15.2,31.59-2.33-11.03-4.56-24.45-8.14-37.49-2.43-8.85-8.1-16.32-16.6-20.47Z"/>
  <path class="cls-1s-l02 first-color" d="m614.55,226.37c-28.29,8.43-49.04,24.82-59.42,53.72-9.61,26.74-24.27,50.97-42.37,72.89-8.46,10.25-18.04,19.58-27.11,29.33-.43-.4-.87-.8-1.31-1.2,5.7-7.11,11.56-14.1,17.08-21.35,23.55-30.91,43.17-63.9,54.26-101.51,1.29-4.38,3.77-8.76,6.74-12.25,31.67-37.36,31.9-87.19,8.67-127.97-5.78,7.93-11.84,15.15-16.7,23.1-20.97,34.25-26.7,69.43-5.39,105.96.94,1.62.7,4.24.29,6.25-.69,3.36-1.84,6.65-3,9.9-23.9,66.48-65.45,119.37-123.17,159.78-2.08,1.46-4.15,2.93-6.23,4.39,45.32,4.63,88.16-.18,125.76-27.81,25.11-18.45,46.25-40.11,57.02-71.2-24.37-.78-45.37,5.82-64.14,19.94,9.96-12.89,22.27-22.52,37.89-27.34,15-4.63,27.71-12.89,39.26-23.28,13.08-11.77,20.64-27.01,27.53-42.72,5.44-12.41,12.1-23.98,22.22-33.26.33-.3.35-.93.64-1.77-16.74-.52-32.81,1.75-48.5,6.43Z"/>
  <path class="cls-1s-l02 first-color" d="m363.79,454.06c.31-8.05-5.65-14.54-13.56-14.77-7.81-.23-14.16,5.53-14.54,13.19-.42,8.37,5.64,15.01,13.82,15.16,7.65.14,13.98-5.87,14.28-13.58Z"/>
  <path class="cls-1s-l02 first-color" d="m54.43,245.25c4.46,7.57,7.59,15.9,11.5,23.8,12.74,25.76,33.02,42.74,60.14,51.97,5.94,2.02,12,4.48,17.1,8.04,7.44,5.21,14.06,11.6,21.03,17.48-.39.53-.78,1.06-1.17,1.59-18.4-14.09-39.12-20.52-63.24-19.74,11.2,32.1,33.22,54.22,59.42,72.83,37.23,26.44,79.36,30.76,124.76,27.24-2.76-1.99-4.23-3.09-5.75-4.14-58.46-40.42-100.52-93.56-124.95-160.5-2.96-8.1-5.54-15.58,1.08-23.2,1.92-2.21,2.73-5.47,3.8-8.34,12.18-32.6,5.11-62.68-12.49-91.12-5.16-8.33-11.49-15.94-17.67-24.41-2.05,4.67-3.56,7.99-4.97,11.34-18.53,43.87-14.99,84.6,17.23,121.28,1.22,1.38,2.2,3.2,2.67,4.98,9.01,34.1,25.64,64.45,46.02,92.87,8.42,11.74,17.52,23,26.31,34.47-2.29-1.41-4.36-3.07-6.3-4.87-29.66-27.62-50.3-61.21-65.68-98.39-3.2-7.73-6.57-15.84-11.78-22.22-24.56-30.06-58.99-35.09-94.52-36.69,6.18,8.99,12.36,17.04,17.47,25.72Z"/>
  <path class="cls-1s-l02 first-color" d="m328.27,425c-29.86,11.09-59.07,16.74-89.42,15.51-26.89-1.09-52.38-7.23-75.67-21.18-1.25-.75-2.53-1.62-3.43-2.74-18.73-23.09-43.32-33.62-72.65-33-10.56.22-21.07,2.29-32.95,3.68,6.34,10.98,13.14,18.88,21.34,25.57,23.69,19.33,50.5,23.41,79.67,16.35,2.93-.71,6.71-1.17,9.2.07,34.41,17.13,70.77,20.85,108.35,16.09,11.14-1.41,22.17-3.75,33.35-5.69-.28.43-.46,1.03-.86,1.28-4.06,2.54-8.04,5.25-12.27,7.49-25.93,13.7-53.59,14.85-81.92,11.17-11.45-1.49-22.99-2.82-34.28.66-9.23,2.85-11.16,10.73-3.82,16.96,4.25,3.61,9.67,6.3,15.01,8.06,20.33,6.73,40.87,5.42,61.24-.03,34.02-9.09,60.37-28.44,79.11-60.26Z"/>
  <path class="cls-1s-l02 first-color" d="m162.1,251.2c.22,2,2.49,4.94,4.3,5.27,1.75.32,4-2.17,7.47-4.31-3.22-2.47-5.06-4.97-7.03-5.07-1.62-.09-4.89,2.82-4.75,4.11Z"/>
  <path class="cls-1s-l02 second-color" d="m463.29,577.87c-.65-.19-1.29-.38-1.94-.57-1.14,1.99-2.3,3.98-3.41,5.98-2.06,3.72-3.93,7.74-8.96,7.99-4.4.22-8.91.67-13.2-.06-1.96-.33-4.79-3.12-4.97-5.01-.62-6.43-.24-12.96-.24-19.11,10.01-3.81,14.98,1.44,17.92,10.58.37-.46.75-.92,1.12-1.39v-22.48c-.37-.15-.73-.3-1.1-.45-2.14,2.85-3.73,6.74-6.58,8.25-3.03,1.6-7.26.95-11,1.28v-22.9c5.62,0,11.26-1.3,15.81.37,4.37,1.61,7.6,6.3,11.94,10.18v-13.94h-45.28c.44,1.95,1.37,3.11,2.46,3.3,4.87.82,5.85,3.78,5.76,8.26-.25,11.91-.21,23.84-.02,35.75.07,4.29-.88,7.09-5.7,7.51-1.06.09-2.03,1.22-3.05,1.88.18.42.36.85.54,1.27h49.01c.29-5.71.58-11.21.86-16.72Z"/>
  <path class="cls-1s-l02 second-color" d="m363.3,657.32q4.58,3.37,7.25-.32c-1.61-1.23-3.27-2.5-4.69-3.58,1.04-3.12,1.85-5.57,2.66-8.02-.42-.42-.84-.83-1.25-1.25-1.82,1.21-3.64,2.42-5.55,3.69-.84-1.01-1.73-2-2.53-3.06-.89-1.18-1.7-2.41-2.52-3.59,6.55-5.6,7.83-9.22,4.86-13.06-2.66-3.44-8.05-4.19-11.97-1.66-4.4,2.84-4.58,6.64-.45,13.83-7.57,5.61-9.3,9.7-6.47,14.82,3.42,6.18,9.57,6.83,20.66,2.19Zm-9.16-27.45c1.58-.11,3.26,1.42,6.34,2.95-2.93,2.23-4.52,4.33-6.23,4.43-1.18.07-3.04-2.48-3.54-4.18-.22-.74,2.14-3.12,3.44-3.21Zm-2.03,13.39c2.69,3.39,5.15,6.5,7.61,9.61-5.17,4.13-9.33,4.31-12.1.74-2.71-3.49-1.65-6.23,4.48-10.35Z"/>
  <path class="cls-1s-l02 second-color" d="m428.05,660.09c4.85-1.43,8.2-4.16,8.32-9.64.11-5.47-3.56-7.77-8.03-9.15-3.47-1.08-7.17-1.51-10.54-2.81-1.45-.56-3.25-2.6-3.24-3.95.02-1.4,1.78-3.56,3.22-4.03,4.69-1.51,9.41-1.93,12.95,2.87.8,1.09,2.41,1.57,4.84,3.07-1.84-9.37-8.6-13.04-17.08-11.02-4.7,1.12-8.35,3.49-8.61,8.68-.27,5.34,3.45,7.81,8.01,9.15,3.49,1.03,7.17,1.54,10.53,2.87,1.48.58,3.21,2.56,3.31,4.01.1,1.49-1.28,3.64-2.64,4.58-4.86,3.38-12.43,1.24-15.6-3.8-.86-1.36-2.63-2.14-3.99-3.19.98,10.86,8.68,15.28,18.56,12.36Z"/>
  <path class="cls-1s-l02 first-color" d="m90.04,355.62c.1-5.02-3.99-9.24-9-9.28-4.95-.04-9.29,4.24-9.25,9.14.04,4.65,4.09,8.72,8.85,8.88,5.22.18,9.29-3.61,9.4-8.74Z"/>
  <path class="cls-1s-l02 second-color" d="m122.15,554c9.45,12.83,18.82,25.72,28.38,38.47,1.29,1.72,3.49,2.77,6.4,5,0-17,.04-31.98-.02-46.95-.02-5.21.81-9.61,7.08-10.68.99-.17,1.78-1.54,3.52-3.14h-25.08c-.16.48-.32.96-.49,1.44,1.6.83,3.32,1.48,4.76,2.53,1.89,1.38,5,3.02,5.07,4.64.44,11.32.23,22.67.23,34.86-1.75-2.29-3.04-3.9-4.26-5.56-8.53-11.6-16.99-23.25-25.66-34.75-1.22-1.62-3.36-3.3-5.23-3.51-4.53-.51-9.16-.17-13.75-.17-.25.62-.5,1.24-.74,1.87,1.53.92,2.97,2.11,4.62,2.72,3.86,1.43,6.17,4.02,6.2,8.11.09,11.53.03,23.05-.08,34.58-.04,3.86-1.75,6.49-5.85,7.42-1.39.32-2.54,1.68-3.79,2.57.21.38.43.75.64,1.13h23.6c-.63-2.06-1.72-3.28-3.01-3.53-5.39-1.06-7.13-4.61-7.16-9.57-.03-5.19-.1-10.37-.12-15.56-.02-5.4,0-10.81,0-17.85,2.39,2.99,3.62,4.42,4.74,5.94Z"/>
  <path class="cls-1s-l02 second-color" d="m218.92,633.2c-6.8-1.19-11.83,1.43-14.9,9.37,2.94-1.37,4.44-2.44,6.09-2.76,3.14-.61,6.35-.98,9.54-.99.65,0,1.86,2.05,1.78,3.07-.07.86-1.54,2.02-2.59,2.3-2.77.72-5.67.88-8.46,1.55-4.27,1.02-6.73,3.76-6.31,8.29.43,4.66,3.65,6.73,7.93,6.67,4.81-.08,9.61-.77,14.13-1.17,0-4.71-.11-10.22.03-15.71.14-5.36-1.19-9.54-7.25-10.6Zm-2.64,22.38c-2.51.23-5.2-1.52-7.81-2.38,2.03-1.31,3.92-2.96,6.13-3.83,1.88-.74,4.1-.6,6.8-.92.72,4.5-1.78,6.83-5.11,7.14Z"/>
  <path class="cls-1s-l02 first-color" d="m599.48,212.36c1.48.28,3.52-2.37,6.64-4.7-3.27-2.19-5.25-4.51-7.23-4.52-1.54,0-4.61,3.33-4.3,4.39.58,2.01,2.92,4.44,4.89,4.82Z"/>
  <path class="cls-1s-l02 first-color" d="m163.99,461.27c-3.41-2.38-5.32-4.74-7.19-4.7-1.62.03-3.19,2.77-4.78,4.32,1.65,1.67,3.08,4.26,5.02,4.71,1.45.34,3.54-2.08,6.96-4.33Z"/>
  <path class="cls-1s-l02 second-color" d="m243.57,633.87l-1.07,1.18v25.1c.53.37,1.05.75,1.58,1.12.84-1.18,2.36-2.34,2.4-3.55.23-6.87.24-13.77-.03-20.64-.04-1.11-1.88-2.14-2.88-3.21Z"/>
  <path class="cls-1s-l02 second-color" d="m162.35,661.24c.55-.32,1.1-.63,1.65-.95v-25.57c6.28,7.32,11.33,15.12,16.7,22.7,1.22,1.72,3.57,2.64,6.77,4.89,0-12.52.07-22.86-.09-33.18-.02-1.35-1.22-2.69-1.87-4.04-.79,1.4-2.21,2.77-2.25,4.19-.23,7.2-.11,14.4-.11,21.61-6.33-7.32-11.38-15.12-16.78-22.68-1.24-1.74-3.68-2.62-6.85-4.77,0,12.8-.09,23.53.12,34.25.02,1.2,1.75,2.36,2.69,3.54Z"/>
  <path class="cls-1s-l02 second-color" d="m287.32,653.75c-1.44-.63-2.94-1.13-5.51-2.11,3.31,9.32,12.86,11.84,18.72,6.57,4.51-4.06,3.65-10.16-1.91-12.56-2.44-1.05-5.18-1.41-7.63-2.44-1.39-.59-2.47-1.91-3.69-2.91,1.53-.86,2.99-2.22,4.6-2.44,1.52-.21,3.21.79,4.83,1.23,1.68.46,3.36.9,6.25,1.67-4.1-7.65-11.48-9.68-16.89-6.08-4.89,3.25-4.56,10.01.75,12.58,2.21,1.07,4.83,1.3,7.04,2.38,1.79.88,3.23,2.46,4.83,3.73-2.13.93-4.21,2.4-6.41,2.6-1.58.14-3.29-1.47-4.98-2.21Z"/>
</svg>