<svg id="Layer_1" data-name="Layer 1" xmlns="http://www.w3.org/2000/svg" viewBox="0 0 700 700">
  <defs>
    <style>
      .cls-3-l07tt {
        font-family: ArialMT, Arial;
        font-size: 100px;
      }
    </style>
  </defs>
  <g>
    <path class="first-color" d="m445.78,240.64c-5.24-12.38-12.73-23.5-22.28-33.04-9.55-9.55-20.66-17.04-33.04-22.28-12.82-5.42-26.43-8.17-40.46-8.17s-27.65,2.75-40.46,8.17c-12.38,5.24-23.5,12.73-33.04,22.28-9.55,9.55-17.04,20.66-22.28,33.04-5.42,12.82-8.17,26.43-8.17,40.46s2.75,27.64,8.17,40.46c5.24,12.38,12.73,23.5,22.28,33.04,9.55,9.55,20.66,17.04,33.04,22.28,12.82,5.42,26.43,8.17,40.46,8.17s27.65-2.75,40.46-8.17c12.38-5.24,23.5-12.73,33.04-22.28,9.55-9.55,17.04-20.66,22.28-33.04,5.42-12.82,8.17-26.43,8.17-40.46s-2.75-27.65-8.17-40.46Zm-95.78,141.53c-55.73,0-101.07-45.34-101.07-101.07s45.34-101.07,101.07-101.07,101.07,45.34,101.07,101.07-45.34,101.07-101.07,101.07Z"/>
    <path class="first-color" d="m445.78,240.64c-5.24-12.38-12.73-23.5-22.28-33.04-9.55-9.55-20.66-17.04-33.04-22.28-12.82-5.42-26.43-8.17-40.46-8.17s-27.65,2.75-40.46,8.17c-12.38,5.24-23.5,12.73-33.04,22.28-9.55,9.55-17.04,20.66-22.28,33.04-5.42,12.82-8.17,26.43-8.17,40.46s2.75,27.64,8.17,40.46c5.24,12.38,12.73,23.5,22.28,33.04,9.55,9.55,20.66,17.04,33.04,22.28,12.82,5.42,26.43,8.17,40.46,8.17s27.65-2.75,40.46-8.17c12.38-5.24,23.5-12.73,33.04-22.28,9.55-9.55,17.04-20.66,22.28-33.04,5.42-12.82,8.17-26.43,8.17-40.46s-2.75-27.65-8.17-40.46Zm-95.78,141.53c-55.73,0-101.07-45.34-101.07-101.07s45.34-101.07,101.07-101.07,101.07,45.34,101.07,101.07-45.34,101.07-101.07,101.07Z"/>
    <path class="first-color" d="m380.29,168.29c2.22,1.4,12.27,7.02,23.33,1.81,12.54-5.91,14.27-20.7,25.52-21.57,0,0-11.81-3.58-22.73-4.76-14.55-1.57-24.82,4.63-26.42,21.89,16.48-15.2,31.32-15.64,31.32-15.64-18.22,3.81-28.78,15.55-31.02,18.27Z"/>
    <path class="first-color" d="m393.97,170.25c-4.42,0-8.18-1.39-10.49-2.51,3.88-4.09,13.48-12.66,28.25-15.75,1.02-.21,1.71-1.17,1.59-2.21-.12-1.02-.98-1.78-2-1.78-.02,0-.04,0-.06,0-.58.02-13.32.54-28.39,12.54,2.41-9.95,8.91-14.99,19.37-14.99,1.26,0,2.6.07,3.96.22,5.74.62,11.79,1.93,16.14,3.01-3.06,2.02-5.37,5.12-7.77,8.34-3.15,4.23-6.41,8.61-11.81,11.15-2.79,1.31-5.75,1.98-8.79,1.98h0Z"/>
    <path class="first-color" d="m514.55,325.07c2.42,1.01,13.26,4.89,23.31-2.08,11.39-7.91,10.65-22.78,21.59-25.5,0,0-12.24-1.58-23.2-.93-14.61.87-23.71,8.68-22.43,25.96,13.74-17.72,28.29-20.61,28.29-20.61-17.34,6.78-25.81,20.1-27.57,23.15Z"/>
    <path class="first-color" d="m524.71,325.04c-2.86,0-5.34-.52-7.1-1.04,3.14-4.67,11.2-14.71,25.25-20.21.97-.38,1.5-1.44,1.2-2.45-.26-.87-1.06-1.45-1.94-1.45-.13,0-.26.01-.4.04-.57.11-13.04,2.74-25.92,17.07.35-4.94,1.83-8.91,4.41-11.87,3.43-3.92,8.86-6.13,16.15-6.56,1.72-.1,3.58-.15,5.55-.15,3.97,0,7.82.21,10.87.44-2.68,2.5-4.45,5.94-6.28,9.51-2.41,4.69-4.9,9.55-9.8,12.95-3.55,2.46-7.59,3.71-12.01,3.71h0Z"/>
    <path class="first-color" d="m598.65,321.37c-15.19,4.88-19.77,19.2-20.64,22.5,4.56.6,25.08,2.38,45.85-10.21,0,0-14.54,12.79-43.79,12.97,16.89,15.03,32.2,11.8,44.68-2.65,9.36-10.84,17.44-24.77,17.44-24.77-11.49,9.19-26.31-3.38-43.54,2.15Z"/>
    <path class="first-color" d="m601.83,354.46c-5.28,0-10.73-2.01-16.26-5.99,26.01-1.58,39.05-12.78,39.62-13.29.79-.69.91-1.87.29-2.71-.39-.54-1.01-.82-1.63-.82-.36,0-.72.09-1.04.29-14.12,8.56-28.09,10.35-37.32,10.35-1.91,0-3.54-.08-4.82-.18,1.76-4.9,6.73-15.02,18.59-18.83,2.87-.92,5.86-1.37,9.15-1.37,4.25,0,8.36.75,12.34,1.47,3.75.68,7.3,1.32,10.77,1.32,1.91,0,3.65-.2,5.27-.6-3.21,5-8.2,12.34-13.57,18.56-6.76,7.82-13.95,11.79-21.39,11.79Z"/>
    <path class="first-color" d="m535.18,243.97c7.18-3.65,8.09-9.15,4.92-15.16-2.38-4.51-5.96-9-5.96-9,1.56,5-4.53,8.29-4.93,14.72-.35,5.67,3.8,9.05,4.79,9.76.79-1.43,4.04-8.01,2.56-16.53,0,0,2.36,6.48-1.38,16.21Z"/>
    <path class="first-color" d="m533.33,240.88c-1.12-1.38-2.28-3.48-2.11-6.22.16-2.5,1.41-4.54,2.63-6.51.58-.94,1.19-1.93,1.67-2.99.15.22.3.45.45.68-.97.29-1.58,1.27-1.4,2.28.95,5.45-.21,10.05-1.24,12.77Zm5.52-2.51c.44-2.5.52-4.66.43-6.41.63,1.84.71,3.5.25,4.96-.16.5-.38.98-.68,1.45Z"/>
    <path class="first-color" d="m495.48,223.73c-9.83,3.45-16.24.91-16.24.91,8.48,1.73,15.14-1.34,16.6-2.08-.69-1-3.94-5.25-9.62-5.07-6.44.21-9.9,6.21-14.86,4.51,0,0,4.38,3.7,8.82,6.21,5.92,3.35,11.44,2.59,15.3-4.48Z"/>
    <path class="first-color" d="m486.53,228.11c-.99,0-2.05-.21-3.18-.63.63.05,1.32.08,2.07.08,1.43,0,2.89-.11,4.36-.33-1,.59-2.08.88-3.25.88h0Zm-9.21-4.11c-.23-.16-.45-.31-.66-.47,1.05-.44,2.05-1.02,3.03-1.59,2.01-1.16,4.08-2.36,6.59-2.44.1,0,.2,0,.3,0,2.6,0,4.57,1.17,5.87,2.29-1.91.66-4.7,1.35-8.04,1.35-1.6,0-3.2-.16-4.76-.48-.14-.03-.27-.04-.4-.04-.85,0-1.64.55-1.91,1.38Z"/>
    <path class="first-color" d="m588.68,370.17l-36.05,13.42c.53-.26,17.39-8.73,25-13.96-17.97-8.63-44.41,2.68-45,2.93l15.2-9.09c-14.94-4.39-29.16-10.19-40.88-14.96-16.91-6.88-29.39-7.68-29.39-7.68,0,0-1.21.36-2.96.93,1.45-.74,2.93-1.42,4.45-2.02,3.88-1.54,7.95-2.68,12.12-3.38,4.17-.72,8.43-1.04,12.72-1.05,2.14,0,4.29.06,6.43.21,2.15.15,4.3.35,6.44.65,2.14.29,4.28.63,6.4,1.04,1.07.2,2.13.43,3.19.65,1.08.23,2.2.48,3.31.69,4.43.88,8.93,1.54,13.48,1.87,4.54.32,9.15.34,13.76-.19,4.6-.54,9.23-1.64,13.55-3.79,2.15-1.08,4.2-2.41,6.03-4.05,1.83-1.64,3.41-3.58,4.63-5.73,1.23-2.15,2.07-4.48,2.57-6.86.5-2.38.67-4.79.59-7.16-.18-4.75-1.3-9.32-2.89-13.63-1.6-4.32-3.67-8.4-6-12.3-1.17-1.95-2.41-3.84-3.71-5.69-1.31-1.85-2.68-3.66-4.11-5.41-5.72-7.03-12.36-13.21-19.37-18.8-7.01-5.59-14.38-10.64-21.67-15.66-3.64-2.52-7.27-5.02-10.76-7.66-3.5-2.63-6.9-5.37-10-8.36-1.55-1.49-3.05-3.03-4.43-4.65-1.38-1.62-2.65-3.31-3.79-5.07-2.26-3.52-3.99-7.35-4.72-11.28-.73-3.92-.42-7.92.95-11.57,1.34-3.64,3.69-6.98,6.55-9.62,1.46-1.34,2.85-2.29,4.55-3.03,1.68-.74,3.51-1.25,5.39-1.53,3.77-.56,7.75-.25,11.35.85,1.8.56,3.5,1.3,5.02,2.25,1.52.95,2.84,2.08,3.92,3.36,2.14,2.57,3.17,5.75,3.19,9.27.01,1.78-.25,3.44-.74,4.87-.5,1.44-1.27,2.64-2.3,3.62-1.03.98-2.33,1.78-3.83,2.32-1.5.55-3.18.84-4.88.87-1.69.04-3.42-.18-4.93-.64-.75-.23-1.44-.53-2-.86-.28-.16-.52-.33-.72-.49-.04-.03-.13-.11-.21-.17l-.24-.2c-.16-.13-.31-.27-.46-.4-1.22-1.06-2.27-2.06-3.3-3.28-.52-.61-1.01-1.3-1.51-2.11l-.36-.63c-.11-.22-.24-.44-.35-.68-.12-.23-.23-.48-.34-.73l-.17-.38-.08-.19c-.03-.06-.06-.14-.1-.16l-1.51-.89c-.22-.13-.5-.08-.66.12-.09.11-.15.16-.22.23-.07.07-.13.14-.19.21-.13.14-.24.29-.35.43-.22.29-.42.6-.59.91-.18.32-.33.64-.47.98-.07.17-.13.34-.2.51l-.16.52c-.4,1.4-.49,2.92-.3,4.4.19,1.49.66,2.94,1.33,4.26.67,1.32,1.53,2.51,2.49,3.54.25.25.48.52.74.75l.38.35c.13.12.24.23.42.37.66.54,1.33,1.01,2,1.4,1.35.79,2.72,1.37,4.08,1.8,2.73.86,5.46,1.19,8.19,1.14,2.73-.07,5.47-.54,8.13-1.54,2.65-.99,5.24-2.51,7.36-4.66,2.13-2.12,3.73-4.82,4.62-7.58.92-2.77,1.17-5.58,1.08-8.23-.1-2.67-.59-5.42-1.59-8.02-1-2.61-2.5-5.04-4.36-7.08-1.86-2.05-4.05-3.7-6.36-4.98-2.32-1.28-4.75-2.21-7.23-2.81-2.48-.61-4.99-.92-7.51-.96-2.51-.04-5.02.18-7.49.7s-4.91,1.33-7.22,2.53c-1.16.6-2.28,1.29-3.34,2.11-1.08.82-1.99,1.68-2.86,2.57-1.73,1.8-3.23,3.76-4.5,5.88-1.27,2.12-2.31,4.39-3.03,6.77-.73,2.38-1.14,4.86-1.21,7.34-.07,2.48.2,4.95.77,7.32.56,2.38,1.39,4.65,2.42,6.8,1.04,2.14,2.23,4.17,3.56,6.09,2.68,3.84,5.85,7.22,9.21,10.29,6.75,6.13,14.15,11.18,21.46,16.21,7.32,5.01,14.62,9.95,21.47,15.42,3.43,2.73,6.73,5.58,9.87,8.6,1.57,1.51,3.1,3.06,4.58,4.65,1.48,1.59,2.89,3.24,4.26,4.92,1.36,1.69,2.67,3.42,3.91,5.19,1.23,1.78,2.42,3.6,3.52,5.46,2.21,3.71,4.14,7.58,5.58,11.59,1.44,4,2.41,8.16,2.53,12.28.13,4.11-.7,8.18-2.7,11.57-.99,1.7-2.27,3.21-3.75,4.52-1.49,1.31-3.19,2.39-5.02,3.28-3.66,1.76-7.79,2.71-11.98,3.15-2.1.22-4.23.31-6.36.3-2.14-.02-4.28-.14-6.42-.34-4.29-.4-8.56-1.12-12.8-2.04-1.07-.23-2.1-.48-3.19-.73-1.1-.25-2.2-.52-3.31-.74-2.21-.48-4.45-.88-6.69-1.23-4.49-.69-9.03-1.16-13.61-1.26-4.58-.11-9.19.11-13.78.77-4.58.67-9.14,1.74-13.55,3.33-4.11,1.48-8.08,3.43-11.8,5.84,7.43-8.26,16.24-17.91,26.04-26.83l-16.32-1.42,18.71-.72c6.29-5.55,12.97-10.74,19.91-15.02-8.57-1.3-26.44-1.51-26.44-1.51l35.42-3.4c10.14-4.83,20.74-7.37,31.51-6.09,0,0-38.45-34.2-64.69-6.8-23.51,24.55-32.47,61.21-49.21,74.7,6.39-8.06,11.65-16.92,15.68-26.46,5.97-14.11,9-29.1,9-44.55s-3.02-30.44-9-44.55c-5.76-13.63-14.02-25.87-24.53-36.38-10.51-10.51-22.75-18.76-36.38-24.52-5.88-2.49-11.91-4.46-18.07-5.92,1.6-4.25,6.52-20.06-3.7-31.77-11.92-13.65-19.61-13.07-22.78-27.68-3.17,14.61-10.86,14.03-22.78,27.68-10.23,11.71-5.31,27.52-3.7,31.77-6.16,1.46-12.19,3.43-18.07,5.92-13.63,5.76-25.87,14.02-36.38,24.52-10.51,10.51-18.76,22.75-24.52,36.38-5.97,14.11-9,29.1-9,44.55s3.02,30.44,9,44.55c4.03,9.54,9.29,18.4,15.68,26.46-16.73-13.49-25.7-50.15-49.21-74.7-26.24-27.39-64.69,6.8-64.69,6.8,10.77-1.28,21.37,1.26,31.51,6.09l35.42,3.4s-17.87.21-26.44,1.51c6.95,4.28,13.62,9.47,19.91,15.02l18.71.72-16.32,1.42c9.8,8.92,18.61,18.57,26.04,26.83-3.72-2.4-7.69-4.35-11.8-5.84-4.41-1.59-8.97-2.66-13.55-3.33-4.58-.66-9.2-.88-13.78-.77-4.58.1-9.13.57-13.61,1.26-2.24.35-4.47.75-6.69,1.23-1.11.22-2.21.49-3.31.74-1.08.25-2.12.5-3.19.73-4.24.93-8.51,1.64-12.8,2.04-2.14.2-4.28.32-6.42.34-2.14,0-4.26-.08-6.36-.3-4.2-.44-8.32-1.39-11.98-3.15-1.83-.89-3.53-1.97-5.02-3.28-1.49-1.3-2.76-2.82-3.75-4.52-2-3.39-2.82-7.46-2.7-11.57.12-4.12,1.09-8.28,2.53-12.28,1.44-4.01,3.37-7.88,5.58-11.59,1.1-1.86,2.29-3.68,3.52-5.46,1.24-1.77,2.55-3.5,3.91-5.19,1.36-1.68,2.78-3.33,4.26-4.92,1.48-1.59,3-3.14,4.58-4.65,3.14-3.02,6.45-5.87,9.87-8.6,6.84-5.48,14.15-10.41,21.47-15.42,7.3-5.03,14.71-10.09,21.46-16.21,3.36-3.07,6.52-6.46,9.21-10.29,1.33-1.93,2.53-3.95,3.56-6.09,1.03-2.15,1.86-4.42,2.42-6.8.57-2.37.84-4.84.77-7.32-.07-2.48-.48-4.96-1.21-7.34-.72-2.38-1.76-4.65-3.03-6.77-1.27-2.12-2.77-4.08-4.5-5.88-.87-.9-1.78-1.76-2.86-2.57-1.06-.81-2.19-1.51-3.34-2.11-2.32-1.2-4.75-2.02-7.22-2.53s-4.98-.74-7.49-.7c-2.51.04-5.03.35-7.51.96-2.48.6-4.92,1.53-7.23,2.81-2.31,1.28-4.5,2.93-6.36,4.98-1.86,2.04-3.36,4.47-4.36,7.08-1.01,2.6-1.49,5.35-1.59,8.02-.1,2.65.16,5.46,1.08,8.23.89,2.77,2.49,5.46,4.62,7.58,2.12,2.14,4.72,3.67,7.36,4.66,2.66.99,5.4,1.46,8.13,1.54,2.73.05,5.46-.28,8.19-1.14,1.36-.43,2.72-1.01,4.08-1.8.67-.4,1.35-.86,2-1.4.18-.14.29-.25.42-.37l.38-.35c.26-.23.5-.5.74-.75.96-1.04,1.83-2.22,2.49-3.54.66-1.32,1.14-2.77,1.33-4.26.19-1.48.1-3-.3-4.4l-.16-.52c-.07-.17-.13-.34-.2-.51-.13-.33-.29-.66-.47-.98-.17-.31-.37-.62-.59-.91-.11-.14-.22-.29-.35-.43-.06-.07-.12-.14-.19-.21-.07-.07-.13-.13-.22-.23-.16-.2-.44-.25-.66-.12l-1.51.89s-.06.1-.1.16l-.08.19-.17.38c-.11.25-.23.5-.34.73-.11.24-.24.46-.35.68l-.36.63c-.5.81-.99,1.5-1.51,2.11-1.03,1.22-2.08,2.22-3.3,3.28-.16.13-.3.27-.46.4l-.24.2c-.07.06-.17.15-.21.17-.2.16-.44.33-.72.49-.57.32-1.25.63-2,.86-1.51.47-3.24.69-4.93.64-1.7-.03-3.38-.32-4.88-.87-1.5-.54-2.8-1.34-3.83-2.32-1.02-.99-1.8-2.19-2.3-3.62-.5-1.43-.76-3.09-.74-4.87.02-3.51,1.05-6.7,3.19-9.27,1.07-1.28,2.39-2.42,3.92-3.36,1.52-.95,3.22-1.69,5.02-2.25,3.6-1.11,7.58-1.41,11.35-.85,1.89.28,3.72.79,5.39,1.53,1.7.74,3.09,1.69,4.55,3.03,2.87,2.63,5.21,5.97,6.55,9.62,1.37,3.65,1.68,7.65.95,11.57-.73,3.92-2.46,7.76-4.72,11.28-1.14,1.76-2.42,3.45-3.79,5.07-1.38,1.62-2.87,3.16-4.43,4.65-3.11,2.99-6.5,5.72-10,8.36-3.5,2.64-7.13,5.14-10.76,7.66-7.29,5.02-14.65,10.07-21.67,15.66-7.01,5.58-13.64,11.77-19.37,18.8-1.43,1.75-2.8,3.56-4.11,5.41-1.3,1.86-2.54,3.75-3.71,5.69-2.33,3.9-4.41,7.98-6,12.3-1.59,4.31-2.72,8.88-2.89,13.63-.08,2.37.08,4.78.59,7.16.5,2.37,1.35,4.71,2.57,6.86,1.22,2.15,2.8,4.09,4.63,5.73,1.82,1.64,3.88,2.98,6.03,4.05,4.31,2.14,8.95,3.24,13.55,3.79,4.61.53,9.21.51,13.76.19,4.55-.33,9.04-1,13.48-1.87,1.11-.21,2.23-.46,3.31-.69,1.06-.22,2.12-.45,3.19-.65,2.12-.41,4.26-.75,6.4-1.04,2.14-.3,4.29-.5,6.44-.65,2.15-.15,4.29-.22,6.43-.21,4.28.01,8.54.33,12.72,1.05,4.17.71,8.25,1.84,12.12,3.38,1.52.61,3,1.29,4.45,2.02-1.75-.57-2.96-.93-2.96-.93,0,0-12.47.8-29.39,7.68-11.71,4.77-25.94,10.57-40.88,14.96l15.2,9.09c-.6-.26-27.03-11.56-45-2.93,7.61,5.23,24.47,13.7,25,13.96l-36.05-13.42c-12.15-.09-23.66-2.63-33.53-8.96,0,0,21.25,51.44,59.72,37.19,38.47-14.25,66.45-51.75,90.93-50.11,3.02.2,5.21.24,6.72.15.04.03.07.07.11.1-10.65-.12-17.41,4.53-26.51,16.35-11.53,14.99-33.73,34.6-33.73,34.6,0,0,28.26,2.02,55.65-7.5,23.78-8.26,22.36-25.86,41.93-26.59,1.36,1.25,2.75,2.47,4.17,3.66-2.35-.02-5.48.62-9.01,3.09-7.69,5.38-11.34,13.26-20.18,18.84-8.84,5.57-27.68,8.65-27.68,8.65,0,0,22.3.96,37.48-9.04,15.18-9.99,14.61-17.71,28.45-14.53l-.3-.4c6.24,4.26,12.89,7.9,19.92,10.87,14.11,5.97,29.1,9,44.55,9s30.44-3.03,44.55-9c7.02-2.97,13.68-6.61,19.92-10.87l-.3.4c13.84-3.19,13.26,4.54,28.45,14.53,15.19,10,37.48,9.04,37.48,9.04,0,0-18.84-3.08-27.68-8.65-8.84-5.58-12.49-13.46-20.18-18.84-3.53-2.47-6.66-3.12-9.01-3.09,1.42-1.18,2.81-2.4,4.17-3.66,19.58.73,18.16,18.33,41.93,26.59,27.39,9.51,55.65,7.5,55.65,7.5,0,0-22.2-19.61-33.73-34.6-9.09-11.82-15.86-16.47-26.51-16.35.04-.03.07-.07.11-.1,1.51.09,3.69.05,6.72-.15,24.48-1.64,52.46,35.86,90.93,50.11,38.47,14.25,59.72-37.19,59.72-37.19-9.87,6.34-21.39,8.87-33.53,8.96Zm-235.6-204.37c5.76-5.11,8.28-12.13,8.36-18.52.08-6.27-2.17-11.95-2.25-12.15,13.71,20.3-6.11,30.68-6.11,30.68Zm-9.71-20.02c.06-2.93.52-5.86,1.49-8.79.49-1.46,1.1-2.93,1.9-4.4.1-.18.2-.37.31-.55.1-.18.21-.37.33-.55.22-.37.45-.73.71-1.1.5-.73,1.05-1.46,1.75-2.2.07-.08.2-.08.28,0,0,0,0,0,0,0,.7.74,1.24,1.47,1.75,2.2.26.37.48.73.71,1.1.12.18.22.37.33.55.11.18.21.37.31.55.8,1.47,1.41,2.93,1.9,4.4.97,2.93,1.43,5.86,1.49,8.79.07,2.93-.31,5.86-1.27,8.79-.49,1.47-1.11,2.93-1.93,4.4-.41.73-.89,1.47-1.41,2.2-.53.73-1.12,1.46-1.87,2.2-.08.08-.21.08-.29,0-.75-.73-1.33-1.46-1.87-2.2-.53-.73-1.01-1.47-1.41-2.2-.83-1.46-1.45-2.93-1.93-4.4-.95-2.93-1.33-5.86-1.27-8.79Zm-2.57-10.66c-.08.21-2.34,5.88-2.25,12.15.08,6.39,2.6,13.41,8.36,18.52,0,0-19.82-10.38-6.11-30.68Zm-117.39,237.01c-5.61,3.85-12.82,9.35-17.88,13.29,9.98-8.72,23.63-23.35,30.42-25.69,5.49-1.89,15.86-1.02,22.34-.2.06.04.1.06.1.06,0,0,2.56.42,5.61.79h.08c.18.03.35.05.53.07-17.15-1.14-31.55,5.05-41.21,11.68Zm126.57,15.09c-58.51,0-106.12-47.6-106.12-106.12s47.61-106.12,106.12-106.12,106.12,47.6,106.12,106.12-47.61,106.12-106.12,106.12Zm144.45-1.8c-5.06-3.94-12.27-9.44-17.88-13.29-9.66-6.63-24.06-12.83-41.21-11.68.18-.02.36-.04.53-.06h.08s0,0,0,0c3.05-.37,5.61-.79,5.61-.79,0,0,.04-.02.1-.06,6.48-.82,16.85-1.69,22.34.2,6.79,2.34,20.44,16.96,30.42,25.69Z"/>
    <path class="first-color" d="m575.76,398.87c-4.09,0-8.32-.8-12.57-2.37-17.39-6.44-32.87-17.91-46.52-28.02-16.13-11.95-30.07-22.27-43.54-22.27-.57,0-1.15.02-1.71.06-1.92.13-3.56.19-4.86.19-.6,0-1.14-.01-1.61-.04-.04,0-.08,0-.12,0-.5,0-.99.19-1.36.53l-.11.1c-.61.57-.82,1.45-.51,2.23.3.77,1.05,1.27,1.88,1.27,0,0,.27,0,.39,0,9.38,0,15.56,3.93,24.52,15.57,8.79,11.42,23.42,25.25,30.27,31.52-.53,0-1.09,0-1.69,0-9.88,0-29.29-.98-48.23-7.56-10.95-3.8-16.36-9.72-21.13-14.93-5.34-5.84-10.38-11.35-21.39-11.76-.03,0-.05,0-.08,0-.51,0-.99.19-1.37.53-1.35,1.25-2.73,2.45-4.1,3.59-.66.55-.9,1.45-.6,2.25.29.79,1.05,1.32,1.89,1.32,0,0,.12,0,.12,0,2.54,0,5.14.92,7.73,2.73,3.37,2.36,5.94,5.25,8.66,8.31,3.25,3.66,6.62,7.44,11.6,10.58.22.14.44.27.66.4-2.88-1.11-5.69-2.48-8.28-4.18-5-3.29-8.27-6.35-10.9-8.82-4.2-3.93-7.23-6.77-13.13-6.77-1.36,0-2.84.15-4.5.47-.23-.09-.48-.13-.73-.13-.39,0-.79.12-1.14.35-6.13,4.19-12.71,7.78-19.57,10.68-13.86,5.86-28.59,8.84-43.76,8.84s-29.9-2.97-43.76-8.84c-6.85-2.9-13.44-6.49-19.57-10.68-.35-.24-.74-.35-1.14-.35-.25,0-.49.05-.73.13-1.66-.31-3.14-.47-4.5-.47-5.9,0-8.93,2.84-13.13,6.77-2.63,2.46-5.91,5.53-10.9,8.82-2.59,1.7-5.4,3.08-8.28,4.18.23-.13.45-.27.66-.4,4.98-3.14,8.35-6.93,11.6-10.58,2.72-3.06,5.29-5.95,8.66-8.31,2.59-1.81,5.19-2.73,7.73-2.73,0,0,.11,0,.12,0,.85,0,1.6-.53,1.89-1.32.29-.8.05-1.7-.6-2.25-1.36-1.14-2.74-2.34-4.1-3.59-.37-.34-.86-.53-1.37-.53-.03,0-.05,0-.08,0-11.01.41-16.05,5.92-21.39,11.76-4.77,5.22-10.18,11.13-21.13,14.93-18.95,6.58-38.35,7.56-48.23,7.56-.6,0-1.16,0-1.69,0,6.85-6.27,21.49-20.1,30.27-31.52,8.95-11.64,15.14-15.57,24.52-15.57.12,0,.39,0,.39,0,.83,0,1.57-.5,1.87-1.27.31-.77.11-1.66-.5-2.23-.03-.03-.11-.1-.11-.1-.37-.34-.87-.54-1.37-.54-.04,0-.08,0-.12,0-.46.03-1,.04-1.61.04-1.3,0-2.93-.07-4.86-.19-.56-.04-1.14-.06-1.71-.06-13.47,0-27.4,10.32-43.54,22.27-13.65,10.11-29.13,21.58-46.52,28.02-4.24,1.57-8.47,2.37-12.57,2.37-6.45,0-12.77-1.97-18.8-5.85-4.91-3.16-9.64-7.58-14.06-13.15-3.99-5.02-7-10.09-8.98-13.78,8.2,3.93,17.77,5.98,28.54,6.1l35.72,13.3c.23.09.47.13.7.13.78,0,1.52-.46,1.85-1.22.43-.98,0-2.13-.95-2.61-.15-.07-13.19-6.61-21.51-11.72,3.44-1.1,7.35-1.65,11.67-1.65,14,0,27.58,5.76,28.15,6.01.26.11.53.16.8.16.74,0,1.44-.41,1.8-1.1.48-.95.15-2.11-.76-2.65l-11.29-6.75c13.45-4.23,26.23-9.43,36.69-13.7,14.83-6.04,26.3-7.31,28.41-7.51.48.15,1.4.43,2.55.8.21.07.42.1.62.1.8,0,1.55-.47,1.86-1.25.4-.97-.01-2.09-.95-2.57-1.52-.78-3.07-1.48-4.61-2.1-4.01-1.59-8.23-2.77-12.54-3.5-4.09-.7-8.49-1.07-13.05-1.08h-.26c-2.12,0-4.25.07-6.32.22-2.56.18-4.65.39-6.58.67-2.34.32-4.47.67-6.51,1.06-.87.16-1.76.35-2.61.53l-.6.13-.5.11c-.91.2-1.86.4-2.77.58-4.71.93-9.04,1.53-13.25,1.84-2.12.15-4.09.22-6.02.22-2.55,0-5.03-.14-7.36-.4-5-.59-9.21-1.77-12.88-3.59-2.12-1.06-3.99-2.32-5.57-3.74-1.71-1.54-3.13-3.29-4.22-5.22-1.08-1.9-1.88-4.01-2.36-6.28-.44-2.08-.62-4.33-.54-6.67.15-4.1,1.06-8.36,2.77-13.01,1.43-3.88,3.34-7.79,5.84-11.96,1.11-1.85,2.33-3.72,3.63-5.57,1.26-1.78,2.61-3.57,4.02-5.3,5.17-6.35,11.4-12.4,19.06-18.49,6.74-5.37,13.92-10.31,20.86-15.09l.7-.48.59-.41c3.39-2.35,6.9-4.78,10.24-7.31,4.19-3.15,7.43-5.85,10.19-8.51,1.8-1.73,3.29-3.3,4.57-4.8,1.48-1.75,2.81-3.53,3.94-5.28,2.6-4.05,4.28-8.08,5.01-12.01.81-4.31.44-8.69-1.04-12.65-1.41-3.84-3.86-7.44-7.08-10.39-1.68-1.54-3.25-2.58-5.11-3.39-1.81-.8-3.8-1.36-5.91-1.67-1.32-.2-2.68-.3-4.05-.3-2.81,0-5.57.41-8.19,1.22-2.03.63-3.88,1.46-5.49,2.47-1.7,1.05-3.18,2.33-4.39,3.78-2.37,2.84-3.64,6.49-3.66,10.55-.01,2.01.27,3.88.86,5.54.59,1.71,1.54,3.19,2.8,4.41,1.26,1.2,2.78,2.13,4.54,2.77,1.66.61,3.57.95,5.53.99.15,0,.3,0,.46,0,1.78,0,3.55-.26,5.11-.74.84-.26,1.68-.62,2.4-1.03.34-.19.65-.41.94-.64.09-.07.17-.13.24-.19l.29-.24c.1-.08.19-.16.29-.25l.18-.15c1.13-.99,2.32-2.08,3.53-3.52.59-.69,1.14-1.47,1.69-2.35.01-.02.03-.04.04-.06l.36-.63s.12-.22.12-.22c.1-.18.2-.38.29-.57.12-.25.25-.52.37-.79h0c.09.13.18.27.25.4.15.28.27.53.37.76.05.11.08.21.12.31l.04.11.13.45c.31,1.09.39,2.33.23,3.56-.15,1.21-.53,2.43-1.13,3.62-.54,1.07-1.26,2.1-2.14,3.05-.08.08-.16.17-.24.25-.14.14-.27.28-.37.37-.01,0-.51.47-.51.47-.08.08-.13.12-.2.18-.02.01-.03.03-.05.04-.54.45-1.11.85-1.74,1.22-1.15.67-2.34,1.2-3.66,1.61-2.25.71-4.56,1.05-7.04,1.05-.17,0-.34,0-.51,0-2.63-.07-5.14-.54-7.47-1.41-2.58-.96-4.87-2.41-6.63-4.19-1.86-1.86-3.32-4.26-4.13-6.78-.75-2.27-1.08-4.81-.98-7.54.1-2.64.59-5.12,1.46-7.37.9-2.36,2.28-4.59,3.97-6.45,1.61-1.78,3.58-3.31,5.85-4.57,2.1-1.16,4.37-2.04,6.73-2.61,2.29-.56,4.66-.86,7.06-.9.19,0,.38,0,.57,0,2.2,0,4.38.22,6.47.66,2.41.5,4.67,1.29,6.71,2.35,1.11.57,2.13,1.22,3.04,1.92.88.67,1.69,1.4,2.64,2.38,1.6,1.66,3.02,3.52,4.22,5.51,1.23,2.05,2.18,4.17,2.83,6.31.68,2.2,1.05,4.49,1.12,6.81.07,2.25-.17,4.54-.71,6.79-.5,2.15-1.27,4.3-2.27,6.39-.95,1.96-2.09,3.92-3.41,5.82-2.34,3.35-5.25,6.61-8.91,9.95-6.42,5.83-13.58,10.76-20.51,15.54l-.73.5-1.71,1.17c-6.64,4.54-13.51,9.24-19.87,14.34-3.61,2.87-6.98,5.81-10.01,8.72-1.61,1.55-3.17,3.14-4.66,4.73-1.45,1.56-2.91,3.26-4.35,5.03-1.41,1.75-2.75,3.53-3.99,5.3-1.32,1.89-2.53,3.77-3.6,5.58-2.47,4.14-4.35,8.04-5.75,11.94-1.64,4.55-2.53,8.9-2.65,12.91-.15,4.73.88,9.1,2.97,12.65,1.09,1.86,2.49,3.55,4.16,5.01,1.55,1.36,3.39,2.57,5.47,3.57,3.56,1.71,7.82,2.84,12.65,3.34,1.99.21,4.04.31,6.28.31h.3c2.09-.02,4.31-.13,6.6-.35,4.15-.39,8.41-1.07,13.05-2.08.89-.19,1.75-.39,2.65-.61l.57-.13.73-.17c.83-.19,1.68-.39,2.52-.56,2.07-.44,4.22-.84,6.6-1.21,4.82-.74,9.18-1.14,13.35-1.24.73-.02,1.47-.03,2.18-.03,3.9,0,7.68.26,11.26.78,4.68.68,9.11,1.77,13.16,3.23,4.01,1.45,7.85,3.35,11.38,5.64.34.22.72.32,1.09.32.57,0,1.14-.24,1.54-.71.66-.77.64-1.91-.04-2.66-6.68-7.43-14.4-15.88-22.84-23.86l11.79-1.02c1.06-.09,1.87-.99,1.84-2.06-.03-1.07-.88-1.93-1.94-1.97l-18-.69c-5.14-4.5-10.05-8.35-14.87-11.64,8.84-.73,20.49-.88,20.63-.88,1.07-.01,1.95-.86,1.99-1.93.04-1.07-.76-1.99-1.82-2.09l-35.07-3.36c-8.85-4.17-17.51-6.34-25.76-6.46,6.97-4.99,20.37-13.07,34.07-13.07,8.81,0,16.5,3.37,22.86,10.01,11.85,12.37,20.08,28.14,27.35,42.06,7.28,13.94,13.56,25.97,22.05,32.82.37.3.82.45,1.27.45.52,0,1.03-.2,1.42-.59.73-.72.8-1.88.16-2.69-6.28-7.92-11.46-16.67-15.41-25.99-5.86-13.86-8.84-28.58-8.84-43.76s2.97-29.91,8.84-43.76c5.66-13.39,13.77-25.41,24.09-35.74,10.33-10.33,22.35-18.43,35.73-24.09,5.75-2.43,11.72-4.39,17.75-5.81.56-.13,1.04-.5,1.32-1.02.27-.51.31-1.12.11-1.66-1.6-4.25-6.09-18.94,3.34-29.73,4.22-4.83,7.85-7.8,11.06-10.42,4.37-3.57,7.83-6.4,10.2-11.84,2.37,5.44,5.83,8.27,10.2,11.84,3.21,2.62,6.84,5.59,11.06,10.42,9.43,10.8,4.94,25.49,3.34,29.73-.2.54-.17,1.15.11,1.66.27.51.75.88,1.32,1.02,6.03,1.43,12,3.39,17.75,5.81,13.38,5.66,25.41,13.77,35.73,24.09,10.33,10.33,18.43,22.35,24.09,35.74,5.86,13.86,8.84,28.58,8.84,43.76s-2.97,29.9-8.84,43.76c-3.94,9.33-9.13,18.07-15.41,25.99-.64.81-.57,1.96.16,2.69.39.39.91.59,1.42.59.45,0,.89-.15,1.27-.45,8.49-6.84,14.77-18.88,22.05-32.82,7.27-13.92,15.5-29.69,27.35-42.06,6.36-6.64,14.05-10.01,22.86-10.01,13.7,0,27.1,8.08,34.07,13.07-8.24.12-16.9,2.29-25.76,6.46l-35.07,3.36c-1.07.1-1.87,1.02-1.82,2.09.05,1.07.92,1.92,1.99,1.93.14,0,11.79.15,20.63.88-4.82,3.3-9.73,7.14-14.87,11.64l-18,.69c-1.06.04-1.91.9-1.94,1.97-.03,1.07.78,1.97,1.84,2.06l11.79,1.02c-8.43,7.99-16.15,16.43-22.83,23.86-.68.75-.69,1.89-.04,2.66.4.46.96.71,1.54.71.38,0,.76-.11,1.09-.32,3.54-2.29,7.37-4.18,11.39-5.64,4.05-1.46,8.48-2.55,13.16-3.23,3.57-.51,7.36-.78,11.25-.78.72,0,1.45,0,2.18.03,4.17.09,8.54.5,13.36,1.24,2.37.37,4.53.77,6.57,1.21.86.17,1.71.37,2.54.57l.74.17.56.13c.9.21,1.76.41,2.66.61,4.63,1.01,8.9,1.69,13.04,2.08,2.32.22,4.48.33,6.59.35h.31c2.24,0,4.3-.1,6.28-.31,4.84-.51,9.09-1.63,12.65-3.34,2.08-1.01,3.91-2.21,5.47-3.58,1.67-1.46,3.07-3.15,4.16-5.01,2.09-3.55,3.12-7.92,2.97-12.65-.12-4.01-1.01-8.35-2.65-12.9-1.4-3.89-3.28-7.8-5.75-11.94-1.08-1.81-2.29-3.68-3.6-5.57-1.24-1.78-2.59-3.56-3.99-5.3-1.44-1.78-2.9-3.47-4.35-5.03-1.48-1.59-3.05-3.19-4.66-4.73-3.03-2.91-6.4-5.85-10.01-8.72-6.36-5.09-13.23-9.79-19.87-14.33l-1.72-1.17-.72-.5c-6.93-4.77-14.09-9.71-20.52-15.55-3.65-3.34-6.56-6.6-8.91-9.95-1.31-1.89-2.45-3.85-3.4-5.81-1-2.09-1.77-4.24-2.27-6.38-.54-2.27-.78-4.55-.71-6.8.07-2.32.45-4.61,1.12-6.8.65-2.14,1.6-4.27,2.83-6.32,1.2-1.99,2.62-3.85,4.23-5.51.94-.97,1.76-1.71,2.63-2.37.91-.7,1.94-1.35,3.05-1.92,2.04-1.05,4.3-1.84,6.71-2.35,2.1-.44,4.28-.66,6.47-.66.19,0,.38,0,.57,0,2.4.04,4.78.35,7.06.9,2.37.57,4.63,1.45,6.74,2.62,2.27,1.26,4.23,2.79,5.84,4.57,1.7,1.87,3.07,4.09,3.97,6.45.87,2.26,1.36,4.74,1.46,7.38.1,2.74-.23,5.27-.97,7.52-.81,2.53-2.27,4.94-4.13,6.79-1.77,1.78-4.06,3.23-6.64,4.19-2.32.87-4.84,1.34-7.48,1.41-.15,0-.32,0-.49,0-2.48,0-4.78-.34-7.04-1.05-1.31-.41-2.51-.94-3.66-1.61-.63-.37-1.19-.77-1.74-1.22-.02-.01-.03-.03-.05-.04-.07-.06-.12-.1-.2-.18,0,0-.5-.46-.51-.47-.11-.09-.23-.23-.37-.37-.08-.09-.16-.17-.24-.25-.88-.95-1.61-1.98-2.15-3.06-.6-1.19-.98-2.4-1.13-3.61-.16-1.24-.08-2.48.24-3.6l.13-.43.04-.11c.04-.1.07-.19.11-.29.1-.25.22-.5.36-.76.08-.14.16-.29.26-.43h0c.13.28.25.55.38.81.08.18.19.37.28.56,0,0,.11.2.12.22l.36.63s.02.04.04.06c.55.89,1.1,1.66,1.69,2.35,1.2,1.43,2.4,2.53,3.51,3.5l.2.17c.1.09.2.17.3.26l.28.23c.07.06.15.13.24.19.29.23.61.45.93.64.74.42,1.57.78,2.42,1.04,1.55.48,3.32.74,5.1.74.16,0,.31,0,.47,0,1.94-.04,3.86-.38,5.52-.99,1.75-.64,3.28-1.57,4.53-2.76,1.27-1.23,2.21-2.71,2.81-4.42.58-1.67.87-3.54.86-5.55-.02-4.06-1.29-7.71-3.66-10.55-1.22-1.46-2.7-2.73-4.4-3.79-1.61-1.01-3.46-1.84-5.49-2.46-2.62-.81-5.38-1.22-8.19-1.22-1.36,0-2.72.1-4.05.3-2.11.31-4.1.88-5.91,1.67-1.85.81-3.42,1.85-5.1,3.39-3.22,2.96-5.67,6.55-7.09,10.41-1.48,3.95-1.84,8.32-1.04,12.64.73,3.92,2.41,7.96,5,12,1.15,1.77,2.48,3.55,3.95,5.28,1.27,1.5,2.77,3.07,4.57,4.8,2.76,2.65,6,5.36,10.19,8.51,3.39,2.56,6.96,5.03,10.4,7.42l1.12.77c6.95,4.78,14.13,9.73,20.87,15.1,7.66,6.1,13.89,12.15,19.06,18.49,1.41,1.73,2.76,3.51,4.02,5.3,1.3,1.85,2.52,3.72,3.63,5.57,2.49,4.16,4.4,8.08,5.84,11.96,1.71,4.64,2.62,8.9,2.77,13.01.08,2.34-.1,4.58-.54,6.66-.48,2.27-1.27,4.38-2.35,6.27-1.1,1.94-2.52,3.69-4.22,5.23-1.58,1.43-3.46,2.69-5.58,3.75-3.66,1.82-7.88,2.99-12.88,3.59-2.32.27-4.8.4-7.35.4-1.93,0-3.9-.07-6.03-.22-4.2-.31-8.53-.91-13.23-1.84-.93-.18-1.87-.38-2.78-.58l-.5-.11-.61-.13c-.86-.18-1.75-.37-2.64-.53-2.02-.39-4.15-.74-6.5-1.06-1.92-.27-4.01-.48-6.56-.66-2.08-.15-4.2-.22-6.32-.22h-.26c-4.56.01-8.95.38-13.05,1.08-4.31.73-8.52,1.91-12.53,3.5-1.54.62-3.1,1.33-4.62,2.1-.94.48-1.35,1.6-.95,2.57.32.77,1.07,1.25,1.86,1.25.21,0,.42-.03.62-.1,1.15-.37,2.07-.66,2.55-.8,2.1.19,13.57,1.47,28.41,7.51,10.47,4.26,23.24,9.47,36.69,13.7l-11.29,6.75c-.91.55-1.25,1.7-.76,2.65.36.7,1.06,1.1,1.8,1.1.27,0,.54-.05.8-.16.57-.25,14.15-6.01,28.15-6.01,4.32,0,8.23.55,11.67,1.65-8.33,5.11-21.36,11.65-21.51,11.72-.96.48-1.38,1.62-.95,2.61.33.76,1.07,1.22,1.85,1.22.23,0,.47-.04.7-.13l35.72-13.3c10.77-.12,20.34-2.17,28.54-6.1-1.98,3.7-4.99,8.76-8.98,13.79-4.42,5.57-9.15,9.99-14.05,13.15-6.03,3.88-12.36,5.85-18.8,5.85Zm-225.76-225.9c-59.63,0-108.14,48.51-108.14,108.14s48.51,108.13,108.14,108.13,108.14-48.51,108.14-108.13-48.51-108.14-108.14-108.14Zm89.48,189.36c15.91,0,28.33,6.24,35.95,11.47,5.56,3.81,12.74,9.29,17.78,13.22.37.29.8.43,1.24.43.58,0,1.16-.25,1.56-.73.69-.84.59-2.08-.23-2.8-2.92-2.55-6.1-5.56-9.47-8.75-8.44-7.99-16.42-15.53-21.62-17.32-2.39-.82-5.77-1.24-10.04-1.24-4.74,0-9.8.51-13.21.95-.16.02-.31.06-.46.11-.74.12-2.83.44-5.2.73,0,0-.12.01-.14.02-.16.02-.33.04-.5.06-1.09.12-1.88,1.09-1.78,2.19.09,1.05.97,1.84,2.01,1.84.05,0,.09,0,.14,0,1.32-.09,2.66-.13,3.98-.13Zm-194.13-5.75c-4.27,0-7.65.42-10.04,1.24-5.2,1.79-13.17,9.34-21.62,17.32-3.37,3.19-6.56,6.2-9.47,8.75-.82.72-.92,1.96-.23,2.8.4.48.98.73,1.56.73.43,0,.87-.14,1.24-.43,5.05-3.93,12.23-9.4,17.78-13.22,7.62-5.23,20.04-11.47,35.95-11.47,1.32,0,2.66.04,3.98.13.05,0,.09,0,.14,0,1.04,0,1.91-.79,2.01-1.84.1-1.09-.69-2.06-1.78-2.19-.17-.02-.33-.04-.5-.06-.02,0-.13-.01-.14-.02-2.37-.29-4.46-.61-5.2-.73-.15-.06-.3-.09-.46-.11-3.41-.43-8.46-.95-13.21-.95Zm105.83-191.47c-.22.6-.15,1.28.24,1.84.39.56,1.02.87,1.66.87.32,0,.64-.07.93-.23.37-.19,9.1-4.86,11.45-14.17,1.54-6.09-.01-12.62-4.61-19.42-.39-.57-1.02-.89-1.67-.89-.32,0-.65.08-.95.24-.91.48-1.31,1.58-.92,2.54.02.05,2.19,5.49,2.11,11.37-.07,5.7-2.19,11.13-5.88,15.25.03-.05.07-.09.1-.14.61-.85,1.12-1.63,1.54-2.4.83-1.47,1.52-3.03,2.09-4.74.99-3.04,1.44-6.22,1.37-9.48-.06-3.22-.6-6.38-1.59-9.38-.57-1.69-1.23-3.23-2.04-4.73-.11-.19-.22-.4-.33-.59-.12-.21-.24-.41-.37-.61-.22-.36-.47-.77-.77-1.19-.45-.66-1.09-1.54-1.94-2.43-.01-.01-.07-.07-.09-.09-.41-.38-.95-.59-1.51-.59-.6,0-1.18.25-1.6.68-.85.9-1.49,1.78-1.95,2.45-.28.4-.53.81-.77,1.19-.12.19-.24.4-.36.6-.12.2-.22.4-.33.59-.81,1.49-1.48,3.03-2.04,4.72-.99,3.01-1.53,6.17-1.59,9.39-.08,3.25.38,6.43,1.36,9.46.57,1.72,1.26,3.28,2.1,4.77.42.76.92,1.54,1.53,2.39.03.05.07.09.1.14-3.69-4.12-5.81-9.55-5.88-15.25-.08-5.87,2.09-11.32,2.11-11.37.39-.96-.01-2.05-.93-2.54-.3-.16-.63-.24-.95-.24-.65,0-1.29.32-1.67.89-4.59,6.8-6.15,13.34-4.61,19.42,2.35,9.31,11.08,13.98,11.45,14.17.3.16.62.23.93.23.64,0,1.27-.31,1.66-.87.38-.56.45-1.24.23-1.84.36.23.76.34,1.19.34s.83-.12,1.18-.34Z"/>
    <path class="first-color" d="m296.37,170.1c11.06,5.21,21.12-.41,23.33-1.81-2.24-2.72-12.8-14.45-31.02-18.27,0,0,14.83.44,31.32,15.64-1.6-17.26-11.87-23.46-26.42-21.89-10.92,1.17-22.73,4.76-22.73,4.76,11.24.86,12.97,15.66,25.52,21.57Z"/>
    <path class="first-color" d="m306.03,170.25c-3.05,0-6.01-.67-8.79-1.98-5.4-2.55-8.66-6.92-11.81-11.15-2.39-3.21-4.71-6.32-7.76-8.34,4.36-1.08,10.4-2.39,16.14-3.01,1.37-.15,2.7-.22,3.97-.22,10.46,0,16.95,5.04,19.37,14.99-15.07-12-27.81-12.52-28.39-12.54-.02,0-.04,0-.06,0-1.02,0-1.88.76-2,1.78-.12,1.04.57,2,1.59,2.21,14.77,3.09,24.37,11.66,28.25,15.75-2.32,1.12-6.07,2.51-10.49,2.51,0,0,0,0,0,0Z"/>
    <path class="first-color" d="m186.17,322.53c1.28-17.28-7.82-25.1-22.43-25.96-10.96-.65-23.2.93-23.2.93,10.95,2.72,10.2,17.59,21.59,25.5,10.05,6.97,20.89,3.09,23.31,2.08-1.76-3.05-10.23-16.37-27.57-23.15,0,0,14.56,2.89,28.29,20.61Z"/>
    <path class="first-color" d="m175.29,325.04c-4.42,0-8.46-1.25-12.01-3.71-4.9-3.4-7.39-8.26-9.8-12.95-1.83-3.57-3.59-7.01-6.28-9.51,3.06-.23,6.91-.44,10.87-.44,1.96,0,3.83.05,5.55.15,7.29.43,12.72,2.64,16.15,6.56,2.58,2.95,4.06,6.93,4.41,11.87-12.87-14.33-25.35-16.95-25.92-17.07-.13-.03-.26-.04-.4-.04-.88,0-1.68.58-1.94,1.45-.29,1,.23,2.07,1.2,2.45,14.05,5.5,22.11,15.54,25.25,20.21-1.76.52-4.24,1.04-7.1,1.04Z"/>
    <path class="first-color" d="m119.93,346.64c-29.25-.19-43.79-12.97-43.79-12.97,20.77,12.59,41.29,10.8,45.85,10.21-.87-3.31-5.45-17.62-20.64-22.5-17.22-5.53-32.04,7.03-43.54-2.15,0,0,8.07,13.94,17.44,24.77,12.48,14.45,27.79,17.68,44.68,2.65Z"/>
    <path class="first-color" d="m98.17,354.46c-7.44,0-14.64-3.97-21.39-11.79-5.38-6.23-10.37-13.56-13.57-18.56,1.62.41,3.37.6,5.27.6h0c3.47,0,7.01-.64,10.77-1.32,3.98-.72,8.09-1.47,12.34-1.47,3.29,0,6.28.45,9.15,1.37,11.85,3.81,16.83,13.92,18.59,18.83-1.28.1-2.91.18-4.82.18-9.23,0-23.2-1.8-37.32-10.35-.33-.2-.69-.29-1.04-.29-.62,0-1.24.29-1.63.82-.62.84-.49,2.02.29,2.71.58.51,13.62,11.71,39.62,13.29-5.53,3.97-10.98,5.99-16.26,5.99,0,0,0,0,0,0Z"/>
    <path class="first-color" d="m159.9,228.81c-3.17,6.01-2.26,11.51,4.92,15.16-3.73-9.73-1.38-16.21-1.38-16.21-1.48,8.52,1.77,15.1,2.56,16.53.98-.72,5.14-4.09,4.79-9.76-.4-6.43-6.49-9.72-4.93-14.72,0,0-3.58,4.48-5.96,9Z"/>
    <path class="first-color" d="m166.67,240.88c-1.02-2.72-2.19-7.32-1.24-12.77.18-1.01-.43-1.98-1.4-2.28.15-.23.3-.46.45-.68.48,1.06,1.09,2.05,1.67,2.99,1.22,1.97,2.47,4.01,2.63,6.51.17,2.74-.98,4.85-2.11,6.22Zm-5.52-2.51c-.29-.47-.52-.95-.68-1.45-.46-1.46-.38-3.12.25-4.96-.09,1.75-.01,3.91.43,6.41Z"/>
    <path class="first-color" d="m204.17,222.55c1.46.75,8.12,3.81,16.6,2.08,0,0-6.41,2.54-16.24-.91,3.86,7.07,9.38,7.82,15.3,4.48,4.44-2.51,8.82-6.21,8.82-6.21-4.96,1.7-8.42-4.29-14.86-4.51-5.68-.19-8.93,4.06-9.62,5.07Z"/>
    <path class="first-color" d="m213.47,228.11c-1.17,0-2.25-.29-3.25-.88,1.47.22,2.93.33,4.36.33.74,0,1.43-.03,2.07-.08-1.12.42-2.19.63-3.18.63Zm9.21-4.11c-.28-.83-1.06-1.38-1.91-1.38-.13,0-.27.01-.4.04-1.56.32-3.16.48-4.76.48-3.35,0-6.14-.69-8.04-1.35,1.29-1.12,3.27-2.29,5.87-2.29.1,0,.2,0,.3,0,2.5.08,4.58,1.28,6.59,2.44.98.57,1.98,1.14,3.03,1.59-.22.15-.44.31-.66.47Z"/>
  </g>
  <text class="cls-3-l07tt second-color" transform="translate(111.94 515.87)">
	<tspan x="0" y="0" id="span_svg_logo_envie.1e6d4efc-e433-4587-a210-66f5f86b8ff9_0">Name Text</tspan>	
  </text>
  <g>
    <path class="second-color" d="m226.06,534.73v38.5l-27.76-29.12v27.29h-4.45v-38.5l27.76,29.12v-27.29h4.45Z"/>
    <path class="second-color" d="m241.95,566.31c.44.66,1.05,1.16,1.83,1.49.79.33,1.68.5,2.7.5,1.29,0,2.45-.26,3.48-.79,1.03-.52,1.85-1.26,2.46-2.23.61-.96.92-2.07.92-3.33l.84,3.14c0,1.54-.46,2.81-1.39,3.82-.93,1.01-2.06,1.76-3.4,2.25-1.34.49-2.68.73-4.01.73-1.47,0-2.84-.31-4.11-.92s-2.3-1.49-3.06-2.65c-.77-1.15-1.15-2.55-1.15-4.19,0-2.34.83-4.22,2.49-5.63,1.66-1.41,3.97-2.12,6.94-2.12,1.75,0,3.2.2,4.37.6s2.1.86,2.8,1.36c.7.51,1.17.92,1.41,1.23v2.46c-1.22-.84-2.48-1.44-3.77-1.81-1.29-.37-2.67-.55-4.14-.55-1.36,0-2.47.17-3.33.52-.86.35-1.49.84-1.91,1.47-.42.63-.63,1.38-.63,2.25s.22,1.69.65,2.36Zm-3.33-16.55c.91-.66,2.16-1.33,3.75-1.99s3.5-1,5.74-1c1.89,0,3.54.29,4.95.86,1.41.58,2.51,1.41,3.3,2.49.79,1.08,1.18,2.41,1.18,3.98v17.28h-4.19v-16.71c0-.84-.14-1.53-.42-2.07s-.67-.97-1.18-1.28c-.51-.31-1.09-.54-1.75-.68-.66-.14-1.36-.21-2.09-.21-1.19,0-2.26.14-3.22.42-.96.28-1.77.61-2.44,1-.66.38-1.19.72-1.57,1l-2.04-3.09Z"/>
    <path class="second-color" d="m270.71,535.3c.58-.56,1.25-.84,2.02-.84s1.48.28,2.04.84.84,1.24.84,2.04-.28,1.44-.84,2.02c-.56.58-1.24.86-2.04.86s-1.44-.29-2.02-.86c-.58-.58-.86-1.25-.86-2.02s.29-1.48.86-2.04Zm4.11,11.99v24.09h-4.19v-24.09h4.19Z"/>
    <path class="second-color" d="m292.89,530.54v40.85h-4.19v-40.85h4.19Z"/>
    <path class="second-color" d="m308.65,566.05c.63.63,1.35,1.13,2.17,1.49s1.72.55,2.7.55c1.19,0,2.12-.27,2.8-.81.68-.54,1.02-1.28,1.02-2.23,0-.84-.27-1.54-.81-2.12-.54-.58-1.23-1.06-2.07-1.47s-1.73-.78-2.67-1.13c-1.05-.42-2.1-.92-3.17-1.49-1.07-.58-1.96-1.33-2.67-2.25-.72-.92-1.07-2.09-1.07-3.48s.38-2.62,1.13-3.56c.75-.94,1.73-1.64,2.93-2.09,1.21-.45,2.45-.68,3.75-.68s2.5.21,3.64.63c1.13.42,2.14.98,3.01,1.68.87.7,1.55,1.5,2.04,2.41l-3.35,2.15c-.66-.91-1.49-1.66-2.49-2.25-1-.59-2.12-.89-3.38-.89-.87,0-1.62.19-2.25.58-.63.38-.94.98-.94,1.78,0,.63.24,1.19.73,1.68.49.49,1.12.93,1.89,1.31.77.38,1.57.75,2.41,1.1,1.4.56,2.67,1.16,3.82,1.81s2.07,1.42,2.75,2.33c.68.91,1.02,2.08,1.02,3.51,0,2.09-.76,3.84-2.28,5.24-1.52,1.4-3.52,2.09-6,2.09-1.61,0-3.06-.29-4.35-.86-1.29-.58-2.38-1.32-3.27-2.23-.89-.91-1.56-1.83-2.02-2.78l3.3-2.04c.49.73,1.05,1.41,1.68,2.04Z"/>
    <path class="second-color" d="m358.85,548.95c-.89-.89-1.68-1.89-2.36-3.01-.68-1.12-1.02-2.34-1.02-3.67,0-1.64.38-3.07,1.15-4.29.77-1.22,1.82-2.16,3.17-2.83,1.34-.66,2.89-1,4.64-1,1.85,0,3.43.38,4.74,1.15,1.31.77,2.31,1.77,3.01,3.01.7,1.24,1.05,2.59,1.05,4.06,0,.87-.17,1.73-.52,2.57-.35.84-.86,1.67-1.52,2.49-.66.82-1.47,1.61-2.41,2.36-.94.75-2.03,1.49-3.25,2.23-.94.56-1.97,1.13-3.09,1.7s-2.17,1.22-3.17,1.94c-1,.72-1.81,1.55-2.44,2.49s-.94,2.08-.94,3.4.34,2.48,1.02,3.46c.68.98,1.6,1.73,2.75,2.25s2.43.79,3.82.79c1.68,0,3.29-.37,4.84-1.1s3.05-1.72,4.48-2.96c1.43-1.24,2.82-2.65,4.16-4.22,1.34-1.57,2.64-3.21,3.9-4.92l3.25,2.04c-1.4,1.82-2.83,3.62-4.29,5.42-1.47,1.8-3.04,3.41-4.71,4.84s-3.49,2.58-5.45,3.46c-1.96.87-4.1,1.31-6.44,1.31-1.99,0-3.88-.41-5.68-1.23-1.8-.82-3.27-1.99-4.4-3.51-1.14-1.52-1.7-3.31-1.7-5.37,0-1.54.27-2.88.81-4.03.54-1.15,1.24-2.16,2.09-3.04s1.79-1.62,2.8-2.25c1.01-.63,2.01-1.18,2.99-1.65s1.82-.9,2.51-1.28c1.96-1.12,3.5-2.3,4.64-3.54,1.13-1.24,1.7-2.45,1.7-3.64,0-.91-.18-1.69-.55-2.36-.37-.66-.88-1.19-1.54-1.57-.66-.38-1.48-.58-2.46-.58-1.43,0-2.55.4-3.35,1.21-.8.8-1.21,1.87-1.21,3.19,0,1.19.47,2.32,1.42,3.4.94,1.08,1.94,2.24,2.99,3.46l19.38,22.26h-5.03l-17.6-20.11c-.56-.66-1.28-1.44-2.17-2.33Z"/>
    <path class="second-color" d="m419.08,564.16c.92,1.12,1.96,1.99,3.12,2.62,1.15.63,2.46.94,3.93.94,1.96,0,3.53-.54,4.71-1.62,1.19-1.08,1.78-2.46,1.78-4.14s-.38-2.95-1.15-3.93-1.77-1.77-3.01-2.38c-1.24-.61-2.56-1.16-3.96-1.65-.91-.31-1.92-.72-3.04-1.23-1.12-.51-2.18-1.15-3.2-1.94-1.01-.79-1.84-1.75-2.49-2.91-.65-1.15-.97-2.57-.97-4.24,0-1.81.45-3.44,1.36-4.87.91-1.43,2.17-2.56,3.77-3.38,1.61-.82,3.44-1.23,5.5-1.23s3.73.38,5.21,1.13c1.48.75,2.75,1.71,3.8,2.88,1.05,1.17,1.87,2.4,2.46,3.69l-3.82,2.2c-.46-.91-1.03-1.8-1.73-2.67-.7-.87-1.54-1.59-2.54-2.15-.99-.56-2.21-.84-3.64-.84-1.99,0-3.44.48-4.35,1.44-.91.96-1.36,2.03-1.36,3.22,0,1.01.26,1.95.79,2.8s1.4,1.66,2.64,2.41c1.24.75,2.92,1.49,5.05,2.23.98.35,2.01.8,3.09,1.36s2.09,1.27,3.01,2.12c.92.86,1.68,1.89,2.28,3.09.59,1.21.89,2.65.89,4.32s-.31,3.06-.92,4.35c-.61,1.29-1.45,2.39-2.51,3.3-1.07.91-2.27,1.61-3.61,2.09-1.34.49-2.75.73-4.22.73-1.99,0-3.83-.43-5.53-1.28-1.69-.85-3.18-1.99-4.45-3.4-1.27-1.41-2.31-2.92-3.12-4.53l3.56-2.41c.84,1.47,1.72,2.76,2.65,3.88Z"/>
    <path class="second-color" d="m448.49,582.91v-35.62h4.19v35.62h-4.19Zm22.73-16.87c-1.08,1.89-2.52,3.33-4.32,4.35s-3.8,1.52-6,1.52c-1.99,0-3.74-.51-5.26-1.52-1.52-1.01-2.71-2.46-3.56-4.35-.86-1.88-1.28-4.12-1.28-6.7s.43-4.86,1.28-6.73c.86-1.87,2.04-3.31,3.56-4.32,1.52-1.01,3.27-1.52,5.26-1.52,2.2,0,4.2.51,6,1.52s3.24,2.45,4.32,4.32c1.08,1.87,1.62,4.11,1.62,6.73s-.54,4.82-1.62,6.7Zm-3.75-11.42c-.75-1.29-1.75-2.27-2.99-2.93-1.24-.66-2.61-1-4.11-1-1.22,0-2.43.33-3.61,1-1.19.66-2.17,1.64-2.93,2.93-.77,1.29-1.15,2.86-1.15,4.71s.38,3.42,1.15,4.71c.77,1.29,1.75,2.27,2.93,2.93,1.19.66,2.39,1,3.61,1,1.5,0,2.87-.33,4.11-1,1.24-.66,2.23-1.64,2.99-2.93.75-1.29,1.13-2.86,1.13-4.71s-.38-3.42-1.13-4.71Z"/>
    <path class="second-color" d="m486.38,566.31c.44.66,1.05,1.16,1.83,1.49.79.33,1.68.5,2.7.5,1.29,0,2.45-.26,3.48-.79,1.03-.52,1.85-1.26,2.46-2.23.61-.96.92-2.07.92-3.33l.84,3.14c0,1.54-.46,2.81-1.39,3.82-.93,1.01-2.06,1.76-3.4,2.25-1.34.49-2.68.73-4.01.73-1.47,0-2.84-.31-4.11-.92s-2.3-1.49-3.06-2.65c-.77-1.15-1.15-2.55-1.15-4.19,0-2.34.83-4.22,2.49-5.63,1.66-1.41,3.97-2.12,6.94-2.12,1.75,0,3.2.2,4.37.6s2.1.86,2.8,1.36c.7.51,1.17.92,1.41,1.23v2.46c-1.22-.84-2.48-1.44-3.77-1.81-1.29-.37-2.67-.55-4.14-.55-1.36,0-2.47.17-3.33.52-.86.35-1.49.84-1.91,1.47-.42.63-.63,1.38-.63,2.25s.22,1.69.65,2.36Zm-3.33-16.55c.91-.66,2.16-1.33,3.75-1.99s3.5-1,5.74-1c1.89,0,3.54.29,4.95.86,1.41.58,2.51,1.41,3.3,2.49.79,1.08,1.18,2.41,1.18,3.98v17.28h-4.19v-16.71c0-.84-.14-1.53-.42-2.07s-.67-.97-1.18-1.28c-.51-.31-1.09-.54-1.75-.68-.66-.14-1.36-.21-2.09-.21-1.19,0-2.26.14-3.22.42-.96.28-1.77.61-2.44,1-.66.38-1.19.72-1.57,1l-2.04-3.09Z"/>
  </g>
  <path class="first-color" d="m371.23,209.08l-9.74,11.05,15.36,40.83,3.75-2.06-13.86-36.9,9.93-11.43,2.43,1.03-9.46,10.96,13.11,34.93c.75-.56,1.18-.9,1.31-1.03l3.09-2.62c1.87-1.5,3.06-2.56,3.56-3.18,1.62,7.12,4.12,13.49,7.49,19.11-1.81-.12-3.12-.19-3.93-.19-5.93,0-10.27.94-13.02,2.81l16.95,45.98,14.05,10.86h-47.29l12.92-10.86-10.39-27.35c-6.87,6.93-12.14,13.52-15.83,19.76l-2.15-.56c3.68-6.12,9.18-12.95,16.48-20.51l.75-.94-1.78-4.12c-7.43,6.18-13.58,13.36-18.45,21.54l-1.69-2.72c-3.25-5.18-7.4-11.08-12.46-17.7l-.94-1.12c-4.81,10.68-7.21,19.36-7.21,26.04,0,3.93.67,7.26,2.01,9.97s4.57,7.26,9.69,13.63c.44.56,1.12,1.44,2.06,2.62h-50.57l-1.87-2.53h47.67l-1.59-1.97c-4.12-4.99-6.82-8.88-8.1-11.66-1.28-2.78-1.92-6.04-1.92-9.79,0-6.37,2.59-15.86,7.77-28.47l-4.12-4.31c-.81,2-1.84,4.93-3.09,8.8l-3.09,9.55c-1.69,5.12-2.53,9.37-2.53,12.74s.59,6.4,1.78,8.71c1.19,2.31,3.68,5.46,7.49,9.46.38.38.94.97,1.69,1.78h-46.83c8.93-4.62,16-10.83,21.21-18.64,5.21-7.8,10.38-19.85,15.5-36.15l.38-1.31c-3.31-2.81-8.09-4.53-14.33-5.15,3.43-5.12,6.09-10.46,7.96-16.01.87.81,1.41,1.31,1.59,1.5l4.21,3.93c1.44,1.37,3.15,2.78,5.15,4.21l1.69-4.12-1.12-.94c-3.12-2.75-5.74-4.96-7.87-6.65l-.84-.66,1.5-2.06c3.31,2.19,6.49,4.71,9.55,7.59l12.74-35.03-9.93-10.68h43.17Zm-27.35,19.2l-14.89,39.33c4.74,4.87,8.83,9.68,12.27,14.42l4.31,5.99c.06.06.38.47.94,1.22.56-.56.87-.91.94-1.03l1.31-1.59c.19-.25.53-.66,1.03-1.22-4.37-6.74-9.46-12.83-15.27-18.26l11.99-31.66-2.62-7.21Zm4.21,10.86l-10.3,27.16c.56.62.87,1,.94,1.12l3.84,4.31c2.06,2.25,4.68,5.75,7.87,10.49l.94,1.4c2.68-3.37,5.87-6.71,9.55-10.02l-12.83-34.46Zm50.85,16.01c1.37,5.62,4.81,13.33,10.3,23.13-1.38-.19-2.15-.28-2.34-.28l-7.59-.66c-3.43-.31-5.93-.47-7.49-.47-.25,0-.88.03-1.87.09l15.64,41.49,20.88,18.45h-54.23l-1.78-2.53h49.73l-16.86-14.89-16.67-44.11c2.12-.56,4.56-.84,7.31-.84,3.37,0,7.12.28,11.24.84l-1.12-2.06c-4-7.37-6.68-14.02-8.05-19.95l2.9,1.78Z"/>
</svg>