<svg id="Layer_1" data-name="Layer 1" xmlns="http://www.w3.org/2000/svg" viewBox="0 0 700 700">
  <defs>
    <style>
      .cls-1s-f03 {
        fill: #231f20;
      }
    </style>
  </defs>
  <path class="cls-1s-f03 second-color" d="m441.96,671.92c-1.03,1.59-3.31,2.39-6.82,2.39v1.32h50.5l1-16.1h-1.32c-.91,3.25-1.93,5.75-3.07,7.53-1.14,1.77-2.58,3.03-4.32,3.75-1.74.73-4,1.09-6.76,1.09h-4.09c-5.76,0-8.64-2.79-8.64-8.37v-19.29h10.78c2.43,0,4.52.5,6.28,1.5,1.76,1,2.87,2.99,3.32,5.96h1.32v-19.65h-1.32c-.24,2.79-1.1,4.9-2.57,6.32-1.47,1.43-3.81,2.14-7.03,2.14h-10.78v-28.16h13.51c2.37,0,4.23.43,5.6,1.3,1.37.86,2.42,2.12,3.16,3.75.74,1.64,1.42,3.72,2.02,6.23h1.32l-.55-15.01h-48.36v1.32h.46c3.4,0,5.56.85,6.51,2.55.94,1.7,1.41,3.78,1.41,6.23v46.95c0,2.58-.52,4.66-1.55,6.26Z"/>
  <path class="cls-1s-f03 first-color" d="m392.91,554.29c21.33,8.94,43.93,15.19,68.68,19.02.84.13,1.55.19,2.1.19.13,0,.24,0,.32,0,.07-.11.15-.27.24-.47.34-.73.77-1.4,1.29-2.05,3.44-4.62,6.71-9.31,9.83-14.05,15.45-23.43,27.03-48.24,34.5-73.97,8.95-30.85,12.25-63.93,9.82-98.32-.79-11.16-2.36-22.38-4.68-33.6-.12.72-.25,1.44-.37,2.16-13.62,80.98-54.41,148.42-121.73,201.08Z"/>
  <path class="cls-1s-f03 first-color" d="m491.89,555.2c.13-.01.23-.03.32-.05.05-.12.12-.28.19-.49.25-.76.59-1.47,1.03-2.16,16.95-29.31,28.22-60.08,33.51-91.48,5.28-31.31,4.76-64.18-1.54-97.67-2.05-10.87-4.86-21.71-8.42-32.47-.3,6.55-.79,13.02-1.46,19.43.11-.72.23-1.44.34-2.17,2.52,11.18,4.28,22.37,5.27,33.51,3.03,34.34.31,67.47-8.1,98.47-7.01,25.85-18.16,50.86-33.2,74.56,3.3.23,6.62.41,9.98.54.84.03,1.54.02,2.09-.05Z"/>
  <path class="cls-1s-f03 first-color" d="m428.22,470.94c6.72-9.62,12.79-19.78,18.2-30.42-4.95,4.54-10.03,8.89-15.23,13.08.93-.69,1.87-1.36,2.8-2.06-6.49,10.17-13.61,19.8-21.33,28.82-40.45,47.31-91.23,78.03-150.99,91.38,2.7,3.04,5.47,6.02,8.31,8.95,4.69-1.16,9.17-2.31,13.6-3.68,59.75-18.5,108.41-54.19,144.64-106.07Z"/>
  <path class="cls-1s-f03 second-color" d="m283.92,674.31v1.32h30.75v-1.32c-2-.46-3.47-.94-4.39-1.46-.93-.51-1.7-1.52-2.32-3.03-.62-1.5-1.07-3.83-1.34-6.98l-3.68-44.99c-.21-2.24.06-3.94.82-5.07.76-1.14,1.71-1.86,2.84-2.18,1.14-.32,2.59-.54,4.34-.66v-1.32h-21.84l-17.97,44.08-19.38-44.08h-24.2v1.32c4.88.76,8.73,3.4,11.55,7.92l-4.5,42.4c-.52,4.94-1.51,8.48-2.98,10.6-1.47,2.12-3.65,3.28-6.53,3.46v1.32h22.75v-1.32c-1.79-.12-3.36-.48-4.71-1.07-1.35-.59-2.43-1.87-3.25-3.82s-1.08-4.77-.77-8.44l2.96-37.35h.18l22.56,52h1.59l21.88-53.77h.18l3.28,42.67c.3,3.85-.28,6.43-1.75,7.73-1.47,1.3-3.5,1.99-6.07,2.05Z"/>
  <path class="cls-1s-f03 second-color" d="m323.54,671.92c-1.03,1.59-3.31,2.39-6.82,2.39v1.32h50.5l1-16.1h-1.32c-.91,3.25-1.93,5.75-3.07,7.53-1.14,1.77-2.58,3.03-4.32,3.75-1.74.73-4,1.09-6.76,1.09h-4.09c-5.76,0-8.64-2.79-8.64-8.37v-19.29h10.78c2.43,0,4.52.5,6.28,1.5,1.76,1,2.87,2.99,3.32,5.96h1.32v-19.65h-1.32c-.24,2.79-1.1,4.9-2.57,6.32-1.47,1.43-3.81,2.14-7.03,2.14h-10.78v-28.16h13.51c2.37,0,4.23.43,5.59,1.3,1.37.86,2.42,2.12,3.16,3.75s1.42,3.72,2.02,6.23h1.32l-.55-15.01h-48.36v1.32h.46c3.4,0,5.56.85,6.51,2.55.94,1.7,1.41,3.78,1.41,6.23v46.95c0,2.58-.52,4.66-1.55,6.26Z"/>
  <path class="cls-1s-f03 first-color" d="m453.33,130.41c53.83-.94,104.16,12.97,149.97,41.38.22-3.74.37-7.48.44-11.23-53.31-31.2-110.73-43.49-170.74-36.54-8.37.97-16.93,2.33-25.44,4.04-9.62,1.93-19.23,4.48-28.79,7.63,7.61.34,15.13.96,22.56,1.79-.29.06-.59.11-.88.17,1.99.32,3.96.67,5.93,1.03,79.75,14.31,146.12,54.79,197.94,120.87,9.56-22.65,16.03-46.37,19.28-70.72-5.94-4.47-11.97-8.66-18.08-12.6-45.3-29.2-95.39-43.99-149.22-43.99-8.52,0-17.28.37-26.03,1.1-9.51.79-19.07,2.16-28.65,4.08-1.34-.21-2.68-.43-4.03-.63,9.93-2.22,19.86-3.84,29.74-4.83,8.73-.88,17.48-1.4,26-1.55Z"/>
  <path class="cls-1s-f03 second-color" d="m527.89,674.31v1.32h37.03v-1.32c-1.88-.21-3.66-.83-5.35-1.84-1.68-1.02-3.2-2.25-4.55-3.71-1.35-1.46-2.66-3.14-3.94-5.05l-17.97-27.02,12.87-17.06c1.88-2.52,3.7-4.43,5.46-5.73,1.76-1.3,3.28-2.17,4.57-2.59,1.29-.42,3.07-.88,5.35-1.36v-1.32h-24.79v1.32c1.76.24,3.19.63,4.3,1.16,1.11.53,1.66,1.63,1.66,3.3s-.93,3.73-2.78,6.28c-.21.15-.32.27-.32.36l-8.92,11.74-9.23-13.69c-.85-1.33-1.42-2.37-1.71-3.12-.29-.74-.43-1.42-.43-2.02,0-2.67,1.96-4,5.87-4v-1.32h-34.76v1.32c.7,0,1.48.07,2.34.2.86.14,1.85.49,2.96,1.05,1.11.56,2.36,1.52,3.75,2.87,1.39,1.35,2.73,3.03,4,5.03l17.51,26.43-13.24,17.24-.55.86c-2.52,2.58-4.43,4.46-5.73,5.64-1.3,1.18-3.03,2.29-5.16,3.32-2.14,1.03-4.51,1.61-7.12,1.73v1.32h26.38v-1.32c-1.61-.18-3-.54-4.19-1.07-1.18-.53-1.77-1.63-1.77-3.3,0-1.24.62-2.79,1.87-4.64l12.1-15.97,10.74,15.97c.73,1.03,1.24,1.87,1.52,2.53.29.65.43,1.3.43,1.93,0,3.03-2.74,4.55-8.23,4.55Z"/>
  <path class="cls-1s-f03 first-color" d="m87.28,240.24c-3.2-9.44-5.83-19-7.89-28.58-3.13,2.78-6.2,5.63-9.2,8.56,3.61,15.11,8.78,30.15,15.38,44.75,21.52,47.6,54.9,86.57,99.22,115.83,8.44,5.57,17.21,10.66,26.27,15.23-4.35-4.76-8.52-9.61-12.53-14.52.23.15.45.31.68.46-1.17-1.61-2.3-3.24-3.43-4.86-46.17-66.28-64.32-141.58-54.05-224.63-22.99,9.28-44.32,21.5-63.6,36.44.72,6,1.68,12.02,2.86,18.03,1.89,9.62,4.35,19.22,7.39,28.72,16.08,50.33,45.09,93.38,86.21,127.94,7.53,6.33,15.43,12.23,23.65,17.7.8,1.1,1.59,2.19,2.4,3.28-8.67-5.5-17-11.49-24.94-17.93-41.72-33.84-71.47-76.37-88.43-126.42Z"/>
  <path class="cls-1s-f03 second-color" d="m617.82,612.85c2.3,0,4.25.63,5.85,1.89,1.59,1.26,2.72,4.19,3.39,8.8h1.27l-.36-15.74h-1.32c-1.43.55-3.22.82-5.37.82h-46.81c-2.15,0-3.94-.27-5.37-.82h-1.32l-.36,15.74h1.41c1.27-4.43,2.58-7.32,3.91-8.67,1.33-1.35,3.06-2.02,5.19-2.02h12.51v52.82c0,2.61-.52,4.7-1.55,6.28-1.03,1.58-3.29,2.37-6.78,2.37v1.32h31.53v-1.32c-2.34,0-4.11-.39-5.32-1.16-1.21-.77-2.02-1.77-2.41-3-.39-1.23-.59-2.72-.59-4.48v-52.82h12.51Z"/>
  <path class="cls-1s-f03 first-color" d="m619.83,393.08c-.28-1.43-.58-2.84-.9-4.25-10.48-46.1-32.09-87.45-64.22-122.91-15.59-17.2-33.11-32.21-52.38-44.89.55.76,1.08,1.53,1.62,2.3,47.39,66.81,66.17,142.97,55.9,227.15,22.45-9.04,43.79-21.19,63.58-36.22-.5-2.84-.95-5.66-1.39-8.42-.71-4.4-1.39-8.61-2.2-12.75Z"/>
  <path class="cls-1s-f03 second-color" d="m421.8,612.85c2.3,0,4.25.63,5.85,1.89,1.59,1.26,2.72,4.19,3.39,8.8h1.27l-.36-15.74h-1.32c-1.43.55-3.22.82-5.37.82h-46.81c-2.15,0-3.94-.27-5.37-.82h-1.32l-.36,15.74h1.41c1.27-4.43,2.58-7.32,3.91-8.67,1.33-1.35,3.06-2.02,5.19-2.02h12.51v52.82c0,2.61-.52,4.7-1.55,6.28-1.03,1.58-3.29,2.37-6.78,2.37v1.32h31.52v-1.32c-2.34,0-4.11-.39-5.32-1.16-1.21-.77-2.02-1.77-2.41-3-.39-1.23-.59-2.72-.59-4.48v-52.82h12.51Z"/>
  <path class="cls-1s-f03 first-color" d="m422.25,24.91c-8.48,2.5-16.49,4.87-24.28,7.91-52.07,20.34-94.64,54.51-126.5,101.56-5.94,8.77-11.37,17.95-16.25,27.47,4.44-4,8.97-7.86,13.59-11.58-.27.2-.54.39-.81.59,5.86-9.11,12.22-17.8,19.08-26.05,36.73-44.21,82.96-74.4,137.39-89.73,5.06-1.42,10.17-2.58,15.43-3.65-2.77-3.14-5.6-6.22-8.52-9.25-3.06.94-6.13,1.85-9.12,2.73Z"/>
  <path class="cls-1s-f03 first-color" d="m454.42,31.29c-3.34.58-6.61,1.15-9.83,1.75-5.27.98-10.41,2.04-15.49,3.38-54.69,14.38-101.44,43.75-138.94,87.31-6.99,8.12-13.51,16.71-19.53,25.71.27-.19.55-.38.82-.57,28.43-20.1,59.29-35.26,92.21-45.23,30.05-9.1,60.89-13.72,91.65-13.72,14.82,0,29.88,1.07,44.96,3.19-9.15-22.52-21.35-43.82-36.38-63.5-3.18.59-6.37,1.14-9.48,1.68Z"/>
  <path class="cls-1s-f03 first-color" d="m237.9,29.51c-.74.98-1.48,1.95-2.2,2.9-1.56,2.04-3.04,3.97-4.42,5.94-1.53,2.17-3.02,4.36-4.48,6.56-29.67,44.65-45.09,94.7-45.81,148.9-.26,19.3,1.56,38.52,5.41,57.41.13-.77.27-1.52.41-2.29,13.94-80.57,54.74-147.71,121.8-200.21-3.08-1.3-6.13-2.55-9.2-3.73-19.62-7.53-40.29-12.73-61.5-15.47Z"/>
  <path class="cls-1s-f03 first-color" d="m622.46,356.18c-15.54-44.07-41.46-82.23-77.05-113.4-17.26-15.12-36.18-27.86-56.55-38.12,4.78,5.23,9.34,10.56,13.7,15.98-.56-.76-1.1-1.52-1.66-2.27,19.49,12.34,37.28,27.04,53.16,43.97,32.75,34.9,55.07,75.87,66.36,121.77.35,1.41.67,2.82.97,4.24,2.83-2.51,5.63-5.07,8.38-7.71-.81-2.73-1.58-5.45-2.33-8.11-1.61-5.7-3.12-11.08-4.98-16.35Z"/>
  <path class="cls-1s-f03 first-color" d="m208,49.73c-1.3,2.18-2.53,4.25-3.67,6.33-26.76,49.17-37.42,102.46-31.69,158.39,1.94,18.98,5.91,37.65,11.84,55.76.31-6.21.8-12.35,1.43-18.44-.12.77-.25,1.53-.37,2.3-4.18-18.82-6.33-38-6.41-57.3-.22-54.2,14.31-104.51,43.2-149.67-4.16-.25-8.33-.4-12.51-.46-.61,1.05-1.23,2.08-1.83,3.1Z"/>
  <path class="cls-1s-f03 second-color" d="m458.77,345.28c-5.2,2.99-10.73,4.49-16.61,4.49h-8.64c-5.76,0-9.63-1.34-11.61-4.02-1.98-2.68-2.97-6.59-2.97-11.73v-83.46c0-4.97,1-8.91,3.01-11.82,2-2.91,6.26-4.36,12.75-4.36v-2.46h-58.97v2.46c5.59,0,9.56,1.34,11.9,4.02,2.34,2.68,3.52,6.74,3.52,12.16v87.61c0,4.91-.95,8.83-2.84,11.73-1.89,2.91-6.09,4.36-12.58,4.36v2.46h95.06l4.32-32.28h-2.46c-4.07,10.9-8.7,17.85-13.9,20.84Z"/>
  <path class="cls-1s-f03 first-color" d="m254.77,480.27c3.99-.28,8.01-.66,11.96-1.12,17.65-2.04,35.04-5.86,51.95-11.37-5.61-.29-11.17-.73-16.68-1.28-17.35,3.78-34.99,5.86-52.72,6.17-4.02.07-8.11.05-12.15-.06-51.36-1.37-98.93-15.88-141.63-43.15-.22,3.35-.38,6.72-.48,10.09-.03,1.01-.06,2.09-.06,2.94.76.47,1.74,1.04,2.64,1.57.23.13.45.27.67.42,48.23,27.71,100.88,39.75,156.49,35.78Z"/>
  <path class="cls-1s-f03 second-color" d="m238.23,349.85c-1.86,2.94-6.07,4.41-12.62,4.41v2.46h58.63v-2.46h-.85c-4.4,0-7.68-.88-9.83-2.63-2.15-1.75-3.47-3.74-3.98-5.97-.51-2.23-.76-4.73-.76-7.5v-42.02h58.97v42.02c0,4.86-.92,8.76-2.75,11.69-1.84,2.94-6.06,4.41-12.67,4.41v2.46h58.63v-2.46h-.85c-4.41,0-7.68-.89-9.83-2.67-2.15-1.78-3.47-3.78-3.98-6.02-.51-2.23-.76-4.7-.76-7.41v-87.44c0-4.91.93-8.87,2.8-11.86,1.86-2.99,6.07-4.49,12.62-4.49v-2.46h-58.63v2.46h.85c6.33,0,10.34,1.6,12.03,4.79,1.7,3.19,2.54,7.05,2.54,11.57v37.11h-58.97v-37.11c0-4.97.96-8.94,2.88-11.9,1.92-2.97,6.1-4.45,12.54-4.45v-2.46h-58.63v2.46h.85c6.27,0,10.27,1.58,11.99,4.74,1.72,3.16,2.58,7.03,2.58,11.61v87.44c0,4.86-.93,8.76-2.8,11.69Z"/>
  <path class="cls-1s-f03 second-color" d="m140.89,676.35h1.68v-55.23c0-2,.18-3.74.55-5.23.36-1.49,1.17-2.78,2.41-3.89,1.24-1.11,3.14-1.8,5.69-2.07v-1.32h-23.11v1.32c3.37.49,5.87,1.46,7.51,2.93,1.64,1.47,2.46,4.22,2.46,8.26v30.66l-40.9-43.17h-24.29v1.32c3.06.45,6.63,2.64,10.69,6.55.52.49,1.09,1.03,1.73,1.64s1.09,1.05,1.36,1.32c.3.3.55.52.73.64v44.35c.06,6.04-3.26,9.33-9.96,9.87v1.32h23.93v-1.32c-3.64-.27-6.13-1.52-7.48-3.75-1.35-2.23-2.02-4.92-2.02-8.07v-37.71l49.04,51.59Z"/>
  <path class="cls-1s-f03 second-color" d="m191.48,674.31v1.32h31.75v-1.32c-2.4-.39-4.41-1.14-6.05-2.25-1.64-1.11-3.06-3.15-4.28-6.12l-22.52-57.96h-8.69l-19.02,53.77c-1.7,4.67-3.46,7.88-5.28,9.62-1.82,1.74-3.78,2.72-5.87,2.93v1.32h20.11v-1.32c-1.67-.24-3.11-.72-4.32-1.43-1.21-.71-1.82-2.1-1.82-4.16,0-1.33.3-2.82.91-4.46l4.78-13.69h20.02l5.6,14.24c.06.18.2.67.43,1.48.23.8.41,1.56.55,2.28.14.71.21,1.27.21,1.66,0,2.49-2.17,3.85-6.51,4.09Zm-18.74-28.2l8.05-22.56,8.64,22.56h-16.7Z"/>
  <path class="cls-1s-f03 first-color" d="m251.85,571.17c1.72-.32,3.42-.66,5.12-1.01,59.98-12.31,111.29-42.14,152.56-88.73,7.87-8.88,15.16-18.38,21.83-28.44-.94.68-1.89,1.34-2.84,2.01-27.81,19.66-58.23,34.54-90.94,44.4-29.94,9.03-60.7,13.6-91.42,13.6-14.8,0-29.84-1.06-44.9-3.16,9.27,22.72,21.51,44,36.5,63.45,4.84-.62,9.48-1.25,14.09-2.12Z"/>
  <path class="cls-1s-f03 first-color" d="m97.24,343.41c-9.14,21.59-15.46,44.3-18.84,67.69-.15,1.01-.3,2.09-.41,2.95.7.56,1.63,1.25,2.47,1.89.21.16.42.33.63.51,4.02,2.98,8.1,5.83,12.22,8.56,42.22,28.01,89.53,43.34,140.85,45.61,4.04.18,8.13.27,12.15.27,17.73,0,35.41-1.76,52.82-5.25.23-.05.47-.09.71-.13-81.87-13.8-149.82-54.72-202.6-122.09Z"/>
</svg>