<svg id="Layer_1" data-name="Layer 1" xmlns="http://www.w3.org/2000/svg" viewBox="0 0 700 700">
  <defs>
    <style>
      .cls-1s-n01 {
        fill: #231f20;
      }
    </style>
  </defs>
  <path class="cls-1s-n01 second-color" d="m551.6,503.57c.9-1.77.29-3.5-1.59-4.17-.96-.34-2.03-.51-3.06-.52-6.48-.03-12.96-.02-19.44.03-.95,0-1.95.16-2.83.5-1.87.7-2.53,2.73-1.45,4.41.43.66,1.07,1.27,1.75,1.68,1.83,1.1,3.24,2.6,4.51,4.27,3.02,3.97,6.07,7.92,9.1,11.88,1.27,1.65,2.53,3.31,3.91,5.12-.61.74-1.07,1.32-1.55,1.88-3.07,3.55-6.18,7.07-9.2,10.65-2.11,2.5-4.09,5.09-7.21,6.51-1.37.62-2.05,1.95-1.78,3.54.27,1.6,1.36,2.64,2.88,2.67,5.57.12,11.14.12,16.71.05,1.25-.01,2.28-.77,2.6-2.09.35-1.41.01-2.68-1.13-3.63-.57-.47-1.24-.82-1.84-1.26-1.71-1.23-2.01-2.12-1.06-3.99,1.66-3.27,3.98-6.06,6.65-8.97,2.74,3.29,5.39,6.4,7.95,9.58,1.96,2.44,1.91,2.48,0,4.95-1.63,2.1-.93,4.58,1.62,5.26,1.42.38,2.94.47,4.42.49,6.11.05,12.22.02,18.32.02.52,0,1.05.04,1.56-.06,1.34-.25,2.33-1.02,2.79-2.31.47-1.34.02-2.5-1.01-3.42-.55-.49-1.15-.97-1.8-1.31-1.75-.94-3.09-2.29-4.3-3.83-4.47-5.67-8.97-11.32-13.45-16.99-.41-.51-.78-1.05-1.18-1.6.26-.32.43-.56.63-.77,4.19-4.15,7.97-8.64,11.39-13.45.8-1.13,2.01-1.96,3.01-2.95.84-.83,1.82-1.59,2.42-2.57.98-1.6.22-3.35-1.58-3.9-.84-.26-1.76-.36-2.64-.37-3.35-.05-6.7-.05-10.05-.04-.67,0-1.35.04-2,.18-2.53.57-3.38,3.19-1.66,5.16.43.5,1.01.87,1.53,1.3,1.48,1.24,1.7,1.91.85,3.68-1.52,3.2-3.94,5.69-6.45,8.24-.62-.68-1.1-1.14-1.52-1.66-1.78-2.2-3.6-4.37-5.29-6.63-1.73-2.32-1.68-2.4.02-4.83.17-.24.35-.49.48-.75Z"/>
  <path class="cls-1s-n01 second-color" d="m455.94,616.83c-1.55-3.99-3.4-3.86-6.42-2.83.99,12.05,11.7,18.5,24.77,15.22,7.57-1.9,11.96-6.64,12.16-13.13.2-6.57-3.28-10.83-11.08-13.21-4.67-1.43-9.53-2.28-14.11-3.94-5.08-1.84-5.98-6.72-2.24-10.15,4.8-4.41,15.84-2.81,19.4,2.53,1.16,1.73,3.36,2.76,5.09,4.11.44-.6.87-1.2,1.31-1.8-1.32-7.75-4.41-11.08-12.42-12.64-7.27-1.42-14.24-.73-19.15,5.62-4.36,5.64-2.85,13.11,3.31,16.75,2.63,1.55,5.76,2.31,8.72,3.27,3.71,1.2,7.65,1.84,11.17,3.44,4.76,2.15,5.48,7.78,1.82,11.1-6.08,5.51-19.4,3.21-22.33-4.34Z"/>
  <path class="cls-1s-n01 first-color" d="m374.48,266.07c-4.82,3.15-10.81,8.97-11.63,11.43h2.71c38.16,0,76.32.02,114.47-.04,2.69,0,5.04.67,7.02,2.35,2.1,1.77,4.16,3.63,5.98,5.68,6.53,7.37,11.39,15.83,15.62,24.65,8.71,18.12,14.56,37.12,17.4,57.02,1.02,7.15,1.56,14.36,1.28,21.6-.26,6.64-.99,13.22-2.96,19.6-2.25,7.28-5.88,13.65-12.03,18.4-1.46,1.13-2.7,2.56-4.02,3.87-1.27,1.26-2.54,2.52-3.76,3.83-1.24,1.33-2.67,1.89-4.55,1.88-8.2-.07-16.4,0-24.59,0-42.78,0-85.56,0-128.33,0-.62,0-1.24.02-1.86.04,2.97,3.3,5.85,6.69,8.94,9.88,4.04,4.16,9.02,5.94,14.9,5.92,30.03-.1,60.07-.05,90.1-.05,13.86,0,27.72-.01,41.59.07,5.01.03,9.36-1.49,13.07-4.85,1.27-1.15,2.48-2.36,3.7-3.56,1.86-1.83,3.57-3.83,5.57-5.48,5.86-4.85,10.27-10.75,13.41-17.64,4.5-9.86,6.17-20.33,6.58-31.04.35-9.11-.37-18.17-1.79-27.16-3.24-20.58-9.39-40.28-18.41-59.06-4.46-9.29-9.6-18.18-16.17-26.17-4.05-4.92-8.55-9.35-14.2-12.46-3.58-1.97-7.38-3.18-11.52-3.05-.65.02-1.3-.07-2.07-.12v-12.71c.9,0,1.63,0,2.36,0,2.76,0,5.52.01,8.27-.03,2.8-.05,5.46-.74,7.9-2.13,4.03-2.3,6.29-5.66,5.88-10.44-.72-8.38-1.35-16.77-2.32-25.13-1.93-16.72-4.89-33.28-7.68-49.86-1.61-9.61-3-19.27-4.18-28.95-1.02-8.42-1.61-16.89-2.38-25.35-.27-2.94-1.42-5.45-3.56-7.49-2.8-2.67-6.17-3.7-9.99-3.7-25.71.03-51.42.01-77.14.02-.52,0-1.04,0-1.56.02-6.76.31-11.67,5.18-12.24,11.9-.66,7.86-1.2,15.75-2.29,23.55-2.14,15.4-4.62,30.76-6.97,46.14-.64,4.18-1.32,8.36-1.98,12.54.14.04.29.09.43.13,5.77-12.56,10.21-25.63,14.55-38.73,4.35-13.12,8.48-26.32,11.91-39.67h73.24c.14.86.29,1.58.36,2.32.91,8.73,1.62,17.5,2.77,26.2,1.37,10.33,3.07,20.61,4.7,30.9,1.5,9.48,3.28,18.92,4.59,28.43,1.4,10.17,2.4,20.4,3.55,30.61.1.92.01,1.87.01,2.82h-105.36c1.43-20.12,4.5-39.87,7.71-59.64-.94,1.39-1.71,2.83-2.4,4.3-6.09,13.11-11.36,26.56-16.11,40.21-2,5.76-4,11.53-5.07,17.57-.67,3.78.52,6.9,3.25,9.48,1.95,1.83,4.29,3.05,6.9,3.44,2.56.38,5.18.42,7.78.52,2.07.08,4.14.02,6.32.02v12.88c-5.85-.5-10.98,1.19-15.72,4.28Zm31.87-16.78c1.55-.47,53.06-.64,56.55-.17v12.49h-56.55v-12.32Z"/>
  <path class="cls-1s-n01 second-color" d="m584.87,604.99c-.46-3.11-1.24-6.96-3.35-8.88-7.2-6.59-21.22-2.31-24.64,7.05.37.67.74,1.34,1.11,2.01,1.89-1.03,4.09-1.73,5.6-3.15,3.01-2.85,10.29-3.91,13.6-1.28,1.04.83,2,2.68,1.81,3.87-.17,1.04-1.89,2.33-3.12,2.62-3.99.91-8.14,1.12-12.11,2.12-5.67,1.43-8.68,5.61-8.18,10.6.49,4.91,4.41,8.76,10.18,8.58,4.52-.15,9-1.75,12.7-2.53,2.51,1.09,4.82,2.09,7.67,3.33-.45-5.18-.9-8.87-1.05-12.58-.17-3.91.36-7.9-.2-11.74Zm-10.03,15.99c-3.3,1.27-7.36.74-11.08.55-.72-.04-2.12-2.35-1.83-3.08.56-1.43,1.9-3.22,3.24-3.56,4.29-1.07,8.73-1.54,13.12-2.24.61.49,1.21.97,1.82,1.46-1.72,2.39-2.96,5.98-5.26,6.87Z"/>
  <path class="cls-1s-n01 second-color" d="m413.95,543.97c0,1.4.18,2.82.45,4.2.44,2.21,1.87,3.51,4.1,3.84,1.25.19,2.51.37,3.77.38,5.58.04,11.17.08,16.75-.02,1.53-.03,3.12-.35,4.57-.85,1.8-.62,2.45-1.98,2.3-3.89-.18-2.24-1.4-3.46-3.73-3.65-1.93-.16-3.88-.11-5.79-.37-2.64-.36-3.75-1.59-4.08-4.24-.17-1.33-.28-2.67-.29-4.01-.03-8.56-.02-17.13,0-25.69,0-.57.13-1.14.21-1.83,2.31,0,4.46.05,6.61-.02,1.1-.03,2.24-.13,3.29-.44,2.19-.64,3.21-2.2,3.06-4.33-.16-2.23-1.26-3.6-3.58-3.86-2.43-.27-4.9-.21-7.35-.3-.79-.03-1.57-.06-2.46-.09,0-4.27.02-8.29-.01-12.3-.01-1.26-.15-2.52-.27-3.78-.13-1.36-.88-2.27-2.26-2.33-1.84-.09-3.69-.1-5.53.02-1.48.1-2.46,1.07-2.91,2.44-.42,1.27-.65,2.59-1,3.88-.7,2.58-1.32,5.19-2.18,7.71-.86,2.52-2.72,4-5.4,4.45-1.46.24-2.94.53-4.35.98-1.59.5-2.71,1.52-2.85,3.34-.2,2.65,1.08,4.28,3.77,4.52,1.61.14,3.24.03,5.13.03v2.93c0,11.1-.02,22.19.02,33.29Z"/>
  <path class="cls-1s-n01 second-color" d="m514.05,625.41c9.6,4.56,16.01,3.52,20.45-2.99,4.95-7.27,4.15-19.56-1.63-25.18-5.37-5.22-11.09-5.09-17.93-.2-2.28-1.06-4.14-1.92-6.51-3.02v47.59c1.99-.17,3.59-.3,5.63-.47v-15.73Zm8.5-26.12c5.59-.1,9.44,4.78,9.33,11.85-.11,7.14-3.93,11.78-9.6,11.66-5.74-.13-9.25-4.8-9.04-12.03.19-6.65,4.03-11.38,9.31-11.47Z"/>
  <path class="cls-1s-n01 second-color" d="m509.62,545.66c1.54-1.32,2.87-2.85,3.47-4.84.44-1.49.49-2.95-.91-4.07-1.36-1.08-2.79-.98-4.16-.13-1.13.7-2.2,1.52-3.23,2.38-3.38,2.8-7.09,4.9-11.45,5.73-7.85,1.49-15.4-3.52-16.94-11.52.81-.16,1.46-.29,2.11-.4,5.13-.91,10.28-1.72,15.38-2.75,5.01-1.01,9.74-2.85,13.69-6.21,6.16-5.25,6.3-14.21.27-19.63-1.37-1.23-2.98-2.25-4.61-3.11-4.66-2.47-9.71-3.23-14.92-3.09-9.12.25-17.23,3.1-23.94,9.46-8.54,8.09-11.04,21.67-5.75,31.62,3.18,5.98,8.24,9.93,14.4,12.47,6.9,2.85,14.07,2.94,21.29,1.53,5.74-1.12,10.85-3.63,15.29-7.44Zm-28.83-36.52c2.3-2.56,5.29-3.5,8.69-3.16,2.66.27,4.38,1.74,5.03,4.35,1.03,4.1-.14,7.51-3.38,10.18-3.26,2.68-7.16,3.89-11.22,4.67-1.44.28-2.92.39-4.67.62-.19-6.55,1.41-12.05,5.55-16.65Z"/>
  <path class="cls-1s-n01 second-color" d="m124.21,628.24v-34.52c8.13,10.19,15.33,20.59,22.2,31.21,2.28,3.53,4.75,4.66,8.62,3.09v-46.09c-1.77-.09-3.26-.16-5.62-.28v36.87c-8.08-11.99-15.25-22.39-22.13-32.98-2.24-3.44-4.62-4.98-8.98-3.12,0,14.21.03,28.48-.02,42.76-.02,4.65,2.69,3.52,5.93,3.05Z"/>
  <path class="cls-1s-n01 second-color" d="m376.44,530.07c4.72-.93,9.11-2.72,13.02-5.6,7.78-5.75,6.61-16.37-.11-21.25-2.44-1.77-5.08-3.1-7.97-3.93-6.62-1.89-13.26-1.68-19.86.04-13.39,3.49-21.98,13.57-22.9,26.94-.46,6.68,1.44,12.67,6.03,17.66,3.12,3.39,6.82,5.98,11.11,7.69,6.87,2.73,13.94,2.86,21.08,1.5,5.74-1.1,10.84-3.65,15.29-7.43,1.61-1.36,2.94-2.94,3.57-5.03.44-1.48.37-2.8-.89-3.85-1.25-1.04-2.63-1.05-3.95-.28-1.15.67-2.23,1.49-3.25,2.34-2.78,2.29-5.75,4.23-9.24,5.29-9,2.74-17.25-1.8-19.41-10.92.81-.17,1.45-.31,2.09-.43,5.13-.91,10.27-1.73,15.38-2.74Zm-18.68-4.28c.1-1.75.1-3.22.28-4.66.51-4.15,2-7.93,4.64-11.2,2.3-2.85,5.29-4.24,9.01-3.99,3.19.22,5.2,2.09,5.64,5.29.6,4.28-1,7.57-4.5,9.99-3.12,2.16-6.66,3.28-10.35,3.96-1.44.27-2.91.38-4.71.61Z"/>
  <path class="cls-1s-n01 second-color" d="m130.82,518.82c-8.47-11.71-16.88-23.47-25.43-35.12-2.64-3.6-5.64-6.93-8.51-10.35-1.43-1.7-3.28-2.39-5.54-2.35-5.74.08-11.48.01-17.21.04-.96,0-1.94.1-2.87.32-1.54.37-2.75,1.18-2.96,2.93-.21,1.74.76,2.82,2.18,3.54.93.47,1.92.8,2.88,1.2,2.09.89,3.38,2.39,3.56,4.72.1,1.34.23,2.67.23,4.01.02,16.62.02,33.24,0,49.86,0,1.03-.17,2.07-.3,3.1-.25,1.96-1.4,3.22-3.2,3.96-.89.37-1.81.72-2.61,1.24-1.33.86-1.71,2.2-1.45,3.72.25,1.47,1.32,2.12,2.63,2.38,1.09.22,2.21.36,3.32.37,4.25.04,8.5.04,12.74,0,1.04,0,2.08-.15,3.1-.33,1.41-.25,2.53-.92,2.83-2.46.3-1.55-.29-2.96-1.69-3.83-.69-.43-1.45-.76-2.2-1.08-2.39-1.02-3.51-2.88-3.65-5.41-.04-.67-.04-1.34-.04-2.01,0-14.08,0-28.17,0-42.25v-2.68c.75.88,1.15,1.27,1.47,1.72,13.42,18.61,26.87,37.21,40.21,55.88,1.61,2.25,3.57,3.3,6.17,3.33,1.4.02,2.83-.09,4.21-.35,2.25-.41,3.09-1.33,3.34-3.57.18-1.62.25-3.27.26-4.91.02-19.3,0-38.6.02-57.9,0-1.04.06-2.08.14-3.12.19-2.37,1.29-4.06,3.62-4.86.77-.26,1.54-.6,2.22-1.04,1.31-.84,1.85-2.12,1.61-3.66-.22-1.44-1.2-2.2-2.53-2.5-.86-.19-1.76-.32-2.65-.33-4.77-.03-9.54-.04-14.31,0-.96,0-1.95.11-2.86.4-2.75.86-3.33,3.89-1.13,5.77.55.47,1.25.82,1.93,1.08,3.12,1.18,4.44,3.41,4.42,6.73-.07,11.48-.02,22.95-.03,34.43,0,.45-.15.89-.28,1.64-.69-.95-1.18-1.61-1.65-2.28Z"/>
  <path class="cls-1s-n01 first-color" d="m344.54,436.41c.23,0,.46,0,.7-.02-.06-.07-.12-.13-.18-.2l-.52.21Z"/>
  <path class="cls-1s-n01 first-color" d="m263.54,96.64c1.58-4.46,4.73-7.21,9.53-8.36-4.58-1.85-7.28-5.1-8.31-9.99-1.75,4.75-5.01,7.55-9.85,8.33,1.83,1.35,3.88,2.39,5.27,4.01,1.43,1.67,2.22,3.89,3.36,6Z"/>
  <path class="cls-1s-n01 first-color" d="m285.68,139.61c.04-2.08-1.49-3.75-3.52-3.85-2.01-.09-3.73,1.5-3.83,3.54-.1,2.18,1.51,3.93,3.64,3.95,2.05.02,3.67-1.57,3.71-3.65Z"/>
  <path class="cls-1s-n01 first-color" d="m343.33,64.78c-.05-3.63-2.97-6.45-6.62-6.4-3.63.05-6.44,2.96-6.4,6.62.04,3.63,2.93,6.42,6.62,6.37,3.65-.04,6.46-2.94,6.4-6.6Z"/>
  <path class="cls-1s-n01 first-color" d="m332.35,177.82c2.64,3.04,3.9,6.71,4.83,10.58,1.43-3.85,3.21-7.32,6.28-10,3.05-2.66,6.74-3.91,10.68-4.87-8.34-2.58-13.25-8.09-14.83-16.72-1.53,3.69-3.31,7.05-6.27,9.64-3.02,2.64-6.65,3.96-10.55,5,3.81,1.44,7.22,3.31,9.87,6.36Z"/>
  <path class="cls-1s-n01 first-color" d="m215.28,152.44c-4.91.69-9.57,2.24-13.98,4.46-13.13,6.59-23.31,16.41-31.13,28.74-3.21,5.06-5.56,10.53-6.82,16.42-.45,2.09-1.02,4.19-.62,6.4,28.7,15.29,53.74,35.01,73.98,60.82,2.59-2.35,4.99-4.53,7.07-6.41,2.37,2.33,4.57,4.5,6.85,6.74-.4.42-.89.97-1.41,1.49-2.37,2.38-4.79,4.7-7.08,7.14-.73.78-1.35,1.82-1.62,2.84-.55,2.13.53,4.29,2.39,5.31,1.93,1.06,4.3.81,5.98-.83,3.31-3.22,6.54-6.52,9.82-9.78,1.85-1.83,3.71-3.64,5.72-5.61.73.69,1.27,1.19,1.8,1.71,4.95,4.95,9.9,9.9,14.86,14.85,16.08,16.06,32.16,32.12,48.23,48.18,5.69,5.69,11.36,11.4,17.05,17.09,1.47,1.47,1.48,1.46,3.45.64,5.91-2.46,10.2-6.58,12.8-12.45,1.19-2.68,1.21-2.67-.84-4.73-26.45-26.45-52.89-52.9-79.34-79.34-.62-.62-1.22-1.27-1.93-2,.59-.63,1.06-1.18,1.58-1.7,4.27-4.26,8.55-8.52,12.82-12.78.58-.58,1.17-1.16,1.63-1.83,1.36-2,1.07-4.69-.61-6.35-1.76-1.74-4.53-1.93-6.55-.42-.47.35-.88.8-1.3,1.22-2.37,2.37-4.73,4.75-7.11,7.11-.4.4-.86.74-.95.82-2.34-2.33-4.54-4.5-6.79-6.73,2-2.2,4.15-4.54,6.45-7.07-25.86-20.32-45.62-45.41-60.97-74.22-1.2.09-2.31.12-3.4.27Z"/>
  <path class="cls-1s-n01 second-color" d="m228.7,594.97v33.36c3.89,1.02,5.44-.02,5.35-3.89-.21-8.6-.21-17.21,0-25.81.09-4.07-1.8-4.61-5.34-3.66Z"/>
  <path class="cls-1s-n01 first-color" d="m199.47,328.52c.02,3.11,2.59,5.68,5.7,5.71,3.12.03,5.7-2.49,5.76-5.62.06-3.2-2.59-5.87-5.79-5.83-3.1.04-5.7,2.67-5.67,5.75Z"/>
  <path class="cls-1s-n01 first-color" d="m257.68,396.46c1.4-4.68,3.33-8.99,6.86-12.41,3.57-3.47,8.01-5.25,12.79-6.52-4.69-1.43-8.97-3.35-12.38-6.89-3.45-3.57-5.18-7.99-6.46-12.82-2.75,10.25-9.29,16.43-19.62,18.85,4.69,1.48,8.95,3.48,12.33,6.99,3.45,3.58,5.23,8.01,6.48,12.79Z"/>
  <path class="cls-1s-n01 second-color" d="m256.69,628.31h4.96v-46.2h-4.96v46.2Z"/>
  <path class="cls-1s-n01 second-color" d="m196.9,607.24c-3.2.82-6.56.96-9.84,1.52-6.92,1.19-10.93,5.68-10.25,11.36.67,5.59,5.67,9.24,12.69,8.44,3.77-.43,7.4-2.08,10.04-2.86,2.67,1.34,4.83,2.42,6.68,3.35,0-9.02.32-16.66-.16-24.25-.19-3.05-1.33-6.92-3.47-8.79-7.43-6.51-21.33-2.08-24.62,7.66,1.65.47,3.29.94,4.83,1.37,4.02-5.68,9.61-7.54,14.71-4.73,1.29.71,2.66,2.59,2.65,3.91,0,1.05-1.93,2.66-3.27,3.01Zm4.43,6.95c-1.88,2.44-3.31,6.13-5.76,7.03-3.27,1.2-7.35.38-11.05.03-.59-.06-1.7-2.61-1.32-3.31.75-1.36,2.25-2.83,3.7-3.17,4.12-.98,8.37-1.43,12.57-2.08.62.5,1.23,1.01,1.85,1.51Z"/>
  <path class="cls-1s-n01 second-color" d="m628.01,543.98c-1.93-.16-3.88-.11-5.79-.37-2.6-.35-3.59-1.39-4.1-3.98-.16-.8-.23-1.63-.23-2.44-.03-9.31-.04-18.62-.04-27.94,0-.42.12-.84.2-1.42,2.34,0,4.57.09,6.79-.03,1.31-.07,2.68-.28,3.9-.76,1.78-.71,2.4-2.26,2.14-4.45-.22-1.84-1.19-2.98-3.06-3.34-1.16-.23-2.36-.31-3.55-.34-2.15-.05-4.3-.01-6.67-.01-.04-.78-.09-1.22-.09-1.65-.02-4.32.02-8.64-.07-12.96-.06-3.18-.83-3.89-3.99-4.14-.15-.01-.3-.01-.45-.02-5.03-.21-6.25.85-7.26,5.78-.58,2.83-1.35,5.64-2.25,8.39-.86,2.6-2.75,4.16-5.53,4.61-1.54.25-3.09.57-4.55,1.08-1.99.69-2.75,2.1-2.55,4.19.2,2.07,1.23,3.19,3.38,3.53.73.12,1.48.12,2.23.14,1.01.02,2.03,0,3.21,0v2.99c0,10.95-.02,21.9.03,32.85,0,1.62.27,3.26.61,4.85.42,1.94,1.79,3.06,3.71,3.42,1.24.23,2.51.42,3.77.43,5.74.04,11.47.08,17.21-.02,1.53-.03,3.1-.41,4.56-.92,1.45-.5,2.16-1.74,2.18-3.32.03-2.41-1.29-3.94-3.73-4.14Z"/>
  <path class="cls-1s-n01 second-color" d="m325.81,552.02c1.27-.41,1.86-1.37,1.96-2.7.12-1.56-.72-2.58-1.92-3.28-1.81-1.05-2.55-2.59-2.53-4.62.01-.97-.06-1.94-.06-2.9,0-6.56,0-13.11,0-19.67,0-1.34-.01-2.68-.11-4.02-.64-8.86-5.34-14.51-13.6-16.3-3.84-.83-7.7-.68-11.53.12-4.85,1.01-8.88,3.35-11.92,7.31-.2.26-.47.46-.76.75-.48-.69-.86-1.24-1.25-1.77-2.37-3.26-5.48-5.5-9.44-6.32-7.84-1.64-14.93-.06-21.03,5.31-.55.49-1.07,1.02-1.81,1.73-.6-1.81-1-3.41-1.66-4.89-1.05-2.34-2.5-3.07-5.04-2.66-4.38.72-8.5,2.21-12.35,4.4-.89.51-1.75,1.17-2.44,1.92-1.26,1.36-1.09,2.9.32,4.1.39.33.85.62,1.31.84,2.28,1.08,3.2,2.84,3.17,5.38-.07,7.97,0,15.94,0,23.92,0,1.12-.06,2.23-.08,3.35-.02,1.52-.56,2.74-1.88,3.58-.56.36-1.11.77-1.57,1.24-1.81,1.86-1.14,4.54,1.33,5.29.63.19,1.32.27,1.98.27,6.18.02,12.37.03,18.55,0,.8,0,1.65-.11,2.4-.39,1.99-.73,2.63-3.09,1.34-4.77-.31-.41-.7-.82-1.14-1.06-2.19-1.18-2.75-3.05-2.72-5.41.09-7,0-14.01.06-21.01.01-1.62.23-3.28.6-4.86.72-3.14,2.7-5.34,5.77-6.27,5.27-1.61,9.14.41,9.9,5.72.19,1.32.37,2.66.38,4,.05,7,.06,14.01.07,21.01,0,.97-.11,1.94-.09,2.9.02,1.39-.52,2.44-1.67,3.21-.56.37-1.1.78-1.59,1.22-.96.85-1.41,1.91-1.08,3.21.33,1.28,1.16,2.07,2.45,2.31.65.12,1.32.21,1.99.21,6.11.02,12.22.02,18.33,0,.73,0,1.5-.09,2.19-.31,2.34-.76,2.98-3.37,1.27-5.17-.51-.53-1.11-.99-1.73-1.4-1.16-.76-1.69-1.84-1.76-3.18-.03-.67-.08-1.34-.08-2.01,0-6.71-.06-13.41.03-20.12.03-1.92.33-3.86.79-5.73.8-3.26,3.07-5.32,6.25-6.05,4.62-1.07,8.17.24,9.26,5.67.15.73.25,1.47.26,2.21.1,6.93.19,13.85.25,20.78.01,1.56-.15,3.13-.13,4.69.02,1.8-.64,3.15-2.22,4.07-.57.33-1.1.79-1.52,1.3-1.42,1.73-.74,4.17,1.37,4.9.69.24,1.46.34,2.19.34,6.26.03,12.52.03,18.78,0,.73,0,1.49-.14,2.18-.37Z"/>
  <path class="cls-1s-n01 second-color" d="m169.41,551.95c4.78,2.17,9.8,2.36,14.89,1.6,4.67-.7,8.6-2.81,11.48-6.66.18-.24.25-.56.37-.84.16.1.32.19.49.29.14.7.29,1.41.4,2.12.44,2.71,1.12,3.4,3.82,3.83.51.08,1.04.11,1.56.11,3.95,0,7.9.03,11.84-.01.96-.01,1.93-.17,2.86-.4,1.39-.34,2.45-1.13,2.69-2.65.24-1.51-.53-2.57-1.7-3.39-.49-.34-1.02-.61-1.55-.88-1.36-.71-2.17-1.79-2.27-3.34-.09-1.48-.2-2.97-.2-4.46-.02-6.26.06-12.51-.03-18.77-.13-8.97-4.48-15.06-12.86-18.21-.63-.24-1.27-.44-1.91-.62-6.93-1.99-13.97-2.16-21.02-1.02-3.14.51-6.24,1.39-9.24,2.44-1.55.54-3.08,1.61-4.2,2.82-2.77,3.01-1.31,7.33,2.63,8.37,3.47.92,6.46-.05,9.18-2.19,1.23-.97,2.4-2.02,3.67-2.92,3.16-2.25,6.53-2.11,9.99-.75,3.84,1.51,5.89,7.54,4.7,10.64-1.34,0-2.75-.09-4.15.02-3.56.27-7.14.43-10.65,1-4.81.78-9.36,2.42-13.43,5.2-3.38,2.3-5.81,5.31-6.8,9.35-2.01,8.24,1.68,15.77,9.46,19.31Zm14.9-25.62c3.54-2.02,7.4-2.46,11.68-2.33.13,4.57.12,8.86-1.16,13.03-.72,2.34-2.12,4.24-3.97,5.81-1.91,1.62-4.13,2.28-6.62,2.04-2.99-.29-5.43-2.91-5.92-6.35-.72-5.09,1.5-9.63,6-12.2Z"/>
  <path class="cls-1s-n01 second-color" d="m389.52,623.58c1.93,1.48,3.93,3.02,6.73,5.17,1.28-1.5,2.44-2.86,3.48-4.07-2.54-2.35-4.66-4.32-6.56-6.08,1.46-3.89,2.66-7.1,4.01-10.69-2.26-.46-3.93-.81-5.75-1.18-.79,1.84-1.53,3.57-2.63,6.11-2.99-3.73-5.59-6.96-8.19-10.2,8.49-6.41,10.45-11.18,7.1-16.31-3.06-4.69-10.54-6.35-15.69-3.03-1.99,1.29-4.62,3.71-4.59,5.58.07,4.33,1.58,8.64,2.6,13.39-9.13,6.5-11.71,13.13-7.18,20.01,5.18,7.86,14.6,8.36,26.65,1.31Zm-11.29-38.04c2.27,3.12,5.04,5.31,4.73,6.89-.42,2.11-3.23,3.75-5.02,5.59-1.76-2.07-4.24-3.93-4.97-6.32-.34-1.12,2.68-3.27,5.26-6.16Zm-10.69,28.84c.62-3.36,3.89-6.24,6.52-10.02,4.52,5.65,7.88,9.85,11.35,14.19-4.09,3.6-8.45,5.85-13,3.33-2.41-1.34-5.27-5.29-4.86-7.5Z"/>
  <path class="cls-1s-n01 first-color" d="m359.87,349.94c-3.48,3.55-7.9,5.42-12.81,6.83.41,3.29.66,6.4,1.21,9.46,2.14,11.79,7.95,21.19,18.17,27.72,7.54,4.81,15.81,7.25,24.7,7.42,7.29.14,14.58-.05,21.87-.11.78,0,1.56-.15,2.35-.23-.67-.75-1.39-1.11-2.1-1.49-3.16-1.66-6.37-3.23-9.48-4.99-2.55-1.44-4.76-3.35-6.42-5.8-3.07-4.54-4.89-9.65-6.56-14.82-.02-.05.06-.13.16-.35,3.82,3.08,7.99,4.79,13.26,3.22-.35-.54-.49-.8-.68-1.02-3.61-4.43-6.26-9.38-8.41-14.66-2.17-5.34-5.17-10.24-9.04-14.54-3.6-4-7.84-7.08-13.13-8.49-2.07-.55-4.16-1.03-6.4-.62-1.27,4.72-3.28,8.98-6.71,12.48Z"/>
  <path class="cls-1s-n01 first-color" d="m494.42,407.83c-.91.62-1.7,1.46-2.43,2.3-.91,1.03-1.99,1.37-3.33,1.48-7.05.58-14.09,1.24-21.13,1.92-8.52.82-17.03,1.7-25.55,2.52-7.04.68-14.08,1.28-21.12,1.95-9.93.95-19.85,1.95-29.78,2.91-8.67.84-17.34,1.63-26.01,2.46-2.55.25-5.09.57-7.64.85.54.35,1.06.35,1.57.36,12.06.23,24.13.49,36.19.7,7.22.13,14.45.15,21.68.29,10.13.19,20.25.47,30.38.67,6.18.12,12.37.11,18.55.23,9.9.2,19.8.44,29.7.74,1.41.04,2.34-.4,3.28-1.41,2.12-2.29,4.25-4.62,6.63-6.63,3.64-3.07,6.18-6.81,7.84-11.22,1.91-5.07,2.73-10.36,3.01-15.73.53-9.94-.46-19.78-2.11-29.57-3.29-19.55-9.63-38.07-19.13-55.47-3.25-5.96-6.89-11.68-11.52-16.7-2.31-2.5-5.28-3.65-8.55-3.65-6.4,0-12.81.26-19.21.39-14.89.31-29.79.62-44.68.89-12.96.24-25.92.44-38.88.67-1.47.03-2.95.18-4.78.29.51.25.63.35.77.36,8.57,1.07,17.13,2.14,25.7,3.19,8.94,1.1,17.88,2.18,26.81,3.29,9.23,1.15,18.46,2.32,27.69,3.47,7.61.95,15.21,1.89,22.82,2.79,1.42.17,2.51.66,3.28,1.93.77,1.27,1.73,2.42,2.55,3.67,9.47,14.51,15.48,30.49,19.62,47.21,2.06,8.32,3.28,16.79,3.83,25.36.4,6.11.38,12.21-.75,18.25-.69,3.67-2.02,7-5.31,9.22Z"/>
  <path class="cls-1s-n01 second-color" d="m300.3,621.93c-5,2.56-9.99.76-14.14-4.9-1.52.47-3.14.98-4.75,1.48,2.8,8.98,11.57,12.63,20.79,8.99,4.44-1.75,6.99-4.97,7.18-9.75.2-4.91-2.89-7.49-7.11-8.85-3.89-1.25-7.94-2.06-11.81-3.36-1.08-.36-2.49-1.77-2.49-2.71,0-.99,1.55-2.87,2.32-2.82,3.69.24,7.37.89,11.01,1.63,1.98.4,3.85,1.28,6.55,2.21-1.8-8.64-8.88-12.13-17.22-10-4.8,1.23-8.16,3.8-8.42,9.14-.26,5.16,2.8,7.9,7.31,9.31,3.54,1.11,7.21,1.82,10.69,3.05,1.27.45,3.22,2.13,3.06,2.84-.32,1.42-1.64,3.04-2.98,3.73Z"/>
</svg>