<svg id="Layer_1" data-name="Layer 1" xmlns="http://www.w3.org/2000/svg" viewBox="0 0 700 700">
  <defs>
    <style>
      .cls-1s-f09 {
        fill: #231f20;
      }
    </style>
  </defs>
  <path class="cls-1s-f09 second-color" d="m525.68,58.96v-5.97h-22.47v32.56c2.66.41,20.84.31,22.41-.11v-5.84h-14.31v-7.77h12.08v-6.01h-12.24c.13-2.41-.24-4.56.29-6.86h14.26Z"/>
  <path class="cls-1s-f09 second-color" d="m573.37,59c2.42-.02,4.85.08,7.26-.07v-5.94h-22.39v32.64h22.39v-6c-2.46,0-4.83,0-7.19,0-2.43-.01-4.85-.04-7.29-.07v-7.56c4.15-.34,8.24.1,12.21-.24v-5.8c-4.18-.24-8.21.11-12.19-.2v-6.76c2.48,0,4.84.01,7.21,0Z"/>
  <path class="cls-1s-f09 second-color" d="m490.55,85.78c2.69-.03,5.18.08,7.62-.06.49-4.08.29-31.23-.22-32.8h-10.05c-2.34,7.31-4.68,14.58-7.01,21.86-.14.02-.28.04-.42.06-2.36-7.33-4.72-14.66-7.05-21.87h-10.34v32.68h7.68c.49-7.09-.3-14.04-.41-21,.14-.02.28-.05.43-.07,2.41,7.06,4.83,14.12,7.23,21.13h5.32c1.19-3.51,2.34-7.01,3.57-10.48,1.22-3.45,2.22-6.99,3.81-10.32.19,6.95-.78,13.85-.16,20.87Z"/>
  <path class="cls-1s-f09 second-color" d="m590.76,85.71c1.75-3.5,3.52-7.05,5.43-10.87,1.94,3.84,3.74,7.42,5.47,10.83h9.19c-3.18-5.62-6.23-11.01-9.32-16.48,2.97-5.31,5.93-10.58,9.15-16.33-2.87,0-5.24.07-7.61-.03-1.23-.05-1.81.45-2.29,1.49-1.22,2.62-2.53,5.2-3.82,7.79-.2.4-.49.75-.84,1.28-.47-.93-.84-1.63-1.19-2.34-1.15-2.34-2.28-4.68-3.44-7.01-.28-.57-.52-1.19-1.37-1.18-2.64.02-5.28,0-8.35,0,3.19,5.7,6.17,11.03,9.12,16.32-3.13,5.55-6.16,10.93-9.32,16.53h9.19Z"/>
  <path class="cls-1s-f09 first-color" d="m583.41,632.57c-6.44,0-12.89,0-19.33,0h-213.11c-6.44,0-12.89-.01-19.33,0-6.41.02-12.82-.08-19.18.06v6.54h316.3c.43-3.1.29-530.49-.13-532.07h-6.36v525.45h-38.85Z"/>
  <path class="cls-1s-f09 second-color" d="m284.17,399.12c19.11-10.05,32.42-25.15,40.07-45.29,4.37-11.52,6.78-23.48,7.91-35.7,1.17-12.64,1.26-25.3.1-37.96-.96-10.41-2.88-20.62-6.21-30.55-7.19-21.45-20.83-37.28-41.13-47.37-11.56-5.75-23.78-9.41-36.45-11.69-11.28-2.04-22.67-3.01-34.11-3.27-8.25-.19-16.51-.14-24.76-.14-27.16-.01-54.31,0-81.47,0-.84,0-1.68.05-2.62.08-.04,2.24-.15,4.22.08,6.33h21.58c0,1.02,0,1.73,0,2.44-.04,71.47-.08,142.94-.12,214.41,0,.05-.08.11-.13.16-.05.05-.11.1-.29.27h-7.03c-2.32,0-4.63-.01-6.95,0-2.35.02-4.72-.08-7.07.07v6.16h2.64c30.34,0,60.68,0,91.03,0,15.82,0,31.52-1.25,47.03-4.51,13.23-2.78,25.91-7.11,37.92-13.42Zm-66.57,10.47c-4.93.9-9.9,1.24-14.91,1.24-3.69,0-7.38,0-10.9,0-.22-.17-.28-.21-.33-.26-.05-.05-.1-.12-.11-.18-.05-.21-.12-.42-.12-.63-.01-71.61-.02-143.23-.02-214.84,0-.35.05-.71.1-1.33,4.53,0,8.87-.11,13.2.02,7.9.24,15.71,1.23,23.36,3.36,10.92,3.04,18.97,9.57,24.44,19.44,4.22,7.61,6.79,15.8,8.63,24.24,2.35,10.78,3.48,21.7,3.99,32.71.72,15.56.55,31.13.24,46.69-.27,13.4-1.42,26.74-4.18,39.89-1.7,8.09-4.01,15.99-7.74,23.42-7.44,14.79-19.5,23.28-35.64,26.23Z"/>
  <path class="cls-1s-f09 second-color" d="m250.36,626.69c-1.97.04-3.89.32-5.64,1.31-1.61.91-2.61,2.24-2.92,4.08-.42,2.57.2,4.78,2.4,6.31,2.38,1.65,4.95,1.91,7.6.64.56-.27,1.07-.65,1.28-.78.82.46,1.38,1.01,1.97,1.06,1.72.12,3.46.04,5.06.04-.16-2.93-.35-5.58-.45-8.23-.07-1.88.01-3.76-.02-5.65-.06-3.24-1.67-5.56-4.74-6.51-2.99-.92-6.04-.93-8.88.49-1.12.56-2.1,1.51-2.95,2.45-.72.79-1.05,1.85-.66,3.14h5.93c.99-2.01,1.82-2.52,3.22-2.12,1.32.37,1.75,1.46,1.34,3.75-.82,0-1.67-.01-2.53,0Zm2.81,3.49c0,1.04-.04,1.69,0,2.33.1,1.22-.6,1.87-1.59,2.31-1.35.6-2.73.22-3.21-.84-.61-1.34.12-3.1,1.6-3.5.94-.26,1.96-.19,3.2-.29Z"/>
  <path class="cls-1s-f09 first-color" d="m61.3,73.32c-.14.26-.26.38-.26.5-.05,3.26-.11,6.51-.11,9.77.04,168.87.09,337.74.14,506.6,0,.06.04.14.08.19.04.06.11.09.29.24,1.93.08,3.98.15,6.19-.04v-90.15c.78.83,1.27,1.32,1.73,1.84,8.54,9.6,17.75,18.49,27.8,26.5,37.86,30.18,80.99,46.83,129.27,50.14,13.69.94,27.36.41,40.96-1.32,17-2.17,33.56-6.2,49.65-12.1,33.28-12.2,62.48-30.79,87.28-56.15,15.18-15.53,27.78-32.97,38-52.12.65-1.21,1.36-1.93,2.86-2.23,18.25-3.68,35.35-10.4,51.41-19.79,10.16-5.95,19.54-12.96,28.18-20.95,1.07-.99,2.21-1.57,3.63-1.69,1.08-.1,2.15-.33,3.23-.39,13.27-.71,24.64,3.59,33.84,13.2,2.69,2.81,5.03,5.99,7.27,9.18,3.42,4.87,6.07,10.19,8.51,15.6,1.17,2.59,2.96,3.16,5.18,1.53,8-5.86,12.59-13.69,12.93-23.69.13-3.82-.26-7.66-.56-11.49-.38-4.9.41-9.52,2.81-13.83,1.09-1.96,2.21-3.9,3.35-5.84,5.95-10.09,8.19-20.95,6.59-32.54-1.29-9.38-5.48-17.14-13.24-22.81-3.52-2.57-7.23-4.83-11.28-6.45-14.81-5.91-29.65-6.71-44.45.07-1.67.77-3.31.78-5.07.34-9.06-2.27-17.21-.22-24.49,5.44-1.58,1.23-2.96,2.77-4.24,4.33-1.82,2.23-1.74,4.04.01,6.28.31.4.65.78.97,1.17,4.17,5.12,7.91,10.53,10.84,16.47,5.91,11.98,7.08,24.31,2.87,37.07-.4,1.21-1.02,2.17-1.96,3.04-20.36,18.8-43.98,31.57-70.81,38.43-1.17.3-2.36.51-3.54.76-.08-.3-.18-.46-.13-.56.24-.6.51-1.2.79-1.79,3.77-8.15,7.05-16.49,9.8-25.04,7.1-22.09,10.75-44.7,10.11-67.95-.05-1.72.03-3.48.29-5.18,1.26-8.52,4.09-16.55,7.77-24.3,5.9-12.43,13.67-23.68,21.96-34.59,5.93-7.8,12.43-15.09,19.99-21.37,8.85-7.36,18.63-13,29.95-15.59,3.37-.77,6.85-1.1,10.28-1.6,5.72-.84,8.44-4.47,7.72-10.2-.61-4.87-2.1-9.45-4.36-13.79-4.89-9.38-12.17-16.49-21.12-21.94-9.04-5.5-18.4-10.36-28.57-13.52-4.11-1.28-7.79-3.35-11.22-6.01-3.14-2.43-6.46-4.68-9.9-6.66-15.44-8.86-31.99-12.91-49.81-10.87-16.73,1.92-30.54,9.48-41.44,22.23-8.63,10.09-13.73,21.7-14.28,35.12-.08,2.02-.03,4.05.01,6.08.07,3.39-1.13,6.2-3.61,8.51-1.48,1.38-2.95,2.78-4.34,4.26-8.76,9.28-12.79,20.34-12.16,33.05.33,6.74,3.85,10.63,10.45,12.01.99.21,1.99.37,3,.47,3.02.32,6.06.5,9.07.92,14.9,2.04,28.77,6.99,41.58,14.87,8.38,5.15,15.97,11.25,22.4,18.74,3.82,4.46,6.47,9.54,8.26,15.13,1.95,6.1,2.2,12.36,2.26,18.66.15,15.65-1.86,31.06-5.56,46.23-8.34,34.23-24.24,64.61-47.08,91.39-.36.42-.61.92-1.02,1.57-.25-.59-.32-.67-.3-.72.31-.89.64-1.77.95-2.65,2.04-5.67,2.92-11.49,2.18-17.5-.19-1.58-1.05-3.24-.73-4.66.34-1.5,1.76-2.75,2.67-4.14,12.3-18.86,15.18-39.23,9.69-60.9-1.49-5.88-3.88-11.36-7.71-16.13-3.54-4.4-7.87-7.44-13.66-7.98-.65-.06-1.28-.21-1.93-.29-3.21-.39-6.16-1.29-8.83-3.28-3.27-2.44-7-4.07-10.93-5.17-7.49-2.08-14.78-1.88-21.57,2.32-7.25,4.49-11.35,11.3-13.16,19.41-.92,4.13-1.03,8.46-1.35,12.71-.36,4.71-1.6,8.9-5.45,12.08-1.53,1.27-2.82,2.93-3.89,4.63-4.14,6.57-4.43,13.62-2.21,20.88,1.15,3.77,2.48,4.42,6.3,3.28.21-.06.41-.13.62-.19,11.42-3.24,22.94-3.89,34.54-1.09,10.36,2.5,19.23,7.5,25.96,15.94,5.84,7.32,7.52,15.58,4.99,24.51-2.86,10.1-7.94,19.05-14.97,26.89-5.07,5.65-11.09,10.17-17.14,14.64-11.32,8.37-23.36,15.57-36.05,21.67-27.94,13.43-57.37,21.08-88.38,22.3-18.53.73-36.88-.95-54.98-5.02-49.04-11.02-89.85-35.73-122.54-73.87-.8-.93-1.44-2.01-2.15-3.02-.17.18-.34.37-.51.55V79.84h309.81c0-1.27,0-2.26,0-3.26,0-1.06,0-2.12,0-3.26H61.3Zm525.92,369.85c-.51.58-1.1,1.08-1.79,1.75-.45-.84-.8-1.46-1.11-2.09-3.46-6.96-7.48-13.55-12.58-19.45-5.66-6.54-12.49-11.37-20.65-14.29-.34-.12-.67-.28-.99-.43-.05-.02-.07-.11-.39-.68,4,.55,7.67.91,11.29,1.56,10.87,1.96,21.02,5.81,30.29,11.89,1.55,1.01,2.17,2.12,2.25,4.01.29,6.8-1.88,12.65-6.31,17.73Zm11.8-47.76c-1.43,3.31-3.9,4.78-7.29,5.61-6.22,1.52-12.44,2.65-18.87,2.41-.76-.03-1.81-.3-1.89.83-.08,1.12.99,1.04,1.75,1.09,6.35.34,12.55-.54,18.67-2.18,1.16-.31,2.32-.62,3.92-1.06-2.18,4.84-2.67,9.6-2.34,14.82-2.53-1.25-4.78-2.44-7.11-3.48-2.37-1.06-4.78-2.06-7.24-2.92-2.45-.86-4.96-1.59-7.48-2.24-2.52-.64-5.07-1.18-7.64-1.62-2.57-.43-5.16-.75-7.75-.98-2.59-.23-5.2-.35-7.8-.42-2.59-.07-5.19-.02-7.83-.09,21.58-2.93,42.33-8.93,62.36-17.46.14.15.29.3.43.45-1.32,2.4-2.83,4.71-3.91,7.21Zm6.95-26.85c-.01.53-.56,1.15-1,1.57-5.92,5.63-12.52,10.26-20.14,13.33-.53.21-1.13.38-1.55.73-.24.2-.31.78-.22,1.13.06.22.58.5.85.46.63-.09,1.25-.33,1.85-.56,6.88-2.71,12.91-6.76,18.46-11.6.47-.41.96-.8,1.76-1.48,0,1.06.1,1.77-.02,2.43-.51,2.91-1.11,5.81-1.61,8.73-.17.99-.74,1.46-1.6,1.84-17.42,7.64-35.42,13.34-54.21,16.44-.06.01-.14-.04-.56-.2,10.62-5.5,20.39-11.88,29.68-19,9.25-7.09,17.95-14.81,26.58-23.12,1.22,3.18,1.81,6.19,1.74,9.29Zm-12.92-23.53c-.17.53-.27,1.01-.48,1.44-3.53,7.38-8.03,14.06-14.09,19.62-.37.34-.82.66-1.03,1.09-.15.31-.11.92.1,1.15.21.22.84.29,1.14.14.56-.3,1.03-.78,1.51-1.22,5.74-5.34,10.12-11.68,13.61-18.66.32-.64.65-1.29,1.11-2.21,3.24,2.43,5.8,5.1,7.59,8.73-18.12,17.79-37.31,34.12-60.54,45.13,18.73-16.62,31.56-37.4,42.44-59.84,3.08,1.2,5.89,2.72,8.64,4.63Zm-28.48-8.75c.47,2.27.22,4.42.01,6.54-.7,7.39-2.36,14.55-5.6,21.28-.13.26-.27.51-.36.79-.19.61-.17,1.27.53,1.42.35.08.91-.27,1.19-.59.37-.42.57-1,.81-1.53,2.87-6.23,4.55-12.79,5.25-19.6.27-2.65.41-5.3.62-8.12,4.21-.08,8.18.86,12.12,1.97-1.16,8.36-25.22,45.34-33.85,51.77,8.18-16.94,9.82-34.4,7.52-52.52,3.92-1.1,7.75-1.41,11.76-1.41Zm-31.31,4.27c.72.06,1.45.19,2.12.42,3.63,1.25,7.11.93,10.47-.89.25-.14.54-.2.82-.29.06-.02.13.02.45.08,1.43,9.99,1.24,20.01-.48,30.04-1.98,11.51-7.04,22.95-12.28,29.04.91-3.31,1.88-6.33,2.57-9.41,1.8-8.07,1.71-16.22.58-24.37-1.1-7.99-3.33-15.67-6.34-23.14-.16-.39-.29-.8-.54-1.51,1,0,1.82-.06,2.62.02Zm-19.42,7.75c2.88-3.33,6.34-5.49,10.4-6.75,5.48,7.19,9.78,32.33,7.57,44.69-1.74-14.62-8.83-26.66-17.96-37.94Zm38.8-124.69c-1.91,2.82-4.19,5.22-6.52,7.57-3.65,3.65-7.67,6.83-12.16,9.4-.71.41-1.89.75-1.24,1.85.63,1.07,1.55.25,2.25-.15,6.51-3.67,12-8.56,16.82-14.22.65-.76,1.29-1.52,2.11-2.5,3.17,4.87,5.19,9.78,5.96,15.17.4,2.79-.12,3.48-2.93,3.94-3,.49-6.04.7-9.01,1.31-11.63,2.41-21.89,7.76-31.23,14.97-7.83,6.06-14.57,13.22-20.78,20.9-.36.45-.73.89-1.11,1.33-.07.07-.21.08-.67.25,12.95-25.81,29.4-48.67,49.98-68.71,3.31,2.61,6.05,5.53,8.54,8.89Zm-30.33-21.98c-.56,2.71-1.01,5.41-1.68,8.05-1.55,6.13-3.87,11.96-7.27,17.33-.4.63-1.21,1.39-.23,2.04,1.08.71,1.53-.36,1.97-1.06,4.11-6.5,6.69-13.6,8.26-21.09.28-1.33.51-2.68.76-4.01,2.38.38,12.89,6.21,16.27,9.05-22.1,21.33-39.68,45.94-53.33,73.43,9.64-29.02,16.46-58.69,21.75-88.96,4.69,1.48,9.15,2.83,13.51,5.23Zm-45.55-23.41c3.02,1.39,6.02,2.83,9.04,4.2,1.08.49,1.65,1.26,1.9,2.41,1.81,8.27,2.57,16.57,1.1,24.98-.14.79-.63,1.94.61,2.17,1.21.22,1.21-.96,1.36-1.79,1.41-7.88.91-15.71-.62-23.51-.09-.48-.13-.97-.26-1.95,4.69,3.31,9.04,6.37,13.61,9.6-3.7,22.19-8.43,44.36-14.56,66.23-3.73,13.33-7.94,26.52-13.14,39.38,6.06-40.75,5.76-81.44-.92-122.31.82.24,1.37.34,1.87.57Zm-37.59-4.59c2.07-.32,4.17-.42,6.25-.69,1.05-.13,1.75.16,2.36,1.07,4.97,7.31,8.78,15.13,10.52,23.86.11.57.18,1.17.44,1.67.16.3.69.61.99.56.29-.05.71-.56.71-.87.01-.79-.13-1.58-.29-2.36-1.68-7.88-4.92-15.1-9.28-21.84-.38-.59-.73-1.2-1.34-2.19,4.89.07,9.27.52,13.6,1.39,1.69.34,3.36.84,5.03,1.27.37,1.67.86,3.33,1.09,5.03,1.16,8.74,2.39,17.48,3.34,26.25,1.55,14.34,1.95,28.74,1.66,43.15-.25,12.02-.97,24-2.47,35.94-.71,5.66-1.48,11.31-2.59,16.98-.06-.34-.15-.67-.16-1.01-.44-9.03-.6-18.09-1.35-27.1-1.83-22.23-5.91-44-14.69-64.67-5.22-12.29-12.04-23.56-21.25-33.32-.28-.3-.51-.66-.88-1.14,2.8-1.05,5.55-1.55,8.31-1.97Zm-48.17,49.84c.55.11,1.04.12,1.46.3,5.23,2.23,10.04,5.13,14.17,9.08.37.35.7.78,1.13.99.32.15.93.13,1.15-.08.23-.21.3-.84.15-1.14-.25-.49-.71-.9-1.13-1.29-4.23-4.05-9.16-7.03-14.51-9.36-.66-.29-1.31-.57-2.13-.93.51-4.95,1.89-9.6,4.08-14.39,14.2,10.96,26.22,23.71,36.37,38.26,10.15,14.56,17.96,30.27,23.11,47.32-8.04-11.93-17.91-22.11-29.06-31.09-11.14-8.97-23.22-16.48-36.26-22.94,2.13-4.82.97-9.76,1.47-14.73Zm61.23,92.1c-3.57-3.04-7.02-6.25-10.74-9.1-15.28-11.73-32.5-18.99-51.53-21.92-4.07-.63-8.19-.92-12.28-1.36-.29-.03-.58-.06-.86-.11-4.21-.84-5.79-2.67-6-6.96-.23-4.68.15-8.2,1.28-11.32,1.7.43,3.44.84,5.16,1.31,16.22,4.42,31.59,10.77,45.71,19.98,9.9,6.46,18.69,14.12,25.7,23.71,1.35,1.84,2.56,3.78,3.84,5.68-.09.03-.19.06-.28.09Zm6.05-1.95c-.21-.28-.45-.55-.63-.85-7.01-11.18-16.39-20-27.24-27.34-14.78-10-31.02-16.74-48.17-21.42-1.53-.42-3.07-.82-4.62-1.2-1.47-.36-2.95-.69-4.73-1.11,1.11-3.49,2.74-6.53,4.74-9.38.4,0,.7-.06.97,0,6.3,1.59,12.21,4.05,17.46,7.95.41.3.78.72,1.24.86.4.12.9-.08,1.35-.13-.07-.46-.02-1.01-.26-1.36-.31-.46-.85-.78-1.31-1.12-4.71-3.48-9.97-5.84-15.56-7.51-.69-.21-1.39-.4-2.34-.67,2.18-3.18,5.27-5.26,7.66-8.11.48.19.89.32,1.26.51,16.17,8.36,31.12,18.46,44.16,31.23,10.55,10.33,19.32,21.93,24.89,35.73.5,1.25.92,2.53,1.38,3.8-.08.04-.17.08-.25.11Zm-60.47-111.71c2.68-4.68,5.97-8.83,9.93-12.62.61.38,1.18.68,1.69,1.05,7.08,5.06,13.22,11.03,17.8,18.49.15.25.3.49.46.74.37.6.98.78,1.46.36.27-.23.35-.94.21-1.33-.24-.67-.69-1.26-1.08-1.87-4.47-6.99-10.28-12.68-16.96-17.54-.47-.34-.94-.67-1.41-1.02-.11-.08-.17-.23-.64-.73.43-.25.92-.43,1.29-.75,3.96-3.32,8.26-6.11,12.94-8.3,1.64-.77,1.66-.76,2.93.6,7.39,7.88,13.24,16.81,17.97,26.5,6.39,13.09,10.54,26.91,13.4,41.15,2.69,13.43,4.25,27.01,4.85,40.69.13,2.89.26,5.78.38,8.68,0,.21-.05.43-.07.64-11.38-38.65-33.08-70.14-65.15-94.73Zm9.89,188.98c3.2,2.85,5.45,6.33,7.14,10.22,2.36,5.42,3.52,11.14,4.2,16.97.97,8.34.5,16.59-1.63,24.73-.17.66-.4,1.31-.61,1.97-.66-10.08-2.32-19.87-5.29-29.44-2.96-9.53-7.07-18.57-12.08-27.49,3.29.25,5.99,1,8.27,3.03Zm-54.71-.68c.6.17,1.14.29,1.66.49,5.18,2,9.91,4.74,14.05,8.46.27.24.53.49.82.71.53.42,1.16.48,1.5-.11.18-.32.07-1.02-.18-1.32-.6-.71-1.34-1.32-2.07-1.91-3.77-3.1-7.97-5.5-12.45-7.41-.66-.28-1.32-.57-2.23-.97,1.69-2.95,3.8-5.3,6.55-7.09.8-.53,1.41-.02,1.96.41,2.4,1.87,4.84,3.68,7.12,5.69,11.04,9.71,20.21,20.89,26.63,34.2.59,1.22,1.15,2.46,1.73,3.69-13.82-12.53-30.18-19.87-47.94-24.87.04-3.58,1.1-6.79,2.86-9.97Zm-15.51,52.42c-.52-2.41-1.17-4.67-.84-7.33,10.18-1.67,20.26-1.46,30.3.81,8.59,1.93,18.6,6.73,22.34,10.77-16.64-8.4-33.94-8.81-51.8-4.25Zm62.96,6.88c-.22-.18-.45-.35-.64-.55-8.4-8.77-18.84-13.75-30.53-16.29-9.56-2.07-19.21-2.33-28.91-1.04-.91.12-1.84.19-2.93.3.52-2.38,1.6-4.21,2.9-5.95,2.13-2.85,4.62-4,8.47-3.57,11.32,1.26,22.24,3.66,32.42,8.9,7.18,3.7,13.38,8.58,17.92,15.38.56.84,1.06,1.72,1.58,2.58-.09.08-.18.16-.27.23Zm.49-9.58c-6.84-7.54-15.42-12.31-24.91-15.64-8.59-3.01-17.44-4.65-26.52-5.19-.65-.04-1.3-.08-1.95-.14-.13-.01-.26-.1-.57-.23.61-1.86,1.22-3.74,1.86-5.7,2.6-.08,5.07.5,7.53,1.03,3.54.77,6.96,1.94,10.2,3.6.72.37,1.66,1.17,2.25.05.59-1.12-.58-1.43-1.3-1.8-4.67-2.42-9.66-3.82-14.85-4.58-1.07-.16-2.15-.3-3.48-.49.18-2.05.34-3.9.51-5.9.39.03.73,0,1.03.1,13.35,4,25.83,9.73,36.79,18.48,5.3,4.23,9.91,9.1,13.41,14.94.34.58.63,1.19.62,1.97-.21-.16-.46-.29-.64-.49Zm-8.6-36.22c-5.83-7.91-12.7-14.84-20.11-21.25-1.57-1.35-3.3-2.51-5.31-4.02,1.01-.18,1.58-.28,2.15-.38,2.45-.4,4.65-.02,6.75,1.52,4.23,3.1,8.22,6.41,11.37,10.64.26.35.48.79.83.98.32.17.9.22,1.17.04.25-.17.42-.78.31-1.09-.17-.53-.52-1.05-.91-1.46-2.34-2.46-4.7-4.9-7.07-7.34-.48-.5-1.04-.92-1.48-1.5,2.27.56,4.28,1.66,6.23,2.86.98.61,1.84,1.48,2.89,1.92,2.17.9,3.28,2.67,4.39,4.56,7.39,12.59,12.68,25.98,15.37,40.35.62,3.33.99,6.72,1.12,10.19-.3-.8-.63-1.59-.89-2.4-3.84-12.09-9.27-23.39-16.81-33.63Z"/>
  <path class="cls-1s-f09 first-color" d="m157.36,501.87c4.19.42,78.08.24,79.78-.21v-7.34h-79.78v7.55Z"/>
  <path class="cls-1s-f09 first-color" d="m237.14,130.38v-3.72h-79.77v7.56h79.77v-3.84Z"/>
  <path class="cls-1s-f09 second-color" d="m407.25,66.4c.77.9,1.33,1.81,1.86,2.75,2.86,5.03,5.71,10.07,8.6,15.09.34.58.89,1.43,1.38,1.46,2.42.15,4.86.07,7.24.07.43-4.06.26-31.22-.2-32.9-2.45,0-4.94-.11-7.62.09v19.21c-.59-.31-.89-.68-1.12-1.09-1.54-2.7-3.08-5.41-4.61-8.11-1.68-2.96-3.33-5.93-5.05-8.86-.3-.5-.87-1.16-1.35-1.18-2.36-.12-4.73-.06-7.17-.06v32.79h7.8c0-3.31,0-6.48,0-9.66,0-3.19-.03-6.38.24-9.59Z"/>
  <path class="cls-1s-f09 second-color" d="m450.03,79.82c.65,1.98,1.27,3.89,1.92,5.86h8.56c-4.06-11.02-8.07-21.89-12.1-32.84h-7.51c-4.02,11.01-7.98,21.83-12,32.81h8.51c.65-2,1.27-3.9,1.9-5.84h10.72Zm-5.61-16.67c.16.01.31.02.47.03,1.03,3.34,2.06,6.67,3.16,10.23h-6.76c1.08-3.54,2.11-6.9,3.14-10.26Z"/>
  <path class="cls-1s-f09 second-color" d="m554.58,58.96v-6.01h-27.15v6.08h9.46c.07,9.05-.03,17.83.06,26.62h8.01c0-4.54-.03-8.93,0-13.33.04-4.37-.18-8.76.15-13.36h9.47Z"/>
  <path class="cls-1s-f09 second-color" d="m163.36,638.17c1.61,1.09,3.41,1.51,5.32,1.62,2.66.16,5.11-.62,7.47-1.75.36.34.6.62.89.82.28.2.62.45.93.46,2.06.04,4.12.02,6.69.02-1.59-1.86-2.84-3.32-4.12-4.81,1.73-2.77,2.62-5.65,2.32-8.91h-5.12c-.42,1.4-.27,2.91-1.36,4.23-1.34-1.57-2.56-3.02-3.77-4.44,1.28-1.14,2.48-2,3.42-3.07,2.46-2.81,2.18-6.73-.53-9.13-2.49-2.21-7.08-2.38-9.92-.37-2.75,1.95-3.74,5.63-2.35,8.93.44,1.05,1.03,2.04,1.56,3.07-.9.82-1.81,1.55-2.6,2.38-3.11,3.25-2.54,8.42,1.19,10.95Zm6.2-21.43c.89-.36,1.69-.19,2.34.53.67.74.74,2.13,0,2.96-.59.66-1.38,1.15-2.38,1.95-.49-1.2-.99-2.05-1.19-2.98-.25-1.17.3-2.09,1.23-2.47Zm-1.63,11.78c1.52,1.73,3.01,3.43,4.66,5.32-2.69,1.15-4.14,1.01-5.2-.33-1.09-1.39-.95-3.04.53-4.99Z"/>
  <path class="cls-1s-f09 second-color" d="m140.45,635.49c-1.89.24-2.89-.39-4.02-2.58h-5.78c.2,2.35,1.18,4,2.92,5.08,3.97,2.46,8.09,2.44,12.16.31,1.99-1.05,3.1-2.84,3.02-5.15-.08-2.38-1.28-4.14-3.47-5.07-1.32-.56-2.74-.86-4.12-1.29-.96-.3-1.98-.51-2.85-.98-1.03-.56-1.06-1.79-.23-2.56,1.05-.97,3.04-.78,3.83.41.27.4.42.88.62,1.3h6.17c.07-1.98-.75-3.43-2.16-4.58-3.17-2.59-9.62-2.69-12.85-.2-3.39,2.61-3.14,7.45.57,9.61,1.05.61,2.24.97,3.4,1.36,1.09.37,2.23.59,3.32.97.86.3,1.58.82,1.37,1.91-.2,1.02-1,1.34-1.91,1.46Z"/>
  <path class="cls-1s-f09 second-color" d="m97.79,626.7c-1.43.16-2.9.24-4.27.65-3.1.92-4.69,3.22-4.6,6.3.08,2.82,1.95,5.03,4.93,5.86,2.49.7,4.7.13,6.63-1.36.62.44,1.14,1.1,1.71,1.14,1.78.14,3.57.05,5.55.05-1.03-3.58-.72-6.98-.76-10.36-.02-1.3.04-2.61-.04-3.91-.15-2.49-1.22-4.54-3.53-5.58-3.87-1.73-7.75-1.62-11.39.68-1.67,1.06-2.6,2.63-2.51,4.79h6.09c1.06-1.97,2.12-2.55,3.52-1.94,1.18.51,1.53,1.71.98,3.65-.73,0-1.52-.07-2.3.01Zm2.72,3.47c0,1.01-.03,1.64,0,2.27.07,1.18-.56,1.87-1.55,2.33-1.41.66-2.84.29-3.36-.85-.58-1.27.19-3.06,1.64-3.45.94-.25,1.96-.2,3.27-.31Z"/>
  <path class="cls-1s-f09 second-color" d="m114.1,610.33c-2.1-.03-3.57,1.26-3.6,3.15-.03,1.91,1.39,3.25,3.48,3.27,2.1.03,3.56-1.26,3.59-3.15.03-1.92-1.38-3.24-3.47-3.27Z"/>
  <path class="cls-1s-f09 second-color" d="m110.94,639.26h6.21v-20.27h-6.21v20.27Z"/>
  <path class="cls-1s-f09 second-color" d="m121.83,639.2h6.06v-28.8c-2.23-.18-4.27-.18-6.28-.04-.42,5.46-.23,27.26.22,28.84Z"/>
  <path class="cls-1s-f09 second-color" d="m79.29,639.17h6.54c.46-3.85.27-25.89-.24-27.48-2.03-.06-4.08-.14-6.23.04v15.89c-.16.05-.32.11-.49.16-3.06-5.38-6.12-10.76-9.13-16.06h-6.76c.02,9.23-.07,18.37.07,27.5h6.69v-5.52c0-1.74-.05-3.48.01-5.21.06-1.72-.27-3.47.3-5.52,3.22,5.66,6.26,11,9.23,16.22Z"/>
  <path class="cls-1s-f09 second-color" d="m611.74,52.97v6.1h9.46v9.15c0,2.89,0,5.79,0,8.68,0,2.93.03,5.86.05,8.73h8v-26.64h9.69c.06-2.21.3-4.12-.14-6.02h-27.06Z"/>
  <path class="cls-1s-f09 second-color" d="m231.57,618.49c-1.51.14-2.96.89-4.26,1.3-.39-.3-.77-.85-1.18-.88-1.64-.1-3.29-.04-5.05-.04-.49,5.06-.28,26.69.27,28.29,1.95-.05,3.95.15,6.05-.14v-8.71c.43.14.64.17.82.27,4.29,2.4,8.64,1.06,10.56-3.45,1.71-4.03,1.66-8.2,0-12.25-1.29-3.15-3.82-4.72-7.22-4.4Zm1.43,13.94c-.44,1.99-2.25,2.73-4.06,1.97-.94-.4-1.55-1.01-1.53-2.13.03-1.08,0-2.17,0-3.25h0c0-.94-.02-1.88,0-2.82.04-1.57.47-2.17,1.8-2.54,1.48-.41,2.75-.05,3.39,1.16.4.74.72,1.63.73,2.46.03,1.72.03,3.49-.34,5.15Z"/>
  <path class="cls-1s-f09 second-color" d="m208.68,634.55c-3.19.74-5.28-.6-6.06-3.83-.03-.11-.17-.2-.25-.28h-6.36c0,3.39,1.36,5.9,4.17,7.46,4.16,2.32,8.57,2.55,12.98.83,3.44-1.33,5-4.39,4.46-8.03-.36-2.4-1.65-4.2-3.66-5.37-1.67-.97-3.53-1.64-5.31-2.43-1.19-.52-2.43-.93-3.58-1.53-1-.52-1.76-1.35-1.48-2.62.27-1.2,1.14-1.89,2.29-2,1.05-.1,2.32-.26,3.15.21,1.02.58,1.69,1.78,2.72,2.95h5.93c-.06-3.55-1.68-5.93-4.58-7.25-4.19-1.9-8.46-1.72-12.56.4-1.72.89-2.97,2.3-3.49,4.24-.81,3.07.06,5.73,2.59,7.48,1.99,1.38,4.35,2.23,6.55,3.28,1.17.56,2.42.98,3.54,1.62,1.03.59,1.43,1.63,1.21,2.81-.23,1.23-1.15,1.8-2.27,2.06Z"/>
</svg>