<svg id="Layer_1" data-name="Layer 1" xmlns="http://www.w3.org/2000/svg" viewBox="0 0 700 700">
  <defs>
    <style>
      .cls-1s-a02 {
        fill: #231f20;
      }
    </style>
  </defs>
  <path class="cls-1s-a02 first-color" d="m499.74,490.27s0-.01,0-.02c0,.02,0,.04,0,.06,0-.01,0-.03,0-.04Z"/>
  <path class="cls-1s-a02 first-color" d="m383.79,580.56s0,0,0,0c.03,0,.06.02.09.02-.03,0-.06-.02-.09-.03Z"/>
  <path class="cls-1s-a02 first-color" d="m495.18,485.05s0-.05,0-.08c0,.02,0,.03,0,.05,0,0,0,.02,0,.03Z"/>
  <path class="cls-1s-a02 first-color" d="m498.07,501.62s0,0,0,.01c0,0,0-.01,0-.02,0,0,0,0,0,0Z"/>
  <path class="cls-1s-a02 first-color" d="m383.24,589.09s.02.02.03.03c-.01-.01-.02-.02-.04-.04,0,0,0,0,.01.01Z"/>
  <path class="cls-1s-a02 first-color" d="m393.34,590.87h0s-.04-.02-.06-.04c.02.01.04.02.06.03,0,0,0,0,0,0Z"/>
  <polygon class="cls-1s-a02 first-color" points="462.83 498.29 462.83 498.28 462.83 498.29 462.83 498.29"/>
  <path class="cls-1s-a02 first-color" d="m458.96,486.9s0,.02,0,.03c0-.01,0-.03.01-.04,0,0,0,0,0,0Z"/>
  <path class="cls-1s-a02 first-color" d="m450.32,508.85s.05-.07.07-.11c.01-.02.02-.04.03-.06-.03.06-.07.12-.1.17Z"/>
  <path class="cls-1s-a02 first-color" d="m505.17,488.44s0,.02,0,.02c0,0,0,0,0,0,0,0,0-.02,0-.03Z"/>
  <path class="cls-1s-a02 first-color" d="m544.25,486.97s-.04-.04-.07-.06c.04.04.08.08.12.11-.02-.02-.04-.03-.05-.05Z"/>
  <path class="cls-1s-a02 first-color" d="m431.23,502.74s0-.01-.01-.02c0-.01-.02-.02-.03-.03.01.01.02.03.04.04Z"/>
  <path class="cls-1s-a02 first-color" d="m393.61,498.19s.03-.04.05-.05c.02-.02.03-.03.04-.05-.03.04-.06.07-.1.11Z"/>
  <polygon class="cls-1s-a02 first-color" points="424.87 539.87 424.88 539.88 424.88 539.88 424.87 539.87 424.87 539.87"/>
  <path class="cls-1s-a02 first-color" d="m505.16,488.59s0-.03,0-.05c0,0,0,.01,0,.02,0-.08,0-.15,0-.22,0,.05,0,.09,0,.14,0,0,0,0,0-.01,0,0,0,.01,0,.02,0,.04,0,.07,0,.11Z"/>
  <path class="cls-1s-a02 first-color" d="m428.23,560.68s0-.02,0-.02c0,.03,0,.05,0,.08,0-.02,0-.04,0-.05Z"/>
  <path class="cls-1s-a02 first-color" d="m272.2,467.9s-.01,0-.02,0c.01,0,.02,0,.04.01,0,0-.01,0-.02,0Z"/>
  <path class="cls-1s-a02 first-color" d="m435.71,493.54s0,0,0,0c.01.02.03.03.04.04-.01-.01-.02-.03-.04-.04Z"/>
  <path class="cls-1s-a02 first-color" d="m333.07,582.49s0,.05,0,.07c0,.02,0,.04,0,.06,0-.04,0-.09.01-.13Z"/>
  <path class="cls-1s-a02 first-color" d="m316.06,489.23h0s-.05.02-.07.04c.02-.01.04-.02.07-.04Z"/>
  <path class="cls-1s-a02 first-color" d="m436.5,494.63s-.02-.03-.03-.05c.02.03.03.06.05.08,0-.01-.01-.02-.02-.03Z"/>
  <path class="cls-1s-a02 first-color" d="m325.24,477.63s0,0,0,0c0,.02.02.05.03.07,0-.02-.02-.05-.03-.07Z"/>
  <path class="cls-1s-a02 first-color" d="m437.39,496.11s0,0,0,0c.01.02.03.05.04.08-.01-.02-.03-.05-.04-.07Z"/>
  <path class="cls-1s-a02 first-color" d="m391.45,495.95s-.01.02-.02.04c-.04.07-.08.14-.11.21.04-.08.09-.16.13-.24Z"/>
  <polygon class="cls-1s-a02 first-color" points="405.2 490.72 405.2 490.72 405.2 490.72 405.2 490.72"/>
  <path class="cls-1s-a02 first-color" d="m300.03,487.56s-.01.02-.02.03c.01-.02.02-.03.03-.05,0,0,0,.01-.01.02Z"/>
  <path class="cls-1s-a02 first-color" d="m333.44,581.97s0,0,0,0c0,0,0,0,0,0,0,0,0,0,0,.01Z"/>
  <path class="cls-1s-a02 first-color" d="m336.49,594.2s0,0,0,.01c0,0,0-.01,0-.02h0Z"/>
  <path class="cls-1s-a02 first-color" d="m334.46,582.13s0,.04,0,.07c0-.03,0-.06,0-.08,0,0,0,.01,0,.02Z"/>
  <path class="cls-1s-a02 first-color" d="m333.44,581.95s0-.03,0-.05c0,.02,0,.04,0,.06,0,0,0,0,0-.01Z"/>
  <path class="cls-1s-a02 first-color" d="m339.29,593.63s0-.02,0-.03c0,.01,0,.02,0,.03,0,0,0,0,0,0Z"/>
  <path class="cls-1s-a02 first-color" d="m431.34,502.86s-.05-.06-.07-.08c0-.01-.02-.02-.03-.03.03.04.07.07.1.11Z"/>
  <path class="cls-1s-a02 first-color" d="m248.39,568.26s0,0,.01,0c0,0-.02,0-.02,0,0,0,0,0,.01,0Z"/>
  <path class="cls-1s-a02 first-color" d="m239.89,558.78s0,0,0,.01c-.01-.02-.02-.04-.04-.07.01.02.02.04.03.05Z"/>
  <path class="cls-1s-a02 first-color" d="m505.16,488.69s0-.06,0-.09c0,.02,0,.04,0,.06,0,.01,0,.02,0,.04Z"/>
  <path class="cls-1s-a02 second-color" d="m244.62,414.67l-9.39-14.82h-4.13v29.28h3.56v-12.51c0-4.87-.09-8.39-.3-12.08l.13-.04c1.48,3.17,3.43,6.52,5.47,9.77l9.3,14.86h3.82v-29.28h-3.56v12.25c0,4.56.09,8.12.43,12.03l-.09.04c-1.39-3-3.08-6.08-5.26-9.51Z"/>
  <path class="cls-1s-a02 first-color" d="m536.47,484.74c-4.93,2.37-8.26,6.81-12.13,10.46-8.7,6.14-18.37,10.9-28.06,15.32.96-2.6,1.89-5.25,3.47-7.55,0,0,0,.01,0,.02,2.5-4.41,5.2-9.15,5.42-14.34,0-.06,0-.13,0-.19-1.68-22.17-22.94-8.55-12.91,8.76.41.9.87,1.76,1.37,2.62,0-.02-.02-.04-.02-.05.84,1.58,1.96,3.02,2.71,4.64-.03.05-.06.1-.09.15.03-.05.06-.1.09-.15,0,0,0,0,0,0-1.48,2.52-3.04,5.06-4.12,7.77-15.79,6.11-32.27,10.35-48.82,13.87,3.82-5.98,5.76-13.28,10.23-18.82,3.81-2.16,8.56-3.19,10.79-7.43-.03.05-.07.1-.11.15,9.77-16.82-11.36-24.21-11.33-2.83-.39,2.9-.71,5.85-.61,8.76-.78.85-1.43,1.82-1.97,2.85-.06.11-.12.23-.19.34.02-.03.03-.06.05-.1-1.56,2.48-2.96,5.02-4.19,7.67,0-.01.02-.02.02-.03-.15.23-.29.47-.43.71-.05-3.38-1.29-6.5-3.21-9.25.1-.34.03-.73-.25-.97,7.49-22.46-23.37-21.99-10.97-4.39.01.02.03.03.04.05,2.56,2.98,6.73,3.8,9.94,5.88.01.03.03.06.05.09,0,0,0,0,0,0,.03.05.05.1.08.16,0-.01-.01-.02-.02-.04.3.68.79,1.24,1.12,1.9,0-.01,0-.02-.01-.03.34.79.52,1.64.71,2.47,0-.01,0-.03,0-.04,0,.03.01.07.02.1,0,0,0-.02,0-.03.01.07.03.13.04.2,0-.03-.02-.06-.02-.1,0,.05.02.09.03.14.01.06.03.13.04.19,0-.01,0-.02,0-.03.04.17.08.34.11.52-.01-.07-.03-.15-.04-.22.02.1.04.2.06.29,0-.04-.01-.08-.02-.12,1.32,5-.39,10.85-5.33,13.08,0,0,0,0,0,0,.05-.05.1-.09.15-.13-.02.02-.04.03-.06.05.03-.03.06-.05.09-.08-29.87,6.87-60.95,10.01-91.64,8.48,2.11-1.39,4.51-2.28,6.53-3.8-.04.03-.09.06-.13.09.31-.21.61-.42.92-.63-.05.03-.09.07-.13.1,5.72-3.34,11.63-6.26,16.97-10.24-.01,0-.02.01-.03.02,3.49-2.44,7.31-4.48,10.47-7.35-.03.04-.06.07-.1.11.43-.43.85-.87,1.27-1.32-.03.04-.06.07-.1.11,1.36-1.27,2.79-2.45,4.36-3.46-.01,0-.03.01-.04.02.04-.02.08-.04.12-.07,0,0-.01,0-.02.01.02-.01.04-.02.07-.04,0,0-.02.01-.02.02.56-.33,1.2-.36,1.82-.56-.05.01-.09.03-.13.04.84-.23,1.69-.4,2.56-.37-.05,0-.09,0-.14,0,32.38-2.82,13.79-36.57-1-13.63-.06.1-.11.21-.17.31,0-.01.01-.02.02-.03-1.72,3.03-2.82,6.34-3.5,9.74,0-.03.01-.05.02-.08-.01.06-.03.11-.04.17.01-.05.02-.1.04-.15-.09.35-.18.7-.26,1.05.02-.06.03-.13.04-.19-.02.09-.04.19-.07.28.02-.06.03-.13.04-.19-.26.9-.34,1.91-.95,2.65-8.09,7.94-18.51,13.37-28.18,19.21,2.99-4.2,5.08-8.92,7.52-13.36,2.54-3.02,6.93-4.54,7.79-8.78,1.25-13.36-10.3-7.57-9.61,2.24-.01.06-.02.11-.03.16,0-.01,0-.02,0-.03-.31,1.58-.39,3.19-.18,4.79,0-.05-.01-.1-.02-.16.02.35,0,.7-.09,1.04h0s-.02.08-.03.13c0-.03.01-.05.02-.08-.82,2.78-2.4,5.28-3.67,7.88,0,0,0,0,0-.01-3.26,6.32-8.55,11.61-15.78,12.84.02,0,.04,0,.06-.01-35.64,1.14-72.25-6.37-106.85-15.39,3.72-.58,7.36-1.5,11.09-2.03-.02,0-.05,0-.07,0,.12-.01.24-.03.36-.05-.05,0-.1.01-.14.02,6.45-.53,12.72-2.2,18.87-4.12,1.76.24,3.59,0,5.37.08-.01,0-.02,0-.03,0,1.57.08,3.12.14,4.68.18-.06,0-.12,0-.18-.01,1.34.06,2.66.19,4,.2.15.27.52.43.81.36,21.36,21.69,24.35-17.89.34-2.16-2.75-.96-5.73-.77-8.61-.75,6.77-1.86,12.45-6.41,19.27-8.2,1.03-.5,2.18-.32,3.28-.49-.09.02-.18.03-.28.04.37-.04.74-.03,1.11,0,14.49,3.42,36.99-9.08,32-25.83,0,0,0-.01,0-.01-.97-2.26-2.75-4.13-4.67-5.65-7.54-5.41-18.51-1.38-23.26,5.96-4.59,6.53-7.72,14.77-6.74,22.82-13.75,5.61-27.25,12.2-42.15,14.27,3.13-2.12,5.39-5.28,7.78-8.16,0,0-.01.02-.02.02.04-.04.07-.08.11-.13,0,0,0,0,0,0,1.83-2.1,3.42-4.37,5.15-6.55.4-.11.75-.49.83-.91,8.36-6.5,22.5-21.85,10.44-31.07-19.21-10.54-27.7,20.24-13.51,30.66-4.11,6.65-9.48,14.19-16.99,16.95.05,0,.1-.01.15-.02-.34.04-.67.09-1.01.14h0s-.04,0-.05,0h.05c-4.74.4-9.38,1.44-14.08,2.13-9.79-.4-19.44-5.11-28.96-7.64.06.02.12.04.18.07-.1-.04-.2-.07-.31-.11-4.69-.23-32.62-17.05-31.44-9.4,10.86,7.35,29.49,7.64,35.01,21.62,0-.03-.02-.07-.03-.11.02.09.05.18.07.27,0-.02,0-.03-.01-.05,0,0,0,0,0,0,0-.02-.01-.04-.02-.06.49,2.96,1.18,5.96,1.13,8.97,0,.29-.01.58-.01.86,0-.1,0-.2,0-.3-.01.79-.1,1.59-.31,2.36,0,0,0-.02,0-.02-.02.07-.04.14-.06.21,0-.01,0-.02,0-.03-.13.43-.28.85-.49,1.25-.61.27-1.19.57-1.87.49.01,0,.02,0,.03,0-.58.03-1.16.03-1.74-.02-11.11-1.84-21.12,14.75-9.24,20.61,11.23,3.91,17.03-8.62,15.45-18.07.55-5.32,1.89-10.65-.47-15.86,8.85,8.58,17.2,17.73,25.79,26.54,0,0,0,0,0,.01-.07-.06-.14-.12-.21-.18.07.06.14.12.21.18-4.12,14.94,6.75,30.27,22.33,21.27,6.17-5.83,2.85-15.79-3.93-19.63-5.01-2.91-11.11-3.05-16.67-4.28-.05-.04-.1-.09-.14-.13.04.04.08.07.12.11,0,0,.01.01.02.02-.13-.12-.27-.24-.4-.35.06.05.13.1.19.16-.05-.05-.11-.09-.16-.14.02.02.04.03.06.05-1.68-1.69-3.26-3.49-5.11-5.01.02.01.03.03.05.04-.33-.29-.66-.59-1-.88.04.03.08.07.12.11-.08-.07-.16-.15-.24-.22.02.02.04.03.06.05-8.14-8.52-16.55-16.78-24.26-25.71,31.13,9.14,62.7,17.62,95.06,20.94,6.52,3.89,11.92,9.24,17.64,14.18,3.33,3.12,7.94,4.94,8.8,9.84-.03-.08-.06-.16-.1-.24.08.2.16.39.23.59-.03-.08-.06-.16-.1-.24.06.14.11.28.16.42-.01-.04-.03-.07-.04-.11.93,2.52,1.52,5.16,2.74,7.58-.04-.09-.07-.18-.11-.28,1.49,3.88,3.24,7.61,4.8,11.46-9.21,5.36-8.9,24.37,3.93,23.9,12.31-2.34,8.62-19.51-1.01-22.93-.06-.68-.81-.98-.95-1.64-.1-.25-.21-.49-.31-.74-1.62-4.24-3.29-8.4-5.03-12.6.04.1.07.19.11.28-.12-.3-.24-.62-.36-.92.04.09.08.19.12.28-.92-2.4-1.84-4.79-2.89-7.14,0,.02.01.03.02.05-.03-.07-.05-.14-.07-.21,13.12,7.73,26.09,16.39,40.8,20.8-.01,0-.02,0-.04-.01,1.85.49,3.65,1.09,5.33,2.01,0,0-.01,0-.02,0,.01,0,.02,0,.03.01,3.89,8.8,9.95,22.32,21.76,19.86,3.6-.97,5.79-4.16,6.82-7.59,0,.01,0,.02-.01.03.83-12.28-15.1-14.76-24.45-13.21.09.02.18.02.27.04-1.45-.03-2.84-1.05-4.25-.86-1.66-.78-3.21-1.79-4.94-2.45.07.03.14.06.21.09-3.25-1.11-6.58-2.07-9.75-3.46.07.04.15.07.22.1-.2-.09-.4-.17-.6-.26.05.02.1.04.15.06-4.61-1.99-8.98-4.44-13.21-7.13,1.13-.27,2.28-.36,3.4-.75,7.15-.28,14.35,5.24,21.54,2.13,4.05-2.36,6.19-8.36,2.02-11.67-5.29-4.91-13.55-2.26-18.35,2.07-2.12,2.46-3.56,5.27-7.05,5.91.07-.03.14-.06.21-.09-1.15.39-2.27.89-3.48,1.06.02,0,.03,0,.05,0-.07,0-.14.02-.2.03.04,0,.08-.01.11-.02-.14.01-.28,0-.42,0-13.69-7.17-25.49-17.12-36.85-27.49,34.65,4.08,69.6,5.64,104.24.08,1.04.57,2.38.34,3.51.74-.11-.03-.22-.05-.32-.08,3.83,1.22,7.72,2.3,11.51,3.66.13.17.27.36.47.44,0,0-.01-.01-.02-.02.05.04.1.05.17.09-.05-.02-.09-.04-.14-.06.01,0,.02.02.04.03,0,0,0,0-.01-.01.05.04.1.08.15.12-.03-.02-.05-.04-.08-.06.65.59,1.02,1.42,1.41,2.19,0-.02-.01-.03-.02-.05.02.06.04.11.07.17-.01-.03-.02-.05-.03-.07.65,1.81,1,3.72,1.37,5.6-12.21,19.9,13.35,19.82,3.19,1.28-2.96-1.7-1.89-5.44-3.19-8.26,2.24,1.04,4.53,1.98,6.79,3-.05-.03-.11-.05-.16-.08.16.08.32.15.49.23-.01,0-.02,0-.03-.01.02.01.05.02.07.03.44.2.88.39,1.31.6-.04-.02-.08-.04-.12-.06.06.03.11.06.17.09-.01,0-.02-.01-.04-.02.56.29,1.11.6,1.68.87,0,0-.01,0-.02,0,.03.01.06.03.09.05-.01,0-.03-.01-.04-.02,1.02.41,1.96.96,2.84,1.62.07.41.03.84,0,1.26-1.41,8.73,7.69,18.82,16.42,14.06,7.94-5.84,1.64-15.67-6.42-17.1-12.85.87-23.05-7.19-34.89-11.11,13.66-1.28,26.97-7.07,40.58-7.09.18.04.35.08.53.12-.05,0-.09-.02-.14-.03.63.16,1.25.33,1.88.48-.06-.01-.12-.02-.17-.04,5.44,2.02,11.54,3.53,16.13,7.1-.01-.02-.02-.04-.03-.06.03.04.05.09.08.14,0,0,0-.01,0-.01.5,1.15,1.2,2.23,1.78,3.31.04.29.09.57.09.86,0-.01,0-.03,0-.04.07,1.13-.17,2.27-.14,3.4,1.42,21.03,18.6,8.04,3.03-3.24-.41-.4-.78-.85-1.2-1.23-.08-.35-.35-.65-.7-.75-.6-.63-.79-1.48-1.21-2.22,4.09,1.76,7.98,4,12.45,4.61,0,0-.02,0-.03,0,2.03.5,3.41,2.4,5,3.71,14.61,16.24,29.68-1.58,12.36-6.52-7.27-1.58-14.57,3.54-21.63.03.04.02.09.04.13.06-.07-.03-.13-.06-.2-.08.01,0,.03,0,.04.01-3.09-1.39-6.11-2.93-9.32-4.05-1.01-.45-1.86-1.19-2.84-1.71,1.13-.06,2.18-.45,3.22-.85,22.37,8.58,26.44-11.21,12.12-8.93-5.92,1.4-9.23,8.41-15.72,8.22.01,0,.02,0,.04,0-.05,0-.09,0-.14,0,.02,0,.03,0,.05,0-4.74.06-8.58-3.25-13.18-4.08.01,0,.02,0,.04.01-.08-.02-.15-.03-.23-.05.04,0,.07.01.11.02-.03,0-.06-.02-.09-.02,13.87-3.52,27.73-7.5,40.79-13.42,2.42-.29,5.01-.68,7.49-.82.08.38.44.62.82.65,23.02,30.09,36.83-13.56-3.86-1.98,6.75-3.43,13.64-6.75,19.83-11.13,32.63,7.26,28.22-20.3,12.8-13.83Zm9.05,4.51c.15.62.31,1.26.25,1.89-.38.23-.74.5-1.11.76,0,0,.02,0,.02-.01-.16.11-.31.22-.47.34.03-.03.07-.05.11-.08-4.55,2.73-10.32,2.86-15.5,3.13,5.75-1.44,11.37-3.71,16.44-6.78.08.26.18.51.26.76Zm-14.69,1.65c2.79-2.73,6.25-5.47,10.37-5.27-3.9,2.16-8.18,3.74-11.65,6.59.42-.45.81-.92,1.28-1.32Zm11.26-4.53c.37-.13.72-.26,1.1-.32.17.05.29.18.42.29-.01-.01-.03-.03-.04-.04.06.06.11.11.17.17-.01-.01-.02-.03-.04-.04.08.08.16.16.25.24-.07-.06-.14-.13-.2-.19.14.14.28.27.42.41-.01-.01-.02-.02-.04-.04.07.07.13.13.2.2-.02-.01-.03-.03-.05-.04.18.17.34.35.49.54-5.31,3.3-11.27,5.4-17.28,7.03,4.7-3.02,9.5-5.84,14.59-8.22Zm3.13,6.4s0,0,0,0c.05-.04.11-.08.16-.12-2.04,3.65-6.78,4.78-10.69,4.78.05,0,.1,0,.15,0-2.48.05-5-.16-7.39-.83-.36-.1-.74-.13-1.1-.19,6.3-.38,13.41-.06,18.88-3.64Zm-43.4-9.76c.68,1.89.91,3.89.66,5.88h0c-.14,1.43-.51,2.85-.91,4.22.04-.1.07-.22.11-.33-1.01,3.09-1.66,6.46-3.61,9.12,0-.09,0-.19.01-.28,0,.03,0,.06-.02.09,0-.04.02-.09.02-.13,0,0,0,.02,0,.03.07-.4.13-.81.18-1.22.97-3.96,2.43-7.82,2.73-11.92,0,.01,0,.03,0,.04.51-2.42.55-4.94-.07-7.34.36.58.7,1.19.91,1.84Zm-3.85-3.62h0s-.01,0-.02,0c0,0,.01,0,.02,0Zm-3.77,16.91c.03.06.04.12.07.18-1.98-4.91-3.52-11.77.83-15.81.33-.28.69-.52,1.06-.73-.49,1.26-.7,2.58-.83,3.92,0-.04,0-.1,0-.14-.05.41-.1.81-.16,1.21,0-.01,0-.02,0-.03,0,.02,0,.04,0,.07,0-.01,0-.02,0-.03-.39,4.15,0,8.35.55,12.47,0-.05-.02-.09-.02-.14.03.25.07.51.11.76,0,0,0-.02,0-.03.09.67.26,1.32.38,1.99,0-.04-.01-.09-.02-.14.02.18.05.35.07.53-.92-1.23-1.56-2.62-2.05-4.07Zm2.07-3.47s0,.01,0,.02c-.17-2.48-.31-4.97-.11-7.45,0,.02,0,.03,0,.05.02-.12.03-.24.05-.37,0,0,0,0,0,0,.08-.66.17-1.33.25-1.99,0,.04,0,.09-.01.13.12-1.29.51-2.56.96-3.77.27-.11.56-.09.83,0-.09-.03-.18-.06-.27-.08.42.14.87.21,1.28.39,1.38,2.7,1.18,5.88.67,8.78,0-.04,0-.09.01-.13-.09.6-.15,1.21-.2,1.82,0,0,0-.01,0-.02,0,.05-.01.09-.02.14,0-.02,0-.04,0-.06-.53,3.28-1.64,6.42-2.44,9.63-.09-.69-.36-1.34-.43-2.03,0,.05,0,.09.02.14-.03-.29-.08-.56-.12-.85,0,.02,0,.03.01.05-.29-1.45-.27-2.94-.49-4.4Zm-32.18-3.42c.5,2.93.22,6.24-1.26,8.85.02-.03.04-.06.06-.09-.05.08-.1.16-.15.23.03-.04.06-.09.09-.14-.22.32-.44.64-.66.96.01-.02.03-.04.04-.07-1.35,1.71-3.13,3.1-5.06,4.1,1.06-1.17,2.21-2.31,2.94-3.72,0,0,0,0,0,0,2.59-3.58,3.11-8.01,2.9-12.31.73.5.97,1.35,1.12,2.18Zm-5.63-.73c.17-.59.33-1.18.49-1.77,0,.02,0,.03-.01.05.01-.04.03-.09.04-.13,0,.01,0,.03-.01.04.02-.07.05-.13.08-.2.94-.08,1.94-.3,2.86-.06.02.43.07.85.06,1.27,0-.01,0-.02,0-.03,0,.02,0,.05,0,.07,0-.01,0-.02,0-.04,0,.03,0,.07,0,.1,0,0,0,0,0-.01.44,5.65-1.82,11.04-5.9,14.92.01-.01.02-.03.04-.04-.01.01-.03.03-.04.05,0,0,0-.01.01-.02-.03.03-.06.05-.09.08.3-.83.45-1.69.6-2.55.66-3.19.59-6.5,1.34-9.66.2-.72.38-1.45.57-2.17,0,.03-.02.06-.03.09Zm-3.53,7c0-.84.12-1.69.26-2.52.15-.77.31-1.53.48-2.29,0,.01,0,.02,0,.03.33-1.46.98-2.97,2.18-3.9-.06.25-.13.49-.19.74,0-.01,0-.03,0-.04-.22.81-.43,1.63-.65,2.44,0,0,0-.01,0-.02-1.35,4.87-.47,10.37-3.12,14.87-.03,0-.06.02-.08.03.49-3.09,1.27-6.19,1.11-9.34Zm-23.4-2.93s0,.04.01.06c0-.02,0-.04-.01-.06h0Zm2.84,10.42c-3.22-1.86-5.07-6.23-3.71-9.76,1.43,4.07,3.27,8.23,6.45,11.23-.98-.37-1.86-.92-2.74-1.47Zm1.62-1.42c-2.08-2.64-3.35-5.85-4.45-9,.41-.32.92-.48,1.43-.58,1.08-.25,1.96.75,2.74,1.35,0,0,0,0,0,0,.03.03.06.06.1.09-.02-.01-.03-.03-.05-.04.28.29.51.65.72,1,0,0,0-.01-.01-.02.02.04.04.08.07.12,0,0,0,0,0-.01.28.49.58.96.87,1.44,0,0,0,0,0,0,.02.04.05.08.07.12,0-.01-.02-.02-.02-.04.47.81.81,1.69,1.05,2.59-.01-.05-.02-.1-.03-.14.43,1.45.68,2.96,1.07,4.42,0-.02,0-.04-.01-.06.27,1.01.67,2,.88,3.03-1.8-.87-3.16-2.69-4.4-4.25Zm5.34-2.64c.03,1.63-.3,3.23-.43,4.84-.13-.43-.28-.86-.4-1.3-.67-2.91-1.19-5.9-2.99-8.37,0,0,0,.01,0,.02-.49-.95-1.18-1.73-2.06-2.32,1.05.05,2.03.37,2.79,1.09,1.74,1.45,3.12,3.82,3.08,6.14,0-.03,0-.07,0-.1Zm-35.3-7.55c.16.18.31.37.45.56.88,1.96,1.2,4.21-.04,6.1,0,0,.01-.02.02-.03-.07.12-.13.23-.2.35.03-.06.06-.11.09-.17-.82,1.38-1.79,2.76-3.07,3.74.04-.03.09-.06.13-.09-.05.03-.1.07-.15.1,0,0,0,0,0,0,0,0,0,0,0,0t0,0c-3.97,2.58-8.52,4.34-13.3,3.98,5.94-4.1,12.8-7.74,16.07-14.55Zm-.94-.96s.08.07.13.11c0,0,0,0,0,0,.02.02.04.04.06.05-.96,2-2.3,3.82-3.77,5.48.03-.03.07-.06.1-.1-3.83,4.18-9.14,6.53-13.43,10.12,0,0,0,0-.01,0,2-2.44,4.04-4.85,6.1-7.24,3.11-3.15,6.02-6.72,9.62-9.25.45.29.88.59,1.31.91-.03-.02-.06-.05-.09-.08Zm-16.82,13.27c.97-2.58,1.68-5.27,3.05-7.68-.01.02-.02.04-.04.06.05-.09.11-.19.16-.29,0-.02.02-.03.03-.05,0,0,0,0,0,.01,2.14-4.09,6.59-8.07,11.43-6.78-3.41,2.56-6.22,5.92-9.22,8.96-1.99,2.23-3.84,4.57-5.81,6.81.12-.36.23-.72.4-1.06Zm-19.01-3.44c.6.75.47,1.76.76,2.63-.02-.08-.05-.16-.07-.24.7,3.68-2.76,5.87-5.11,8.01.02-.02.03-.04.05-.05-.23.23-.46.45-.68.68.05-.05.1-.11.17-.16-.19.19-.38.39-.56.59,1.37-2.95,3.47-5.52,4.71-8.54.37-.93.57-1.92.74-2.91Zm-.96-.56c-.39,3.7-2.74,6.68-4.51,9.83.51-3.39.29-8.97,4.51-9.83Zm-81.7,16.01s.09.09.14.14c.03.03.05.05.08.08-.07-.07-.14-.14-.22-.22Zm8.07,1.5c-3.57,3.05-7.83-1-10.18-3.75,3.52,1.23,7.14,2.65,10.94,2.23-.22.52-.36,1.11-.77,1.52Zm-7.91-6.67c1.92-.67,4.22-1.23,6.19-.6.61.37,1.24.73,1.82,1.16-2.79-.22-5.59-.33-8.39-.19,0,0,.02,0,.03,0-.31.02-.62.04-.93.06.43-.14.86-.28,1.29-.43Zm-.24,1.41s-.02,0-.03,0c2.99-.1,6.02-.1,8.99.31.46.73.71,1.5.37,2.34-3.96.57-7.75-.96-11.4-2.28-.14-.07-.27-.14-.41-.22.82-.08,1.65-.12,2.48-.16Zm38.56-27.6c-1.51,3.53-3.9,6.61-6.86,9.03.03-.03.06-.05.09-.08-5.65,4.33-12.98,6-20.01,5.5.03,0,.06,0,.09,0-.53-.04-1.05-.1-1.57-.16,6.41-1.78,12.51-4.52,18.22-7.9-.04.02-.08.04-.13.06.39-.2.77-.4,1.16-.61-.04.02-.08.04-.12.06,4.41-2.33,7.98-6.11,9.85-10.75.15,1.64-.3,3.26-.73,4.84Zm.16-6.91s0-.02-.01-.03c.04.11.09.21.13.32-.03-.07-.06-.15-.09-.22,0,1.62-1.3,3.21-2.01,4.69-.76,1.22-1.61,2.39-2.68,3.37-1.39,1.28-2.88,2.5-4.51,3.46,0,0,0,0,0,0-.04.02-.08.05-.12.07.01-.01.03-.02.04-.03-1.44.73-2.82,1.55-4.2,2.4.04-.02.08-.04.12-.06-1.81,1.03-3.86,1.55-5.6,2.69-2.89,1.34-5.91,2.44-8.99,3.29,2.13-2.56,4.2-5.19,6.59-7.52.4-.37.8-.75,1.2-1.14,1.75-1.67,3.43-3.4,5.18-5.07-.03.03-.07.06-.1.09.28-.26.56-.53.85-.81,0,0-.02.02-.03.03,3.6-3.37,7.4-6.53,10.75-10.18,1.38,1.34,2.69,2.86,3.48,4.63Zm-11.16-7.08c.44-.06.86.1,1.28.17,1.88.46,3.73,1.05,5.57,1.64-1.1,1.22-2.29,2.36-3.46,3.51,0,0,0,0,.01-.01-2.48,2.41-5.16,4.62-7.65,7.02.03-.03.07-.06.1-.09-1.34,1.26-2.63,2.56-3.94,3.86.02-.02.05-.04.07-.06-.65.62-1.3,1.26-1.95,1.89,0,0,.01-.01.02-.02-.02.02-.03.03-.05.05,0,0,0,0,0,0-3.01,2.69-5.43,5.96-8.06,9,1.21-3.34,2.22-6.8,3.99-9.9,0,.01-.01.02-.02.04.03-.04.05-.08.07-.12,0,.01-.01.03-.02.04,3.59-6.03,8.18-11.37,13.22-16.23-.03.03-.07.06-.1.09.3-.28.61-.56.91-.84Zm-15.97,13.61c.83-1.89,1.69-3.79,2.91-5.46-.07.09-.13.18-.21.27,2.78-3.93,6.59-7.75,11.61-8.26-7.57,7.22-14.27,15.65-17.18,25.84.11-4.22,1.69-8.35,2.87-12.39Zm-22.14-11.95c.51,3.36,1.3,7.27-.87,10.2-2.39,3.37-5.29,6.33-7.97,9.46,3.92-6.04,7.23-12.62,8.84-19.67Zm-3.88-4.36h0c.09.03.18.06.28.09-.05-.01-.1-.03-.15-.04.64.24,1.31.46,1.88.83,2.97,3.99-1.97,10.1-3.13,14.38.02-.04.04-.08.07-.12-2.08,4.3-4.69,8.31-7.43,12.21.24-2.33,1.07-4.58,1.3-6.92,0,.04-.02.09-.02.13,1.32-6.04,3.14-12.02,5.75-17.63,0,.02-.01.03-.02.05.08-.18.17-.35.25-.53-.01.04-.04.08-.06.13.41-.86.8-1.73,1.28-2.56.03,0,.06.02.1.03-.03-.01-.06-.02-.09-.03Zm-6.61.11c.59-.21,1.19-.57,1.82-.58-.03,0-.07,0-.1,0,.2,0,.4.01.59.02-.03,0-.06,0-.09,0,1.11.1,2.25-.05,3.34.2-.45.84-.84,1.7-1.25,2.56.02-.04.04-.09.06-.13-3.6,7.39-5.48,15.42-7.03,23.44-1.14-5.36-1.24-11-.13-16.37,0,.04-.02.09-.02.13.41-3.22,1.86-6.15,2.77-9.24.01,0,.02-.01.03-.02Zm-4.75,4.44c-.05.08-.1.16-.15.23,0,0,0-.01.01-.02-.03.04-.06.08-.08.13.08-.12.15-.23.22-.34Zm.37,16.49s0-.07-.01-.1c.08,1.39.14,2.77.54,4.11-.96-1.44-1.94-2.84-2.56-4.47-1.06-2.19-1.15-4.7-1.13-7.1,0,.09-.01.19-.02.28.03-.41.03-.82.05-1.23,0,.04,0,.09,0,.13.41-4.39,2.45-9.02,6.09-11.66-.95,2.91-2.19,5.73-2.51,8.79-.87,3.68-.73,7.5-.45,11.25Zm-56.46,45.18s-.04.06-.06.09c0,0,0,0,0,0,.02-.03.04-.06.06-.09Zm-15.58,12.76c.08-4.82,3.95-8.68,8.66-9.19-4.23,2.55-6.33,7.31-8.12,11.7-.39-.78-.5-1.64-.54-2.51Zm3.55,5.77c-.61-.27-1.22-.58-1.7-1.05-.24-.27-.43-.57-.63-.88,2.02-5.75,5.59-13.47,12.67-13.5-4.03,4.54-7.86,9.38-10.16,15.05,0,0,0-.01,0-.02-.06.13-.13.26-.19.4Zm3.69.57c-.91.1-1.82-.05-2.72-.22,2.11-5.08,5.31-9.58,8.93-13.69-.01.01-.02.02-.03.03.68-.76,1.31-1.57,2.02-2.3.14,0,.25-.07.34-.18-1.76,5.88-3.89,12.12-8.54,16.36Zm5.47-2.39c-1.04.99-2.29,1.77-3.69,2.12,3.51-3.72,5.48-8.63,7.04-13.42-.3,3.89-.65,8.26-3.35,11.3Zm39.61-1.5c-.06-.01-.12-.02-.19-.04,1.04.23,2.05.56,3.03.93,4.53,1.24,9.61,4.35,10.57,9.28-4.59-4.05-9.78-7.4-15.01-10.55.52.16,1.06.27,1.59.38Zm-4.23-.76c6.22,3.8,12.68,7.53,17.9,12.66.1,1.56-.67,2.89-1.45,4.18-.01.02-.03.04-.04.07-2.49-2.04-5.17-3.88-7.41-6.21.02.02.03.03.04.05-3.54-3.58-6.71-7.48-10.07-11.22.37.12.71.28,1.04.48,0,0,0,0-.01,0Zm15.87,17.79s-.04.08-.07.11c-.38.35-.86.6-1.28.9.1-.07.21-.14.31-.21-1.03.74-2.32,1.02-3.56,1.14.09,0,.17,0,.26,0-.13,0-.25,0-.38.02.03,0,.06,0,.1,0-.05,0-.1,0-.15,0-3.28-2.66-6.24-5.76-8.33-9.47,0,0,0,0,0,.01-.02-.04-.05-.08-.07-.12.01.01.02.03.03.04-1.62-2.62-2.64-5.92-3.81-8.49,0-.24-.01-.48-.02-.72,5.17,6.08,10.4,12.16,16.97,16.8Zm-17.07-13.41c2.36,5.81,5.67,11.45,10.71,15.33-4.77-.12-8.54-3.66-9.81-8.12.04.13.09.26.13.4-.94-2.45-1.41-4.99-1.02-7.6Zm96.13,44.68c-3.98-4.11-3.16-10.9-.02-15.29,0,.16-.01.33-.02.49,0-.02,0-.04,0-.06-.76,5.17-.22,10.61,1.41,15.59-.5-.14-.96-.43-1.37-.74Zm8.98-10.17c1.14,2.67,1.55,5.9-.24,8.38.08-.09.15-.19.22-.28-.08.1-.15.19-.23.29-1.05-4.96-2.62-9.83-4.51-14.53,1.81,1.83,3.74,3.73,4.76,6.13Zm-6.36-7.24c1.99,4.32,3.23,8.9,4.61,13.43,0-.02,0-.04-.01-.06,0,.04.02.09.03.13,0-.01,0-.02,0-.03.22,1.05.43,2.1.62,3.15-.62.5-1.41.78-2.08,1.22-.53-1.23-1.02-2.49-1.35-3.8,0,.01,0,.02,0,.04,0-.04-.02-.09-.03-.13,0,.02.01.05.02.07-.63-4.01-1.76-7.93-2.02-11.99,0,.01,0,.02,0,.04,0-.04,0-.09,0-.13,0,0,0,0,0,0,.03-.69-.02-1.37-.11-2.04.11.03.21.07.32.1Zm-1.61,2.39c.02-.52.05-1.05.16-1.57,0,0,0,0,0,0,.03-.12.08-.24.13-.36.04.42.09.83.09,1.25,0-.02,0-.04,0-.06,0,.04,0,.08,0,.12.53,5.57,1.44,11.3,3.45,16.54-.69.37-1.52.11-2.26.09-.52-1.51-.99-3.03-1.28-4.6-.63-3.78-.84-7.66-.29-11.44Zm47.08,6.43s.01.02.02.03c0,0,0,0,0,.01,0-.01-.02-.03-.03-.04Zm14.56,6.22c-.23.1-.45.21-.68.32-3.8-1.71-7.64-3.62-10.75-6.43.01.01.02.02.03.04-.03-.03-.06-.07-.1-.1,0,0,.02.02.03.03-2.34-2.36-4.17-5.15-6.33-7.67,5.02,3.92,10.79,6.47,16.37,9.43-.02-.01-.04-.02-.06-.04.04.02.08.05.12.07,0,0,0,0,0,0,0,0,0,0,0,0,0,0,0,0,0,0,1.19.72,2.4,1.39,3.64,2.02-.62.88-1.36,1.78-2.29,2.33Zm2.33-9.82c.29.53.53,1.1.73,1.67-4.3-2.78-9.14-4.83-13.96-6.51-.55-.15-1.09-.31-1.62-.51,5.32,0,11.33.95,14.85,5.35Zm.6,2.84c.15.09.3.2.46.3,0,.03,0,.05.01.08,0-.02,0-.03,0-.05.09,1.17-.05,2.35-.61,3.39-1.01-.49-2-1.03-2.96-1.6,0,0,0,0,0,0-6.11-3.38-12.55-6.14-18.05-10.56,7.42,1.03,14.73,4.5,21.16,8.43Zm-5.12,7.78c-.65.13-1.32-.01-1.97-.08,0,0,0,0,0,0-.06,0-.12-.02-.18-.02.03,0,.06,0,.09.01-.22-.03-.43-.06-.64-.09.02,0,.04,0,.07,0-7.45-.69-10.66-8.72-14.2-14.27,4.45,6.15,9.56,11.68,16.82,14.44Zm-27.25-32.95c-3.57.62-7.08-.04-10.55-.93,5.08-.02,10.12-.32,15.09-1.4-1.18,1.22-2.84,2.14-4.55,2.33Zm-8.21-5.39c3.05-1.66,6.44-4.56,10.11-3.33.75.36,1.53.73,2.07,1.37-4.66.81-9.28,1.74-13.82,3.08.54-.39,1.09-.75,1.64-1.12,0,0,0,0,0,0Zm-4.48,3.29c5.56-2.33,11.59-3.25,17.49-4.32.65.84,1.04,1.88.53,2.9-.07.01-.14.02-.2.04-5.88,1.21-11.86,1.71-17.86,1.44.01-.02.03-.04.05-.05Zm76.77-13.13s0,0,0,0c0,0,0,0-.01,0,0,0,0,0,.01,0Zm.74,11.84c-.26.29-.53.58-.83.82,0-3.56,0-7.16-.54-10.67,2.2,2.61,3.33,6.8,1.37,9.85Zm-1.85.98s0-.02,0-.03c0,.05,0,.09,0,.14,0-.01,0-.02,0-.03,0,.01,0,.02,0,.03-.48,0-.86-.39-1.12-.75-1.85-2.65-.06-6.01.8-8.72.18,3.12.39,6.23.33,9.36Zm20.6-.82c-.29-.14-.57-.3-.82-.5-1.12-.99-2.09-2.14-2.94-3.37-.73-1.09-1.13-2.34-1.58-3.56,0,0,0,0,0,.01-.1-.28-.17-.56-.24-.85,1.87,3.71,4.92,6.53,8.22,8.96-.94.03-1.81-.31-2.65-.7Zm4.53.84c-4.28-3.18-8.88-7.07-10.4-12.3,4.13,4.06,8.52,7.95,13.44,11.03-.77.73-2.02,1.12-3.04,1.27Zm-5.85-13.73c2.31.38,4.47,1.24,6.63,2.12-.04-.01-.09-.03-.12-.05,2.18,1.25,4.53,3.35,4.19,6.1-3.38-3.63-7.83-6.05-12.18-8.36.51-.03,1,.09,1.48.19Zm5.1,4.82c1.95,1.42,3.93,2.88,5.41,4.76-.2.73-.41,1.48-.88,2.09-.69-.44-1.43-.82-2.1-1.3-4.28-3.21-8.46-6.6-12.11-10.51,0-.1,0-.2-.02-.29,3.42,1.31,6.59,3.3,9.7,5.24Zm29.58-7.06c1.18,1.9,2.47,4.19,1.95,6.49-.45-3.37-2.61-6.12-3.94-9.15.77.81,1.35,1.75,1.99,2.67Zm-3.74-3.01s0,.09,0,.14c.02-.18.03-.36.05-.54,1.9,3.36,4.12,6.74,4.75,10.61-.33.24-.72.34-1.09.13.02,0,.04.01.06.02-1.98-.64-2.82-2.95-3.36-4.77-.47-1.76-.36-3.56-.41-5.36,0,.04,0,.09-.01.13,0-.11.02-.23.03-.36Zm23.59-2.52c.19,0,.39-.01.59-.02-.09,0-.18.01-.27.01,2.63-.04,5.77,0,7.82,1.81.27.36.49.73.7,1.13-.57-.15-1.16-.25-1.75-.34.04,0,.1.01.14.02-.25-.04-.49-.08-.74-.13.05.01.09.02.14.03-1.99-.39-3.97-.77-5.97-1.1.05,0,.1.01.14.02-2.01-.35-4.03-.62-6.05-.77,1.88-.21,3.73-.57,5.62-.66-.13,0-.25,0-.37,0Zm.21,2.36s-.09-.02-.14-.02c.91.16,1.81.3,2.71.47,0,0-.02,0-.02,0,1.39.27,2.79.53,4.19.8-.05-.01-.09-.02-.14-.03.3.05.61.11.92.16-.04,0-.09-.02-.13-.02.56.1,1.11.26,1.65.43.06.23.13.46.17.69,0-.03,0-.06-.01-.09,0,.08.02.16.04.24,0-.04-.02-.09-.02-.13.04.47.08.94-.01,1.4-3.96.06-7.93-1.01-11.51-2.67.02,0,.04.01.05.02-1.27-.65-2.51-1.31-3.78-1.94,2.03.11,4.03.41,6.04.71Zm-5.72.61s-.01,0-.02-.01c.02,0,.04.02.05.03,0,0,0,0,0,0,4.35,2.46,9.19,4.22,14.23,4.32-1.55,1.84-4.38.99-6.44.62-.64-.15-1.28-.34-1.91-.53-2.26-.72-4.19-2.23-6.02-3.68,0,0,0,0,0,0-.83-.75-1.7-1.5-2.62-2.16.91.47,1.79.99,2.72,1.42Zm-5.01-13.05c-1.16.82-2.6.93-3.98,1-1.92.08-3.86-.16-5.75-.43,3.48-.37,7.12.16,10.44-1.13-.23.2-.45.39-.71.56Zm2.33-3.4c.02.48-.18.92-.32,1.36-1.7.42-3.3,1.23-5.09,1.27.05,0,.09,0,.14-.02-2.16.15-4.33.13-6.49.3.16-.07.33-.14.49-.2-.04.02-.1.04-.14.06,3.7-1.31,7.5-2.32,11.37-3.01.01.08.03.15.04.23Zm-1.05-1.84c.26.15.44.38.61.62-4.45.89-8.95,1.67-13.11,3.54.01,0,.03,0,.04-.01-.05.02-.1.03-.15.05,0,0,.01,0,.02,0-.4.14-.8.25-1.19.39,4.32-2.21,8.51-6.69,13.79-4.58Zm21.55-7.88s.03.03.05.04c-.15-.15-.31-.29-.46-.44.01.01.02.02.03.03-.92-.89-1.76-1.88-2.56-2.89.74.39,1.52.7,2.28,1.05-.02,0-.05-.02-.08-.03,1.6.8,3.09,1.8,4.73,2.5-.01,0-.02-.01-.03-.02,2.34,1.13,4.72,2.39,7.41,2.19-3.28,3.06-8.69.27-11.36-2.42Zm2.9-5.75s-.06,0-.09,0c.1,0,.19,0,.29,0-.01,0-.02,0-.03,0,3.13.07,7.51.66,9.03,3.75-4.88-.77-9.56-2.42-14.4-3.34,1.73-.18,3.48-.3,5.21-.4Zm9.53,4.84c.21.66.2,1.34.02,2-.03.09-.06.17-.1.26-2.77.36-5.29-.68-7.7-1.92-.32-.16-.65-.3-.98-.46,0,0,.02,0,.03,0-2.2-1.19-4.37-2.36-6.64-3.4,5.17.94,10.16,2.77,15.38,3.51Zm-18.16-4.75s0,0,0,0c0,0,0,0,0,0,0,0,0,0,0,0Z"/>
  <path class="cls-1s-a02 second-color" d="m199.59,261.34c-1.95.64-3.94,1.46-5.62,2.61-5.73,3.93-11.58,7.75-16.95,12.14-15.63,12.76-29.8,27.1-44.17,41.24-12.19,11.99-24.47,23.88-36.73,35.8-1.09,1.06-2.28,2.04-3.42,3.05-.2-.15-.41-.31-.61-.46.84-1.56,1.69-3.11,2.51-4.67,9.3-17.59,18.74-35.1,27.83-52.8,3.56-6.93,6.47-14.21,9.39-21.45,1.07-2.67,1.69-5.65,1.84-8.52.24-4.68-2.47-7.34-7.1-7.41-1.93-.03-3.9.22-5.79.64-5.31,1.19-10.04,3.76-14.57,6.68-15.96,10.3-28.95,23.56-38.86,39.73-2.73,4.45-4.7,9.36-6.99,14.08-.51,1.05-1.06,2.17.31,3.77.64-1.02,1.21-1.7,1.53-2.48,7.74-18.59,20.07-33.66,35.51-46.33,5.59-4.58,11.63-8.52,18.26-11.43,1.99-.88,4.11-1.62,6.25-1.96,3.04-.48,4.57,1.22,4.24,4.33-.09.84-.27,1.71-.6,2.48-1.34,3.14-2.46,6.41-4.2,9.32-4.25,7.13-8.6,14.21-13.24,21.08-14.58,21.56-28.14,43.74-40.17,66.82-3.38,6.49-6.35,13.2-9.38,19.86-2.14,4.7-2.75,9.62-1.11,14.62.62,1.87,1.5,3.82,3.72,4.13,2.39.33,2.83-1.93,3.7-3.44,6.39-11.11,12.73-22.25,19.15-33.35.65-1.12,1.62-2.11,2.62-2.94,3.37-2.82,7.03-5.32,10.2-8.34,14.6-13.89,29.02-27.96,43.6-41.86,13.08-12.47,26.17-24.93,39.5-37.12,5.03-4.59,10.72-8.47,16.2-12.55,1.54-1.15,3.36-2,5.15-2.74,1.31-.54,3.07-1.21,4.02.29.61.96.72,2.6.38,3.74-.72,2.44-1.63,4.9-2.91,7.09-5.03,8.65-10.12,17.27-15.41,25.76-8.72,13.99-17.74,27.78-26.38,41.82-6.59,10.72-12.64,21.77-16.62,33.77-1.37,4.12-2.46,8.49-2.71,12.81-.49,8.43,4.07,13.26,12.5,13.99,10.47.9,20.31-1.94,30.05-5.27.2-.07.32-.34.68-.75-.78-1.86-1.96-1.14-3.11-.85-5.79,1.46-11.55,3.09-17.4,4.26-4.56.92-9.24,1.04-13.78-.41-3.56-1.14-4.44-2.5-3.28-6.01,1.14-3.46,2.49-6.93,4.31-10.06,6.15-10.54,12.49-20.97,18.86-31.38,8.99-14.68,18.22-29.21,27.04-43.99,5.19-8.7,9.78-17.8,12.4-27.65,1.02-3.83,1.65-7.96,1.43-11.89-.36-6.42-5.97-9.8-12.1-7.79Z"/>
  <polygon class="cls-1s-a02 second-color" points="462.06 429.14 462.06 403.07 471.01 403.07 471.01 399.86 449.33 399.86 449.33 403.07 458.24 403.07 458.24 429.14 462.06 429.14"/>
  <path class="cls-1s-a02 first-color" d="m393.78,115.71l2.03-1.46-2.24-1.12c-4.7-2.35-14.44-1.14-24.82,3.07-.06.02-.11.05-.17.07-6.27-9.06-15.3-17.66-18.68-17.66-2.19,0-10.75,8.06-17.96,17.67-.06-.03-.13-.05-.19-.08-10.38-4.21-20.12-5.42-24.82-3.07l-2.24,1.12,2.03,1.46c10.38,7.47,11.52,34.58,11.57,35.86-.04,1.45-.35,23.07,17.49,31.61l.09.05c.83.39,1.69.75,2.58,1.08l.26.09h0c3.2,1.15,6.77,1.85,10.6,2.11h0s.38.03.38.03c0,0,0,0,0,0,0,0,0,0,0,0h0c.17.01.33.02.5.03h.04s.04,0,.04,0c.15,0,.31-.01.47-.02h.04c1.65-.1,3.24-.28,4.78-.54h.06s0,0,0,0c2.17-.37,4.23-.9,6.16-1.59l.26-.09c8.76-3.23,15.02-9.94,18.12-19.42,2.21-6.76,2.07-12.6,2.04-13.33.05-1.36,1.19-28.39,11.57-35.86Zm-43.73-14.03c2,.62,9.39,6.83,15.7,15.83-5.8,2.66-11.11,6.04-15.5,9.84-4.38-3.8-9.68-7.17-15.46-9.82,7.09-9.35,13.63-14.95,15.26-15.85Zm-10.54,79.79l-.14-.05c-.74-.28-1.47-.58-2.16-.91-.04-.02-.08-.04-.13-.06-16.53-7.91-15.77-28.59-15.76-28.8v-.06s0-.06,0-.06c-.03-1.13-.91-26.21-10.67-36.39,4.56-.71,12.22.72,19.97,3.87.71.29,1.42.59,2.11.9,5.71,2.54,10.96,5.8,15.27,9.49-.36.35-.71.7-1.05,1.05-.09.09-.18.19-.27.28-.25.27-.51.53-.75.8-.12.13-.24.26-.35.4-.21.24-.42.47-.62.71-.12.15-.24.29-.37.44-.19.23-.38.46-.56.69-.12.15-.24.3-.35.45-.18.24-.36.47-.54.71-.11.15-.22.29-.32.44-.19.26-.37.52-.54.78-.09.13-.18.25-.26.38-.26.39-.51.78-.75,1.17-5.51,8.95-7.82,18.09-6.71,26.57.07.57.16,1.13.27,1.69.09.48.19.95.3,1.42.03.14.07.28.11.43.08.33.17.67.27,1,.04.15.09.3.13.45.11.35.22.71.35,1.05.04.11.07.21.11.32.16.45.33.89.52,1.33.04.1.09.2.13.3.15.34.3.68.46,1.02.07.14.13.28.2.42.15.31.31.61.47.91.07.13.13.25.2.38.23.41.47.82.71,1.22,0,0,0,0,0,.01.25.41.52.8.79,1.2.08.12.16.23.25.35.2.28.41.56.62.84.09.12.19.25.28.37.23.29.47.58.71.87.07.08.14.17.21.25.32.36.64.72.98,1.07.07.07.15.15.22.22.27.28.54.55.82.82.11.11.23.21.34.32.11.11.23.22.34.32-1.7-.34-3.32-.79-4.85-1.35Zm39.68-29.94v.06s0,.06,0,.06c0,.06.24,5.84-1.92,12.4-2.82,8.55-8.2,14.38-16.01,17.33l-.25.09c-3.08,1.14-6.56,1.82-10.33,2.05h-.07c-.1.01-.21.02-.31.02-.18-.12-.36-.23-.54-.35-.22-.14-.43-.29-.64-.44-.22-.16-.44-.32-.65-.48-.21-.15-.41-.3-.61-.46-.21-.16-.41-.33-.62-.5-.19-.16-.39-.32-.58-.48-.2-.17-.39-.35-.58-.53-.18-.17-.37-.33-.54-.5-.19-.18-.36-.36-.54-.55-.17-.17-.34-.35-.51-.53-.17-.19-.34-.38-.51-.57-.16-.18-.32-.36-.47-.55-.16-.19-.31-.39-.47-.59-.15-.19-.3-.38-.44-.57-.15-.2-.29-.4-.43-.61-.14-.2-.28-.39-.41-.59-.14-.21-.26-.42-.39-.62-.13-.2-.25-.4-.37-.61-.12-.21-.24-.43-.36-.64-.11-.21-.23-.41-.34-.63-.11-.22-.21-.44-.32-.66-.1-.21-.21-.43-.3-.64-.1-.22-.19-.45-.28-.67-.09-.22-.18-.44-.27-.66-.09-.23-.16-.46-.24-.69-.08-.22-.16-.45-.23-.67-.07-.23-.14-.47-.21-.7-.07-.23-.14-.46-.2-.69-.06-.24-.11-.48-.17-.72-.05-.23-.11-.47-.16-.7-.05-.24-.09-.49-.13-.73-.04-.24-.09-.48-.12-.72-.04-.25-.06-.49-.09-.74-.03-.24-.06-.48-.09-.73-.02-.25-.04-.5-.06-.75-.02-.25-.04-.49-.05-.74-.01-.25-.01-.51-.02-.76,0-.25-.01-.5-.01-.75,0-.26.01-.52.02-.77,0-.25.01-.5.02-.76.01-.26.04-.52.06-.78.02-.25.03-.51.06-.76.03-.26.06-.53.1-.8.03-.26.06-.51.1-.77.04-.27.09-.54.14-.81.04-.26.08-.51.13-.77.05-.27.12-.55.18-.82.06-.26.11-.51.17-.77.07-.28.14-.55.22-.83.07-.26.13-.51.2-.77.08-.28.17-.56.26-.84.08-.26.15-.51.24-.77.09-.28.2-.57.3-.85.09-.25.18-.51.27-.76.11-.29.23-.58.35-.87.1-.25.2-.5.3-.75.13-.3.27-.6.41-.91.11-.24.21-.48.32-.72.15-.32.31-.63.47-.95.11-.23.22-.45.34-.68.19-.36.39-.72.59-1.09.1-.18.19-.36.29-.54.31-.54.63-1.08.96-1.63.24-.39.49-.77.74-1.15,1.79-2.67,4.04-5.24,6.68-7.65,4.52-4.12,10.21-7.77,16.46-10.55.68-.31,1.41-.62,2.15-.92,6.44-2.61,12.81-4.04,17.4-4.04.93,0,1.79.06,2.56.18-9.76,10.18-10.64,35.25-10.67,36.39Z"/>
  <path class="cls-1s-a02 first-color" d="m23.69,365.23v64.52c0,47.5,38.65,86.15,86.15,86.15h33.85c0-.63,0-1.27,0-1.9h-33.85c-46.45,0-84.25-37.79-84.25-84.25v-64.52h-1.9Z"/>
  <path class="cls-1s-a02 first-color" d="m518.96,515.4s.02,0,.03.01c0,0,0,0,0,0,0,0-.02,0-.03-.01Z"/>
  <path class="cls-1s-a02 first-color" d="m676.31,295.38v-60.45c0-47.5-38.65-86.15-86.15-86.15h-18.41v1.9h18.41c46.45,0,84.25,37.79,84.25,84.24v60.45h1.9Z"/>
  <path class="cls-1s-a02 first-color" d="m443.18,513.48s0,0,0,0,0,0,0,0c0,0,0,0,0,.01Z"/>
  <path class="cls-1s-a02 second-color" d="m319.46,416.28l.74,12.86h3.69l-1.82-29.28h-4.82l-5.21,14.16c-1.3,3.69-2.35,6.91-3.08,9.86h-.13c-.74-3.04-1.74-6.26-2.95-9.86l-5-14.16h-4.82l-2.04,29.28h3.61l.78-12.56c.26-4.39.48-9.3.57-12.95h.09c.83,3.48,2,7.26,3.39,11.38l4.74,13.95h2.87l5.17-14.21c1.48-4.04,2.69-7.69,3.69-11.12h.13c-.04,3.65.22,8.56.43,12.64Z"/>
  <path class="cls-1s-a02 first-color" d="m590.16,514h-18.41v1.9h18.41c47.5,0,86.15-38.65,86.15-86.15v-64.52h-1.9v64.52c0,46.45-37.79,84.25-84.25,84.25Z"/>
  <polygon class="cls-1s-a02 second-color" points="413.28 403.03 413.28 399.86 397.47 399.86 397.47 429.14 413.94 429.14 413.94 425.97 401.25 425.97 401.25 415.41 412.63 415.41 412.63 412.28 401.25 412.28 401.25 403.03 413.28 403.03"/>
  <polygon class="cls-1s-a02 second-color" points="349.87 403.03 349.87 399.86 334.05 399.86 334.05 429.14 350.52 429.14 350.52 425.97 337.83 425.97 337.83 415.41 349.21 415.41 349.21 412.28 337.83 412.28 337.83 403.03 349.87 403.03"/>
  <path class="cls-1s-a02 first-color" d="m327.72,475.72s.02.04.02.05c0-.02-.01-.03-.02-.05,0,0,0,0,0,0Z"/>
  <path class="cls-1s-a02 second-color" d="m240.47,354.78c8.99-12.8,18.54-25.17,28.86-36.94,1.47-1.68,2.9-3.43,1.65-5.89-1.04-2.04-3.35-2.96-6.33-2.65-1.97.2-3.4,1.25-4.58,2.73-1.83,2.29-3.64,4.6-5.49,6.87-.47.58-1.09,1.05-1.9,1.81-.08-.95-.13-1.42-.17-1.9-.56-6.71-3.68-9.55-10.4-9.62-5.53-.05-10.22,2.19-14.54,5.31-12.47,9.02-20.89,21.08-25.95,35.5-.79,2.25-1.04,4.78-1.07,7.19-.06,5.62,3.06,8.28,8.46,6.86,3.24-.85,6.48-2.31,9.26-4.17,4.04-2.7,7.69-6,11.5-9.05.85-.68,1.7-1.38,2.55-2.07-.29,1.77-1.02,3.04-1.63,4.37-.66,1.44-1.45,2.88-1.78,4.4-.6,2.72-1.22,5.5-1.24,8.25-.02,3.35,2.55,5.62,5.92,5.7,1.19.03,2.42-.24,3.58-.57,4.68-1.3,8.71-3.89,12.38-6.93,6.2-5.15,12.2-10.52,18.29-15.81.87-.76,1.74-1.52,2.61-2.28-.05,1.39-.58,2.42-1.2,3.39-2.31,3.59-4.71,7.14-6.98,10.76-1.4,2.23-.88,3.86,1.41,5.1,2.04,1.1,3.41.66,5.38-1.45,8.43-9,16.74-18.12,25.39-26.9,8.15-8.27,16.84-15.98,26.81-22.08,1.86-1.14,3.86-2.11,5.88-2.93.87-.36,1.98-.16,3.36-.23-.35,1.39-.39,2.28-.78,2.96-1.5,2.65-2.85,5.45-4.73,7.81-4.34,5.44-8.77,10.82-13.5,15.92-5.15,5.54-10.69,10.72-16.06,16.06-2.4,2.38-2.29,4.28.37,6.34,3.09,2.39,5.97,2.16,8.65-.81,11.46-12.74,23.88-24.48,36.94-35.54,4.46-3.77,9.25-7.19,14.06-10.52,1.86-1.29,4.13-2.13,6.33-2.76,2.32-.66,3.8.71,3.69,3.14-.06,1.19-.3,2.47-.81,3.53-1.22,2.51-2.43,5.09-4.06,7.34-3.3,4.54-6.96,8.82-10.31,13.33-3.13,4.21-6.2,8.48-8.98,12.92-1.26,2.02-2.12,4.44-2.56,6.79-.95,5.03,2.21,7.98,7.25,7.16,3.84-.63,7.27-2.31,10.23-4.67,6.86-5.49,13.53-11.2,20.28-16.82.75-.63,1.51-1.26,2.27-1.88.06,1.41-.32,2.43-.59,3.48-.93,3.68-1.71,7.38-1.09,11.21.82,5,3.89,7.97,8.93,7.92,2.75-.03,5.68-.47,8.19-1.52,3.91-1.64,7.83-3.57,11.23-6.06,6.69-4.9,13.03-10.27,19.52-15.45.96-.77,1.9-1.58,2.84-2.38-.05,1.59-.53,2.69-1.03,3.77-2.12,4.56-3.71,9.29-4.51,14.27-1.19,7.37,2.58,10.65,9.56,7.83,3.79-1.54,7.43-3.75,10.68-6.25,6.18-4.77,12.04-9.96,18.03-14.98.91-.76,1.82-1.51,2.73-2.27.3,1.19.04,2.07-.12,2.97-.56,3.36-1.51,6.71-1.54,10.08-.07,6.91,4.19,10.55,11.03,10,4.11-.33,7.8-1.84,11.37-3.78,8.53-4.66,16.04-10.71,23.23-17.16,7.72-6.93,15.24-14.09,22.93-21.06,3.43-3.11,6.98-6.11,10.63-8.96,1.4-1.1,3.17-1.85,4.89-2.39,2.09-.66,3.43.33,3.41,2.49-.02,1.68-.33,3.42-.83,5.03-1.57,5.01-3.4,9.93-4.92,14.95-2.02,6.68-5.16,12.57-10.9,16.82-.88.65-1.59,1.52-2.38,2.28-3,2.87-6.01,5.73-9.01,8.61-.78.74-1.75,1.48-.21,3.06,5.64-5.26,11.24-10.47,16.78-15.63.33,3.89.31,7.45,1.02,10.85.79,3.74,3.45,5.06,7.23,4.13,1.41-.35,2.83-.83,4.08-1.54,2.43-1.39,4.96-2.73,7.08-4.53,5.49-4.66,10.77-9.56,16.14-14.35.65-.58,1.36-1.08,2.09-1.66-1.44,4.57-2.95,8.82-4.09,13.16-.54,2.08-.62,4.36-.49,6.53.17,2.83,1.99,4.33,4.82,4.5,2.79.16,5.35-.69,7.67-2.07,3.04-1.8,6.14-3.61,8.83-5.87,8.78-7.39,17.39-14.98,26.04-22.53.58-.51.96-1.26,1.54-2.03-1.86-1.32-2.66.08-3.56.88-5.66,5.03-11.19,10.22-16.97,15.1-4.84,4.09-9.92,7.92-15.01,11.71-1.44,1.07-3.21,1.81-4.94,2.34-2.86.88-4.33-.53-3.64-3.4.37-1.53.95-3.05,1.7-4.43,2.85-5.26,5.62-10.57,8.76-15.65,9.97-16.15,22-30.79,33.83-45.57,1.18-1.47,2.49-1.58,4.16-1.54,6.71.18,13.43.39,20.14.28,5.26-.09,10.44-.99,15.45-2.69,2.61-.89,4.86-2.3,6.55-4.48.37-.48.34-1.28.5-1.93-1.13-.01-1.68.24-2.03.65-2.26,2.63-5.24,4-8.49,4.74-10.61,2.42-21.32,2.07-32.04.85-.08,0-.15-.15-.37-.38.28-.45.56-.97.9-1.44.42-.6.96-1.12,1.33-1.74,1.04-1.76.86-3.29-.44-4.68-1.97-2.1-7.3-3.12-9.42.15-1.19,1.84-2.85,3.37-4.04,5.21-1.41,2.17-3.17,2.9-5.77,2.92-5.85.05-11.72.34-17.55.84-5.37.47-10.58,1.83-15.48,4.15-.66.31-1.17.93-1.77,1.42.41.45.56.77.72.77.59,0,1.24.03,1.76-.19,9.91-4.15,20.36-4.78,30.9-4.88.88,0,1.76.2,3.08.36-1.16,1.59-1.99,2.77-2.86,3.94-8.44,11.38-16.92,22.73-23.98,35.05-.42.73-.93,1.45-1.53,2.04-6.63,6.5-13.16,13.1-19.98,19.39-2.93,2.71-6.45,4.8-9.78,7.05-.98.67-2.2,1.1-3.37,1.35-1.89.39-2.9-.41-2.75-2.32.15-1.93.48-3.91,1.15-5.71,2.12-5.72,4.35-11.4,6.72-17.02.69-1.63,1.78-3.2,3.02-4.47,5.02-5.17,10.17-10.21,15.25-15.33,1.63-1.65,3.2-3.36,4.77-5.07.74-.81.65-1.52-.75-2.12-6.06,6.1-12.2,12.29-18.35,18.49-.18-.12-.36-.23-.54-.35.27-1.15.69-2.28.79-3.44.26-3.01.81-6.09.46-9.05-.52-4.41-3.74-6.68-8.23-6.58-2.92.07-5.57,1.08-7.81,2.81-3.86,2.97-7.64,6.08-11.25,9.35-8.24,7.45-16.18,15.24-24.6,22.48-5.91,5.08-12.28,9.65-18.66,14.14-2.65,1.86-5.81,3.08-8.86,4.28-1.65.65-3.58.88-5.37.83-2.8-.07-4.13-1.59-3.55-4.31.58-2.71,1.44-5.47,2.77-7.88,2.84-5.12,6.08-10.01,9.12-15.02,1.14-1.87,2.69-2.86,4.85-3.48,6.05-1.74,11.6-4.5,16.05-9.13,2-2.08,3.41-4.48,3.97-7.3.61-3.08-.87-5.28-3.91-5.98-.94-.22-1.94-.25-2.9-.25-3.15,0-5.97,1.11-8.64,2.68-8.08,4.76-14.15,11.52-19.24,19.28-.86,1.32-1.76,2.69-2.92,3.72-7.95,7.05-15.94,14.05-24,20.98-2.12,1.83-4.45,3.44-6.8,4.96-1.63,1.05-3.4,1.98-5.22,2.6-3.03,1.04-4.61-.38-3.88-3.46.39-1.64,1.06-3.27,1.89-4.75,3.26-5.86,6.44-11.79,10.01-17.47,9.37-14.93,20.57-28.51,31.53-42.27,1.64-2.06,3.27-2.71,5.87-2.55,8.65.52,17.35,1.03,25.95-.44,3.58-.61,7.15-1.57,10.57-2.81,2.43-.88,4.63-2.44,5.6-5.87-1.09.36-1.86.37-2.2.76-2.71,3.15-6.33,4.4-10.23,5.23-9.32,1.98-18.7,1.48-28.1.88-.9-.06-1.79-.28-3.05-.48,1.04-1.4,1.87-2.43,2.6-3.52.91-1.35.92-2.71-.04-4.09-1.76-2.53-7.53-3.71-9.66-.62-1.38,2.01-3.17,3.74-4.51,5.77-1.29,1.96-2.86,2.56-5.19,2.6-5.98.08-11.96.35-17.92.86-5.37.45-10.57,1.84-15.48,4.15-.65.31-1.14.94-1.71,1.42.09.23.19.46.28.7.74-.04,1.56.11,2.21-.15,10.03-4.17,20.62-4.77,31.28-4.84.75,0,1.5.26,2.46.44-.6.93-.98,1.56-1.4,2.15-6.44,9.06-13.29,17.85-19.18,27.25-4.47,7.14-9.68,13.3-16.14,18.66-6.96,5.77-13.74,11.77-21.49,16.47-2.8,1.7-5.84,3.02-8.87,4.28-1.43.6-3.08.84-4.64.9-3.47.14-5.07-1.67-4.34-5.04.46-2.12,1.14-4.3,2.21-6.17,3.29-5.71,6.82-11.28,10.26-16.9.89-1.45,2.23-2.06,3.85-2.52,5.09-1.43,9.84-3.63,13.99-6.98,2.61-2.1,4.77-4.56,5.94-7.76,1.77-4.86-.35-7.97-5.49-8.1-3.4-.08-6.49.96-9.39,2.67-6.86,4.03-12.58,9.36-16.89,15.99-3.58,5.51-7.96,10.2-12.81,14.47-6.32,5.56-12.71,11.05-19.32,16.27-2.43,1.92-5.52,3.06-8.39,4.36-1.15.52-2.6.95-3.91-.83.44-.88.82-2.04,1.52-2.95,2.1-2.69,4.24-5.36,6.53-7.89,2.53-2.81,5.3-5.41,7.87-8.19,4.25-4.6,8.05-9.52,10.37-15.41,1.5-3.81,2.27-7.72,1.19-11.81-1.42-5.38-5.12-7.63-10.5-6.23-1.4.37-2.8.93-4.05,1.66-2.74,1.59-5.59,3.1-8.03,5.09-6.91,5.62-13.64,11.47-20.44,17.22-.69.58-1.36,1.18-2.04,1.77.09-1.12.58-1.9,1.06-2.68,2-3.21,4.25-6.3,5.91-9.67,1.33-2.69,2.33-5.67,2.78-8.63.57-3.73-1.4-5.53-5.19-5.1-2.15.24-4.41.72-6.3,1.72-3.76,1.98-7.48,4.16-10.9,6.67-9.27,6.82-17.55,14.79-25.54,23.05-.62.64-1.33,1.19-1.99,1.78.61-1.73,1.56-3.11,2.58-4.45,4.95-6.52,9.91-13.03,14.86-19.54.74-.97,1.53-1.92,2.16-2.96,1.76-2.89.73-5.35-2.59-5.99-3.22-.63-5.98.05-8.01,3-4.28,6.24-8.7,12.4-13.06,18.58-.7,1-1.33,2.07-2.19,2.93-10.19,10.2-20.41,20.37-32.09,28.91-2.55,1.87-5.29,3.52-8.06,5.03-1.64.9-3.47,1.75-6.05,1.02.5-1.61.71-3.18,1.44-4.45,1.87-3.28,3.82-6.54,5.99-9.63Zm258.72-41.2c.77-.54,1.88-.61,2.92-.93.63,6.98-8.52,15.31-17.78,16.25,4.63-5.83,9.05-11.24,14.86-15.32Zm-84.76.04c.78-.55,1.88-.65,2.93-.99.82,6.86-8.1,15.08-17.72,16.34,4.63-5.87,9.02-11.26,14.79-15.35Zm-194.8,42.68c-2.96,2.09-6.31,3.64-9.59,5.24-1.09.53-2.48.43-3.79.62-.74-2.49.09-4.36,1.02-5.97,3.54-6.12,7.05-12.28,10.99-18.15,5.04-7.52,10.81-14.5,17.51-20.63,1.88-1.72,3.92-3.35,6.13-4.6,3.9-2.21,6.78-.77,7.95,3.61.91,3.39.24,6.59-1.31,9.57-1.12,2.15-2.44,4.27-4,6.12-7.5,8.88-15.36,17.43-24.91,24.18Z"/>
  <path class="cls-1s-a02 second-color" d="m425.31,429.14l3.52-6.43c1.52-2.56,2.35-4.13,3.17-5.82h.09c.91,1.69,1.87,3.3,3.39,5.78l3.74,6.47h4.39l-9.12-15.03,8.91-14.25h-4.34l-4,6.86c-1.09,1.87-1.82,3.22-2.65,4.95h-.13c-.78-1.56-1.61-3.04-2.69-4.95l-3.87-6.86h-4.39l8.6,14.47-8.95,14.82h4.34Z"/>
  <path class="cls-1s-a02 second-color" d="m279.15,419.93l3.13,9.21h4.04l-9.99-29.28h-4.56l-9.95,29.28h3.91l3.04-9.21h10.38Zm-6.73-11.43c.56-1.78,1.04-3.56,1.48-5.3h.09c.43,1.7.87,3.43,1.52,5.35l2.87,8.43h-8.82l2.87-8.47Z"/>
  <polygon class="cls-1s-a02 second-color" points="380.92 429.14 380.92 403.07 389.87 403.07 389.87 399.86 368.19 399.86 368.19 403.07 377.1 403.07 377.1 429.14 380.92 429.14"/>
  <path class="cls-1s-a02 first-color" d="m334.6,576.79s0,.01,0,.02c.01.03.03.06.04.09-.02-.04-.03-.08-.04-.11Z"/>
  <path class="cls-1s-a02 first-color" d="m200.59,508.54s.09.03.13.05c0,0,0,0,0,0-.05-.02-.09-.03-.14-.05Z"/>
  <path class="cls-1s-a02 first-color" d="m275.2,466.37s.02.02.04.03c.01,0,.02.01.04.02-.02-.02-.05-.03-.07-.05Z"/>
  <path class="cls-1s-a02 first-color" d="m675.36,330.52c-4.83,0-8.75,3.92-8.75,8.75s3.92,8.75,8.75,8.75,8.75-3.92,8.75-8.75-3.92-8.75-8.75-8.75Z"/>
  <path class="cls-1s-a02 first-color" d="m322.96,470.03s.09.07.13.1c.07.05.13.09.2.14-.11-.08-.22-.16-.33-.24Z"/>
  <path class="cls-1s-a02 first-color" d="m511.46,544.03s0,0,0,0c0,0,0,0,0,.02,0,0,0,0,0,0Z"/>
  <path class="cls-1s-a02 first-color" d="m370.74,520.98s-.04.03-.06.04c.04-.02.07-.04.11-.06-.01,0-.03.01-.04.02Z"/>
  <path class="cls-1s-a02 first-color" d="m327.76,475.8s0,0,0,0c0,0,0,0,0,.01,0,0,0,0,0-.01Z"/>
  <path class="cls-1s-a02 first-color" d="m517.37,510.23s-.09,0-.13,0c.06,0,.11,0,.17,0h-.03Z"/>
  <polygon class="cls-1s-a02 first-color" points="327.75 475.79 327.75 475.79 327.76 475.79 327.75 475.79"/>
  <path class="cls-1s-a02 first-color" d="m474.76,534.83s0,0,0,0c-.01-.02-.03-.04-.04-.06.01.02.03.04.04.06Z"/>
  <path class="cls-1s-a02 first-color" d="m434.92,543.99h0s0,0-.01,0c0,0,0,0,.01,0Z"/>
  <path class="cls-1s-a02 first-color" d="m23.69,234.93v60.45h1.9v-60.45c0-46.45,37.79-84.24,84.25-84.24h33.85v-1.9h-33.85c-47.5,0-86.15,38.65-86.15,86.15Z"/>
  <path class="cls-1s-a02 first-color" d="m476.49,542.37s0,0,0,0c0,0,0-.01,0-.02,0,0,0,.02,0,.02Z"/>
  <path class="cls-1s-a02 first-color" d="m424.96,539.95s-.05-.05-.08-.07c-.01,0-.02-.01-.04-.02.04.02.08.05.12.08Z"/>
  <path class="cls-1s-a02 first-color" d="m480.23,528.04s.04-.01.06-.02c-.03,0-.06.02-.09.03.01,0,.02,0,.03-.01Z"/>
  <path class="cls-1s-a02 first-color" d="m15.89,329.48c0,4.83,3.92,8.75,8.75,8.75s8.75-3.92,8.75-8.75-3.92-8.75-8.75-8.75-8.75,3.92-8.75,8.75Z"/>
</svg>