<svg id="Layer_1" data-name="Layer 1" xmlns="http://www.w3.org/2000/svg" viewBox="0 0 700 700">
  <defs>
    <style>
      .cls-1s-f08 {
        fill: #231f20;
      }
    </style>
  </defs>
  <polygon class="cls-1s-f08 second-color" points="496.22 545.31 482.38 563.52 471.1 545.31 463.86 545.31 478.45 568.73 463.97 587.9 465.24 587.9 479.08 569.69 490.37 587.9 497.61 588 482.92 564.37 497.5 545.31 496.22 545.31"/>
  <polygon class="cls-1s-f08 second-color" points="223.7 188.42 223.7 508.2 403.24 508.2 403.24 501.81 269.39 501.81 269.39 188.42 223.7 188.42"/>
  <path class="cls-1s-f08 second-color" d="m480.71,220.85c0-62.13-42.03-98.22-100.51-100.96h-82.23v319.78h45.69v-117.4h10.51l82.23,117.4h47.05l-83.6-119.69c48.88-10.06,80.86-43.4,80.86-99.13Zm-100.96,95.02h-36.09V126.28h36.54c5.48.46,54.82,5.93,54.82,94.57,0,33.8-11.42,93.19-55.27,95.02Z"/>
  <path class="cls-1s-f08 first-color" d="m386.85,191.01c-7.13,12.59-17.71,22.87-30.51,29.62,12.59,7.13,22.87,17.71,29.62,30.51,7.13-12.59,17.71-22.87,30.51-29.62-12.59-7.13-22.87-17.71-29.62-30.51Z"/>
  <path class="cls-1s-f08 second-color" d="m207.1,530.58h-1.3v48.72c0,1.45-.36,2.17-1.09,2.17s-1.41-.62-2.07-1.85l-27.29-49.04h-7.4v57.09h1.3v-48.72c0-1.45.36-2.17,1.09-2.17.65,0,1.34.62,2.07,1.85l27.19,49.04h7.5v-57.09Z"/>
  <path class="cls-1s-f08 second-color" d="m507.4,537.01v2.02c0,2.27-.32,3.88-.96,4.84-.64.96-1.6,1.44-2.87,1.44v1.28h2.34c.99,0,1.49.5,1.49,1.49v27.15c0,3.9.82,7.1,2.45,9.58,1.63,2.48,4.22,3.73,7.77,3.73,2.06,0,3.89-.43,5.48-1.28,1.6-.85,2.78-1.88,3.57-3.09l-4.68-4.26c-.28,1.85-.62,3.34-1.01,4.47-.39,1.14-1.19,1.7-2.4,1.7-1.49,0-2.52-.89-3.09-2.66-.57-1.77-.85-4.51-.85-8.2v-27.15c0-.99.5-1.49,1.49-1.49h4.68v-1.28h-6.17v-8.3h-7.24Z"/>
  <polygon class="cls-1s-f08 first-color" points="200.23 621.48 200.23 638.39 200.23 642.96 587.23 642.96 587.23 151.81 582.67 151.81 563.01 151.81 558.45 151.81 558.45 616.91 200.23 616.91 200.23 621.48"/>
  <path class="cls-1s-f08 second-color" d="m240.11,562.99c-2.07,1.02-4.91,2.07-8.54,3.15-3.05.94-5.44,1.81-7.18,2.61-1.74.8-3.21,1.92-4.4,3.37-1.2,1.45-1.79,3.3-1.79,5.55,0,3.12,1.38,5.67,4.13,7.67,2.75,1.99,6.2,2.99,10.33,2.99,2.1,0,4.02-.44,5.76-1.3,1.74-.87,3.26-2.1,4.57-3.7.22-.14.49-.42.82-.82.33-.4.56-.6.71-.6s.25.11.33.33c0,4.06,1.88,6.09,5.65,6.09,2.61,0,4.49-1.16,5.65-3.48l-1.09-.54c-.29.65-.73.98-1.3.98-.65,0-1.07-.29-1.25-.87-.18-.58-.27-1.49-.27-2.72v-26.43c-.07-3.62-1.56-6.51-4.46-8.65-2.9-2.14-6.71-3.21-11.42-3.21-7.32,0-12.58,2.25-15.77,6.74l4.02,4.24c1.01-1.96,1.9-3.51,2.66-4.68.76-1.16,1.9-2.26,3.43-3.32,1.52-1.05,3.37-1.58,5.55-1.58,2.9,0,5.06,1.07,6.47,3.21,1.41,2.14,2.12,4.59,2.12,7.34v3.15c-1.09,1.96-2.66,3.44-4.73,4.46Zm4.73,14.46c-.73,2.61-2.07,4.71-4.02,6.31-1.96,1.59-4.31,2.39-7.07,2.39-2.39,0-4.39-.69-5.98-2.07-1.6-1.38-2.39-3.23-2.39-5.54,0-2.18.47-3.99,1.41-5.44.94-1.45,2.1-2.59,3.48-3.42,1.38-.83,3.23-1.79,5.55-2.88,2.32-1.09,4.19-2.07,5.6-2.94,1.41-.87,2.56-1.96,3.43-3.26v16.85Z"/>
  <polygon class="cls-1s-f08 first-color" points="114.3 548.19 118.87 548.19 138.52 548.19 143.09 548.19 143.09 88.94 499.77 88.94 499.77 84.37 499.77 67.46 499.77 62.89 114.3 62.89 114.3 548.19"/>
  <path class="cls-1s-f08 second-color" d="m385.55,565.6c0-3.99-.94-7.68-2.83-11.09-1.89-3.41-4.42-6.11-7.61-8.1-3.19-1.99-6.67-2.99-10.44-2.99s-7.36,1.02-10.55,3.04c-3.19,2.03-5.71,4.75-7.56,8.16-1.85,3.41-2.77,7.14-2.77,11.2s.94,7.81,2.83,11.26c1.88,3.44,4.49,6.16,7.83,8.16,3.33,1.99,7.07,2.99,11.2,2.99s7.63-1.12,10.93-3.37c3.3-2.25,5.67-5.22,7.12-8.92l-1.96-1.09c-1.16,3.26-3.1,5.89-5.82,7.89-2.72,1.99-5.64,2.99-8.75,2.99-4.79,0-8.61-1.74-11.47-5.22-2.86-3.48-4.4-8.01-4.62-13.59h34.47v-1.3Zm-34.47,0c0-3.77.62-7.25,1.85-10.44,1.23-3.19,2.88-5.73,4.95-7.61,2.07-1.88,4.33-2.83,6.8-2.83s4.73.94,6.8,2.83c2.07,1.89,3.7,4.44,4.89,7.67,1.2,3.23,1.79,6.69,1.79,10.39h-27.08Z"/>
  <path class="cls-1s-f08 second-color" d="m333.25,587.67v-27.29c-.07-5.58-1.18-9.8-3.32-12.67-2.14-2.86-5.56-4.3-10.28-4.3-7.03,0-11.85,4.02-14.46,12.07-.29.58-.54.87-.76.87-.44,0-.73-.58-.87-1.74v.33c-1.23-7.68-5.62-11.53-13.16-11.53-7.03,0-11.85,4.02-14.46,12.07-.29.58-.54.87-.76.87-.36-.07-.54-.54-.54-1.41v-10.77h-7.29v43.5h7.29v-15.99c0-5.51.63-10.15,1.9-13.92,1.27-3.77,2.95-6.6,5.06-8.48,2.1-1.89,4.35-2.83,6.74-2.83,3.19,0,5.38,1.14,6.58,3.43,1.2,2.28,1.79,5.89,1.79,10.82v26.97h7.29v-19.68c.29-4.71,1.09-8.68,2.39-11.91,1.3-3.23,2.94-5.64,4.89-7.23,1.96-1.59,4.06-2.39,6.31-2.39,3.19,0,5.38,1.14,6.58,3.43,1.2,2.28,1.79,5.89,1.79,10.82v26.97h7.29Z"/>
  <path class="cls-1s-f08 first-color" d="m573.52,46.83c-7.51,13.27-18.68,24.11-32.16,31.23,13.27,7.51,24.11,18.68,31.23,32.16h0c7.51-13.27,18.68-24.11,32.16-31.23-13.27-7.51-24.11-18.68-31.23-32.16Z"/>
  <path class="cls-1s-f08 first-color" d="m95.25,621.01c13.27,7.51,24.11,18.68,31.23,32.16,7.51-13.27,18.68-24.11,32.16-31.23-13.27-7.51-24.11-18.67-31.23-32.16h0c-7.51,13.27-18.68,24.11-32.16,31.23Z"/>
  <path class="cls-1s-f08 second-color" d="m397.75,584.81c1.63,2.48,4.22,3.73,7.77,3.73,2.06,0,3.88-.43,5.48-1.28,1.6-.85,2.79-1.88,3.57-3.09l-4.68-4.26c-.28,1.85-.62,3.34-1.01,4.47-.39,1.14-1.19,1.7-2.39,1.7-1.49,0-2.52-.89-3.09-2.66-.57-1.77-.85-4.51-.85-8.2v-27.15c0-.99.5-1.49,1.49-1.49h4.68v-1.28h-6.17v-8.3h-7.24v2.02c0,2.27-.32,3.88-.96,4.84-.64.96-1.6,1.44-2.87,1.44v1.28h2.34c.99,0,1.49.5,1.49,1.49v27.15c0,3.9.81,7.1,2.45,9.58Z"/>
  <path class="cls-1s-f08 second-color" d="m459.82,566.29c0-3.9-.92-7.52-2.77-10.86-1.85-3.34-4.33-5.98-7.45-7.93-3.12-1.95-6.53-2.93-10.22-2.93s-7.2,1-10.33,2.98c-3.12,1.99-5.59,4.65-7.4,7.98-1.81,3.34-2.71,6.99-2.71,10.96s.92,7.65,2.77,11.02c1.85,3.37,4.4,6.03,7.66,7.98,3.26,1.95,6.92,2.93,10.97,2.93s7.47-1.1,10.7-3.3c3.23-2.2,5.55-5.11,6.97-8.73l-1.92-1.07c-1.14,3.19-3.03,5.77-5.7,7.72-2.66,1.95-5.52,2.93-8.57,2.93-4.69,0-8.43-1.7-11.23-5.11-2.8-3.41-4.31-7.84-4.52-13.31h33.75v-1.28Zm-33.75,0c0-3.69.6-7.1,1.81-10.22,1.21-3.12,2.82-5.61,4.84-7.45,2.02-1.84,4.24-2.77,6.65-2.77s4.63.92,6.65,2.77c2.02,1.85,3.62,4.35,4.79,7.51,1.17,3.16,1.76,6.55,1.76,10.17h-26.51Z"/>
</svg>