<svg id="Layer_1" data-name="Layer 1" xmlns="http://www.w3.org/2000/svg" viewBox="0 0 700 700">
  <defs>
    <style>
      .cls-1s-l08 {
        fill: #231f20;
      }
    </style>
  </defs>
  <path class="cls-1s-l08 second-color" d="m419.15,449.81v-4.64h-29.87v41.34h30.79v-4.64h-25.39v-14.14h22.88v-4.88h-22.84v-13.04h24.44Z"/>
  <path class="cls-1s-l08 second-color" d="m369.31,486.6v-36.8h13.67v-4.69h-32.85v4.89h13.8v36.6h5.38Z"/>
  <path class="cls-1s-l08 second-color" d="m344.65,449.84v-4.65h-29.98v41.32h30.8v-4.64h-25.36v-14.16h22.9v-4.91h-22.93v-12.95h24.57Z"/>
  <path class="cls-1s-l08 second-color" d="m191.64,456.21c6.01,9.01,12.2,17.9,17.91,27.08,2.09,3.37,4.49,3.94,7.95,3.11v-41.29h-4.96v31.63c-.19.07-.38.15-.57.22-.29-.4-.59-.8-.87-1.21-6.39-9.5-12.78-19-19.15-28.51-1.71-2.56-4.12-3.13-6.99-1.71v40.99h5.09v-32.52c.79,1.1,1.21,1.64,1.59,2.2Z"/>
  <path class="cls-1s-l08 second-color" d="m305.3,486.54v-41.59c-1.75,0-3.31.17-4.83-.04-2.15-.29-3,.68-3.62,2.59-2.48,7.68-5.09,15.31-7.68,22.96-1.07,3.17-2.2,6.32-3.5,10.04-3.84-11.54-7.43-22.38-11.1-33.2-.29-.86-1.02-2.15-1.66-2.22-2.36-.27-4.77-.11-7.15-.11v41.56h5.07v-33.95c.56.35.75.73.88,1.12,3.48,10.25,6.97,20.49,10.39,30.76.48,1.45,1.01,2.45,2.82,2.23,1.55-.18,3.01.36,3.73-2.01,2.08-6.81,4.56-13.5,6.88-20.24,1.38-4,2.76-7.99,4.14-11.98.22.05.43.09.65.14v33.94h4.96Z"/>
  <path class="cls-1s-l08 second-color" d="m229.37,483.65c.72-2.81,1.88-5.52,3-8.21.29-.7,1.17-1.62,1.8-1.64,5.34-.13,10.68-.07,16.08-.07,1.69,4.34,3.34,8.57,5.01,12.85h6.08c-.17-.62-.26-1.13-.45-1.59-5.19-12.63-10.47-25.22-15.53-37.9-1.05-2.62-2.91-1.97-4.77-2.18-1.95-.22-2.49.97-3.04,2.41-3.16,8.26-6.34,16.5-9.52,24.75-1.85,4.78-3.71,9.56-5.67,14.61,1.15,0,1.93-.1,2.68.02,2.48.41,3.69-.58,4.32-3.05Zm12.06-33.35c2.27,6.13,4.46,12.05,6.77,18.28h-13.28c2.18-6.12,4.31-12.09,6.51-18.28Z"/>
  <path class="cls-1s-l08 second-color" d="m432.93,482.73c3.17-4.35,6.38-8.69,9.72-13.24,3.74,5.28,7.32,10.41,11,15.47.53.73,1.46,1.5,2.29,1.63,1.67.25,3.41.08,5.69.08-3.67-5.16-7.03-9.82-10.33-14.52-1.72-2.45-4.7-4.99-4.65-7.43.05-2.49,3.11-4.93,4.87-7.37,2.89-3.99,5.8-7.97,8.8-12.09-5.46-.8-5.43-.78-8.32,3.1-2.97,4-5.99,7.95-9.11,12.09-2.88-4.06-6.03-7.85-8.43-12.06-2.19-3.83-5.15-3.84-8.95-3.16,4.74,6.73,9.38,13.31,14.01,19.88-5.3,7.14-10.51,14.16-15.82,21.31q6.01.76,9.23-3.69Z"/>
  <path class="cls-1s-l08 first-color" d="m667.96,235.6c-.79,1.7-1.11,3.6-1.72,5.39-8.38,24.58-23.01,44.79-43.25,60.87-31.2,24.78-66.76,32.91-105.79,26.68-18.28-2.92-35.91-8.47-53.58-13.86-15.11-4.61-30.36-8.76-45.57-13.05-3.51-.99-7.1-1.72-10.74-2.59.19-.68.26-1.11.42-1.5,7.01-17.02,14.01-34.05,21.04-51.06,3.38-8.18,7-16.28,8.43-25.1.94-5.79-1.92-9.76-8.23-7.57-2.49.86-4.86,2.22-7.07,3.67-10.23,6.71-18.91,15.26-27.53,23.82-15.25,15.13-29.64,31.06-43.3,47.64-1.15,1.4-2.25,2.12-4.29,2.06-10.77-.35-21.55-.44-32.33-.61-1.33-.02-2.65,0-4.37,0,6.67-11.37,13.35-22.16,22.3-31.06,1.36.45,2.14.71,2.93.97.24-.88.71-1.76.69-2.63-.07-2.5-2.02-3.61-4.4-2.03-2.9,1.93-5.88,4.12-7.94,6.86-5.63,7.5-11.01,15.21-16.04,23.12-2.18,3.43-4.03,6.28-8.65,5.41-.8-.15-1.7.22-2.55.31-12.89,1.46-25.86,2.44-38.66,4.48-18.41,2.93-36.48,7.48-54.29,13.12-35.84,11.35-69.33,27.53-100.63,48.31-19.57,12.99-37.87,27.6-54.8,43.88-6.46,6.21-12.58,12.77-18.73,19.29-.59.62-.8,2.42-.34,3.04,1.03,1.37,2.07.25,2.92-.67,2.04-2.22,4.06-4.47,6.15-6.64,26.3-27.27,55.77-50.51,88.61-69.45,43.16-24.88,89.36-41.11,138.63-48.49,8.58-1.29,17.23-2.14,25.86-3.08,3.55-.39,7.14-.47,11.07-.71-.49,1.02-.75,1.64-1.06,2.22-15.1,28.15-26.94,57.62-35.2,88.48-1.1,4.1-1.38,8.49-1.43,12.75-.02,1.78,1.08,4.22,2.48,5.22,1.89,1.34,4.31.38,6.17-1.18.53-.44,1.1-.85,1.55-1.37,2.06-2.42,4.31-4.73,6.08-7.35,9.66-14.37,18.9-29.04,28.84-43.21,12.62-17.98,25.78-35.58,38.7-53.35.89-1.22,1.75-2.16,3.57-1.93,11.43,1.42,22.88,2.64,34.3,4.1,5,.64,9.94,1.7,14.97,2.57-.13.5-.16.76-.25.99-9.59,25.16-18.36,50.56-22.76,77.25-2.13,12.9-2.94,25.83-.61,38.79.44,2.44,1.19,4.86,2.13,7.15.3.74,1.69,1.04,2.57,1.54.15-.81.55-1.66.42-2.41-.45-2.62-1.53-5.2-1.56-7.8-.08-8.34-.34-16.73.5-25,1.02-9.89,2.41-19.85,4.89-29.45,3.7-14.29,8.41-28.32,12.89-42.4,1.89-5.95,4.29-11.74,6.69-18.25,15.7,4.41,31.15,8.75,46.59,13.1,16.86,4.75,33.6,9.97,50.6,14.15,16.67,4.11,33.69,5.92,50.95,4.43,8.95-.78,17.75-2.23,26.27-4.98,30.64-9.9,55.15-28.13,73.41-54.67,7.87-11.43,13.72-23.85,17.34-37.27.23-.85-.6-1.98-.94-2.98-.8.68-1.94,1.2-2.34,2.07Zm-333,73.55c-16.33,22.93-32.52,45.97-48.84,68.91-4.39,6.17-9.05,12.14-13.64,18.17-.65.85-1.57,1.5-2.61,2.46-1.28-3.36-.44-6.31.21-9.16,5.38-23.3,14.02-45.47,23.76-67.22,4-8.94,8.65-17.6,13.12-26.33.45-.87,1.71-1.86,2.61-1.87,12.06-.12,24.12-.08,36.18-.08.09.3.17.6.26.9-3.69,4.73-7.56,9.34-11.04,14.23Zm67.71-11.46c-16.8-2.3-33.13-4.53-49.7-6.8,2.64-3.19,5.36-6.57,8.17-9.87,13.3-15.65,26.99-30.94,42.12-44.85,6.77-6.22,14.12-11.81,21.28-17.59,1.24-1,2.81-1.79,4.35-2.18,1.36-.35,3.38-.56,4.23.17.89.77,1.24,2.87.93,4.18-.86,3.67-1.91,7.34-3.38,10.8-6.72,15.93-13.63,31.78-20.42,47.68-2.66,6.23-5.17,12.53-7.6,18.46Z"/>
  <path class="cls-1s-l08 second-color" d="m483.1,486.46v-36.62h13.46v-4.75h-32.85v4.85h13.71v36.53h5.69Z"/>
</svg>