<svg id="Layer_1" data-name="Layer 1" xmlns="http://www.w3.org/2000/svg" viewBox="0 0 700 700">
  <defs>
    <style>
      .cls-1s-f06 {
        fill: #231f20;
      }
    </style>
  </defs>
  <path class="cls-1s-f06 first-color" d="m546.5,381.37c-1.91,2.08-1.11,4.79-2.73,6.81,1.81-.66,3.57-3.17,3.94-4.41.02,1.6-.79,3.02-1.63,4.36,3.6-1.36,6.12-4.69,7.29-8.36-2.28-.14-5.16-.27-6.86,1.59Z"/>
  <path class="cls-1s-f06 first-color" d="m532.53,353.22c-2.63,2.91-3.98,7-8.16,8l.63.2c3.4-.3,5.01-2.5,7.3-4.95-.92,3.39-3.16,4.51-6.05,5.66,4.1.95,8.18-.44,10.87-3.7,2.47-3,5.82-7.41,3.77-11.2-2.27,2.74-6.01,3.38-8.36,5.98Z"/>
  <path class="cls-1s-f06 first-color" d="m537.61,361.34c-1.37.62-1.99,1.95-3.39,2.58-1.55.69-3.19.58-4.89.21,2.85,2.47,6.09.17,9.23,1.19-1.5.76-3.5,1.44-4.4,2.91,1.72.88,1.94,2,2.12,3.83,2.5.48,5.24-.56,7.17-2.16,2.49-2.07,4.42-3.56,1.72-6.24-1.91-1.9-4.93-3.52-7.56-2.32Z"/>
  <path class="cls-1s-f06 first-color" d="m542.63,389.19c.48-.31.84-.65,1.13-1.02-.06.02-.12.06-.18.08l-.95.94Z"/>
  <path class="cls-1s-f06 first-color" d="m555.61,393.95c.23.14.46.25.7.35-.13-.12-.27-.24-.38-.35h-.32Z"/>
  <path class="cls-1s-f06 first-color" d="m550.55,332.61h1.89c.62-.14,2.43-.02,3.38.98-1.62-.02-3.23-.01-4.84-.04,3.17,3.28,9.28,5.72,11.87.42-1.52-.77-3.03-1.94-4.7-2.38-2.99-.78-4.7,1.04-7.6,1.02Z"/>
  <path class="cls-1s-f06 first-color" d="m552.45,388.89h-1.89c2.9-.01,4.61,1.82,7.6,1.02,1.66-.44,3.17-1.61,4.7-2.37-2.59-5.3-8.69-2.87-11.87.42,1.6-.04,3.22-.01,4.84-.04-.95.99-2.76,1.11-3.38.96Z"/>
  <path class="cls-1s-f06 first-color" d="m566.98,396.1c-2.6-3.65-6.52-3.47-10.47-3.1.81.2,2.89,1.08,3.79,2.18-1.3-.2-2.71-.33-3.99-.88,1.56,1.41,3.89,3,5.94,3.14,2.02.13,2.93-.97,4.72-1.33Z"/>
  <path class="cls-1s-f06 first-color" d="m503.91,370.71c4.45.81,5.71,5.66,10.37,5.8,5.07.14,10.23-5.66,7.68-10.85-3.21,1.37-3.83,5.57-7.25,6.67,1.99-2.97,2.09-6.83,6.47-7.62-1.45-.28-2.52-1.14-4.16-.92-1.6.23-2.84,1.51-4.32,2.28-3.03,1.56-5.95,2.78-8.79,4.63Z"/>
  <path class="cls-1s-f06 first-color" d="m527.29,529.27c-6.99-.01-10.83.94-15.19,6.08,1.65-.75,3.48-1.17,5.29-1.44-2.11,2.08-5,3.14-8.04,3.19l-4.88,2c4.78-1.94,9.97-.73,14.58-2.66,3.44-1.44,5.52-4.8,8.23-7.16Z"/>
  <path class="cls-1s-f06 first-color" d="m516.97,359.32c-1.58-6.64-8.23-11.39-15.23-10.06,3.65,2.34,4.15,5.58,6.26,9.04,2.25,3.69,6.4,5.03,10.67,4.1l1.53-1.07c-2.2-.18-4.01-.2-5.66-1.76-1.75-1.65-2.64-3.54-4.72-5.1,3.23-.65,6.02,2.81,7.16,4.85Z"/>
  <path class="cls-1s-f06 first-color" d="m507.24,479.31c2.53-6.24,10.73-13.18,11.71-18.39,1.62,11.04-9.53,17.96-10.04,28.59-.36,7.48,6.37,20.93,14.81,20.37,8.88-.58,17.03-17.56,6.12-20.91-3.79-1.17-10.79,3.07-9.76,8.34.95,4.98,7.96,2.25,3.79-1.37,4.15-8.92,14.97,6.03,2.06,9.45-9.18,2.43-13.4-7.37-11.74-15.34,1.84-8.74,10.7-13.3,13.26-21.32,2.25-7.02,2.02-15.98-2.46-21.71,5.74.71,9.25,6.55,9.88,12.2-.17-6.33.82-13.83-2.25-19.93-3.59-7.15-8.4-8.29-15.68-11.03v-41.24c.67.02,2.11-.88,3.44-1.9-.55,4.28,1.8,9.05,5.39,11.2,5.15,3.09,10.5,2.51,14.5,7.73,2.66,3.47,4.98,10.01.71,13.4-3.9,3.08-9.92-.95-7.8-5.76-1.95.63-3.04,2.27-2.51,4.2-.18.12-.27.29-.27.52-.84-1.02-1.89-4.09-1.02-6.12-7,3.87.57,15.14,6.23,16.08,8.44,1.4,11.42-9.58,10.49-16.16-.93-6.61-5.01-12.08-11.42-13.75-7.12-1.84-13.57-3.51-13.43-12.02.98-.8,1.77-1.55,1.9-1.81.93-1.89-.14-3.46-.21-5.46-.33,2.87-3.74,3.55-5.29,5.58.01-3.2,3.84-4.69,4.29-8.09-2.26,2.88-3.91,3.48-7.53,3.98-1.02,2.22.48,5.17,1.68,7.29v44.9c-.24,7.21,1.74,16.26-4.11,25.75-4.21,6.83-9.19,14.32-4.73,22.71Z"/>
  <path class="cls-1s-f06 first-color" d="m522.67,360.02c1.91-2.49,4.03-4.77,3.76-8.84-.25-3.74-1.41-6.45.54-9.92,2.27,4.28,1.05,10.78-.47,14.96,1.89-3.1,4.1-6.67,4.04-10.32-.04-3.45-3.46-6.85-2.66-10.24.4-.39.93-.89,1.86-1.7,2.4-2.14,7.15-2.7,9.66-.65,2.2,1.81,3.22,5.34,1.97,7.86-1.06,2.12-6.89,5-6.28.68.92.09,1.49-.49,2.2-.69-1.52-4.2-7.17-.23-3.29,3.26,3.44,3.09,7.93.3,9.03-3.58,1.17-4.1-2.21-8.96-6.41-10.12-4.07-1.13-8.17,3.36-9.98,5.39-.52.41-.96.88-1.3,1.42-.61.72-.74,1.1-.74,1.1.1-.08.19-.16.28-.23-1.28,2.88-.8,6.84-.15,9.46,1.36,5.48-.81,8.55-3.08,13.22l1.02-1.06Z"/>
  <path class="cls-1s-f06 first-color" d="m524.08,597.72c.46.18.93.39,1.4.6-.31-.32-.61-.63-.89-.95l-.51.34Z"/>
  <path class="cls-1s-f06 first-color" d="m524.06,375.63c.99,4.27,5.19,5.35,6.53,9.36.77-1.36,1.7-2.65,2.53-3.96.97,1.42,3.29,1.79,4.18-.67-.71-.21-1.28-.78-2.2-.69-.61-4.33,5.22-1.44,6.28.67,1.25,2.51.23,6.06-1.97,7.86-2.51,2.06-7.25,1.49-9.66-.64-2.85-2.52-1.96-2.01-5.15-4.67,0,0,.2.61,1.34,1.76,1.15,1.14,5.93,7.47,10.68,6.16,4.2-1.17,7.58-6.03,6.41-10.13-.97-3.44-4.64-6.02-7.86-4.37.14-.75.19-1.54.11-2.38-.58-6.49-5.89-7.71-10.96-9.75l2.33,1.4c2.51,1.36,3.4,4.97,3.2,7.3-1.36-3.54-2.38-6.59-6.18-8.06.8,3.54-.43,7.27.39,10.83Z"/>
  <path class="cls-1s-f06 first-color" d="m542.63,332.3l.95.95c.06.02.13.06.19.08-.29-.37-.66-.72-1.14-1.03Z"/>
  <path class="cls-1s-f06 first-color" d="m543.78,333.34c1.6,2.02.82,4.72,2.72,6.79,1.7,1.87,4.58,1.75,6.86,1.6-1.17-3.67-3.69-7-7.29-8.36.84,1.34,1.65,2.75,1.63,4.35-.37-1.22-2.12-3.72-3.92-4.39Z"/>
  <path class="cls-1s-f06 first-color" d="m465.94,602.6c-6.08-1.22-8.77-7.41-15.44-8.32-5.98-.81-11.06,3.81-15.03,7.57,7.77,4.96,17.46,7.2,26.14,4.19-3.6-1.19-7.23-2.53-9.63-5.52,2.55,1.68,9.64,3.63,13.96,2.08Z"/>
  <path class="cls-1s-f06 first-color" d="m507.8,643.78c.94,5.85,8.35,15.15,14.77,13.35,6.78-1.9,10.31-16.38,1.33-17.17-3.13-.29-7.84,4.13-6.2,8.04,1.56,3.7,6.52.44,2.71-1.68,1.76-7.58,12.56,2.22,3.14,6.97-6.71,3.39-11.58-3.51-11.58-9.95,0-7.05,6.1-12.02,6.78-18.65.59-5.8-1.04-12.7-5.45-16.4,4.56-.39,8.22,3.56,9.63,7.82-1.17-4.86-1.62-10.82-4.98-15.04-4.11-5.15-10.17-5.35-16.67-6.41l2.79,2.57c1.02,7.17,3.69,12.28.71,20.58-2.14,5.97-4.78,12.58.05,18.35.93-5.24,6.15-11.94,6.07-16.13,3.04,8.28-4.45,15.44-3.1,23.74Z"/>
  <path class="cls-1s-f06 first-color" d="m504.39,537.81c7.24-3.33,16.82-11.95,10.87-19.75-7.42-9.75-14,4.97-8.03,5.28-1.81-5.28,7.6-4.49,6.27,3.04-.82,4.71-5.88,8.13-9.11,11.42Z"/>
  <path class="cls-1s-f06 first-color" d="m469.56,602.74l-3.2-.28c-.13.06-.28.1-.42.15,1.09.22,2.27.3,3.61.14Z"/>
  <path class="cls-1s-f06 first-color" d="m485.04,609.41c12.48-10.23,23.2-29.74,10.43-44.11l1.87,3.76c3.09,12.62-3.06,28.81-14.07,35.93,3.66-2.88,5-7.62,5.32-12.32-6.02,12.65-26.54,10.93-32.79,23.43,1.93-.09,4.24.82,5.79.84-4.63,1.5-8.77,5.27-10,10.12,2.33-1.37,3.98-1.02,6.46-2.12-4.48,9.6-2.14,24.03,13.27,20.61,16.85-3.75-3.98-20.44-2.69-9.07-9.24,2.15-5.55-8.1-2.68-12.71,4.52-7.22,12.68-9.11,19.09-14.35Z"/>
  <path class="cls-1s-f06 first-color" d="m429.95,630.6c3.96-.93,8.53-1.11,12.25-2.84,6.66-3.1,7.03-9.07,12.37-13.5l-3.48,2.9c-.92,1.21-4.41,3.76-7.65,3.38,3-2.43,5.92-4.92,8.92-7.35-10.85-1.13-25.77,3.71-22.41,17.41Z"/>
  <path class="cls-1s-f06 first-color" d="m495.36,619.72c8.69.61,11.62-17.16,5.27-21.75l-.34.52c3.37,2.71,2.62,8.11.3,12.11-2.07,3.53-10.82,7.52-7.38,1.26.4.36,1.3.32,1.71.36-.05.33-.18.61-.42.83,3.92-2.76-1.6-6.39-3.91-1.7-1.47,3,1.53,8.15,4.78,8.37Z"/>
  <path class="cls-1s-f06 first-color" d="m452.45,631.77c-.04.39-.1.79-.16,1.2.28-.54.53-1.1.74-1.68l-.58.49Z"/>
  <path class="cls-1s-f06 first-color" d="m446.18,647.83c3.57-3.41,5.4-9.9,6.11-14.87-1.51,2.98-3.91,5.37-6.02,7.73,0-3.4,2.46-8.18,3.64-9.77-7.79,5.33-15.25,11-14.43,21.67,3.83-2.08,7.18-1.44,10.69-4.76Z"/>
  <path class="cls-1s-f06 first-color" d="m535.62,295.12c-5.66.94-13.24,12.21-6.23,16.09-.87-2.05.18-5.11,1.02-6.12,0,.24.1.4.27.51-.54,1.94.56,3.57,2.51,4.2-2.12-4.81,3.9-8.84,7.8-5.74,4.27,3.38,1.95,9.92-.71,13.39-4,5.23-9.35,4.64-14.5,7.73-4.74,2.84-7.34,10.25-3.91,15.08l-.62-2.85c-.32-8.81,6.22-10.49,13.44-12.37,6.41-1.66,10.49-7.13,11.42-13.75.93-6.56-2.05-17.55-10.49-16.16Z"/>
  <path class="cls-1s-f06 first-color" d="m570.87,514.73c-2.37-5.2-4.24-10.54-11.01-13.57-6.22-2.79-11.58-3.2-15.5-9.3,8.79,0,18.24,7.46,23.67,13.49-3.38-5.68-7.24-12.28-13.17-15.32-5.78-2.95-14.52-.05-19.21-4.83-.89,9.41,10.41,14.13,17.4,15.86,9.97,2.49,13.06,8.57,18.66,16.21l-.84-2.55Z"/>
  <path class="cls-1s-f06 first-color" d="m555.6,536.86c7.85-.49,13.53-6.01,15.69-13.65l-.42-3.39c-2.15,3.39-3.73,6.3-7.65,7.61-4.15,1.39-7.96,1.23-12.22,3.25,1.7-5.74,9.64-7.29,13.9-7.38-12.01-3.09-25.35,3.54-29.16,15.96,6.87-3.89,12.52-1.93,19.86-2.39Z"/>
  <path class="cls-1s-f06 first-color" d="m575.89,550.99c5.08-6.47,10.18-1.36,14.37-8.73,4.57-8.04-.38-21.28-10.92-21.6-.51,6.34,5.72,10.9,4.58,17.34-3.09-5.72-9.19-9.16-6.75-16.86-1.69,2.06-3.98,3.06-5.01,5.9-1.01,2.78-.87,5.98-.02,8.88,1.88,6.41,3.21,8.92,3.76,15.07Z"/>
  <path class="cls-1s-f06 first-color" d="m555.93,327.55c.12-.11.25-.23.38-.35-.24.1-.48.21-.7.35h.32Z"/>
  <path class="cls-1s-f06 first-color" d="m556.31,327.2c1.28-.54,2.69-.67,3.99-.87-.9,1.09-2.98,1.96-3.79,2.16,3.95.38,7.86.55,10.47-3.09-1.8-.36-2.7-1.47-4.72-1.34-2.05.14-4.38,1.73-5.94,3.14Z"/>
  <path class="cls-1s-f06 first-color" d="m544.26,519.91c7.29-3.85,13.65-4.47,21.01-.58-6.97-10.54-20.05-.68-28.61.93,5.19-3.18,9.04-9.34,15.52-9.8,7.39-.5,12.83,4.51,17.4,9.77l-.42-.84c-1.69-5.41-8.63-12.33-13.98-14.1-5.79-1.9-12.19.06-18.08-1.62,2,3.11,7.14,4.15,10.3,5.04-5.43-.68-8.38-.45-11.84,4.63-3.68,5.39-5.66,6.39-12.02,7.3,6.55,4.32,14.4,2.6,20.73-.72Z"/>
  <path class="cls-1s-f06 first-color" d="m565.82,474.53c2.45,5.99.31,12.55,2.5,18.55,2.43,6.7,7.87,12.38,5.92,19.94l.86-.84c2.43-5.73.24-10.19-1.74-15.96,4.67,4.35,4.54,8.92,3.94,14.54,5.04-5.79,6.26-13.52,3.32-20.62-2.72-6.54-6.96-15.66-14.79-15.61Z"/>
  <path class="cls-1s-f06 first-color" d="m551.98,399.8c-2.63-4-4.86,6.97,1.57,3.65,5.89-3.03,2.76-8.31-1.26-10.19,1.09-.32,1.53-.87,2.65-1.06-1.7-1.23-4.04-1.33-5.93-.57.49-.42.99-1.34,1.64-1.83-5.36-2.34-11.51,3.72-16.85,1.27,1.38,1.41,3.08,2.58,5.03,2.53-5.46.67-11.78-2.9-14.16-7.79l-.42-1.71c-.26,8.05,8.43,11.46,15.2,11.4,3.46-.04,6.59-1.6,9.99-.51,2.17.71,6.1,3.02,2.55,4.81Z"/>
  <path class="cls-1s-f06 first-color" d="m294.79,430.6c-3-6.02-2.45-13.26-5.52-19.29-3.66-7.24-11.68-7.34-15.86-13.94-2.06,7.32-6.25,14.08-3.54,22.01,3.91,11.42,14,11.25,24.01,12.68l-4.8-1.49c-5.11-1.31-8.32-7.44-8.99-11.71,4.02,5.76,7.2,10.78,14.71,11.75Z"/>
  <path class="cls-1s-f06 first-color" d="m293.49,412.08c2.79-6.18,5.5-8.01,11.78-10.5.98-5.15-4.52-10.51-7.61-13.79-1.58-1.68-9.54,9.02-9.87,10.51-.84,3.81,1.79,6.15,2.81,9.71-.7-5.3,5.13-8.04,7.03-12.37,1.38,5.76-4.84,10.13-4.15,16.44Z"/>
  <path class="cls-1s-f06 first-color" d="m325.82,435.34c-5.68-5.63-13.72-6.21-20.98-2.67l-2.29,2.61c4.03-.66,7.31-1.43,10.95.65,3.87,2.21,6.32,5.21,10.74,7.08-5.51,2.6-12.06-2.39-15.02-5.56,5.78,11.21,19.85,16.85,31.86,11.34-7.61-2.59-9.94-8.2-15.26-13.46Z"/>
  <path class="cls-1s-f06 first-color" d="m321.52,466.48c6.58-.86,8.68-.02,13.68,4.19-1.16-7.9-7.77-12.7-14.58-15.25-7.86-2.93-12.64-7.34-14.67-15.56-3.28,12.42,13.06,15.68,20.07,21.1-5.92-1.79-13.21-.54-17.95-5.15-5.38-5.27-5.26-12.79-4.35-19.83l-.36.89c-2.97,4.94-3.52,14.9-1.24,20.17,2.48,5.69,8.3,9.21,11.01,14.82,1.01-3.63-1.68-8.23-3.14-11.23,3.16,4.58,5.33,6.67,11.53,5.86Z"/>
  <path class="cls-1s-f06 first-color" d="m299.29,429.62c2.71-.11,5.02.96,7.87-.19,2.8-1.12,5.13-3.39,6.76-5.99,3.6-5.77,4.6-8.48,8.9-13.05-8.35.52-7.92-6.81-16.35-5-9.19,1.97-15.9,14.69-9.01,22.91,5.16-3.9,4.41-11.72,10.07-15.21-2.25,6.22-.73,13.18-8.23,16.54Z"/>
  <path class="cls-1s-f06 first-color" d="m256.63,442.15c4.27,2.55,10.44,4.13,14.63.81,2.17-1.73,2.69-4.39,4.93-6.13,2.48-1.92,5.46-2.47,8.71-2.56-6.23-3.18-11.03,2.39-17.13,1.95,2.35-2.03,5.65-4.13,6.62-7.19-3.49-.83-4.38-2.74-5.49-5.94-4.71.24-9.19,3.33-11.95,7.07-3.52,4.83-6.36,8.35-.32,11.99Z"/>
  <path class="cls-1s-f06 first-color" d="m229.82,382.85c-1.47-2.86,1.27-5.95.11-9.19-.69,3.6-1.88,4.9-4.88,7,.13,2.83,3.69,4.96,5.73,6.29,1.05.69,3.89-5.93,3.87-6.75-.04-2.11-1.71-3.01-2.69-4.76,1.03,2.7-1.71,4.89-2.15,7.4Z"/>
  <path class="cls-1s-f06 first-color" d="m230.81,352.76c.74,3.42-.75,5.45-2.79,7.8,4.09-1.03,7.08-4.14,7.97-8.26.84-3.79,1.8-9.24-1.76-11.68-.79,3.47-3.79,5.74-4.7,9.15-1.01,3.78-.33,8.05-3.59,10.86l.64-.12c2.9-1.82,3.32-4.52,4.23-7.74Z"/>
  <path class="cls-1s-f06 first-color" d="m198.4,194.78c7.42,9.75,13.98-4.97,8.02-5.29,1.82,5.29-7.59,4.51-6.27-3.04.84-4.7,5.91-8.14,9.13-11.43-7.26,3.33-16.84,11.95-10.88,19.77Z"/>
  <path class="cls-1s-f06 first-color" d="m513.18,364.51c-.2.1-.4.22-.6.33.24-.04.48-.09.71-.13l-.11-.2Z"/>
  <path class="cls-1s-f06 first-color" d="m228.61,103.42c-12.47,10.22-23.2,29.75-10.44,44.11l-1.87-3.76c-3.09-12.62,3.06-28.81,14.07-35.92-3.66,2.88-5,7.62-5.32,12.32,6.03-12.66,26.56-10.94,32.8-23.42-1.94.09-4.26-.84-5.79-.86,4.63-1.5,8.76-5.26,9.99-10.1-2.33,1.36-3.97,1.02-6.46,2.11,4.48-9.6,2.14-24.05-13.27-20.61-16.85,3.73,3.98,20.44,2.69,9.08,9.24-2.16,5.55,8.09,2.68,12.7-4.52,7.23-12.68,9.12-19.07,14.36Z"/>
  <path class="cls-1s-f06 first-color" d="m205.85,69.05c-.95-5.85-8.35-15.14-14.77-13.34-6.79,1.91-10.32,16.36-1.33,17.17,3.12.28,7.84-4.13,6.18-8.05-1.55-3.69-6.52-.43-2.71,1.69-1.76,7.56-12.56-2.23-3.14-6.99,6.71-3.38,11.58,3.52,11.59,9.96,0,7.06-6.11,12.03-6.79,18.65-.58,5.8,1.05,12.69,5.46,16.4-4.57.38-8.23-3.57-9.64-7.83,1.17,4.86,1.63,10.82,5,15.04,4.1,5.14,10.17,5.34,16.67,6.4l-2.79-2.57c-1.04-7.17-3.7-12.28-.71-20.58,2.14-5.96,4.77-12.58-.05-18.33-.94,5.24-6.16,11.93-6.07,16.12-3.06-8.27,4.44-15.44,3.1-23.75Z"/>
  <path class="cls-1s-f06 first-color" d="m538.58,591.7c.19-.16.41-.34.65-.54,0-.08-.02-.13-.03-.15.04-.02-.46.54-.63.69Z"/>
  <path class="cls-1s-f06 first-color" d="m503.69,538.56c.22-.25.46-.5.71-.75-.38.17-.75.34-1.11.48l.4.27Z"/>
  <path class="cls-1s-f06 second-color" d="m395.63,340.88c-3.71,5.59-6.72,13.11-8.95,22.32h8.95v-22.32Z"/>
  <path class="cls-1s-f06 first-color" d="m227.25,363.22l2.7.19c2.84.05,5.3,2.85,6.2,5.02-2.84-2.52-5.13-4.76-9.19-4.33,2.33,2.78,2.95,6.66,5.3,9.45,2.83,3.34,7.06,2.38,10.08,5.33.17-4.1,1.52-8.18-.89-12-3.48-5.52-8.76-4.16-14.2-3.66Z"/>
  <path class="cls-1s-f06 second-color" d="m282.28,238.68l42.06,119.77,38.26-117.64v85.73c8.5-10.05,19.56-16.51,33.03-19.31v-133.92h-23.76l-40.4,123.58-41.35-123.58h-27.09v189.88h19.25v-124.53Z"/>
  <path class="cls-1s-f06 second-color" d="m344.36,412.21c0,76.05,26.14,94.58,59.41,94.58,26.62,0,45.39-11.88,60.12-40.64h-19.72c-8.79,18.3-20.2,24.24-29.94,24.24-24.24,0-35.65-38.02-35.65-83.41s11.64-81.28,35.41-81.28c13.31,0,25.9,10.69,31.84,26.62l19.01-5.23c-16.4-29.94-30.66-37.79-52.76-37.79-47.77,0-67.73,36.6-67.73,102.9Z"/>
  <path class="cls-1s-f06 first-color" d="m469.62,145.56h-227.85c-9.93,0-18.82,4.54-24.7,11.65-22.08,10.23-47.22-2.44-64.23-18.57,4.03,5.44,7.82,11.3,13.3,15.48-25.66-9.56-41.41-28.2-71.77-20.54,2.53.63,4.76,2.07,7.22,2.61-10.29,3.27-20.87,4.2-28.93,13.15,3.69-2.34,8.49-3.87,12.47-3.85-5.38,2.3-13.32,11.75-15.21,17.37-2.06,6.14,1.28,21.39,9.48,12.71-9.79-10.39,4.69-26.02,13.5-32.01,10.6-7.19,29.08-7.43,40.79-3.11,12.83,4.74,22.14,15.57,35.13,20.38,16.54,6.15,30.73,7.58,46.58-1.41-1.48,2.14-2.71,4.47-3.63,6.94-16.43,6.91-32.66,7.05-50.88-.11-15.55-6.11-26.14-20.17-43.06-22.41-11.96-1.59-29.1,2.8-32.61,15.86-5.54,20.61,22.33,10.7,12.19,4.4-.51,1.34-1.82,2.57-2.41,4.49-2.06.07-3.43-.15-5.29-1.15-.7-11.27,16.3-18.39,25.89-16.83,10.41,1.69,21.04,8.24,30.5,12.78,20.65,9.87,45.33,13.39,65.36,3.87-.77,2.26-1.31,4.64-1.56,7.1-.19.22-.4.43-.61.65.19-.09.39-.18.58-.26-.08.94-.13,1.88-.13,2.84v86.56c-2.96,1.69-6.61,5.03-7.64,7.43-.01-2.17.83-4.78,2.09-6.79-4.86,4.39-5.38,10.14-7.15,15.76-.3-1.33-1.09-2.56-1.43-3.94-4.17,16.54,5.98,25.12,11.19,39.1-2.29-2.98-5.48-5.05-8.44-7.25,5.15,5.43,9.65,12.37,11.38,19.61v11.91c-.51,1.89-1.28,3.75-2.36,5.56l1.24-1.22c.41-.63.78-1.25,1.12-1.87v5.75c-.41.09-.84.21-1.33.4-3.35,1.27-4.56,1.11-7.72-.49,1.53,3.83,5.32,5.54,9.04,6.11v3.5c-3.24-.36-6.62.44-9.39,2.61,4.18.39,6.14,2.89,9.39,4.95v2.04c-.82-.47-1.6-.59-2.87.71-1.31,1.33-3.33,4.15-2.13,5.9.94,1.36,3.12,1.98,5,1.94v5.44c-.35-.62-.72-1.24-1.12-1.86l-1.24-1.24c1.09,1.81,1.85,3.67,2.36,5.56v11.91c-1.73,7.24-6.22,14.19-11.38,19.61,2.96-2.2,6.15-4.26,8.44-7.24-5.21,13.97-15.36,22.55-11.19,39.09.33-1.38,1.13-2.59,1.43-3.94,1.77,5.61,2.28,11.37,7.15,15.77-1.26-2.01-2.11-4.64-2.09-6.8,1.03,2.4,4.68,5.73,7.64,7.42v84.08c0,17.67,14.37,32.04,32.04,32.04h213.31c-1.2,3.74-.99,8.15.7,11.95,4.13,9.32,17.77,13.06,27.22,8.78,10.73-4.85,9.8-23.76,10.14-27.61l-.12-3.3c1.4-1.5,2.66-3.13,3.75-4.87,14.73.92.58,29.58,16.23,26.22-.74-4.92.37-9.86-2.85-14.64,8.13,3.62,2.91,14.01,10.9,18,8.1,4.05,13.46-7.37,20.56-.84-.55.26-1.55,1.07-2.38,1.74.07.55.18,2.38.12,2.6,3.66.35,5.66-.5,7.87-3.25-5.42-9.96-17.7-3.94-23.08-15.79-2.4-5.3-.58-9.55-5.08-13.94-5.66-5.53-14.38-5.64-21.26-1.87.8-1.47,1.48-3.02,2.04-4.62,21.26-7.64,44.8,4.56,60.97,19.9-4.04-5.43-7.83-11.29-13.31-15.48,25.66,9.56,41.41,28.21,71.78,20.54-2.53-.62-4.77-2.06-7.23-2.6,10.3-3.27,20.87-4.21,28.95-13.15-3.69,2.34-8.5,3.88-12.48,3.86,5.36-2.31,13.31-11.76,15.2-17.37,2.07-6.14-1.28-21.39-9.48-12.71,9.79,10.39-4.67,26.01-13.49,32-10.6,7.19-29.09,7.43-40.79,3.11-12.84-4.74-22.15-15.58-35.13-20.39-15.77-5.84-29.39-7.42-44.34.21.5-1.8.84-3.66,1.02-5.58,16.56-7.07,32.89-7.27,51.25-.05,15.57,6.11,26.15,20.17,43.07,22.41,11.95,1.58,29.09-2.79,32.6-15.85,5.54-20.61-22.32-10.7-12.18-4.39.51-1.36,1.81-2.58,2.4-4.52,2.06-.06,3.43.17,5.3,1.17.7,11.27-16.3,18.38-25.89,16.83-10.42-1.69-21.05-8.24-30.5-12.77-20.87-9.99-45.86-13.48-66-3.57.05-.72.08-1.45.08-2.19v-87.56c10.21,1.78,17.89-18.56,11.4-25.72,3.45,4.22.56,11.3-3.35,15.61-1.91,2.11-5.53,4.38-8.05,4.48v-3.09c3.35-1.53,2.27-4.41,0-5.02v-75.81c1.08.79,2.35,1.32,3.35,1.38,2.51.16,5.25-1.8,7.57-3.13-2.66.49-6.13.98-8.43-.8,1.37.77,3.51-.86,4.96-1.58-2.58-1.43-1.63-4.53-5.11-3.37-.67.23-1.54.59-2.34,1.08v-78.82c2.27-.61,3.35-3.49,0-5.02v-3.08c2.51.1,6.13,2.37,8.05,4.47,3.91,4.32,6.8,11.39,3.35,15.63,6.49-7.17-1.19-27.5-11.4-25.73v-90.03c0-17.67-14.37-32.04-32.04-32.04ZM209.73,448.23c-3.52-2.76-5.47-8.8-4.85-12.64.67-4.18,2.79-8.43,4.85-12.44v25.07Zm0-30.57c-3.51,5.31-7.66,10.13-8.53,16.71-.85,6.47,1.51,15.73,8.53,17.72v3.8c-3.58-1.81-6.91-5.33-8.69-7.94-3.91-5.78-4.04-15.85-1.7-22.23,2.36-6.41,7.52-11.2,10.39-17.4v9.33Zm0-45.24c-.16-.01-.31-.03-.47-.06.16,0,.32-.02.47-.06v.12Zm0-19.39c-1.11-.28-2.15-.58-3-.96.98.06,1.99-.04,3-.16v1.12Zm0-52.43c-2.06-4.01-4.17-8.26-4.85-12.43-.62-3.85,1.33-9.88,4.85-12.64v25.07Zm0-28.93c-7.02,1.98-9.38,11.23-8.53,17.72.87,6.59,5.02,11.41,8.53,16.71v9.34c-2.87-6.2-8.02-11-10.39-17.4-2.34-6.38-2.21-16.45,1.7-22.22,1.78-2.61,5.11-6.13,8.69-7.94v3.8Zm280.93,308.31c-1.15,7.59-8.99,15.88-16.73,15.95-6.78.07-14.06-4.87-15.61-11.39-.53-2.21.18-5.84,1.58-8.81h7.2c-.45.88-.75,1.81-1.28,2.6,4.42,2.58,7.71.23,8.54-2.95,7.06-1.05,13.38-4.42,18.15-9.29-1.18,6.88-.61,5.81-1.85,13.9Zm2.21-36.29c0,12.81-10.43,23.23-23.24,23.23h-227.85c-12.82,0-23.24-10.42-23.24-23.23v-83.97c1.54-.9,2.09-2.37,0-4.37v-76.35c1.75.46,3.5.75,5.44-.17,4.58-2.2,6.52-9.72,1.87-13.18-2.22,2.7-.84,6.72-3.39,9.25.4-3.54-1.27-7.02,2.26-9.72-1.41.39-2.76.12-4.11,1.07-.96.68-1.49,1.76-2.06,2.82v-3.05c1-.43,1.97-1.02,2.87-1.76l.88-1.66c-1.34.57-2.5,1.1-3.75,1.22v-5.35c.5.64.98,1.34,1.4,2.15.04-1.74-.5-3.03-1.4-4v-2.71c2.08,2.21,2.72,5.4,3.05,8.49l.07-.51c.94-2.97-.02-8.28-1.88-10.75-.37-.49-.79-.92-1.25-1.33v-3.34c.54.78,1.1,1.49,1.62,2.08,3.7,4.25,3.19,7.98,3.31,13.16l.43-1.42c.56-3.08,1.39-6.08-.7-9.57-1.93-3.21-4.22-5.08-4.07-9.07,3.96,2.76,5.87,9.1,6.44,13.53.26-3.63.59-7.81-1.12-11.05-1.24-2.31-4.19-3.7-5.91-5.72v-70.02c2.09-2,1.54-3.47,0-4.37v-86.44c0-12.82,10.43-23.25,23.24-23.25h227.85c12.82,0,23.24,10.43,23.24,23.25v366.08Z"/>
  <polygon class="cls-1s-f06 second-color" points="449.15 524.07 448.38 524.07 440.02 535.06 433.21 524.07 428.84 524.07 437.64 538.21 428.9 549.78 429.67 549.78 438.03 538.79 444.84 549.78 449.21 549.84 440.34 535.57 449.15 524.07"/>
  <path class="cls-1s-f06 first-color" d="m549.44,326.5c-3.4,1.12-6.53-.46-9.99-.5-6.77-.06-15.46,3.34-15.2,11.39l.42-1.71c2.38-4.89,8.7-8.44,14.16-7.78-1.95-.06-3.65,1.11-5.03,2.53,5.34-2.46,11.49,3.6,16.85,1.26-.65-.49-1.15-1.4-1.64-1.83,1.89.76,4.23.67,5.93-.57-1.12-.18-1.56-.74-2.65-1.06,4.02-1.88,7.15-7.16,1.26-10.19-6.43-3.31-4.2,7.66-1.57,3.65,3.56,1.78-.38,4.09-2.55,4.8Z"/>
  <path class="cls-1s-f06 second-color" d="m463.32,547.66c-.24.69-.72,1.03-1.45,1.03-.9,0-1.52-.53-1.86-1.61-.34-1.07-.51-2.72-.51-4.95v-16.39c0-.6.3-.9.9-.9h2.83v-.77h-3.73v-5.01h-4.37v1.22c0,1.37-.19,2.35-.58,2.92-.39.58-.96.87-1.73.87v.77h1.41c.6,0,.9.3.9.9v16.39c0,2.36.49,4.28,1.48,5.78.99,1.5,2.55,2.25,4.69,2.25,1.24,0,2.35-.26,3.31-.77.96-.51,1.68-1.14,2.15-1.86l-2.83-2.57c-.17,1.11-.38,2.01-.61,2.7Z"/>
  <path class="cls-1s-f06 first-color" d="m245.55,353.26c-2.57-.81-6.01-.88-7.79,1.4-.93,1.17-.87,2.64-1.82,3.84-1.07,1.31-2.57,1.97-4.26,2.43,3.66.89,5.49-2.64,8.75-3.16-.99,1.36-2.45,2.88-2.58,4.6,1.94-.01,2.64.89,3.63,2.44,2.44-.73,4.41-2.9,5.39-5.21,1.26-2.98,2.31-5.19-1.32-6.34Z"/>
  <path class="cls-1s-f06 first-color" d="m608.92,547.31c2.27-.06-.38-12.9-1.26-14.12-2.25-3.1-5.68-2.71-8.97-4.29,4.35,2.96,2.55,9.02,4.48,13.25-5.13-2.75-4.27-10.18-9.35-13.8,2.71,6.09,2.28,9.28,0,15.52,3.14,4.09,10.67,3.56,15.1,3.44Z"/>
  <path class="cls-1s-f06 first-color" d="m592.93,493.68c-.05,3.06-.67,6.85.94,9.56,2.89-2.02,4.88-1.43,7.96-.14,2.9-3.62,3.57-8.92,2.63-13.39-1.24-5.74-1.96-10.13-8.59-8.07-4.66,1.46-9.86,4.96-10.17,10.2-.15,2.72,1.46,4.84,1.27,7.62-.21,3.08-1.76,5.62-3.82,8.06,6.41-2.49,5.46-9.66,9.77-13.84Z"/>
  <path class="cls-1s-f06 first-color" d="m583.15,513.03c4.3-2.89,10.91-1.24,14.47,1.06-6.86-.82-12.62-1.77-18.24,3.1,6.39,1.74,11.33,6.87,17.77,8.57,7.71,2.05,13.02-3.77,20.61-2.52-4.02-6.3-6.24-13.79-13.83-16.99-10.94-4.6-17.41,2.91-25.01,9.32l4.23-2.54Z"/>
  <path class="cls-1s-f06 first-color" d="m507.24,244.46c-4.46,8.38.52,15.89,4.73,22.71,5.85,9.49,3.88,18.53,4.11,25.75v49.98c-.51-.18-1.11-.31-1.82-.39-3.56-.38-4.55-1.09-6.64-3.95-.42,4.29,2.44,7.66,5.68,9.87,3.73,2.56,5.67,5.49,5.67,10.07,3.33-6.1-4.82-9.92-7.79-13.66,2.87,1.7,6.85,1.99,8.73,5.02,2.15,3.45,1.12,7.4-.26,10.96l.3-.43c2.19-2.21,3.77-7.35,3.26-10.4-.56-3.31-3.16-5.91-3.85-9.21-1.01,1.77-.19,4.53.19,6.3-.7-1.85-1.32-3.08-2.62-3.81v-47.78c7.29-2.75,12.09-3.88,15.68-11.03,3.07-6.1,2.08-13.6,2.25-19.93-.63,5.66-4.14,11.49-9.88,12.2,4.48-5.73,4.71-14.69,2.46-21.71-2.56-8.02-11.42-12.57-13.26-21.31-1.66-7.97,2.56-17.78,11.74-15.34,12.92,3.41,2.09,18.36-2.06,9.45,4.16-3.63-2.84-6.36-3.79-1.38-1.02,5.27,5.97,9.5,9.76,8.34,10.9-3.33,2.76-20.31-6.12-20.91-8.43-.55-15.16,12.89-14.81,20.37.51,10.63,11.65,17.55,10.04,28.59-.99-5.21-9.18-12.13-11.71-18.37Z"/>
  <path class="cls-1s-f06 second-color" d="m301.99,548.2c-.39,0-.65-.17-.76-.52-.11-.35-.16-.9-.16-1.64v-15.95c-.04-2.19-.94-3.93-2.69-5.22-1.75-1.29-4.05-1.94-6.89-1.94-4.42,0-7.59,1.36-9.52,4.07l2.43,2.56c.61-1.18,1.15-2.12,1.61-2.82.46-.7,1.15-1.37,2.07-2,.92-.63,2.04-.95,3.35-.95,1.75,0,3.05.65,3.91,1.94.85,1.29,1.28,2.77,1.28,4.43v1.9c-.66,1.18-1.61,2.08-2.86,2.69-1.25.61-2.97,1.25-5.15,1.9-1.84.57-3.28,1.09-4.33,1.58-1.05.48-1.94,1.16-2.66,2.03-.72.88-1.08,1.99-1.08,3.35,0,1.88.83,3.43,2.49,4.63,1.66,1.2,3.74,1.8,6.24,1.8,1.27,0,2.43-.26,3.48-.79,1.05-.53,1.97-1.27,2.76-2.23.13-.09.3-.25.49-.49.2-.24.34-.36.43-.36s.15.07.2.2c0,2.45,1.14,3.68,3.41,3.68,1.58,0,2.71-.7,3.41-2.1l-.66-.33c-.18.39-.44.59-.79.59Zm-5.38-4.73c-.44,1.58-1.25,2.85-2.43,3.81-1.18.96-2.6,1.44-4.27,1.44-1.44,0-2.65-.42-3.61-1.25-.96-.83-1.44-1.95-1.44-3.35,0-1.31.28-2.41.85-3.28.57-.87,1.27-1.56,2.1-2.07.83-.5,1.95-1.08,3.35-1.74,1.4-.66,2.53-1.25,3.38-1.77.85-.52,1.54-1.18,2.07-1.97v10.18Z"/>
  <path class="cls-1s-f06 first-color" d="m295.1,437.32l-1.22-.08c-5.99,2.04-7.9,6.72-10.94,12.12.14-6.5,3.7-9.49,8.38-12.83-7.81.09-14.5,4.4-17.9,11.44-3.12,6.5-7.18,15.88-1.84,21.8,2.89-5.92,9.32-8.73,12.39-14.45,3.44-6.37,4.07-14.36,11.13-18Z"/>
  <path class="cls-1s-f06 second-color" d="m273.04,544.59c0,.88-.22,1.31-.66,1.31s-.85-.37-1.25-1.12l-16.48-29.61h-4.46v34.47h.79v-29.41c0-.88.22-1.31.66-1.31.39,0,.81.37,1.25,1.12l16.41,29.61h4.53v-34.47h-.79v29.41Z"/>
  <path class="cls-1s-f06 first-color" d="m300.04,436.37l-1.36,2.36c-2.34,5.31-5.13,10.36-2.85,17.55,2.09,6.61,5.41,10.96,3.43,18.07-5.96-6.67-6.69-18.9-5.78-27.1-2.03,6.41-4.43,13.81-2.72,20.36,1.67,6.38,9.79,11.06,9.33,17.85,7.75-5.69,3.68-17.46.27-23.95-4.86-9.25-2.33-15.72-.32-25.14Z"/>
  <path class="cls-1s-f06 second-color" d="m341.78,522.92c-4.25,0-7.16,2.43-8.73,7.29-.18.35-.33.53-.46.53-.26,0-.44-.35-.53-1.05v.2c-.75-4.64-3.39-6.96-7.94-6.96-4.25,0-7.16,2.43-8.73,7.29-.18.35-.33.53-.46.53-.22-.04-.33-.33-.33-.85v-6.5h-4.4v26.26h4.4v-9.65c0-3.33.38-6.13,1.15-8.4.77-2.28,1.78-3.98,3.05-5.12,1.27-1.14,2.63-1.71,4.07-1.71,1.93,0,3.25.69,3.97,2.07.72,1.38,1.08,3.56,1.08,6.53v16.28h4.4v-11.88c.17-2.84.66-5.24,1.44-7.19.79-1.95,1.77-3.4,2.95-4.37,1.18-.96,2.45-1.44,3.81-1.44,1.93,0,3.25.69,3.97,2.07.72,1.38,1.08,3.56,1.08,6.53v16.28h4.4v-16.48c-.04-3.37-.71-5.92-2-7.65-1.29-1.73-3.36-2.59-6.2-2.59Z"/>
  <path class="cls-1s-f06 second-color" d="m395.64,547.66c-.24.69-.72,1.03-1.45,1.03-.9,0-1.52-.53-1.86-1.61-.34-1.07-.51-2.72-.51-4.95v-16.39c0-.6.3-.9.9-.9h2.83v-.77h-3.73v-5.01h-4.37v1.22c0,1.37-.19,2.35-.58,2.92-.39.58-.96.87-1.74.87v.77h1.41c.6,0,.9.3.9.9v16.39c0,2.36.49,4.28,1.48,5.78.99,1.5,2.55,2.25,4.69,2.25,1.24,0,2.35-.26,3.31-.77.96-.51,1.68-1.14,2.15-1.86l-2.83-2.57c-.17,1.11-.38,2.01-.61,2.7Z"/>
  <path class="cls-1s-f06 second-color" d="m420.23,525.39c-1.89-1.18-3.94-1.77-6.17-1.77s-4.35.6-6.23,1.8c-1.89,1.2-3.37,2.81-4.47,4.82-1.09,2.01-1.64,4.22-1.64,6.62s.56,4.62,1.67,6.65c1.11,2.04,2.66,3.64,4.63,4.82,1.97,1.18,4.18,1.77,6.62,1.77s4.51-.66,6.46-1.99c1.95-1.33,3.35-3.08,4.21-5.27l-1.16-.64c-.69,1.93-1.83,3.48-3.44,4.66-1.61,1.18-3.33,1.77-5.17,1.77-2.83,0-5.09-1.03-6.78-3.08-1.69-2.06-2.6-4.73-2.73-8.03h20.37v-.77c0-2.36-.56-4.54-1.67-6.56-1.11-2.01-2.61-3.61-4.5-4.79Zm-14.2,11.34c0-2.23.36-4.28,1.09-6.17.73-1.89,1.7-3.38,2.92-4.5,1.22-1.11,2.56-1.67,4.02-1.67s2.8.56,4.02,1.67c1.22,1.11,2.19,2.63,2.89,4.53.71,1.91,1.06,3.95,1.06,6.14h-16Z"/>
  <path class="cls-1s-f06 second-color" d="m375.26,524.73c-1.93-1.2-4.03-1.81-6.3-1.81s-4.44.61-6.37,1.84c-1.93,1.23-3.45,2.87-4.56,4.92-1.12,2.06-1.67,4.31-1.67,6.76s.57,4.72,1.71,6.8c1.14,2.08,2.71,3.72,4.73,4.92,2.01,1.2,4.27,1.81,6.76,1.81s4.61-.68,6.6-2.03c1.99-1.36,3.42-3.15,4.3-5.38l-1.18-.66c-.7,1.97-1.87,3.56-3.51,4.76-1.64,1.2-3.4,1.81-5.28,1.81-2.89,0-5.2-1.05-6.93-3.15-1.73-2.1-2.66-4.84-2.79-8.21h20.81v-.79c0-2.41-.57-4.64-1.71-6.7-1.14-2.06-2.67-3.69-4.6-4.89Zm-14.51,11.59c0-2.28.37-4.38,1.12-6.3.74-1.93,1.74-3.46,2.99-4.6,1.25-1.14,2.61-1.71,4.1-1.71s2.86.57,4.1,1.71c1.25,1.14,2.23,2.68,2.95,4.63.72,1.95,1.08,4.04,1.08,6.27h-16.35Z"/>
  <path class="cls-1s-f06 first-color" d="m201.7,458.94c.9,6.45,2.49,10.87,7.36,15.42-.01,0,.63-7.92.21-9.16-.9-2.75-2.84-5.32-4.68-7.52.65,1.33,1.02,3.25.25,4.76-1.07-1.09-2.28-2.46-3.14-3.51Z"/>
  <path class="cls-1s-f06 first-color" d="m192.59,122.58c-8.09-4.04-13.46,7.39-20.55.85.54-.26,1.55-1.07,2.38-1.75-.07-.56-.18-2.37-.13-2.59-3.65-.35-5.66.49-7.86,3.23,5.42,9.98,17.7,3.94,23.08,15.8,2.4,5.29.57,9.54,5.07,13.93,6.14,6,15.85,5.64,22.94.86l3.75-1.14c-21.71,4.53-3.64-29.47-20.62-25.83.74,4.92-.36,9.85,2.87,14.64-8.13-3.62-2.91-14.01-10.92-18.02Z"/>
  <path class="cls-1s-f06 first-color" d="m247.72,110.23c6.07,1.23,8.76,7.42,15.42,8.33,5.99.81,11.06-3.81,15.04-7.58-7.77-4.95-17.47-7.21-26.14-4.19,3.59,1.19,7.22,2.53,9.63,5.51-2.55-1.67-9.63-3.62-13.95-2.07Z"/>
  <path class="cls-1s-f06 first-color" d="m143.79,100.35c-5.38,13.43-1.25,25.81,6.87,36.48-1.8-4.47-3.41-10.63-1.55-15.29,1.95,7.62,5.49,15.73,12.07,20.87-6.77-8.44-1.64-16.96-4.72-24.91-2.76-7.13-10.81-9.83-12.68-17.15Z"/>
  <path class="cls-1s-f06 first-color" d="m175.07,121.14c-.19.16-.41.34-.65.54.01.08.02.14.03.16-.04.02.47-.54.63-.69Z"/>
  <path class="cls-1s-f06 first-color" d="m230.66,116.39c-10.73,4.85-9.81,23.75-10.16,27.61l.2,5.27c1.76-9.75.92-7.45,2.3-16.42,1.14-7.58,8.99-15.87,16.72-15.94,6.79-.07,14.07,4.86,15.62,11.39,1.31,5.47-4.97,19.66-10.48,10.83,1.84-1.24,2-3.17,2.97-4.61-9.18-5.36-13.47,10.52-1.04,11,11.01.4,14.97-11.58,11.08-20.36-4.14-9.31-17.77-13.05-27.22-8.77Z"/>
  <path class="cls-1s-f06 first-color" d="m190.35,154.43c-4.95-5.09-3.69-11.03-8.2-17.12-5.08-6.83-13.96-3.85-19.35-9.13,1.37,5.46,2.77,13.08,6.51,17.45,3.73,4.36,10.5,5.61,15,8.95-3.12-3.22-5.51-6.76-5.78-11.18,1.98,4.49,7.16,10.1,11.83,11.03Z"/>
  <path class="cls-1s-f06 first-color" d="m159.11,103.68c3.45,2.98,6.08,7.26,10.44,9.09,5.85,2.45,12.43.91,18.48,3.38l-6.17-2.54c-3.88-.05-7.52-1.41-10.2-4.05,2.3.34,4.61.89,6.71,1.83-5.52-6.52-10.38-7.72-19.25-7.71Z"/>
  <path class="cls-1s-f06 first-color" d="m190.65,154.49c-.1-.02-.2-.05-.3-.07,1.05,1.07,2.36,2.11,4.07,3.1l-3.77-3.03Z"/>
  <path class="cls-1s-f06 first-color" d="m244.1,110.09l3.19.3c.14-.06.29-.11.44-.16-1.09-.22-2.27-.3-3.62-.14Z"/>
  <path class="cls-1s-f06 first-color" d="m197.37,416.49c-2.43.98-5.79,1.84-8.34.83,4.16-1.06,8.57-2.99,11.37-6.56-4.59,3.69-9.23.89-13.56,2.57-3.89,1.5-5.36,5.89-9.35,6.9,7.31,2.94,14.06.68,19.87-3.73Z"/>
  <path class="cls-1s-f06 first-color" d="m194.24,435.85v-2.88c-.9,2.32-1.02,7.17-2.92,10.12,1.46-2.77.88-6.42,2.03-9.25-5.54,7.12-12.64,15.04-8.36,24.69,6.55-7.28,9.25-12.75,9.25-22.68Z"/>
  <path class="cls-1s-f06 first-color" d="m192.08,432.03c2.76-3.76,5.6-8.42,7.91-12.64l-1.64,2.47c-2.81,1.71-4.97,4.38-7.87,5.98,3.4-2.72,6.05-6.99,9.37-10.13-7.83,5.42-18.27,8.78-19.95,18.9,4.93-.64,8.89-.11,12.19-4.58Z"/>
  <path class="cls-1s-f06 first-color" d="m539.28,623.38c7.55-9.9-4.6-20.85-13.8-25.06,4.09,4.18,10.51,8.53,11.57,14.49,1.68,9.57-10.25,10.57-7.96,3.86-7.58.4.76,19.06,10.18,6.71Z"/>
  <path class="cls-1s-f06 first-color" d="m209.28,258.56c.42-1.25-.23-9.16-.21-9.17-4.88,4.57-6.46,8.98-7.36,15.42.86-1.05,2.07-2.41,3.14-3.51.77,1.52.4,3.43-.25,4.76,1.84-2.19,3.78-4.76,4.68-7.5Z"/>
  <path class="cls-1s-f06 first-color" d="m142.4,91.37c-2.02-3.84,1.31-8.66,3.46-10.85-7.78,4.47-11.32,14.66-7.02,23,1.59-5.48,5.49-7.32,9.07-11.28,3.82-4.22,3.96-9.94,1.21-15l-1.94-1.54c.61,2.85,1.25,5.14-.1,7.81-1.45,2.81-3.51,4.65-4.7,7.86Z"/>
  <path class="cls-1s-f06 first-color" d="m197.53,449.83l-.82-2.88c-.34,1.38-.17,4.53.44,6.43-.97-1.57-2.52-4.16-2.91-5.26-.68,6.94-2.58,10.77,2.79,16.89,1.32-5.96,4.57-9.11.5-15.19Z"/>
  <path class="cls-1s-f06 first-color" d="m151.51,78.78c.89,1.94,2.58,3.54,4.49,4.61,4.21,2.36,6.16,2.99,9.56,5.89-.64-5.91,4.58-5.85,3.02-11.78-1.7-6.47-10.95-10.82-16.58-5.66,2.94,3.54,8.48,2.75,11.14,6.67-4.5-1.39-9.41-.08-12.02-5.32.17,1.91-.52,3.6.38,5.59Z"/>
  <path class="cls-1s-f06 first-color" d="m218.29,93.12c-8.71-.6-11.62,17.16-5.27,21.75l.33-.52c-3.35-2.71-2.62-8.12-.3-12.11,2.07-3.53,10.82-7.51,7.4-1.27-.42-.34-1.31-.32-1.72-.35.05-.33.19-.6.42-.84-3.91,2.78,1.62,6.39,3.92,1.71,1.47-3-1.55-8.14-4.78-8.37Z"/>
  <path class="cls-1s-f06 first-color" d="m121.68,54.8c4.29,1.86,6.51,6.33,10.68,8.34,4.64,2.24,10.34,2.41,13.15,7.33v-.87c-1.63-4.19-5.02-5.4-8.95-7.38,4.61-.11,6.86,2.32,9.39,5.54-.32-5.55-3.6-10.17-8.73-12.36-4.71-2.01-11.51-4.59-15.54-.59Z"/>
  <path class="cls-1s-f06 first-color" d="m128.5,74.99c6.41-3.75,11.1-2.16,17.85-1.04l-1.72-.89c-3.87-1.5-7.53-3.31-12.56-1.46-4.64,1.7-7.62,4.2-12.73,3.03,4.55-4.45,13.21-5.37,19.07-5-4.63-1.24-9.96-2.69-14.56-1.27-4.48,1.39-7.54,7.33-12.38,7.22,4.28,5.31,12.52,2.04,17.03-.6Z"/>
  <path class="cls-1s-f06 first-color" d="m73.48,114.09c13.34,12.03,23.4,16.99,41.63,16.99h5.28c-4.25-1.66-13.19-1.87-18.58-5.36,5.07,2.69,11.77,1.62,16.96,3.72-13.06-10.19-27.59-23.21-45.3-15.35Z"/>
  <path class="cls-1s-f06 first-color" d="m157.45,51.94c-7.99,3.15-7.55,10.32-8.24,17.47l.92-3.46c.76-3.66,5.01-6.15,8.02-6.77-3.96,3.04-7.42,5.46-7.87,10.82,4.2-2.33,9.35-2.17,13.53-4.53,5.04-2.85,4.84-8.54,9.39-11.75-5.27-1.23-10.2-3.98-15.74-1.79Z"/>
  <path class="cls-1s-f06 first-color" d="m149.35,43.12c-3.54-2.37-6.15-4.27-8.53.15-1.69,3.12-2.6,7.55-.11,10.42,1.28,1.49,3.2,1.77,4.52,3.31,1.44,1.69,1.93,3.8,2.09,6.11,2.07-4.54-2.06-7.77-1.94-12.11,1.52,1.6,3.13,3.88,5.33,4.47.46-2.5,1.8-3.21,4.04-4.1-.33-3.34-2.66-6.43-5.41-8.25Z"/>
  <path class="cls-1s-f06 first-color" d="m652.45,554.12c-5.04,1.68-9.76,5.23-13.78,8.61,2.43-1.2,5.95-1.89,8.74-.45-2.01,1.96-4.54,4.2-6.46,5.77,11.84-1.68,19.96-4.58,28.31-13.51,0,.01-14.53-1.17-16.82-.42Z"/>
  <path class="cls-1s-f06 first-color" d="m44.38,158.3s14.53,1.17,16.83.4c5.03-1.67,9.75-5.22,13.78-8.6-2.44,1.2-5.95,1.9-8.74.45,2.01-1.94,4.53-4.17,6.45-5.75-11.83,1.66-19.94,4.57-28.31,13.51Z"/>
  <path class="cls-1s-f06 first-color" d="m89.42,137.13l5.29-1.52c-2.52-.63-8.31-.3-11.82.81,2.9-1.8,7.65-4.62,9.67-5.35-12.76-1.24-19.79-4.73-31.01,5.15,10.95,2.42,16.73,8.38,27.88.9Z"/>
  <path class="cls-1s-f06 first-color" d="m189.56,115.11c-.46-.18-.93-.39-1.41-.61.31.32.61.64.89.95l.51-.34Z"/>
  <path class="cls-1s-f06 first-color" d="m271.45,85.07c-6.66,3.11-7.02,9.08-12.37,13.51l3.48-2.91c.92-1.22,4.41-3.76,7.65-3.38-3,2.42-5.92,4.92-8.92,7.34,10.86,1.14,25.77-3.7,22.42-17.4-3.96.94-8.53,1.11-12.26,2.84Z"/>
  <path class="cls-1s-f06 first-color" d="m267.48,65c-3.57,3.4-5.41,9.9-6.11,14.87,1.5-2.97,3.91-5.37,6-7.73.01,3.39-2.46,8.18-3.64,9.77,7.79-5.33,15.26-11.01,14.44-21.67-3.83,2.08-7.2,1.44-10.69,4.76Z"/>
  <path class="cls-1s-f06 first-color" d="m173.01,64c-2.74-.47-4.32,1.48-6.8,2.31,3.74-.66,5.88,3.39,9.03,4.6-4.05,1.18-7.36-3.1-11.83-2.41,4.48,1.78,5.86,3.64,7.84,8.02,3.7.54,7.34-3.55,9.57-5.85,1.14-1.18-6.73-6.5-7.8-6.68Z"/>
  <path class="cls-1s-f06 first-color" d="m122.11,127.12c6.9,5.08,15.46,10.27,23.21,14.54l-4.53-3.03c-3.14-5.14-8.03-9.1-10.99-14.45,5.01,6.26,12.82,11.13,18.6,17.2-9.98-14.37-16.11-33.54-34.69-36.61,1.18,9.04.2,16.32,8.4,22.36Z"/>
  <path class="cls-1s-f06 first-color" d="m261.21,81.08c.04-.39.1-.8.15-1.21-.28.55-.53,1.1-.74,1.69l.58-.48Z"/>
  <path class="cls-1s-f06 first-color" d="m174.36,89.45c-7.54,9.9,4.61,20.84,13.79,25.06-4.09-4.17-10.51-8.52-11.56-14.48-1.69-9.57,10.25-10.57,7.96-3.87,7.56-.4-.76-19.06-10.19-6.71Z"/>
  <path class="cls-1s-f06 first-color" d="m169.39,192.93c-7.3,3.85-13.66,4.47-21.02.59,6.98,10.51,20.05.67,28.61-.95-5.19,3.19-9.03,9.36-15.52,9.8-7.39.5-12.83-4.51-17.4-9.78l.43.86c1.68,5.4,8.62,12.32,13.97,14.09,5.79,1.91,12.21-.06,18.08,1.63-1.99-3.12-7.14-4.15-10.3-5.04,5.45.67,8.38.45,11.84-4.63,3.69-5.4,5.66-6.39,12.03-7.3-6.55-4.33-14.4-2.6-20.73.73Z"/>
  <path class="cls-1s-f06 first-color" d="m131.73,76.11c-3.96,1.93-6.29,6.2-10.18,8.3,2.6.6,5.79-1.46,7.88-2.6-3.16,2.41-4.57,4.01-3.79,8.38.82,4.66.3,6.18-2.53,9.87,5.58-1.09,8.78-5.93,10.36-10.86,1.83-5.68,4.82-9.22,10.58-10.93-8.93-1.92-10.71,9.79-14.33,14.95,1.07-4.27-.06-9.4,3.08-12.91,3.56-4.01,8.92-4.17,13.95-3.75l-.65-.23c-3.6-1.94-10.69-2.02-14.37-.21Z"/>
  <path class="cls-1s-f06 first-color" d="m158.06,175.97c-7.86.49-13.53,6.01-15.69,13.66l.42,3.39c2.15-3.4,3.73-6.3,7.65-7.61,4.15-1.4,7.96-1.23,12.22-3.26-1.7,5.76-9.66,7.3-13.9,7.4,12.01,3.09,25.34-3.55,29.16-15.96-6.89,3.89-12.52,1.93-19.86,2.38Z"/>
  <path class="cls-1s-f06 first-color" d="m585.16,637.84c-6.42,3.76-11.11,2.17-17.85,1.05l1.72.89c3.85,1.49,7.52,3.31,12.55,1.45,4.64-1.7,7.62-4.2,12.74-3.02-4.55,4.45-13.21,5.36-19.08,5,4.63,1.22,9.96,2.69,14.57,1.26,4.48-1.39,7.54-7.31,12.38-7.22-4.29-5.3-12.52-2.05-17.03.59Z"/>
  <path class="cls-1s-f06 first-color" d="m640.16,598.74c-13.34-12.02-23.4-16.98-41.61-16.98h-5.29c4.23,1.65,13.18,1.87,18.58,5.36-5.08-2.69-11.77-1.62-16.98-3.72,13.08,10.18,27.61,23.2,45.31,15.34Z"/>
  <path class="cls-1s-f06 first-color" d="m591.98,658.04c-4.3-1.87-6.51-6.34-10.68-8.34-4.65-2.24-10.35-2.43-13.16-7.34v.88c1.64,4.2,5.02,5.4,8.97,7.37-4.63.12-6.87-2.32-9.39-5.53.32,5.54,3.6,10.17,8.73,12.36,4.7,2.01,11.51,4.59,15.54.59Z"/>
  <path class="cls-1s-f06 first-color" d="m564.3,669.72c3.54,2.37,6.14,4.27,8.52-.15,1.69-3.11,2.62-7.55.12-10.42-1.3-1.5-3.21-1.77-4.52-3.3-1.45-1.7-1.93-3.81-2.1-6.11-2.07,4.53,2.07,7.77,1.95,12.11-1.53-1.59-3.13-3.88-5.33-4.47-.46,2.51-1.79,3.21-4.06,4.1.34,3.34,2.68,6.42,5.42,8.25Z"/>
  <path class="cls-1s-f06 first-color" d="m624.23,575.71l-5.28,1.51c2.52.63,8.31.3,11.81-.81-2.9,1.8-7.64,4.63-9.66,5.35,12.75,1.24,19.79,4.73,31-5.15-10.94-2.43-16.73-8.38-27.88-.9Z"/>
  <path class="cls-1s-f06 first-color" d="m104.74,165.52c-2.27.06.37,12.9,1.26,14.13,2.25,3.1,5.68,2.7,8.95,4.29-4.35-2.96-2.52-9.06-4.49-13.28,5.15,2.74,4.29,10.18,9.38,13.82-2.72-6.09-2.28-9.28,0-15.52-3.14-4.09-10.68-3.57-15.1-3.45Z"/>
  <path class="cls-1s-f06 first-color" d="m552.46,570.43c6.78,8.43,1.65,16.95,4.73,24.9,2.76,7.14,10.81,9.83,12.67,17.15,5.39-13.44,1.25-25.8-6.87-36.48,1.8,4.47,3.41,10.63,1.55,15.29-1.94-7.61-5.48-15.72-12.07-20.86Z"/>
  <path class="cls-1s-f06 first-color" d="m130.49,199.81c-4.29,2.88-10.89,1.24-14.46-1.06,6.86.82,12.61,1.77,18.23-3.1-6.39-1.74-11.33-6.89-17.75-8.59-7.72-2.04-13.03,3.77-20.61,2.53,4.01,6.3,6.23,13.79,13.83,16.99,10.93,4.6,17.41-2.93,25.01-9.32l-4.25,2.54Z"/>
  <path class="cls-1s-f06 first-color" d="m120.73,219.16c.05-3.06.65-6.86-.94-9.56-2.89,2.02-4.88,1.42-7.96.14-2.9,3.61-3.58,8.92-2.64,13.38,1.24,5.77,1.96,10.14,8.59,8.07,4.67-1.45,9.87-4.95,10.18-10.19.15-2.72-1.47-4.84-1.27-7.64.2-3.07,1.76-5.61,3.81-8.05-6.41,2.47-5.46,9.66-9.76,13.84Z"/>
  <path class="cls-1s-f06 first-color" d="m556.2,660.89c7.99-3.15,7.54-10.31,8.23-17.47l-.9,3.45c-.77,3.68-5.02,6.16-8.03,6.78,3.97-3.04,7.43-5.47,7.87-10.83-4.19,2.33-9.35,2.18-13.53,4.54-5.03,2.84-4.84,8.55-9.38,11.74,5.26,1.24,10.2,4,15.75,1.8Z"/>
  <path class="cls-1s-f06 first-color" d="m194.24,287.92c0-9.93-2.7-15.4-9.25-22.68-4.28,9.64,2.82,17.56,8.36,24.68-1.15-2.83-.57-6.48-2.03-9.24,1.9,2.94,2.02,7.8,2.92,10.12v-2.88Z"/>
  <path class="cls-1s-f06 first-color" d="m523.28,558.39c4.98,5.09,3.71,11.03,8.23,17.13,5.07,6.83,13.95,3.85,19.34,9.14-1.36-5.46-2.77-13.08-6.49-17.45-3.73-4.36-10.51-5.61-15-8.95,3.12,3.22,5.49,6.77,5.77,11.18-1.98-4.51-7.19-10.13-11.84-11.05Z"/>
  <path class="cls-1s-f06 first-color" d="m565.25,571.46c9.96,14.36,16.1,33.54,34.69,36.61-1.19-9.04-.21-16.32-8.41-22.36-6.9-5.08-15.46-10.28-23.21-14.54l4.54,3.03c3.14,5.15,8.03,9.1,10.99,14.46-5.01-6.27-12.83-11.13-18.6-17.21Z"/>
  <path class="cls-1s-f06 first-color" d="m571.25,621.47c2.03,3.84-1.3,8.66-3.46,10.86,7.79-4.47,11.33-14.66,7.03-23.01-1.59,5.49-5.51,7.34-9.07,11.28-3.82,4.22-3.97,9.95-1.21,15.01l1.94,1.53c-.62-2.84-1.26-5.14.09-7.8,1.44-2.83,3.5-4.66,4.68-7.87Z"/>
  <path class="cls-1s-f06 first-color" d="m540.64,648.84c2.73.45,4.32-1.49,6.81-2.32-3.75.66-5.89-3.4-9.04-4.6,4.06-1.19,7.37,3.11,11.84,2.41-4.48-1.78-5.87-3.65-7.85-8.03-3.7-.53-7.33,3.56-9.56,5.85-1.14,1.18,6.72,6.49,7.79,6.68Z"/>
  <path class="cls-1s-f06 first-color" d="m147.84,238.3c-2.47-5.99-.32-12.53-2.51-18.54-2.44-6.71-7.88-12.37-5.93-19.94l-.85.85c-2.43,5.73-.25,10.19,1.72,15.95-4.66-4.34-4.54-8.92-3.94-14.54-5.03,5.8-6.24,13.53-3.31,20.63,2.72,6.54,6.96,15.66,14.81,15.6Z"/>
  <path class="cls-1s-f06 first-color" d="m562.14,634.06c-.88-1.95-2.58-3.53-4.48-4.61-4.21-2.38-6.17-3-9.57-5.89.65,5.91-4.58,5.84-3.02,11.77,1.71,6.47,10.96,10.82,16.58,5.66-2.94-3.54-8.48-2.75-11.14-6.66,4.51,1.39,9.39.08,12.04,5.32-.17-1.93.52-3.6-.39-5.59Z"/>
  <path class="cls-1s-f06 first-color" d="m581.93,636.74c3.95-1.94,6.28-6.21,10.18-8.3-2.62-.61-5.8,1.46-7.88,2.59,3.15-2.4,4.57-4.01,3.78-8.38-.82-4.65-.3-6.17,2.55-9.87-5.59,1.08-8.78,5.93-10.37,10.87-1.82,5.67-4.8,9.22-10.6,10.93,8.94,1.93,10.74-9.79,14.35-14.95-1.08,4.26.05,9.41-3.08,12.92-3.57,4-8.92,4.16-13.95,3.75l.64.23c3.62,1.94,10.7,2.01,14.38.23Z"/>
  <path class="cls-1s-f06 first-color" d="m141.51,185.81c1-2.78.87-5.98.01-8.88-1.87-6.41-3.2-8.92-3.76-15.07-5.07,6.47-10.18,1.34-14.37,8.72-4.55,8.04.38,21.29,10.92,21.61.52-6.34-5.72-10.9-4.58-17.35,3.1,5.72,9.2,9.16,6.75,16.87,1.7-2.06,4-3.06,5.02-5.9Z"/>
  <path class="cls-1s-f06 first-color" d="m206.13,343.7c2.6-3.86,2.81-9.15-.46-12.5-2.39-2.45-4.71-1.45-7.59-2.76-6.46-2.94-3.17-9.62-8.61-12.57-1.5,1.2-1.95,2.3-1.76,4.28.13-.03,1.12.03,1.41.07.37-.45.81-.99.96-1.29,3.56,3.87-2.66,6.79-.46,11.2,2.18,4.34,7.84,1.51,9.81,5.93-2.6-1.76-5.29-1.15-7.98-1.56-1.97,9.24,16.54.45,14.07,12.28l.62-3.09Z"/>
  <path class="cls-1s-f06 first-color" d="m523.01,558.33c.09.01.18.04.26.06-1.04-1.07-2.35-2.09-4.06-3.08l3.79,3.02Z"/>
  <path class="cls-1s-f06 first-color" d="m188.8,403.16c.09.11.2.25.32.39.03,0,.06,0,.07-.01.01.01-.4-.37-.39-.38Z"/>
  <path class="cls-1s-f06 first-color" d="m189.19,320.23s-.04,0-.08-.01c-.12.14-.23.27-.32.38-.01-.01.4-.39.39-.37Z"/>
  <path class="cls-1s-f06 first-color" d="m191.44,389.27c2.69-.4,5.38.19,7.98-1.56-1.97,4.42-7.64,1.58-9.81,5.93-2.2,4.4,4.02,7.34.46,11.2-.14-.31-.58-.85-.95-1.3-.28.03-1.29.09-1.42.06-.19,2,.26,3.09,1.76,4.29,5.43-2.96,2.15-9.64,8.61-12.57,2.88-1.31,5.2-.32,7.59-2.77,3.27-3.34,3.07-8.63.46-12.5l-.62-3.08c2.47,11.83-16.04,3.03-14.07,12.28Z"/>
  <path class="cls-1s-f06 first-color" d="m202.16,317.44c-2.38-2.03-6.53-2.81-9.5-3.54,2.88,2.93,1.26,7.78,4.97,10.54,3.33,2.46,6.57,1.77,9.34,4.49-.5-2.55-3.57-5.38-6.02-6.46,2.4.15,4.33,1.45,6.09,3.14-1.82-2.44-2.5-6.12-4.88-8.16Z"/>
  <path class="cls-1s-f06 first-color" d="m525.62,596.69l6.18,2.54c3.86.06,7.52,1.42,10.19,4.04-2.3-.33-4.61-.88-6.71-1.83,5.52,6.53,10.39,7.73,19.25,7.72-3.44-2.99-6.07-7.27-10.44-9.1-5.84-2.45-12.43-.9-18.48-3.38Z"/>
  <path class="cls-1s-f06 first-color" d="m206.99,394.71s-.02.09-.03.13c.58-.57,1.14-1.27,1.67-2.2l-1.64,2.07Z"/>
  <path class="cls-1s-f06 first-color" d="m206.97,394.84c-2.77,2.72-6.02,2.03-9.34,4.5-3.71,2.75-2.09,7.6-4.97,10.52,2.97-.74,7.12-1.51,9.5-3.54,2.38-2.02,3.06-5.72,4.88-8.16-1.76,1.7-3.69,3-6.09,3.14,2.45-1.09,5.53-3.91,6.02-6.46Z"/>
  <path class="cls-1s-f06 first-color" d="m209.16,173.73c-4.77,1.95-9.95.74-14.57,2.66-3.44,1.44-5.52,4.82-8.23,7.17,6.99,0,10.83-.94,15.19-6.09-1.66.76-3.49,1.19-5.29,1.45,2.11-2.08,4.98-3.15,8.03-3.19l4.88-2.01Z"/>
  <path class="cls-1s-f06 first-color" d="m208.64,331.11c-.53-.92-1.09-1.63-1.67-2.2,0,.05.02.09.03.14l1.64,2.06Z"/>
  <path class="cls-1s-f06 first-color" d="m158.8,222.8c5.77,2.96,14.52.05,19.19,4.83.89-9.4-10.39-14.12-17.4-15.86-9.97-2.49-13.06-8.57-18.65-16.2l.85,2.55c2.37,5.19,4.23,10.54,11,13.56,6.23,2.79,11.58,3.21,15.51,9.31-8.81,0-18.25-7.48-23.68-13.49,3.39,5.68,7.25,12.27,13.18,15.3Z"/>
  <path class="cls-1s-f06 first-color" d="m196.71,276.8l.82-2.87c4.07-6.09.82-9.23-.5-15.2-5.38,6.11-3.47,9.94-2.79,16.89.39-1.09,1.94-3.67,2.91-5.26-.61,1.9-.78,5.05-.44,6.43Z"/>
  <path class="cls-1s-f06 first-color" d="m197.37,307.28c-5.81-4.44-12.56-6.68-19.87-3.75,3.98,1.01,5.46,5.4,9.35,6.91,4.33,1.66,8.97-1.12,13.56,2.57-2.79-3.59-7.21-5.52-11.37-6.56,2.55-1.02,5.91-.14,8.34.83Z"/>
  <path class="cls-1s-f06 first-color" d="m199.99,304.37c-2.31-4.22-5.15-8.88-7.91-12.64-3.29-4.46-7.25-3.92-12.19-4.58,1.69,10.12,12.13,13.47,19.95,18.9-3.32-3.14-5.97-7.4-9.37-10.13,2.9,1.62,5.07,4.28,7.87,5.99l1.64,2.46Z"/>
</svg>