<svg id="Layer_1" data-name="Layer 1" xmlns="http://www.w3.org/2000/svg" viewBox="0 0 700 700">
  <defs>
    <style>
      .cls-1s-a07 {
        fill: none;
      }

      .cls-2s-a07 {
        fill: #231f20;
      }
    </style>
  </defs>
  <g>
    <polygon class="cls-2s-a07 second-color" points="484.33 353.49 503.66 353.49 503.66 352.58 498.31 352.58 482.26 326.35 493.03 308.5 499.21 308.5 499.21 307.59 485.81 307.59 485.81 308.5 492 308.5 481.68 325.45 471.37 308.5 477.56 308.5 477.56 307.59 458.35 307.59 458.35 308.5 463.7 308.5 477.43 331.06 464.54 352.58 458.35 352.58 458.35 353.49 471.82 353.49 471.82 352.58 465.63 352.58 477.94 331.96 490.51 352.58 484.33 352.58 484.33 353.49"/>
    <path class="cls-2s-a07 second-color" d="m534.47,308.5c.86,0,1.83.08,2.9.23,1.07.15,2.16.57,3.25,1.26,1.1.69,2.15,1.77,3.16,3.26,1.01,1.48,1.88,3.53,2.61,6.16h.71v-11.8h-39.19v11.8h.71c.73-2.62,1.6-4.67,2.61-6.16,1.01-1.48,2.06-2.57,3.16-3.26,1.1-.69,2.18-1.11,3.26-1.26,1.07-.15,2.04-.23,2.9-.23h3.74v44.09h-7.15v.9h20.75v-.9h-7.15v-44.09h3.74Z"/>
    <path class="cls-2s-a07 first-color" d="m602.45,317.56c-5.8,10.25-14.42,18.62-24.84,24.12,10.25,5.8,18.62,14.43,24.12,24.84,5.8-10.25,14.43-18.62,24.84-24.12-10.25-5.8-18.62-14.43-24.12-24.84Z"/>
    <path class="cls-2s-a07 second-color" d="m245.84,353.49h19.85v-.9h-5.74l-17.53-46.15h-1.55l-17.4,46.15h-5.67v.9h13.86v-.9h-7.15l6.77-17.92h14.95l6.77,17.92h-7.15v.9Zm-14.18-19.72l7.09-18.76,7.09,18.76h-14.18Z"/>
    <path class="cls-2s-a07 first-color" d="m72.28,247.55c-.57.88-1.15,1.88-1.27,2.88-.1.82.29,1.9.87,2.49.27.27,1.71-.19,2.31-.67.89-.72,1.58-1.7,2.2-2.66,1.64-2.53,3.26-5.08,4.77-7.68,14.67-25.48,33.67-47.88,53.9-69.37,8.67-9.21,17.9-17.8,29.78-23.41,11.34-5.35,22.5-10.85,34.94-13.77,12.33-2.89,23.39-1.11,33.66,5.87,2.17,1.47,4.43,2.82,6.56,4.34,8.05,5.78,17.12,8.32,27.09,7.57,15.06-1.14,29.57-4.84,43.86-9.31,9.81-3.07,19.16-7.53,29.47-9.13.39-.06.75-.31,1.63-.7-1.3-.34-2.04-.68-2.79-.71-10.69-.48-20.58-3.91-30.49-7.36-6.8-2.37-13.83-3.3-21.08-2.73-7.29.57-14.6.97-21.91,1.45-1.83.12-3.71,0-5.47.39-15.52,3.48-31.37,3.99-47.18,5.02-12.5.82-24.71,2.99-36.09,8.35-.45.21-.96.32-1.8.59.42-.53.54-.77.74-.92,1.17-.84,2.35-1.68,3.54-2.49,31.68-21.68,66.68-36.84,103.53-48.33,3.82-1.19,7.75-2.12,11.68-2.93,5.5-1.13,10.72-.77,15.19,3.13,4.19,3.65,8.46,7.21,12.78,10.72,8.39,6.82,16.82,13.58,27.12,17.73,12.55,5.05,25.43,4.13,38.41,2.18,11.87-1.78,23.76-3.48,35.76-.88.51.11,1.11-.12,2.22-.26-1.22-1.05-1.94-1.84-2.82-2.4-13.66-8.6-28.21-15.38-44.37-18.26-6.8-1.22-13.83-1.27-20.75-1.92-11.95-1.12-23.27-4.67-34.54-8.37-4.11-1.35-8.22-2.71-13-4.29,17.28-3.34,33.91-5.13,50.75-3.85,8.77.67,17.4,2.07,25.76,5.02,3.64,1.29,7.64,1.99,11.52,2.21,7.22.39,14.47.14,21.7.31,14.45.35,27.31,5.07,39.02,13.08,3.47,2.38,7.24,4.42,11.05,6.28,1.64.8,3.73.74,5.49,1.05-3.33-2.91-6.55-5.65-9.67-8.48-1.32-1.2-2.44-2.62-3.66-3.93-5.74-6.17-11.51-12.28-19.41-16.09-18.42-8.89-37.93-10.38-57.85-7.13-11.85,1.94-23.57,3.83-35.68,3.73-13.57-.12-27.04,1.69-40.39,4.13-33.28,6.11-64.5,17.68-94.37,32.8-.97.49-1.97.93-2.95,1.39,3.88-4.48,7.9-8.68,12.07-12.74,3.76-3.66,8.04-6.66,13.19-8.35,4.5-1.47,8.39-3.86,11.77-7.06,4.41-4.18,9.76-6.51,15.92-6.95,7.12-.51,14.27-.72,21.39-1.26,8.02-.61,16.17-.75,23.99-2.31,12.09-2.42,23.1-7.76,33.78-13.64.82-.45,1.83-.9,2.72-.87,3.83.15,7.65.65,11.48.71,24.9.38,49.08,5.12,73.19,10.57,19.79,4.47,35.79,14.87,49.84,28.41,5.21,5.02,9.76,10.72,10.15,18.19.25,4.79-.05,9.66-.64,14.43-.99,8.06-.18,15.88,4.96,22.38,6.51,8.23,13.51,16.16,20.87,23.72,6.73,6.91,14.21,13.15,21.38,19.67.14.13.44.1.98.22-.53-1.45-1.05-2.65-1.4-3.89-1.57-5.66-3.11-11.32-4.6-16.99-1.29-4.92-1.55-10.34-3.94-14.69-4.94-8.96-10.85-17.46-16.67-25.95-4.02-5.85-8.69-11.3-12.86-17.06-5.22-7.21-9.91-14.78-15.45-21.75-3.49-4.39-8.1-7.97-12.08-11.79-.17.03.04-.08.17-.02,1.91.85,3.83,1.67,5.7,2.59,27.2,13.41,51.23,31.01,73.22,51.24,3.03,2.78,5.67,5.96,8.34,9.08,2.01,2.35,2.67,5.14,2.17,8.18-.32,1.91-.46,3.85-.89,5.73-1.39,6.07-3.05,12.09-4.28,18.19-2.19,10.88-1.81,21.61,4.22,31.42,3.43,5.58,7.5,10.81,11.45,16.09,4.56,6.09,8.74,12.35,10.99,19.61.14.45.5.84.76,1.26.88-1.49,1.3-2.99,1.36-4.49.15-3.51.2-7.03.15-10.54-.16-11.7-1.69-23.23-7.38-33.72-7.38-13.6-9.15-28.46-11.89-43.4.48.33.74.45.9.64,13.21,15.85,24.67,32.51,27.9,53.21,1.03,6.62,5,12.18,8.11,18.05,2.43,4.59,4.94,9.27,6.41,14.18,2.55,8.51,2.85,17.26.98,26.05-.75,3.52-.45,7.09,1.77,10.69.39-2.63.43-4.92,1.11-7.02,1.26-3.94,2.81-7.79,4.38-11.63,2.73-6.7,3.45-13.62,2.52-20.71-2.02-15.38-9.18-28.47-19.24-40.4-4.29-5.09-7.98-10.67-11.72-16.17-3.15-4.63-5.79-9.57-8.98-14.17-18.75-27.04-43.23-48.5-71.05-66.69-1.1-.72-2.19-1.45-3.28-2.18,4.91.71,9.69,1.65,14.17,3.31,3.69,1.37,7.04,3.6,10.53,5.48,3.16,1.71,6.14,3.87,9.49,5.09,5.29,1.93,9.46,4.94,12.4,9.51,3.5,5.46,6.8,11.04,10.41,16.43,2.91,4.35,5.7,8.89,9.3,12.67,10.33,10.85,23.12,18.6,36.83,24.91,5.67,2.61,11.08,5.37,15.57,9.67,1.22,1.16,2.8,1.98,4.21,2.96.17-.18.34-.37.51-.55-.65-1.12-1.27-2.26-1.97-3.35-10.73-16.96-21.32-34.01-32.29-50.83-3.47-5.33-7.71-10.26-12.02-15.02-9.27-10.24-22.18-14.15-35.08-18.06-8.29-2.52-16.88-1.77-25.32-2.67-10.58-1.12-21.09-2.68-30.38-8.24-15.79-9.47-33.21-15.52-50.52-21.69-14.05-5-28.87-7.13-43.57-9.58-1.49-.25-2.98-.56-4.47-.84,5.59-1.86,11.14-3.02,16.56-4.61,10.44-3.06,20.46-2.67,30.85.98,22.59,7.93,45.5,14.89,68.83,20.75,21.51,5.41,42.49,5.62,63.52-1.28.86-.28,1.72-.58,2.57-.87-1.43-.55-2.71-.44-3.97-.57-19.65-2.08-38.05-7.71-55.1-17.45-7.07-4.04-14.46-7.56-21.74-11.25-10.62-5.39-22.44-6.72-33.93-9.22-12.65-2.75-24.52-1.39-35.72,5.04-5.97,3.43-12.02,6.72-18.12,9.94-10,5.27-20.45,8.34-32.12,6.71-6.69-.94-13.49-1.09-20.24-1.61-.95-.07-1.9-.18-3.33-.32,5.79-4.01,10.86-8.12,16.53-11.25,5.59-3.09,11.78-5.17,17.7-7.69-.07-.22-.14-.43-.22-.65-3.07,0-6.15-.13-9.21.02-24.15,1.2-48.3,2.39-72.45,3.73-21.33,1.18-40.48,7.33-56.07,22.17-7.9,7.52-15.51,15.03-20.99,24.51-8.87,15.31-19.97,28.83-36.7,37.1-.49.24-.93.56-1.4.83-15.01,8.8-27.95,20.16-41.43,30.85-13,10.31-23.79,22.61-34.26,35.2-3.92,4.71-7.8,9.45-11.7,14.17.2-2.22.71-4.25,1.28-6.26,2.54-8.97,4.94-17.98,7.75-26.88.96-3.04,2.54-6.11,4.61-8.57,3.03-3.6,6.66-6.78,10.22-9.94,20.57-18.26,41.12-36.48,60.29-56.18,18.15-18.65,32.39-38.91,37.37-64.36.57-2.91,1.19-5.81,1.79-8.71-1.01.51-1.38,1.19-1.77,1.85-.45.76-.88,1.54-1.4,2.27-13.45,18.8-29.85,34.73-50.56,46.11-23.04,12.66-43.07,28.4-58.75,49.13-6.52,8.62-11.98,17.59-12.26,28.49-.24,9.47.07,18.95.32,28.43.4,15.41-1.75,29.96-11.87,42.85-6.09,7.75-10.96,16.38-16.34,24.63Zm190.92-120.18c8.38-.68,16.78-1.14,25.18-1.5,6.82-.3,13.53.63,20.01,2.69,4.49,1.42,8.87,3.16,13.3,4.75-23.67,2.08-46.88-1.32-70.26-4.03,3.92-.65,7.82-1.59,11.77-1.91Zm84.29-32.33c9.73,1.62,19.55,2.8,29.38,3.78,7.69.76,14.86,2.8,21.65,6.24,4.42,2.24,8.9,4.39,13.35,6.58l-.24.6c-2.84-.86-5.68-1.7-8.51-2.58-6.17-1.92-12.22-4.37-18.53-5.62-5.12-1.01-10.55-.52-15.84-.81-13.41-.75-25.69-5.19-37.66-10.64-1.64-.75-3.28-1.52-5.5-2.55,7.7,1.8,14.72,3.82,21.89,5.01Zm59.92-23.16c10.93,1.27,21.83,2.51,32.02,6.9,7.18,3.1,13.01,7.75,17.59,13.95-22.39-16.03-47.48-21.96-75.15-18.63,8.48-2.03,16.89-3.23,25.55-2.22Zm100.68,61.99c2.37,3.23,4.83,6.41,7.09,9.72,2.61,3.81,4.93,7.79,7.57,11.58,5.82,8.37,7.98,17.74,8.38,27.65-10.17-15.16-16.57-32-23.66-48.54.21-.14.42-.27.63-.41Zm-14.29,2.5c.33-5.99,1.06-11.96,1.66-18.39,13.07,22.28,20.31,46.87,34.67,68.09-11.57-9.54-21.56-20.34-30.59-32-4.13-5.33-6.1-11.19-5.74-17.7Zm119.34,111.07c-1.69-9.25-6.15-17.41-11.21-25.23-4.16-6.42-5.05-13.62-6.88-21.29,10.65,14.26,17.75,29.19,18.09,46.52Zm-34.79-40.41c3.1,6.96,4.38,14.07,4.26,21.53-.04,2.71,0,5.42,0,8.13-.2.03-.41.05-.61.08-.68-4.19-1.46-8.37-2.02-12.58-.8-5.99-2.57-11.57-5.79-16.85-5.34-8.75-7.19-18.5-8.05-28.46-.29-3.31-.4-6.64-.42-9.99,2.19,13.34,7.16,25.85,12.64,38.14Zm37.55-29.71c-28.41-9.97-48.29-28.4-60.04-55.96,20.38,18.99,40.21,37.48,60.04,55.96Zm-144.86-119.63c11.95,2.21,23.88,4.51,35.81,6.83,1.96.38,3.9.99,5.77,1.69,14.09,5.32,28.38,9.9,43.68,10.61-17.73,3.03-34.96.1-51.9-4.23-13.85-3.54-27.47-7.99-41.08-12.34-4.8-1.53-9.29-3.97-13.84-6.24,7.19,1.22,14.4,2.35,21.57,3.67Zm-106.43-14.39c-1.23.84-2.46,1.68-3.69,2.52-10.1,6.84-20.37,13.4-31.65,18.37-9.98,4.39-20.32,7.42-31.38,7.88-10.6.44-21.19.91-31.86,1.12,32.22-11.81,65.33-20.9,98.59-29.89Zm-116.38,38.58c.14.22.27.45.41.67-2.38,1.48-4.77,2.97-7.15,4.45-.16-.24-.31-.47-.47-.71,2.41-1.47,4.81-2.95,7.22-4.42Zm-118.95,60c13.51-16.05,26.81-32.28,40.67-48.05,5.39-6.13,11.95-11.34,18.16-16.78,10.33-9.04,19.77-18.77,27.04-30.29.21-.33.5-.62.75-.93.18.09.37.18.55.26-2.19,4.78-3.99,9.76-6.63,14.29-9.34,16.05-21.44,30.16-34.84,43.2-9.76,9.5-19.88,18.67-30.14,27.68-4.94,4.33-10.55,7.95-16.2,11.61.21-.33.37-.69.62-.99Z"/>
    <path class="cls-2s-a07 first-color" d="m628.6,446.87c-.61-.22-1.71-.06-2.14.37-1.14,1.11-2.16,2.38-3,3.72-4.1,6.54-7.97,13.22-12.19,19.68-12.78,19.57-28.03,37.35-44.01,54.55-10.08,10.86-20.95,20.81-35.04,27.1-10.21,4.56-20.26,9.26-31.28,11.97-12.82,3.15-24.27,1.06-34.86-6.32-2.15-1.5-4.41-2.84-6.55-4.35-8.83-6.23-18.85-8.15-29.45-6.83-14.37,1.78-28.42,5.02-42.12,9.6-9.32,3.11-18.31,7.21-28.18,8.67-.36.05-.68.42-1.24.8,1.19.27,2.07.6,2.96.64,9.74.47,18.79,3.53,27.92,6.46,5.33,1.71,10.98,3.41,16.51,3.45,11.23.07,22.48-.99,33.71-1.59.18,0,.36-.06.54-.1,13.45-2.94,27.13-3.97,40.87-4.63,10.53-.5,21.04-1.45,31.14-4.61,4.55-1.43,8.96-3.26,14-5.11-1.71,1.22-2.94,2.13-4.2,3-23.79,16.56-49.69,29.42-77.03,39.54-12.77,4.73-25.95,8.48-39.04,12.37-3.72,1.1-8,1.54-11.52-.58-4.25-2.55-8.23-5.56-12.1-8.64-3.79-3.02-7.12-6.59-10.97-9.54-7.58-5.83-15.42-11.31-24.9-14.15-11.29-3.39-22.63-2.42-34.02-.77-9.97,1.45-19.92,3.07-30.06,1.85-2.48-.3-4.95-.68-7.42-1.02-.31.4-.63.8-.94,1.19.94.49,1.92.93,2.81,1.49,13.67,8.59,28.21,15.37,44.35,18.3,6.71,1.22,13.65,1.29,20.48,1.9,13.17,1.18,25.54,5.34,37.94,9.38,3.14,1.02,6.27,2.06,10.16,3.34-15.47,2.9-30.15,4.71-45.06,4.17-9.46-.34-19.01-1-27.85-4.22-9.84-3.59-19.85-4-30.03-3.58-17.24.71-32.7-3.78-46.51-13.65-2.2-1.57-4.47-3.09-6.86-4.36-2.84-1.52-5.89-2.56-9.25-2.25,2.88,2.24,5.78,4.28,8.39,6.61,2.07,1.85,3.81,4.03,5.64,6.11,6.33,7.17,13.32,13.5,22.52,17.28,18.68,7.69,37.98,8.32,57.69,4.97,7.11-1.21,14.27-2.92,21.41-2.96,20.06-.09,39.86-1.92,59.44-6.09,30.41-6.47,59.05-17.44,86.53-31.35.77-.39,1.56-.72,2.35-1.07-4.65,5.31-9.43,10.39-14.72,14.94-2.8,2.4-6.31,4.23-9.78,5.68-4.68,1.96-9.01,4.22-12.66,7.68-4.12,3.91-9.17,6.15-14.93,6.58-8.31.62-16.64.88-24.95,1.49-6.93.5-13.95.72-20.72,2.05-10.54,2.08-20.33,6.4-29.68,11.46-3.71,2.01-7.2,3.38-11.71,2.92-8.09-.83-16.28-.74-24.39-1.41-16.83-1.37-33.28-4.93-49.8-8.11-20.99-4.04-38.65-13.78-53.83-27.9-5.19-4.82-10.48-10.03-11.51-17.24-.77-5.4-.69-11.05.02-16.46,1.21-9.26-.2-17.86-6.19-25.19-6.25-7.66-12.91-15.07-19.89-22.13-6.73-6.8-14.1-13.02-21.2-19.48-.09-.09-.32-.04-.9-.08.58,1.61,1.19,3.04,1.61,4.52,1.48,5.23,2.92,10.47,4.31,15.73,1.38,5.26,1.71,11.01,4.22,15.7,4.63,8.62,10.34,16.74,15.94,24.85,4.99,7.24,10.62,14.07,15.63,21.3,5.77,8.34,10.94,17.09,18.69,24,2.25,2.01,4.63,3.88,7,5.86-.27.06-.47.17-.6.12-1.09-.46-2.21-.86-3.23-1.43-10.65-5.99-21.57-11.6-31.85-18.13-17.38-11.04-33.22-23.95-47.95-38.14-5.55-5.35-7.67-11.23-5.61-18.61,1.67-6,3.09-12.08,4.37-18.18,2.32-11.06,1.84-21.9-4.14-31.95-2.53-4.26-5.51-8.29-8.54-12.25-5.71-7.44-11.41-14.86-14.08-23.94-.09-.29-.41-.52-.88-1.1-.31.95-.65,1.56-.69,2.2-.25,3.5-.59,7-.59,10.51-.02,12.22,1.27,24.3,6.96,35.41,4.49,8.76,7.6,17.84,9.36,27.4,1.02,5.53,1.97,11.08,2.95,16.62-.23.1-.46.21-.69.31-4-5.32-8.18-10.53-11.97-15.99-7.16-10.3-12.98-21.29-15.29-33.54-1.28-6.78-3.61-12.98-7.02-18.95-2.63-4.61-5.48-9.21-7.27-14.13-3.4-9.33-4.1-18.99-2.09-28.79.78-3.79.63-7.61-1.68-11.34-.39,2.57-.46,4.93-1.15,7.11-1.26,3.93-2.83,7.78-4.37,11.62-2.55,6.36-3.4,12.91-2.62,19.66,1.85,15.8,9.05,29.26,19.45,41.41,3.64,4.26,6.97,8.8,10.12,13.41,2.7,3.96,4.81,8.28,7.43,12.3,19.06,29.18,44.8,52.01,74.2,71.31,1.08.71,2.16,1.41,3.24,2.11-5.03-.69-9.89-1.66-14.47-3.33-3.53-1.29-6.73-3.43-10.05-5.23-3.32-1.79-6.45-4.02-9.95-5.36-4.88-1.86-8.9-4.52-11.68-8.76-3.46-5.27-6.7-10.68-10.2-15.93-3.1-4.65-5.99-9.54-9.77-13.65-8.96-9.74-20.18-16.8-32.1-22.74-7.88-3.93-16.07-7.26-22.4-13.52-.65-.64-1.68-.92-3.22-1.72.64,1.18.82,1.58,1.06,1.95,11.84,18.68,23.53,37.44,35.59,55.99,5.97,9.18,13.38,17.4,23.74,22.18,12.48,5.76,25.37,10.08,39.67,10.19,14.67.12,28.45,3.57,41.61,10.74,25.87,14.09,53.61,23.74,83.2,28.04,3.76.55,7.48,1.28,11.22,1.93-7.61,2.35-15.21,4.14-22.8,5.95-7.14,1.7-14.13,1.44-21-1.26-2.28-.9-4.69-1.49-7.04-2.21-17.77-5.45-35.44-11.22-53.35-16.21-10.87-3.03-22.02-5.38-33.2-7.04-15.18-2.25-29.87,1.07-44.29,5.51-.32.1-.58.37-1.26.83,1.53,0,2.52-.09,3.5.01,19.74,2.01,38.25,7.47,55.51,17.11,9.63,5.38,19.52,10.55,29.85,14.46,8.41,3.18,17.66,4.37,26.54,6.4,12.09,2.76,23.62,1.63,34.49-4.47,6.48-3.63,12.99-7.22,19.58-10.67,9.42-4.93,19.28-7.94,30.27-6.65,7.17.84,14.4,1.17,21.61,1.75,1,.08,1.99.24,3.3.4-5.66,3.92-10.65,8-16.25,11.09-5.58,3.08-11.77,5.18-17.68,7.71,3.75.63,7.29.78,10.8.61,23.87-1.19,47.75-2.31,71.61-3.74,19.98-1.2,38.2-6.64,53.23-20.26,9.38-8.5,17.92-17.32,24.33-28.27,7.56-12.91,17.12-24.4,30.65-32.46,30.1-17.94,56.91-39.56,79.12-66.21,4.85-5.82,9.68-11.66,14.52-17.49-3.46,13.1-5.26,26.59-11.53,38.83-.63,1.24-1.51,2.44-2.54,3.4-6.76,6.32-13.36,12.81-20.43,18.79-22.04,18.63-42.43,38.79-61.71,60.01-15.63,17.21-23.15,37.73-27.08,60.09.55-.27.77-.3.84-.42,5.53-9.85,13.25-18.08,21.19-26.12,10.61-10.74,23.04-19.19,36.23-26.79,11.93-6.87,23.92-13.88,33.63-23.57,7.53-7.52,14.29-15.75,21.28-23.76,9.22-10.58,12.44-23.04,12.05-36.57-.25-8.6-.6-17.2-.7-25.8-.15-13.66,3.68-25.99,12.35-37.14,5.94-7.64,10.72-16.11,15.95-24.25.6-.94.95-2.09,1.12-3.18.09-.55-.34-1.56-.79-1.72Zm-197.1,125.71c-4.73.4-9.51.37-14.23.87-10.62,1.12-20.81-.26-30.65-4.2-2.6-1.04-5.28-1.91-8.03-2.89,7.39-1.88,28.12-1.09,70.2,3.49.01.32.02.64.03.97-5.77.59-11.54,1.27-17.32,1.76Zm-73.49,33.07c-12.73-2-25.54-3.47-38.29-5.36-3.85-.57-7.78-1.4-11.34-2.86-6.78-2.8-13.31-6.14-19.94-9.25.13-.28.26-.57.39-.85,4.29,1.43,8.54,3.02,12.89,4.27,6.02,1.73,12.07,3.51,18.22,4.68,3.43.65,7.12.01,10.68.16,14.01.56,26.8,5.24,39.26,10.95,1.45.66,2.88,1.38,4.22,2.26-5.36-1.36-10.64-3.13-16.09-3.99Zm-72.45,21.36c-8.52-1.29-16.97-2.72-24.89-6.21-7.06-3.11-12.81-7.73-17.39-13.89,22.5,16.16,47.74,22,75.51,18.59-11.02,3.09-22.08,3.2-33.24,1.51Zm-96.52-65.23c-1.12-1.38-2.11-2.86-3.08-4.35-2.8-4.31-5.5-8.68-8.34-12.96-5.49-8.28-8.01-16.23-8.41-27.65,10.18,15.23,16.53,32.12,23.42,48.9-1.2-1.31-2.48-2.56-3.59-3.93Zm-101.95-109.62c.97,3.1,1.81,6.5,3.11,9.73,1.35,3.34,3.06,6.56,4.78,9.75,1.72,3.2,4.09,6.13,5.35,9.47,2.09,5.53,3.52,11.28,5.22,16.94-11.06-13.69-18.02-28.76-18.47-45.89Zm33.29,36.46c-2.53-6.01-2.54-12.34-2.68-18.66-.05-2.36,0-4.73,0-7.09.23,0,.45-.01.68-.02.86,5.26,1.37,10.6,2.67,15.76,1.1,4.37,2.61,8.79,4.8,12.75,5,9.03,7.43,18.63,8.34,28.68.3,3.29.43,6.6.4,9.94-2.55-14.5-8.52-27.88-14.19-41.36Zm-35.56,33.43c26.22,8.89,47.03,28.21,60.3,56.03-21.42-18.01-40.76-37.13-60.3-56.03Zm150.41,120.95c-14.01-2.6-28.09-4.94-41.99-8.01-6.91-1.52-13.38-4.8-20.24-6.59-9.32-2.43-18.84-4.18-27.11-5.98,14.4-2.58,29.91-.19,45.08,3.53,15.3,3.75,30.32,8.59,45.36,13.26,5,1.55,9.67,4.06,14.42,6.44-5.18-.88-10.37-1.71-15.53-2.66Zm100.91,13.84c-.03-.33-.11-.54-.05-.58,13.62-9.53,27.59-18.48,43.55-24.14,10.45-3.71,21.32-4.76,32.34-5.01,7.49-.17,14.98-.51,22.48-.78-32.2,11.93-65.29,21.02-98.32,30.5Zm116.03-39.06c-.14-.22-.29-.45-.43-.67,2.72-1.63,5.43-3.27,8.15-4.9.14.21.27.42.41.63-2.71,1.65-5.42,3.29-8.12,4.94Zm117.94-58.82c-12.98,15.44-25.67,31.12-39.09,46.22-6.25,7.03-13.87,12.95-20.92,19.33-9.42,8.53-18.12,17.63-24.83,28.33-.23.37-.51.71-.76,1.07,2.56-8.74,6.77-16.63,12-24.08,9.34-13.3,20.1-25.49,31.92-36.78,9.14-8.73,18.56-17.2,28.14-25.48,4.78-4.13,10.19-7.6,15.63-11.14-.7.84-1.4,1.69-2.1,2.53Z"/>
    <path class="cls-2s-a07 first-color" d="m99.18,317.56c-5.8,10.25-14.42,18.62-24.84,24.12,10.25,5.8,18.62,14.43,24.12,24.84,5.8-10.25,14.42-18.62,24.84-24.12-10.25-5.8-18.62-14.43-24.12-24.84h0Z"/>
    <polygon class="cls-2s-a07 second-color" points="320.03 308.5 320.03 307.59 305.78 307.59 293.86 342.27 293.73 342.27 281.81 307.59 267.3 307.59 267.3 308.5 274.46 308.5 274.46 352.58 267.3 352.58 267.3 353.49 282.58 353.49 282.58 352.58 275.42 352.58 275.42 309.33 275.55 309.33 290.89 353.55 306.3 308.88 306.43 308.88 306.43 352.58 299.27 352.58 299.27 353.49 320.03 353.49 320.03 352.58 312.87 352.58 312.87 308.5 320.03 308.5"/>
    <path class="cls-2s-a07 second-color" d="m323.64,352.58v.9h39.32v-14.12h-.71c-.13.99-.43,2.23-.9,3.74-.47,1.5-1.2,2.95-2.19,4.35-.99,1.4-2.27,2.6-3.84,3.61-1.57,1.01-3.53,1.51-5.9,1.51h-12.18v-23.27h5.22c1.55,0,2.8.27,3.77.81.97.54,1.74,1.26,2.32,2.16.58.9,1.03,1.93,1.35,3.09.32,1.16.63,2.36.93,3.61h.71v-20.05h-.71c-.47,1.93-.96,3.51-1.45,4.74-.49,1.22-1.1,2.19-1.8,2.9-.71.71-1.56,1.19-2.55,1.45-.99.26-2.19.39-3.61.39h-4.19v-19.92h10.7c1.76,0,3.27.22,4.51.64,1.25.43,2.32,1.09,3.22,1.97.9.88,1.68,1.96,2.32,3.22.64,1.27,1.25,2.74,1.8,4.42h.71v-11.15h-36.87v.9h7.15v44.09h-7.15Z"/>
    <polygon class="cls-2s-a07 second-color" points="184.48 311.14 211.61 354.39 212.9 354.39 212.9 308.5 220.06 308.5 220.06 307.59 204.78 307.59 204.78 308.5 211.94 308.5 211.94 342.72 211.81 342.72 190.02 307.59 176.23 307.59 176.23 308.5 183.38 308.5 183.38 352.58 176.23 352.58 176.23 353.49 191.5 353.49 191.5 352.58 184.35 352.58 184.35 311.14 184.48 311.14"/>
    <path class="cls-2s-a07 second-color" d="m413.1,352.58v.9h39.32v-14.12h-.71c-.13.99-.43,2.23-.9,3.74-.47,1.5-1.2,2.95-2.19,4.35-.99,1.4-2.27,2.6-3.84,3.61-1.57,1.01-3.53,1.51-5.9,1.51h-12.18v-23.27h5.22c1.55,0,2.8.27,3.77.81.97.54,1.74,1.26,2.32,2.16.58.9,1.03,1.93,1.35,3.09.32,1.16.63,2.36.93,3.61h.71v-20.05h-.71c-.47,1.93-.96,3.51-1.45,4.74-.49,1.22-1.1,2.19-1.8,2.9-.71.71-1.56,1.19-2.55,1.45-.99.26-2.19.39-3.61.39h-4.19v-19.92h10.7c1.76,0,3.26.22,4.51.64,1.25.43,2.32,1.09,3.22,1.97.9.88,1.68,1.96,2.32,3.22.64,1.27,1.25,2.74,1.8,4.42h.71v-11.15h-36.87v.9h7.15v44.09h-7.15Z"/>
    <path class="cls-2s-a07 second-color" d="m396.09,308.5c.86,0,1.83.08,2.9.23,1.07.15,2.16.57,3.25,1.26,1.1.69,2.15,1.77,3.16,3.26,1.01,1.48,1.88,3.53,2.61,6.16h.71v-11.8h-39.19v11.8h.71c.73-2.62,1.6-4.67,2.61-6.16,1.01-1.48,2.06-2.57,3.16-3.26,1.1-.69,2.18-1.11,3.26-1.26,1.07-.15,2.04-.23,2.9-.23h3.74v44.09h-7.15v.9h20.75v-.9h-7.15v-44.09h3.74Z"/>
  </g>
  <g>
    <path class="cls-1s-a07" d="m411,256.77c-4.76-13.17-11.25-25.31-21.73-35.22-17.53-16.57-42.69-16.2-59.55,1-9.33,9.52-15.08,20.96-19.15,33.28-3.04,9.2-5.13,18.52-6.53,27.95h113.77c-1.43-9.15-3.62-18.17-6.82-27.01Z"/>
    <path class="cls-1s-a07" d="m313.86,383.36c4.93,11.39,11.39,21.8,21.27,29.89,10.43,8.54,22.33,11.94,35.81,9.1,9.86-2.08,17.49-7.68,23.88-15.02,8.84-10.15,14.13-22.05,17.86-34.66.07-.25.14-.5.21-.75h-103.34c1.26,3.85,2.69,7.67,4.32,11.43Z"/>
    <path class="second-color" d="m310.57,255.82c4.07-12.32,9.81-23.76,19.15-33.28,16.86-17.2,42.01-17.57,59.55-1,10.48,9.91,16.97,22.05,21.73,35.22,3.2,8.84,5.39,17.86,6.82,27.01h51.55c-.97-4.14-2.13-8.27-3.49-12.4-9.01-27.46-27.49-47.33-55.11-58.6-22.19-9.06-45.48-11.25-69.03-7.54-42.86,6.75-71.5,30.64-85.61,70.27-.98,2.75-1.84,5.51-2.61,8.27h50.53c1.4-9.43,3.5-18.76,6.53-27.95Z"/>
    <path class="second-color" d="m341.96,435.63c9.31-3.65,18.74-6.72,28.9-7.23,11.51-.57,22.71-2.84,33.42-6.97,25.39-9.78,43.88-26.43,55.36-49.51h-46.75c-.07.25-.14.5-.21.75-3.73,12.6-9.02,24.5-17.86,34.66-6.39,7.34-14.01,12.94-23.88,15.02-13.48,2.84-25.38-.56-35.81-9.1-9.88-8.09-16.34-18.49-21.27-29.89-1.63-3.77-3.06-7.58-4.32-11.43h-49.47c4.7,10.1,11.11,19.34,19.45,27.52,15.31,15.01,34.11,23.52,55.34,27.33,3.35.6,6.72,1.03,10.68,1.63-2.97,1.12-5.38,2.03-7.79,2.94-8.87,3.34-17.72,6.72-26.63,9.95-1.15.42-2.7.37-3.89,0-7.98-2.45-16.1-3.85-24.49-3.54-3.85.14-7.69.43-11.18,2.22-2.48,1.27-3.95,3.2-3.95,6.05,0,2.78,1.39,4.71,3.88,5.84,1.6.72,3.31,1.37,5.04,1.62,10.73,1.53,20.85-.69,30.57-5,1.33-.59,2.48-.84,3.87-.32,8.49,3.18,17.08,6.13,25.48,9.51,16.51,6.63,32.75,13.94,49.81,19.21,17.69,5.45,35.66,7.31,53.91,2.92,10.91-2.62,20.52-7.43,27.45-16.4,4.83-6.25,8.19-13.22,10.37-20.67,1.94-6.61,3.4-13.36,5.1-20.14-1.39-.42-2.29-.72-3.2-.96-.97-.27-1.96-.49-2.95-.74-.59.89-1.1,1.67-1.62,2.45-6.07,9.13-14.2,15.86-24.94,19.2-5.59,1.74-11.35,3.12-17.13,4.1-17.82,3-35.77,2.79-53.74,1.49-15.18-1.1-30.35-2.27-45.53-3.44-4.16-.32-8.3-.72-12.46-1.08-.01-.1-.02-.2-.03-.3.36-.15.72-.3,1.08-.44,6.45-2.41,12.94-4.73,19.35-7.24Z"/>
  </g>
</svg>