<svg id="Layer_2" data-name="Layer 2" xmlns="http://www.w3.org/2000/svg" viewBox="0 0 700 700">
  <defs>
    <style>
      .cls-1-a13 {
        fill: #fff;
      }

      .cls-2-a13 {
        fill: #020202;
      }

      .cls-3-a13 {
        fill: none;
      }
    </style>
  </defs>
  <g id="Layer_1-2" data-name="Layer 1">
    <rect class="cls-3-a13" width="700" height="700"/>
    <g>
      <g>
        <g>
          <path class="cls-2-a13 first-color" d="m323.9,194.88c-29.93-16.84-52.28-51.17-113.13-70.73-62.71-20.15-106.93,12.87-95.17,51.5,11.76,38.63,42.54,38.63,54.3,78.93,11.74,40.31,38.62,49.83,69.4,38.07,27.88-10.65,76.41-58.93,85.34-67.95.91-.92,1.36-2.18,1.26-3.46-.88-10.83-.29-18.13.22-21.88.25-1.81-.63-3.58-2.21-4.47Zm-163.89-1.88c-6.2,0-11.23-5.03-11.23-11.23s5.03-11.23,11.23-11.23,11.23,5.03,11.23,11.23c0,6.2-5.03,11.23-11.23,11.23Zm12.72-40.44c-6.2,0-11.23-5.03-11.23-11.23s5.03-11.23,11.23-11.23,11.23,5.03,11.23,11.23-5.03,11.23-11.23,11.23Zm123.72,57.99c-4.92.46-10.06,1.74-15.21,3.53-5.15,4.11-2.03,8.99-7.42,20.84-5.79,12.73-15.71,14.56-16.21,14.64.48-.45,4.03-22.72,20.53-34.33-3.41,1.32-6.8,2.85-10.1,4.51-6.97,6.63-11.66,13.29-12.34,14.27-.89,21.76-7.65,35.59-13.16,43.37-6.01,8.48-11.75,11.73-11.99,11.86-.08.05-.18.07-.27.07-.07,0-.15-.02-.22-.04-.16-.06-.28-.21-.32-.37-.09-.31-2.03-7.72.08-18.34,1.94-9.76,7.83-24.11,24.93-37.12.48-.7,4.23-6.07,9.98-11.98-18.2,9.68-33.29,22.4-34.38,23.69-15.81,22.9-37.83,23.56-38.05,23.56h0c-.19,0-.37-.1-.47-.26-.11-.17-.11-.38-.02-.55.12-.23,11.92-22.81,39.18-24.82,2.15-1.87,6.41-5.31,11.91-9.26-2.94.79-10.32,2.72-24.69,6.05-19.63,4.55-20.73-5.36-20.73-5.36,0,0,10.29-1.58,22.96-5.53,11.13-3.47,21.24,2.55,23.54,4.07,2.47-1.76,5.17-3.59,8.01-5.43,6.04-3.88,13.55-8.22,21.55-11.7-2.84-.47-8.3-1.27-11.38-1.02-13.55,7.07-24.14,8.72-31.07,8.72-5.75,0-8.97-1.14-9.25-1.24-.18-.06-.32-.22-.36-.41s.02-.38.15-.52c.17-.17,17.1-16.71,40.46-7.68,4.18-.33,12.16,1.11,13.34,1.34,6.89-2.86,14.09-5.03,20.96-5.67.31-.02.58.19.59.49.02.32-.2.59-.51.62Zm1.48-12.15c-.11.14-.27.2-.43.2-.13,0-.25-.04-.36-.13-3.8-3.15-8.34-5.89-13.25-8.25-6.54-.73-7.79,4.93-19.97,9.5-13.06,4.9-21.36-.79-21.82-1.1.69,0,18.94-13.22,38.81-9.76-3.35-1.48-6.84-2.8-10.36-3.97-9.62-.24-17.64,1.15-18.81,1.37-16.02,14.76-30.57,19.77-39.97,21.37-3.37.58-6.33.77-8.78.77-5,0-7.91-.81-8.09-.86-.16-.05-.3-.17-.36-.33s-.06-.34.03-.49c.16-.28,4.03-6.89,13.02-12.91,8.26-5.53,22.58-11.52,43.87-8.64.84-.15,7.27-1.31,15.51-1.42-8.05-2.45-16.09-4.18-22.9-5.36h0c-9.87-1.71-17.15-2.26-18.14-2.17-3.9.71-7.57,1.02-11.01,1.02-20.62,0-32.42-11.12-32.56-11.25-.14-.14-.19-.33-.15-.53.04-.19.19-.34.37-.41.24-.08,24.56-7.71,45.26,10.13,2.61.19,7.44.69,13.41,1.62-3.25-1.9-9.68-5.71-20.49-12.45-7.27-4.53-11.35-9.12-12.12-13.66-.59-3.45,1.04-5.53,1.1-5.61.19-.24.53-.28.77-.11.09.06,8.51,6.2,20.08,12.27,10.75,5.63,13.64,17.76,14.1,20.11,2.81.49,5.81,1.06,8.91,1.74,7.02,1.52,15.39,3.76,23.52,6.94-1.67-2.34-4.97-6.77-7.33-8.77-26.7-8.38-33.53-22.61-33.81-23.21-.08-.17-.06-.38.04-.54.11-.16.28-.26.47-.26.24,0,23.91.27,34.05,23.17,3.2,2.72,7.82,9.39,8.49,10.37,6.9,2.85,13.52,6.41,18.83,10.81.25.18.28.53.06.77Z"/>
          <path class="cls-2-a13 first-color" d="m342.9,272.03c-6.41-11.2-11.33-28.01-13.45-35.95-.79-2.98-4.2-4.42-6.88-2.88-13.92,8.06-43.18,42.56-70.39,58.32-20.51,11.87-35.47,12.65-43.54,11.68-4.23-.5-8.16,2.23-9.29,6.33-26.32,96.13,93.25,104.71,118.32,47.48,19.97-45.59,25.12-69.96,26.43-78.6.35-2.21-.09-4.44-1.2-6.37Zm-118.46,84.4c-6.2,0-11.23-5.03-11.23-11.23s5.03-11.23,11.23-11.23,11.23,5.03,11.23,11.23-5.03,11.23-11.23,11.23Zm90.81-81.97c.32.95,1.24,4.78.24,14.82,7.76,26.79-12.25,43.97-12.45,44.14-.11.09-.23.13-.36.13-.06,0-.11,0-.17-.02-.19-.06-.32-.2-.37-.39-.19-.71-4.55-17.73,12.23-43.99.74-7.45.39-11.38.07-13.19-4.7,8.68-10.34,16.73-15.3,23.15-2.19,2.83-4.35,5.47-6.39,7.89,1.22,2.22,7.55,14.7,2.38,27.26-5.55,13.49-8.33,24.76-8.36,24.87-.06.25-.29.42-.54.42-.04,0-.07,0-.11,0-.11-.02-2.97-.63-4.92-3.97-2.58-4.4-2.38-11.23.57-20.29,4.53-13.86,7.31-21.79,8.69-25.63-4.59,5.26-8.43,9.2-10.53,11.23-4.87,30.06-31.09,40.96-31.36,41.07-.06.02-.14.04-.21.04-.12,0-.24-.04-.34-.11-.15-.12-.24-.32-.22-.51.03-.24,2.9-24.6,29.87-39.92.71-.49,10.5-10,20.76-23.29,2.95-3.82,6.14-8.23,9.22-13-7.33,6.03-13.91,9.8-14.69,10.24-16.1,17.71-32.6,22.85-43.61,24.05-2.2.24-4.26.34-6.17.34-8.49,0-13.89-1.94-14.17-2.04-.16-.06-.28-.19-.34-.36-.06-.16-.03-.34.06-.49.17-.26,4.32-6.3,14.31-12.15,9.16-5.36,25.17-11.5,49.42-10.37,1.11-.63,9.05-5.23,17.16-12.4t0,0c2.17-3.54,4.25-7.25,6.1-11.04-14.47,17.45-39.82,19.24-40.37,19.73.14-.54,3.13-11.38,17.83-16.57,13.84-4.88,18.92-.79,24.05-6.41,2.41-5.4,4.3-10.92,5.28-16.32.06-.31.35-.51.66-.45.31.06.51.35.45.66-1.35,7.62-4.48,15.44-8.37,22.86Z"/>
        </g>
        <g>
          <path class="cls-2-a13 first-color" d="m358.61,309.78l-7.28-22.75c-.54-1.66-2.69-1.66-3.23,0l-7.28,22.75c-.96,3-1.48,6.15-1.52,9.32-.1,7.64.47,21.9,5.49,30.28,2.3,3.84,7.54,3.84,9.84,0,5.01-8.38,5.59-22.64,5.49-30.28-.02-3.17-.54-6.32-1.51-9.32Z"/>
          <path class="cls-2-a13 first-color" d="m386.31,154.37c-18.51,5.89-20.61,21.67-20.83,25.47-.19,0-.39.05-.54.17-.11.09-2.49,1.99-5.17,6.61-5.93-4.63-14.43-4.57-20.28.19-2.85-5.17-5.48-7.26-5.6-7.36-.16-.13-.36-.18-.54-.17-.24-3.8-2.33-19.59-20.83-25.47,0,0-.39,31.09,20.06,26.5.04.18.14.34.29.46.03.02,2.6,2.1,5.35,7.19-.28.28-.56.58-.82.88-4.43,5.17-7.87,13.67-5.78,27.48,4.65,30.77,18.14,51.81,18.14,51.81,0,0,13.5-21.04,18.14-51.81,2.08-13.81-1.35-22.3-5.78-27.48-.33-.39-.68-.75-1.05-1.1,2.57-4.51,4.87-6.38,4.92-6.41.15-.12.25-.29.29-.46,20.44,4.58,20.05-26.5,20.05-26.5Zm-36.58,56.82c-6.07,0-10.99-4.92-10.99-10.99,0-1.25.21-2.45.59-3.57,1.48,4.32,5.58,7.43,10.4,7.43s8.91-3.11,10.4-7.43c.39,1.12.6,2.32.6,3.57,0,6.07-4.93,10.99-11,10.99Z"/>
        </g>
        <path class="cls-1-a13 first-color" d="m257.65,249.56s-.02,0-.02,0c0,0,0,0,.02,0Z"/>
        <path class="cls-1-a13 first-color" d="m275.39,290.74s0,0,0-.02c0,0-.02.02,0,.02Z"/>
        <g>
          <path class="cls-2-a13 first-color" d="m155.36,261.98h.03s-.02,0-.03,0Z"/>
          <path class="cls-2-a13 first-color" d="m204.1,299.33c-5.49.23-11.28-.4-17.09-1.56-6.6-3.76-3.73-9.62-11.55-22.04-8.3-13.19-19.53-13.73-20.1-13.75.61.42,7.93,24.76,28.13,35.03-4.1-.97-8.17-2.17-12.11-3.52h0c-8.78-6.33-15.02-13.07-15.87-14.01-4.23-23.9-13.75-38.16-21-45.92-7.9-8.46-14.71-11.18-15-11.3-.16-.06-.34-.05-.49.04s-.24.24-.27.41c-.04.36-1.08,8.82,2.82,20.21,3.59,10.48,12.25,25.44,33.06,37.25.6.67,5.73,6.25,13.23,12.07-5.33-1.95-10.33-4.1-14.71-6.13-15.22-7.07-26.67-14.54-27.3-15.12-20.88-22.93-45.27-20.37-45.51-20.35-.19.02-.36.15-.45.32s-.06.39.05.55c.15.23,15.32,21.65,43.49,21.65,1.14,0,2.3-.03,3.48-.11,2.45,1.6,7.13,4.48,13.28,7.79-4.05-.51-12.4-1.48-26.91-2.84-9.49-.89-16.19.42-19.92,3.92-2.84,2.64-2.8,5.56-2.79,5.68,0,.3.25.54.55.54.11,0,11.73.24,26.11,2.68,1.49.25,2.96.36,4.38.36,11.3,0,19.99-7.19,21.69-8.69,2.81,1.47,5.86,2.98,9.12,4.5,7.36,3.43,16.45,7.16,25.95,9.83-1.69.71-5.45,1.91-12.88,2.84-29.31-10.58-44.95-2.59-45.61-2.25-.17.09-.28.26-.29.45-.02.19.06.38.22.49.15.11,10.58,7.87,25.21,7.87,6.25,0,13.28-1.42,20.58-5.45,10.02-1.24,13.54-2.98,14.4-3.5,7.28,1.94,14.74,3.22,21.81,3.22.79,0,1.57-.02,2.34-.05.31-.02.54-.28.54-.58,0-.32-.25-.55-.58-.54Z"/>
        </g>
        <path class="cls-2-a13 first-color" d="m97.48,207.4c-2.81-.46-5.53.26-7.66,1.8-2.14,1.54-3.69,3.89-4.15,6.69l-.17,1.02-1.02-.17c-2.81-.46-5.53.26-7.66,1.8-2.14,1.54-3.68,3.89-4.14,6.69-.92,5.6,2.88,10.9,8.49,11.81l1.02.17h0l20.31,3.33,3.33-20.31h0l.17-1.02c.92-5.6-2.89-10.9-8.5-11.81Z"/>
        <g>
          <path class="cls-2-a13 first-color" d="m489.23,124.3c-60.86,19.56-83.21,53.88-113.13,70.73-1.59.89-2.47,2.66-2.22,4.46.51,3.75,1.09,11.05.22,21.88-.11,1.28.36,2.55,1.26,3.46,8.92,9.03,57.46,57.3,85.34,67.95,30.79,11.75,57.66,2.24,69.4-38.07,11.75-40.3,42.54-40.3,54.3-78.93,11.76-38.62-32.46-71.64-95.16-51.49Zm18.95,144.28c-.11.16-.28.26-.47.26h0c-.22,0-22.24-.66-38.05-23.56-1.09-1.29-16.17-14.01-34.38-23.69,5.76,5.91,9.5,11.28,9.98,11.98,17.1,13.01,22.99,27.36,24.93,37.12,2.1,10.62.16,18.03.08,18.34-.04.16-.16.31-.32.37-.06.03-.15.04-.22.04-.09,0-.19-.02-.27-.07-.24-.14-5.99-3.38-11.99-11.86-5.51-7.77-12.27-21.6-13.16-43.37-.67-.97-5.36-7.64-12.34-14.27-3.31-1.65-6.7-3.18-10.1-4.51,16.5,11.61,20.05,33.88,20.53,34.33-.49-.08-10.42-1.91-16.21-14.64-5.38-11.85-2.27-16.73-7.42-20.84-5.15-1.8-10.28-3.07-15.21-3.53-.31-.03-.54-.3-.51-.61,0-.3.28-.52.59-.49,6.88.64,14.07,2.81,20.96,5.67,1.18-.22,9.16-1.66,13.34-1.34,23.36-9.03,40.29,7.51,40.46,7.68.14.14.19.33.15.52-.04.19-.17.34-.36.41-.28.11-3.5,1.24-9.25,1.24-6.93,0-17.52-1.65-31.07-8.72-3.08-.25-8.55.55-11.38,1.02,8,3.5,15.51,7.83,21.55,11.7,2.85,1.82,5.54,3.67,8.01,5.43,2.3-1.52,12.41-7.54,23.54-4.07,12.67,3.95,22.96,5.53,22.96,5.53,0,0-1.09,9.91-20.73,5.36-14.36-3.33-21.75-5.26-24.69-6.05,5.49,3.95,9.76,7.4,11.91,9.26,27.26,2.01,39.06,24.6,39.18,24.82.09.15.08.36-.02.54Zm9.45-102.46c-.14.13-11.95,11.26-32.56,11.25-3.43,0-7.1-.31-11.01-1.02-.99-.09-8.27.46-18.14,2.17h0c-6.81,1.18-14.85,2.91-22.9,5.36,8.24.11,14.69,1.27,15.51,1.42,21.29-2.88,35.61,3.1,43.87,8.64,8.99,6.02,12.85,12.64,13.02,12.91.09.15.1.33.03.49-.06.16-.19.28-.36.33-.18.06-3.1.86-8.09.86-2.45,0-5.4-.19-8.78-.77-9.4-1.6-23.95-6.61-39.97-21.37-1.17-.22-9.19-1.61-18.81-1.37-3.52,1.17-7.02,2.49-10.36,3.97,19.86-3.45,38.12,9.76,38.81,9.76-.45.32-8.75,6-21.82,1.1-12.18-4.57-13.43-10.23-19.97-9.5-4.91,2.37-9.45,5.1-13.25,8.25-.11.09-.24.13-.36.13-.16,0-.32-.06-.43-.2-.21-.24-.18-.59.06-.79,5.31-4.4,11.93-7.96,18.83-10.81.67-.99,5.3-7.66,8.49-10.37,10.14-22.89,33.8-23.17,34.05-23.17.19,0,.36.1.47.26.11.16.11.36.04.54-.28.61-7.11,14.83-33.81,23.21-2.35,2-5.65,6.43-7.33,8.77,8.12-3.18,16.5-5.43,23.52-6.94,3.09-.67,6.09-1.25,8.91-1.74.46-2.35,3.36-14.48,14.1-20.11,11.58-6.07,20-12.21,20.08-12.27.24-.18.58-.13.77.11.06.09,1.69,2.17,1.1,5.61-.77,4.53-4.85,9.12-12.12,13.66-10.81,6.74-17.24,10.55-20.49,12.45,5.97-.93,10.8-1.44,13.41-1.62,20.7-17.84,45.02-10.21,45.26-10.13.19.06.33.22.37.41.05.22,0,.41-.15.55Zm-1.6-24.65c0-6.2,5.03-11.23,11.23-11.23s11.23,5.03,11.23,11.23-5.03,11.23-11.23,11.23c-6.2,0-11.23-5.03-11.23-11.23Zm23.96,51.68c-6.2,0-11.23-5.03-11.23-11.23s5.03-11.23,11.23-11.23,11.23,5.03,11.23,11.23-5.03,11.23-11.23,11.23Z"/>
          <path class="cls-2-a13 first-color" d="m500.64,309.69c-1.12-4.1-5.05-6.84-9.29-6.33-8.07.97-23.03.19-43.54-11.68-27.22-15.76-56.48-50.26-70.39-58.32-2.67-1.54-6.07-.11-6.88,2.88-2.12,7.94-7.05,24.74-13.45,35.95-1.11,1.94-1.55,4.18-1.21,6.38,1.31,8.64,6.46,33.02,26.43,78.6,25.09,57.23,144.66,48.64,118.33-47.48Zm-99.09-11.35c10.25,13.29,20.06,22.8,20.76,23.29,26.97,15.31,29.84,39.67,29.87,39.92.02.19-.06.39-.22.51-.1.07-.22.11-.34.11-.07,0-.14-.02-.21-.04-.27-.11-26.49-11.01-31.36-41.07-2.1-2.04-5.94-5.97-10.53-11.23,1.39,3.84,4.17,11.77,8.69,25.63,2.95,9.06,3.15,15.89.57,20.29-1.95,3.35-4.8,3.95-4.92,3.97-.04,0-.07,0-.11,0-.25,0-.48-.17-.54-.42-.03-.11-2.81-11.39-8.36-24.87-5.17-12.55,1.16-25.04,2.38-27.26-2.05-2.42-4.2-5.06-6.39-7.89-4.96-6.41-10.61-14.47-15.3-23.15-.32,1.8-.67,5.73.07,13.19,16.78,26.26,12.42,43.28,12.23,43.99-.05.19-.19.33-.37.39-.06.02-.11.02-.17.02-.13,0-.26-.04-.36-.13-.2-.17-20.21-17.35-12.45-44.14-1-10.05-.08-13.88.24-14.82-3.88-7.41-7.02-15.24-8.41-22.85-.06-.31.15-.59.45-.66.31-.06.59.15.66.45.99,5.4,2.87,10.92,5.28,16.32,5.13,5.61,10.2,1.52,24.05,6.41,14.7,5.19,17.7,16.03,17.83,16.57-.54-.49-25.9-2.28-40.37-19.73,1.85,3.79,3.93,7.49,6.1,11.04h0c8.11,7.18,16.05,11.78,17.16,12.41,24.25-1.12,40.25,5.01,49.42,10.37,9.99,5.84,14.15,11.89,14.31,12.15.1.14.12.32.06.49-.06.16-.18.29-.34.36-.28.11-5.68,2.04-14.17,2.04-1.91,0-3.97-.1-6.17-.34-11.01-1.19-27.51-6.33-43.61-24.05-.78-.44-7.36-4.21-14.69-10.24,3.13,4.75,6.32,9.16,9.26,12.98Zm74.02,58.24c-6.2,0-11.23-5.03-11.23-11.23s5.03-11.23,11.23-11.23,11.23,5.03,11.23,11.23-5.03,11.23-11.23,11.23Z"/>
        </g>
        <path class="cls-1-a13 first-color" d="m442.35,249.71s.02,0,.02,0c0,0,0,0-.02,0Z"/>
        <path class="cls-1-a13 first-color" d="m424.61,290.9s0,0,0-.02c0,0,.02.02,0,.02Z"/>
        <path class="cls-2-a13 first-color" d="m495.9,299.49c5.49.23,11.28-.4,17.09-1.56,6.6-3.76,3.73-9.62,11.55-22.04,8.3-13.19,19.53-13.73,20.1-13.75-.61.42-7.93,24.76-28.13,35.03,4.1-.97,8.17-2.17,12.11-3.52h0c8.78-6.33,15.02-13.07,15.87-14.01,4.23-23.9,13.75-38.16,21-45.92,7.9-8.46,14.71-11.18,15-11.3.16-.06.34-.05.49.04s.24.24.27.41c.04.36,1.08,8.82-2.82,20.21-3.59,10.48-12.25,25.44-33.06,37.25-.6.67-5.73,6.25-13.23,12.07,5.33-1.95,10.33-4.1,14.71-6.13,15.22-7.07,26.67-14.54,27.3-15.12,20.88-22.93,45.27-20.37,45.51-20.35.19.02.36.15.45.32s.06.39-.05.55c-.15.23-15.32,21.65-43.48,21.65-1.14,0-2.3-.03-3.48-.11-2.45,1.6-7.13,4.48-13.28,7.79,4.05-.51,12.4-1.48,26.91-2.84,9.49-.89,16.19.42,19.92,3.92,2.83,2.64,2.8,5.56,2.79,5.68,0,.3-.25.54-.55.54-.11,0-11.73.24-26.11,2.68-1.49.25-2.96.36-4.38.36-11.3,0-19.99-7.19-21.69-8.69-2.81,1.47-5.86,2.98-9.12,4.5-7.36,3.43-16.45,7.16-25.95,9.83,1.69.71,5.45,1.91,12.88,2.84,29.31-10.58,44.95-2.59,45.61-2.25.17.09.28.26.29.45.02.19-.06.38-.22.49-.15.11-10.58,7.87-25.21,7.87-6.25,0-13.28-1.42-20.58-5.45-10.02-1.24-13.54-2.98-14.4-3.5-7.28,1.94-14.74,3.22-21.81,3.22-.79,0-1.57-.02-2.34-.05-.31-.02-.54-.28-.54-.58,0-.32.25-.56.58-.54Z"/>
        <path class="cls-2-a13 first-color" d="m602.52,207.54c2.81-.46,5.53.26,7.66,1.8,2.14,1.54,3.69,3.89,4.15,6.69l.17,1.02,1.02-.17c2.81-.46,5.53.26,7.66,1.8,2.14,1.54,3.68,3.89,4.14,6.69.92,5.6-2.88,10.9-8.49,11.81l-1.02.17h0l-20.31,3.33-3.33-20.31h0l-.17-1.02c-.92-5.6,2.89-10.89,8.5-11.81Z"/>
      </g>
      <g>
        <path class="cls-2-a13 second-color" d="m231.55,548.22v32.72h-4.96l-18.89-22.7h-.05v22.7h-5.61v-32.72h4.96l18.89,22.7h.05v-22.7h5.61Z"/>
        <path class="cls-2-a13 second-color" d="m260.81,548.22h-5.11l-15.18,32.72h5.86l3.91-8.82h15.59l3.96,8.82h6.16l-15.19-32.72Zm-8.52,19.39l5.66-12.68h.3l5.61,12.68h-11.57Z"/>
        <path class="cls-2-a13 second-color" d="m284.97,580.94v-32.72h5.61v32.72h-5.61Z"/>
        <path class="cls-2-a13 second-color" d="m309.61,548.22v27.71h20.1v5.01h-25.7v-32.72h5.6Z"/>
        <path class="cls-2-a13 second-color" d="m376.81,574.19c2.25-2.25,4.46-4.96,6.61-8.22l-4.51-2.3c-1.75,2.9-3.61,5.31-5.46,7.16l-5.96-5.96c-.15-.15-.35-.36-.7-.66l-.8-.8c-.75-.75-1.35-1.4-1.85-1.95-1.46-1.65-2.21-3.06-2.21-4.11,0-.85.35-1.6,1-2.15.7-.66,1.61-.95,2.76-.95,1.25,0,2.51.24,3.75.75.95.41,1.85.9,2.7,1.55l2.81-4.4c-.66-.41-1.21-.75-1.76-1-.75-.36-1.45-.66-2.15-.91-1.76-.66-3.5-1-5.26-1-2.6,0-4.81.75-6.61,2.21-1.9,1.55-2.85,3.6-2.85,6.06,0,1.61.55,3.2,1.65,4.81-5.06,1.95-7.62,5.21-7.62,9.77,0,3.11,1.21,5.51,3.61,7.27,2.1,1.55,4.66,2.35,7.71,2.35,3.71,0,7.41-1.35,11.18-4.1l3.45,3.36h7.36l-6.86-6.77Zm-14.63,2.49c-1.65,0-3.06-.41-4.21-1.15-1.35-.91-2-2.16-2-3.75s.55-2.85,1.7-3.91c.75-.7,1.9-1.35,3.41-1.95l2,1.95,6.37,6.31c-2.6,1.65-5.01,2.51-7.27,2.51Z"/>
        <path class="cls-2-a13 second-color" d="m429.48,555.89c-1.1-1-2.55-1.85-4.35-2.51-2.25-.85-4.76-1.3-7.52-1.3-4.91,0-7.36,1.55-7.36,4.71,0,1.55,1,2.65,3.06,3.2.8.25,1.85.4,3.15.55l1.75.15,1.85.15,1.15.11,1.21.11c.9.05,1.7.15,2.46.25,1.95.3,3.55.75,4.91,1.35,3.56,1.55,5.36,4.35,5.36,8.32,0,3.75-1.4,6.56-4.26,8.47-2.55,1.65-5.91,2.51-10.17,2.51-3.91,0-7.52-.75-10.83-2.21-2.51-1.1-4.86-2.65-7.06-4.66l3.41-3.91c.8.75,1.6,1.4,2.35,1.95,1.05.75,2.1,1.35,3.2,1.91,2.76,1.35,5.76,2.05,9.02,2.05,2.55,0,4.61-.45,6.16-1.3,1.7-.95,2.55-2.3,2.55-4.05,0-1.91-.85-3.25-2.6-4.05-1.35-.66-3.61-1.1-6.86-1.35l-2.76-.19c-1-.11-1.91-.19-2.7-.3-2-.3-3.66-.7-4.96-1.25-3.36-1.35-5.01-3.75-5.01-7.27s1.45-6.21,4.35-7.96c2.3-1.4,5.26-2.1,8.82-2.1,3.15,0,6.21.55,9.17,1.61,2.35.85,4.35,1.91,5.91,3.15l-3.4,3.87Z"/>
        <path class="cls-2-a13 second-color" d="m472.82,551.68c-2.16-2.3-5.31-3.45-9.47-3.45h-18.04v32.72h5.61v-12.58h12.42c3.91,0,6.92-1,9.07-3.06,2.01-1.95,3.01-4.31,3.01-7.06,0-2.51-.85-4.72-2.6-6.57Zm-4.51,10.08c-.7.66-1.55,1.1-2.55,1.35-.41.1-.8.15-1.25.19-.35.05-.7.05-1.15.05h-12.42v-10.12h12.42c1.05,0,1.91.11,2.6.25,1,.3,1.85.8,2.51,1.5.91.95,1.35,2.05,1.35,3.31,0,1.35-.5,2.51-1.51,3.46Z"/>
        <path class="cls-2-a13 second-color" d="m498.68,548.22h-5.11l-15.18,32.72h5.86l3.91-8.82h15.59l3.96,8.82h6.16l-15.19-32.72Zm-8.52,19.39l5.66-12.68h.3l5.61,12.68h-11.57Z"/>
      </g>
      <g>
        <path class="cls-2-a13 second-color" d="m211.14,491.1c-9.1,25.72-20.39,40.47-31.05,40.47-5.17,0-8.94-1.57-11.45-4.4-3.61-4.23-4.55-11.45-3.14-21.48,2.51-14.91,10.04-36.23,16-53.33,8.16-22.43,12.71-37.01,10.98-40.47l-.47-.47h-.47c-29.96,0-56.15,77.32-62.89,104.45-.63,2.04-2.2,4.7-9.1,4.23-2.67-.15-4.7-1.09-5.96-2.51-1.25-1.73-1.09-3.45-.94-3.93.63-4.7,2.67-12.71,6.43-24.94,5.81-20.86,13.18-46.9,8.16-53.95-.79-1.25-2.04-1.88-3.76-1.88-2.98,0-5.81,1.09-8.16,3.14-2.35,2.2-3.76,4.7-3.93,7.22,0,.32-.32,1.73-1.25,2.35-.63.47-1.25.79-2.04.79-.32-.15-.79-.15-1.09-.63-.32-.47-.47-1.09-.47-2.2.32-3.45,2.51-7.37,5.81-10.35,3.61-3.29,8-5.17,12.08-5.17,7.69-.32,13.18,1.57,16.47,5.81,3.29,3.93,4.55,9.42,4.08,16.94l-.15,3.93,1.73-3.61c10.04-20.23,26.19-44.54,45.64-44.54,4.86,0,8.62,1.57,10.98,4.7,3.14,3.76,4.08,10.19,2.51,18.82-2.2,9.88-6.9,23.37-11.92,37.64l-.15.79c-9.25,26.19-18.82,53.17-10.35,57.72l.32.15.32-.15c4.23-1.41,12.86-7.84,22.74-35.92,0,0,.47-1.57,1.57-2.2.63-.47,1.41-.47,2.04-.32.47,0,.94.32,1.09.79.44.94-.02,2.2-.19,2.51Z"/>
        <path class="cls-2-a13 second-color" d="m264.14,486.55c-.15-.47-.47-.79-1.09-.94-.62-.47-.94-.31-1.57-.15l-.15.15c-.94.47-1.41,1.26-1.41,1.41l-.15.15c-.39.76-.78,1.51-1.17,2.25t0,.02c-4.38,8.19-9.07,14.69-13.25,18.29l-.79.79-.47-1.09c-.79-1.73-1.25-5.81,0-10.98,1.73-6.9,5.96-15.21,9.42-20.23.47-.94.62-1.73.47-2.51-.15-1.57-1.73-2.51-2.98-3.14-3.14-1.57-5.49-2.04-7.22-1.41l-.63.32-.32-.63c-1.88-3.76-5.33-5.64-10.04-5.64-9.88,0-25.72,12.39-28.85,32.63-.11.8-.19,1.57-.24,2.32h0c-.24,3.45.11,6.24,1.14,8.4.36.74.79,1.4,1.31,2,2.2,2.51,5.17,2.98,6.9,2.98,4.55,0,9.88-4.23,15.68-12.71l1.73-2.35-.32,2.98c-.47,6.43.31,10.66,2.35,13.33,1.41,1.73,3.61,2.51,6.11,2.51,5.36,0,11.09-4.18,17.05-12.51,2.75-3.84,5.54-8.56,8.36-14.16.32-.48.47-1.42.15-2.04Zm-25.72-13.97c-3.14,7.06-12.08,23.21-18.98,30.58l-1.25,1.25-.15-1.73c-.15-1.41-.15-3.45.32-6.59,2.51-15.06,13.49-24.31,18.67-25.72l.63-.15.94,2.04-.18.32Z"/>
        <path class="cls-2-a13 second-color" d="m349.16,488.11c-2.51,9.88-13.33,37.8-30.11,37.8-3.45,0-6.28-1.57-8.16-4.4-3.29-4.86-3.13-13.18.63-23.53,1.57-4.55,3.29-8.94,5.02-12.86l.47-1.09c2.2-5.33,4.08-9.88,5.02-13.96.79-3.45.94-5.81.63-7.06l-.32-.79-.79.32c-6.43,2.51-15.37,18.04-20.7,31.52-.15.94-.32,1.88-.63,2.98l-.63,1.88c-1.57,5.02-3.45,10.66-9.1,10.35-2.51-.32-4.08-1.25-5.17-2.82-2.2-3.61-.15-11.3,2.82-21.01,4.08-12.39,6.74-21.01,7.06-26.82l.15-1.41-1.25.79c-7.37,3.76-16.79,21.65-21.96,36.86l-.94,3.29c-2.82,11.13-4.4,15.99-10.98,15.99-1.73,0-2.98-.47-3.93-1.41-1.73-1.88-1.25-5.49-.94-8v-.47c.32-2.67,6.74-30.27,8.16-35.45.47-1.73,1.57-3.29,3.45-4.4,2.35-1.57,5.02-2.2,7.69-1.73,2.51.47,4.08,2.35,4.55,3.93l.47,1.88.94-1.57c5.81-9.72,11.92-14.91,17.72-14.91,3.29,0,5.81.94,7.53,2.98,2.2,2.51,3.29,6.74,2.67,11.61l-.32,2.82,1.73-2.35c5.02-6.43,9.88-9.72,14.43-9.72,3.61,0,6.28,1.09,8.31,3.29,2.51,2.98,3.45,7.69,2.67,13.65-.79,5.81-3.29,11.92-6.28,18.67v.15c-4.23,9.88-8.16,19.13-4.86,26.35l.32.79.79-.47c8.31-4.55,15.68-19.92,19.13-32.31.15-.15.47-1.25,1.25-1.73.47-.32,1.09-.63,2.2-.79,1.09.32,1.25.79,1.41.79.33.95.02,1.74-.14,2.36Z"/>
        <path class="cls-2-a13 second-color" d="m386.96,486.39c-.16-.47-.47-.79-1.09-.94h-.32c-.32-.32-.79-.32-1.57.15-1.09.63-1.73,1.73-1.73,1.73-3.61,7.37-11.13,16.78-19.45,19.6h-.47c-3.93-.79-8.47-6.74-6.59-15.84v-.47l.47-.15c9.88-2.04,20.4-8.63,21.96-17.25.32-2.67-.16-5.02-1.73-6.59-1.41-1.88-4.08-2.82-6.9-2.82-14.9,0-25.88,18.19-27.29,27.61-.21,1.36-.34,2.68-.41,3.93h0c-.17,3.42.21,6.42,1.16,8.95.54,1.47,1.29,2.78,2.22,3.9,2.51,2.82,6.28,4.4,11.3,4.4,14.58,0,26.03-15.53,29.96-23.84l.15-.15c.15-.17.62-1.27.31-2.21Zm-28.71-2.51c3.14-6.28,7.84-11.13,13.49-13.65l.63-.32.47.63c.47.79.62,1.88.47,2.98-.94,4.7-7.69,9.25-14.11,11.45l-1.73.63.78-1.73Z"/>
        <path class="cls-2-a13 second-color" d="m531.26,413.15c-1.09,5.49-4.86,9.42-7.84,11.61-.94.63-3.14,2.04-4.4,2.35-.15,0-.32,0-.47.15-.63.15-1.88.32-2.82-.15-.47-.15-.63-.79-.63-.94,0-.63.15-1.41.47-1.73l.15-.32c.47-.79,1.57-1.25,2.04-1.41.15,0,.32-.15.32-.15,1.25-.47,7.22-2.98,8.47-9.57.32-1.25,0-2.51-.94-3.76-1.57-2.04-4.86-3.45-8.78-3.61-14.91-.63-28.85,3.29-37.95,6.28l-.47.15v.32c-1.57,3.93-35.92,95.99-27.14,113.08l.32.63.63-.15c14.11-4.23,23.84-32.15,24.94-35.29l.15-.47c0-.15.47-1.41,1.73-1.88.15-.15.94-.63,1.73-.32.94.32,1.25.63,1.25.94.32.94-.15,2.35-.32,2.51l-.15.15-.15.32c0,.15-7.69,26.5-22.89,36.07-3.61,2.2-7.22,3.29-10.82,3.29-1.41,0-2.82-.15-4.4-.47-2.98-.79-5.17-2.35-6.74-5.17-7.53-12.86,2.51-46.11,9.88-70.42,4.4-14.74,8.78-27.45,11.3-34.35l.63-1.73-1.57.63c-13.96,5.17-25.72,8.62-37.64,8.78-4.86,0-8.47-1.41-10.51-4.08-2.2-2.82-1.73-5.96-1.41-7.06v-.15c0-.32.32-1.73.94-2.67.63-1.41,2.2-2.67,3.76-2.2.47,0,.79.32.94.94.15.79-.15,1.73-.47,2.35,0,.15-.15.32-.15.63,0,.15-.15.15-.15.32,0,.32-.15.47-.15.79-.32,1.09-.63,2.35.47,3.61,1.25,1.41,4.08,2.51,7.84,2.67,13.02,0,27.45-5.49,40.15-10.19,18.98-7.22,37.64-13.49,57.87-12.55,4.7.15,8.94,2.04,11.3,4.86,1.69,2,2.32,4.52,1.69,7.34Z"/>
        <path class="cls-2-a13 second-color" d="m519.33,486.39c-.16-.47-.47-.79-1.09-.94h-.32c-.17-.17-.39-.24-.67-.21-.24.03-.54.15-.89.36-1.09.63-1.73,1.73-1.73,1.73-3.61,7.37-11.13,16.78-19.45,19.6h-.47c-3.93-.79-8.47-6.74-6.59-15.84v-.47l.47-.15c9.88-2.04,20.4-8.63,21.96-17.25.32-2.67-.16-5.02-1.73-6.59-1.41-1.88-4.08-2.82-6.9-2.82-14.9,0-25.88,18.19-27.29,27.61-.36,2.42-.51,4.66-.41,6.73h0c.13,2.88.71,5.41,1.76,7.53.45.92,1,1.77,1.63,2.53,2.51,2.82,6.28,4.4,11.3,4.4,14.01,0,25.12-14.31,29.45-22.81t0,0c.19-.36.36-.69.51-1.02l.15-.15c.15-.17.62-1.27.3-2.21Zm-28.7-2.51c3.14-6.28,7.84-11.13,13.49-13.65l.63-.32.47.63c.47.79.62,1.88.47,2.98-.94,4.7-7.69,9.25-14.11,11.45l-1.73.63.78-1.73Z"/>
        <path class="cls-2-a13 second-color" d="m563.09,488.58v.15c-1.73,4.86-10.19,29.49-24.31,29.96-4.23,0-8.31-3.14-12.39-9.25l-.63-.94-.63.94c-4.55,6.11-9.1,9.25-13.49,9.25-3.76,0-5.34-2.35-5.49-4.4-.15-1.09.32-2.82,1.88-3.45.94-.15,1.41-.15,1.88.15.94.47,1.09,1.73,1.09,1.73v.32l.32.32c.15.15.63.47,1.09.47,3.14,0,6.43-3.14,10.66-9.88l.15-.32-.15-.32c-4.7-10.51-7.37-23.37-7.84-31.69,0-.79,0-3.45,1.88-5.49,1.25-1.41,3.29-2.2,5.64-2.2,4.55,0,7.06,2.98,8.16,9.57l.32.63c.47,2.82,1.09,6.43,1.73,10.35l.32,2.2,1.09-1.88c5.64-9.25,11.76-17.72,19.6-17.72,3.93,0,5.96,2.04,5.96,4.08.15,1.41-.79,2.35-1.73,2.82-2.04.79-2.51-.15-2.98-.94-.47-.79-.94-1.09-2.2-1.09-4.86,0-9.88,7.84-15.84,18.35l-2.04,3.45.15.32c1.88,7.69,4.4,13.8,7.06,18.35l.47.79.79-.47c6.43-4.4,12.86-19.45,14.74-24.94,0,0,.47-1.41,1.73-2.2.47-.47,1.09-.47,1.88-.32.34,0,1.6.31,1.12,3.28Z"/>
        <path class="cls-2-a13 second-color" d="m614.85,440.59c0,.47,0,1.57-.94,2.51-.32.32-.63.63-1.73.63-.63.15-1.09,0-1.57-.32-.32-.32-.63-.94-.63-1.57,0-1.41-.94-3.93-7.53-4.08-3.14-.15-6.43.47-9.72,1.25l-1.73.32-.15.32c-9.57,20.7-28.7,69.64-22.43,80.93l.47.79.63-.47c12.08-7.06,19.13-29.64,19.92-32.15l.32-.15v-.47l.15-.47.15-.15c.15-.47.47-.94.79-1.09.63-.32,1.25-.63,1.88-.47.94,0,1.41.47,1.73.94.15.63,0,1.09,0,1.41l-.15.32c0,.32-11.3,38.59-31.05,38.59h-.47c-2.98-.15-5.33-1.57-6.74-4.08-5.64-9.25,0-36.86,15.84-77.64l.47-1.41-1.41.32c-2.35.32-4.23.63-6.28.63-4.86,0-7.22-1.88-8.31-3.29-1.25-1.25-1.57-2.98-1.25-5.17s1.88-4.55,3.45-5.96l.32-.15c.47-.32,1.73-.94,2.82-.63.32,0,.63.15.94.63.32.94.32,1.88-.32,2.67-.32.47-.79.79-1.09,1.09-.15,0-.32.15-.47.32-.32.32-.79.94-.94,1.88v.15c0,.63,0,1.25.47,1.88.32.47,1.57,1.73,5.64,1.73,2.82,0,5.34-.32,8.16-1.09h.32l.15-.47c3.45-7.84,5.34-12.23,6.28-13.8,1.25-2.2,2.51-4.4,4.86-5.17,1.73-.79,4.08-.63,6.9.47,2.51,1.09,4.08,2.51,4.4,4.23.63,2.67-.79,5.64-2.35,8.16l-.79,1.57,1.73-.32c2.82-.63,5.33-.79,8-.79,4.22.12,11.28,1.37,11.28,7.65Z"/>
      </g>
    </g>
  </g>
</svg>