<svg id="Layer_1" data-name="Layer 1" xmlns="http://www.w3.org/2000/svg" viewBox="0 0 700 700">
  <defs>
    <style>
      .cls-1s-f07 {
        fill: #231f20;
      }
    </style>
  </defs>
  <path class="cls-1s-f07 second-color" d="m434.59,387.82c-2.93-3.49-6.01-6.9-8.54-10.67-6.83-10.14-13.44-20.42-20.04-30.72-.94-1.47-1.74-1.69-3.28-1.07-4.61,1.84-8.62,4.48-11.77,8.33-6.23,7.61-8.19,16.56-8.33,26.15-.1,7.16,2.87,12.57,8.66,16.59,6.15,4.27,13.03,6.79,20.29,8.34,14.05,3,28.31,3.53,42.61,3.46,4.84-.02,4.84,0,5.46-5.19-1.13-.4-2.12-.77-3.12-1.1-8.52-2.83-16.09-7.15-21.93-14.12Z"/>
  <path class="cls-1s-f07 first-color" d="m329.79,611.98c-.02,5.94,4.59,10.55,10.5,10.52,5.78-.03,10.4-4.65,10.41-10.42.01-5.84-4.74-10.61-10.54-10.57-5.76.05-10.36,4.68-10.38,10.46Z"/>
  <path class="cls-1s-f07 first-color" d="m72.03,327.04c-4.93-13.54-9.87-27.08-14.63-40.69-1.93-5.51-3.22-11.24-5.17-16.74-1.96-5.52-5.13-10.35-9.94-13.9-3.47-2.57-7.27-2.29-10.26.82-.99,1.03-1.81,2.25-2.55,3.47-2.88,4.78-2.73,9.99-2.02,15.26,1.78,13.31,7.93,24.6,16.25,34.85,8.54,10.53,18.76,19.24,29.74,27.12.79.56,1.6,1.7,1.64,2.61.72,18.18,2.89,36.19,6.3,54.05.26,1.34.44,2.7.65,4.05-1.18-.8-1.99-1.7-2.65-2.69-5.55-8.35-10.88-16.85-16.65-25.05-4.49-6.38-9.17-12.71-14.41-18.48-5.58-6.14-13.96-3.86-16.48,4.02-1.05,3.29-.96,6.6.19,9.85,2.46,6.97,6.69,12.77,12.09,17.71,9.08,8.3,19.48,14.45,30.98,18.79,2.41.91,4.8,1.93,7.04,3.18.91.51,1.81,1.66,2.04,2.68,4.69,20.22,10.54,40.08,18.14,59.4,1.43,3.63,2.88,7.25,4.54,11.42-1.64-1.62-2.79-2.83-4.01-3.96-3.85-3.56-7.86-6.95-11.57-10.65-6.17-6.18-11.97-12.74-18.27-18.78-5.83-5.59-12.64-9.71-20.77-11.23-11.67-2.17-20.26,6.49-17.11,17.33,1.62,5.56,4.5,10.44,8.52,14.63,6.93,7.24,15.65,11.39,24.99,14.45,13.15,4.3,26.81,5.94,40.46,7.63,1.65.2,2.5.83,3.21,2.29,7.4,15.03,15.45,29.7,24.52,43.8,4.52,7.03,9.25,13.92,13.9,20.86.73,1.09,1.55,2.11,2.33,3.16-1.08-.24-1.89-.75-2.7-1.25-9.53-5.97-18.93-12.15-28.62-17.84-7.02-4.13-14.54-7.24-22.86-7.89-8.84-.69-13.44,5.24-10.19,13.48.96,2.43,2.37,4.78,3.98,6.85,5.37,6.92,12.56,11.4,20.57,14.62,15.57,6.25,31.67,6.66,47.98,3.98,1.94-.32,3.1.2,4.38,1.45,4.87,4.8,9.79,9.55,14.73,14.27.76.73,1.63,1.44,2.58,1.82.62.25,1.79.17,2.17-.26.42-.47.48-1.58.24-2.25-.26-.72-1.01-1.3-1.61-1.87-4.42-4.28-9.01-8.4-13.27-12.84-11.82-12.32-22.55-25.5-31.26-40.25-.99-1.67-1.29-3.16-.55-4.9,2.34-5.51,4.18-11.3,7.12-16.47,5.77-10.16,12.13-20,18.28-29.94,5.1-8.24,6.8-17.31,6.43-26.82-.16-4.12-1.21-8.18-5.39-10.12-4.2-1.94-8.09-.19-11.15,2.53-3.31,2.94-6.51,6.25-8.88,9.96-8.6,13.44-11.55,28.6-12.34,44.25-.34,6.71-.06,13.46-.06,20.36-.45-.72-.91-1.39-1.3-2.09-4.14-7.52-8.37-14.98-12.37-22.58-7.33-13.94-13.7-28.27-17.59-43.61-.38-1.52-.16-2.59.91-3.69,2.59-2.67,4.96-5.58,7.67-8.12,10.19-9.58,20.3-19.25,30.81-28.48,6.63-5.82,11.32-12.63,13.59-21.07.7-2.6,1.05-5.4.93-8.08-.21-4.63-3.14-7.61-7.5-8.07-1.56-.17-3.22-.12-4.76.19-9.08,1.84-15.9,7.35-21.89,13.99-10.69,11.85-16.54,26.04-19.52,41.54-.93,4.85-1.79,9.72-2.68,14.57-.68-.43-.89-.82-1.02-1.24-5.54-17.62-9.7-35.57-13.42-53.67-1.32-6.41.3-10.51,4.81-14.68,6.64-6.14,14.43-10.28,22.35-14.35,7.89-4.06,15.89-7.96,23.47-12.55,9.96-6.03,15.66-15.24,17.71-26.69.27-1.5.57-3.01-1.12-4.02-4.17-2.5-8.63-3.67-13.5-3.21-6.07.57-11.52,2.87-16.4,6.34-18.15,12.89-30.44,30.29-38.53,50.84-.27.68-.52,1.37-.78,2.05-.93-4.23-1.64-8.29-1.83-12.38-.84-17.83-1.29-35.69-2.43-53.5-.35-5.37,1.49-8.51,5.98-10.52,7.26-3.25,14.58-6.37,21.89-9.51,6.75-2.9,13.65-5.5,20.26-8.7,8.31-4.01,13.32-11.33,17.61-19.14,1.7-3.09,1.01-6.11-1.63-8.46-2.97-2.64-6.5-3.91-10.49-3.47-6.42.71-12.44,2.77-18.1,5.82-13.98,7.54-23.93,18.98-31.41,32.77-1.13,2.09-2.17,4.23-3.24,6.35,1.6-13.88,3.35-27.66,5.44-41.4.89-5.83,2.23-11.63,3.86-17.3,1.86-6.46,6.28-10.65,13.12-11.35,6.33-.65,12.72-.82,19.09-1.02,10.56-.33,21.12-.38,31.68-.81,4.57-.18,8.79-1.71,12.03-5.23,3.54-3.85,3.58-8.91-.36-12.33-1.94-1.68-4.45-2.97-6.92-3.72-5.93-1.78-12.06-1.29-18.11-.56-16.11,1.94-30.56,7.72-42.5,19.03-.17.16-.4.26-.95.61.37-1.05.59-1.68.82-2.3,4.59-12.66,11.58-24.05,18.6-35.44,1.15-1.86,2.44-2.46,4.58-2.47,8.37-.03,16.41,2.03,24.56,3.47,7.87,1.4,15.76,2.53,23.78,1.62,4.57-.52,8.75-2.01,11.86-5.63,3.06-3.56,3.1-5.1,0-8.56-5.09-5.66-11.84-7.44-19.1-7.72-11.58-.44-22.42,2.48-32.74,7.54-2.62,1.28-5.11,2.82-8.09,4.48,8.17-12.05,16.67-23.21,26.94-32.91,1.98-1.87,3.89-4.16,6.3-5.18,5.27-2.23,10.78-3.95,16.29-5.55,8.89-2.58,18-4.46,26.26-8.88,5.29-2.83,10.1-6.27,13.33-11.46,3.12-5.02,1.62-9.49-3.94-11.44-5.95-2.09-11.87-1.74-17.37,1.49-10.03,5.9-18.86,13.32-26.73,21.86-6.12,6.63-11.32,14.08-18.37,19.9-3.67,3.03-6.78,6.74-10.1,10.19-.94.98-1.73,2.11-2.81,3.46,1.35-6.67,2.62-12.91,3.88-19.16,1.45-7.15,3.13-14.28,2.77-21.64-.27-5.55-1.62-10.71-6.44-14.2-.74-.53-1.82-.99-2.67-.89-5.24.62-9.42,3.12-10.89,8.33-1.11,3.96-1.99,8.26-1.62,12.29.72,7.91,2.29,15.75,3.67,23.59,1.11,6.27,2.47,12.49,3.7,18.74.41,2.1-.11,3.82-1.43,5.67-4.29,5.99-8.35,12.14-12.37,18.32-2.63,4.05-5.04,8.25-7.79,12.79,0-1.06-.06-1.64.01-2.2.63-4.74,1.37-9.47,1.93-14.22.96-8.1,1.28-16.22-.24-24.3-.85-4.5-2.07-8.92-5.45-12.31-2.96-2.97-6.56-2.75-8.94.67-1.1,1.58-1.89,3.48-2.4,5.35-1.35,4.92-1.06,9.94-.32,14.93,1.81,12.13,6.63,23.15,12.44,33.8.79,1.45.94,2.62.22,4.2-8.05,17.78-15.82,35.67-18.5,55.93-.38-1.28-.6-1.91-.75-2.55-1.98-8.59-1.96-17.33-2.08-26.07-.12-8.81-.28-17.62-.77-26.41-.37-6.55-2.86-12.42-7.46-17.21-4.08-4.25-8.99-3.79-11.87,1.35-1.6,2.86-2.75,6.13-3.32,9.36-1.95,10.97-.05,21.64,3.32,32.09,4.37,13.53,11.42,25.61,20.08,36.82.62.8,1.19,2.1,1,3.01-2.38,11.84-2.94,23.82-2.93,35.84.01,7.9.36,15.8.53,23.7.01.46-.15.92-.33,1.93-1.04-1.89-1.99-3.2-2.52-4.66Zm-34.71-70.23c2.82.42,4.7,2.03,6.41,3.88,3.84,4.15,6.35,9.14,8.09,14.4,3.69,11.16,6.93,22.47,10.55,33.66,2.07,6.4,4.52,12.67,6.59,18.45-7.69-6.67-29.72-55.06-31.64-70.39Zm.86,93.73c4.29-.68,7.81.81,10.39,3.77,3.69,4.21,7.62,8.44,10.26,13.3,5.13,9.47,11.45,18.04,17.87,26.59.58.77,1.08,1.59,1.8,2.66-8.8-5.43-37.6-38.55-40.33-46.33Zm3.85,88.65c5.42-1.99,10.52-1.8,15.59.02,6.44,2.31,11.64,6.51,16.37,11.28,6.25,6.31,12.27,12.85,18.48,19.2,1.8,1.84,3.93,3.33,5.87,5.04,1.82,1.6,3.58,3.26,5.18,5.13-22.11-10.96-44.36-21.68-61.5-40.67Zm52.24,95.88c4.49-1.16,8.65-.87,12.52.53,4.82,1.75,9.61,3.77,14.04,6.31,7.63,4.37,14.98,9.22,22.44,13.88.56.35,1.06.77,1.59,1.16-17.64-5.23-36.11-8.47-50.59-21.88Zm44.7-24.26c.19-1.12.28-2.29.69-3.34,1.86-4.79,3.37-9.77,5.81-14.25,6.05-11.12,10.4-22.9,14.59-34.77,1.43-4.05,2.92-8.08,4.58-12.67,3.85,8.37,3.94,16.27.44,23.82-2.88,6.22-6.48,12.17-10.26,17.91-5.66,8.6-12.26,16.61-16.26,26.38.14-1.02.24-2.05.42-3.06Zm12.87-130.82c.61,6.15-.63,11.36-3.28,16.25-4.01,7.37-10.22,12.73-16.59,17.92-7.26,5.93-14.52,11.86-21.28,17.38,12.14-17.55,24.39-35.95,41.16-51.55Zm-48.91-23.77c4.03-3.92,8.09-7.82,12.27-11.57,1.56-1.4,3.46-2.45,5.28-3.52,10.28-6.03,20.82-11.67,29.62-19.9.15-.14.39-.18.62-.28-1.79,11.09-8,19.16-17.3,24.78-6.02,3.64-12.49,6.53-18.78,9.71-7.23,3.66-14.48,7.27-21.77,10.92,3.27-3.3,6.6-6.78,10.05-10.14Zm9.28-85.1c7.12-3.74,14.27-7.43,21.31-11.34,2.68-1.49,5.07-3.53,7.93-5.56-1.11,6.34-3.93,11.47-8.64,15.16-4.14,3.25-8.61,6.4-13.41,8.45-10.65,4.53-21.6,8.34-32.48,12.33,8.2-6.68,15.84-14.07,25.3-19.03Zm4.16-56.08c9.56-1.21,19.21-1.72,28.79-2.83,6.61-.77,13.16-2.06,19.92-3.16-.27,2.22-.99,4.66-3.32,5.8-2.82,1.38-5.85,2.92-8.89,3.16-8.91.72-17.88.96-26.82,1.16-7.65.17-15.31.04-22.97.04l-.17-.84c4.48-1.14,8.91-2.76,13.47-3.33Zm17.32-40.56c10.26,0,20.51.33,30.77.27,4.98-.03,9.96-.66,15.1-1.03-2.61,4.58-6.88,6.46-11.82,6.95-8.32.83-16.51-.6-24.68-1.93-5.97-.97-11.94-1.93-17.99-3.38,2.87-.31,5.75-.88,8.62-.88Zm72.02-72.09c1.42,2.94,1.17,5.83-1.52,8.15-2.84,2.45-5.94,4.94-9.37,6.28-8.68,3.38-17.6,6.12-26.44,9.1-.25.08-.55.01-1.4.01,12.94-8.47,24.02-18.97,38.73-23.54Zm-78.41-1.33c4.24,3.69,5.72,8.01,5.61,12.61-.13,5.27-.75,10.58-1.68,15.78-1.47,8.27-3.36,16.46-5.44,24.65-.09-8.79.47-17.54,1.27-26.29.8-8.7-.98-17.48.24-26.75Zm-34.09,44.73c4.21,2.84,6.33,7,7.45,11.75,1.62,6.84.98,13.75.32,20.63-.37,3.84-.89,7.67-1.31,11.25-2.12-14.35-4.28-28.93-6.46-43.64Zm-29.6,41.5c3.23,1.1,5.47,3.04,6.45,5.73,1.55,4.24,3.24,8.65,3.54,13.08.65,9.6.29,19.26.68,28.88.26,6.35,1.11,12.68,1.69,19.01.03.37.07.74.1,1.11-7.64-21.82-8.91-44.81-12.46-67.8Z"/>
  <path class="cls-1s-f07 second-color" d="m223.68,153.91c4.61.91,9.22,1.91,13.71,3.29,6.75,2.07,10.75,6.91,11.56,13.85.79,6.7,1.28,13.47,1.3,20.21.1,42.82.06,85.63,0,128.45-.01,9.96-.05,19.92-.38,29.87-.46,13.82-4.54,18.77-17.9,22.34-3.36.9-6.76,1.66-10.2,2.5v5.62h100.63v-5.21c-6.23-2.01-12.23-3.66-18.01-5.89-4.83-1.87-7.94-5.8-8.76-10.9-.89-5.53-1.55-11.15-1.59-16.74-.16-21.9-.04-43.8-.01-65.71,0-.8.1-1.6.16-2.59,2.49,0,4.76-.04,7.03,0,7.07.15,12.84,2.95,16.92,8.78,2.09,2.98,4.02,6.08,5.77,9.27,4.04,7.4,7.86,14.91,11.88,22.32,3.4,6.27,6.94,12.45,10.64,19.05,1.34-1.63,2.71-2.81,3.48-4.3,6.53-12.69,12.92-25.45,19.42-38.16.68-1.33.58-2.29-.16-3.54-2.96-4.96-5.81-9.98-8.68-14.99-1.5-2.62-2.97-5.26-4.57-8.1,1.14-.53,2.08-.98,3.02-1.4,7.87-3.54,15.19-7.94,21.82-13.51,21.96-18.43,24.56-47.27,16.11-66.66-6.3-14.46-17.94-23.08-32.32-28.3-12.89-4.67-26.41-5.61-39.97-5.66-33.46-.11-66.93-.04-100.39-.04h-2.54c0,1.46.11,2.61-.03,3.72-.2,1.65.47,2.11,2.07,2.42Zm70.28,108.21c0-.07,0-.15,0-.23v-47.66c0-14.75,0-29.49,0-44.24,0-9.84,2.39-12.55,12.05-13.72,20.71-2.5,37.16,8.23,43.64,29.06,5.19,16.68,5.47,33.7,1.05,50.6-4.28,16.38-16.21,26.29-33.01,27.79-7.1.63-14.26.54-21.38.9-1.99.1-2.59-.7-2.36-2.5Z"/>
  <path class="cls-1s-f07 first-color" d="m350.71,88.05c.05-5.88-4.59-10.55-10.5-10.56-5.79,0-10.4,4.58-10.41,10.38-.02,5.9,4.67,10.65,10.46,10.6,5.75-.05,10.41-4.69,10.46-10.43Z"/>
  <path class="cls-1s-f07 first-color" d="m656.44,264.59c-5.08,4.37-7.94,10.12-9.94,16.34-3.41,10.62-6.63,21.29-10.07,31.9-2.76,8.52-5.44,17.08-9.95,24.91-.29.51-.67.97-.92,1.31,0-10.56.31-21.05-.09-31.52-.36-9.17-1.37-18.32-2.44-27.44-.29-2.46-.03-4.17,1.49-6.16,12.17-15.96,21.06-33.39,23.09-53.7.72-7.16.52-14.3-2.44-21.05-3.53-8.06-9.83-8.73-15.02-1.64-3.95,5.39-5.8,11.53-5.98,18.11-.3,10.41-.33,20.82-.5,31.23-.11,6.74-.67,13.43-2.59,20.59-.82-4.16-1.43-7.74-2.23-11.27-3.52-15.5-9.88-29.96-16.4-44.35-.7-1.54-.7-2.69.13-4.21,5.99-10.98,10.99-22.36,12.63-34.92.74-5.62.87-11.24-1.32-16.62-1.06-2.59-2.59-4.98-5.76-5.23-3.03-.23-5.14,1.61-6.35,4.06-1.5,3.03-2.86,6.23-3.6,9.51-1.99,8.87-1.32,17.84-.28,26.77.56,4.81,1.33,9.59,2.08,14.97-.66-.89-.99-1.28-1.26-1.71-6.68-10.33-13.38-20.65-20.01-31.01-.48-.76-.81-1.87-.66-2.73,1.07-6.43,2.13-12.86,3.48-19.23,1.94-9.14,4.24-18.22,4.02-27.66-.12-5.01-.52-10.16-4.38-13.76-6.16-5.76-11.19-5.62-15.26,2.05-.49.93-1.03,1.96-1.1,2.97-.33,4.52-1.21,9.15-.57,13.55,1.49,10.2,3.75,20.3,5.7,30.43.14.74.27,1.48.34,1.88-5.57-5.46-11.22-10.95-16.82-16.49-2.2-2.18-4.5-4.33-6.4-6.76-9.65-12.34-20.9-22.9-34.37-30.95-6.07-3.62-12.56-3.97-18.99-1.01-4.09,1.88-5.23,5.49-3.22,9.51.87,1.74,2.08,3.36,3.4,4.8,5.61,6.12,12.81,9.72,20.57,12.12,8.63,2.67,17.41,4.84,26.04,7.49,2.91.89,5.96,2.12,8.28,4.02,12.47,10.22,22.02,23.01,31.37,36.66-.73-.23-.95-.26-1.11-.36-10.21-6.63-21.42-10.38-33.52-11.39-7.87-.66-15.62-.04-22.18,4.92-7.44,5.62-7,8.74.95,14.42.91.65,2.03,1.14,3.12,1.35,3.04.58,6.16,1.54,9.18,1.34,7.41-.49,14.78-1.5,22.16-2.4,7.38-.9,14.74-1.92,22.11-2.88,1.85-.24,3.07.48,4.05,2.17,3.06,5.25,6.56,10.26,9.39,15.63,3.77,7.15,7.06,14.55,10.55,21.85-.21.12-.42.24-.63.36-.5-.4-1.03-.78-1.51-1.2-15.33-13.64-33.51-19.13-53.73-18.67-3.99.09-7.85,1.02-11.25,3.25-5.86,3.85-6.17,10.69-.71,15.1,2.99,2.42,6.5,3.74,10.29,3.85,12.23.38,24.46.57,36.69.88,3.95.1,7.9.25,11.84.53,8.22.58,13.82,4.61,16.13,12.71.77,2.7,1.66,5.4,2.08,8.16,2.06,13.67,3.99,27.36,5.96,41.04.38,2.64.7,5.29,1.04,7.93-.68-.34-.91-.79-1.13-1.24-3.31-6.96-7.33-13.49-12.29-19.4-9.47-11.3-20.86-19.62-35.5-23-4.92-1.13-9.5-.92-13.68,2.15-3.48,2.56-4.24,6.31-2.02,10.04.58.98,1.4,1.82,1.92,2.82,4.01,7.84,10.28,13.4,18.12,17,6.82,3.13,13.9,5.69,20.92,8.34,8.04,3.04,16.12,5.98,22.88,11.51.78.64,1.35,1.97,1.39,3.01.11,2.88-.18,5.77-.2,8.65-.16,18.7-.71,37.38-2.85,55.98-.22,1.9-.54,3.79-.81,5.68-.68-.96-.98-1.89-1.32-2.81-5.32-14.23-13.61-26.6-23.82-37.73-6.36-6.94-13.44-13.02-22.28-16.66-7.07-2.91-14.11-3.25-21.12.41-2.08,1.09-2.7,2.58-2.16,4.61.86,3.22,1.67,6.49,2.9,9.58,3.48,8.74,10.1,14.79,18.05,19.26,8.13,4.57,16.58,8.59,24.9,12.81,8.21,4.16,15.77,9.14,21.68,16.35,1.21,1.47,2,2.81,1.65,4.9-3.34,19.87-8.02,39.42-14.08,58.64-.18.56-.42,1.1-.63,1.65-1.51-5.31-2.4-10.62-3.49-15.88-3.39-16.5-10.01-31.38-22.25-43.31-5.57-5.43-11.83-9.8-19.77-11.07-6.47-1.03-11.27,2.33-11.38,8.28-.17,8.9,3.09,16.85,8.96,23.23,5.95,6.46,12.96,11.94,19.32,18.04,8.33,7.99,16.48,16.18,24.72,24.27,1.07,1.05,1.44,2.1.92,3.64-2.03,6.04-3.67,12.22-5.91,18.17-6.48,17.19-15.56,33.1-24.61,49.01-.22.39-.52.73-1.06,1.46.87-11.37.73-22.21-.9-33.01-1.74-11.53-5.01-22.53-11.38-32.42-3.04-4.71-6.61-8.96-11.78-11.46-6.14-2.98-11.51-.6-12.85,6.07-1.93,9.57-.31,18.91,4.26,27.36,4.62,8.54,10.24,16.52,15.34,24.8,4.91,7.97,9.29,16.22,11.75,25.32.29,1.07.11,2.58-.45,3.54-11.83,20.29-27.15,37.68-44.42,53.45-.72.66-1.54,1.35-1.92,2.2-.28.63-.17,1.8.26,2.25.4.41,1.59.46,2.2.17,1.07-.51,2.05-1.31,2.92-2.14,4.94-4.73,9.86-9.47,14.72-14.28,1.06-1.05,1.97-1.44,3.57-1.17,10.55,1.8,21.16,2.25,31.77.58,11.98-1.89,23.1-5.88,32.39-13.99,4.36-3.8,7.97-8.17,9.49-13.91,1.52-5.75-1-10.11-6.53-11.18-1.54-.3-3.17-.32-4.76-.25-6.76.3-13.04,2.55-18.76,5.85-10.65,6.14-21.02,12.78-31.5,19.22-1.07.66-2.1,1.37-3.15,2.05-.06-.66.16-1.01.38-1.35,6.57-9.89,13.55-19.54,19.62-29.73,7.22-12.13,13.63-24.73,20.48-37.08.5-.91,1.6-1.91,2.56-2.07,5.85-.94,11.75-1.55,17.6-2.46,11.28-1.76,22.41-4.14,32.85-8.99,9.03-4.2,16.72-9.94,21.44-18.98,2.01-3.86,3.61-7.83,3-12.4-.96-7.2-6.09-11.79-13.3-11.69-4.73.06-9.15,1.35-13.34,3.44-6.7,3.33-12.25,8.19-17.35,13.54-7.6,7.98-14.81,16.33-23.36,23.36-1.46,1.2-2.58,2.8-3.86,4.21l-.51-.44c.12-.34.23-.68.37-1.01,8.72-21.01,15.91-42.53,20.73-64.76,1.15-5.3,3.76-7.91,8.55-9.42,7.51-2.37,14.37-6.14,20.97-10.37,8.87-5.69,16.73-12.41,21.77-21.91,1.87-3.52,3.34-7.18,2.93-11.3-.45-4.48-2.01-8.44-6.51-10.15-4.41-1.67-8.38-.17-11.24,3.32-4.81,5.86-9.52,11.83-13.87,18.04-5.32,7.59-10.19,15.48-15.31,23.2-1.12,1.69-2.47,3.23-3.72,4.84.25-3.22.84-6.19,1.36-9.18,2.78-15.96,4.73-32.02,5.27-48.22.06-1.91.71-3.11,2.33-4.25,10.84-7.67,20.85-16.27,29.23-26.65,8.64-10.72,14.93-22.49,16.41-36.46.57-5.38.05-10.45-3.05-15.06-3.61-5.37-8.4-6.05-13.28-1.85Zm-31.01-12.03c.18-9.71-.27-19.43.18-29.12.29-6.31,1.38-12.65,2.73-18.84,1.1-5.03,3.93-7.82,8.01-9.35-3.44,22.65-4.78,45.45-12.26,67.19.47-3.29,1.27-6.58,1.33-9.87Zm-123.42-129.44c-2.58-1.47-4.9-3.56-6.98-5.71-1.85-1.92-1.93-4.47-.94-7.22,15.08,4.67,26.21,15.39,38.78,23.74-10.49-3.14-21.27-5.37-30.87-10.81Zm72.07,39.49c-1.07-4.67-2.24-9.31-3.17-14-1.31-6.62-2.59-13.24-3.58-19.91-.69-4.66-.79-9.44,1.14-13.89.87-2.01,2.26-3.8,3.42-5.69.3.09.6.18.89.27.16,2.07.53,4.15.43,6.2-.42,8.95-.57,17.86.36,26.81.69,6.68.73,13.44,1.07,20.16-.19.02-.37.05-.56.07Zm1.09,21.11c-4.78.74-9.54,1.6-14.33,2.2-8.49,1.06-16.99,2.22-25.52,2.81-4.91.34-9.68-.98-13.24-4.88-.65-.71-1.17-1.54-1.95-2.59,15.62,2.37,30.86.97,46.08,1.07,2.99.02,5.99.54,8.98.82,0,.19-.01.37-.02.56Zm24.99,13.23c-.55-6.01-1.4-12.01-1.56-18.03-.13-4.73.23-9.54,1.01-14.21.73-4.41,3.1-8.15,7.17-11.03-2.15,14.61-4.26,28.91-6.36,43.22-.09.02-.17.04-.26.06Zm-2.59,30.23c-9.63,0-19.26.16-28.88-.05-7.42-.17-14.83-.7-22.23-1.31-2.06-.17-4.14-.97-6.06-1.82-3.64-1.62-4.78-3.33-5.55-7.61,3.05.74,5.98,1.78,8.99,2.14,9.11,1.07,18.24,1.95,27.37,2.76,8.25.74,16.45,1.72,24.27,4.65.74.28,1.45.64,2.17.97-.03.09-.06.19-.09.28Zm15.18,70.75c-10.58-3.96-21.24-7.71-31.69-11.98-7.59-3.1-14.45-7.5-18.98-14.69-1.69-2.68-3.02-5.53-3.32-8.89.43.1.71.08.84.21,5.63,5.62,13.14,8.07,19.9,11.76,9.89,5.4,19.6,10.98,27.8,18.88,1.73,1.67,3.83,2.96,5.78,4.45-.15.13-.28.29-.33.27Zm-39.82,59.43c-7.38-3.93-14.18-8.53-18.81-15.76-2.49-3.89-3.92-8.16-4.94-13.16,1.21,1.05,2.02,1.89,2.95,2.54,6.48,4.48,12.69,9.48,19.58,13.25,9.12,4.99,17,11.33,24.21,18.68,3.46,3.52,6.95,7.01,10.41,10.53.5.51.94,1.09,1.41,1.63-10.73-7.69-23.33-11.6-34.8-17.71Zm-15.77,54.42c-6.35-5.94-9.64-13.74-9.15-22.75.01-.21.08-.42.22-1.13,16.58,15.33,28.75,33.64,41.03,51.88-10.73-9.3-21.73-18.31-32.1-28Zm-12.31,83.06c-3.48-5.23-6.76-10.66-9.47-16.32-3.39-7.09-3.96-14.61-1.13-22.15.29-.77.65-1.5,1.15-2.67,2.74,7.64,5.3,14.86,7.93,22.06,3.47,9.5,7.5,18.73,12.58,27.51,3.38,5.84,4.87,12.38,5.54,19.12-3.79-10.26-10.65-18.61-16.59-27.55Zm12.53,68.4c9.27-5.62,18.44-11.42,27.87-16.77,5.75-3.27,12.12-4.77,18.85-3.94.3.04.61.06.9.14.12.03.21.19.74.69-3.52,2.49-6.8,5.15-10.39,7.29-9.21,5.47-19.45,8.37-29.6,11.46-3.61,1.1-7.23,2.16-11.01,2.95.88-.61,1.74-1.27,2.66-1.83Zm43.05-79.69c7.8-5.6,13.82-12.99,20.35-19.88,5.5-5.81,11.09-11.51,18.35-15.19,5.96-3.02,12.12-3.75,18.95-1.49-17.21,19.03-39.44,29.74-61.34,40.95l-.55-.65c1.41-1.26,2.72-2.65,4.24-3.74Zm27.34-87.7c3.25-4.65,6.76-9.15,9.61-14.04,3.79-6.51,7.83-12.81,12.83-18.45,3.03-3.42,6.69-5.71,12.14-4.96-10.85,18.23-26.12,32-40.43,46.61-.15-.12-.3-.23-.44-.35,2.1-2.93,4.23-5.84,6.3-8.8Zm3.72-60.79c-.18-.07-.36-.14-.55-.21.06-.35.05-.73.2-1.03,5.46-10.47,7.62-22.04,11.24-33.13,2.7-8.28,5.58-16.52,8.96-24.54,1.43-3.38,4.19-6.26,6.64-9.12,1.05-1.22,2.87-1.79,4.34-2.66.23.22.46.44.69.67-6.84,25-17.41,48.31-31.53,70.02Z"/>
  <path class="cls-1s-f07 second-color" d="m463.65,384.89c1.84-.34,3.66-.68,5.58-1.03-.73-5.68-1.47-11.09-2.11-16.51-1.26-10.64-2.47-21.28-3.66-31.93-.14-1.29-.6-1.78-1.95-1.89-2.64-.23-5.27-.68-7.89-1.1-15.11-2.43-30.25-4.3-45.6-2.95-13.34,1.17-26,4.6-37.45,11.79-.86.54-1.74,1.3-2.19,2.18-8.84,17.31-17.63,34.65-26.35,52.02-.6,1.2-.78,2.76-.69,4.12,1,14.83,6.85,27.55,16.86,38.45,8.72,9.49,19.17,16.8,29.85,23.84,9.57,6.31,19.47,12.22,28.45,19.29,18.2,14.34,25.12,33.21,20,56.04-2.61,11.62-8.76,20.73-20.62,24.33-14.86,4.51-29.09,1.89-42.32-5.83-12.97-7.57-21.43-19.13-27.3-32.69-2.16-4.99-3.77-10.22-5.69-15.52-1.65.32-3.47.67-5.27,1.02,0,1.06-.1,1.9.01,2.72,2.21,15.95,4.53,31.88,6.62,47.85.43,3.31,1.87,4.63,5.06,5.38,17.34,4.06,34.68,7.84,52.65,7.4,15.99-.39,31.12-3.92,45.13-11.84,40.01-22.62,44.99-74.11,16.62-103.84-9.05-9.49-19.6-17.02-30.61-23.98-10.4-6.57-20.89-13.02-31.14-19.81-5.9-3.91-11.19-8.66-15.22-14.6-7.66-11.28-8.05-23.64-4.92-36.32,2.86-11.57,9.8-19.85,21.6-22.73,13.27-3.24,26-1.12,37.54,6.38,10.43,6.78,16.71,16.81,21.11,28.16,1.45,3.73,2.56,7.59,3.89,11.59Z"/>
  <path class="cls-1s-f07 second-color" d="m375.52,328.83c5.59-1.86,10.92-3.63,16.47-5.48-2.38-4.03-4.76-8.04-7.37-12.46-3.16,6.22-6.1,12.02-9.1,17.93Z"/>
  <path class="cls-1s-f07 second-color" d="m241.48,554.25c3.23,1.65,6.31,3.23,9.66,4.95,68.07-134.03,136.02-267.82,204.05-401.78-3.29-1.68-6.37-3.24-9.66-4.92-68.05,133.98-136,267.77-204.05,401.75Z"/>
</svg>