<svg id="Layer_1" data-name="Layer 1" xmlns="http://www.w3.org/2000/svg" viewBox="0 0 700 700">
  <defs>
    <style>
      .cls-3-e06sn {
        font-family: ArialMT, Arial;
        font-size: 72px;
      }

      .cls-4-e06sn {
        fill: #231f20;
      }
    </style>
  </defs>
  <g>
    <g>
      <path class="cls-4-e06sn first-color" d="m248.32,289.54c.6-1.43,1.91-2.16,3.04-2.99,8.33-6.17,15.35-13.76,22.92-20.77,1.99-1.84,4.12-3.51,6.27-5.17,4.23-3.28,8.93-3.25,13.8-2.08,1.71.41,3.44.82,5.02,1.63.55.28,1.1.25,1.67.22,2.92-.12,5.83.15,8.75.33,1.54.09,2.85.9,4.15,1.68,3.65,2.19,7.11,4.7,10.9,6.66,4.11,2.13,8.27,4.15,12.81,5.19,3.78.87,7.55.63,11.25-.48.73-.22,1.43-.62,2.09-1.02,1.7-1.05,1.83-1.98.49-3.52-3.84-4.41-8.3-8.2-12.44-12.31-6.17-6.14-12.31-12.3-17.66-19.2-1.11-1.43-2.98-1.83-4.65-2.37-3.27-1.06-6.65-1.05-10.04-1.02-6.56.05-13.13.29-19.7.06-2.65-.09-5.31-.23-7.96-.38-2.75-.15-4.92.97-6.75,2.96-3.46,3.77-6.26,8.05-9.33,12.12-4.71,6.23-9.42,12.48-15.16,17.83-.42.39-.85.77-1.29,1.13-.19.15-.44.22-.71.35-.51-.87.11-1.33.49-1.8,3.44-4.25,6.97-8.43,10.34-12.73,4.04-5.17,7.92-10.46,11.93-15.65,1.98-2.56,4.08-5.04,7.47-5.84,1.63-.39,3.28-.6,4.95-.44,10.3.95,20.62-.04,30.92.32.17-.49-.22-.55-.45-.7-6.76-4.6-13.82-8.72-20.74-13.06-1.76-1.1-3.92-.83-5.88-1.27-4.06-.92-8.2-1.37-12.33-1.83-4.04-.46-7.51.21-10.1,3.95-6.45,9.31-13.44,18.26-18.21,28.66-1.7,3.71-2.18,7.41-1.49,11.35.58,3.28.74,6.61.97,10.07.52-.04,1.09-.74,1.59-.11.49.62.07,1.24-.22,1.74-2.17,3.66-3.06,7.61-2.67,11.82.22,2.43.6,4.85.98,7.26.26,1.61-.04,3.09-.7,4.55-2.19,4.83-1.59,9.48.8,14.06,2.88,5.5,7.28,9.6,12.2,13.17,5.49,3.98,10.06,8.9,14.41,14.03,2.03,2.4,4.44,4.39,6.71,6.54,11.99,11.37,23.99,22.73,35.94,34.14,4.53,4.33,8.53,9.14,12.04,14.33,1.31,1.93,1.78,4.21,2.04,6.48.8,6.9.03,13.74-1.04,20.53-2.91,18.53-7.29,36.78-10.59,55.24-1.74,9.75-3.37,19.55-6.2,29.08-.61,2.06-.62,2.05-1.45,2.87-.73-.81-.45-1.79-.33-2.62,1.38-9.4,3.25-18.72,5.01-28.06,1.65-8.73,3.18-17.48,4.95-26.19,2.02-9.98,4.2-19.92,5.8-29.98.94-5.86,1.63-11.75,1.71-17.7.07-5.07-1.39-9.27-5-13.08-8.25-8.72-17.08-16.81-25.72-25.12-9.39-9.03-18.67-18.18-27.97-27.3-1.41-1.39-2.52-3.02-3.66-4.65-1.42-2.02-3.53-3.36-5.42-4.91-3.78-3.1-7.9-5.81-11.07-9.62-3.75-4.52-6.75-9.38-6.61-15.56.04-1.78.23-3.58.98-5.18,1.09-2.32.98-4.62.53-7.01-1.02-5.41-1.22-10.76,1.43-15.84.22-.42.06-.78.03-1.19-.56-5.84-1.84-11.6-1.75-17.51.03-1.92.76-3.65,1.5-5.36,2.18-5.07,4.76-9.93,7.84-14.52.73-1.09.85-2.17.66-3.39-1.39-8.98-3.15-17.92-3.91-26.99-.41-4.95.06-9.88,2.46-14.42.59-1.11,1.3-2.11,2.18-3.02,5.37-5.51,11.63-9.94,17.7-14.6,8.09-6.22,16.03-12.64,24.32-18.61,3.59-2.58,7.12-5.26,10.82-7.67,3.69-2.4,4.69-1.83,6.83,2.15.77,1.43.94,3.06,1.02,4.72,2-.53,3.93-.66,5.91-.21.82.19,1.56.11,2.09-.84.42-.76,1.29-1.33,2.19-1.36,2.79-.08,4.47-2.06,6.11-3.78,7.11-7.41,13.63-15.32,19.29-23.91,6.81-10.34,13.28-20.88,19.11-31.8,1.21-2.28,2.45-2.77,4.98-1.9,3.15,1.09,5.83,2.95,8.17,5.31,1.11,1.12,1.18,2.78.32,4.1-10.22,15.7-18.54,32.32-24.14,50.25-1.32,4.24-1.99,8.58-2.18,13.01-.07,1.6-.25,3.2-.38,4.88,2.61,2.01,2.95,3.66,1.16,6.25,2.83,4.37,2.99,9.01,1.11,13.74,4.19,3.32,5.74,8.08,7.14,12.78,3.13,10.5,5.32,21.25,8.19,31.82,2.76,10.17,5.52,20.34,9.72,30.05,1.9,4.39,4.68,8.34,6.27,12.88.21.61.86.75,1.33,1.02,7.98,4.61,15.66,9.69,23.31,14.81,4.32,2.89,8.57,5.91,12.3,9.6,3.9,3.87,6.59,8.56,9.16,13.32,6.19,11.47,13.46,22.24,21,32.84,2.59,3.64,5.07,7.36,5.94,11.89.39,2.05.13,4.07-.19,6.05-1,6.16-.48,12.33-.52,18.51-.09,13.08-.5,26.16-.53,39.23-.02,8.91.41,17.81,1.16,26.7,1.24,14.65,6.61,27.89,13.68,40.59,5.27,9.46,11.05,18.6,16.71,27.82.38.61,1.09,1.18.67,2.18-1.41-.66-2.14-1.96-3-3.07-10.16-13.11-18.32-27.39-24.79-42.64-2.78-6.56-4.32-13.43-5.19-20.47-2.05-16.44-2.05-32.94-1.58-49.47.29-10.26.83-20.51.69-30.79-.04-2.95.36-5.93.83-8.85.89-5.52-1.18-10.07-4.24-14.4-5.61-7.95-11.37-15.8-16.28-24.22-2.12-3.64-4.23-7.29-6.09-11.07-4.08-8.29-10.02-14.8-17.69-19.95-9.89-6.65-19.95-13.02-30.18-19.13-3.97-2.37-7.78-5.02-11.66-7.54-1.22-.8-2.47-1.54-3.88-1.96-2.17-.64-3.99,1.01-3.66,3.24.66,4.52,3.47,7.85,6.35,11.05,4.95,5.5,10.06,10.88,15.71,15.67,3.89,3.3,7.62,6.87,12.38,9.08,5.65,2.63,9.54,7.27,13.15,12.18,7.84,10.7,15.2,21.75,23.18,32.35.5.67,1.04,1.3,1.53,1.98.31.43.57.93,0,1.37-.52.4-.89,0-1.22-.31-2.34-2.18-4.27-4.71-6.11-7.29-6.11-8.56-12.39-17-18.19-25.77-5.67-8.58-13.33-14-23.23-16.36-11.81-2.81-23.57-5.79-35.2-9.29-1.61-.49-3.32-.96-5.04.01.12,1.46.57,2.53,1.98,3.37,8.03,4.76,15.37,10.53,22.96,15.93,3.52,2.5,6.99,5.09,10.57,7.5,1.08.72,2.44,1.09,3.72,1.43,4.71,1.26,7.71,3.97,8.86,8.93,1.19,5.2,4.66,9.2,7.97,13.23,3.71,4.51,7.54,8.9,11.75,12.96.54.52,2,1.18.98,2.19-.78.78-1.54-.37-2.2-.87-4.84-3.7-8.62-8.44-12.58-13.01-3.39-3.91-6.07-8.32-9.31-12.34-4.32-5.37-9.39-9.87-15.04-13.76-8.44-5.82-16.53-12.14-25.05-17.85-1.43-.96-2.87-1.89-4.33-2.79-.79-.49-1.62-.93-2.47-1.32-.96-.45-2.13-.88-2.96-.21-.85.69-.82,1.94-.75,3.05.29,4.24,2.38,7.71,4.85,10.96,5.92,7.82,13.14,14.36,20.54,20.71,3.45,2.96,6.64,6.14,9.44,9.74,1.89,2.43,4.51,4.16,6.67,6.35,7.86,7.97,14.84,16.61,20.15,26.51.15.27.36.52.46.81.15.44.33.94-.15,1.29-.54.38-.91-.06-1.18-.41-.76-.99-1.49-2-2.16-3.05-5.93-9.24-12.65-17.84-20.65-25.39-8.88-8.38-18.33-16.05-28.59-22.7-1-.65-2.04-1.22-3.2-1.58-1.04-.32-1.44.06-1.65,1-.35,1.55.06,2.99.56,4.41,1.49,4.28,4.06,7.93,6.76,11.51,2.55,3.37,5.31,6.56,8.29,9.55,2.64,2.65,4.65,5.72,6.47,8.94,4.31,7.63,9.65,14.55,14.95,21.5.41.54.77,1.12,1.23,1.61,2.09,2.24,1.98,5.08,2.16,7.83.21,3.01.29,6.03.6,9.03.61,5.84,1.65,11.61,3.48,17.22,1.68,5.18,2.01,10.5,1.27,15.88-.58,4.22-.32,8.44.03,12.63.57,6.78,1.39,13.53,3.36,20.1,2.26,7.54,5.72,14.38,11.21,20.11.84.87,1.76,1.61,2.81,2.2,3.95,2.24,7,5.39,9.21,9.33,5.86,10.39,10.96,21.11,14.13,32.66.26.96.28.95.09,1.99-.86-.47-1.14-1.29-1.5-2.05-3.85-8.3-7.56-16.66-11.77-24.79-.93-1.8-1.93-3.57-2.76-5.42-1.47-3.24-4.03-5.32-6.72-7.56-5.48-4.56-10.28-9.83-13.34-16.47-3.47-7.53-5.32-15.47-6.34-23.64-.26-2.11-.49-4.23-.82-6.38-1.22,7.67-3.14,15.19-4.82,22.77-1.67,7.53-3.3,15.07-5.19,22.56-.81-1.71-.26-3.39-.04-5.01,1.25-9.41,2.85-18.77,5.01-28.02,1.65-7.03,2.46-14.23,4.33-21.19,1.87-6.97,1.43-13.76-.67-20.56-2.38-7.71-3.27-15.64-3.43-23.68-.03-1.77-.2-3.53-.35-5.29-.07-.83-.39-1.53-.92-2.23-6.66-8.8-13.38-17.55-18.75-27.23-1.48-2.68-3.72-4.75-5.81-6.92-4.82-5-9.31-10.27-12.49-16.51-1.25-2.45-2.4-4.96-2.36-7.83.05-3.46,1.97-4.89,5.2-3.64,2.83,1.1,5.22,2.99,7.68,4.74,1.37.98,2.74,1.96,4.16,2.86-3.35-4.22-7.8-6.87-12.6-9.07-7.74-3.54-15.73-6.47-23.61-9.65-1.4-.56-2.83-1.1-3.9-2.31,9.96,2.84,19.79,5.97,29.58,10.58-1.97-2.34-3.73-4.28-5.33-6.34-2.49-3.22-4.68-6.62-5.39-10.75-.21-1.2-.25-2.4-.12-3.58.31-2.86,2.26-4.14,5.08-3.43.43.11.85.25,1.33.4-.5-2.71.41-3.81,3.13-3.96,2.81-.15,5.47.6,8.08,1.47,10.36,3.43,21.09,5.42,31.61,8.19.04,0,.09-.05.15-.08-.05-.6-.57-.78-.95-1.11-8.57-7.32-16.76-15.01-23.41-24.19-1.24-1.71-1.99-3.64-2.41-5.69-.39-1.9-.11-3.65,1.41-5,1.51-1.34,3.28-1.44,5.12-.86,2.67.84,4.86,2.56,7.17,4.06,2.5,1.63,4.91,3.41,7.98,5.04-1.15-1.99-2.08-3.58-2.99-5.18-4.67-8.25-7.37-17.26-10.06-26.26-3.84-12.89-6.69-26.03-10-39.06-1.02-3.99-2.29-7.88-4.4-11.45-.29-.49-.65-.94-1-1.39-.15-.2-.37-.34-.67-.62-1.16,1.95-2.27,3.8-3.38,5.65-1.97,3.31-4.03,6.56-6.3,9.67-.59.81-.84,1.6-.82,2.59.1,5.74,1.13,11.37,1.96,17.03,1.26,8.58,3.37,17.05,3.32,25.8,0,1.16-.01,2.35-.4,3.39-.48,1.29-.03,2.12.7,3.08,1.96,2.56,3.87,5.17,5.74,7.8.56.79,1.03,1.7,1.35,2.61.69,1.94.03,3.51-1.83,4.4-.52.25-.93.39-.88,1.06.14,2.02-1.13,3.18-2.66,4.07-3.82,2.23-8.02,2.5-12.25,1.96-7.69-.98-14.15-4.93-20.58-8.89-2.03-1.25-4.06-2.52-6.02-3.89-1.84-1.28-3.99-1.01-6.01-1.38-.81-.15-1.64-.19-2.58-.1,1.82,1.08,3.66,2.13,5.46,3.24,5.23,3.2,10.45,6.43,15.67,9.64,2.29,1.41,2.85,3.52,1.39,5.82-1.92,3.04-5,4.12-8.35,4.49-4.65.51-9.11-.59-13.47-2-2.34-.75-4.28-.54-6.29.89-3.79,2.68-7.23,5.83-11.03,8.45-3.17,2.19-5.19,4.55-5.49,8.67-.24,3.32-2.06,6.39-3.99,9.19-.53.78-1.08,1.67-2.21,1.67-.38-.44-.08-.71.11-1.02,2.62-4.26,4.21-8.89,4.72-13.86.16-1.52.77-2.72,1.95-3.58,4.7-3.45,9.07-7.33,13.79-10.76,2.85-2.07,5.7-2.9,9.18-1.75,3.8,1.25,7.74,2.09,11.79,1.91,2.37-.11,4.63-.69,6.54-2.21.44-.35.88-.76,1.18-1.23,1.04-1.67.94-2.12-.78-3.03-6.85-3.63-13.2-8.1-19.89-12.01-4.54-2.66-9.3-4.63-14.56-5.16-2.88-.29-5.55.43-7.91,2.21-5.38,4.06-10.21,8.73-14.96,13.49-5.12,5.14-10.48,9.98-16.86,13.56-.54.31-1.07.92-1.92.43Zm95.02-126.31c-1.06-.12-1.04-.16-1.83-.57-5.51-2.89-10.86-6.13-16.93-7.8-3.86-1.06-6.48-.05-8.52,3.38-1.59,2.68-3.07,5.43-4.3,8.3-4.88,11.43-11.37,22.02-17.01,33.06-.31.6-.5,1.47-1.55,1.49-.07-.62.16-1.07.37-1.52,1.22-2.63,2.36-5.31,3.68-7.89,4.55-8.86,9.25-17.63,12.98-26.9,1.59-3.97,3.42-7.91,6.63-11.04-1.46-.45-2.85-.22-4.22-.02-.69.1-1.1.49-1.22,1.34-.23,1.54-.71,3.03-1.35,4.46-3.04,6.81-7.68,12.45-12.88,17.69-1.78,1.8-3.94,3.29-5.14,5.6-2.8,5.39-5.58,10.79-8.26,16.23-1.22,2.46-2.33,4.99-2.86,7.72-.42,2.17-.21,2.64,1.66,3.84,1.36.87,2.71,1.75,4.07,2.61,8.4,5.3,16.8,10.6,25.2,15.9,2.5,1.58,4.93,3.28,7.68,4.45,1.26.54,2.29.38,3.27-.55,1.37-1.3,2.5-2.77,3.47-4.39,2.86-4.77,5.29-9.79,8.41-14.41,5.47-8.1,11.43-15.86,16.38-24.33,3.31-5.67,5.25-11.23,1.3-17.35-.34-.52-.37-1.17.13-1.58.93-.75,1.46-1.72.7-2.67-.69-.87-.54-1.99-1.19-2.8-1.45-1.8-3.21-3.26-5.04-4.64-5.13-3.85-10.38-7.49-16.58-9.47-2.61-.83-5.23-1.12-7.86-.09-.32.13-.84.14-.84.71,8.17,1.92,20.34,8.18,21.66,11.24Zm-64.4,50.76c-.15-1.02-.87-1.72-1.03-2.65-.81-4.82-1.74-9.61-1.51-14.54.07-1.59.66-2.91,1.74-4.06,2.39-2.55,4.86-5.01,7.37-7.43,5.17-4.99,10.55-9.79,15.12-15.36,3.34-4.06,6.54-8.25,8.13-13.37,1.19-3.82,1.7-7.59-1.17-10.98-1.33.37-2.39,1.13-3.45,1.89-3.2,2.32-6.37,4.69-9.58,7-8.53,6.15-16.65,12.85-25.09,19.11-5.64,4.19-11.43,8.17-16.39,13.21-1.3,1.32-2.31,2.78-2.99,4.51-2.05,5.23-1.75,10.61-1.02,15.99.72,5.35,1.57,10.68,2.36,16.02.3,2.05.62,4.1.97,6.42.53-.71.84-1.12,1.15-1.53,2.89-3.81,5.37-7.92,8.47-11.59,1.74-2.06,3.82-3.26,6.59-3.29,1.45-.01,2.9-.15,4.36.04,1.95.25,3.91.41,5.97.61Zm51.2,12.37c6.12,7.87,10.71,16.74,17.2,24.33-.14-14.67-4.54-28.76-4.95-43.63-4.78,6.32-8.85,12.64-12.24,19.3Zm-7.58,9.47c2.47,3.6,5.49,6.69,8.37,9.89,6.91,7.67,14.82,14.35,21.81,21.95.6.65,1.09.55,1.77.22.84-.41.97-1.08.71-1.82-.41-1.19-1.15-2.22-1.92-3.2-7.07-9.07-13.95-18.29-19.97-28.11-1.32-2.15-2.57-4.35-4.29-6.46-1.77,2.99-3.57,5.76-6.49,7.54Zm37.64-129.54c-3.62,5.31-6.78,10.93-10.55,16.16-5.97,8.29-11.02,17.29-18.8,24.18-.39.34-.82.76-.4,1.33.43.59.97.24,1.39-.02,1.95-1.23,3.68-2.73,5.16-4.5,3.94-4.72,7.27-9.88,10.85-14.86,5-6.94,8.65-14.62,12.35-22.29Zm-71.94,79.82c-3.06,2.63-5.95,5.39-8.65,8.35-.65.71-1,1.56-.98,2.55.04,1.76-.14,3.53.27,5.28.15.64-.14,1.39.51,2.06,2.17-6.57,5.74-12.28,8.85-18.24Zm-2.48,29.12c-1.93-1.25-3.51-2.28-5.23-3.39.45,2.82.66,2.96,5.23,3.39Zm107.7,113.92c-.94-2.82-2.03-4.98-5.12-5.66,1.73,1.91,3.3,3.64,5.12,5.66Z"/>
      <path class="cls-4-e06sn first-color" d="m376.83,413.87c-.66-2.64-.56-5.06-.48-7.48.14-3.97,1.7-7.57,2.94-11.26.18-.54.46-.96,1.11-.88.72.1.92.62.87,1.25-.04.51-.07,1.05-.23,1.53-1.53,4.87-2.4,9.88-3.21,14.9-.1.65-.2,1.29-1.01,1.93Z"/>
      <path class="cls-4-e06sn first-color" d="m419.3,364.99c1.22.31,1.69,1.32,2.22,2.13,3.01,4.6,5.36,9.47,5.93,15.04.08.79-.09,1.55-.16,2.32-.05.49-.3.83-.78.78-.43-.05-.72-.4-.77-.87-.07-.67-.09-1.35-.18-2.02-.73-5.37-2.78-10.27-5.38-14.97-.39-.71-1.05-1.38-.88-2.42Z"/>
      <path class="cls-4-e06sn first-color" d="m280.97,316.11c-.35-.96.27-1.58.49-2.29.97-3.06,1.94-6.11,2.96-9.15.19-.58.26-1.53,1.21-1.3.78.19.64,1,.55,1.59-.61,3.84-2.13,7.34-4.18,10.62-.1.17-.29.3-.47.4-.12.07-.29.07-.56.13Z"/>
      <path class="cls-4-e06sn first-color" d="m411.39,398.51c-.02-3.95-.77-7.7-1.34-11.47-.08-.53-.12-1.09.55-1.26.7-.18,1.13.28,1.27.86.82,3.54,1.2,7.13.69,10.76-.08.53-.3.98-1.17,1.11Z"/>
      <path class="cls-4-e06sn first-color" d="m288.28,211.27c-.47-1.31.37-2.1.91-2.96.15-.23.47-.2.72-.1.29.12.35.39.29.65-.23,1.07-.64,2.02-1.92,2.41Z"/>
      <g>
        <path class="cls-4-e06sn first-color" d="m402.8,253.17c-2.66,1.43-4.79,4.91-5.76,9.36-.03.16-.26.16-.29,0-.96-4.45-3.09-7.94-5.76-9.36-.1-.06-.1-.2,0-.26,2.66-1.43,4.79-4.91,5.76-9.36.03-.16.26-.16.29,0,.96,4.45,3.09,7.94,5.76,9.36.1.06.1.2,0,.26Z"/>
        <path class="cls-4-e06sn first-color" d="m409.96,235.67c-1.62.87-2.92,2.99-3.5,5.7-.02.1-.16.1-.18,0-.59-2.71-1.88-4.83-3.5-5.7-.06-.03-.06-.12,0-.16,1.62-.87,2.92-2.99,3.5-5.7.02-.1.16-.1.18,0,.59,2.71,1.88,4.83,3.5,5.7.06.03.06.12,0,.16Z"/>
        <path class="cls-4-e06sn first-color" d="m384.86,207.14c-1.62.87-2.92,2.99-3.5,5.7-.02.1-.16.1-.18,0-.59-2.71-1.88-4.83-3.5-5.7-.06-.03-.06-.12,0-.16,1.62-.87,2.92-2.99,3.5-5.7.02-.1.16-.1.18,0,.59,2.71,1.88,4.83,3.5,5.7.06.03.06.12,0,.16Z"/>
      </g>
      <g>
        <path class="cls-4-e06sn first-color" d="m284.53,411.8c-2.66,1.43-4.79,4.91-5.76,9.36-.03.16-.26.16-.29,0-.96-4.45-3.09-7.94-5.76-9.36-.1-.06-.1-.2,0-.26,2.66-1.43,4.79-4.91,5.76-9.36.03-.16.26-.16.29,0,.96,4.45,3.09,7.94,5.76,9.36.1.06.1.2,0,.26Z"/>
        <path class="cls-4-e06sn first-color" d="m299.43,404.38c-1.62.87-2.92,2.99-3.5,5.7-.02.1-.16.1-.18,0-.59-2.71-1.88-4.83-3.5-5.7-.06-.03-.06-.12,0-.16,1.62-.87,2.92-2.99,3.5-5.7.02-.1.16-.1.18,0,.59,2.71,1.88,4.83,3.5,5.7.06.03.06.12,0,.16Z"/>
        <path class="cls-4-e06sn first-color" d="m287.94,390c-1.15.62-2.07,2.12-2.49,4.04-.01.07-.11.07-.13,0-.42-1.92-1.34-3.43-2.49-4.04-.04-.02-.04-.09,0-.11,1.15-.62,2.07-2.12,2.49-4.04.01-.07.11-.07.13,0,.42,1.92,1.34,3.43,2.49,4.04.04.02.04.09,0,.11Z"/>
      </g>
      <g>
        <path class="cls-4-e06sn first-color" d="m358.74,274.23c.54,1.02,1.11,1.85,1.45,2.77.57,1.54-.43,2.83-1.95,2.35-6.14-1.92-11.95-4.48-16.38-9.42-.86-.96-1.3-2.13-1.53-3.36-.6-3.27,1.18-5.33,4.49-5.29.31,0,.62,0,1.04,0-.13-1.3-.9-2.33-1.01-3.56-.07-.74-.06-1.45.12-2.16.63-2.53,3.07-3.33,5.02-1.61,3.05,2.7,4.89,6.29,6.86,9.77,1.4,2.48,2.49,5.12,3.25,7.89.38,1.38.03,2.22-1.36,2.62Z"/>
        <path class="cls-4-e06sn first-color" d="m355.96,292.61c.73.59,1.39,1.24,1.89,2.06.71,1.15,1.22,2.33.36,3.61-.86,1.29-2.2,1.46-3.59,1.37-.65-.05-1.29-.28-2.12-.46.97,2.41-.61,3.53-2.13,4.03-2.39.77-4.53.19-6.43-1.28-1.7-1.31-3.11-2.91-4.03-4.88-1.49-3.2-2.78-6.47-3.54-9.93-.16-.72-.02-1.4.57-1.83.54-.38,1.27-.39,1.76.03,0,0,.36-4.43,17.25,7.3Z"/>
        <path class="cls-4-e06sn first-color" d="m377.9,269.94c-.1,3.52-2.66,7.18-7.21,4.52-5.09-2.98-8.42-7.47-10.58-12.88-.28-.7-.43-1.55.19-2.21.63-.68,1.44-.53,2.18-.25,4.67,1.79,9.05,4.14,13.13,7.02,1.31.92,2.51,2.11,2.29,3.8Z"/>
        <path class="cls-4-e06sn first-color" d="m296.34,157.73c-.7.1-1.57-.17-2.41-.4-1.89-.51-2.3-2.26-.89-3.6,2.23-2.12,4.67-3.97,7.15-5.76,3.62-2.6,7.27-5.18,11.27-7.17.71-.36,1.53-1.04,2.26-.22.65.73.41,1.68.02,2.49-1.15,2.4-2.74,4.52-4.45,6.54-2.13,2.51-4.49,4.77-7.31,6.5-1.67,1.02-3.47,1.61-5.65,1.62Z"/>
        <path class="cls-4-e06sn first-color" d="m328.47,282.86c-4.15-.28-8.63-.74-12.33-3.83-.85-.71-1.57-1.53-2.05-2.52-.59-1.23-1.11-2.51-.14-3.8,1.04-1.38,2.52-1.72,4.15-1.65.41.02.84.1,1.21.25,4.77,1.92,9.06,4.58,12.57,8.39.5.55.79,1.26.44,2.02-.37.79-1.06,1.11-1.89,1.14-.52.02-1.04,0-1.96,0Z"/>
        <path class="cls-4-e06sn first-color" d="m357.86,328.12c0,1.85-1.38,3.03-3.44,3.21-1.79.16-3.35-.52-4.81-1.47-3.07-2-5.2-4.89-7.33-7.78-.8-1.08-1.53-2.22-2.26-3.35-.43-.67-.76-1.43-.15-2.15.54-.65,1.24-.56,2-.32,4.19,1.28,7.79,3.61,11.23,6.22,1.28.97,2.54,1.98,3.66,3.15.76.8,1.2,1.68,1.1,2.5Z"/>
      </g>
    </g>
    <g>
      <path class="second-color" d="m217.38,365.5c-.08-.08-1.12-.9-2.58.49l-10,9.57c-1.46,1.39-.77,2.39-.69,2.47l-.02.02-2.21-2.3,2.69-17.41-8.49,8.12c-1.46,1.39-.68,2.47-.59,2.57l-.02.02-2.3-2.41.02-.02c.1.1,1.14.92,2.6-.47l11.71-11.2-3.14,20.4,10.12-9.68c1.46-1.39.69-2.47.6-2.56l.02-.02,2.29,2.39-.02.02Z"/>
      <path class="second-color" d="m204.14,351.47c-.11-.15-1.18-1.09-3.39-.52l-13.26,3.33c-2.71.69-2.03,2.33-1.97,2.41l-.04.03-2.12-2.98,9.66-13.41c1.41-1.95,1.03-3.04.93-3.19l.04-.03,2.91,4.09h-.02s-.84-.68-2.03.97l-2.11,2.94,4.47,6.29,3.46-.88c2.05-.51,1.68-1.6,1.66-1.64h.02s1.83,2.57,1.83,2.57l-.04.03Zm-11.66-6.04l-6.35,8.8,10.67-2.72-4.32-6.08Z"/>
      <path class="second-color" d="m191.68,332.88c-.06-.1-.8-1.06-2.56-.08l-12.1,6.7c-1.76.98-1.35,2.11-1.29,2.22h-.02s-2.52-4.54-2.52-4.54h.02c.06.09.81,1.07,2.58.09l12.1-6.7c1.76-.98,1.34-2.13,1.28-2.24h.02s2.52,4.54,2.52,4.54h-.02Z"/>
      <path class="second-color" d="m178.42,313.53l-.02-.04,3.34-1.42,4.49,10.53h-.02c-.05-.1-.69-1.12-2.54-.33l-12.73,5.43c-1.86.79-1.56,1.96-1.51,2.07h-.02s-2.04-4.78-2.04-4.78h.02c.05.1.7,1.15,2.55.36l14.41-6.15-2.04-4.79c-.84-1.96-3.61-.99-3.89-.87Z"/>
      <path class="second-color" d="m166.56,311.04c-2.59.75-5.03-1.02-6.01-4.42-.56-1.94-.55-3.11-.88-4.26l3.58-1.03v.05c-.9.38-1.79.93-2.26,1.85-.37.76-.41,1.88-.05,3.14.61,2.12,2.23,3.51,3.99,3,1.6-.46,2.18-1.92,2.67-3.53l.93-3.29c.69-2.35,1.83-4.14,4.04-4.78,2.37-.68,5.07.49,6.26,4.62.44,1.53.6,2.59,1.14,4.65l-4.15,1.19v-.04c.96-.43,1.88-1.06,2.35-1.88.55-.89.68-2.3.27-3.74-.75-2.59-2.52-3.4-4.37-2.87-1.51.44-2.37,1.61-2.95,3.66l-.96,3.35c-.6,2.08-1.36,3.68-3.61,4.33Z"/>
      <path class="second-color" d="m173.25,271.55s-.46-.81-1.68.23l-.59.52c1.7.97,2.75,2.32,2.9,4.29.23,2.92-.91,5.16-3.79,5.38-2.55.2-4.53-1.95-5.62-4.12l-.95.83c-1.72,1.48-2.63,2.42-4.32,2.55-2.11.17-4.01-1.3-4.26-4.46-.21-2.64,1.1-4.58,3.18-4.75,2.57-.2,4.28,2.01,5.3,3.6l4.61-3.94c-.53-.12-1.1-.24-1.67-.34-1.29-.27-2.13.12-2.19,1.16h-.05s-.33-4.16-.33-4.16h.05c.34,1.36,1.28,2.15,2.81,2.46.65.14,1.27.3,1.85.46l2.07-1.76c1.81-1.56,2.23-3.28,2.21-3.54h.05s.44,5.59.44,5.59h-.02Zm-11.3,5.34l1.23-1.06c-1.04-.95-2.84-2.01-4.85-1.85-1.52.12-3.13,1.19-3,2.8.1,1.24.9,2.49,2.87,2.34.98-.08,1.71-.44,3.75-2.23Zm11.28-.75c-.13-1.59-1.11-2.71-2.63-3.53l-5.91,5.06c1.2,1.48,3.18,2.17,4.96,2.03,1.89-.15,3.72-1.4,3.58-3.55Z"/>
      <path class="second-color" d="m164.48,243.49c.36-2.7,2.26-5.2,5.54-4.79,1.84.23,3.07,1.14,3.66,2.63.53,1.08.64,2.63.43,4.33l-.74,5.93h-.02c.01-.12-.02-1.33-2.02-1.58l-13.73-1.72c-2-.25-2.34.91-2.35,1.03h-.02s.77-6.19.77-6.19c.26-2.09.81-3.42,1.68-4.14.79-.68,1.75-.92,2.82-.78,3.26.41,4.13,3.99,4,5.27Zm-.36,1.56c.27-2.19-.99-4.02-3.73-4.39-1.16-.15-2.04.03-2.65.42-.84.49-1.25,1.33-1.4,2.47l-.25,1.98,7.84.98.18-1.47Zm9.56.84c.17-1.4-.13-2.38-.86-3.16-.64-.74-1.59-1.26-3.06-1.45-2.21-.28-4.8.23-5.25,3.81l-.18,1.47,9.12,1.14.23-1.81Z"/>
      <path class="second-color" d="m164.65,218.57v.05c-.28-.07-3.05-.6-3.59,1.46l-1.28,4.9,8.03,2.09,1.13-4.36c.47-1.82-1.14-2.43-1.29-2.47v-.02s4.04,1.05,4.04,1.05v.02c-.17-.04-1.87-.29-2.34,1.52l-1.14,4.36,8.49,2.21,1.34-5.15c.54-2.06-2.25-2.99-2.55-3.06v-.04s3.53.92,3.53.92l-2.92,11.19h-.02c.03-.12.15-1.32-1.8-1.83l-13.39-3.49c-1.95-.51-2.43.6-2.46.71h-.02s2.85-10.94,2.85-10.94l3.38.88Z"/>
      <path class="second-color" d="m180.02,218.17c.07-.17.29-1.58-1.37-3.15l-9.89-9.45c-2.02-1.92-3.05-.47-3.09-.38l-.04-.02,1.39-3.38,16.5,1.03c2.4.15,3.12-.74,3.19-.92l.04.02-1.91,4.64h-.02c.02-.05.14-1.09-1.89-1.22l-3.61-.22-2.94,7.14,2.59,2.46c1.53,1.47,2.25.57,2.27.53h.02s-1.21,2.94-1.21,2.94l-.04-.02Zm-1.11-13.09l-10.83-.68,7.99,7.58,2.84-6.9Z"/>
      <path class="second-color" d="m178.62,179.34h-.02s2.67-4.48,2.67-4.48h.02c-.06.11-.51,1.24,1.22,2.27l11.88,7.09c1.73,1.03,2.51.1,2.57,0h.02s-1.99,3.35-1.99,3.35l-2.74-1.63c1.13,1.58,1.55,4.09.07,6.57-1.97,3.3-4.74,4.24-7.94,2.33l-9.16-5.46c-1.73-1.03-2.52-.08-2.58.02h-.02s2.67-4.48,2.67-4.48h.02c-.06.11-.51,1.24,1.22,2.27l9.06,5.41c3,1.79,5.31,1.17,6.59-.98,1.25-2.09.94-5.15-1.34-6.5l-9.65-5.75c-1.73-1.03-2.51-.1-2.57,0Z"/>
      <path class="second-color" d="m188.43,171.09v.02s-2.83-2.29-2.83-2.29l8.98-11.05,2.82,2.29v.02c-.25-.19-2.66-1.88-4.03-.19l-2.16,2.66,12.16,9.89c1.57,1.27,2.46.46,2.54.37l.02.02-3.27,4.02-.02-.02c.07-.09.68-1.14-.88-2.41l-12.16-9.89-2.16,2.66c-1.38,1.69.77,3.71,1,3.9Z"/>
      <path class="second-color" d="m215.01,163.01c.08-.08.83-1.04-.56-2.5l-3.59-3.83-9.03-3.08c-2.05-.71-3.28-.13-3.42,0l-.02-.02,3.65-3.44.02.02s-.39.82,1.22,1.36l8.64,2.97-2.51-8.6c-.51-1.74-1.44-1.32-1.46-1.3l-.02-.02,2.28-2.16.03.03c-.17.16-.99,1.48-.35,3.69l2.46,8.41,3.96,4.19c1.38,1.46,2.38.78,2.47.7l.02.02-3.78,3.57-.02-.02Z"/>
      <path class="second-color" d="m226.73,135.33c-1.43-2.29-.4-5.12,2.6-6.99,1.71-1.07,2.84-1.39,3.85-2.02l1.98,3.16-.04.03c-.62-.77-1.39-1.48-2.4-1.68-.83-.14-1.92.12-3.03.82-1.87,1.17-2.76,3.11-1.79,4.66.88,1.41,2.45,1.57,4.12,1.6h3.42c2.45,0,4.49.62,5.7,2.57,1.31,2.09.92,5.01-2.72,7.29-1.35.85-2.32,1.29-4.16,2.38l-2.29-3.66.04-.03c.68.82,1.54,1.53,2.45,1.76,1.01.28,2.39.02,3.67-.77,2.29-1.43,2.58-3.35,1.56-4.98-.83-1.33-2.2-1.83-4.33-1.83h-3.49c-2.16,0-3.92-.3-5.16-2.29Z"/>
      <path class="second-color" d="m246.84,139.26c.17-.08,1.3-.95,1.16-3.23l-.73-13.66c-.16-2.79-1.9-2.43-1.99-2.4l-.02-.04,3.33-1.51,11.31,12.05c1.64,1.75,2.78,1.6,2.96,1.52l.02.04-4.57,2.07v-.02s.84-.69-.56-2.17l-2.48-2.64-7.03,3.19.2,3.57c.11,2.11,1.25,1.96,1.29,1.94v.02s-2.88,1.31-2.88,1.31l-.02-.04Zm8.16-10.29l-7.42-7.92.63,11,6.79-3.08Z"/>
      <path class="second-color" d="m277.25,123.8h.05s1.05,3.47,1.05,3.47l-10.95,3.31v-.02c.1-.03,1.19-.56.61-2.49l-4-13.25c-.58-1.93-1.78-1.76-1.9-1.73v-.02s4.98-1.51,4.98-1.51v.02c-.11.03-1.22.57-.64,2.5l4.53,15,4.98-1.51c2.04-.62,1.37-3.48,1.29-3.77Z"/>
      <path class="second-color" d="m280.95,117.12c-.8-5.1,1.59-9.84,7.34-10.74,5.75-.9,9.47,2.89,10.27,7.98s-1.59,9.84-7.34,10.74c-5.75.9-9.47-2.89-10.27-7.98Zm10.2,7.54c3.85-.6,5.64-4.61,4.81-9.89-.83-5.28-3.76-8.55-7.61-7.95-3.82.6-5.62,4.61-4.79,9.89s3.76,8.55,7.58,7.95Z"/>
      <path class="second-color" d="m305.49,123.04c.12,0,1.43-.18,1.44-2.2l.05-13.83c0-2.02-1.19-2.21-1.3-2.21v-.02h3.19s10.66,14.03,10.66,14.03l.04-11.75c0-2.02-1.3-2.21-1.44-2.21v-.02s3.33.01,3.33.01v.02c-.14,0-1.45.18-1.46,2.2l-.06,16.2-12.51-16.42-.05,14c0,2.02,1.3,2.21,1.42,2.21v.02s-3.31-.01-3.31-.01v-.02Z"/>
    </g>
  </g>
  <text class="cls-3-e06sn second-color" transform="translate(184.11 588.86)">
	<tspan x="0" y="0" id="span_svg_logo_envie.10408d17-c63a-429f-a915-6110acd4ed21_8">Name Text</tspan>
  </text>
</svg>