<svg id="Layer_2" data-name="Layer 2" xmlns="http://www.w3.org/2000/svg" viewBox="0 0 700 700">
  <defs>
    <style>
      .cls-1-a12 {
        isolation: isolate;
      }

      .cls-1-a12, .cls-2-a12 {
        fill: none;
      }

      .cls-3-a12 {
        fill: #231f20;
      }
    </style>
  </defs>
  <g id="Layer_1-2" data-name="Layer 1">
    <rect class="cls-2-a12" width="700" height="700"/>
    <g>
      <g class="cls-1-a12">
        <path class="cls-3-a12 second-color" d="m165.19,556.99c1.71.68,2.22,2.39,1.2,3.59-.85,1.03-1.2,1.03-3.59.17-2.22-.68-4.27-2.56-5.47-4.96-3.93-7.69-2.39-29.9,3.25-48.36,4.27-13.67,12.3-29.56,21.36-41.86,2.05-2.91,3.76-5.3,3.59-5.3-.51,0-11.62,9.57-22.55,19.31-20.5,18.45-26.66,23.58-30.58,25.63-4.96,2.39-7.18,1.2-7.18-4.1,0-3.59,1.2-8.54,5.13-20.5,3.25-9.91,3.93-13.5,2.73-13.5-3.76,0-21.87,21.02-36.91,42.72-2.73,3.76-8.37,12.47-12.64,19.31-7.69,12.3-9.06,14.18-9.91,13.67-.85-.51-.51-2.22,1.88-8.89,4.44-12.81,14.69-47.67,16.23-55.53,1.03-4.96,1.03-8.37,0-9.06-3.25-2.22-15.55,10.25-26.83,27-9.4,14.18-16.4,29.22-16.4,35.2,0,1.71-.68,2.56-1.88,2.56-3.42,0-1.37-9.06,4.61-21.36,7.52-15.55,17.6-30.07,27.34-39.3,8.2-7.69,13.67-9.23,15.55-4.44.86,2.22.86,3.93-.17,9.23-1.2,5.98-8.03,28.53-16.06,53.14-.68,1.88-1.03,3.25-.85,3.08,0,0,2.22-3.59,4.78-7.86,15.38-25.46,33.32-48.87,44.6-57.92,4.96-4.1,7.18-4.78,8.54-2.9,1.54,2.05,1.03,5.3-3.76,21.87-1.54,5.3-2.9,10.94-3.07,12.47-.17,2.56-.17,2.73.68,2.73,2.22,0,6.32-3.42,34.34-28.71,31.1-27.85,34.69-30.76,36.91-28.53,1.37,1.37.68,3.08-2.91,7.35-14.69,17.43-24.78,36.74-31.61,60.83-3.25,11.62-4.44,18.62-4.79,26.83-.34,10.42.68,13.84,4.44,15.38v1.03Z"/>
        <path class="cls-3-a12 second-color" d="m207.05,511.54c.17.17.17.34.17.51-1.37,2.39-2.91,4.78-4.61,7.01-.85,1.03-1.88,2.05-3.08,3.08-1.54,1.54-4.27,1.88-6.49,1.02-.85-.34-1.54-1.02-1.88-1.71s-.51-1.37-.68-2.05c-.17-.68-.17-1.37-.17-2.05,0-1.54,0-2.9.17-4.27-.85,1.03-1.71,2.22-2.73,3.59-3.76,5.64-5.81,8.03-7.18,8.54-1.03.34-1.88-.17-2.56-1.54-.51-1.03-.51-1.2-.34-3.08.17-3.42,1.54-7.35,3.76-10.94,1.2-2.05,3.42-4.27,4.61-4.78,1.03-.51,2.73-.68,3.59-.34,1.2.51,2.73,2.56,2.9,3.93.51.17.85.68.68,1.2-.34,1.2-.51,2.56-.68,3.93s-.34,2.73-.34,4.1.17,2.73.68,3.76c.34.51.68.85,1.2,1.02.51.17,1.03.17,1.54.17,2.39-.17,4.44-2.05,6.32-3.93,1.88-2.05,3.59-4.27,5.12-6.49.17-.17.34-.17.51,0l-.51-.68Zm-17.09-.34l-1.03-1.2c-.51-.68-1.2-1.37-1.37-1.54-.68-.34-2.22.85-3.59,2.9-1.88,2.73-4.1,8.2-4.44,10.59-.17,1.2,0,1.37.68.85s5.3-5.98,7.69-9.23l2.05-2.39Z"/>
        <path class="cls-3-a12 second-color" d="m253.87,521.79c-6.32,4.78-10.94,6.49-14.52,6.49-4.1,0-6.32-1.54-9.4-6.49-2.05-3.25-2.05-3.42-3.59-3.59-2.22-.17-5.3,1.54-13.16,7.52-3.93,2.9-7.18,5.13-7.52,5.3-1.2.34-2.39-.34-2.9-1.71-.51-1.37-.17-4.78,1.03-10.59.34-1.37.68-3.25.68-3.42v-.17l1.54-3.08c.51-.51,1.2-.85,1.88-.85.51,0,1.03.17,1.37.51.85,1.03.68,3.59-.68,8.71l-.51,1.71c-.51,1.88-1.03,3.42-1.03,3.59s0,.34.17.51c.34.17.86-.17,7.69-4.61,7.52-4.96,9.74-6.15,12.3-6.32,2.39-.17,3.25.51,5.13,4.44,1.71,3.59,2.73,4.96,4.61,5.98,4.1,2.05,8.54.85,16.92-4.78.85-.51,1.54-.85,2.05-1.2-.68,1.37-1.03,1.37-2.05,2.05Z"/>
        <path class="cls-3-a12 second-color" d="m279.15,518.03c.51,0,.68.68.34.85-11.11,7.01-15.04,9.23-19.14,10.59-3.25,1.03-5.12,1.03-6.66,0-2.56-1.71-2.91-5.98-1.03-12.64.51-1.88,1.03-3.76,1.2-4.1,0-.17.85-2.56,1.37-3.93,1.54-3.42,3.42-4.27,4.96-2.39,1.03,1.2.85,2.56-1.2,7.01-2.91,6.32-4.27,12.3-3.42,13.67.34.51.85.68,1.88.68,3.08,0,8.71-2.56,21.7-10.08h.17l-.17.34Zm-18.28-13.84c-1.2-.51-1.71-2.05-1.03-3.59.68-1.54,2.22-2.22,3.42-1.71s1.71,2.05,1.03,3.59-2.22,2.22-3.42,1.71Z"/>
        <path class="cls-3-a12 second-color" d="m300,518.2c.51,0,.85.68.51,1.03-.68.68-1.37,1.37-2.22,2.22-3.08,3.08-6.32,6.15-7.18,6.83-3.59,2.39-8.03,3.08-10.59,2.05-3.25-1.37-4.44-5.13-4.27-8.37v-1.03c.34-2.91.68-6.15,2.73-8.54,3.42-4.1,8.54-2.9,9.57-1.54.68,1.02.85,1.71-.51,4.1-.34.68-1.2,1.03-2.05,1.03-.34,0-.68-.17-1.03-.34-.85-.51-.68-1.54-.34-2.56-.17,0-.85.34-1.03.51-2.05,1.54-2.9,5.81-3.42,8.2-.34,1.37-.51,2.73,0,3.93.86,2.22,3.25,2.73,5.47,2.39,2.56-.51,4.96-1.88,7.01-3.42,1.71-1.37,4.44-4.1,6.83-6.83.17-.17.34-.17.51-.17v.51Z"/>
        <path class="cls-3-a12 second-color" d="m339.13,516.49c.51,0,.85.51.51.85-1.71,2.56-4.27,5.81-6.15,7.69-2.22,2.22-3.42,3.08-5.81,4.27-4.61,2.39-7.35,2.05-9.4-1.37-.85-1.37-1.03-2.05-1.2-4.96l-.17-3.42-1.88,2.39c-3.08,3.59-8.03,8.54-9.57,9.57-1.71,1.2-3.93,2.05-5.3,2.05-1.2,0-3.08-1.37-3.76-2.73-1.2-2.39-.68-7.86,1.2-14.01l.51-1.71s.68-2.56.85-3.25c1.2-3.76,4.96-3.93,5.47-.34.17,1.03-.17,2.56-2.05,8.03-1.71,5.3-2.22,7.18-2.22,8.37.17,1.37.17,1.54,1.03,1.71,2.39.34,6.49-2.73,10.94-8.03,1.54-1.88,3.59-4.61,4.44-5.98.85-1.37,1.71-2.73,2.05-3.08,1.2-1.37,3.25-.34,3.59,1.71,0,.51,0,2.73-.17,4.96-.34,4.27-.17,6.49.68,7.35,1.2,1.2,5.3.17,8.71-2.22,2.22-1.54,4.79-4.27,7.01-7.35.17-.17.34-.34.51-.34l.17-.17Z"/>
        <path class="cls-3-a12 second-color" d="m372.96,516.32h-2.39c-4.1.17-5.13-.51-8.37-5.64-1.2-1.88-1.54-2.22-2.56-2.22-2.56-.17-6.84,3.59-15.89,13.84-2.56,2.91-5.13,5.64-5.64,5.98-2.22,1.54-3.76.51-3.76-2.56,0-1.71.34-3.59,1.88-11.11.17-.68.51-2.56.86-3.42.34-.85,1.03-1.71,1.54-2.05.85-.68,1.03-.68,1.88-.17.51.34,1.2,1.03,1.37,1.54.34.85.17,1.54-1.71,7.52-1.03,3.59-1.88,6.66-1.88,6.66,0,0,3.42-3.25,7.52-7.18,7.18-7.18,10.25-9.74,12.64-10.42,2.39-.68,3.59.17,5.98,4.1.68,1.2,1.71,2.56,2.22,2.9,1.2,1.03,3.25,1.37,5.64,1.03h.51c.34,0,.68.17.68.51s-.17.68-.51.68Z"/>
        <path class="cls-3-a12 second-color" d="m400.12,517.18c.34,0,.51.51.17.85-5.13,4.78-9.23,7.52-13.5,9.23-3.25,1.37-7.01,1.71-9.23.85-3.25-1.2-5.98-5.13-5.98-8.71v-1.54l.34-3.76c1.54-5.98,4.79-9.06,7.86-7.35,2.73,1.37,3.25,3.42,2.05,7.35-1.2,3.59-2.22,4.61-4.44,4.61h-1.54v1.2c0,3.59,3.08,6.49,6.83,6.49,2.73,0,7.69-2.05,11.79-4.78,1.54-1.03,3.25-2.39,5.13-3.93h.34l.17-.51Zm-21.36-6.32c-.68.85-2.05,4.1-2.05,4.96,0,.34.17.51.51.34s.68-.17.86-.17c.68,0,2.39-2.22,2.56-3.25s0-1.37-.68-1.88q-.85-.68-1.37,0h.17Z"/>
        <path class="cls-3-a12 second-color" d="m485.55,497.53c-2.22.85-2.39,1.03-1.71,1.54.51.34,1.88,1.54,3.08,2.73,11.11,10.76,9.23,26.48-4.79,39.98-8.54,8.2-21.36,14.87-33.15,17.26-4.44.85-10.76,1.03-13.84.17-3.25-.85-4.96-1.71-7.01-3.76-9.91-9.4-.85-27.17,21.53-42.2,7.69-5.13,16.75-9.74,27.34-14.01,1.02-.34,1.88-.85,1.88-1.03,0-.34-1.03-.85-5.13-2.39-7.69-3.08-16.06-4.96-29.39-6.32-15.72-1.71-19.48-2.9-22.9-6.83-1.88-2.05-2.56-4.1-2.56-7.01,0-11.45,16.23-30.24,31.78-36.74,4.61-1.88,8.03-2.56,12.3-2.39,3.08.17,4.1.34,6.32,1.37,7.86,3.93,11.11,13.33,8.54,24.78-.34,1.37-1.03,3.25-1.54,4.1-1.54,2.9-4.44,4.1-6.15,2.39-1.2-1.2-1.03-3.08.34-5.3.68-1.03,1.54-2.9,1.88-4.1.85-2.91,1.2-9.06.68-11.11-.68-2.73-2.73-5.3-5.3-6.66-2.05-1.2-2.39-1.2-6.49-1.2-3.59,0-4.61.17-7.18,1.2-12.82,4.78-27.51,18.8-31.27,29.73-2.22,6.49-.17,10.25,6.66,12.47,2.05.68,7.69,1.71,14.18,2.73,18.8,2.73,28.71,5.3,35.88,9.23l2.05,1.03,5.47-1.88c9.4-3.25,16.57-4.44,16.57-2.9,0,.51-.34.68-1.37.68-3.08,0-9.05,1.54-16.57,4.44h-.17Zm.34,6.15c-1.88-1.88-3.76-3.42-4.27-3.59-1.88-.68-23.07,9.4-31.27,14.87-11.11,7.35-19.48,16.23-23.07,24.26-1.03,2.56-1.2,3.42-1.2,6.83,0,3.59.17,3.93,1.37,5.81,1.03,1.54,1.88,2.22,3.93,3.25,1.37.68,3.42,1.37,4.44,1.54,2.73.51,8.71.17,12.64-.68,12.13-2.39,25.97-9.4,33.83-17.09,5.12-5.13,7.86-9.4,9.23-14.87,2.05-8.03.17-14.52-5.98-20.67l.34.34Z"/>
        <path class="cls-3-a12 second-color" d="m554.75,494.28c.51.17.85.68.68,1.2,0,.34-.17.51-.34.68h-.34l-.34.17h-9.06c-3.25,0-6.49-.17-9.74-.17l-9.57-.34-6.66-.17-3.42,5.64c-10.42,17.09-17.94,35.88-16.06,39.81.34.51.85,1.03,1.2,1.2,1.2.34,3.76-.68,6.83-2.73,4.27-2.73,6.66-4.78,15.72-13.33,2.9-2.73,4.78-4.44,5.98-5.64.34-.34.85,0,.85.51v.51l-1.2,1.02c-1.2,1.2-4.61,4.44-7.52,7.35-10.59,10.25-15.89,14.18-19.82,14.18-1.54,0-1.88-.17-2.73-1.02-1.54-1.37-1.88-2.73-1.71-6.49.34-4.78,2.9-13.16,7.01-22.21,1.03-2.39,1.88-4.44,1.88-4.44l1.54-2.73,1.88-3.42c1.03-1.88,2.39-4.44,3.08-5.64s1.37-2.56,1.37-2.56l-7.35-.17-9.57-.34h-9.74c-1.54,0-3.08,0-4.61.17h-4.27c-.51.34-1.2.17-1.54-.34-.34-.51-.17-1.2.34-1.54h5.13l4.78.17c3.25.17,6.49.17,9.74.17l17.77.34,4.27-6.49c2.39-3.59,4.96-7.69,5.81-9.06,1.88-3.08,3.42-4.1,5.12-3.42.51.17,1.2.85,1.54,1.37,1.03,1.71.51,2.9-2.56,6.32-3.08,3.25-8.71,11.11-8.37,11.45h15.38c3.25,0,6.49,0,9.74-.17,1.54,0,3.08,0,4.61-.17.85,0,1.71,0,2.39-.17h1.71l1.02.17-.85.34Z"/>
        <path class="cls-3-a12 second-color" d="m568.25,516.49c.51,0,.85.51.51.85-1.71,2.56-4.27,5.81-6.15,7.69-2.22,2.22-3.42,3.08-5.81,4.27-4.61,2.39-7.35,2.05-9.4-1.37-.85-1.37-1.03-2.05-1.2-4.96l-.17-3.42-1.88,2.39c-3.08,3.59-8.03,8.54-9.57,9.57-1.71,1.2-3.93,2.05-5.3,2.05-1.2,0-3.08-1.37-3.76-2.73-1.2-2.39-.68-7.86,1.2-14.01l.51-1.71s.68-2.56.85-3.25c1.2-3.76,4.96-3.93,5.47-.34.17,1.03-.17,2.56-2.05,8.03-1.71,5.3-2.22,7.18-2.22,8.37.17,1.37.17,1.54,1.03,1.71,2.39.34,6.49-2.73,10.94-8.03,1.54-1.88,3.59-4.61,4.44-5.98.85-1.37,1.71-2.73,2.05-3.08,1.2-1.37,3.25-.34,3.59,1.71,0,.51,0,2.73-.17,4.96-.34,4.27-.17,6.49.68,7.35,1.2,1.2,5.3.17,8.71-2.22,2.22-1.54,4.79-4.27,7.01-7.35.17-.17.34-.34.51-.34l.17-.17Z"/>
        <path class="cls-3-a12 second-color" d="m605.33,517.35c.17-.34.51-.51.85-.34s.51.51.51.85c-.34,1.37-.85,2.56-1.54,3.76-.68,1.2-1.37,2.39-2.22,3.42-.85,1.03-1.88,2.05-3.08,2.9-1.2.85-2.56,1.37-4.1,1.54-.68,0-1.37,0-2.05-.17h-1.37c-.51-.17-1.03-.34-1.37-.68-.68-.68-1.03-1.54-1.2-2.22s-.34-1.37-.34-2.05c0-1.37.17-2.73.34-4.1s.34-2.73.68-4.1c.68-3.42,1.71-6.83,2.73-10.08-1.02,1.2-2.22,2.56-2.73,3.25-3.08,5.3-6.15,9.91-9.4,14.35-4.96,6.66-8.2,9.57-10.94,10.08-1.54.17-1.71.17-3.08-1.02-.85-.85-1.54-1.88-1.88-2.73-.51-1.71-.85-5.81-.51-7.69l.17-1.2s1.2-3.42,1.54-4.1c1.03-2.39,4.44-6.15,6.66-7.35,4.44-2.56,9.06-1.37,11.28,2.9l.68,1.37,1.37-2.22c5.47-8.54,11.79-21.19,15.55-30.93,2.56-6.83,3.76-8.71,5.47-6.66,1.03,1.03.85,1.71-1.03,5.47-1.37,2.56-2.73,5.81-4.1,9.4,0,.17-.17.34-.17.51-1.71,4.1-3.42,8.2-4.96,12.3-.85,2.56-1.71,5.13-2.56,7.69-.85,2.56-1.71,5.13-2.39,7.69-.34,1.37-.68,2.73-.85,4.1-.17,1.37-.34,2.73-.34,3.93,0,.68,0,1.37.17,1.88.17.51.34,1.02.68,1.37.17.17.34.34.51.34h.68c.51.17,1.03.17,1.54.17,1.2,0,2.39-.34,3.42-1.03,1.03-.68,2.05-1.54,2.9-2.56.85-1.03,1.54-2.05,2.22-3.25.68-1.2,1.2-2.39,1.71-3.59l.51-1.2Zm-30.07,8.54c2.39-2.56,7.18-8.89,7.18-9.23,0-.68-1.71-2.05-2.73-2.39-2.05-.68-3.93-.34-5.64,1.03-3.08,2.39-5.81,8.37-5.64,12.3.17,3.08,1.03,3.42,3.59,1.54.68-.51,2.22-2.05,3.42-3.42l-.17.17Z"/>
        <path class="cls-3-a12 second-color" d="m630.27,518.03c.51,0,.68.68.34.85-11.11,7.01-15.04,9.23-19.14,10.59-3.25,1.03-5.13,1.03-6.66,0-2.56-1.71-2.9-5.98-1.03-12.64.51-1.88,1.03-3.76,1.2-4.1,0-.17.85-2.56,1.37-3.93,1.54-3.42,3.42-4.27,4.96-2.39,1.02,1.2.85,2.56-1.2,7.01-2.9,6.32-4.27,12.3-3.42,13.67.34.51.85.68,1.88.68,3.08,0,8.71-2.56,21.7-10.08h.17l-.17.34Zm-18.28-13.84c-1.2-.51-1.71-2.05-1.02-3.59.68-1.54,2.22-2.22,3.42-1.71,1.2.51,1.71,2.05,1.03,3.59s-2.22,2.22-3.42,1.71Z"/>
        <path class="cls-3-a12 second-color" d="m655.05,514.44c0,.17-.17.34-.34.34-.68.17-2.05.68-4.1,1.37-4.27,1.54-6.66,2.05-9.23,2.05-1.71,0-2.22-.17-4.27-.68q-.34-.17-.34.68c0,2.05-1.02,5.47-2.22,7.35-.68,1.2-2.05,2.39-2.9,2.56-.86.17-1.54-.34-2.22-1.54q-.51-1.03-.51-3.59c0-1.88.17-3.08.34-4.1.17-.85.34-1.54.34-1.54,0,0,.51-1.37.85-2.05.68-1.37,1.54-2.22,2.22-2.22.51,0,1.2.51,1.2,1.03q0,.17.17.17c.34-.17,1.37.34,1.88,1.03,1.2,1.71,5.47,2.39,9.4,1.37,2.56-.68,7-2.39,9.06-3.42.34.68.68.85.68,1.2Zm-22.21,11.79c1.37-1.54,2.73-5.13,2.73-7.18,0-.85-.51-1.71-1.2-2.22-.17-.17-.51-.51-.68-.68l-.17-.51-.34.68c-1.88,4.44-2.9,10.76-1.71,10.76.17,0,.68-.34,1.2-.85h.17Z"/>
      </g>
      <g class="cls-1-a12">
        <path class="cls-3-a12 second-color" d="m208.54,577.39v13.27c0,3.02.06,5.13.17,6.32.09.91.24,1.46.45,1.66.21.2.83.34,1.84.43l1.23.1v1.21c-1.4-.09-2.66-.13-3.79-.13-.78,0-2.58.04-5.39.13v-1.21h1.38c.83,0,1.38-.12,1.63-.35.26-.23.42-.69.48-1.36.14-1.41.21-3.32.21-5.74v-9.54c0-1.79-.02-3.56-.06-5.32-.03-.74-.12-1.25-.3-1.53s-.43-.52-.76-.74c-.33-.22-.8-.33-1.4-.33h-1.19v-1.21c1.62.09,2.87.13,3.72.13.92,0,1.93-.04,3.03-.13,1.27,1.55,2.46,3.06,3.58,4.52,1.12,1.47,2.28,2.94,3.48,4.43l6.57,8.06c2.37,2.89,4.08,4.9,5.13,6.03v-12.33c0-5.16-.09-7.98-.28-8.46s-.92-.78-2.22-.91l-1.44-.13v-1.21c2.06.09,3.66.13,4.8.13s2.73-.04,4.61-.13v1.21h-1.48c-1.19,0-1.88.4-2.05,1.19-.12.53-.17,3.33-.17,8.41v8.66c0,2.33.1,5.11.31,8.35-1.74-.27-2.75-.46-3.03-.59-.28-.12-.55-.32-.81-.61-1.42-1.57-2.91-3.32-4.47-5.24l-13.8-17.05Z"/>
        <path class="cls-3-a12 second-color" d="m245.76,587.03l.02-1.29-.02-1.33,2.09-1.19c.95-.54,1.78-.91,2.49-1.11s1.47-.31,2.28-.31c1.77,0,3.19.4,4.27,1.19,1.08.79,1.73,1.8,1.95,3.03.15.92.25,3.2.29,6.85.03,3.44.1,5.34.23,5.7.13.36.45.54.96.54h1.5v1.27c-1.46-.09-2.48-.13-3.05-.13-.72,0-1.68.04-2.88.13l.02-1.71c0-.55,0-1.11-.02-1.67l-3.97,3.03c-.36.27-.71.46-1.06.57-.35.11-.83.16-1.44.16-1.65,0-2.91-.41-3.78-1.22-.87-.81-1.3-1.9-1.3-3.27,0-1.29.31-2.42.93-3.38s1.5-1.68,2.65-2.14c1.15-.46,3.8-1.06,7.98-1.8-.03-1.62-.38-2.84-1.08-3.65-.87-1.01-2.11-1.52-3.72-1.52-.61,0-1.19.08-1.73.23-.54.15-1.04.38-1.5.68-.37.92-.71,1.79-1.02,2.63l-1.08-.29Zm10.12,3.05c-3.56.77-5.82,1.48-6.78,2.16-.96.67-1.44,1.71-1.44,3.11,0,.95.28,1.7.83,2.27.55.57,1.26.85,2.13.85.96,0,1.88-.27,2.75-.8s1.71-1.33,2.51-2.39l-.04-4.25.04-.94Z"/>
        <path class="cls-3-a12 second-color" d="m278.09,581.73l.46.29c-.09.96-.15,2.02-.17,3.17-.09,3.74-.13,6.5-.13,8.27,0,1.66.06,3.09.17,4.26.05.46.17.78.37.96.19.18.65.31,1.38.4l1.31.17v1.11c-1.87-.09-3.57-.13-5.11-.13s-3.03.04-4.57.13v-1.11l1.65-.17c.64-.05,1.03-.17,1.18-.36s.24-.8.28-1.86c.06-1.63.1-3.88.1-6.74,0-1.99-.03-3.52-.1-4.6-.03-.4-.14-.68-.34-.85-.2-.17-.64-.25-1.33-.25h-1.44v-1.11c1.56-.23,2.71-.44,3.45-.62s1.69-.51,2.85-.97Zm-1.54-8.5c.59,0,1.09.21,1.52.64.42.43.63.94.63,1.54s-.21,1.11-.63,1.54c-.42.42-.93.63-1.52.63s-1.11-.21-1.54-.63c-.42-.42-.63-.94-.63-1.54s.21-1.12.63-1.54c.42-.43.93-.64,1.54-.64Z"/>
        <path class="cls-3-a12 second-color" d="m298.06,571.87c-.22,3.75-.33,7.14-.33,10.18v9.87c0,3.92.08,6.14.25,6.66.09.27.51.44,1.27.52l1.63.17v1.11c-1.4-.09-2.73-.13-4-.13-1.41,0-3.26.04-5.54.13v-1.11l1.65-.13c.73-.06,1.15-.25,1.25-.56.17-.5.25-2.77.25-6.82v-9.81l-.02-3.69-.06-2.52c0-.63-.07-1.01-.21-1.15-.21-.21-.63-.31-1.29-.31h-1.57v-1.15c2.67-.24,4.8-.74,6.39-1.5l.33.23Z"/>
        <path class="cls-3-a12 second-color" d="m312.9,594.5v1.25c0,1,.09,1.62.27,1.87.33.41.98.81,1.95,1.2.97.38,1.96.58,2.99.58,1.32,0,2.39-.36,3.23-1.07.83-.71,1.25-1.56,1.25-2.55,0-.78-.24-1.41-.73-1.88s-1.41-.85-2.78-1.13c-2.55-.51-4.23-.96-5.05-1.34-.82-.38-1.43-.9-1.84-1.54-.41-.64-.61-1.41-.61-2.32,0-1.71.62-3.09,1.86-4.15,1.24-1.06,2.99-1.59,5.26-1.59,1.79,0,3.58.36,5.36,1.07-.11.87-.2,2.33-.27,4.38h-1.15c-.03-1.12-.15-1.87-.36-2.23-.29-.47-.83-.9-1.61-1.29-.78-.38-1.61-.58-2.49-.58-1.16,0-2.09.3-2.79.89-.7.6-1.04,1.34-1.04,2.24s.28,1.51.83,1.94c.55.45,2.07.92,4.57,1.42,1.84.37,3.06.72,3.65,1.04s1.06.8,1.42,1.46.54,1.4.54,2.25c0,1.73-.74,3.21-2.22,4.47-1.48,1.25-3.45,1.88-5.92,1.88-1.57,0-3.34-.25-5.3-.74-.35-.09-.52-.22-.52-.4l.06-.27c.05-.19.1-.53.13-1.02.12-1.24.17-2.21.17-2.91l-.02-.92h1.19Z"/>
        <path class="cls-3-a12 second-color" d="m369.5,586.3l1.17-1.75c1.32.06,2.34.1,3.07.1l2.42-.06c2.38-.06,4.36-.1,5.93-.12-.2,1.1-.35,2.02-.44,2.76-1.37-.22-3.21-.36-5.53-.44.15.67.23,1.23.23,1.69,0,1.04-.25,2.1-.74,3.19s-1.33,2.26-2.52,3.51c1.31.96,2.55,1.65,3.72,2.06s2.25.62,3.21.62c.49,0,1.22-.31,2.21-.92l.29.92c-1.61,1.15-2.75,2.03-3.4,2.63-.51.17-1.04.25-1.57.25-1.96,0-4.25-1.06-6.87-3.19-1.47,1.2-2.81,2.04-4.01,2.5s-2.52.69-3.96.69c-2.36,0-4.28-.74-5.78-2.23-1.5-1.48-2.25-3.33-2.25-5.53,0-1.87.55-3.53,1.65-4.97.75-.98,2.21-2.14,4.38-3.47-.74-1.95-1.11-3.59-1.11-4.93,0-1.04.15-1.94.46-2.71.2-.53.6-1.04,1.19-1.55,1.51-1.29,2.46-2.04,2.86-2.25.58-.29,1.25-.44,2.02-.44,1.09,0,1.94.33,2.56,1,.62.66.93,1.56.93,2.69,0,2.62-1.88,5.24-5.63,7.85,2.1,3.88,4.75,7.24,7.95,10.08.73-.88,1.23-1.7,1.51-2.44.27-.74.41-1.52.41-2.34,0-.9-.15-1.64-.46-2.23-.14-.27-.34-.44-.61-.52-.46-.13-1.52-.19-3.19-.17l-.1-.29Zm0,10.27c-3.03-2.79-5.75-6.32-8.14-10.6-1.23.86-2.09,1.73-2.59,2.62-.5.89-.75,1.88-.75,2.97,0,1.79.62,3.39,1.86,4.8s2.79,2.11,4.65,2.11c1.6,0,3.26-.63,4.97-1.9Zm-6.16-13.71c2.35-1.89,3.53-3.76,3.53-5.59,0-.81-.2-1.45-.59-1.93-.4-.48-.9-.72-1.5-.72-.72,0-1.3.29-1.76.86-.45.57-.68,1.44-.68,2.62,0,1.31.33,2.89,1,4.76Z"/>
        <path class="cls-3-a12 second-color" d="m427.88,574.34c-.36,1.33-.55,3.1-.58,5.3h-1.33v-1.54c0-1-.13-1.68-.4-2.04-.27-.36-.97-.74-2.1-1.14-1.13-.4-2.33-.61-3.58-.61-2.05,0-3.66.52-4.83,1.55-1.17,1.04-1.76,2.36-1.76,3.99,0,1.02.24,1.9.72,2.64.48.73,1.13,1.27,1.94,1.59.81.33,2.54.61,5.17.86,2.64.26,4.42.6,5.35,1.02s1.67,1.1,2.23,2.04c.56.94.83,2.04.83,3.32,0,2.57-1.08,4.79-3.23,6.65-2.15,1.86-5.02,2.79-8.6,2.79-1.23,0-2.47-.12-3.72-.38-1.25-.25-2.5-.62-3.77-1.1.23-1.54.34-3.51.33-5.91h1.3v.96c0,1.24.06,2.01.19,2.3.13.29.43.61.9.94.7.5,1.54.88,2.51,1.14s2.02.39,3.15.39c2.42,0,4.29-.57,5.61-1.71,1.32-1.14,1.98-2.58,1.98-4.34,0-1.02-.22-1.89-.67-2.6s-1.08-1.24-1.88-1.58c-.81-.35-2.3-.61-4.47-.79-2.89-.23-4.86-.58-5.89-1.04-1.04-.46-1.85-1.19-2.44-2.18-.59-.99-.88-2.22-.88-3.7,0-2.5.9-4.54,2.71-6.12,1.8-1.59,4.3-2.38,7.49-2.38,1.28,0,2.56.14,3.85.41s2.58.69,3.87,1.26Z"/>
        <path class="cls-3-a12 second-color" d="m445.67,585.69l2.68-2.38c.68-.6,1.25-.98,1.73-1.13.75-.24,1.64-.36,2.65-.36,2.28,0,4.12.7,5.52,2.11,1.41,1.41,2.11,3.22,2.11,5.45,0,1.11-.16,2.21-.48,3.29-.32,1.08-.71,1.96-1.17,2.65s-.98,1.26-1.55,1.72c-.19.15-.97.66-2.34,1.52l-.77.56c-.97.68-1.75,1.12-2.35,1.33-.59.21-1.28.32-2.04.32-.6,0-1.23-.09-1.9-.26-.67-.17-1.36-.43-2.09-.76v2.71c0,2.78.04,4.73.12,5.88.04.5.2.86.48,1.08s.88.34,1.79.34h1.04v1.08c-2.42-.09-4.2-.13-5.33-.13-1.24,0-2.83.04-4.75.13v-1.08h1.4c.99,0,1.57-.21,1.75-.63.18-.42.27-2.68.27-6.76v-11.79c0-2.05-.05-3.63-.15-4.74-.05-.54-.18-.89-.37-1.07-.2-.17-.66-.26-1.39-.26h-1.5v-1.19c1.78-.19,3.54-.56,5.26-1.09l1.17-.46c.21,0,.31.18.31.54l-.06,2.04-.02,1.36Zm0,10.56c.82.92,1.64,1.57,2.45,1.96.82.38,1.7.58,2.64.58,2.02,0,3.57-.76,4.64-2.29,1.07-1.52,1.61-3.33,1.61-5.43,0-1.41-.25-2.62-.74-3.62-.49-1.01-1.21-1.79-2.16-2.36-.95-.57-1.96-.86-3.05-.86-.77,0-1.52.15-2.25.46-.73.31-1.38.73-1.93,1.28-.55.54-.9,1.04-1.05,1.51-.12.35-.17,1.26-.17,2.75v6.03Z"/>
        <path class="cls-3-a12 second-color" d="m472.74,587.03l.02-1.29-.02-1.33,2.09-1.19c.95-.54,1.78-.91,2.49-1.11s1.47-.31,2.28-.31c1.77,0,3.19.4,4.27,1.19,1.08.79,1.73,1.8,1.95,3.03.15.92.25,3.2.29,6.85.03,3.44.1,5.34.23,5.7.13.36.45.54.96.54h1.5v1.27c-1.46-.09-2.48-.13-3.05-.13-.72,0-1.68.04-2.88.13l.02-1.71c0-.55,0-1.11-.02-1.67l-3.97,3.03c-.36.27-.71.46-1.06.57-.35.11-.83.16-1.44.16-1.65,0-2.91-.41-3.78-1.22-.87-.81-1.3-1.9-1.3-3.27,0-1.29.31-2.42.93-3.38s1.5-1.68,2.65-2.14c1.15-.46,3.8-1.06,7.98-1.8-.03-1.62-.38-2.84-1.08-3.65-.87-1.01-2.11-1.52-3.72-1.52-.61,0-1.19.08-1.73.23-.54.15-1.04.38-1.5.68-.37.92-.71,1.79-1.02,2.63l-1.08-.29Zm10.12,3.05c-3.56.77-5.82,1.48-6.78,2.16-.96.67-1.44,1.71-1.44,3.11,0,.95.28,1.7.83,2.27.55.57,1.26.85,2.13.85.96,0,1.88-.27,2.75-.8s1.71-1.33,2.51-2.39l-.04-4.25.04-.94Z"/>
      </g>
      <g>
        <path class="cls-3-a12 first-color" d="m211.45,360.27c15.21-2.77,30.07-7.2,44.45-12.72,14.39-5.49,28.3-12.24,41.45-20.19,6.58-3.96,12.91-8.34,19.03-12.96,3.09-2.28,6.02-4.76,8.98-7.19,2.86-2.55,5.77-5.04,8.49-7.75,1.38-1.32,2.77-2.64,4.09-4.04l3.98-4.14c2.53-2.88,5.13-5.68,7.49-8.71,2.43-2.93,4.77-6.03,7.14-9.08l7.11-9.16c19.07-24.33,38.29-48.65,59.28-71.45,10.52-11.37,21.5-22.37,33.46-32.27,6-4.91,12.25-9.54,18.86-13.61,6.58-4.1,13.64-7.48,21.03-9.74l-2.71,1.03c-.45.17-.91.34-1.35.52l-1.32.59c-.88.4-1.77.78-2.63,1.19l-2.57,1.32-1.28.65-1.26.71-2.52,1.42c-1.63,1.02-3.29,2-4.89,3.07-6.42,4.26-12.47,9.06-18.25,14.13-5.8,5.06-11.37,10.4-16.77,15.9-5.4,5.5-10.65,11.14-15.78,16.9-10.23,11.53-20.15,23.36-29.82,35.4-9.7,12.01-19.24,24.16-28.73,36.36l-7.14,9.13c-2.38,3.05-4.72,6.11-7.23,9.11-2.41,3.07-5.08,5.93-7.66,8.84-2.72,2.79-5.37,5.66-8.26,8.27-2.8,2.72-5.78,5.22-8.71,7.79-3.04,2.44-6.04,4.92-9.2,7.2-6.25,4.64-12.74,8.97-19.47,12.85-13.43,7.85-27.62,14.31-42.25,19.45-7.32,2.55-14.75,4.77-22.26,6.68-3.76.93-7.53,1.81-11.32,2.57-3.8.78-7.61,1.43-11.45,1.9Z"/>
        <path class="cls-3-a12 first-color" d="m350.31,280.66c.58-11.75,1.09-23.48,1.14-35.18,0-5.84-.07-11.7-.51-17.48-.25-2.89-.54-5.76-1.02-8.57-.5-2.78-1.19-5.58-2.41-7.8l-3.49-6.35,5.97,4.05c5.39,3.66,10.33,8.3,13.8,14.04,3.47,5.71,5.14,12.49,4.91,19.08-.1,3.3-.59,6.56-1.36,9.72-.82,3.16-1.92,6.21-3.16,9.19-2.62,5.9-5.89,11.44-9.67,16.59,3.1-5.58,5.92-11.29,8.03-17.23,2.08-5.93,3.47-12.12,3.38-18.28-.06-3.07-.45-6.11-1.28-9.04-.8-2.93-2.11-5.7-3.7-8.27-1.58-2.59-3.56-4.94-5.73-7.1-2.2-2.14-4.63-4.05-7.17-5.84l2.48-2.29c1.59,2.98,2.22,5.98,2.75,8.97.5,2.98.77,5.97.92,8.93.29,5.94.23,11.86-.07,17.75-.26,5.89-.77,11.77-1.38,17.62-.65,5.84-1.39,11.68-2.4,17.48Z"/>
        <path class="cls-3-a12 first-color" d="m357.51,226.63c.6,4.4.87,8.81,1,13.23.07,2.21.06,4.41.04,6.63-.02,2.21-.13,4.41-.22,6.63-.26,4.41-.68,8.84-1.41,13.22-.2,1.1-.38,2.19-.6,3.28l-.79,3.25c-.3,1.07-.67,2.13-1.01,3.19-.38,1.05-.88,2.06-1.35,3.05l.34-1.63c.11-.54.27-1.05.32-1.61.14-1.1.35-2.16.46-3.25l.36-3.26c.07-1.1.19-2.18.28-3.27.13-2.18.35-4.36.44-6.55.16-2.18.28-4.37.38-6.56l.75-13.14c.25-4.4.56-8.79,1.02-13.2Z"/>
        <path class="cls-3-a12 first-color" d="m397.95,221.35c-1.16-4.31-1.9-8.72-2.46-13.16-.56-4.44-.91-8.9-1.07-13.38-.12-4.48-.07-8.97.2-13.45.28-4.48.78-8.94,1.46-13.39,1.36-8.89,3.67-17.64,6.73-26.12,3.14-8.45,7.14-16.59,11.88-24.27l1.99-3.21,1.14,3.6c2.65,8.33,4.65,16.85,5.85,25.5,1.17,8.65,1.65,17.42.94,26.15-.67,8.71-2.51,17.39-5.94,25.45-3.47,8.01-8.54,15.38-15.11,21.02l2.2-2.38c.71-.81,1.37-1.67,2.05-2.49,1.32-1.69,2.58-3.43,3.71-5.26,2.27-3.63,4.13-7.5,5.59-11.51,2.98-8,4.39-16.5,4.82-25,.38-8.52-.17-17.07-1.49-25.5-1.3-8.44-3.27-16.78-5.92-24.89l3.13.38c-4.64,7.46-8.59,15.37-11.72,23.58-1.57,4.11-2.96,8.29-4.15,12.53-.3,1.05-.56,2.13-.84,3.2-.29,1.06-.55,2.13-.78,3.21-.24,1.08-.51,2.14-.73,3.23l-.65,3.25c-1.59,8.68-2.5,17.5-2.64,26.36-.21,8.86.33,17.76,1.8,26.55Z"/>
        <path class="cls-3-a12 first-color" d="m413.9,140.26c.38,5.93.38,11.84.22,17.74s-.47,11.8-.96,17.68c-.49,5.89-1.17,11.75-2.08,17.61-.45,2.93-1,5.84-1.64,8.74-.34,1.45-.69,2.89-1.12,4.32-.44,1.42-.88,2.87-1.63,4.16.39-1.43.53-2.89.69-4.35.15-1.46.28-2.92.38-4.39.24-2.93.41-5.86.63-8.79.41-5.86.81-11.73,1.32-17.59.49-5.86,1.07-11.72,1.73-17.57.67-5.86,1.43-11.71,2.48-17.56Z"/>
        <path class="cls-3-a12 first-color" d="m430.99,182.45c.53-6.36,2.25-12.59,4.62-18.53,2.39-5.94,5.53-11.61,9.35-16.79,3.84-5.17,8.39-9.82,13.42-13.86,5.05-4.03,10.61-7.41,16.45-10.16,2.92-1.38,5.93-2.58,8.92-3.71,2.99-1.14,6.02-2.18,9.07-3.17,6.11-1.97,12.32-3.65,18.65-4.87,6.33-1.23,12.8-1.9,19.28-1.93,3.24-.02,6.47.16,9.63.33,3.12.14,6.31.33,8.38-.92l4.86-2.92-2.41,5.15c-5.45,11.67-11.89,23.08-20.35,33.02-4.24,4.95-8.98,9.49-14.18,13.43-5.19,3.96-10.9,7.23-16.9,9.78-2.98,1.3-6.1,2.35-9.17,3.29-3.07.94-6.15,1.86-9.25,2.73-6.18,1.75-12.38,3.39-18.57,5.04-6.2,1.63-12.38,3.26-18.46,5.26-3.02,1.01-6.03,2.11-8.93,3.46-2.9,1.31-5.71,2.89-8.19,4.93,2.37-2.17,5.11-3.92,7.96-5.4,2.86-1.49,5.84-2.71,8.84-3.85,6.02-2.26,12.17-4.14,18.29-6.03,6.14-1.85,12.28-3.66,18.38-5.59,3.05-.96,6.1-1.93,9.13-2.93,3.02-1.01,5.98-2.07,8.84-3.38,5.74-2.61,11.17-5.84,16.14-9.71,4.97-3.86,9.47-8.3,13.52-13.14,8.11-9.68,14.38-20.82,19.72-32.35l2.46,2.24c-1.72,1.01-3.65,1.32-5.35,1.42-1.72.09-3.36,0-4.96-.08-3.2-.19-6.32-.37-9.45-.36-6.25-.02-12.5.65-18.69,1.76-6.19,1.1-12.3,2.68-18.34,4.54-3.02.93-6.01,1.95-8.99,3-2.99,1.05-5.93,2.15-8.79,3.44-5.74,2.54-11.17,5.74-16.19,9.5-5,3.78-9.56,8.18-13.47,13.1-3.94,4.9-7.25,10.34-9.85,16.11-1.3,2.89-2.41,5.86-3.34,8.89-.92,3.01-1.69,6.1-2.11,9.26Z"/>
        <path class="cls-3-a12 first-color" d="m384.11,243.74c4.54-5.26,9.83-9.87,15.49-13.95,5.71-4.01,11.84-7.55,18.48-10.01l2.51-.87c.83-.29,1.67-.59,2.53-.79,1.72-.43,3.43-.94,5.16-1.23l2.58-.51c.87-.16,1.74-.28,2.61-.41,1.73-.3,3.5-.45,5.26-.65,3.53-.29,7.1-.33,10.69.06,1.79.17,3.59.51,5.38.99.89.25,1.78.54,2.66.91.44.19.88.38,1.32.62.22.11.44.25.66.38.11.07.22.13.34.22.12.08.22.15.4.3l2.42,2.01-3.1.99c-.29.09-.71.23-1.09.38-.38.14-.78.29-1.16.45-.78.32-1.55.65-2.33,1.01-1.54.71-3.08,1.46-4.61,2.25-3.05,1.58-6.04,3.29-9.02,5.04-2.97,1.77-5.93,3.56-8.83,5.44-1.44.93-2.96,1.86-4.46,2.79-.74.47-1.53.89-2.31,1.32l-2.33,1.27c-3.17,1.58-6.42,3.02-9.81,4.09-3.4,1.03-6.9,1.74-10.43,2.04-7.09.6-14.04-.45-20.91-1.49,6.95.27,13.94.84,20.71-.21,3.38-.49,6.69-1.35,9.89-2.51,3.19-1.19,6.27-2.67,9.26-4.32,2.98-1.72,5.8-3.57,8.7-5.53,2.89-1.97,5.84-3.86,8.8-5.72,2.98-1.83,6.03-3.58,9.15-5.23,1.55-.83,3.14-1.61,4.75-2.36.81-.38,1.62-.74,2.45-1.08.42-.17.83-.34,1.27-.5.44-.16.83-.31,1.38-.47l-.68,3s-.07-.04-.12-.08c-.05-.04-.13-.09-.2-.13-.15-.09-.29-.18-.47-.27-.32-.18-.67-.34-1.02-.49-.71-.3-1.47-.56-2.25-.78-1.55-.43-3.17-.75-4.82-.92-3.3-.39-6.68-.34-10.05-.16-1.69.16-3.38.25-5.07.51-.84.11-1.69.2-2.53.34l-2.53.43c-3.36.59-6.62,1.41-9.87,2.45-1.61.55-3.2,1.16-4.78,1.77l-2.34,1.04c-.78.34-1.57.67-2.33,1.07-1.53.76-3.07,1.5-4.55,2.37-.74.43-1.5.82-2.24,1.27l-2.2,1.35c-5.84,3.62-11.36,7.81-16.44,12.53Z"/>
        <path class="cls-3-a12 first-color" d="m384.05,246.5c4.05-.92,7.95-2.21,11.66-3.82,3.69-1.63,7.19-3.65,10.23-6.2l2.5-1.95c.9-.59,1.74-1.25,2.69-1.75,1.85-1.08,3.79-1.97,5.8-2.66,1.99-.73,4.05-1.22,6.13-1.55,2.08-.31,4.19-.48,6.26-.31-2.04.41-4.03.92-5.97,1.56-1.95.62-3.83,1.35-5.66,2.2-1.81.88-3.61,1.76-5.26,2.89-.86.51-1.64,1.13-2.46,1.69l-2.35,1.91-1.27,1c-.43.34-.88.61-1.32.92-.87.62-1.81,1.14-2.74,1.67-1.9.96-3.83,1.88-5.85,2.5-4.02,1.32-8.22,2.06-12.39,1.91Z"/>
      </g>
      <g>
        <path class="cls-3-a12 first-color" d="m235.88,396.59c-6.15,0-11.19-1.26-13.89-1.94-6.94-1.74-11.48-6.94-11.67-7.16-.77-.89-.67-2.24.23-3.01.89-.77,2.23-.67,3,.22h0s3.88,4.41,9.47,5.81c4.72,1.18,17.25,4.32,29.39-2.2,1.86-1,3.88-2.11,6.04-3.31,12.27-6.79,29.08-16.1,51.74-23.1,19.88-6.14,33.14-7.47,41.92-8.36,3.04-.3,5.44-.55,7.43-.91,7.94-1.45,71.36-15.19,72-15.33,1.15-.25,2.29.48,2.54,1.63.25,1.15-.48,2.29-1.63,2.54-2.62.57-64.12,13.9-72.13,15.36-2.16.39-4.76.65-7.77.96-8.61.86-21.61,2.17-41.09,8.19-22.24,6.87-38.82,16.05-50.93,22.76-2.18,1.21-4.21,2.33-6.09,3.34-6.47,3.47-12.97,4.52-18.55,4.52Z"/>
        <path class="cls-3-a12 first-color" d="m220.96,379.43c7.81-3.43,15.6-7.03,23.16-10.97,1.89-.98,3.74-2.01,5.59-3.07,1.87-1.08,3.74-2.13,5.63-3.18,3.76-2.09,7.54-4.14,11.32-6.17,7.57-4.08,15.07-8.13,22.52-12.45,7.56-4.2,15.28-7.99,23.05-11.7,7.78-3.67,15.64-7.19,23.62-10.44,7.99-3.28,16.18-5.93,24.08-9.15,3.96-1.6,7.85-3.35,11.67-5.23,3.83-1.88,7.56-3.96,11.26-6.1,7.36-4.34,14.46-9.13,21.41-14.14l41.44-30.58c6.88-5.13,13.82-10.2,20.5-15.54,1.63-1.34,3.25-2.8,4.96-4.12,1.72-1.32,3.47-2.59,5.31-3.73,3.66-2.31,7.55-4.23,11.57-5.8,4.02-1.56,8.14-2.88,12.34-3.83l1.57-.38,1.59-.31,3.17-.62,3.2-.48c1.06-.16,2.13-.34,3.2-.43,4.28-.5,8.56-.83,12.84-1.14,4.28-.32,8.57-.6,12.85-.87,17.14-1.03,34.3-1.76,51.47-2.26-17.16.65-34.31,1.52-51.43,2.7-4.28.29-8.56.61-12.83.97-4.28.35-8.56.72-12.8,1.25-1.06.11-2.12.29-3.18.46l-3.17.51-3.15.65-1.57.32-1.55.39c-4.17.97-8.24,2.31-12.2,3.89-3.96,1.59-7.78,3.52-11.36,5.83-1.81,1.13-3.52,2.4-5.2,3.71-1.68,1.31-3.24,2.75-4.91,4.14-6.69,5.44-13.57,10.55-20.41,15.74l-41.2,30.94c-6.94,5.09-14.04,9.97-21.43,14.42-3.72,2.19-7.47,4.32-11.33,6.26-3.86,1.95-7.79,3.74-11.77,5.4-7.98,3.32-16.13,6.04-23.99,9.34-7.9,3.29-15.69,6.86-23.4,10.58-7.7,3.74-15.37,7.59-22.78,11.8-7.37,4.36-14.94,8.53-22.45,12.66-3.76,2.08-7.51,4.14-11.24,6.25-1.86,1.05-3.71,2.12-5.56,3.2-1.87,1.09-3.77,2.17-5.67,3.17-7.64,4.07-15.41,7.74-23.29,11.28l-1.41-3.2Z"/>
        <path class="cls-3-a12 first-color" d="m233.88,377.11c.95,3.12-3.43,7.32-13.51,10.37-10.09,3.06-19.04,3.01-19.99-.11-.95-3.12,6.47-8.13,16.56-11.2s15.99-2.18,16.94.94Z"/>
        <path class="cls-3-a12 first-color" d="m248.39,418.83c2.22,2.4.13,8.08-7.6,15.25-7.73,7.18-15.79,11.05-18.02,8.66-2.22-2.4,2.25-10.14,9.97-17.32,7.72-7.17,13.42-8.98,15.65-6.58Z"/>
        <path class="cls-3-a12 first-color" d="m310.39,398.15c2.06,1.55,1.17,6.34-3.96,13.13-5.13,6.79-10.95,11.04-13.01,9.48-2.06-1.55.43-8.31,5.54-15.11s9.36-9.06,11.42-7.5Z"/>
        <path class="cls-3-a12 first-color" d="m416.75,404.24c3.42,2.04,3.45,7.63-4.05,20.17-7.5,12.55-16.35,21.07-19.77,19.03-3.42-2.04-.1-13.86,7.41-26.42,7.5-12.55,13-14.82,16.41-12.78Z"/>
        <path class="cls-3-a12 first-color" d="m246.49,438.84c-6.29,0-10.24-1.96-11.58-4.49-.82-1.54-.59-3.24.58-4.34,1.52-1.45,33.24-36.92,54.2-60.4.78-.88,2.13-.96,3.01-.17.88.78.96,2.13.17,3.01-5.14,5.76-48.63,54.49-53.98,60.17,1,1.01,5.35,3.3,15.66.96,11.68-2.65,34.9-29.02,48.78-44.77,3.2-3.63,5.96-6.77,8.21-9.21,12.42-13.49,18.84-21.26,18.9-21.34.75-.91,2.09-1.04,3-.29.91.75,1.04,2.09.29,3-.06.08-6.55,7.93-19.06,21.51-2.21,2.4-4.96,5.52-8.14,9.13-15.14,17.18-38.01,43.15-51.03,46.11-3.39.77-6.39,1.11-9,1.11Z"/>
        <path class="cls-3-a12 first-color" d="m306.69,415.76c-2.42,0-4.19-.68-5.36-2.05-2.71-3.19-.32-8.22-.04-8.78l.1-.18,29.21-46.6c.63-1,1.94-1.3,2.94-.67,1,.63,1.3,1.94.67,2.94l-29.15,46.5c-.59,1.24-1.09,3.34-.49,4.04.13.15,1.45,1.43,7.76-.52,13.95-4.31,22.53-18.02,28.79-28.03l.95-1.51c6.33-10.08,18.71-27.02,18.84-27.19.69-.95,2.03-1.16,2.98-.46.95.69,1.16,2.03.46,2.98-.12.17-12.41,16.99-18.67,26.94l-.94,1.5c-6.24,9.98-15.68,25.07-31.15,29.85-2.72.84-5.02,1.26-6.92,1.26Z"/>
        <path class="cls-3-a12 first-color" d="m579.53,271.12c-8.3.26-16.59.66-24.87,1.19-8.28.55-16.56,1.19-24.77,2.32-2.05.29-4.1.61-6.11,1.01-2.01.42-4.04.87-5.87,1.64-.44.2-.89.42-1.22.69-.08.07-.15.14-.22.2-.07.08-.15.19-.22.29l-.45.58c-.32.37-.56.82-.83,1.25-.25.44-.55.85-.78,1.31-.98,1.8-1.87,3.65-2.72,5.53-1.71,3.76-3.25,7.61-4.77,11.47-1.51,3.86-2.96,7.75-4.4,11.64-2.88,7.78-5.66,15.6-8.49,23.42-1.46,3.96-3.47,7.81-6.06,11.18-2.57,3.42-5.66,6.33-8.83,9.07-3.17,2.75-6.46,5.31-9.69,7.9-3.25,2.57-6.44,5.21-9.58,7.89-6.25,5.4-12.16,11.17-17.66,17.31-5.55,6.2-11.23,12.32-17.17,18.17-2.95,2.94-5.98,5.8-8.86,8.72-2.89,2.92-5.49,5.98-7.77,9.34-2.27,3.33-4.34,6.93-6.2,10.51l-.73,1.37c-.27.61-.86,1.46-1.73,1.93-.88.5-1.95.56-2.78.36-.84-.2-1.51-.58-2.06-1-1.12-.84-1.85-1.84-2.48-2.85-.62-1.01-1.1-2.07-1.48-3.13-1.5-4.26-1.88-8.61-1.9-12.88,0-2.14.11-4.27.31-6.38l.33-3.16.47-3.16c.74-4.19,2.06-8.51,4.51-12.23,1.2-1.86,2.62-3.5,3.97-5.06,1.35-1.58,2.68-3.1,3.87-4.73.62-.8,1.15-1.65,1.73-2.48l1.59-2.6c1.05-1.81,2.15-3.6,3.25-5.37,2.22-3.54,4.54-7,6.88-10.43,4.7-6.87,9.51-13.65,14.35-20.4l3.65-5.04c1.23-1.68,2.37-3.34,3.27-5.18.91-1.82,1.62-3.75,2-5.75.18-1,.29-2.01.26-3.03-.04-1.01-.21-2.02-.53-2.99l.33-.12c.38.99.62,2.03.74,3.08.09,1.06.04,2.13-.08,3.18-.29,2.1-.95,4.14-1.8,6.07-.83,1.94-1.97,3.77-3.11,5.49l-3.41,5.22c-4.59,6.92-9.18,13.84-13.63,20.84-2.22,3.51-4.41,7.01-6.56,10.54-1.06,1.77-2.1,3.55-3.1,5.34l-1.61,2.75c-.6.88-1.14,1.81-1.78,2.66-1.23,1.76-2.59,3.38-3.92,4.99-1.33,1.59-2.62,3.14-3.63,4.79-2.07,3.29-3.18,7.09-3.81,11.07l-.43,3-.29,3.04c-.18,2.03-.27,4.05-.26,6.06.03,4.01.45,8.06,1.75,11.65.33.89.72,1.73,1.18,2.49.45.75.99,1.45,1.54,1.85.27.21.54.34.7.38.18.04.21.02.25,0,.04-.03.12-.05.27-.38l.74-1.38c1.99-3.78,4.1-7.37,6.53-10.89,2.43-3.5,5.28-6.74,8.27-9.69,2.99-2.95,6.04-5.75,9.01-8.64,5.98-5.72,11.67-11.71,17.29-17.81,5.64-6.18,11.71-11.97,18.08-17.36,3.2-2.67,6.45-5.3,9.74-7.85,3.27-2.57,6.57-5.08,9.7-7.74,3.13-2.66,6.15-5.44,8.62-8.66,2.5-3.19,4.41-6.76,5.87-10.57,2.91-7.77,5.78-15.57,8.74-23.34,1.49-3.88,3-7.76,4.57-11.61,1.57-3.85,3.17-7.69,4.95-11.47.88-1.89,1.82-3.76,2.85-5.6.24-.47.56-.91.83-1.36.29-.45.55-.91.92-1.32l.51-.65c.09-.11.16-.21.27-.32.11-.11.24-.22.36-.32.49-.38,1-.6,1.5-.83,2.02-.82,4.08-1.23,6.13-1.63,2.06-.38,4.12-.68,6.19-.94,8.27-1.02,16.57-1.54,24.87-1.99,8.3-.42,16.6-.69,24.91-.84l.02.39Z"/>
      </g>
    </g>
  </g>
</svg>