<svg id="Layer_1" data-name="Layer 1" xmlns="http://www.w3.org/2000/svg" viewBox="0 0 700 700">
  <defs>
    <style>
      .cls-1s-a09 {
        fill: #231f20;
      }
    </style>
  </defs>
  <path class="cls-1s-a09 second-color" d="m315.84,591.39c-1.18.08-2.3,1.12-3.45,1.72.21.42.42.84.63,1.26h53.76c.39-6.46.76-12.74,1.14-19.02l-1.58-.82c-1.03,1.38-2.22,2.66-3.05,4.15-2.89,5.18-4.56,11.61-12.17,11.87-4.41.15-8.89.5-13.21-.14-2.09-.31-5.41-2.59-5.52-4.16-.57-7.89-.26-15.84-.26-23.74q12.26-1.11,17.55,8.97c.35.66,1.37.98,2.07,1.46.47-.89,1.32-1.77,1.34-2.67.12-6.21.15-12.43,0-18.63-.03-1.38-.91-2.73-1.39-4.1-.89,1.12-2.19,2.12-2.57,3.39-1.06,3.52-2.67,6.59-6.56,7.08-3.46.43-7.02.09-10.62.09v-25.2c10.69.18,22.41-3.52,27.58,10.52.2.55,1.58.93,2.38.88.41-.02,1.07-1.15,1.09-1.79.1-4.38.05-8.75.05-13.4h-50.2c.55,1.74,1.56,2.84,2.71,3.03,4.98.83,6.6,3.67,6.53,8.57-.22,14.38-.16,28.77-.02,43.16.04,4.5-1.35,7.2-6.21,7.53Z"/>
  <path class="cls-1s-a09 second-color" d="m487.64,575.4c-.49-.29-.99-.57-1.48-.86-1.04,1.35-2.28,2.59-3.08,4.06-2.94,5.36-4.76,11.86-12.62,11.99-4.09.07-8.18.14-12.26.01-3.93-.12-6.58-1.87-6.6-6.22-.03-7.17,0-14.33,0-21.84,12.49-1.24,12.78-1.07,17.81,8.85.34.68,1.33,1.03,2.02,1.54.49-.87,1.39-1.73,1.4-2.6.12-6.54.13-13.08.01-19.62-.02-1.07-.86-2.12-1.32-3.18-.86.94-2.18,1.74-2.49,2.83-1.09,3.87-2.72,7.23-7.13,7.72-3.32.37-6.72.07-10.06.07v-25.42c2.06,0,3.69.11,5.31-.02,9.42-.75,18.2-.27,22.08,10.61.2.56,1.54.98,2.34.97.41,0,1.13-1.11,1.15-1.74.1-4.48.05-8.97.05-13.54h-50.18c-.19.41-.38.83-.57,1.24,1.22.68,2.37,1.74,3.67,1.98,4.52.82,6.16,3.37,6.11,7.89-.16,14.71-.14,29.43-.01,44.14.04,4.39-1.61,6.74-6.13,7.11-1.22.1-2.37,1.11-3.55,1.7.2.38.39.76.59,1.14h53.88c.37-6.5.71-12.66,1.06-18.81Z"/>
  <path class="cls-1s-a09 second-color" d="m433.27,659c-1.29-3.33-2.84-3.22-5.36-2.36.83,10.05,9.76,15.44,20.67,12.7,6.32-1.59,9.98-5.54,10.14-10.96.16-5.48-2.74-9.03-9.24-11.02-3.9-1.19-7.95-1.9-11.77-3.28-4.24-1.54-4.99-5.6-1.87-8.47,4-3.68,13.21-2.34,16.19,2.11.97,1.44,2.81,2.3,4.25,3.43.36-.5.73-1,1.09-1.5-1.11-6.47-3.68-9.24-10.37-10.55-6.06-1.18-11.88-.61-15.98,4.69-3.64,4.7-2.38,10.94,2.76,13.97,2.2,1.3,4.81,1.93,7.28,2.73,3.09,1,6.38,1.54,9.32,2.87,3.97,1.8,4.57,6.49,1.52,9.26-5.07,4.6-16.19,2.68-18.64-3.62Z"/>
  <path class="cls-1s-a09 second-color" d="m533.33,650.98c-3.33.76-6.8.94-10.1,1.77-4.73,1.19-7.24,4.68-6.83,8.84.41,4.1,3.68,7.31,8.49,7.16,3.77-.12,7.51-1.46,10.59-2.11,2.1.91,4.03,1.75,6.4,2.78-.37-4.32-.75-7.4-.88-10.49-.14-3.27.3-6.59-.17-9.8-.38-2.59-1.04-5.81-2.79-7.41-6-5.5-17.71-1.93-20.56,5.88.31.56.62,1.12.92,1.68,1.58-.86,3.41-1.44,4.67-2.63,2.51-2.38,8.59-3.27,11.34-1.07.87.69,1.67,2.24,1.51,3.23-.14.87-1.57,1.95-2.61,2.18Zm3.53,5.75c-1.43,1.99-2.47,4.99-4.39,5.73-2.75,1.06-6.14.62-9.24.46-.6-.03-1.77-1.96-1.53-2.57.47-1.19,1.58-2.69,2.7-2.97,3.58-.89,7.29-1.28,10.94-1.87.51.41,1.01.81,1.52,1.22Z"/>
  <path class="cls-1s-a09 first-color" d="m487.02,473.38l2.24-8.28c6.6-24.4,5.21-45.72.09-63.58-8.52-1.83-16.35-4.49-23.43-7.54,7.36,16.59,10.61,35.9,6.6,57.42-23.52-5.01-44.63-16.19-61.43-32.25-1.03,7.35-2.6,14.6-4.7,21.69,20.29,16.49,45.02,27.4,72.13,31.31l8.5,1.22Z"/>
  <path class="cls-1s-a09 second-color" d="m377.85,664.63c1.61,1.24,3.28,2.52,5.62,4.31,1.07-1.25,2.04-2.39,2.9-3.4-2.12-1.96-3.89-3.61-5.47-5.07,1.22-3.25,2.22-5.92,3.35-8.92-1.88-.39-3.28-.67-4.8-.99-.66,1.54-1.28,2.98-2.19,5.1-2.5-3.11-4.66-5.8-6.83-8.51,7.09-5.35,8.72-9.33,5.93-13.61-2.55-3.92-8.8-5.3-13.09-2.53-1.66,1.07-3.85,3.1-3.83,4.66.06,3.61,1.32,7.21,2.17,11.17-7.62,5.42-9.77,10.96-5.99,16.69,4.32,6.56,12.19,6.98,22.24,1.09Zm-9.42-31.74c1.89,2.6,4.21,4.43,3.94,5.75-.35,1.76-2.7,3.13-4.19,4.66-1.47-1.73-3.54-3.28-4.15-5.27-.29-.93,2.24-2.73,4.39-5.14Zm-8.92,24.07c.51-2.81,3.25-5.2,5.44-8.36,3.77,4.71,6.57,8.22,9.47,11.84-3.41,3-7.05,4.88-10.85,2.78-2.01-1.12-4.4-4.41-4.06-6.26Z"/>
  <path class="cls-1s-a09 second-color" d="m422.66,543.02c.71,1.42,2.11,2.5,3.19,3.74.33-.3.67-.6,1-.9v-16.67h-56.3v16.96c.42.26.85.52,1.27.78,1.12-1.53,2.47-2.95,3.33-4.61,4.67-9.06,7.63-10.61,18.38-9.09.07,1.52.2,3.12.2,4.72.02,15.05.02,30.09,0,45.14,0,6.5-.59,7.09-6.96,8.28-1.33.25-2.55,1.06-3.81,1.61.16.38.32.77.48,1.15h30.34c.13-.42.26-.84.38-1.26-1.22-.57-2.39-1.51-3.65-1.63-5.63-.56-7.24-3.76-7.03-9.05.31-7.67.08-15.37.08-23.06v-25.78c10.86-1.78,14.28.08,19.1,9.68Z"/>
  <path class="cls-1s-a09 first-color" d="m421.55,259.76l-.74-.1.12.12c.21,0,.41-.01.62-.02Z"/>
  <path class="cls-1s-a09 first-color" d="m151.97,138.62l-8.03,3.03,2.04,8.34c11.04,45.11,41.43,81.46,83.37,99.75,20.67,9.01,43.56,13.28,66.19,12.34,8.41-.35,16.69-1.4,24.79-3.11-4.1,36.05-23.03,69.37-52.22,90.92-29.54,21.82-66.46,29.47-102.51,21.52,14.31-57.82,70.77-78.57,107.37-78.74-10.5,22.48-43.07,53.9-84.72,65.66,28.54,3.64,58.65-11.72,75.7-25.18,17.23-13.6,28.43-30.51,31.53-47.63l1.81-9.94-10.02-1.38c-19.74-2.73-51.61.31-81.86,16.99-23.41,12.92-52.95,38.27-60.73,85.76l-1.39,8.47,8.25,2.41c44.58,12.99,91.26,4.85,128.07-22.33,18.14-13.39,33.28-31.08,43.78-51.15,3.9-7.47,7.13-15.15,9.71-23.02,29.17,21.58,48.56,54.64,52.64,90.69,4.12,36.49-7.71,72.28-32.63,99.53-42.92-41.31-32.67-100.59-14.51-132.37,14.22,20.33,25.15,64.25,14.51,106.2,17.43-22.89,19.17-56.65,16.04-78.15-3.16-21.72-12.21-39.89-25.48-51.13l-7.71-6.54-6.21,7.98c-12.23,15.74-25.54,44.85-26.21,79.39-.52,26.73,6.68,64.98,43.91,95.47l6.64,5.44,6.21-5.94c33.54-32.12,49.84-76.62,44.7-122.08-2.53-22.41-10.28-44.36-22.42-63.49-4.51-7.11-9.55-13.75-15.08-19.92,33.27-14.48,71.59-14.73,104.86-.24,33.66,14.67,58.74,42.82,69.89,78.02-57.23,16.52-103.45-22-121.89-53.62,24.72-2.14,68.22,10.35,99.22,40.54-11.11-26.54-39.48-44.92-59.66-52.97-20.39-8.13-40.65-9.36-57.01-3.49l-9.52,3.41,3.81,9.36c7.51,18.46,26.07,44.54,55.64,62.39,22.89,13.81,59.63,26.71,104.64,9.72l8.03-3.04-2.04-8.34c-11.05-45.1-41.43-81.46-83.37-99.75-20.67-9-43.56-13.28-66.19-12.33-8.41.35-16.68,1.39-24.79,3.1,4.1-36.04,23.03-69.36,52.22-90.92,29.54-21.82,66.45-29.47,102.51-21.52-14.31,57.82-70.77,78.58-107.37,78.75,10.5-22.48,43.07-53.91,84.72-65.67-28.54-3.64-58.66,11.73-75.7,25.18-17.23,13.6-28.43,30.51-31.54,47.63l-1.8,9.94,10.02,1.38c19.74,2.74,51.61-.3,81.86-16.98,23.41-12.92,52.95-38.28,60.73-85.77l1.38-8.47-8.24-2.41c-44.58-12.99-91.26-4.85-128.07,22.33-18.14,13.39-33.28,31.08-43.78,51.16-3.9,7.45-7.13,15.15-9.71,23.01-29.18-21.57-48.56-54.64-52.64-90.68-4.12-36.49,7.71-72.28,32.63-99.54,42.91,41.31,32.67,100.59,14.51,132.37-14.22-20.33-25.15-64.24-14.51-106.19-17.43,22.89-19.17,56.65-16.04,78.14,3.16,21.73,12.21,39.89,25.48,51.13l7.71,6.54,6.21-7.98c12.23-15.72,25.54-44.84,26.21-79.38.52-26.73-6.69-65-43.91-95.48l-6.64-5.43-6.21,5.94c-33.55,32.11-49.84,76.61-44.7,122.07,2.53,22.41,10.28,44.37,22.42,63.5,4.51,7.1,9.55,13.74,15.08,19.92-33.27,14.48-71.59,14.73-104.86.23-33.66-14.67-58.74-42.82-69.89-78.02,57.23-16.51,103.45,22,121.89,53.62-24.72,2.15-68.22-10.35-99.22-40.54,11.11,26.53,39.48,44.93,59.66,52.97,20.39,8.13,40.64,9.36,57.01,3.5l9.52-3.41-3.81-9.36c-7.51-18.46-26.07-44.55-55.64-62.39-22.89-13.81-59.63-26.71-104.64-9.72Z"/>
  <path class="cls-1s-a09 first-color" d="m294.14,100.58c.8-7.67,2.32-15.8,4.89-24.12-13.07-13.2-30.98-24.85-55.48-31.04l-8.32-2.09-3.09,8.01c-9.86,25.55-12.45,52.45-8,78.22,7.21,1.64,14.3,3.82,21.22,6.52-5.78-22.51-5.2-46.39,1.94-69.35,20.73,7.04,35.98,19.32,46.84,33.86Z"/>
  <path class="cls-1s-a09 first-color" d="m384.52,203.62l-.47.58.16-.04c.1-.18.2-.36.31-.54Z"/>
  <path class="cls-1s-a09 first-color" d="m484.41,131.33c4.81-25.7,2.61-52.64-6.89-78.33l-2.98-8.05-8.35,1.98c-24.59,5.83-42.66,17.23-55.92,30.25,2.45,8.36,3.86,16.51,4.55,24.19,11.07-14.38,26.5-26.45,47.32-33.19,6.82,23.06,7.06,46.95.96,69.37,6.96-2.6,14.07-4.68,21.31-6.21Z"/>
  <path class="cls-1s-a09 first-color" d="m518.75,292.81c5.82,4.61,11.28,9.62,16.34,15.02,24.48-9.18,46.39-25.01,63.46-46.43l5.35-6.72-6.01-6.12c-17.72-18.02-36.82-27.59-54.82-32.2-5.89,6.43-12.13,11.85-18.34,16.41,18.03,2.03,36.34,8.99,52.89,23.32-16.2,17.77-36.52,30.33-58.86,36.72Z"/>
  <path class="cls-1s-a09 second-color" d="m557.01,592.82c-.35-.45-.84-1.1-1.29-1.1-4.87-.11-7.72-3.33-10.17-6.83-5.42-7.77-10.73-15.61-15.79-23.61-.75-1.19-.59-3.79.24-5,4.05-5.93,8.54-11.56,12.72-17.4,2.58-3.6,5.55-6.33,10.15-7.01.87-.13,1.59-1.35,3.08-2.71h-25.06c-.14.49-.28.97-.42,1.46,1.49.52,2.94,1.19,4.47,1.55,3.09.72,4.37,2.28,2.52,5.22-3.7,5.87-7.5,11.67-11.81,18.36-4.02-6.5-7.41-12.02-10.84-17.51-2.28-3.64-1.55-5.66,2.94-6.14,1.44-.15,2.82-1,4.22-1.53-.17-.4-.34-.8-.5-1.2h-29.76c.47,1.59,1.23,2.49,2.07,2.58,4.53.47,7.25,3.26,9.6,6.81,4.6,6.94,9.24,13.86,14.06,20.65,1.57,2.21,1.71,3.79,0,6.01-4.96,6.48-9.39,13.4-14.66,19.61-2.36,2.79-6.24,4.29-9.41,6.41-.91.61-1.72,1.36-3.4,2.7h24.96c.11-.45.23-.89.34-1.34-1.37-.5-2.7-1.16-4.11-1.48-2.72-.61-4.52-1.97-2.81-4.73,4.19-6.75,8.68-13.31,13.59-20.76,4.34,7.21,8.07,13.5,11.9,19.72,2.29,3.73.84,5.26-3,5.84-1.47.22-2.86.94-4.28,1.43.16.45.31.9.47,1.35h29.91c.05-.73.22-1.16.07-1.35Z"/>
  <path class="cls-1s-a09 first-color" d="m218.29,399.75c-5.35,17.79-7.02,39.09-.74,63.57l2.14,8.31,8.51-1.11c27.16-3.56,52.02-14.14,72.53-30.36-2.01-7.12-3.48-14.38-4.42-21.75-17.01,15.83-38.26,26.74-61.84,31.44-3.73-21.57-.22-40.84,7.35-57.33-7.12,2.96-14.98,5.51-23.53,7.23Z"/>
  <path class="cls-1s-a09 second-color" d="m243.66,640.76v27.83c3.25.85,4.54-.01,4.46-3.25-.18-7.17-.17-14.36,0-21.53.08-3.4-1.5-3.84-4.45-3.05Z"/>
  <path class="cls-1s-a09 second-color" d="m303.4,663.25c-4.17,2.14-8.34.63-11.8-4.09-1.27.4-2.62.81-3.96,1.23,2.34,7.49,9.65,10.54,17.35,7.5,3.71-1.46,5.83-4.14,5.99-8.14.16-4.09-2.41-6.25-5.94-7.38-3.25-1.05-6.62-1.72-9.86-2.8-.9-.3-2.08-1.48-2.08-2.26,0-.82,1.29-2.39,1.94-2.35,3.08.2,6.15.74,9.19,1.36,1.65.34,3.22,1.07,5.47,1.85-1.5-7.21-7.41-10.12-14.36-8.34-4.01,1.03-6.81,3.17-7.03,7.62-.21,4.31,2.33,6.59,6.1,7.77,2.95.92,6.01,1.52,8.92,2.55,1.06.38,2.69,1.77,2.56,2.37-.27,1.19-1.37,2.54-2.49,3.11Z"/>
  <path class="cls-1s-a09 second-color" d="m217.13,650.99c-2.67.69-5.48.8-8.21,1.27-5.78.99-9.12,4.74-8.55,9.48.56,4.67,4.73,7.71,10.58,7.04,3.15-.36,6.18-1.74,8.38-2.39,2.23,1.12,4.03,2.02,5.57,2.8,0-7.53.27-13.9-.13-20.23-.16-2.54-1.11-5.78-2.89-7.34-6.2-5.43-17.8-1.74-20.54,6.39,1.38.39,2.74.78,4.03,1.15,3.36-4.74,8.02-6.29,12.28-3.94,1.08.59,2.22,2.16,2.21,3.27,0,.88-1.61,2.22-2.73,2.51Zm3.69,5.8c-1.57,2.04-2.76,5.11-4.8,5.86-2.73,1-6.13.32-9.22.03-.49-.05-1.42-2.18-1.1-2.76.63-1.13,1.88-2.36,3.09-2.65,3.44-.82,6.98-1.19,10.49-1.74.51.42,1.03.84,1.54,1.26Z"/>
  <path class="cls-1s-a09 first-color" d="m105.56,254.69l5.35,6.72c17.07,21.42,38.98,37.24,63.46,46.43,5.06-5.39,10.52-10.41,16.34-15.02-22.34-6.38-42.66-18.95-58.86-36.72,16.54-14.33,34.85-21.28,52.89-23.32-6.21-4.57-12.46-9.99-18.34-16.41-18,4.61-37.1,14.18-54.82,32.2l-6.01,6.12Z"/>
  <path class="cls-1s-a09 second-color" d="m557.8,537.57v8.67c.56.25,1.13.49,1.69.74,1.08-1.6,2.34-3.1,3.22-4.81,4.61-8.93,8.15-10.71,18.5-8.76,0,1.51,0,3.11,0,4.71,0,14.88,0,29.77,0,44.65,0,6.89-.47,7.36-7.13,8.62-1.26.24-2.41,1.08-3.61,1.65.18.41.37.82.55,1.24h30.13c.17-.43.33-.86.5-1.29-1.28-.62-2.51-1.63-3.83-1.79-5.34-.61-6.98-3.55-6.86-8.7.26-11.93.08-23.88.08-35.81v-13.52c7.32-1.18,13.39-.74,17.02,6.17.91,1.73,1.67,3.57,2.78,5.17.64.93,1.82,1.5,3.51,2.81v-18.22h-56.54v8.48Z"/>
  <path class="cls-1s-a09 second-color" d="m103.82,529.11c-5.87-.52-11.81-.21-17.73-.21-.14.52-.28,1.04-.42,1.56,1.33.73,2.6,1.66,4.01,2.14,4.37,1.49,7.81,4.07,7.87,8.92.18,13.89.1,27.78-.09,41.66-.06,4.19-2.3,6.95-6.75,7.75-1.39.25-2.62,1.37-3.93,2.1.16.36.33.72.49,1.08h26.24c.15-.41.29-.81.44-1.22-1.21-.67-2.36-1.74-3.65-1.95-5.86-.95-7.72-4.83-7.81-10.11-.11-5.88-.21-11.76-.24-17.64-.04-6.61,0-13.22,0-21.23,1.93,2.37,2.97,3.54,3.88,4.79,11.19,15.28,22.33,30.61,33.61,45.83,1.15,1.55,3.16,2.46,4.77,3.66l1.25-1.23c0-1.62,0-3.24,0-4.86.04-15.85-.05-31.7.18-47.55.11-7.4,1.04-8.18,7.76-10.48,1.1-.38,1.99-1.4,3.95-2.85h-27.59c-.14.4-.28.81-.42,1.21,1.19.65,2.33,1.66,3.59,1.88,5.5.92,7.72,4.33,7.8,9.59.11,7.51.28,15.02.37,22.54.05,4.34,0,8.67,0,14.25-1.74-2.07-2.63-3.01-3.37-4.03-9.99-13.73-19.95-27.49-29.97-41.2-1.22-1.67-2.7-4.25-4.24-4.38Z"/>
  <path class="cls-1s-a09 second-color" d="m156.48,668.52v-28.8c6.78,8.5,12.79,17.18,18.53,26.04,1.9,2.94,3.96,3.89,7.19,2.58v-38.45c-1.48-.07-2.72-.14-4.69-.24v30.76c-6.74-10-12.72-18.68-18.46-27.52-1.87-2.87-3.86-4.16-7.5-2.6,0,11.85.03,23.77-.02,35.68-.01,3.88,2.24,2.93,4.95,2.55Z"/>
  <path class="cls-1s-a09 second-color" d="m277.72,591.5c-1.22.24-2.35.97-3.52,1.48.13.4.26.8.39,1.2h28.8c.15-.38.3-.75.44-1.13-.89-.54-1.74-1.46-2.68-1.57-5.43-.62-6.72-3.78-6.63-8.84.26-14.39.2-28.79.03-43.18-.05-4.27,1.11-6.91,5.73-7.42,1.17-.13,2.23-1.2,3.34-1.84-.16-.46-.31-.93-.47-1.39-5.85,0-11.7.14-17.54-.06-2.83-.1-3.68.99-4.61,3.61-5.32,14.97-11,29.82-16.96,45.82-1.15-2.86-1.84-4.5-2.47-6.15-4.97-13.14-9.88-26.29-14.95-39.39-.56-1.45-1.97-3.58-3.08-3.64-6.75-.34-13.53-.17-20.3-.17-.14.51-.29,1.02-.43,1.53,1.16.62,2.25,1.46,3.48,1.82,4.52,1.33,6.85,4.25,6.85,8.95,0,13.57.11,27.15-.12,40.72-.12,7.22-4.73,10.78-11.64,9.64-4.53-.75-7.09-3.62-8.67-7.73-6.31-16.47-12.62-32.94-19.09-49.35-.8-2.04-2.51-3.73-3.8-5.58-1.36,1.76-3.19,3.33-3.99,5.32-6.52,16.21-12.89,32.48-19.19,48.77-1.65,4.26-4.2,7.26-8.76,8.46-.99.26-1.74,1.41-2.6,2.15.19.35.37.7.56,1.04h24.16c.14-.64.29-1.29.43-1.93-1.66-.57-3.28-1.33-4.99-1.69-3.79-.78-5.42-2.75-4.15-6.61,1.36-4.13,2.75-8.24,4.12-12.34h9.41c13.64,0,13.52.04,18.23,13.14,1.37,3.8.48,5.47-3.38,6.11-1.45.24-2.8,1.08-4.2,1.64.18.45.35.9.53,1.36h52.64c.17-.36.33-.73.5-1.09-1.11-.73-2.12-1.73-3.33-2.15-6.45-2.23-7.63-3.62-7.89-10.58-.17-4.57-.09-9.16-.09-13.74-.01-9.56,0-19.13,0-28.69l.98-.17,20.81,55.96c.66.01,1.32.03,1.98.04,7.33-18.37,14.66-36.75,21.99-55.12,1.12,14.98,1.13,29.66,1.12,44.33,0,6.35-.82,7.24-6.98,8.46Zm-100.53-23.71c3.07-7.98,6.05-15.71,9.52-24.74,3.5,8.95,6.5,16.63,9.67,24.74h-19.19Z"/>
  <path class="cls-1s-a09 first-color" d="m390.51,318.58l-.28-.69-.04.16c.11.18.22.35.32.52Z"/>
  <path class="cls-1s-a09 second-color" d="m481.76,666.16c8.01,3.8,13.36,2.94,17.06-2.49,4.13-6.06,3.46-16.32-1.36-21.01-4.48-4.35-9.25-4.24-14.96-.16-1.9-.88-3.46-1.6-5.44-2.52v39.71c1.66-.14,2.99-.25,4.7-.39v-13.13Zm7.1-21.79c4.67-.08,7.87,3.99,7.78,9.89-.09,5.95-3.28,9.83-8.01,9.73-4.79-.1-7.72-4-7.55-10.04.16-5.55,3.36-9.49,7.77-9.57Z"/>
  <path class="cls-1s-a09 second-color" d="m271.16,668.58v-38.54h-4.14v38.54h4.14Z"/>
</svg>