<svg id="Layer_1" data-name="Layer 1" xmlns="http://www.w3.org/2000/svg" viewBox="0 0 700 700">
  <defs>
    <style>
      .cls-1s-l04 {
        fill: #231f20;
      }
    </style>
  </defs>
  <path class="cls-1s-l04 first-color" d="m559.24,393.89c1.97,1.14,4.49.46,5.63-1.51,1.14-1.97.46-4.49-1.51-5.63-1.97-1.14-4.49-.46-5.63,1.51-1.14,1.97-.46,4.49,1.51,5.63Z"/>
  <path class="cls-1s-l04 first-color" d="m170.68,475.42c-1.97,1.14-2.64,3.66-1.51,5.63,1.14,1.97,3.66,2.65,5.63,1.51,1.97-1.14,2.64-3.66,1.51-5.63-1.14-1.97-3.66-2.65-5.63-1.51Z"/>
  <path class="cls-1s-l04 first-color" d="m546.36,486.01c3.02,1.74,6.88.71,8.63-2.31,1.74-3.02.71-6.88-2.31-8.63-3.02-1.74-6.88-.71-8.63,2.31-1.74,3.02-.71,6.88,2.31,8.62Z"/>
  <path class="cls-1s-l04 first-color" d="m568.92,309.96c-7.75-.64-11.99,15.85.24,14.58,14.29-1.49,15.86-14.85,6.77-24.13-10.87-11.1-29.23-1.29-30.92,12.53-.58-1.18-1.7-4.36-3.03-5.93-6.81-8.02-21.42-5.74-23.64,6.15,8.01-6.79,23.99,10.82,10.14,18.63-7.65,4.31-14.71,9.04-21.72,14.98-7.19,6.1-12.65,13.32-19.49,19.12-.3-.61,1.47-5.82,1.49-6.86.22-10.73-16.63-20.16-28.03-10.93,13.45,1.91,12.03,25.06,12.69,50.6-22.44,12.2-41.78,25-50.16,14.31-2.3,14.49,14.3,24.37,23.48,18.81.89-.54,4.51-4.68,5.2-4.72-1.61,8.83-5.12,17.17-6.81,26.44-1.64,9.04-2.21,17.52-2.12,26.3.16,15.89-23.08,10.86-21.2.53-9.18,7.87-3.86,21.67,6.49,23.55,2.02.37,5.34-.26,6.65-.34-11.12,8.37-10.44,29.18,4.61,33.04,12.58,3.23,23.37-4.82,17.52-17.93-5.01-11.22-17.17.69-12.75,7.08,1.74-9.55,15.25,2.13,2.78,5.6-11.78,3.28-15.85-15.17-11.04-23.65,4.38-7.72,15.96-10.38,14.69-30.13,7.96,14.13,19.98,29.71,39.98,30.56.43,8.06,1.79,20.44-4.59,24.23-6.14,3.65-14.86,4.3-12-5.52.09-.32-6.88,4.92-4.67,12.82,4.36,15.54,33.34,8.46,28.42-14.36-.14-.5-.27-1.01-.36-1.55.15.53.25,1.04.36,1.55,3.47,11.96,22.44,13.29,25.72-4.72,1.16-6.39-2.93-2.55-6.85-.66-11.45,5.51-14.81-5.41-15.84-12.58,16.82-3.36,38.96-18.62,40.44-42.19.79-12.6-4.44-25.57-12.79-34.63,12.03,2.71,25.87.75,36.39-6.24,19.67-13.07,21.83-39.87,16.32-56.11,6.72-2.69,17.87-5.24,18.82,7.43.33,4.35-.95,9.8,4,5.6,13.96-11.84,3.32-27.61-8.77-24.63-.5.16-.99.32-1.52.46.51-.19,1.02-.34,1.52-.46,22.22-7.14,13.86-35.79-1.78-31.79-7.95,2.03-9,10.69-8.77,10.46,7.08-7.38,10.87.49,10.78,7.63-.09,7.42-11.49,12.43-18.69,16.09-10.74-16.89-30.24-19.51-46.46-19.34,17.74-8.77,14.26-20.13,18.75-27.79,4.94-8.41,22.95-14.11,26-2.27,3.23,12.54-13.64,6.67-6.24.39Zm-78.25,193.84h-.12c.06-.19.12-.37.17-.57-.02.18-.03.37-.05.57Zm39.96-27.97c-2.22-.59-4.64.36-5.84,2.44-1.22,2.12-.79,4.74.89,6.36-6.6,9.54-16.01,16.69-25.23,17.77v-.18s.05-.04.05-.04c2.95-24.6-21.79-40.29-13.28-61.77.2,11.21,8.23,23.96,19.58,26.03,2.67.49,8.14.56,8.29,2.66.96,12.79,5.79-1.43,4.56-7.33-1.74-8.34-10.46-4.8-16.61-7.69-1.81-.85,9.93,2.13,12.42-7.75,1.88-7.49-4.7,1.6-11.18.97-14.71-1.43-11.46-23.1,4.57-18.47,27.13,7.82,29.64,29.25,21.77,47.01Zm45.96-105.49l.16-.08c3.68,8.51,2.19,20.25-2.77,30.73-2.25-.65-4.73.29-5.95,2.41-1.2,2.08-.81,4.65.81,6.28-11.44,15.69-31.26,24.23-51.59,4.65-12.02-11.57,5.12-25.21,13.72-13.19,3.78,5.29-.79,15.54,4.75,10.17,7.31-7.09-1.14-15.77.5-14.63,5.58,3.89,6.87,13.2,14.96,10.54,5.72-1.88,15.62-13.17,4.07-7.62-1.9.92-4.7-3.78-6.45-5.85-7.46-8.8-22.53-9.38-32.33-3.95,14.35-18.12,40.31-4.53,60.14-19.39v-.07Zm-3.58-9.37l.06.1c-.17.11-.32.22-.47.32.14-.14.28-.28.41-.43Zm-39.79-16.91c15.94-.67,29.49,3.28,38.96,17.67-.24.2-.44.39-.61.58-9.48,7.47-35.59,7.68-46.69,11.71,5.49-16.19-8.65-18.93-10.93-15.75,2.31,5.4.3,17.35-4.12,21.93-11.81,12.23-9.37,28.62-1.89,38.15.13.17.27.34.41.51-.21-.04-.43-.07-.64-.1-12-1.71-27.41,4.38-32.1,20.72-1.75,6.11-11.1,13.83-16.93,14.53-1.61,3.57,7.83,14.44,19.11,1.59,2.06,11.63,14.93,34.35,13.2,46.29-.08.24-.15.51-.2.82-17.2-1-27.39-10.76-34.78-24.9-6.31-12.07-6.96-28.07,4.47-49.76,4.61-8.76,11.03-17.97,19.47-25.57,2.36-11.11,7.13-21.27,12.41-29.65,13.08-20.75,27.25-28.18,40.86-28.75Z"/>
  <polygon class="cls-1s-l04 second-color" points="554.73 670.92 587.01 670.92 587.01 669.42 578.08 669.42 551.29 625.63 569.26 595.83 579.58 595.83 579.58 594.32 557.21 594.32 557.21 595.83 567.53 595.83 550.32 624.12 533.11 595.83 543.44 595.83 543.44 594.32 511.38 594.32 511.38 595.83 520.3 595.83 543.22 633.48 521.7 669.42 511.38 669.42 511.38 670.92 533.86 670.92 533.86 669.42 523.53 669.42 544.08 634.99 565.06 669.42 554.73 669.42 554.73 670.92"/>
  <path class="cls-1s-l04 first-color" d="m512.17,475.42c-1.97-1.14-4.49-.46-5.63,1.51-1.14,1.97-.46,4.49,1.51,5.63,1.97,1.14,4.49.46,5.63-1.51,1.14-1.97.46-4.49-1.51-5.63Z"/>
  <path class="cls-1s-l04 first-color" d="m290.23,102.27c2.27,0,4.12-1.84,4.12-4.12s-1.84-4.12-4.12-4.12-4.12,1.84-4.12,4.12,1.84,4.12,4.12,4.12Z"/>
  <polygon class="cls-1s-l04 second-color" points="40.48 669.42 40.48 670.92 65.98 670.92 65.98 669.42 54.04 669.42 54.04 600.24 54.25 600.24 99.55 672.43 101.7 672.43 101.7 595.83 113.64 595.83 113.64 594.32 88.14 594.32 88.14 595.83 100.08 595.83 100.08 652.96 99.87 652.96 63.51 594.32 40.48 594.32 40.48 595.83 52.42 595.83 52.42 669.42 40.48 669.42"/>
  <path class="cls-1s-l04 first-color" d="m78.76,381.21c4.95,4.2,3.67-1.26,4-5.6.95-12.67,12.1-10.12,18.82-7.43-5.51,16.25-3.35,43.05,16.32,56.11,10.52,6.98,24.36,8.94,36.39,6.24-8.36,9.06-13.58,22.03-12.79,34.63,1.48,23.57,23.61,38.84,40.44,42.19-1.03,7.17-4.4,18.09-15.84,12.58-3.93-1.89-8.02-5.73-6.85.66,3.28,18.01,22.25,16.68,25.72,4.72.11-.51.22-1.02.36-1.55-.09.54-.22,1.05-.36,1.55-4.92,22.82,24.06,29.9,28.42,14.36,2.21-7.9-4.76-13.14-4.67-12.82,2.86,9.82-5.86,9.17-12,5.52-6.38-3.79-5.02-16.17-4.59-24.23,20-.86,32.01-16.43,39.98-30.56-1.28,19.75,10.31,22.41,14.69,30.13,4.82,8.49.74,26.93-11.04,23.65-12.47-3.47,1.04-15.15,2.78-5.6,4.43-6.4-7.73-18.31-12.75-7.08-5.86,13.12,4.93,21.16,17.52,17.93,15.05-3.86,15.73-24.67,4.61-33.04,1.31.08,4.62.71,6.65.34,10.35-1.88,15.68-15.68,6.49-23.55,1.88,10.33-21.36,15.36-21.2-.53.09-8.78-.47-17.26-2.12-26.3-1.69-9.27-5.21-17.62-6.81-26.44.68.04,4.3,4.18,5.2,4.72,9.18,5.56,25.78-4.32,23.48-18.81-8.38,10.69-27.72-2.11-50.16-14.31.66-25.54-.76-48.68,12.69-50.6-11.4-9.24-28.26.2-28.03,10.93.02,1.04,1.79,6.25,1.49,6.86-6.84-5.8-12.3-13.02-19.49-19.12-7.01-5.94-14.07-10.67-21.72-14.98-13.84-7.81,2.13-25.42,10.14-18.63-2.22-11.89-16.83-14.18-23.64-6.15-1.33,1.57-2.45,4.75-3.03,5.93-1.69-13.82-20.05-23.63-30.92-12.53-9.09,9.28-7.52,22.65,6.77,24.13,12.22,1.27,7.99-15.22.24-14.58,7.4,6.28-9.47,12.15-6.24-.39,3.05-11.84,21.06-6.15,26,2.27,4.5,7.66,1.01,19.02,18.75,27.79-16.22-.17-35.72,2.45-46.46,19.34-7.2-3.66-18.6-8.67-18.69-16.09-.09-7.15,3.7-15.02,10.78-7.63.23.24-.82-8.42-8.77-10.46-15.64-4-24,24.65-1.78,31.79.51.12,1.01.27,1.52.46-.53-.14-1.02-.3-1.52-.46-12.09-2.98-22.73,12.79-8.77,24.63Zm103.58,120.97l.06.04v.18c-9.22-1.07-18.64-8.23-25.23-17.77,1.69-1.62,2.12-4.24.89-6.36-1.2-2.08-3.62-3.02-5.84-2.44-7.87-17.75-5.36-39.19,21.77-47.01,16.03-4.62,19.28,17.04,4.57,18.47-6.48.63-13.07-8.46-11.18-.97,2.48,9.87,14.23,6.89,12.42,7.75-6.16,2.89-14.87-.65-16.61,7.69-1.23,5.9,3.6,20.11,4.56,7.33.16-2.11,5.63-2.18,8.29-2.66,11.35-2.06,19.39-14.82,19.58-26.03,8.51,21.49-16.23,37.17-13.28,61.77Zm9.84,1.62c-.01-.2-.03-.39-.05-.57.05.19.1.38.17.56h-.12Zm-42.55-159.74c13.61.57,27.78,8.01,40.86,28.75,5.28,8.38,10.05,18.54,12.41,29.65,8.44,7.6,14.86,16.81,19.47,25.57,11.43,21.7,10.78,37.69,4.47,49.76-7.39,14.14-17.58,23.9-34.78,24.9-.05-.31-.11-.58-.2-.82-1.73-11.94,11.14-34.66,13.2-46.29,11.28,12.85,20.72,1.98,19.11-1.59-5.83-.7-15.17-8.42-16.93-14.53-4.68-16.34-20.1-22.43-32.1-20.72-.21.03-.43.06-.64.1.14-.17.27-.34.41-.51,7.48-9.54,9.92-25.93-1.89-38.15-4.42-4.58-6.43-16.52-4.12-21.93-2.29-3.18-16.42-.44-10.93,15.75-11.1-4.03-37.21-4.24-46.69-11.71-.16-.19-.37-.38-.61-.58,9.47-14.39,23.01-18.34,38.96-17.67Zm-39.79,16.91c.13.15.26.29.41.43-.15-.11-.3-.21-.47-.32l.06-.1Zm-3.74,9.28l.16.08v.07c19.83,14.86,45.79,1.27,60.14,19.39-9.8-5.43-24.87-4.85-32.33,3.95-1.75,2.07-4.55,6.77-6.45,5.85-11.56-5.56-1.66,5.73,4.07,7.62,8.09,2.66,9.38-6.66,14.96-10.54,1.65-1.14-6.81,7.54.5,14.63,5.55,5.38.97-4.87,4.75-10.17,8.59-12.02,25.73,1.62,13.71,13.19-20.33,19.58-40.15,11.04-51.59-4.65,1.62-1.63,2.01-4.2.81-6.28-1.22-2.12-3.71-3.05-5.95-2.41-4.96-10.48-6.45-22.22-2.77-30.73Z"/>
  <path class="cls-1s-l04 first-color" d="m374.26,69.56c3.49,0,6.31-2.83,6.31-6.31s-2.83-6.32-6.31-6.32-6.32,2.83-6.32,6.32,2.83,6.31,6.32,6.31Z"/>
  <path class="cls-1s-l04 first-color" d="m343.76,27.57c-.8,0-1.59.1-2.33.28-.75-.18-1.53-.28-2.33-.28-5.46,0-9.89,4.43-9.89,9.89s4.43,9.89,9.89,9.89c.8,0,1.58-.1,2.33-.28.75.18,1.53.28,2.33.28,5.46,0,9.89-4.43,9.89-9.89s-4.43-9.89-9.89-9.89Z"/>
  <path class="cls-1s-l04 first-color" d="m360.78,41.58c-4.25,0-7.69,3.44-7.69,7.69s3.44,7.69,7.69,7.69,7.69-3.44,7.69-7.69-3.44-7.69-7.69-7.69Z"/>
  <path class="cls-1s-l04 first-color" d="m216.83,131.73c3.33,7.03,19.72,2.46,12.51-7.5-8.43-11.63-20.79-6.31-24.29,6.2-4.18,14.96,13.5,25.95,26.31,20.51-.73,1.09-2.93,3.65-3.62,5.59-3.54,9.91,5.74,21.42,17.15,17.4-9.89-3.54-2.63-26.18,11.06-18.1,7.56,4.47,15.18,8.22,23.83,11.31,8.87,3.18,17.86,4.3,26.3,7.32-.38.57-5.77,1.63-6.69,2.14-9.4,5.17-9.15,24.49,4.55,29.74-5.07-12.6,15.69-22.95,37.47-36.29,21.79,13.34,42.54,23.68,37.47,36.29,13.7-5.25,13.96-24.57,4.55-29.74-.92-.5-6.31-1.57-6.69-2.14,8.45-3.02,17.43-4.15,26.3-7.32,8.65-3.1,16.27-6.85,23.83-11.31,13.68-8.09,20.95,14.56,11.06,18.1,11.41,4.02,20.69-7.49,17.15-17.4-.69-1.94-2.89-4.5-3.62-5.59,12.81,5.44,30.49-5.55,26.31-20.51-3.5-12.51-15.86-17.83-24.29-6.2-7.21,9.95,9.18,14.53,12.51,7.5-9.14,3.27-5.79-14.27,3.46-5.21,8.73,8.56-5.21,21.31-14.97,21.38-8.88.07-16.97-8.64-33.44,2.35,8.25-13.96,15.74-32.16,6.48-49.9,6.77-4.4,16.81-11.78,23.28-8.14,6.23,3.5,11.16,10.71,1.22,13.15-.32.08,7.71,3.5,13.44-2.37,11.26-11.52-9.27-33.04-26.55-17.54-.39.41-.8.82-1.26,1.2.42-.42.84-.82,1.26-1.2,8.45-9.01.12-25.94-17.05-19.8-6.11,2.19-.75,3.81,2.85,6.27,10.5,7.16,2.72,15.54-2.97,20.01-11.32-12.89-35.61-24.43-56.76-13.92-11.31,5.62-19.93,16.63-23.6,28.39-3.67-11.77-12.29-22.78-23.6-28.39-21.15-10.51-45.44,1.03-56.76,13.92-5.69-4.48-13.47-12.86-2.97-20.01,3.6-2.46,8.97-4.08,2.85-6.27-17.17-6.14-25.5,10.79-17.05,19.8.42.38.84.77,1.26,1.2-.46-.38-.87-.78-1.26-1.2-17.28-15.49-37.8,6.02-26.55,17.54,5.73,5.87,13.76,2.45,13.44,2.37-9.93-2.44-5.01-9.66,1.22-13.15,6.47-3.64,16.51,3.74,23.28,8.14-9.26,17.75-1.77,35.94,6.48,49.9-16.47-10.98-24.56-2.28-33.44-2.35-9.76-.07-23.7-12.82-14.97-21.38,9.25-9.06,12.6,8.48,3.46,5.21Zm206.99-29.15l.06.11c-.19.04-.38.09-.57.14.17-.07.34-.15.51-.24Zm-44.2-20.62c.6,2.21,2.63,3.84,5.03,3.84s4.5-1.68,5.06-3.95c11.56.94,22.46,5.52,28,12.96l-.15.1-.06-.03c-22.78,9.74-23.99,39.02-46.86,42.39,9.61-5.77,16.64-19.11,12.75-29.97-.91-2.55-3.59-7.32-1.84-8.51,10.59-7.23-4.14-4.3-8.63-.29-6.35,5.68,1.07,11.45,1.65,18.23.17,2-3.13-9.66-12.92-6.88-7.43,2.11,3.74,3.28,6.43,9.2,6.11,13.45-14.27,21.47-18.28,5.28-6.79-27.4,10.52-40.29,29.83-42.36Zm-86.49-.11c.56,2.27,2.62,3.95,5.06,3.95s4.43-1.63,5.03-3.84c19.31,2.06,36.62,14.96,29.83,42.36-4.01,16.19-24.4,8.17-18.28-5.28,2.69-5.92,13.86-7.09,6.43-9.2-9.79-2.79-13.08,8.88-12.92,6.88.57-6.78,8-12.55,1.65-18.23-4.49-4.02-19.22-6.94-8.63.29,1.75,1.19-.93,5.96-1.84,8.51-3.89,10.86,3.14,24.2,12.75,29.97-22.86-3.37-24.08-32.64-46.86-42.39l-.06.03-.15-.1c5.54-7.44,16.44-12.02,28-12.96Zm-34.11,20.74c.18.09.35.17.51.24-.19-.05-.38-.1-.57-.14l.06-.11Zm1.01.45c.29.11.56.19.81.24,11.21,4.47,24.45,26.98,33.49,34.58-16.77,3.34-12.07,16.95-8.18,17.34,3.52-4.7,14.88-8.93,21.05-7.39,16.49,4.11,29.47-6.19,33.99-17.44.08-.2.16-.4.23-.6.08.2.15.4.23.6,4.52,11.25,17.5,21.55,33.99,17.44,6.17-1.54,17.52,2.7,21.05,7.39,3.89-.39,8.59-14-8.18-17.34,9.04-7.6,22.28-30.11,33.49-34.58.25-.05.51-.13.81-.24,7.73,15.39,4.38,29.1-4.18,42.57-7.3,11.5-20.83,20.06-45.33,21.01-9.89.38-21.08-.56-31.88-4.08-10.8,3.52-21.99,4.46-31.88,4.08-24.5-.95-38.03-9.51-45.33-21.01-8.55-13.47-11.91-27.18-4.18-42.57Z"/>
  <path class="cls-1s-l04 first-color" d="m123.61,393.89c1.97-1.14,2.64-3.66,1.51-5.63-1.14-1.97-3.66-2.65-5.63-1.51-1.97,1.14-2.64,3.66-1.51,5.63,1.14,1.97,3.66,2.65,5.63,1.51Z"/>
  <path class="cls-1s-l04 first-color" d="m308.58,56.93c-3.49,0-6.31,2.83-6.31,6.32s2.83,6.31,6.31,6.31,6.32-2.83,6.32-6.31-2.83-6.32-6.32-6.32Z"/>
  <path class="cls-1s-l04 first-color" d="m392.61,102.27c2.27,0,4.12-1.84,4.12-4.12s-1.85-4.12-4.12-4.12-4.12,1.84-4.12,4.12,1.85,4.12,4.12,4.12Z"/>
  <path class="cls-1s-l04 first-color" d="m457.19,223.66c7.42-4.15,13.91-8.25,18.85-15.98,3-4.7,3.69-8.11,3.69-13.93,0-.92-10.1,3.64-9.01.82,3.24-8.42,5.98-22.41-5.73-28.27-15.05-7.52-4.41,4.99-3.89,11.68,2.66,34.65-27.61,60.47-53.87,29.29-13.96-16.57-1.58-40.76,19.87-35.43,7.32,1.82,12.7,11.86,12.09,18.64-1.38,15.2-15.31,4.1-11.88,4.1,1.56-6.76,5.82-9.48-.41-13.52-9.51-6.16-18.19,10.07-10.24,18.03,4.9,4.9,16.38,7.51,21.92,1.43,20.59-22.59-26.01-51.69-41.5-15.07-14.66,34.66,32.53,75.06,69.97,50.09,15.84-10.56,14.75-5.13,27.09-1.22-2.79,12.64,2.47,14.42-14.6,22.85-40.34,19.94-28.95,81,8.4,85.64,39.46,4.9,37.55-50,7.7-43.47-8.03,1.76-11.51,13.01-9.72,19.7,2.91,10.86,21.31,11.46,20.73.14-.38-7.42-4.87-5.09-11.5-7.12-1.72,2.97-4.37-14.65,9.49-8.24,6.18,2.86,12.18,12.54,10.1,19.79-6.11,21.24-33.25,19.87-40.62-.51-13.87-38.34,23.63-51.64,52.3-32.01,5.53,3.79,11.05,19.27,12.06,2.47.78-13.07-12.7-17.69-21.61-19.1-2.99-.47,6.01-6.94,5.21-7.4-5.04-2.91-8.34-4.02-13.91-3.77-9.16.41-15.96,3.98-23.26,8.33-8.12,4.83-10.47,6.59-12.32,11.09.57-15.15,24.48-25.09,31.5-27.92,16.76-6.76,26.33,5.8,32.39-9.54-3.52-7.8-21.32-8.78-24.62-8.13,3.54-6.13,16.15,1.95,24.26-20.6.96-2.67,2.04-5.04,2.03-7.62-2.22-1.29-4.82-1.55-7.61-2.05-23.59-4.25-22.9,10.71-29.98,10.71,2.22-2.53,10.26-18.43,5.27-25.38-16.31-2.43-10.23,12.14-24.46,23.28-5.96,4.67-26.53,20.4-39.93,13.32,4.82.65,7.52-.51,15.76-5.12Z"/>
  <path class="cls-1s-l04 first-color" d="m322.06,41.58c-4.25,0-7.69,3.44-7.69,7.69s3.44,7.69,7.69,7.69,7.69-3.44,7.69-7.69-3.44-7.69-7.69-7.69Z"/>
  <path class="cls-1s-l04 first-color" d="m84.85,467.92c.4.7.88,1.32,1.41,1.88.22.74.52,1.46.93,2.16,2.73,4.73,8.78,6.35,13.51,3.62,4.73-2.73,6.35-8.78,3.62-13.5-.4-.7-.88-1.32-1.41-1.88-.22-.74-.53-1.46-.93-2.16-2.73-4.73-8.78-6.35-13.51-3.62-4.73,2.73-6.35,8.78-3.62,13.51Z"/>
  <path class="cls-1s-l04 first-color" d="m585.51,418.2c-3.02-1.74-6.88-.71-8.62,2.31-1.74,3.02-.71,6.88,2.31,8.63,3.02,1.74,6.88.71,8.63-2.31,1.74-3.02.71-6.88-2.31-8.62Z"/>
  <path class="cls-1s-l04 first-color" d="m98.97,448.98c3.68-2.12,4.94-6.82,2.81-10.5-2.12-3.68-6.83-4.94-10.5-2.81-3.68,2.12-4.94,6.83-2.81,10.5,2.12,3.68,6.83,4.94,10.5,2.81Z"/>
  <path class="cls-1s-l04 first-color" d="m166,274.47c-8.91,1.41-22.4,6.03-21.61,19.1,1.01,16.8,6.53,1.32,12.06-2.47,28.68-19.63,66.18-6.33,52.3,32.01-7.37,20.38-34.51,21.75-40.62.51-2.09-7.25,3.92-16.93,10.1-19.79,13.85-6.4,11.2,11.21,9.49,8.24-6.64,2.03-11.12-.3-11.5,7.12-.58,11.32,17.82,10.72,20.73-.14,1.79-6.69-1.69-17.94-9.72-19.7-29.86-6.54-31.76,48.37,7.7,43.47,37.35-4.64,48.74-65.7,8.4-85.64-17.07-8.44-11.81-10.21-14.6-22.85,12.34-3.91,11.25-9.35,27.09,1.22,37.44,24.96,84.62-15.43,69.97-50.09-15.49-36.62-62.08-7.52-41.5,15.07,5.54,6.08,17.02,3.46,21.92-1.43,7.95-7.95-.73-24.19-10.24-18.03-6.24,4.04-1.97,6.76-.41,13.52,3.43,0-10.5,11.1-11.88-4.1-.61-6.78,4.77-16.82,12.08-18.64,21.45-5.33,33.83,18.86,19.87,35.43-26.27,31.18-56.53,5.36-53.87-29.29.52-6.69,11.16-19.2-3.89-11.68-11.71,5.86-8.97,19.85-5.73,28.27,1.09,2.82-9.01-1.74-9.01-.82,0,5.82.69,9.23,3.69,13.93,4.93,7.72,11.43,11.83,18.85,15.98,8.25,4.61,10.94,5.77,15.76,5.12-13.4,7.08-33.97-8.65-39.93-13.32-14.23-11.13-8.15-25.7-24.46-23.28-4.99,6.95,3.05,22.86,5.27,25.38-7.07,0-6.38-14.96-29.98-10.71-2.79.5-5.39.76-7.61,2.05,0,2.57,1.07,4.95,2.03,7.62,8.12,22.56,20.73,14.48,24.26,20.6-3.3-.66-21.1.33-24.62,8.13,6.05,15.34,15.63,2.79,32.39,9.54,7.03,2.83,30.93,12.78,31.5,27.92-1.85-4.5-4.2-6.25-12.32-11.09-7.3-4.35-14.1-7.92-23.26-8.33-5.57-.25-8.87.86-13.91,3.77-.79.46,8.2,6.92,5.21,7.4Z"/>
  <path class="cls-1s-l04 first-color" d="m105.96,420.51c-1.74-3.02-5.6-4.05-8.62-2.31-3.02,1.74-4.06,5.61-2.31,8.62,1.74,3.02,5.61,4.06,8.63,2.31,3.02-1.74,4.05-5.6,2.31-8.63Z"/>
  <path class="cls-1s-l04 second-color" d="m317.42,361.36c-1.78,1.95-3.92,3.57-6.43,4.87v1.17c1.99-.17,4.42-.32,7.27-.45,2.86-.13,5.45-.2,7.79-.2,4.16,0,9.05.22,14.68.65v-1.04c-2.69-1.21-4.59-2.68-5.72-4.42-1.12-1.73-1.82-4.37-2.08-7.92-.69-9.87-1.04-22.86-1.04-38.96,0-13.25.04-21.9.13-25.98,0-3.46.04-6.15.13-8.05.09-1.9.17-3.77.26-5.58,0-.43.04-1.34.13-2.73.08-3.12.43-5.32,1.04-6.62.52-.09,1.34-.17,2.47-.26,2.86-.26,5.11-.39,6.75-.39,3.03,0,6,.31,8.9.91,2.9.61,5.43,1.65,7.6,3.12,3.12,2.08,5.59,4.78,7.4,8.12,1.82,3.34,2.73,6.78,2.73,10.33,0,4.33-.45,8.25-1.37,11.75-.91,3.51-2.45,6.43-4.61,8.77-2.25,2.42-5.15,4.31-8.7,5.65-3.55,1.34-7.06,2.06-10.52,2.14-1.12,0-2.9-.26-5.32-.78-2.43-.43-4.2-.65-5.33-.65-.52,0-.78.43-.78,1.3,0,.69.41,1.3,1.23,1.82.82.52,1.89.93,3.19,1.23,1.3.31,2.62.52,3.96.65,1.34.13,2.53.19,3.57.19,4.76,0,9.03-.34,12.79-1.04,3.77-.69,7.34-2.21,10.71-4.54,3.98-2.77,7.34-6.51,10.06-11.24,2.73-4.72,4.09-9.5,4.09-14.35,0-4.59-1.13-9.09-3.38-13.51-2.25-4.42-5.45-7.88-9.61-10.39-2.6-1.64-5.76-2.92-9.48-3.83-3.72-.91-7.06-1.36-10-1.36-2.52,0-6.28.17-11.3.52-5.63.43-9.92.65-12.86.65-2.08,0-4.37-.07-6.88-.2-2.51-.13-5.02-.32-7.53-.59v1.17c3.03,1.65,5.09,3.55,6.17,5.72,1.08,2.17,1.7,4.81,1.88,7.92.34,6.49.6,13.21.78,20.13.17,6.93.26,13.72.26,20.39,0,17.49-.09,30.61-.26,39.35-.09,2.43-1.02,4.61-2.79,6.56Z"/>
  <path class="cls-1s-l04 first-color" d="m136.49,486.01c3.02-1.74,4.05-5.6,2.31-8.62-1.74-3.02-5.61-4.06-8.63-2.31-3.02,1.74-4.06,5.61-2.31,8.63,1.74,3.02,5.61,4.05,8.63,2.31Z"/>
  <path class="cls-1s-l04 second-color" d="m594.11,614.01h1.18c1.22-4.37,2.67-7.8,4.36-10.27,1.68-2.47,3.44-4.28,5.27-5.43,1.83-1.15,3.64-1.85,5.43-2.1,1.79-.25,3.41-.38,4.84-.38h6.24v73.59h-11.94v1.51h34.64v-1.51h-11.94v-73.59h6.24c1.43,0,3.05.13,4.84.38,1.79.25,3.6.95,5.43,2.1,1.83,1.15,3.59,2.96,5.27,5.43,1.68,2.47,3.14,5.9,4.36,10.27h1.18v-19.69h-65.41v19.69Z"/>
  <path class="cls-1s-l04 first-color" d="m118.34,482.52c3.68-2.12,4.94-6.83,2.81-10.5-2.12-3.68-6.83-4.94-10.5-2.81-3.68,2.12-4.94,6.82-2.81,10.5,2.12,3.68,6.83,4.94,10.5,2.81Z"/>
  <path class="cls-1s-l04 second-color" d="m156.67,670.92h33.14v-1.51h-9.58l-29.26-77.03h-2.58l-29.05,77.03h-9.47v1.51h23.13v-1.51h-11.94l11.3-29.91h24.96l11.3,29.91h-11.94v1.51Zm-23.67-32.92l11.83-31.31,11.83,31.31h-23.67Z"/>
  <path class="cls-1s-l04 second-color" d="m435.85,669.42v1.51h65.63v-23.56h-1.18c-.22,1.65-.72,3.73-1.51,6.24-.79,2.51-2.01,4.93-3.66,7.26-1.65,2.33-3.78,4.34-6.4,6.02-2.62,1.69-5.9,2.53-9.84,2.53h-20.33v-38.84h8.71c2.58,0,4.68.45,6.29,1.34,1.61.9,2.9,2.1,3.87,3.6.97,1.51,1.72,3.23,2.26,5.16.54,1.94,1.06,3.95,1.56,6.02h1.18v-33.46h-1.18c-.79,3.23-1.6,5.86-2.42,7.91-.83,2.04-1.83,3.66-3.01,4.84-1.18,1.18-2.6,1.99-4.25,2.42-1.65.43-3.66.65-6.02.65h-6.99v-33.24h17.86c2.94,0,5.45.36,7.53,1.08,2.08.72,3.87,1.81,5.38,3.28,1.51,1.47,2.8,3.26,3.87,5.38,1.08,2.12,2.08,4.57,3.01,7.37h1.18v-18.61h-61.54v1.51h11.94v73.59h-11.94Z"/>
  <path class="cls-1s-l04 first-color" d="m572.2,469.2c-3.68-2.12-8.38-.87-10.5,2.81-2.12,3.68-.86,8.38,2.81,10.5,3.68,2.12,8.38.86,10.5-2.81,2.12-3.68.86-8.38-2.81-10.5Z"/>
  <polygon class="cls-1s-l04 second-color" points="280.5 595.83 280.5 594.32 256.73 594.32 236.82 652.2 236.61 652.2 216.7 594.32 192.5 594.32 192.5 595.83 204.44 595.83 204.44 669.42 192.5 669.42 192.5 670.92 218 670.92 218 669.42 206.05 669.42 206.05 597.23 206.27 597.23 231.87 671.03 257.59 596.47 257.8 596.47 257.8 669.42 245.86 669.42 245.86 670.92 280.5 670.92 280.5 669.42 268.56 669.42 268.56 595.83 280.5 595.83"/>
  <path class="cls-1s-l04 first-color" d="m581.06,438.48c-2.12,3.68-.86,8.38,2.81,10.5,3.68,2.12,8.38.87,10.5-2.81,2.12-3.68.86-8.38-2.81-10.5-3.68-2.12-8.38-.86-10.5,2.81Z"/>
  <path class="cls-1s-l04 first-color" d="m595.66,471.96c.4-.7.71-1.42.93-2.16.53-.56,1-1.19,1.41-1.88,2.73-4.73,1.11-10.77-3.62-13.51-4.73-2.73-10.78-1.11-13.51,3.62-.4.7-.71,1.42-.93,2.16-.53.56-1,1.19-1.41,1.88-2.73,4.73-1.11,10.77,3.62,13.5,4.73,2.73,10.78,1.11,13.51-3.62Z"/>
  <path class="cls-1s-l04 second-color" d="m407.45,595.83c1.43,0,3.05.13,4.84.38,1.79.25,3.6.95,5.43,2.1,1.83,1.15,3.59,2.96,5.27,5.43,1.68,2.47,3.14,5.9,4.36,10.27h1.18v-19.69h-65.41v19.69h1.18c1.22-4.37,2.67-7.8,4.36-10.27,1.68-2.47,3.44-4.28,5.27-5.43,1.83-1.15,3.64-1.85,5.43-2.1,1.79-.25,3.41-.38,4.84-.38h6.24v73.59h-11.94v1.51h34.64v-1.51h-11.94v-73.59h6.24Z"/>
  <path class="cls-1s-l04 second-color" d="m286.53,669.42v1.51h65.63v-23.56h-1.18c-.22,1.65-.72,3.73-1.51,6.24-.79,2.51-2.01,4.93-3.66,7.26-1.65,2.33-3.78,4.34-6.4,6.02-2.62,1.69-5.9,2.53-9.84,2.53h-20.33v-38.84h8.71c2.58,0,4.68.45,6.29,1.34,1.61.9,2.9,2.1,3.87,3.6.97,1.51,1.72,3.23,2.26,5.16.54,1.94,1.06,3.95,1.56,6.02h1.18v-33.46h-1.18c-.79,3.23-1.6,5.86-2.42,7.91-.83,2.04-1.83,3.66-3.01,4.84-1.18,1.18-2.6,1.99-4.25,2.42-1.65.43-3.66.65-6.02.65h-6.99v-33.24h17.86c2.94,0,5.45.36,7.53,1.08,2.08.72,3.87,1.81,5.38,3.28,1.51,1.47,2.8,3.26,3.87,5.38,1.08,2.12,2.08,4.57,3.01,7.37h1.18v-18.61h-61.54v1.51h11.94v73.59h-11.94Z"/>
  <path class="cls-1s-l04 first-color" d="m372.06,530.01c10.26-12.91-5.4-14.93-7.93-32.82-1.06-7.5-4.4-33.17,8.43-41.24-2.97,3.85-3.31,6.77-3.44,16.21-.12,8.5.19,16.17,4.41,24.31,2.57,4.95,5.18,7.25,10.22,10.16.79.46,1.9-10.56,3.8-8.21,5.67,7.02,16.42,16.38,27.35,9.17,14.04-9.28-2.12-6.31-8.17-9.21-31.33-15.02-38.57-54.15,1.57-61.3,21.33-3.8,36.09,19.01,20.75,34.92-5.23,5.43-16.62,5.07-22.18,1.15-12.47-8.8,4.11-15.31,2.39-12.34,5.08,4.73,5.3,9.78,11.91,6.4,10.09-5.15.37-20.79-10.49-17.88-6.69,1.79-14.69,10.43-12.2,18.26,9.27,29.12,57.77,3.32,33.8-28.4-22.69-30.02-81.26-9.36-78.37,35.55,1.23,19-2.94,15.34-12.49,24.07-9.56-8.73-13.72-5.07-12.49-24.07,2.9-44.91-55.68-65.57-78.37-35.55-23.97,31.72,24.53,57.52,33.8,28.4,2.49-7.84-5.51-16.47-12.2-18.26-10.86-2.91-20.58,12.73-10.49,17.88,6.62,3.38,6.84-1.67,11.91-6.4-1.72-2.97,14.87,3.54,2.39,12.34-5.57,3.92-16.95,4.28-22.18-1.15-15.34-15.91-.58-38.73,20.75-34.92,40.14,7.15,32.9,46.28,1.57,61.3-6.05,2.9-22.21-.07-8.17,9.21,10.93,7.21,21.67-2.15,27.35-9.17,1.9-2.35,3,8.67,3.8,8.21,5.04-2.91,7.65-5.21,10.22-10.16,4.22-8.14,4.53-15.81,4.41-24.31-.13-9.45-.47-12.36-3.44-16.21,12.83,8.07,9.49,33.74,8.43,41.24-2.53,17.89-18.19,19.91-7.93,32.82,8.51.85,18.27-14.07,19.35-17.26,3.54,6.12-9.77,13.01,5.71,31.31,1.83,2.16,3.35,4.29,5.58,5.57,2.23-1.28,3.75-3.4,5.58-5.57,15.48-18.31,2.18-25.19,5.71-31.31,1.08,3.18,10.83,18.1,19.35,17.26Z"/>
</svg>