<svg id="Layer_1" data-name="Layer 1" xmlns="http://www.w3.org/2000/svg" viewBox="0 0 700 700">
  <defs>
    <style>
      .cls-1-e06tt {
        font-family: ArialMT, Arial;
        font-size: 70px;
      }

      .cls-1-e06tt, .cls-2-e06tt {
        fill: #231f20;
      }

      .cls-3-e06tt {
        fill: #333;
      }
    </style>
  </defs>
  <path class="cls-3-e06tt first-color" d="m568.13,245.02c-.42-.83-.08-1.85.74-2.28.83-.41,1.86-.08,2.28.75,8.54,16.97,15.2,35.05,19.68,53.97,4.35,18.36,6.65,37.52,6.65,57.2,0,27.6-4.52,54.15-12.87,78.95-8.65,25.7-21.41,49.51-37.49,70.67-.56.75-1.62.89-2.36.32-.74-.56-.89-1.62-.33-2.36,15.86-20.86,28.44-44.34,36.97-69.7,8.23-24.44,12.69-50.63,12.69-77.88,0-19.42-2.28-38.31-6.56-56.42-4.42-18.66-10.98-36.5-19.4-53.22M155.56,502.24c.57.75.42,1.81-.33,2.36-.74.57-1.8.42-2.36-.32-16.09-21.16-28.84-44.97-37.49-70.67-8.35-24.8-12.87-51.35-12.87-78.95,0-19.68,2.3-38.84,6.65-57.2,4.48-18.91,11.14-37,19.68-53.97.42-.83,1.44-1.17,2.28-.75.83.42,1.17,1.44.75,2.28-8.42,16.73-14.99,34.56-19.41,53.22-4.28,18.11-6.56,37-6.56,56.42,0,27.25,4.46,53.43,12.69,77.88,8.53,25.36,21.12,48.85,36.97,69.7Z"/>
  <g>
    <path class="first-color" d="m498.52,221.28c8.97,8.97,16.18,17.88,22.97,27.93l1.21.96c-12.01-18.71-26.98-35.33-44.24-49.22l-.8-.5-1.55-1c-2.81-1.85-8.52-5.42-8.52-5.42-3.51-2.63-6.97-5.06-10.52-7.4-1.98-.75-3.97-1.47-5.97-2.17,8.14,4.75,16.11,10.19,24.57,16.69,8.57,6.86,14.96,12.94,22.85,20.13Z"/>
    <path class="first-color" d="m463.59,190.06c-.91-.61-1.81-1.21-2.72-1.8,7.74,6.06,11.64,8.96,2.72,1.8Z"/>
    <path class="first-color" d="m219.13,504.84c3.82,3.82,8.3,7.93,12.65,11.08,3.47,2.18-6.78-6.87-7.09-7.16-3.74-3.1-7.38-6.33-10.91-9.69,1.47,1.65,2.97,3.28,4.49,4.88,8.01,6.29,8.92,7.14.86.88Z"/>
    <path class="first-color" d="m163.49,411.55c-1.18-3.4-2.28-6.84-3.28-10.31.32,1.62.66,3.22,1.03,4.84,2.57,6.71,2.99,7.91.25.96.97,3.9,2.14,8.01,3.63,11.73,1.31,2.66-1.56-6.94-1.63-7.21Z"/>
    <path class="first-color" d="m398.57,554.45c-.1.23-.22.46-.32.69,3.16-1.72,5.71-3.23.32-.69Z"/>
    <path class="first-color" d="m501.4,493.71c-2.63,2.4-5.31,4.74-8.05,7.01,1.34-.95,2.68-1.92,4-2.91,5.77-5.61,5.52-5.3.66-.45,3.22-2.48,6.54-5.18,9.4-8.06,2.1-2.45-5.8,4.24-6.01,4.41Z"/>
    <path class="first-color" d="m472.48,520.96c5.37-3.31,10.64-7.36,15.44-11.45-10.5,7.57-8.01,5.64,1.14-.97,1.86-1.64,3.7-3.31,5.5-5.02-4.34,3.71-8.82,7.23-13.45,10.55-.35.28-13.01,9.4-8.63,6.89Z"/>
    <path class="first-color" d="m475.86,515.84c1.18-1.03-3.27,1.5-3.38,1.56-1.51,1-3.03,1.98-4.55,2.93.69-.34,1.38-.69,2.08-1.04,3.21-2.4,3.54-2.59.52-.26,0,0,3.69-1.98,5.33-3.19Z"/>
    <path class="first-color" d="m151.63,411.24c.66,2.62,1.39,5.22,2.15,7.81,2.18,5.48,2.43,6.27.42,1.4,1.39,4.54,2.92,8.99,4.6,13.39.2-.67-2.99-10.16-3.1-10.51-1.48-3.98-2.83-8.02-4.08-12.08Z"/>
    <path class="first-color" d="m202.79,493.01c1,1.29,2.01,2.56,3.04,3.82,5.45,4.97,6.37,5.89.68.76,1.97,2.32,4.22,4.84,6.52,7.06-1.51-1.28-3.01-2.59-4.54-3.94,1.56,1.39,3.13,2.77,4.74,4.12.66.64,1.33,1.24,1.98,1.81.35.27.5.33.5.27.02-.42-5.18-5.9-5.32-6.07-2.6-2.55-5.13-5.17-7.6-7.85Z"/>
    <path class="first-color" d="m150.34,353.12c-.18,8.67.4,18.42,2.35,26.85.74,3.1.71.7.66-.72l-.07-1.96-.1-2c-.21-3.65-.46-10.98-.46-10.98-.91-7.59-1.42-14.77-1.58-22.41.03-.16-.01-.89-.02-1.12-.02.22-.12.96-.1,1.12-.28,3.03-.49,6.03-.64,9.06,2.07,14.43,3.09,22.85-.04,2.16Z"/>
    <path class="first-color" d="m148.12,352.31c.02-1.64.21-3.4.34-5.04.12-.41.19-2.73.21-3.31-.07.63-.38,2.85-.33,3.3-.09,1.06-.15,2.12-.23,3.18v1.87Z"/>
    <path class="first-color" d="m171.44,453.36c3.86,7.97,8.78,16.55,14.39,23.37,1.99,2.26,1.19.59.44-.83l-.1-.19c1.44,1.34-2.32-4.12-2.42-4.28l-.02-.03c-1.95-3.39-4.98-8.88-4.98-8.88-4.49-6.73-8.59-13.7-12.29-20.89,1.31,3.33,2.7,6.63,4.17,9.88,8.68,12.53,13.2,19.46.81,1.86Z"/>
    <path class="first-color" d="m375.04,558.1c-2.41-.19-4.27-.24-3.41.23-4.91.35-8.94.57-10.77.53-6.05-.24-11.94-.67-17.95-1.36-23.5-1.81-41.77-5.85-63.85-14.11-3.91-1.51-7.71-3.11-11.54-4.84-18.69-8.06-36.1-18.73-51.8-31.62,19.81,16.53,37.95,27.51,62.82,37.78,11.13,4.35,20.35,7.07,31.43,10.59,17.32,4.63,32.92,6.56,50.9,7.02,3.27.02,6.49-.03,9.67-.15-8.27.6-15.97,1.17-18.74,1.09-6.15-.25-12.13-.68-18.22-1.38-19.63-1.51-35.64-4.55-53.17-10.24-10.6-5.34-26.48-12.72-30.33-15.07-5.19-3.29-10.15-6.65-15.09-10.31-19.76-13.54-33.78-26.36-49.02-44.85-2.67-3.33-5.21-6.66-7.69-10.12-1.25-1.68-2.48-3.38-3.68-5.1,5.67,9.4,12.07,18.31,19.12,26.66,3.1,3.5,6.18,6.87,9.44,10.41l-.02-.02c23.39,24.12,52.66,42.51,85.5,52.84l-.18-.11,3.97,1.26c18.32,5.38,37.7,8.27,57.75,8.27,14.92,0,29.46-1.61,43.47-4.64-2.46,0-6.05.18-10.14.43,6.25-.66,12.49-1.68,18.88-3.17,11.02-2.96-11.05-1.17-27.34,0Z"/>
    <path class="first-color" d="m522.27,471.74c3.12-4.81,6.03-9.78,8.75-14.86-5.06,7.74-10.05,15.6-8.75,14.86Z"/>
    <path class="first-color" d="m205.8,493.83c.28.25,1.39,1.32,1.65,1.47,2.42,2.02,2.38,1.66.6-.6-12.78-15.5-22.62-28.39-31.83-45.56,1.48,2.26,2.98,4.51,4.42,6.8,6.46,8.55-2.27-4.89-8.24-14-3.56-6.47-6.63-12.79-9.58-19.64-6.9-16.67-11.07-30.98-14.11-48.52-.61-8.44-1.2-16.35-1.13-19.18.14-3.36.33-6.67.59-9.98-.03,1.43-.05,2.85-.06,4.25l.04-1.6c.05-1.5.1-3,.18-4.49v-.02c.18-2.13.39-4.26.64-6.41,1.02-13.23,2.74-24.82,5.48-36.36-5.93,19.16-9.12,39.52-9.12,60.64,0,13.36,1.3,26.43,3.74,39.09.24.53.31.4.27-.14,1.25,1.81.47-10.43-.41-22.76.23,1.9.49,3.82.78,5.72-.07-.32-.13-.66-.19-.99.92,6.25,2.11,12.46,3.58,18.61.4.6.92,3.43,1.15,4.31-.01-.03-.23-.57-.23-.57,1.28,4.58,2.64,8.89,4.22,13.39-.22-.43-.43-.86-.63-1.3.82,2.48,1.69,4.91,2.6,7.35,10.46,27.07,24.63,50.24,45.6,70.48Z"/>
    <path class="first-color" d="m266.25,543.55c2.85.96,1.33-.08-.03-.94l-1.8-1.09-1.82-1.05c-3.21-1.86-9.6-5.69-9.6-5.69-7.25-3.58-14.28-7.57-21.07-11.95,2.79,2.23,5.64,4.39,8.55,6.47,13.78,6.51,21.16,10.25,1.63,1.2,7.32,4.97,15.87,9.95,24.15,13.04Z"/>
    <path class="first-color" d="m306.65,554.78c3.01.39-6.83-2.53-7.08-2.61-3.52-.91-7.03-1.91-10.5-3,1.51.62,3.03,1.21,4.54,1.79,7.21,1.59,8.46,1.91.96.32,3.78,1.35,8.16,2.75,12.08,3.5Z"/>
    <path class="first-color" d="m491.43,231.75c.26.25.35.32,0,0h0Z"/>
    <path class="first-color" d="m537.19,412.61c.57-2.01,1.12-3.94,1.66-5.82-.62-.38-1.25-.76-1.88-1.15-2.11,6.99-5.13,15.37-6.05,17.72.09-.32.32-1.11.32-1.11.32-1.18.63-2.37.93-3.56-.02.07-.05.14-.07.21l.27-.93c-.68,1.91-1.39,3.86-2.16,5.83-.44,1.13-.9,2.25-1.37,3.36-.18.5-.36,1-.53,1.51l.32-.57-.57,1.29c-.23.7-.47,1.39-.69,2.1-1.18,2.53-2.43,5.04-3.73,7.51,2.45-5.9,4.6-11.79,7.25-18.9,2.48-6.31,4.12-10.64,5.37-14.89-1.42-.87-2.87-1.75-4.37-2.65-.04.39-.08.77-.11,1.11-.37,4.41-.32,3.22,0,0,.03-.34.06-.72.09-1.12-20.81-12.58-48.34-28.23-59.9-30.47-10.23-1.98-33.35-1.95-57.83-1.91-23.84.03-48.49.07-66.32-1.61-23.6-2.21-46.3-8.58-59.86-12.38-6.48-1.82-12.6-3.53-13.78-3.29-4.68,1.15-45.73-3.84-62.22-8.05-1.73-.44-3.36-.87-4.9-1.29.07.98-.31,1.9-1.1,2.6-2.99,2.62-11.42.69-18.64-2.35,2.26,4.49,6.89,10.5,14.58,14.78,9.38,5.21,35.34,9.17,52.51,11.78,10.44,1.59,15.51,2.39,16.89,3.15,3.52,1.96,103.71,48.7,104.72,49.17.02,0,.03.02.05.03,6.93-4.27,9.96-9.41,10.01-9.48.41-.71,1.32-.96,2.04-.55.72.41.96,1.32.55,2.03-.26.46-6.57,11.25-22.16,15.24-15.41,3.94-45.92,17.15-56.27,24.36-5.22,3.64-8.5,9.27-10.05,13.6,7.4-5.02,18.1-9.62,25.02-8.78.26.03.51.12.74.25.26.16,2.57,1.61,2.99,4.25.09.55.09,1.24-.1,2.03,10.49-2.69,20.8-5.1,25.45-5.56,3.19-.32,9.26-.71,16.29-1.16,16.33-1.05,38.69-2.5,43.8-4.21,2.81-.94,12.04-6.71,21.82-12.82,25.75-16.1,34.8-21.17,37.66-19.45,4.16,2.5,44.71,26.57,45.12,26.81.2.12.35.28.47.46,4.71-7.59,8.94-15.72,13.07-24.94,1.72-4.03,3.26-8.01,4.7-12.15Z"/>
    <path class="first-color" d="m542.95,409.32c-1.05,4.03-2.23,8.01-3.74,11.89-2.53,5.87,2.61-12.04,2.71-12.48v-.04s-.05-.04-.08-.06c-1.9,6.13-3.87,12.14-5.84,17.61-1.17,2.78-2.36,5.47-3.57,8.08.8-1.45,1.57-2.91,2.32-4.37-1.18,3-2.45,5.99-3.77,8.93-1,1.45-1.95,2.83-2.82,4.07-.39.75-.77,1.48-1.17,2.21.9-1.27,1.98-2.79,3.27-4.61-3.49,7.2-7.94,14.94-13.02,21.12-.85.96-1.13,1.13-1.13.92-4.23,5.91-8.94,11.7-14.34,17.65,5.78-7.89,8.52-14.17,13.53-23.51.55-1.04,1.08-2.07,1.59-3.06.36-.55.72-1.12,1.08-1.67-.19-.03-.37-.09-.54-.19-.41-.24-40.29-23.91-45.03-26.75-3.26-.27-22.89,12-34.65,19.36-10.36,6.48-19.3,12.07-22.45,13.12-5.48,1.83-27.14,3.23-44.55,4.36-7,.45-13.05.84-16.18,1.16-5.02.5-16.78,3.31-28.13,6.28-5,4.15-25.52,14.28-32.12,12.67-.79-.19-1.36-.52-1.78-.88-.68-.59-.96-1.3-1.07-1.77-.44-1.81.38-3.9,2.44-6.21.66-.74,1.46-1.51,2.38-2.29.9-5.74,5.4-14.24,12.25-19,10.77-7.5,41.27-20.71,57.24-24.8,2.63-.67,4.98-1.57,7.06-2.57-7.23-3.37-32.32-15.09-55.94-26.15-4.69,1.89-46.18,18.42-58.28,18.76-10.65.3-17.24-3.57-20.77-6.65-.05-.05-.09-.09-.15-.13-1.81.29-3.48.47-4.78.51-2.8.09-4.63-.3-5.68-1.21-.2-.17-.37-.37-.51-.58-.55-.81-.72-2.19.59-3.4,2.8-2.57,18.28-6.55,23.34-5.1,6.99-1.96,33.74-11.46,41-14.05-1.04-.49-2.06-.97-3.05-1.44-.1.05-.2.08-.31.11-1.6.35-39.22,8.66-46.77,10-1.69.3-4.2.94-7.1,1.68-10.3,2.63-25.86,6.6-38.47,4.6-6.74-1.07-11.69-3.62-14.94-6.45-1.38-1.2-2.43-2.45-3.2-3.67-2.15.07-4.11.02-5.63-.17-2.37-.29-4.07-.88-5.1-1.79-.55-.48-.91-1.04-1.11-1.69-.2-.7-.41-2.47,2.05-3.94,4.91-2.93,23.81-5,28.12-1.66,2.68-.23,5.26-.51,7.38-.89,5.63-1,26.17-7.18,35.93-10.16-15.14-2.5-31.65-5.76-39.01-9.85-2.66-1.48-5.01-3.16-7.05-4.94-5.48-4.77-8.75-10.23-10.04-14.29-2.48-1.27-4.6-2.61-5.99-3.82-.2-.17-.38-.34-.54-.5-2.82-2.81-1.63-4.82-.99-5.55.9-1.04,2.83-2.01,9.74-.34,4.1.99,13.94,4.24,18.75,7.95,2.5.71,5.28,1.46,8.38,2.26,17.41,4.45,57.37,8.87,60.77,8.04,1.78-.43,5.73.64,15.3,3.32,14.34,4.02,36,10.1,59.34,12.29,17.69,1.66,42.27,1.63,66.04,1.59,24.63-.03,47.88-.06,58.4,1.97,11.53,2.23,37.37,16.7,57.92,29.03.39-1.5,1.03-3.82,1.97-7.1.66-3.47,1.44-6.9,2.12-10.37.02-.75.02-1.5.02-2.25-.14.41-.28.82-.42,1.23-.58,1.48.4-3.32.42-3.37,0-.96,0-1.93-.02-2.9.27-2.46.51-4.94.7-7.41.03-.23.06-.46.1-.69.09-1.35.16-2.68.22-4.01.3-1.57.57-3.07.79-4.54.07,1.15.19,1.79.35,3.41-.13,1.69-1.47,14.09-1.15,4.68-.06.61-.18,1.21-.3,1.81,0,1.26-.07,16.21.49,7.64.44-2.29.83-4.59,1.17-6.9-.1,1.77-.24,3.55-.41,5.32.07-.45.27-1.36.27-1.36-.01,1.39,0,1.68.06-.11.2-1.67.17-7.41.75-6.37-.17-2.49-.39-4.96-.65-7.44-.07-1.13-.14-2.27-.21-3.39.21-1.8.36-3.6.43-5.48.35,2.23.55,4.5.72,6.74.14-.95.19-1.94.36-2.88-.04-.86.02-3.94-.13-4.53-.06-.77-.15-1.51-.28-2.27-.21-1.55-.49-3.26-.81-5.05-.1-1.38-.22-2.83-.38-4.38-1.05-5.24-2.26-10.21-3.74-15.3-.69-3.43-1.25-6.42-1.45-8.52,1.31,3.25,2.54,7.8,3.61,12.44.34,2.33.73,4.92,1.11,7.12.33,1.55.64,3.1.93,4.65.21.75.37.92.44.19l.4,2.01s0-.07,0-.1c-.12-.62-.25-1.27-.38-1.97.06-.64.06-1.89-.02-3.92-.36-5.04-1.13-9.95-2.29-14.87.31.78.61,1.56.9,2.34.13.43.27.89.43,1.41l-.1-.5c7.44,20.27,10.88,42.43,8.04,63.88-.06.33-.28,1.73-.41,1.98-.54,1.96-.8,1.64-1.04-.13-1.25-16.45-1.63-28.45-4.92-43.95.54,3.61.99,7.24,1.36,10.92-.04.81-.08,1.61-.13,2.41-.31-2.86-.34-4.28-.41.05-.08-.64-.16-1.28-.24-1.92-.07,3.18-.45,6.46-.47,9.62-1.85-12.49-1.23-7.31.02,1.6,0,1.56,0,3.12-.03,4.68.08-.38.17-.77.25-1.15-.07.73-.16,1.45-.24,2.17.12,4.5-.02,9.17-.5,13.65-.24-2.38-.56-4.81-.98-7.16.01-.03.01-.08.01-.11-.62-3.47.52,6.18.75,8.87-.28-2.92-.65-5.85-1.08-8.76,0,0,.19-3.41.27-5.1,0,0-.16.79-.32,1.13-.19,2.19-.43,4.37-.69,6.56.1-.27.2-.53.3-.79-.66,5.14-.15,26.54-2.14,9.53-.62,2.38-1.2,6.47-1.62,10.09,1.65,1,3.27,1.98,4.83,2.93,1.1-4.32,1.91-9,2.89-15.95.43-1.88.83-3.81,1.23-5.78-.68,5.16-1.48,9.99-2.45,14.65l.35-.97c-.01.14-.13,1.76.02,1.78.11,1.09-.44,3.62-1.3,6.72.63.39,1.26.77,1.87,1.15,3.91-13.65,6.98-23.97,9.32-31.47-.07-1.1.18-4.26.18-4.38v-.03c0-1.47-.01-3.3-.04-4.95.45,6.33.6,12.42.44,18.47-1.09,4.14-2.3,8.56-3.59,13.09-.62,3.96-1.41,7.85-2.33,11.74.38.24.75.47,1.12.7,1.6-4.97,2.99-9.99,4.21-15.23-.44,5.21-1.12,10.44-2.03,15.83-.06.22-.13.43-.18.64.79.49,1.55.97,2.29,1.43,1.79-7.3,3.2-14.75,4.18-22.33.24-2.75.41-5.51.53-8.28l.19,1.94c.23-2.32.4-4.67.56-7.01-.18-.6-.39-1.17-.61-1.71v-1.56c.19-3.42.3-6.89.33-10.47-.1,2.23-.23,4.46-.4,6.68l-.02-.81c.05-2.71.04-5.43-.02-8.15.15-.37.28-.7.41-1,.19-2.62.33-5.26.42-7.89-1.66-29.84-9.72-57.97-22.81-83.05l-.71-.87c4.92,9.1,8.95,18.21,12.04,28.37,3.77,14.1-14.65-27.14-18.47-33.37-.72-1.14-1.45-2.28-2.19-3.4l-.03-.05c-1.5-2.63-3.05-5.23-4.67-7.79.95,1.34,1.85,2.71,2.79,4.04-7.99-13.34-16.68-24.18-27.45-35.44-12.8-12.77-24.56-21.97-40.17-31.07-7.05-4.38-13.84-7.99-21.4-11.45-6.39-2.83-12.6-5.26-19.3-7.2-10.02-2.64,17.29,7.74,18.77,8.43,2.46,1.17,4.84,2.36,7.25,3.6,1.17.56,2.35,1.13,3.52,1.71-.72-.22-1.44-.42-2.16-.62-.74-.26-1.48-.51-2.23-.75l1.22.62c-.55-.26-1.11-.51-1.67-.76-1.1-.36-2.21-.7-3.31-1.04-18.8-5.61-34.72-8.19-53.1-9.19-6.62-1.33-13.39-2.36-20.31-3.13,7.27-.36,14.23-.32,21.64.21,1.72,0,3.41,0,5.08.05-1.9-.34-4.13-.73-5.64-.96l-1.69-.25-1.65-.27c-1.16-.18-3.22-.52-.48-.37,5.22.32,10.5,1.05,15.7,2.07,2.79.15,5.53.36,8.24.62-12.26-2.02-23.04-3.48-34.43-3.98l-1.42.1c-.24,0-8.08.23-7.91-.12-.83.03-1.64.07-2.42.1,1.61.09,3.22.19,4.83.24,8.34,1.04-1.15.62-10.33.13-.8.08-1.57.17-2.3.27-2.21.36-4.36.76-6.48,1.17l-1.84-.02s.58.07.61.07c-.91.02-3.78.23-4.45,0-6.32.18-12.63.63-18.9,1.37.33-.03.67-.06,1-.08-3.59.4-7.17.91-10.72,1.5,9.33-.92,17.84-1.3,26.35-1.16-1.76.41-3.5.83-5.23,1.27-4.62.45-9.33,1.09-14.24,1.96l-.57.12c-7.91.56-16.38,2.37-23.85,4.54,20.79-2.32,12.4-1.13-2.07.6-2.9.93-5.74,1.92-8.59,2.96-.15.02-.85.32-1.05.4.22-.06.93-.21,1.08-.28,3.63-.89,7.18-1.68,10.73-2.37-.8.24-1.6.49-2.39.73-8.15,3.86-9.2,4.25-1.06.29-4.12,1.37-8.57,3.05-12.52,4.99-.2.09-.41.17-.61.27l-.15.11-.57.29c-.56.34-.66.48-.42.47-.69.53-.36.36.27-.05,1.7-.4,8.42-3.1,8.7-3.21,3.38-1.49,6.81-2.88,10.27-4.19,3.22-.6,6.46-1.13,9.81-1.62,0,0,3.89-.89,7.37-1.66.99.13,2.65.19,4.81.19-1.3.45-2.59.92-3.9,1.41,2.19-.52,4.34-.99,6.45-1.42,2.34-.02,5.08-.09,8.05-.16-3.51.77-7.02,1.65-10.55,2.67-.32.11-1.69.5-1.92.63-1.27.47-1.88.75-1.9.87-6.11.75-12.12,1.81-18.31,3.22,2.49-1.05,5.01-2.04,7.54-2.99-2.79,1.02-5.51,2.06-8.15,3.13-3.39.78-6.84,1.66-10.4,2.64-13.29,4.03-25.12,8.59-37.03,14.87,2.11-1.74,3.83-3.29,2.19-2.39-2.29,1.44-4.58,3.13-6.8,4.91-.6.34-1.21.68-1.81,1.03.39-.18.79-.36,1.18-.53-.72.57-1.43,1.17-2.12,1.76-.85.51-1.7,1.02-2.55,1.53-1.17.58-2.35,1.13-3.51,1.73,2.7-2.49,5.46-4.89,8.28-7.22-1.93,1.38-3.86,2.79-5.74,4.24-1.35,1.35-2.49,2.5-3.41,3.41l-.24.13-.18.11,2.64-2.73c-1.76,1.41-3.6,2.92-5.39,4.5-5.07,3.39-10.13,7.38-14.75,11.12-1.12.92-2.23,1.85-3.35,2.75-.53.44-1.22,1.04-2,1.75,3.95-4.75,7.4-8.87,8.92-10.37,4.06-3.87,8.08-7.48,12.4-11.04,6.78-5.7,13.22-10.6,19.81-15.01,3.69-1.68,7.43-3.25,11.22-4.71l.34-.15c-5.02,3.03-6.54,3.9-.34.15-3.32,1.72-6.84,3.71-9.95,5.78-2.03,1.44,5.72-3.1,6.04-3.27,1.9-1.14,3.83-2.24,5.77-3.31,3.36-1.47,9.83-4.35,6.87-3.64-5.02,1.57-10.32,3.94-15.02,6.3,9.31-3.21,8.21-2.71-1.04.6-.79.41-1.58.83-2.37,1.25,9.13-5.97,18.62-11.03,29.77-16,3.55-1.53,7.06-2.93,10.7-4.27,1.82-.69,3.66-1.35,5.51-1.98-1.26.63-2.41,1.43-3.36,2.21-.32.31-.16.38.32.29-3.23,1.06-6.41,2.24-9.53,3.57-2.51,1.13-.87.64.49.22l1.82-.57.97-.32-.89.35c10.12-2.58,7.94-1.91-1.39.56-2.2.92-4.38,1.86-6.54,2.86,4.75-1.77,9.56-3.38,14.42-4.79.53-.19,14.07-4.41,10.77-4.01,5.18-1.53,10.4-2.84,15.68-3.94-3.22.51-6.44,1.09-9.63,1.76-4.88,1.52-8.62,2.67-10.7,3.29-.61.17-1.23.35-1.86.53-.03-.02,3.18-1.07,10.75-3.43-3.63.82-7.26,1.76-10.83,2.83,2.19-.79,4.69-1.77,5.85-2.19-1-.38-2.06-.44-3.11-.28,3.37-1.09,6.77-2.09,10.2-3-2.78.6-5.53,1.23-8.26,1.94-7,2.12-14.11,4.69-21.62,7.81-10.04,4.4-17.77,8.46-27.15,13.73-5.27,3.15-10.16,6.39-14.84,9.81l.58-.47s5.21-4.45,7.89-6.59l1.46-1.17,1.42-1.15c.48-.39,1.14-.93,1.41-1.19-.82.47-1.62.96-2.43,1.43-6.49,4.42-12.64,9.61-18.27,15.05,15.6-12.74,8.46-6.72-1.45,1.41l-.07.07c-4.35,3.61-8.59,7.46-12.91,11.61-.67.67-1.34,1.35-1.99,2.02.79-1.05,1.12-1.57.32-.75-1.2,1.32-2.37,2.7-3.52,4.11-5.58,5.96-10.58,11.98-15.32,18.65-11.57,11.85-21.96,23.24-2.23,3.22-.5.75-1,1.51-1.51,2.27-4.4,7.06,2.32-.92,10.06-10.29,2.37-2.11,4.77-4.15,7.25-6.18-.94,1.04-1.87,2.11-2.75,3.21-1.34,1.82,3.06-3.12,3.1-3.16l.95-1.09c1.42-1.15,2.88-2.29,4.38-3.43,6.09-4.58,12.04-8.66,18.52-12.65,1.78-1.01,3.57-2,5.38-2.95-1.47,1.1-2.92,2.23-4.37,3.38.23-.2.46-.4.69-.61-4.55,3.6-8.94,7.4-13.15,11.39-.3.6-2.3,2.32-2.9,2.89.02-.02.35-.44.35-.44-3.05,3.12-5.85,6.18-8.71,9.5.24-.37.49-.74.74-1.09-1.59,1.78-3.13,3.6-4.65,5.43-8.13,10.09-15.13,20.46-20.92,31.43l-.45.48c1.9-4.07,3.92-8.03,6.15-12.08.1-.12.4-.73.5-.91-.12.17-.54.71-.6.84-.49.7-.98,1.4-1.46,2.1l1.17-2.16c-.67,1.04-1.33,2.09-1.99,3.15l-.57,1.04-1.08,1.62c.54-.89,1.09-1.78,1.64-2.66l.92-1.68c-1.56,2.45-3.02,4.91-4.42,7.39l.07-.19c-1.64,2.71-3.25,5.6-4.76,8.59-.5.63-.99,1.28-1.47,1.94-2.37,3.88-4.53,7.41-6.5,10.63.8-2.36,1.66-4.75,2.58-7.19-1.37,3.02-2.66,6.07-3.88,9.16.1-.29.21-.58.31-.88l-.59,1.51c-15.94,26.19-17.72,29.67-12.63,22.99-.09.4-.18.82-.25,1.25.12-.45.23-.91.34-1.38,1.89-2.48,4.68-6.31,8.03-10.87-.24.75-.39,1.53-.41,2.29l-.19.63c.04.66-.83,3.15-1.06,3.95,0-.02.08-.55.08-.55-1.08,4.22-1.98,8.28-2.79,12.58.02-.45.05-.88.09-1.32-.49,2.34-.91,4.68-1.31,7.04-4.11,26.33-3.49,51.27,3.9,76.99.1.33.49,1.69.63,1.92.99,2.72,1.14,2.41.75-.2-3.05-18.19-4.95-32.96-4.39-50.85l.18,3.2c0,2.92.08,5.87.22,8.86-.02.24,0,.64.06,1.19.33,6.37.96,12.95,1.89,19.93,1.37,9.01,3.03,16.46,4.86,24.7l-.27-.92c.41,1.98.86,3.97,1.33,5.94l.15.38.34,1.25-.21-.53c.83,3.1,1.82,6.42,2.97,9.61,2.99,9.02,6.56,17.42,10.9,26.03-7.28-11.66-13.32-24.06-18.06-36.98,6.36,17.59,13.41,31.92,23.29,46.67,6.1,10.36,12.59,19.62,20.91,28.51,2.7,2.69,2.88,2.18,1.63-.15,2.39,2.63,4.85,5.28,7.44,8.13,11.65,11.62,23.18,20.33,37.26,28.95.59.34,1.17.68,1.76,1.01,6.54,4.26,13.88,8.33,21.01,11.01,1.98.66,1.81.35,1.07-.19,3.6,1.43,7.28,2.73,11.12,3.9,6.3,1.68,1.54-1.06-6.2-4.96,13.89,5.61,26.62,9.23,40.35,11.4-4.94-.45-9.64-1.06-14.25-1.84-3.23-.84-6.44-1.77-9.63-2.77,1.49.61,2.98,1.2,4.47,1.77l1.99.44c-7.35-1.39-14.61-3.24-22.52-5.71,15.69,6.07,28.95,9.49,45.62,11.75,2.18.27,4.36.5,6.55.71-.59,0-1.18-.02-1.78,0,8.1.73,16.25.93,24.37.61.35-.08.71-.11,1.05-.19,3.98-.25,7.78-.6,11.48-1.04l1.28.05c5.63-.79,5.44-.71.59.02,2.65.03,5.66,0,8.27-.36,1.81-.37-2.06-.35-3.88-.32,1.35-.1,2.72-.2,4.11-.32,14.41-1.64,26.74-4.21,38.92-8.22,4.74-1.02,9.79-2.36,14.23-4.05,2.15-1-1.53-.16-4.94.7,6.12-2.39,12.33-5.17,18.85-8.42.1-.08.63-.33.79-.41.67-.59,1.39-1.14,2.1-1.68-1.13.41-2.24.84-3.35,1.29-3.63,1.51-6.89,3.35-10.43,5.02,0,0,2.54-1.94,3.79-2.92-.61-.02-3.85,2.46-4.53,2.99-2.68,1.21-5.4,2.36-8.14,3.46,1.23-.63,2.45-1.28,3.66-1.94-2.03.81-4.06,1.59-6.11,2.32,4.05-2.28,5.05-3.09-.25-1.2,5.51-3.99,9.79-6.7.16-.49.12,0,.24-.02.36-.03-.44.21-.89.41-1.34.62.11-.02.33-.08.33-.08-.9.31.02.02.35-.03-.29.09-.58.17-.88.24-1.68,1.04-5.8,2.11-7.85,2.68.35-.15,2.81-1.02,1.28-.81-1.18.41-2.36.82-3.55,1.21-.07,0-1.41.24-2.79.44,2.74-1.06,5.43-2.18,8.09-3.39,1.17-.19,2.16-.32,2.56-.38,3.16-1.26,7.89-3.22,4.96-2.37-.69.11-1.38.2-2.07.3-.02,0,.02-.02.07-.06,2.07-.92,4.1-1.84,6.08-2.78,1.95-.79,3.91-1.44,5.11-1.52.3-.15.57-.36.88-.51,2.87-1.34,5.37-2.95,8.06-4.6.28-.25,1.78-1.07,2.19-1.3,2.99-1.6,5.94-3.28,8.89-4.94,2.86-2.24,5.64-4.55,8.34-6.95.27-.39.54-.78.8-1.17l-.3.17c2.98-2.33,5.93-4.79,8.89-7.4,2.26-1.52,4.43-3.07,6.53-4.68-1.52,1.45-3.82,3.62-5.27,4.93l-1.31,1.17-1.29,1.18c-.96.88-2.1,1.96-.05.48,5.66-4.25,10.91-9.14,15.78-14.3l.41-.38c7.55-6.19,14.32-12.67,21.09-20.18,5.88-8.97,14.98-21.92,16.93-25.5,2.57-4.92,4.94-9.79,7.15-14.9,4.02-8.41,7.26-16.23,9.94-24.12-.3-.18-.59-.37-.89-.55Zm-5.74-62.92l.02.4s-.02.32-.04.66c.01-.35.01-.71.02-1.06Zm3,30.2c-.67-3.14-.69-2.86-.02.84v.2c-.22-.99-.44-1.98-.67-2.96.03-.92.14-6.37.59-6.68l-.13-1.2c.07-.53.12-1.36.17-2.54.15,4.24.16,8.29.06,12.34Zm13.59-18.56c0,1.47-.03,2.94-.08,4.41-.07-1.2-.13-2.41-.21-3.64l.29-.77Zm-110.32-53.66c-2.63-6.76-1.32-5.44-8.07-8.07,6.75-2.62,5.43-1.31,8.07-8.07,2.62,6.75,1.31,5.44,8.07,8.07-6.76,2.62-5.44,1.31-8.07,8.07Zm56.24,47.75c-4.51-11.61-2.26-9.35-13.86-13.87,11.61-4.52,9.35-2.26,13.86-13.87,4.51,11.61,2.26,9.35,13.87,13.87-11.61,4.51-9.35,2.26-13.87,13.87Zm-17.49-75.26c11.29-4.39,9.1-2.2,13.49-13.49,4.39,11.28,2.2,9.1,13.49,13.49-11.29,4.39-9.1,2.19-13.49,13.49-4.39-11.29-2.19-9.1-13.49-13.49Zm50.82,36.15l.1.49c-1.05-2.1-2.38-4.48-2-2.26-.22-.63-.49-1.21-.8-1.76.4.49.47.27.13-.93-.25-.71-.59-1.64-1-2.69l.54.71c1.05,2.12,2.06,4.27,3.03,6.43Zm-106.39-133.72c5.23,1.64,10.3,3.54,15.34,5.97.94.48,1.53.81,1.87,1.04,5.4,2.58,10.48,5.34,15.73,8.64,9.88,6.52,5.53,4.84-1.94,1.29,14.01,8.33,23.67,16.2,34.8,28.54l.16.17c2.59,2.39,5.12,4.88,7.6,7.49,3.25,2.88,6.61,5.53,10.14,8.25,1.18,1.57,2.34,3.17,3.48,4.77-.39-.36-.77-.71-1.14-1.04-.15-.08-2.59-2.06-5.39-4.08,2.32,2.76,4.63,5.65,6.94,8.7,5.04,6.97,9.15,13.51,12.89,21.27,1.74,3.92,2.43,6,2.35,6.77-.55-1.04-1.13-2.08-1.71-3.14-.84-1.47-1.71-2.93-2.59-4.39.34.62.96,1.9.96,1.9-1.25-1.67-1.33-1.75.13.22.18.42.37.84.56,1.26-.54-.88-1.09-1.77-1.65-2.65-.06-.11-1.56-3.17-.65-1.8-.04-.07-2.23-4.07-1.4-2.23-.89-1.32-1.17-1.6.02.14.17.33.35.67.51,1-.77-1.24-1.47-2.37-2.07-3.73-1.3-2.05-2.63-4.07-3.99-6.08.88,1.73,1.73,3.5,2.47,5.29.87,1.45,2.43,4.52,2.43,4.52-2.09-3.49-2.53-3.42.26.42.41.82.82,1.64,1.21,2.47-1.04-1.74-2.11-3.47-3.21-5.18-1.25-2.41-2.54-4.79-3.9-7.15-.83-1.46-1.64-2.94-2.44-4.42-2.6-2.77-5.16-5.79-7.29-8.94-7.93-11.14-17.61-20.95-27.77-30.05-.15-.08-1-.92-1.2-1.11-.62-.43,1.09,1.26,1.09,1.26,0,0,12.28,12.64,6.5,10.84.26.57-.3,0-.4-.12-.49-.1-.99-.27-1.47-.41.48.53.95,1.07,1.42,1.6.04-.24.08-.46.12-.7,1.35,1.2,3.54,2.85,4.57,4.24-.08-.15-.17-.31-.25-.46.67.75,1.33,1.5,1.98,2.26,2.26,3.03.21,1.04-1.25-1.04.45.4.75.67.93.84-.3-.29-.83-.83-1.18-1.3.42.99-2.88-.51-3.02-.57.58.76,1.03,1.38,1.39,1.87-.93-.81-1.86-1.6-2.8-2.38l-.15-.17-.13-.07-.49-.4c-.41-1.27-1.7-2.4-3.29-3.24-3.16-3.11-6.5-6.2-10.07-9.33-2.56-2.1-5.1-4.1-7.62-6.01,2.65,1.67,5.01,3.03,3.43,1.58-4.16-3.4-9.3-6.66-13.97-9.35l2.07,1.57-2.25-1.61-.65-.39-.24-.18-.69-.37-.03-.02c-1.08-.64-2.15-1.26-3.24-1.87.52.32,1.03.64,1.55.96l-.52-.28c-1.57-1.04-3.16-2.08-4.79-3.1,3.09,1.63,6.21,3.22,4.44,2.05-1.31-.81-2.66-1.6-4.05-2.37-.17-.15-.65-.47-1.49-1-.18-.17-1.31-.8-1.59-.97l-.18-.11c1.71.68,1.66.42-.56-1.14-.09-.1-.44-.32-.82-.56,6.36,2.72,12.22,5.58,18.29,8.92.11.1.72.4.9.5-.16-.12-.71-.54-.84-.61-2.29-1.6-4.57-3.15-6.92-4.67-12.42-4.98-19.58-8.03-1.69-1.03-6.83-4.12-14.83-8.14-22.43-10.46-.43-.13-.75-.21-.97-.26-5.9-2.93-11.87-5.5-17.93-7.73,9.09,2.05,17.8,4.71,27.37,8.3-3.02-1.37-6.07-2.66-9.16-3.87.29.1.58.2.88.3-5.39-2.14-10.88-4.04-16.44-5.7-.66.04-3.15-.83-3.95-1.06.02,0,.55.08.55.08-4.22-1.09-8.28-1.98-12.58-2.79.44.02.88.05,1.32.09-2.34-.49-4.68-.91-7.04-1.31l-1.14-.17c-2.03-.49-4.07-.96-6.12-1.39,15.41,1.13,29.3,3.98,44.12,9.14Zm-186.11,20.4l.42-.18-.65.36.23-.18Zm-59.16,108.34c6.58,2.87,13.88-3,22.16-6.81-4.8.38-8.13.88-11.79.14,6.62.86,9.96-8.33,16.37-13.22,7.08-5.4,14.82-2.59,19.22,3.24l77.84-31.97-2.47-6.01c-.74-1.81.12-3.88,1.93-4.62,1.8-.73,3.87.14,4.6,1.93-.73-1.79.13-3.87,1.94-4.61,1.09-.46,2.29-.31,3.23.29-.85-2.87-1.58-5.78-2.18-8.72,14.65-4.7,43.11-14.58,69.26-27.38l8.03,19.53,8.03,19.55c-27.6,9.27-54.78,22.24-68.51,29.2-1.65-2.51-3.17-5.1-4.58-7.74-.25,1.08-1,2.03-2.09,2.48-1.8.74-3.88-.13-4.61-1.93.74,1.8-.13,3.88-1.93,4.62-1.81.74-3.87-.13-4.62-1.93l-2.47-6.02-77.89,31.99c.5,4.34-.7,8.95-4.42,12.81-10.47,10.87-39.19,10.03-47.06,2.13,3.04,1.41,9.48-.03,17.6-3.94-7.08,2.83-13.52-.5-15.57-3.01Z"/>
    <path class="first-color" d="m258.51,414.09c10.22-.29,44.36-13.46,54.66-17.52-6.31-2.96-12.43-5.83-18-8.45-.17.22-.4.4-.68.5-1.43.51-31.89,11.41-41.85,14.41-.02.42-.14.86-.38,1.27-1.35,2.31-6.04,4.1-10.74,5.21,3.37,2.37,8.83,4.79,17,4.56Z"/>
    <path class="first-color" d="m256.73,187.85c.05-.25.09-.49.13-.75-2.56,2.44-4.6,4.53-.13.75Z"/>
    <path class="first-color" d="m548.33,412.67c-.76-.47-1.55-.97-2.37-1.48-.91,3.14-1.86,6.27-2.92,9.38-1.4,4.05-2.92,8-4.36,12.03-1.03,2.92-.88,3.12.7.29.17-.21.73-1.36.89-1.68,1.09-2.19,2.07-4.09,2.94-5.73-1.77,6.54-3.67,12.55-5.87,18.47,4.47-10.03,8.15-20.48,10.98-31.28Z"/>
    <path class="first-color" d="m422.23,539.3s-.07,0-.19.03c-1.15.46-2.09.82-2.38.93.91-.3,2.58-.95,2.58-.95Z"/>
    <path class="first-color" d="m183.37,393.03c2.31,1.91,6.45,4.4,13.04,5.45,12,1.91,27.21-1.97,37.26-4.54,2.96-.76,5.52-1.41,7.32-1.73,6.17-1.09,33.57-7.1,43.24-9.22-8.09-3.82-13.59-6.44-14.4-6.89-1.06-.55-8.6-1.7-15.89-2.81-2.5-.38-5.2-.79-7.99-1.23-.12.08-.25.16-.4.2-1.38.43-33.92,10.5-41.52,11.86-1.99.35-4.34.62-6.79.85-.07.36-.2.71-.41,1.06-1.61,2.73-8.79,4.45-15.46,5.07.55.64,1.21,1.3,1.99,1.95Z"/>
    <path class="first-color" d="m533.38,390.36c-1.06,3.5-1.96,6.29-2.56,8.02.44.27.89.53,1.33.8.07-.87.14-1.82.23-2.87.37-1.98.7-3.96,1.01-5.95Z"/>
    <path class="first-color" d="m298.23,177.35c2.56-.94,5.18-1.86,7.88-2.77-2.65.87-5.28,1.79-7.88,2.77Z"/>
    <path class="first-color" d="m537.83,336.29c0,.78.07,1.63.1,2.41,1.09,5.5,1.62,7.42-.1-2.41Z"/>
    <path class="first-color" d="m194.14,246.7c.89-1.21,1.77-2.42,2.69-3.61-.91,1.19-1.81,2.4-2.69,3.61Z"/>
    <path class="first-color" d="m188.46,254.77l-.53.98c1.99-3.07,4.06-6.09,6.21-9.05-1.95,2.65-3.86,5.33-5.68,8.08Z"/>
  </g>
  <g>
    <path class="cls-2-e06tt second-color" d="m183.55,113.28c.37.14.79.39,1.26.75.47.36.95.76,1.45,1.21.49.45.98.93,1.47,1.43.48.5.95.97,1.39,1.42l1.01,1.15.04-.03c2.39,2.4,4.74,4.87,7.03,7.4,2.29,2.54,4.58,5.09,6.88,7.67,2.3,2.58,4.62,5.13,6.98,7.67,2.36,2.54,4.81,4.99,7.37,7.37-.94-3.99-1.96-7.96-3.07-11.91-1.11-3.94-2.22-7.89-3.36-11.84-1.13-3.95-2.22-7.94-3.25-11.98-1.04-4.04-1.97-8.16-2.79-12.37-.35-2.01-.56-4.05-.63-6.11-.07-2.06.04-4.03.34-5.92.29-1.89.82-3.65,1.59-5.27.77-1.62,1.84-3.01,3.21-4.15,1.06-.7,2.36-1.33,3.89-1.9s3.15-.87,4.85-.91c.59.34.94.69,1.04,1.06.1.37-.11.87-.64,1.51-1.67.28-3.06.82-4.19,1.61-.62.44-1.24,1.05-1.84,1.83-.59.86-1.04,1.84-1.33,2.93-.3,1.1-.49,2.27-.58,3.53-.09,1.26-.09,2.56,0,3.89s.25,2.66.46,3.97c.34,2.38.88,5.08,1.63,8.1.75,3.02,1.57,6.17,2.47,9.44.9,3.27,1.85,6.58,2.84,9.92.99,3.34,1.91,6.54,2.75,9.61.84,3.07,1.59,5.89,2.23,8.48.64,2.59,1.07,4.74,1.29,6.44.18,1.2.15,2.43-.08,3.68-.23,1.25-.87,2.24-1.91,2.97-.77.54-1.62.89-2.53,1.04-.52.01-.92-.11-1.19-.36-.1-.02-.23-.07-.38-.17-.15-.09-.25-.17-.29-.23-2.45-1.91-4.82-4.04-7.11-6.39-2.29-2.34-4.55-4.79-6.79-7.35-2.24-2.55-4.48-5.15-6.73-7.79-2.25-2.63-4.57-5.22-6.97-7.75.41,1.22.82,2.46,1.22,3.73.4,1.27.79,2.55,1.16,3.84.3.94.6,1.9.88,2.87.29.98.59,1.95.92,2.92l1.15,3.72c.88,2.58,1.75,5.32,2.62,8.24s1.66,5.72,2.36,8.43c1.01,3.9,1.85,7.88,2.52,11.94.67,4.05,1.03,8.08,1.07,12.09.04,4.01-.3,7.93-1.02,11.76-.72,3.83-1.99,7.47-3.79,10.91-.94,1.76-2.11,3.44-3.52,5.03-1.41,1.59-2.96,2.98-4.66,4.17-2.11,1.48-4.34,2.6-6.7,3.35-2.69.9-5.3,1.29-7.83,1.17-2.53-.12-4.92-.68-7.16-1.67-2.25-.99-4.33-2.39-6.24-4.2-1.91-1.81-3.58-3.94-5-6.41-.42-.73-.84-1.54-1.25-2.45-.41-.91-.81-1.94-1.18-3.1l.03.04c-.99-2.68-1.63-5.47-1.93-8.39s-.21-5.75.26-8.5c.47-2.75,1.32-5.34,2.56-7.78,1.24-2.44,2.88-4.54,4.93-6.29,2.06-1.62,4.11-2.54,6.15-2.75,2.04-.21,4,.06,5.87.83,1.87.77,3.62,1.96,5.26,3.56,1.63,1.6,3.04,3.43,4.22,5.49.23.46.49.95.76,1.46.27.52.53,1,.76,1.46.01.08.06.18.14.3.08.12.13.22.14.3.19.4.39.88.59,1.45.2.57.34,1.12.43,1.66.09.54.08,1.02-.02,1.44s-.38.69-.84.79c-.3.08-.55.09-.75.03s-.36-.17-.49-.32c-.13-.15-.23-.34-.29-.56-.07-.22-.13-.44-.2-.66l-.17-.81.03.04c-.17-.5-.43-1.09-.78-1.78-.35-.69-.78-1.49-1.3-2.42-.77-1.28-1.63-2.49-2.59-3.64-.96-1.14-1.96-2.08-3.01-2.81-1.04-.73-2.1-1.2-3.18-1.4-1.07-.2-2.12.01-3.14.64-1.23.46-2.3,1.56-3.21,3.29-.91,1.73-1.64,3.79-2.18,6.19-.54,2.4-.84,4.99-.92,7.79-.07,2.8.13,5.52.6,8.16.32,1.28.75,2.62,1.29,4.02.54,1.4,1.1,2.62,1.7,3.66,1,1.74,2.16,3.26,3.48,4.58s2.72,2.35,4.18,3.12,2.95,1.23,4.45,1.4c1.49.17,2.93-.03,4.31-.59h-.08s1.25-.89,1.25-.89c2.38-1.67,4.26-3.76,5.64-6.28,1.38-2.52,2.38-5.3,3-8.33.62-3.03.92-6.22.9-9.57-.02-3.35-.22-6.68-.59-9.99-.37-3.31-.88-6.51-1.52-9.61-.64-3.09-1.28-5.91-1.9-8.44-1.3-4.94-2.76-9.87-4.38-14.78s-3.22-9.58-4.79-14.03l-.83-2.41c-.15-.47-.3-.94-.46-1.41-.15-.47-.32-.93-.5-1.38-.57-1.82-1.11-3.4-1.63-4.74s-.95-2.35-1.3-3.04c-.29-.54-.62-1.01-.97-1.38-.35-.37-.67-.66-.94-.87-.3-.23-.52-.42-.66-.57-.14-.14-.24-.24-.28-.3-.23-.46-.2-.92.09-1.39.29-.47.74-.9,1.36-1.29,1.5-1.14,2.93-1.94,4.29-2.38,1.35-.44,2.62-.43,3.78.04Z"/>
    <path class="cls-2-e06tt second-color" d="m256.33,115.5c-.03.13-.19.3-.48.52-.29.22-.5.35-.64.4-.41.15-.84.07-1.3-.23,0-.42-.03-.81-.1-1.15-.07-.34-.13-.71-.2-1.12-.27-.87-.66-1.74-1.15-2.62s-1.08-1.63-1.76-2.23c-.68-.6-1.43-1.04-2.26-1.3-.83-.26-1.7-.23-2.62.11-1.2.43-2.24,1.34-3.13,2.72-.89,1.38-1.63,3.02-2.23,4.91-.59,1.89-1.05,3.94-1.38,6.14-.33,2.2-.55,4.35-.66,6.46-.11,2.11-.12,4.05-.02,5.82.1,1.78.29,3.17.58,4.19.14.49.31,1.01.53,1.55.21.54.49,1.01.83,1.41.34.4.73.68,1.17.85.45.17.98.14,1.59-.08,1.06-.38,1.98-1.32,2.78-2.82s1.47-3.22,2.02-5.16,1.01-3.92,1.36-5.96c.35-2.03.62-3.8.82-5.3-.03-.41-.03-.92,0-1.51.04-.59-.09-1.18-.38-1.77-.24-.45-.17-.84.22-1.15.39-.31.83-.58,1.33-.8,2.08-.55,3.66-.59,4.74-.11,1.08.48,1.86,1.23,2.34,2.25.5,1.06.81,2.28.94,3.66.13,1.38.31,2.65.53,3.8.05.25.13.67.24,1.24.11.58.25,1.2.41,1.88.17.67.35,1.35.56,2.03.21.68.43,1.23.68,1.64.24.41.5.65.77.71.27.06.56-.18.87-.72.53-1.12,1.01-2.5,1.46-4.14.45-1.65.86-3.38,1.23-5.19.37-1.81.7-3.63.99-5.45.29-1.82.55-3.49.78-5,.08-.95.19-1.87.31-2.75.13-.88.24-1.6.35-2.18.2-.19.44-.33.71-.43.31-.11.59-.11.84.01.25.12.5.29.74.52l-.11,1.31c-.13,1.13-.29,2.44-.47,3.93s-.38,3.07-.61,4.73c-.23,1.67-.51,3.37-.83,5.1s-.67,3.4-1.04,5c-.37,1.6-.8,3.09-1.28,4.48s-1,2.55-1.56,3.48c-.47.83-1.12,1.6-1.94,2.32-.82.72-1.69,1.25-2.62,1.58-1.23.44-2.34.35-3.34-.28-1-.62-1.88-1.49-2.64-2.58s-1.39-2.29-1.89-3.57c-.5-1.29-.84-2.38-1.01-3.28-.02-.07-.04-.11-.05-.13,0-.02-.04-.15-.09-.4-.37,1.87-.85,3.73-1.44,5.58-.59,1.85-1.3,3.56-2.15,5.14s-1.82,2.96-2.93,4.15c-1.11,1.19-2.39,2.05-3.82,2.56-1.33.48-2.55.64-3.64.5-1.09-.15-2.06-.51-2.88-1.1-.83-.59-1.55-1.37-2.17-2.34-.62-.97-1.14-2.04-1.56-3.2-.07-.21-.16-.44-.26-.72-.1-.27-.17-.54-.23-.79-.41-1.78-.66-3.83-.74-6.16-.08-2.32.01-4.74.29-7.25s.73-5.02,1.37-7.53c.64-2.51,1.5-4.83,2.56-6.97,1.06-2.14,2.33-4,3.8-5.59,1.47-1.59,3.18-2.74,5.13-3.44,1.5-.54,2.96-.66,4.38-.36,1.42.3,2.73.88,3.93,1.74,1.2.86,2.23,1.94,3.1,3.23.87,1.29,1.51,2.67,1.92,4.14.25,1.03.38,2.02.38,2.99l-.03.07Z"/>
    <path class="cls-2-e06tt second-color" d="m309.11,92.85c0-.48-.14-.75-.41-.82-.04,0-.07,0-.11,0-.04-.01-.09-.01-.17,0-.82.13-1.69.8-2.6,2-.91,1.2-1.82,2.67-2.72,4.42s-1.79,3.65-2.65,5.71c-.86,2.05-1.65,4.01-2.38,5.85-.58,1.38-1.1,2.63-1.57,3.73-.46,1.11-.89,2.04-1.28,2.8l.04-.06c-.3,1.74-.52,3.4-.64,4.99-.13,1.59-.16,3.03-.09,4.35.08.94.27,1.88.57,2.8.3.93.73,1.78,1.3,2.57.05.07.09.14.12.23.03.09.04.22.04.41.04.47-.33.77-1.12.9-1.29.21-2.41.18-3.35-.08-.95-.27-1.75-.72-2.41-1.37-.66-.65-1.18-1.43-1.57-2.36-.39-.93-.68-1.95-.86-3.06-.04-.25-.09-.53-.14-.83s-.08-.58-.08-.84c-.09-1.46-.07-3.03.08-4.71.15-1.68.33-3.38.57-5.12.23-1.73.51-3.44.84-5.13.33-1.69.65-3.28.96-4.76.43-2.06.8-3.89,1.08-5.5.29-1.61.4-2.8.35-3.56-.07-.65-.28-.95-.64-.89-.64.11-1.33.58-2.06,1.41-.73.84-1.46,1.9-2.21,3.18-.75,1.28-1.49,2.7-2.23,4.26-.74,1.56-1.44,3.12-2.1,4.68-.66,1.56-1.26,3.03-1.79,4.41s-.98,2.51-1.34,3.42v-.05s-.68,1.65-.68,1.65h.05c-.3,1.51-.51,3.26-.63,5.23-.12,1.97-.13,3.81-.03,5.52.13,1.27.34,2.34.61,3.21.27.88.52,1.55.75,2.03.16.31.26.58.3.83-.03.48-.42.79-1.17.91-1.29.21-2.4.13-3.33-.25-.93-.38-1.7-.95-2.32-1.71-.62-.76-1.12-1.67-1.49-2.71-.37-1.04-.65-2.12-.83-3.23-.06-.36-.11-.72-.15-1.08-.04-.36-.08-.74-.1-1.14-.19-2.47-.21-5.02-.07-7.63.14-2.62.32-5.14.55-7.57.15-2.01.28-3.93.41-5.75.12-1.82.13-3.39.03-4.7-.06-.58-.15-1.08-.27-1.5-.12-.42-.25-.8-.38-1.15-.07-.17-.12-.33-.16-.47-.04-.14-.08-.3-.11-.48,0-.48.17-.84.51-1.08.35-.24.77-.4,1.27-.48,1.36-.22,2.5-.18,3.42.13.92.31,1.66.79,2.22,1.43.57.64.98,1.39,1.25,2.25.27.86.44,1.74.52,2.65.09.98.1,1.98.05,3-.05,1.02-.13,1.98-.24,2.88-.04.63-.08,1.06-.12,1.29-.04.23-.05.58-.05,1.06.37-.69.71-1.42,1.04-2.21.33-.79.68-1.6,1.06-2.44.72-1.66,1.47-3.34,2.26-5.04s1.65-3.24,2.58-4.64,1.96-2.59,3.08-3.57c1.13-.97,2.41-1.58,3.84-1.82,1-.17,1.87-.11,2.59.15.72.27,1.33.68,1.81,1.25.48.57.85,1.24,1.11,2.03.26.79.44,1.61.54,2.48.1,1.27.07,2.68-.08,4.21-.15,1.53-.37,3.1-.67,4.69.13-.32.26-.6.38-.86s.25-.55.38-.86c.75-1.71,1.52-3.43,2.32-5.18.8-1.75,1.68-3.35,2.63-4.79s2.02-2.68,3.17-3.7c1.16-1.02,2.47-1.65,3.94-1.89.97-.16,1.8-.12,2.5.11.7.24,1.28.63,1.74,1.18.46.55.82,1.22,1.07,2s.43,1.67.52,2.65c.16,2.07.07,4.41-.25,7.02-.33,2.61-.75,5.23-1.28,7.85-.44,2.46-.82,4.85-1.15,7.14-.32,2.3-.42,4.26-.3,5.9.02.37.07.78.15,1.25.08.47.19.91.36,1.32.16.42.35.75.58,1.01.23.26.5.36.82.31.54-.09,1.14-.64,1.8-1.65s1.36-2.27,2.08-3.79,1.44-3.18,2.13-4.99c.7-1.81,1.35-3.55,1.96-5.23.61-1.68,1.13-3.19,1.57-4.54.44-1.34.76-2.31.96-2.89-.02-.11.02-.22.11-.35l.11-.35h-.05c.12-.38.24-.69.37-.93s.38-.39.78-.46c.32-.05.61,0,.85.16.25.16.47.37.66.64l-1.08,3.49c-.48,1.55-1.01,3.23-1.6,5.04-.59,1.81-1.22,3.63-1.92,5.47-.69,1.84-1.44,3.64-2.23,5.39-.8,1.75-1.64,3.31-2.51,4.69-.88,1.38-1.82,2.53-2.83,3.45-1.01.92-2.05,1.47-3.12,1.64-2.44.4-4.26,0-5.46-1.17s-1.98-2.83-2.33-4.94c-.04-.25-.08-.53-.11-.84-.03-.31-.05-.61-.07-.9-.09-1.42-.05-2.96.1-4.62s.34-3.35.58-5.06c.23-1.71.52-3.41.84-5.11.33-1.69.65-3.28.96-4.76.4-2.05.75-3.88,1.06-5.47.31-1.6.44-2.78.38-3.54Z"/>
    <path class="cls-2-e06tt second-color" d="m354.87,112.81c-.95,1.76-2.01,3.6-3.18,5.52s-2.51,3.68-4.03,5.27c-1.52,1.59-3.26,2.9-5.22,3.95-1.96,1.05-4.21,1.59-6.75,1.63-1.89.03-3.5-.34-4.84-1.12-1.34-.78-2.43-1.82-3.26-3.13-.84-1.31-1.45-2.83-1.84-4.54-.39-1.72-.6-3.52-.63-5.41,0-.47-.01-.93-.02-1.39,0-.45.02-.93.09-1.44v.05c.15-2.04.48-4.1.99-6.2.51-2.1,1.18-4.14,2-6.13.82-1.99,1.78-3.86,2.88-5.6,1.1-1.74,2.32-3.28,3.66-4.61,1.34-1.33,2.78-2.38,4.31-3.15s3.13-1.17,4.8-1.19c1.6-.03,3.03.3,4.29.97,1.26.67,2.33,1.55,3.2,2.65.87,1.09,1.53,2.34,1.97,3.73.44,1.39.63,2.81.58,4.27-.19,2.04-.88,3.92-2.09,5.64s-2.67,3.26-4.39,4.59c-1.72,1.33-3.58,2.45-5.58,3.36-2,.9-3.92,1.57-5.77,2-.14.62-.24,1.26-.32,1.91s-.15,1.35-.21,2.07c-.03.29-.04.59-.04.9s0,.61.01.9c.01.8.09,1.57.23,2.31s.38,1.41.71,2,.8,1.08,1.38,1.45c.59.37,1.32.59,2.19.65,1.38-.06,2.68-.51,3.9-1.37,1.22-.85,2.36-1.9,3.41-3.13,1.05-1.23,2.01-2.55,2.88-3.97.87-1.41,1.64-2.7,2.31-3.88v.05c.85-1.54,1.63-3.05,2.35-4.53.72-1.48,1.38-2.83,1.98-4.03.28-.55.6-1.17.95-1.87s.67-1.3.95-1.81c.43-.19.7-.28.81-.29.33,0,.59.09.79.29.2.2.38.44.53.73l-.53,1.21c-.63,1.35-1.42,2.97-2.35,4.86-.93,1.89-1.96,3.83-3.09,5.85Zm-4.5-19.54c-.56-1.04-1.22-1.56-1.99-1.55-.69.01-1.44.35-2.24,1.02s-1.61,1.53-2.41,2.6c-.8,1.07-1.59,2.26-2.37,3.58-.78,1.32-1.47,2.64-2.09,3.96-.62,1.32-1.16,2.57-1.63,3.76-.47,1.19-.79,2.16-.96,2.93,1.23-.16,2.66-.59,4.28-1.27,1.62-.68,3.18-1.56,4.67-2.63,1.49-1.08,2.77-2.31,3.84-3.71,1.07-1.4,1.66-2.91,1.78-4.55.12-1.34-.17-2.72-.88-4.12Z"/>
    <path class="cls-2-e06tt second-color" d="m401.15,83.58c-.1-.44-.08-.88.05-1.32.13-.43.46-.65.99-.64.48.03.74.15.77.37.03.22.11.48.25.79.22.41.59.76,1.1,1.07s1.09.57,1.72.79c.63.23,1.25.4,1.86.53.61.12,1.11.22,1.5.3,4.56.97,9.39,1.49,14.51,1.55,5.11.06,10.38-.08,15.8-.42,5.42-.34,10.92-.77,16.49-1.3,5.57-.52,11.08-.89,16.52-1.12,5.44-.22,10.76-.17,15.94.16s10.1,1.16,14.74,2.5c1.81.54,3.49,1.26,5.04,2.18,1.55.91,2.89,2.02,4.04,3.33,1.15,1.31,2.07,2.81,2.78,4.52.71,1.71,1.14,3.61,1.32,5.7-.15,1.77-.61,3.5-1.37,5.19-.77,1.69-1.78,3.19-3.05,4.52-1.27,1.33-2.74,2.43-4.41,3.29-1.68.87-3.48,1.35-5.41,1.46-.73.05-1.47.02-2.22-.09-.75-.11-1.46-.27-2.16-.47-1.74-.52-3.23-1.32-4.48-2.41-1.25-1.09-2.25-2.33-3.02-3.71-.76-1.38-1.29-2.84-1.57-4.38-.28-1.54-.32-3.02-.13-4.44.56-.63,1.04-.87,1.44-.74.39.14.69.33.88.57-.1.73-.08,1.72.08,2.98.16,1.26.48,2.51.99,3.76s1.18,2.36,2.05,3.33,1.95,1.56,3.25,1.76c1.47.13,2.87-.12,4.17-.75s2.47-1.47,3.5-2.51c1.03-1.04,1.88-2.2,2.56-3.47.68-1.27,1.17-2.49,1.48-3.65.47-2.36.29-4.28-.54-5.76-.83-1.48-2.11-2.64-3.85-3.5-1.73-.86-3.83-1.45-6.29-1.78-2.46-.33-5.06-.53-7.81-.58-2.75-.06-5.54-.02-8.39.12-2.84.14-5.53.25-8.05.34-1.54.07-2.98.14-4.32.2-1.34.05-2.66.12-3.95.19s-2.62.13-3.97.18c-1.36.05-2.83.07-4.42.05-.79,2.27-1.55,4.32-2.29,6.17-.74,1.85-1.48,3.58-2.22,5.19-.75,1.62-1.5,3.15-2.25,4.62-.76,1.46-1.54,2.92-2.35,4.38-1.9,3.34-3.8,6.81-5.71,10.43-1.91,3.62-3.98,7.27-6.21,10.96-1.92,3.14-3.95,6.18-6.09,9.13-2.14,2.94-4.47,5.62-6.99,8.04-2.52,2.42-5.24,4.5-8.16,6.24-2.92,1.75-6.1,2.98-9.54,3.7-2.91.61-5.88.64-8.91.08-3.03-.56-5.89-1.63-8.56-3.22-2.59-1.6-4.69-3.56-6.29-5.87-1.61-2.31-2.72-4.81-3.34-7.5s-.74-5.49-.34-8.42c.4-2.93,1.28-5.82,2.66-8.67,1.11-2.32,2.5-4.46,4.17-6.4s3.54-3.58,5.6-4.9c2.06-1.32,4.25-2.26,6.57-2.82,2.33-.56,4.71-.63,7.16-.2,2.59.58,4.64,1.67,6.13,3.27,1.49,1.6,2.52,3.47,3.08,5.6.56,2.14.69,4.42.41,6.85-.29,2.43-.88,4.77-1.77,7-.13.3-.28.68-.45,1.14-.17.46-.39.9-.65,1.31s-.54.75-.86.99-.69.31-1.1.18c-.37-.15-.6-.34-.68-.57-.08-.23-.1-.47-.04-.72.05-.25.15-.51.29-.79s.25-.54.32-.79c.52-1.25.98-2.71,1.39-4.39.4-1.68.62-3.34.65-4.98.03-1.64-.18-3.14-.65-4.51-.47-1.37-1.31-2.37-2.52-2.99-1.1-.63-2.53-.79-4.29-.48-1.76.31-3.61.98-5.54,2.02-1.94,1.04-3.84,2.38-5.72,4.04-1.88,1.66-3.5,3.52-4.86,5.57-1.46,2.25-2.52,4.64-3.17,7.15-.65,2.51-.9,4.91-.74,7.19.16,2.28.71,4.31,1.66,6.09.95,1.78,2.29,3.06,4.03,3.84,2.77,1.01,5.47,1.32,8.1.93,2.63-.39,5.19-1.26,7.68-2.61s4.85-3.06,7.09-5.14c2.25-2.08,4.35-4.3,6.33-6.67,1.97-2.37,3.78-4.77,5.43-7.19,1.65-2.43,3.12-4.66,4.4-6.7,2.94-4.81,5.6-9.56,7.99-14.27s4.76-9.4,7.13-14.07c.84-1.57,1.51-2.91,1.99-4.04.48-1.12.84-2.01,1.08-2.66l.13-.64c-2.95.11-5.9.24-8.86.38-2.96.14-5.88.21-8.75.21-2.88,0-5.7-.16-8.47-.47-2.77-.31-5.43-.87-8-1.67-.83-.28-1.84-.65-3.05-1.1-1.21-.45-2.4-.99-3.58-1.6-1.18-.62-2.23-1.29-3.15-2.01-.92-.73-1.5-1.51-1.75-2.34Z"/>
    <path class="cls-2-e06tt second-color" d="m476.32,149.05c-1.67,1.1-3.48,2.21-5.42,3.36s-3.96,2.05-6.04,2.73c-2.09.68-4.25,1.01-6.47,1-2.22,0-4.46-.6-6.72-1.77-1.68-.87-2.92-1.96-3.73-3.28s-1.27-2.75-1.39-4.31c-.12-1.55.06-3.18.53-4.88.47-1.7,1.14-3.38,2.01-5.06.22-.42.43-.83.64-1.23.21-.4.46-.81.76-1.23l-.02.05c1.1-1.72,2.37-3.38,3.81-4.99,1.44-1.6,3-3.09,4.67-4.45,1.67-1.36,3.4-2.55,5.19-3.57,1.79-1.01,3.59-1.79,5.4-2.32,1.81-.54,3.57-.78,5.28-.73,1.71.05,3.31.46,4.79,1.23,1.42.74,2.52,1.7,3.32,2.89.79,1.19,1.32,2.47,1.56,3.85.25,1.38.24,2.78-.04,4.21-.27,1.43-.78,2.78-1.51,4.03-1.13,1.71-2.63,3.03-4.51,3.98-1.88.95-3.9,1.6-6.04,1.96-2.15.36-4.32.46-6.51.31-2.19-.15-4.2-.48-6.03-.98-.41.48-.81.99-1.19,1.53-.38.54-.77,1.11-1.17,1.72-.17.24-.32.5-.46.77-.14.28-.28.54-.41.8-.37.71-.67,1.42-.9,2.14-.23.72-.34,1.42-.32,2.1s.19,1.33.53,1.93c.34.61.88,1.14,1.62,1.61,1.24.6,2.6.82,4.08.64,1.48-.17,2.98-.55,4.49-1.14,1.51-.59,2.98-1.3,4.42-2.13,1.43-.83,2.72-1.6,3.87-2.32l-.03.05c1.47-.95,2.88-1.91,4.22-2.87,1.34-.96,2.55-1.83,3.65-2.62.51-.35,1.08-.75,1.72-1.19.64-.44,1.21-.83,1.7-1.14.47.04.75.08.85.13.29.15.48.36.56.63.08.27.12.57.12.89l-1.04.81c-1.2.89-2.66,1.95-4.37,3.16-1.71,1.22-3.55,2.45-5.5,3.68Zm5.3-19.34c0-1.19-.34-1.95-1.01-2.3-.61-.32-1.43-.37-2.46-.17-1.03.21-2.14.59-3.35,1.15-1.21.56-2.47,1.24-3.78,2.03-1.31.79-2.55,1.62-3.71,2.49-1.17.87-2.24,1.71-3.22,2.54-.98.82-1.72,1.53-2.23,2.12,1.16.44,2.62.74,4.37.92,1.75.17,3.54.14,5.36-.11,1.82-.24,3.53-.72,5.14-1.45,1.6-.72,2.84-1.78,3.72-3.16.75-1.13,1.14-2.48,1.18-4.05Z"/>
    <path class="cls-2-e06tt second-color" d="m485.61,143.64c-.22-.2-.39-.46-.52-.77-.06-.04-.14-.11-.23-.2-.09-.09-.15-.14-.18-.16l2.03-1.16c.85-.51,1.88-1.11,3.09-1.81,1.21-.7,2.5-1.39,3.87-2.06,1.37-.67,2.79-1.3,4.27-1.88,1.48-.58,2.92-1.01,4.33-1.3,1.41-.29,2.73-.4,3.97-.32s2.34.44,3.31,1.08c1.41.96,2.32,2.03,2.73,3.21.41,1.18.49,2.45.23,3.81s-.78,2.78-1.58,4.25c-.81,1.48-1.72,3.01-2.76,4.59l13.85-5.39c.23.12.45.26.68.41.22.16.39.33.5.52.11.19.15.42.12.68-.03.27-.18.58-.43.93l-2.26.93-15.17,5.93c-.31.49-.61.96-.89,1.4-.29.44-.58.92-.85,1.43-1.13,1.91-2.19,3.79-3.17,5.63s-1.72,3.51-2.24,4.99c-.52,1.48-.74,2.7-.67,3.67.07.96.59,1.52,1.55,1.67,1.23.03,2.7-.2,4.42-.67,1.72-.47,3.45-1.05,5.21-1.74,1.76-.69,3.46-1.41,5.1-2.15,1.64-.75,3.02-1.4,4.12-1.95l1.4-.74c.67-.32,1.38-.66,2.13-1.02.75-.36,1.49-.72,2.24-1.08.57.14,1.02.35,1.36.63.33.28.33.77-.03,1.45-.99.45-1.93.89-2.83,1.3s-1.75.84-2.55,1.29l-2.57,1.18c-2.58,1.24-5.21,2.46-7.91,3.66-2.7,1.2-5.46,2.13-8.29,2.79-1.58.35-3.12.52-4.62.53-1.5,0-2.88-.26-4.14-.8-1.26-.54-2.14-1.36-2.64-2.44-.5-1.09-.71-2.35-.64-3.8.07-1.44.35-3.02.86-4.73.5-1.71,1.13-3.44,1.88-5.18l-15.94,6.17-1.5.61-.2-.28c-.17-.08-.34-.15-.51-.23-.17-.08-.31-.2-.41-.36-.11-.17-.17-.38-.19-.63-.02-.26.06-.57.23-.94l20.15-7.86c.93-1.88,1.91-3.7,2.92-5.47s1.96-3.44,2.85-4.99c.88-1.56,1.66-2.92,2.33-4.09.67-1.17,1.08-2.06,1.21-2.68.18-.94.09-1.54-.26-1.79-.38-.27-.96-.35-1.74-.23-.77.12-1.65.36-2.61.72-.97.36-1.98.8-3.04,1.31-1.06.52-2.07,1.05-3.03,1.59-.96.54-1.85,1.05-2.65,1.52-.81.48-1.42.85-1.84,1.13l-.54.29c-.63-.05-1.06-.17-1.27-.37Z"/>
    <path class="cls-2-e06tt second-color" d="m550.6,156.79c-.69.65-1.48,1.3-2.36,1.97-.88.67-1.84,1.37-2.86,2.11,1.18,1.08,2.25,2.18,3.21,3.31.96,1.13,1.73,2.3,2.31,3.52.58,1.22.93,2.49,1.05,3.81s-.06,2.69-.54,4.13l-.04-.04c-.09.31-.34.5-.75.57-.41.07-.71-.11-.91-.54-.09-2.15-.77-4.17-2.03-6.04-1.26-1.87-2.83-3.67-4.7-5.39l-1-.92c-1.37.96-2.76,1.9-4.18,2.82-1.41.92-2.86,1.86-4.33,2.83l-3.56,2.35-.6.41c-.83.53-1.93,1.25-3.32,2.17-1.39.92-2.85,1.94-4.4,3.06-1.54,1.12-3.06,2.28-4.53,3.49-1.48,1.21-2.73,2.37-3.76,3.5-.71.78-1.27,1.51-1.68,2.19-.41.69-.55,1.28-.42,1.79.07.41.44.78,1.13,1.11.68.33,1.67.57,2.96.72,1.44.09,3.03-.01,4.77-.32,1.73-.31,3.5-.72,5.28-1.25,1.79-.53,3.53-1.11,5.22-1.75,1.69-.64,3.21-1.23,4.55-1.78l-.04-.04c1.06-.41,2.01-.75,2.85-1.05.83-.29,1.57-.49,2.21-.6.05,0,.21.12.48.37.43.39.5.93.22,1.61l-4.21,1.68.04.04c-2.5,1.01-5.17,2.03-8,3.08-2.83,1.05-5.59,1.87-8.28,2.46-2.69.59-5.18.83-7.49.71-2.31-.12-4.18-.84-5.62-2.17-2.38-2.18-3.5-4.29-3.36-6.33.14-2.04,1.18-4.11,3.12-6.22.27-.29.55-.58.83-.86.28-.28.59-.57.91-.87.91-.83,2.24-1.91,3.99-3.22,1.74-1.31,3.68-2.72,5.81-4.24,2.13-1.52,4.39-3.09,6.77-4.72,2.38-1.63,4.69-3.2,6.91-4.71l2.66-1.77c-.98-.75-1.91-1.48-2.79-2.19-.88-.71-1.71-1.42-2.48-2.13-1.63-1.5-2.88-3.01-3.74-4.54s-1.04-3.08-.55-4.64c.07-.18.17-.37.3-.57.13-.2.28-.33.45-.4.16-.07.34-.06.52.04.18.1.32.33.42.71v-.08c.48,1.08,1.14,2.13,1.96,3.13.83,1.01,1.75,1.97,2.77,2.91.96.88,2.04,1.78,3.22,2.7,1.18.91,2.34,1.79,3.49,2.64,1.92-1.34,3.6-2.53,5.03-3.55,1.43-1.02,2.43-1.79,3-2.31.44-.43.79-.82,1.03-1.16.24-.34.46-.67.65-.99.1-.16.19-.3.29-.44.1-.13.19-.25.29-.36.4-.33.79-.42,1.18-.28.39.14.77.38,1.15.72,1.04.96,1.73,1.88,2.07,2.78.33.9.43,1.76.29,2.59-.14.83-.48,1.61-1.02,2.36s-1.15,1.44-1.84,2.08Z"/>
  </g>
  <text class="cls-1-e06tt second-color" transform="translate(163.51 568.02) rotate(29.75)"><tspan x="0" y="0">N</tspan></text>
  <text class="cls-1-e06tt second-color" transform="translate(212.24 594.79) rotate(20.38)"><tspan x="0" y="0">a</tspan></text>
  <text class="cls-1-e06tt second-color" transform="translate(251.62 608.69) rotate(15.07)"><tspan x="0" y="0">i</tspan></text>
  <text class="cls-1-e06tt second-color" transform="translate(268.13 613.09) rotate(12.19)"><tspan x="0" y="0">l</tspan></text>
  <text class="cls-1-e06tt second-color" transform="translate(285.59 617.14) rotate(7.77)"><tspan x="0" y="0">s</tspan></text>
  <text class="cls-1-e06tt second-color" transform="translate(322.63 621.79) rotate(3.38)"><tspan x="0" y="0"> </tspan></text>
  <text class="cls-1-e06tt second-color" transform="translate(345.06 623.69) rotate(-2.23)"><tspan x="0" y="0">&amp;</tspan></text>
  <text class="cls-1-e06tt second-color" transform="translate(395.02 620.84) rotate(-8.54)"><tspan x="0" y="0"> </tspan></text>
  <text class="cls-1-e06tt second-color" transform="translate(417.95 618) rotate(-15.26)"><tspan x="0" y="0">S</tspan></text>
  <text class="cls-1-e06tt second-color" transform="translate(467.51 603.78) rotate(-24.28)"><tspan x="0" y="0">p</tspan></text>
  <text class="cls-1-e06tt second-color" transform="translate(506.91 585.65) rotate(-32.54)"><tspan x="0" y="0">a</tspan></text>
</svg>