<svg id="Layer_2" data-name="Layer 2" xmlns="http://www.w3.org/2000/svg" viewBox="0 0 700 700">
  <defs>
    <style>      

      .cls-2-a04 {
        font-family: SourceSerifVariable-Roman, 'Source Serif Variable';
        font-size: 88.47px;
        font-variation-settings: 'wght' 389;
      }

      .cls-2-a04, .cls-3-a04 {
        fill: #231f20;
      }
	  
      .cls-6-a04 {
        fill: none;
      }

      .cls-7-a04 {
        letter-spacing: -.04em;
      }

      .cls-8-a04 {
        fill: #010101;
      }      
    </style>
  </defs>
  <g id="Layer_1-2" data-name="Layer 1">
    <rect class="cls-6-a04" width="700" height="700"/>
    <g>
      <path class="cls-8-a04 first-color" d="m210.71,334.1c-22.23-54.41,52.88-142.55,77.41-180.87,0,0-26.82-23.76-52.88-43.68-22.23,44.45-101.16,151.75-75.87,226.09,25.29,74.34,98.1,93.5,158.64,81.24-38.32-3.07-85.07-28.36-107.3-82.77Z"/>
      <path class="cls-8-a04 first-color" d="m262.82,325.67c-9.2-49.82,61.31-108.83,75.87-127.22,0,0-23.76-22.23-39.09-36.02-24.24,33.71-78.81,96.59-80,149.68-1.02,45.56,45.51,81.77,98.39,94.8-14.56-9.2-45.98-31.42-55.18-81.24Z"/>
      <path class="cls-8-a04 first-color" d="m464.77,109.54c-26.06,19.93-52.88,43.68-52.88,43.68,24.52,38.32,99.63,126.46,77.41,180.87-22.23,54.41-68.98,79.71-107.3,82.77,60.55,12.26,133.35-6.9,158.64-81.24,25.29-74.34-53.65-181.64-75.87-226.09Z"/>
      <path class="cls-8-a04 first-color" d="m382,406.9c52.88-13.03,99.41-49.24,98.39-94.8-1.19-53.09-55.76-115.97-80-149.68-15.33,13.8-39.09,36.02-39.09,36.02,14.56,18.39,85.07,77.41,75.87,127.22-9.2,49.82-40.62,72.04-55.18,81.24Z"/>
      <path class="cls-8-a04 first-color" d="m423.57,324.13c0-43.16-44.83-87.94-73.57-116.68-28.74,28.74-73.57,73.52-73.57,116.68s43.11,73,73.57,86.22c30.46-13.22,73.57-43.06,73.57-86.22Z"/>
      <polygon class="cls-8-a04 first-color" points="393.68 152.84 350 95.36 306.32 152.84 350 189.63 393.68 152.84"/>
    </g>
    <g>
      <path class="cls-3-a04 second-color" d="m187.32,588.93c-.48,0-.89-.16-1.22-.49-.33-.33-.61-.68-.85-1.06l-16.83-25.33v25.48c0,.38-.14.71-.41.98-.28.28-.6.41-.98.41h-2.12c-.38,0-.71-.14-.98-.41-.28-.28-.41-.6-.41-.98v-33.46c0-.38.14-.71.41-.98.28-.28.6-.42.98-.42h1.81c.48,0,.89.16,1.22.49.33.33.61.68.85,1.06l16.83,25.33v-25.48c0-.38.14-.71.41-.98.28-.28.6-.42.98-.42h2.12c.38,0,.71.14.98.42s.41.6.41.98v33.46c0,.38-.14.71-.41.98s-.6.41-.98.41h-1.81Z"/>
      <path class="cls-3-a04 second-color" d="m207.31,582.15c0-1.38.28-2.59.83-3.62.55-1.04,1.31-1.92,2.28-2.64.97-.72,2.1-1.31,3.39-1.76,1.29-.45,2.67-.79,4.12-1.04l7.3-1.19v-.67c0-1.76-.58-3.08-1.73-3.96-1.16-.88-2.6-1.32-4.32-1.32-1.52,0-2.67.28-3.44.83-.78.55-1.44,1.21-1.99,1.97-.21.28-.43.47-.67.57-.24.1-.57.16-.98.16h-1.55c-.38,0-.72-.14-1.01-.42-.29-.28-.42-.6-.39-.98.07-.76.37-1.54.91-2.33.54-.79,1.26-1.5,2.18-2.12.91-.62,1.97-1.13,3.16-1.53,1.19-.4,2.46-.6,3.81-.6,1.55,0,3,.23,4.32.67,1.33.45,2.47,1.11,3.42,1.97.95.86,1.69,1.93,2.23,3.21.54,1.28.8,2.75.8,4.4v15.8c0,.38-.14.71-.41.98-.28.28-.6.41-.98.41h-1.92c-.38,0-.71-.14-.98-.41-.28-.28-.41-.6-.41-.98v-2.12c-.31.66-.79,1.23-1.45,1.73-.66.5-1.41.92-2.25,1.27-.85.34-1.73.6-2.64.78-.92.17-1.77.26-2.56.26-1.35,0-2.58-.19-3.7-.57-1.12-.38-2.07-.89-2.85-1.53-.78-.64-1.38-1.41-1.81-2.3-.43-.9-.65-1.86-.65-2.9Zm9.53,2.85c1.24,0,2.38-.19,3.42-.57,1.04-.38,1.92-.91,2.67-1.58.74-.67,1.31-1.48,1.71-2.41.4-.93.6-1.97.6-3.11v-1.29l-6.11.98c-2.18.35-3.9.9-5.18,1.66-1.28.76-1.92,1.74-1.92,2.95,0,.38.09.76.26,1.14.17.38.45.74.83,1.09.38.34.87.62,1.48.83.6.21,1.35.31,2.25.31Z"/>
      <path class="cls-3-a04 second-color" d="m253.1,556.51c0,.38-.14.71-.41.98-.28.28-.6.41-.98.41h-2.95c-.38,0-.71-.14-.98-.41-.28-.28-.41-.6-.41-.98v-2.95c0-.38.14-.71.41-.98.28-.28.6-.41.98-.41h2.95c.38,0,.71.14.98.41.28.28.41.6.41.98v2.95Zm-.52,31.02c0,.38-.14.71-.41.98-.28.28-.6.41-.98.41h-1.92c-.38,0-.71-.14-.98-.41-.28-.28-.41-.6-.41-.98v-24.13c0-.38.14-.71.41-.98.28-.28.6-.41.98-.41h1.92c.38,0,.71.14.98.41.28.28.41.6.41.98v24.13Z"/>
      <path class="cls-3-a04 second-color" d="m275.42,587.53c0,.38-.14.71-.41.98-.28.28-.6.41-.98.41h-1.92c-.38,0-.71-.14-.98-.41-.28-.28-.41-.6-.41-.98v-33.98c0-.38.14-.71.41-.98.28-.28.6-.41.98-.41h1.92c.38,0,.71.14.98.41.28.28.41.6.41.98v33.98Z"/>
      <path class="cls-3-a04 second-color" d="m308.88,581.47c0-.66-.18-1.2-.54-1.63-.36-.43-.91-.8-1.63-1.11s-1.65-.6-2.77-.88c-1.12-.28-2.43-.57-3.91-.88-2.8-.59-4.76-1.56-5.88-2.93-1.12-1.36-1.68-2.96-1.68-4.79,0-1.04.21-2.02.62-2.95.41-.93,1.04-1.76,1.86-2.49.83-.73,1.87-1.29,3.13-1.71,1.26-.42,2.74-.62,4.43-.62s3.17.19,4.43.57c1.26.38,2.32.86,3.19,1.45.86.59,1.52,1.22,1.97,1.89.45.67.69,1.32.73,1.94.03.38-.1.71-.39.98-.29.28-.63.41-1.01.41h-1.71c-.21,0-.46-.04-.75-.13-.29-.09-.56-.29-.8-.6-.45-.59-1.11-1.08-1.99-1.48-.88-.4-2.1-.6-3.65-.6s-2.87.29-3.86.88c-.98.59-1.48,1.4-1.48,2.43,0,.66.14,1.18.41,1.58.28.4.73.74,1.35,1.04.62.29,1.44.56,2.46.8,1.02.24,2.29.54,3.81.88,1.59.35,2.92.79,3.99,1.32,1.07.54,1.93,1.14,2.59,1.81.66.67,1.12,1.42,1.4,2.23.28.81.41,1.67.41,2.56,0,1.04-.25,2.04-.75,3-.5.97-1.22,1.81-2.15,2.54-.93.72-2.06,1.31-3.39,1.76-1.33.45-2.84.67-4.53.67s-3.19-.21-4.51-.62c-1.31-.41-2.43-.92-3.37-1.53-.93-.6-1.65-1.26-2.15-1.97-.5-.71-.77-1.37-.8-1.99-.03-.38.09-.71.36-.98.28-.28.62-.42,1.04-.42h1.86c.21,0,.45.03.73.08.28.05.53.25.78.6.55.76,1.31,1.35,2.28,1.76.97.41,2.23.62,3.78.62.76,0,1.51-.09,2.25-.26.74-.17,1.4-.41,1.97-.72.57-.31,1.03-.68,1.37-1.11.34-.43.52-.91.52-1.42Z"/>
      <path class="cls-3-a04 second-color" d="m377.55,571.11c.07-.31.24-.58.52-.8.28-.22.55-.34.83-.34h2.38c.38,0,.67.12.88.36.21.24.29.5.26.78-.07,1.45-.4,3.17-.98,5.15-.59,1.99-1.54,3.91-2.85,5.77l5.39,5.28c.21.21.31.45.31.72,0,.24-.09.45-.26.62-.17.17-.4.26-.67.26h-3.83c-.38,0-.66-.06-.83-.18-.17-.12-.33-.23-.46-.34l-2.9-2.85c-1.38,1.17-2.99,2.12-4.82,2.82-1.83.71-3.92,1.06-6.27,1.06-1.66,0-3.22-.22-4.69-.65-1.47-.43-2.74-1.06-3.83-1.89-1.09-.83-1.94-1.85-2.56-3.06s-.93-2.61-.93-4.2c0-1.14.2-2.18.6-3.13.4-.95.92-1.84,1.58-2.67.65-.83,1.41-1.59,2.25-2.28.85-.69,1.73-1.33,2.67-1.92-.93-1.04-1.71-1.94-2.33-2.72-.62-.78-1.11-1.51-1.45-2.2-.35-.69-.59-1.36-.72-2.02-.14-.66-.21-1.35-.21-2.07,0-1.38.3-2.6.91-3.65.6-1.05,1.38-1.94,2.33-2.67.95-.72,2-1.27,3.16-1.63,1.16-.36,2.29-.54,3.39-.54s2.22.2,3.34.6c1.12.4,2.14.96,3.05,1.68.92.73,1.66,1.62,2.23,2.67.57,1.05.85,2.24.85,3.55,0,2.07-.62,3.89-1.86,5.46-1.24,1.57-2.9,3.05-4.97,4.43l7.87,7.82c1.14-1.93,2.02-4.35,2.64-7.25Zm-13.31,13.67c1.35,0,2.67-.21,3.96-.65,1.29-.43,2.49-1.11,3.6-2.05l-9.01-8.96c-.72.45-1.42.92-2.1,1.42-.67.5-1.27,1.02-1.79,1.55-.52.54-.94,1.1-1.27,1.68-.33.59-.49,1.21-.49,1.87,0,.9.21,1.67.65,2.33.43.66.99,1.19,1.68,1.61.69.42,1.46.72,2.3.91.85.19,1.67.29,2.46.29Zm-4.71-24.08c0,.52.07,1,.21,1.45.14.45.37.92.7,1.4s.75,1.01,1.27,1.58c.52.57,1.14,1.24,1.86,1.99.62-.34,1.25-.73,1.89-1.17s1.22-.91,1.73-1.42c.52-.52.94-1.1,1.27-1.73s.49-1.34.49-2.1c0-.45-.11-.91-.34-1.37-.23-.47-.54-.88-.93-1.24-.4-.36-.88-.66-1.45-.91-.57-.24-1.18-.36-1.84-.36-1.28,0-2.41.37-3.39,1.11-.98.74-1.48,1.67-1.48,2.77Z"/>
      <path class="cls-3-a04 second-color" d="m434.21,552.16c2.11,0,3.96.33,5.57.98s2.97,1.46,4.09,2.41c1.12.95,1.98,1.97,2.56,3.06.59,1.09.9,2.06.93,2.93.03.31-.07.58-.31.8-.24.23-.52.34-.83.34h-2.12c-.38,0-.68-.07-.91-.21-.22-.14-.46-.45-.7-.93-.17-.34-.46-.79-.85-1.32-.4-.54-.93-1.05-1.61-1.55-.67-.5-1.49-.93-2.46-1.29-.97-.36-2.09-.54-3.37-.54-.97,0-1.89.11-2.77.34-.88.22-1.67.56-2.36,1.01-.69.45-1.24,1.01-1.66,1.68-.41.67-.62,1.46-.62,2.36s.2,1.66.59,2.28c.4.62,1.04,1.18,1.92,1.68.88.5,1.99.96,3.34,1.37,1.35.42,2.99.88,4.92,1.4,1.97.52,3.63,1.09,5,1.71,1.36.62,2.48,1.32,3.34,2.1.86.78,1.49,1.68,1.89,2.69.4,1.02.6,2.17.6,3.44,0,1.55-.34,2.98-1.01,4.27-.67,1.29-1.61,2.41-2.82,3.34-1.21.93-2.67,1.66-4.38,2.18-1.71.52-3.62.78-5.72.78s-3.85-.29-5.54-.88c-1.69-.59-3.14-1.35-4.35-2.28-1.21-.93-2.17-1.97-2.87-3.11-.71-1.14-1.08-2.26-1.11-3.37,0-.31.11-.58.34-.8s.49-.34.8-.34h2.12c.34,0,.65.07.91.21.26.14.49.45.7.93s.53,1.01.96,1.58c.43.57,1.01,1.11,1.74,1.61.72.5,1.61.92,2.64,1.27,1.04.35,2.26.52,3.68.52,1.21,0,2.36-.14,3.44-.41,1.09-.28,2.05-.67,2.87-1.19.83-.52,1.48-1.14,1.97-1.86.48-.73.73-1.54.73-2.43s-.28-1.67-.83-2.3c-.55-.64-1.35-1.22-2.38-1.74-1.04-.52-2.3-.99-3.81-1.42s-3.2-.89-5.1-1.37c-1.73-.45-3.19-.99-4.4-1.63-1.21-.64-2.19-1.37-2.95-2.2-.76-.83-1.3-1.74-1.63-2.75-.33-1-.49-2.09-.49-3.26,0-1.28.26-2.52.78-3.73.52-1.21,1.29-2.28,2.3-3.21,1.02-.93,2.3-1.68,3.83-2.25s3.34-.85,5.41-.85Z"/>
      <path class="cls-3-a04 second-color" d="m477.62,589.45c-2.14,0-3.85-.37-5.13-1.11-1.28-.74-2.25-1.54-2.9-2.41v11.45c0,.38-.14.71-.41.98-.28.28-.6.42-.98.42h-1.92c-.38,0-.71-.14-.98-.42s-.41-.6-.41-.98v-33.98c0-.38.14-.71.41-.98s.6-.41.98-.41h1.92c.38,0,.71.14.98.41.28.28.41.6.41.98v1.61c.69-.93,1.67-1.75,2.95-2.46,1.28-.71,2.97-1.06,5.08-1.06,1.62,0,3.13.29,4.53.85,1.4.57,2.62,1.39,3.65,2.46s1.86,2.37,2.49,3.88c.62,1.52.98,3.23,1.09,5.13.03.52.05,1.08.05,1.68s-.02,1.17-.05,1.68c-.1,1.9-.47,3.61-1.09,5.13-.62,1.52-1.45,2.81-2.49,3.86s-2.25,1.86-3.65,2.43c-1.4.57-2.91.85-4.53.85Zm-8.03-16.21c-.04.52-.05,1.2-.05,2.05s.02,1.53.05,2.05c.1,2.45.84,4.34,2.2,5.67,1.36,1.33,3.13,1.99,5.31,1.99s4.07-.72,5.39-2.17c1.31-1.45,2.04-3.42,2.17-5.9.03-.97.03-1.93,0-2.9-.14-2.49-.86-4.45-2.17-5.9-1.31-1.45-3.11-2.18-5.39-2.18-2.14,0-3.9.66-5.28,1.97s-2.12,3.09-2.23,5.33Z"/>
      <path class="cls-3-a04 second-color" d="m504.29,582.15c0-1.38.28-2.59.83-3.62.55-1.04,1.31-1.92,2.28-2.64.97-.72,2.1-1.31,3.39-1.76,1.29-.45,2.67-.79,4.12-1.04l7.3-1.19v-.67c0-1.76-.58-3.08-1.74-3.96-1.16-.88-2.6-1.32-4.33-1.32-1.52,0-2.67.28-3.44.83-.78.55-1.44,1.21-1.99,1.97-.21.28-.43.47-.67.57-.24.1-.57.16-.98.16h-1.55c-.38,0-.72-.14-1.01-.42-.29-.28-.42-.6-.39-.98.07-.76.37-1.54.91-2.33.53-.79,1.26-1.5,2.17-2.12.92-.62,1.97-1.13,3.16-1.53,1.19-.4,2.46-.6,3.81-.6,1.55,0,3,.23,4.33.67,1.33.45,2.47,1.11,3.42,1.97.95.86,1.69,1.93,2.23,3.21.54,1.28.8,2.75.8,4.4v15.8c0,.38-.14.71-.41.98-.28.28-.61.41-.98.41h-1.92c-.38,0-.71-.14-.98-.41-.28-.28-.41-.6-.41-.98v-2.12c-.31.66-.79,1.23-1.45,1.73-.66.5-1.41.92-2.25,1.27-.85.34-1.73.6-2.64.78-.92.17-1.77.26-2.56.26-1.35,0-2.58-.19-3.7-.57s-2.07-.89-2.85-1.53c-.78-.64-1.38-1.41-1.81-2.3-.43-.9-.65-1.86-.65-2.9Zm9.53,2.85c1.24,0,2.38-.19,3.42-.57s1.92-.91,2.67-1.58c.74-.67,1.31-1.48,1.71-2.41.4-.93.6-1.97.6-3.11v-1.29l-6.11.98c-2.17.35-3.9.9-5.18,1.66-1.28.76-1.92,1.74-1.92,2.95,0,.38.08.76.26,1.14.17.38.45.74.83,1.09s.87.62,1.48.83c.6.21,1.35.31,2.25.31Z"/>
    </g>
    <text class="cls-2-a04" transform="translate(106.98 519.68)"><tspan class="cls-7-a04" x="0" y="0" id="span_svg_logo_envie.a4a06da9-bb74-49b3-a563-b638b0f98c88_13">NAME TEXT</tspan></text>
  </g>
</svg>