<svg id="Layer_1" data-name="Layer 1" xmlns="http://www.w3.org/2000/svg" viewBox="0 0 700 700">
  <defs>
    <style>
      .cls-1s-l03 {
        fill: #231f20;
      }
    </style>
  </defs>
  <path class="cls-1s-l03 second-color" d="m428.83,649.91v1.21h60.26v-18.99h-1.09c-.2,1.33-.66,3.01-1.38,5.03-.73,2.02-1.84,3.97-3.36,5.85-1.52,1.88-3.47,3.5-5.88,4.85-2.4,1.36-5.42,2.04-9.04,2.04h-18.67v-31.3h8c2.37,0,4.3.36,5.78,1.08,1.48.72,2.67,1.69,3.56,2.9.89,1.21,1.58,2.6,2.07,4.16.49,1.56.97,3.18,1.43,4.86h1.09v-26.96h-1.09c-.73,2.6-1.47,4.72-2.22,6.37-.76,1.65-1.68,2.95-2.77,3.9-1.09.95-2.39,1.6-3.9,1.95-1.52.35-3.36.52-5.53.52h-6.42v-26.79h16.4c2.7,0,5,.29,6.91.87,1.91.58,3.56,1.46,4.94,2.64,1.38,1.19,2.57,2.63,3.56,4.33.99,1.71,1.91,3.68,2.77,5.94h1.09v-15h-56.5v1.21h10.96v59.3h-10.96Z"/>
  <polygon class="cls-1s-l03 second-color" points="527.61 589.4 498.17 589.4 498.17 590.61 506.37 590.61 527.41 620.96 507.65 649.91 498.17 649.91 498.17 651.13 518.81 651.13 518.81 649.91 509.33 649.91 528.2 622.17 547.46 649.91 537.98 649.91 537.98 651.13 567.61 651.13 567.61 649.91 559.41 649.91 534.82 614.63 551.31 590.61 560.8 590.61 560.8 589.4 540.25 589.4 540.25 590.61 549.73 590.61 533.93 613.41 518.12 590.61 527.61 590.61 527.61 589.4"/>
  <polygon class="cls-1s-l03 second-color" points="65.81 649.91 65.81 651.13 89.22 651.13 89.22 649.91 78.26 649.91 78.26 594.17 78.46 594.17 120.04 652.34 122.02 652.34 122.02 590.61 132.98 590.61 132.98 589.4 109.57 589.4 109.57 590.61 120.54 590.61 120.54 636.65 120.34 636.65 86.95 589.4 65.81 589.4 65.81 590.61 76.78 590.61 76.78 649.91 65.81 649.91"/>
  <path class="cls-1s-l03 first-color" d="m220.24,362.37c-10.04,12.31-16.5,26.53-19.81,41.8-3.06,14.13-2.43,28.4,2.04,42.58,4.75,15.07,10.35,29.48,20.44,41.88,6.12,7.52,12.49,14.62,20.3,20.54,11.79,8.94,24.75,15.38,38.66,20.12,13.76,4.68,27.89,7.88,42.36,9.06,15.9,1.3,31.81,1.16,47.73-.48,16.89-1.75,33.21-5.44,48.63-12.68,14.64-6.87,27.49-16.28,38.7-27.87,8.57-8.87,14.94-19.44,20.33-30.36,10.17-20.59,15.36-42.56,15.33-65.62-.02-18.43-.16-36.85-.19-55.28-.04-23.4,0-46.81-.09-70.21-.01-2.92.08-5.34,3.6-6.05.61-.12,1.17-.92,1.61-1.51,2.58-3.47,1.84-8.79-1.49-10.96-4.25-2.77-9.51-1.96-12.02,1.86-2.52,3.83-1.48,8.96,2.65,11.09,2.01,1.03,2.39,2.21,2.39,4.21-.06,19.52-.04,39.04-.04,58.56,0,4.52,0,9.04,0,12.99-2.44,1.32-4.79,2.06-6.4,3.58-3.49,3.3-7.13,6.66-9.76,10.62-6.45,9.71-12.5,19.68-18.44,29.71-6.49,10.96-12.4,22.27-19.08,33.11-6.64,10.76-13.58,21.38-21.03,31.58-6.05,8.29-12.72,16.2-19.77,23.67-6.09,6.45-12.79,12.41-19.75,17.92-16.19,12.83-34.22,19.86-55.37,16.35-12.02-1.99-23.4-5.48-33.24-12.91-2.57-1.94-4.73-4.4-7.26-6.4-10.11-8-14.32-23.98-9.45-36.16,3.51-8.78,9.9-15.25,16.09-21.89,9.51-10.2,21.79-16.61,33.64-23.55,15.57-9.11,31.18-18.15,46.75-27.25,3.43-2.01,6.69-4.31,10.17-6.22,15.21-8.38,29.32-18.27,41.97-30.17,8.41-7.9,14.27-17.73,19.35-27.88,4.77-9.55,7.2-20.06,8.02-30.68,1.47-19.04-.52-37.48-11.42-54.07-5.29-8.06-11.19-15.31-18.85-21.35-11.66-9.19-25.11-14.26-38.95-18.71-4.85-1.56-9.66-3.26-14.95-5.05,5.37-2.56,10.16-4.71,14.83-7.09,12.91-6.59,23.72-15.42,30.09-28.85,6.6-13.91,6.66-28.51,4.17-43.24-2.16-12.83-7.19-24.26-16.46-33.88-7.71-7.99-16.53-14.06-26.63-18.27-6.98-2.9-14.26-5.07-21.57-7.62,19.67-1.37,38.79,1.21,57.32,7.94,21.55,7.84,40,20.51,54.82,37.8,7.45,8.7,13.72,18.68,19.08,28.84,7.85,14.89,11.31,31.29,11.91,48.08.49,13.68.12,27.39.2,41.09.01,2.25-.12,3.94-2.65,5.09-2.93,1.33-4.32,5.16-3.58,7.92,1.07,3.99,4.15,6.63,7.75,6.63,3.3,0,7.17-2.58,8.12-5.41,1.21-3.59-.21-7.99-3.41-9.09-2.65-.9-2.93-2.47-2.95-4.84-.16-16.05.14-32.14-.85-48.14-1.16-18.72-6.6-36.33-16.74-52.34-6.04-9.54-12.36-18.69-20.54-26.72-11.65-11.45-24.63-20.61-39.35-27.55-21.48-10.14-44.1-13.97-67.68-12.78-6.92.35-13.83,1.31-20.73,1.24-16.15-.15-32.29-.95-48.44-1.13-23.07-.25-46.14-.18-69.21-.24-1.29,0-2.67-.17-3.85.23-.99.33-2.24,1.21-2.53,2.12-2.19,6.8,1.13,12.53,8.22,13.96,5.48,1.11,8.63,4.62,8.62,10.67-.12,70.97-.09,141.93-.09,212.9,0,23.72.03,47.45-.04,71.17,0,1.21-.48,2.66-1.23,3.59Zm73.23-234.22c0-17.68,0-35.36,0-53.05,0-8.85,1.93-10.4,10.44-8.01,11.27,3.16,21.7,8.03,26.64,19.4,2.73,6.28,4.3,13.31,5.07,20.15,1.03,9.15,1.42,18.49.92,27.68-.74,13.63-4.89,26.53-13.14,37.48-3.56,4.73-9.01,8.13-13.88,11.76-3.05,2.27-6.52,4.06-9.99,5.63-2.9,1.3-4.76-.43-5.52-3.22-.39-1.43-.52-2.96-.52-4.45-.03-17.79-.02-35.58-.02-53.37Zm-58.72,130.93c6.38-10.85,14.88-20.04,24.91-27.53,14.89-11.11,31.55-18.43,49.92-21.97,11.11-2.15,22.26-2.6,33.4-1.69,11.15.91,22,3.67,32.23,8.39,3.58,1.65,7.42,3.18,10.38,5.66,9.42,7.88,9.71,20.02-.08,29.3-6.31,5.99-13.86,10.8-21.28,15.46-14.07,8.84-28.46,17.18-42.71,25.75-12.88,7.75-25.87,15.31-38.57,23.34-13.78,8.71-27.4,17.69-40.83,26.92-6.05,4.16-11.48,9.23-17.37,14.04v-6.32c0-18.55.45-37.11-.15-55.63-.43-13.2,3.7-24.76,10.14-35.72Z"/>
  <path class="cls-1s-l03 second-color" d="m402.75,590.61c1.32,0,2.8.1,4.45.3,1.65.2,3.31.77,4.99,1.69,1.68.93,3.29,2.38,4.84,4.38,1.55,1.99,2.88,4.75,4,8.28h1.09v-15.86h-60.06v15.86h1.09c1.12-3.52,2.45-6.29,4-8.28,1.55-1.99,3.16-3.45,4.84-4.38,1.68-.92,3.34-1.49,4.99-1.69,1.65-.2,3.13-.3,4.45-.3h5.73v59.3h-10.96v1.21h31.81v-1.21h-10.96v-59.3h5.73Z"/>
  <path class="cls-1s-l03 second-color" d="m167.26,587.84h-2.37l-26.67,62.08h-8.69v1.21h21.24v-1.21h-10.97l10.37-24.1h22.92l10.37,24.1h-10.96v1.21h30.42v-1.21h-8.79l-26.87-62.08Zm-16.5,36.76l10.87-25.23,10.87,25.23h-21.73Z"/>
  <path class="cls-1s-l03 second-color" d="m574.13,605.26h1.09c1.12-3.52,2.45-6.29,4-8.28,1.55-1.99,3.16-3.45,4.84-4.38,1.68-.92,3.34-1.49,4.99-1.69,1.65-.2,3.13-.3,4.45-.3h5.73v59.3h-10.97v1.21h31.81v-1.21h-10.97v-59.3h5.73c1.32,0,2.8.1,4.45.3,1.65.2,3.31.77,4.99,1.69,1.68.93,3.29,2.38,4.84,4.38,1.55,1.99,2.88,4.75,4,8.28h1.09v-15.86h-60.06v15.86Z"/>
  <path class="cls-1s-l03 second-color" d="m291.72,649.91v1.21h60.26v-18.99h-1.09c-.2,1.33-.66,3.01-1.38,5.03-.73,2.02-1.84,3.97-3.36,5.85-1.52,1.88-3.47,3.5-5.88,4.85-2.41,1.36-5.42,2.04-9.04,2.04h-18.67v-31.3h8c2.37,0,4.3.36,5.78,1.08,1.48.72,2.67,1.69,3.56,2.9.89,1.21,1.58,2.6,2.07,4.16.49,1.56.97,3.18,1.43,4.86h1.09v-26.96h-1.09c-.73,2.6-1.47,4.72-2.22,6.37-.76,1.65-1.68,2.95-2.77,3.9s-2.39,1.6-3.9,1.95c-1.52.35-3.36.52-5.53.52h-6.42v-26.79h16.4c2.7,0,5,.29,6.91.87,1.91.58,3.56,1.46,4.94,2.64,1.38,1.19,2.57,2.63,3.56,4.33.99,1.71,1.91,3.68,2.77,5.94h1.09v-15h-56.5v1.21h10.97v59.3h-10.97Z"/>
  <polygon class="cls-1s-l03 second-color" points="286.19 590.61 286.19 589.4 264.36 589.4 246.08 636.04 245.89 636.04 227.61 589.4 205.39 589.4 205.39 590.61 216.35 590.61 216.35 649.91 205.39 649.91 205.39 651.13 228.8 651.13 228.8 649.91 217.83 649.91 217.83 591.74 218.03 591.74 241.54 651.21 265.15 591.13 265.35 591.13 265.35 649.91 254.38 649.91 254.38 651.13 286.19 651.13 286.19 649.91 275.22 649.91 275.22 590.61 286.19 590.61"/>
</svg>