<svg id="Layer_1" data-name="Layer 1" xmlns="http://www.w3.org/2000/svg" viewBox="0 0 700 700">
  <defs>
    <style>
      .cls-1s-n09 {
        fill: #231f20;
      }
    </style>
  </defs>
  <polygon class="cls-1s-n09 second-color" points="377.38 47.34 395.09 50.87 384.75 102.69 392.35 104.2 402.68 52.39 420.47 55.94 421.75 49.54 378.66 40.95 377.38 47.34"/>
  <path class="cls-1s-n09 first-color" d="m433.18,339.15c-2.25,15.89-4.2,31.92-7.51,47.62-3.8,11.37-11.84,27.88-16.69,39.08-3.08,6.93-6.21,13.85-8.8,20.98,2.4-6.05,6.61-14.77,9.42-20.69,5.08-11.11,13.78-27.51,17.67-38.94,3.62-15.76,5.92-31.73,8.42-47.69.62-4.71,1.45-9.44,1.71-14.22.81-6.44,2.52-13.21,2.53-19.79-.03-3.01-.16-6.38-2.03-9.04-4.02-5.23-11.19-1.05-14.17,3.01-2.54,3.1-4.39,6.54-6.07,10.01-4.78,10.07-8.03,21.77-11.31,32.38-5.35,18.1-15.35,34.41-24.24,50.97-7.24,13.24-15.26,26.12-25.88,36.94-10.26,11.17-22.95,19.75-33.88,30.22,11.42-10.01,24.27-18.28,34.95-29.17,8.07-8.09,15.14-17.24,21-27.04,5.94-9.73,11.62-19.6,16.95-29.68,4.38-8.42,8.91-16.93,12.06-25.96,4-12.22,7.61-25.77,13.04-37.38,2.37-4.8,4.92-9.98,9.43-12.9,6.23-3.46,7.46,2.61,7.39,7.65.04,6.4-1.67,13.25-2.4,19.66-.23,4.68-1.02,9.34-1.6,14.01Z"/>
  <path class="cls-1s-n09 second-color" d="m497.73,642.16v17.69h1.87v-5.59h4.75c4.5,0,7.23-2.27,7.23-6.04s-2.73-6.07-7.23-6.07h-6.62Zm11.98,6.07c0,2.78-1.87,4.4-5.41,4.4h-4.7v-8.85h4.7c3.54,0,5.41,1.62,5.41,4.45Z"/>
  <path class="cls-1s-n09 second-color" d="m536.42,642.16l-8.09,17.69h1.95l2.12-4.73h9.86l2.12,4.73h1.97l-8.09-17.69h-1.85Zm-3.34,11.45l4.25-9.5,4.25,9.5h-8.49Z"/>
  <polygon class="cls-1s-n09 second-color" points="413.59 109.51 444.42 122.31 446.88 116.37 423.13 106.51 431.34 86.75 452.65 95.59 455.08 89.74 433.77 80.89 440.96 63.57 463.49 72.92 465.95 66.98 436.35 54.69 413.59 109.51"/>
  <path class="cls-1s-n09 second-color" d="m182.88,136.85l-34.73-7.59-5.88,5.95,42.21,41.73,5.08-5.13-18.03-17.83c-7.01-6.94-12.21-11.83-17.84-16.78l.12-.25c6.68,2.39,14.28,4.34,21.89,6.04l34.67,7.78,5.45-5.51-42.21-41.73-5.08,5.13,17.66,17.46c6.58,6.5,11.83,11.45,17.97,16.53l-.06.19c-6.3-2.27-13.16-4.22-21.21-5.98Z"/>
  <path class="cls-1s-n09 second-color" d="m488.49,79.73l-7.31-5.06-2.34,34.04-32,14.37,7.24,5.01,13.28-6.66c5.49-2.52,8.67-4.17,12-6.05l.14.1c-.43,3.88-.69,7.66-1.01,13.54l-1.24,15.1,7.31,5.06,2.13-35.58,31.28-13.48-7.24-5.01-14.58,6.83c-3.96,1.86-6.75,3.25-10.13,5.2l-.22-.15c.5-3.51.83-6.92,1.22-11.36l1.47-15.9Z"/>
  <path class="cls-1s-n09 second-color" d="m405.4,642.16v17.69h7.2c5.66,0,9.48-3.64,9.48-8.85s-3.82-8.85-9.48-8.85h-7.2Zm14.83,8.85c0,4.25-3.03,7.23-7.73,7.23h-5.23v-14.46h5.23c4.7,0,7.73,2.98,7.73,7.23Z"/>
  <path class="cls-1s-n09 second-color" d="m280.24,78.4l-17.2-25.12-9.44,2.52,11.33,58.41,7.06-1.89-5.04-25c-1.79-8.73-3.93-18.46-5.67-25.65l.17-.05c3.44,6.37,7.71,13.16,12.59,20.52l16.57,24.83,5.61-1.5,2.69-30.53c.78-8.68,1.25-16.47,1.41-23.71l.25-.07c1.83,7.17,4.91,16.65,7.47,24.53l8.18,24.8,7.23-1.93-18.9-56.38-9.44,2.52-2.79,30.46c-.62,7.91-.98,14.76-.88,20.93l-.25.07c-3.04-5.57-6.68-11.34-10.95-17.77Z"/>
  <polygon class="cls-1s-n09 second-color" points="363.74 40 331.69 40.1 331.88 99.45 365.25 99.34 365.23 92.91 339.52 93 339.45 71.6 362.52 71.52 362.5 65.18 339.43 65.26 339.37 46.51 363.76 46.43 363.74 40"/>
  <path class="cls-1s-n09 first-color" d="m312.11,345.24l-.78.21s-.12.79-.12.79c-1.81,12.12-3.21,24.1-5.18,36.15-2.93,17.91-6.09,35.91-11.89,53.11-1.4,4.15-3.31,8.53-5.31,12.43-1.97,4.22-3.36,8.72-4.44,13.23-1.04,4.55-1.84,9.14-2.47,13.75-14.65-22.06-28.9-44.66-40.43-68.46-.25-.5-.38-.99-.55-1.49l-.5-1.48s-.72-3.17-.72-3.17c-3.28-19.67-3.71-39.78-3.83-59.7.05-4.45.17-8.81.71-13.22.82-8.93,1.37-17.82,1.92-26.73l.84-13.35c.14-2.12.53-7.97.71-9.99.08-.86.16-1.73.28-2.54,6.45.77,10.33,6.69,11.05,12.87.42,3.14.3,6.54-.05,9.81-2.85,7.85-5.73,16.03-6.34,24.11-.55,6.4.38,15.38.67,21.85.75,10.83,1.61,21.62,3.1,32.41.37-10.87.11-21.73-.26-32.58-.16-6.28-1.01-15.31-.68-21.49.39-8.55,2.97-16.77,4.86-25.11.28,12.54,1.8,25.02,3.4,37.44,1.43,9.61,2.67,19.31,5.21,28.69-.23-1.2-.35-2.4-.49-3.61-.69-6.49-1.78-18.76-2.4-25.35-1.14-13.96-2.86-29.46-2.97-43.38,0-.56.02-2.14.03-2.67.05-.58.17-1.97.22-2.58,1.49-11.96,8.41-22.1,13.54-32.8.04,1.9.06,3.79.03,5.65-.19,6.32-.03,12.6.21,18.88.5,7.87.52,15.8,2.17,23.55.91,2.94,3.13,10.44,4.05,13.51,3.21,10.5,7.49,25.8,11.09,35.98-1.95-5.96-3.56-12.03-5.27-18.07-2.32-8.39-6.55-23.48-8.87-31.74-1.44-7.6-1.36-15.55-1.7-23.29-.15-6.26-.26-12.53,0-18.76.29-6.35-.16-12.64-.54-18.9-.61-10.52-2.14-25.81-1.89-36.44,9.62-1.08,18.84,5.54,20.09,15.35,2.12,13.76,6.07,47.64,8.05,61.4,1.08,10.4,4.87,20.31,8.43,30.04,4.94,12.88,10.25,25.71,17.28,37.6-5.52-12.64-10.12-25.58-14.66-38.55-2.65-8.11-5.86-16.07-7.41-24.42-.51-3.24-1.7-11.95-2.15-15.3-.71-5.43-1.42-10.86-2.13-16.29,3.86-4.78,7.37-9.84,10.48-15.14,5-8.67,7.75-15.61,2.24-24.97-1.23-2.14-2.71-4.12-4.47-5.9-4.52,4.28-8.74,8.85-12.56,13.76,4.05-3.93,8.19-7.79,12.44-11.5,2.4,3.02,4.32,6.56,5.23,10.25,1.07,4.09.12,8.03-1.61,11.83-3.26,7.45-7.55,14.49-11.76,21.49-1.06-8.16-2.14-16.33-3.25-24.49-1.15-6.89-1.09-14.57-5.89-20.21-4.81-6.14-13.19-8.58-20.67-7.04,0,0-.02.97-.02.97-.23,16.14,2.63,33.81,3.06,50.25-6.33,9.97-14.5,21.05-16.17,32.86-.11,1.08-.37,2.7-.37,3.78-.05,1.79-.06,3.57-.05,5.36-.29.8-.58,1.61-.88,2.41.4-2.86.59-5.89.34-8.75-.48-6.96-4.89-13.75-12.34-14.42l-.67-.06s-.14.64-.14.64c-1.28,7.55-1.97,19.08-2.72,26.76-.79,8.88-1.44,17.79-2.37,26.61-.61,4.44-.8,9-.86,13.47,0,20.14.43,40.43,4.03,60.29l.81,3.34.59,1.68c.2.56.38,1.14.64,1.63,11.97,23.89,26.89,46.08,42.85,67.42-2.27,16.55-2.34,33.4-2.96,50.03-.64,23.84-1,49.69-17.75,68.51-3.96,4.55-8.64,8.44-13.64,11.87-4.08,2.86-8.45,5.33-12.48,8.28h-79.49v-339.43c0-22.36,3.8-44.26,11.3-65.1.37-1.04-.17-2.18-1.21-2.56-1.04-.37-2.18.17-2.56,1.21-7.66,21.28-11.54,43.64-11.54,66.46v341.43c0,1.1.9,2,2,2h388.51c1.1,0,2-.9,2-2v-341.43c0-22.95-3.93-45.44-11.67-66.83-.38-1.04-1.52-1.57-2.56-1.2-1.04.38-1.58,1.52-1.2,2.56,7.59,20.95,11.43,42.98,11.43,65.47v339.43h-184.31c17.71-21.66,37.18-41.88,57.23-61.37,6.28-5.83,13.26-10.77,19.5-16.76,4.63-4.45,9.17-9.07,11.86-15.09,1.12-2.59,1.73-6.54,2.48-9.27l2.19-9.1c2.95-12.12,5.9-24.25,9.37-36.18,3.66-12.01,6.08-24.6,5.95-37.21.09-12.72-4.61-24.74-8.63-36.59-4.16-11.29-8.81-22.46-14.7-32.96-.04-.73-.08-1.45-.12-2.18-.69-10.49-1.75-20.95-3.28-31.35.74,15.73,1.55,31.42,1.64,47.14-.02,7.76.1,15.66-1.1,23.3-4.39,17.78-9.44,35.48-12.82,53.51,4.14-14.48,11.66-38.69,15.22-53.05.41-2.72.69-5.45.87-8.18,2.28,16.94,2.55,34.19,3.17,51.24.19,3.14-.27,6.27-.84,9.36-.57,3.13-1.3,6.25-2.05,9.38,2.42-5.96,4.73-12.23,4.84-18.74.25-17.96-.07-36.41-4.97-53.81.41-8.82-.08-17.67-.55-26.45,5.28,10.74,9.6,21.91,13.28,33.27,2.79,8.83,5.86,17.76,7.23,26.91,1.61,15.38-1.25,30.87-5.88,45.59-4.82,16.43-8.86,33.31-12.76,49.97-1.32,7.53-7.07,13.22-12.32,18.46-6.6,6.55-14.48,11.95-20.95,18.73-19.13,19.4-37.74,39.55-54.02,61.42h-120.3c4.1-2.73,8.49-5,12.61-7.73,5.13-3.3,9.99-7.1,14.17-11.61,17.48-18.43,18.5-45.25,19.4-69.23.91-21.16.86-42.54,5.68-63.23,1.07-4.35,2.4-8.62,4.31-12.66,2.05-3.98,4.07-8.5,5.47-12.7,5.79-17.44,8.88-35.6,11.74-53.67,1.84-11.7,3.22-23.61,4.86-35.31,4.11-.63,7.92,2.63,10.5,5.72,6.53,7.46,8.08,17.22,8.25,26.83.22,9.73-.72,19.49-2.15,29.12-2.18,14.57-1.88,29.43-.65,44.06-.51-9.77-.54-19.58.11-29.33.51-9.81,2.96-19.34,3.8-29.12.68-7.35,1.01-14.79.32-22.17-.16-2.42-.56-4.83-1.16-7.18,3.86,4.66,7.76,9.29,12.01,13.65,3.55,3.47,7.32,7.28,12.28,8.72,10.61,2.65,13.11-10.53,13.01-18.32.08-6.71-.74-13.34-1.9-19.89-.62-3.43-1.98-6.56-3.33-9.59-6.74-14.68-14.59-29.83-14.77-46.27-.01-5.59,1.35-11.73,5.7-15.36,3.69,6.71,8.12,12.88,12.4,19.19,13.51,19.77,27.57,40.77,29.8,65.23,0-24.86-13.84-47.01-27.35-66.91-4.84-7.15-9.91-14.09-13.91-21.58-7.02,3.85-9.47,11.96-9.35,19.43.25,16.99,8.25,32.3,15.37,47.23,1.37,2.97,2.69,5.95,3.28,9.03,1.22,6.43,2.1,12.96,2.1,19.47.08,6.76-1.39,18.75-10.69,16.81-4.67-1.26-8.42-4.68-11.98-7.89-4.43-4.17-8.55-8.69-12.73-13.14-1.26-4.89-3.46-9.52-6.72-13.45-3.16-3.98-8.24-8.01-13.71-6.53Z"/>
  <path class="cls-1s-n09 second-color" d="m470.63,658.41c-2.33,0-4.57-.91-5.84-2.15l-.73,1.44c1.31,1.36,3.92,2.3,6.57,2.3,4.52,0,6.6-2.22,6.6-4.83,0-6.44-10.89-3.51-10.89-8.36,0-1.77,1.44-3.21,4.67-3.21,1.57,0,3.34.48,4.85,1.47l.63-1.49c-1.42-.99-3.49-1.57-5.48-1.57-4.5,0-6.52,2.25-6.52,4.85,0,6.55,10.89,3.56,10.89,8.42,0,1.74-1.44,3.13-4.75,3.13Z"/>
  <rect class="cls-1s-n09 second-color" x="223.69" y="642.16" width="1.87" height="17.69"/>
  <polygon class="cls-1s-n09 second-color" points="522.97 113.1 535.29 126.29 496.68 162.35 501.97 168.02 540.58 131.95 552.97 145.21 557.73 140.76 527.74 108.65 522.97 113.1"/>
  <polygon class="cls-1s-n09 second-color" points="247.75 642.16 247.75 659.85 259.53 659.85 259.53 658.23 249.62 658.23 249.62 642.16 247.75 642.16"/>
  <path class="cls-1s-n09 second-color" d="m186.31,659.85h1.95l2.12-4.73h9.86l2.12,4.73h1.97l-8.09-17.69h-1.85l-8.09,17.69Zm13.24-6.24h-8.49l4.25-9.5,4.25,9.5Z"/>
  <polygon class="cls-1s-n09 second-color" points="153.71 642.16 152.16 642.16 152.16 659.85 154.04 659.85 154.04 645.5 165.41 659.85 166.95 659.85 166.95 642.16 165.1 642.16 165.1 656.52 153.71 642.16"/>
  <path class="cls-1s-n09 second-color" d="m331.05,659.85h1.95l2.12-4.73h9.86l2.12,4.73h1.97l-8.09-17.69h-1.85l-8.09,17.69Zm13.24-6.24h-8.49l4.25-9.5,4.25,9.5Z"/>
  <path class="cls-1s-n09 second-color" d="m206.62,80.4l13.26,61.26,6.79-4.08-4.32-19.18,18.04-10.83,15.05,12.74,7.02-4.22-47.91-40.46-7.93,4.76Zm29.33,22.85l-15.32,9.2-3.86-17.71c-.88-3.68-1.91-7.28-2.96-10.75l.15-.09c2.52,2.49,5.09,5.06,8.22,7.7l13.78,11.65Z"/>
  <path class="cls-1s-n09 second-color" d="m283.74,658.41c-2.32,0-4.57-.91-5.84-2.15l-.73,1.44c1.31,1.36,3.92,2.3,6.57,2.3,4.52,0,6.6-2.22,6.6-4.83,0-6.44-10.89-3.51-10.89-8.36,0-1.77,1.44-3.21,4.68-3.21,1.57,0,3.34.48,4.85,1.47l.63-1.49c-1.42-.99-3.49-1.57-5.48-1.57-4.5,0-6.52,2.25-6.52,4.85,0,6.55,10.89,3.56,10.89,8.42,0,1.74-1.44,3.13-4.75,3.13Z"/>
  <polygon class="cls-1s-n09 second-color" points="369.97 642.16 368.43 642.16 368.43 659.85 370.3 659.85 370.3 645.5 381.67 659.85 383.21 659.85 383.21 642.16 381.37 642.16 381.37 656.52 369.97 642.16"/>
</svg>